<svg width="695" height="206" viewBox="0 0 695 206" fill="none" xmlns="http://www.w3.org/2000/svg">
<path d="M8.5 125C8.5 126.512 9.4653 127.587 10.9198 128.335C12.3647 129.078 14.3867 129.556 16.7464 129.871C21.4742 130.501 27.7623 130.5 34 130.5C40.2623 130.5 46.4742 130.501 51.1214 131.121C53.4492 131.431 55.3335 131.891 56.6229 132.554C57.9028 133.212 58.5 134.012 58.5 135L59.5 135C59.5 133.488 58.5347 132.413 57.0802 131.665C55.6353 130.922 53.6133 130.444 51.2536 130.129C46.5258 129.499 40.2377 129.5 34 129.5C27.7377 129.5 21.5258 129.499 16.8786 128.879C14.5508 128.569 12.6665 128.109 11.3771 127.446C10.0972 126.788 9.5 125.988 9.5 125L8.5 125ZM108.5 125C108.5 125.988 107.903 126.788 106.623 127.446C105.333 128.109 103.449 128.569 101.121 128.879C96.4742 129.499 90.2623 129.5 84 129.5C77.7623 129.5 71.4742 129.499 66.7464 130.129C64.3867 130.444 62.3647 130.922 60.9198 131.665C59.4653 132.413 58.5 133.488 58.5 135L59.5 135C59.5 134.012 60.0972 133.212 61.3771 132.554C62.6665 131.891 64.5508 131.431 66.8786 131.121C71.5258 130.501 77.7377 130.5 84 130.5C90.2377 130.5 96.5258 130.501 101.254 129.871C103.613 129.556 105.635 129.078 107.08 128.335C108.535 127.587 109.5 126.512 109.5 125L108.5 125Z" fill="black"/>
<path d="M8.5 125C8.5 126.512 9.4653 127.587 10.9198 128.335C12.3647 129.078 14.3867 129.556 16.7464 129.871C21.4742 130.501 27.7623 130.5 34 130.5C40.2623 130.5 46.4742 130.501 51.1214 131.121C53.4492 131.431 55.3335 131.891 56.6229 132.554C57.9028 133.212 58.5 134.012 58.5 135L59.5 135C59.5 133.488 58.5347 132.413 57.0802 131.665C55.6353 130.922 53.6133 130.444 51.2536 130.129C46.5258 129.499 40.2377 129.5 34 129.5C27.7377 129.5 21.5258 129.499 16.8786 128.879C14.5508 128.569 12.6665 128.109 11.3771 127.446C10.0972 126.788 9.5 125.988 9.5 125L8.5 125ZM108.5 125C108.5 125.988 107.903 126.788 106.623 127.446C105.333 128.109 103.449 128.569 101.121 128.879C96.4742 129.499 90.2623 129.5 84 129.5C77.7623 129.5 71.4742 129.499 66.7464 130.129C64.3867 130.444 62.3647 130.922 60.9198 131.665C59.4653 132.413 58.5 133.488 58.5 135L59.5 135C59.5 134.012 60.0972 133.212 61.3771 132.554C62.6665 131.891 64.5508 131.431 66.8786 131.121C71.5258 130.501 77.7377 130.5 84 130.5C90.2377 130.5 96.5258 130.501 101.254 129.871C103.613 129.556 105.635 129.078 107.08 128.335C108.535 127.587 109.5 126.512 109.5 125L108.5 125Z" fill="black"/>
<path d="M58.0273 141.449C58.0273 141.996 57.873 142.443 57.5645 142.791C57.2598 143.139 56.8262 143.371 56.2637 143.488V143.535C56.9512 143.621 57.4609 143.84 57.793 144.191C58.125 144.543 58.291 145.004 58.291 145.574C58.291 146.391 58.0078 147.02 57.4414 147.461C56.875 147.898 56.0703 148.117 55.0273 148.117C54.5742 148.117 54.1582 148.082 53.7793 148.012C53.4043 147.945 53.0391 147.826 52.6836 147.654V146.729C53.0547 146.912 53.4492 147.053 53.8672 147.15C54.2891 147.244 54.6875 147.291 55.0625 147.291C56.543 147.291 57.2832 146.711 57.2832 145.551C57.2832 144.512 56.4668 143.992 54.834 143.992H53.9902V143.154H54.8457C55.5137 143.154 56.043 143.008 56.4336 142.715C56.8242 142.418 57.0195 142.008 57.0195 141.484C57.0195 141.066 56.875 140.738 56.5859 140.5C56.3008 140.262 55.9121 140.143 55.4199 140.143C55.0449 140.143 54.6914 140.193 54.3594 140.295C54.0273 140.396 53.6484 140.584 53.2227 140.857L52.7305 140.201C53.082 139.924 53.4863 139.707 53.9434 139.551C54.4043 139.391 54.8887 139.311 55.3965 139.311C56.2285 139.311 56.875 139.502 57.3359 139.885C57.7969 140.264 58.0273 140.785 58.0273 141.449ZM65.2168 148H59.5859V147.162L61.8418 144.895C62.5293 144.199 62.9824 143.703 63.2012 143.406C63.4199 143.109 63.584 142.82 63.6934 142.539C63.8027 142.258 63.8574 141.955 63.8574 141.631C63.8574 141.174 63.7188 140.812 63.4414 140.547C63.1641 140.277 62.7793 140.143 62.2871 140.143C61.9316 140.143 61.5938 140.201 61.2734 140.318C60.957 140.436 60.6035 140.648 60.2129 140.957L59.6973 140.295C60.4863 139.639 61.3457 139.311 62.2754 139.311C63.0801 139.311 63.7109 139.518 64.168 139.932C64.625 140.342 64.8535 140.895 64.8535 141.59C64.8535 142.133 64.7012 142.67 64.3965 143.201C64.0918 143.732 63.5215 144.404 62.6855 145.217L60.8105 147.051V147.098H65.2168V148Z" fill="black"/>
<path d="M43.4219 203V194.434H44.418V203H43.4219ZM54.8125 203V198.822C54.8125 198.311 54.7031 197.928 54.4844 197.674C54.2656 197.416 53.9258 197.287 53.4648 197.287C52.8594 197.287 52.4121 197.461 52.123 197.809C51.834 198.156 51.6895 198.691 51.6895 199.414V203H50.7168V198.822C50.7168 198.311 50.6074 197.928 50.3887 197.674C50.1699 197.416 49.8281 197.287 49.3633 197.287C48.7539 197.287 48.3066 197.471 48.0215 197.838C47.7402 198.201 47.5996 198.799 47.5996 199.631V203H46.627V196.578H47.418L47.5762 197.457H47.623C47.8066 197.145 48.0645 196.9 48.3965 196.725C48.7324 196.549 49.1074 196.461 49.5215 196.461C50.5254 196.461 51.1816 196.824 51.4902 197.551H51.5371C51.7285 197.215 52.0059 196.949 52.3691 196.754C52.7324 196.559 53.1465 196.461 53.6113 196.461C54.3379 196.461 54.8809 196.648 55.2402 197.023C55.6035 197.395 55.7852 197.99 55.7852 198.811V203H54.8125ZM61.7441 203L61.5508 202.086H61.5039C61.1836 202.488 60.8633 202.762 60.543 202.906C60.2266 203.047 59.8301 203.117 59.3535 203.117C58.7168 203.117 58.2168 202.953 57.8535 202.625C57.4941 202.297 57.3145 201.83 57.3145 201.225C57.3145 199.928 58.3516 199.248 60.4258 199.186L61.5156 199.15V198.752C61.5156 198.248 61.4062 197.877 61.1875 197.639C60.9727 197.396 60.627 197.275 60.1504 197.275C59.6152 197.275 59.0098 197.439 58.334 197.768L58.0352 197.023C58.3516 196.852 58.6973 196.717 59.0723 196.619C59.4512 196.521 59.8301 196.473 60.209 196.473C60.9746 196.473 61.541 196.643 61.9082 196.982C62.2793 197.322 62.4648 197.867 62.4648 198.617V203H61.7441ZM59.5469 202.314C60.1523 202.314 60.627 202.148 60.9707 201.816C61.3184 201.484 61.4922 201.02 61.4922 200.422V199.842L60.5195 199.883C59.7461 199.91 59.1875 200.031 58.8438 200.246C58.5039 200.457 58.334 200.787 58.334 201.236C58.334 201.588 58.4395 201.855 58.6504 202.039C58.8652 202.223 59.1641 202.314 59.5469 202.314ZM69.7305 196.578V197.193L68.541 197.334C68.6504 197.471 68.748 197.65 68.834 197.873C68.9199 198.092 68.9629 198.34 68.9629 198.617C68.9629 199.246 68.748 199.748 68.3184 200.123C67.8887 200.498 67.2988 200.686 66.5488 200.686C66.3574 200.686 66.1777 200.67 66.0098 200.639C65.5957 200.857 65.3887 201.133 65.3887 201.465C65.3887 201.641 65.4609 201.771 65.6055 201.857C65.75 201.939 65.998 201.98 66.3496 201.98H67.4863C68.1816 201.98 68.7148 202.127 69.0859 202.42C69.4609 202.713 69.6484 203.139 69.6484 203.697C69.6484 204.408 69.3633 204.949 68.793 205.32C68.2227 205.695 67.3906 205.883 66.2969 205.883C65.457 205.883 64.8086 205.727 64.3516 205.414C63.8984 205.102 63.6719 204.66 63.6719 204.09C63.6719 203.699 63.7969 203.361 64.0469 203.076C64.2969 202.791 64.6484 202.598 65.1016 202.496C64.9375 202.422 64.7988 202.307 64.6855 202.15C64.5762 201.994 64.5215 201.812 64.5215 201.605C64.5215 201.371 64.584 201.166 64.709 200.99C64.834 200.814 65.0312 200.645 65.3008 200.48C64.9688 200.344 64.6973 200.111 64.4863 199.783C64.2793 199.455 64.1758 199.08 64.1758 198.658C64.1758 197.955 64.3867 197.414 64.8086 197.035C65.2305 196.652 65.8281 196.461 66.6016 196.461C66.9375 196.461 67.2402 196.5 67.5098 196.578H69.7305ZM64.6094 204.078C64.6094 204.426 64.7559 204.689 65.0488 204.869C65.3418 205.049 65.7617 205.139 66.3086 205.139C67.125 205.139 67.7285 205.016 68.1191 204.77C68.5137 204.527 68.7109 204.197 68.7109 203.779C68.7109 203.432 68.6035 203.189 68.3887 203.053C68.1738 202.92 67.7695 202.854 67.1758 202.854H66.0098C65.5684 202.854 65.2246 202.959 64.9785 203.17C64.7324 203.381 64.6094 203.684 64.6094 204.078ZM65.1367 198.635C65.1367 199.084 65.2637 199.424 65.5176 199.654C65.7715 199.885 66.125 200 66.5781 200C67.5273 200 68.002 199.539 68.002 198.617C68.002 197.652 67.5215 197.17 66.5605 197.17C66.1035 197.17 65.752 197.293 65.5059 197.539C65.2598 197.785 65.1367 198.15 65.1367 198.635ZM73.7617 203.117C72.8125 203.117 72.0625 202.828 71.5117 202.25C70.9648 201.672 70.6914 200.869 70.6914 199.842C70.6914 198.807 70.9453 197.984 71.4531 197.375C71.9648 196.766 72.6504 196.461 73.5098 196.461C74.3145 196.461 74.9512 196.727 75.4199 197.258C75.8887 197.785 76.123 198.482 76.123 199.35V199.965H71.6992C71.7188 200.719 71.9082 201.291 72.2676 201.682C72.6309 202.072 73.1406 202.268 73.7969 202.268C74.4883 202.268 75.1719 202.123 75.8477 201.834V202.701C75.5039 202.85 75.1777 202.955 74.8691 203.018C74.5645 203.084 74.1953 203.117 73.7617 203.117ZM73.498 197.275C72.9824 197.275 72.5703 197.443 72.2617 197.779C71.957 198.115 71.7773 198.58 71.7227 199.174H75.0801C75.0801 198.561 74.9434 198.092 74.6699 197.768C74.3965 197.439 74.0059 197.275 73.498 197.275Z" fill="black"/>
<path d="M151.125 195.201C150.184 195.201 149.439 195.516 148.893 196.145C148.35 196.77 148.078 197.627 148.078 198.717C148.078 199.838 148.34 200.705 148.863 201.318C149.391 201.928 150.141 202.232 151.113 202.232C151.711 202.232 152.393 202.125 153.158 201.91V202.783C152.564 203.006 151.832 203.117 150.961 203.117C149.699 203.117 148.725 202.734 148.037 201.969C147.354 201.203 147.012 200.115 147.012 198.705C147.012 197.822 147.176 197.049 147.504 196.385C147.836 195.721 148.312 195.209 148.934 194.85C149.559 194.49 150.293 194.311 151.137 194.311C152.035 194.311 152.82 194.475 153.492 194.803L153.07 195.658C152.422 195.354 151.773 195.201 151.125 195.201ZM160.424 199.783C160.424 200.83 160.16 201.648 159.633 202.238C159.105 202.824 158.377 203.117 157.447 203.117C156.873 203.117 156.363 202.982 155.918 202.713C155.473 202.443 155.129 202.057 154.887 201.553C154.645 201.049 154.523 200.459 154.523 199.783C154.523 198.736 154.785 197.922 155.309 197.34C155.832 196.754 156.559 196.461 157.488 196.461C158.387 196.461 159.1 196.76 159.627 197.357C160.158 197.955 160.424 198.764 160.424 199.783ZM155.531 199.783C155.531 200.604 155.695 201.229 156.023 201.658C156.352 202.088 156.834 202.303 157.471 202.303C158.107 202.303 158.59 202.09 158.918 201.664C159.25 201.234 159.416 200.607 159.416 199.783C159.416 198.967 159.25 198.348 158.918 197.926C158.59 197.5 158.104 197.287 157.459 197.287C156.822 197.287 156.342 197.496 156.018 197.914C155.693 198.332 155.531 198.955 155.531 199.783ZM166.529 203V198.846C166.529 198.322 166.41 197.932 166.172 197.674C165.934 197.416 165.561 197.287 165.053 197.287C164.381 197.287 163.889 197.469 163.576 197.832C163.264 198.195 163.107 198.795 163.107 199.631V203H162.135V196.578H162.926L163.084 197.457H163.131C163.33 197.141 163.609 196.896 163.969 196.725C164.328 196.549 164.729 196.461 165.17 196.461C165.943 196.461 166.525 196.648 166.916 197.023C167.307 197.395 167.502 197.99 167.502 198.811V203H166.529ZM170.912 203L168.475 196.578H169.518L170.9 200.387C171.213 201.277 171.396 201.855 171.451 202.121H171.498C171.541 201.914 171.676 201.486 171.902 200.838C172.133 200.186 172.646 198.766 173.443 196.578H174.486L172.049 203H170.912ZM181.43 198.365H183.844V199.174H181.43V201.67H180.615V199.174H178.213V198.365H180.615V195.857H181.43V198.365ZM189.762 199.438V203H188.766V194.434H191.115C192.166 194.434 192.941 194.635 193.441 195.037C193.945 195.439 194.197 196.045 194.197 196.854C194.197 197.986 193.623 198.752 192.475 199.15L194.801 203H193.623L191.549 199.438H189.762ZM189.762 198.582H191.127C191.83 198.582 192.346 198.443 192.674 198.166C193.002 197.885 193.166 197.465 193.166 196.906C193.166 196.34 192.998 195.932 192.662 195.682C192.33 195.432 191.795 195.307 191.057 195.307H189.762V198.582ZM198.75 203.117C197.801 203.117 197.051 202.828 196.5 202.25C195.953 201.672 195.68 200.869 195.68 199.842C195.68 198.807 195.934 197.984 196.441 197.375C196.953 196.766 197.639 196.461 198.498 196.461C199.303 196.461 199.939 196.727 200.408 197.258C200.877 197.785 201.111 198.482 201.111 199.35V199.965H196.688C196.707 200.719 196.896 201.291 197.256 201.682C197.619 202.072 198.129 202.268 198.785 202.268C199.477 202.268 200.16 202.123 200.836 201.834V202.701C200.492 202.85 200.166 202.955 199.857 203.018C199.553 203.084 199.184 203.117 198.75 203.117ZM198.486 197.275C197.971 197.275 197.559 197.443 197.25 197.779C196.945 198.115 196.766 198.58 196.711 199.174H200.068C200.068 198.561 199.932 198.092 199.658 197.768C199.385 197.439 198.994 197.275 198.486 197.275ZM202.922 203V194.434H203.918V202.098H207.697V203H202.922ZM215.625 194.434V199.977C215.625 200.953 215.33 201.721 214.74 202.279C214.15 202.838 213.34 203.117 212.309 203.117C211.277 203.117 210.479 202.836 209.912 202.273C209.35 201.711 209.068 200.938 209.068 199.953V194.434H210.064V200.023C210.064 200.738 210.26 201.287 210.65 201.67C211.041 202.053 211.615 202.244 212.373 202.244C213.096 202.244 213.652 202.053 214.043 201.67C214.434 201.283 214.629 200.73 214.629 200.012V194.434H215.625Z" fill="black"/>
<path d="M283.242 195.201C282.301 195.201 281.557 195.516 281.01 196.145C280.467 196.77 280.195 197.627 280.195 198.717C280.195 199.838 280.457 200.705 280.98 201.318C281.508 201.928 282.258 202.232 283.23 202.232C283.828 202.232 284.51 202.125 285.275 201.91V202.783C284.682 203.006 283.949 203.117 283.078 203.117C281.816 203.117 280.842 202.734 280.154 201.969C279.471 201.203 279.129 200.115 279.129 198.705C279.129 197.822 279.293 197.049 279.621 196.385C279.953 195.721 280.43 195.209 281.051 194.85C281.676 194.49 282.41 194.311 283.254 194.311C284.152 194.311 284.938 194.475 285.609 194.803L285.188 195.658C284.539 195.354 283.891 195.201 283.242 195.201ZM292.541 199.783C292.541 200.83 292.277 201.648 291.75 202.238C291.223 202.824 290.494 203.117 289.564 203.117C288.99 203.117 288.48 202.982 288.035 202.713C287.59 202.443 287.246 202.057 287.004 201.553C286.762 201.049 286.641 200.459 286.641 199.783C286.641 198.736 286.902 197.922 287.426 197.34C287.949 196.754 288.676 196.461 289.605 196.461C290.504 196.461 291.217 196.76 291.744 197.357C292.275 197.955 292.541 198.764 292.541 199.783ZM287.648 199.783C287.648 200.604 287.812 201.229 288.141 201.658C288.469 202.088 288.951 202.303 289.588 202.303C290.225 202.303 290.707 202.09 291.035 201.664C291.367 201.234 291.533 200.607 291.533 199.783C291.533 198.967 291.367 198.348 291.035 197.926C290.707 197.5 290.221 197.287 289.576 197.287C288.939 197.287 288.459 197.496 288.135 197.914C287.811 198.332 287.648 198.955 287.648 199.783ZM298.646 203V198.846C298.646 198.322 298.527 197.932 298.289 197.674C298.051 197.416 297.678 197.287 297.17 197.287C296.498 197.287 296.006 197.469 295.693 197.832C295.381 198.195 295.225 198.795 295.225 199.631V203H294.252V196.578H295.043L295.201 197.457H295.248C295.447 197.141 295.727 196.896 296.086 196.725C296.445 196.549 296.846 196.461 297.287 196.461C298.061 196.461 298.643 196.648 299.033 197.023C299.424 197.395 299.619 197.99 299.619 198.811V203H298.646ZM303.029 203L300.592 196.578H301.635L303.018 200.387C303.33 201.277 303.514 201.855 303.568 202.121H303.615C303.658 201.914 303.793 201.486 304.02 200.838C304.25 200.186 304.764 198.766 305.561 196.578H306.604L304.166 203H303.029Z" fill="black"/>
<path d="M374.557 199.438V203H373.561V194.434H375.91C376.961 194.434 377.736 194.635 378.236 195.037C378.74 195.439 378.992 196.045 378.992 196.854C378.992 197.986 378.418 198.752 377.27 199.15L379.596 203H378.418L376.344 199.438H374.557ZM374.557 198.582H375.922C376.625 198.582 377.141 198.443 377.469 198.166C377.797 197.885 377.961 197.465 377.961 196.906C377.961 196.34 377.793 195.932 377.457 195.682C377.125 195.432 376.59 195.307 375.852 195.307H374.557V198.582ZM383.545 203.117C382.596 203.117 381.846 202.828 381.295 202.25C380.748 201.672 380.475 200.869 380.475 199.842C380.475 198.807 380.729 197.984 381.236 197.375C381.748 196.766 382.434 196.461 383.293 196.461C384.098 196.461 384.734 196.727 385.203 197.258C385.672 197.785 385.906 198.482 385.906 199.35V199.965H381.482C381.502 200.719 381.691 201.291 382.051 201.682C382.414 202.072 382.924 202.268 383.58 202.268C384.271 202.268 384.955 202.123 385.631 201.834V202.701C385.287 202.85 384.961 202.955 384.652 203.018C384.348 203.084 383.979 203.117 383.545 203.117ZM383.281 197.275C382.766 197.275 382.354 197.443 382.045 197.779C381.74 198.115 381.561 198.58 381.506 199.174H384.863C384.863 198.561 384.727 198.092 384.453 197.768C384.18 197.439 383.789 197.275 383.281 197.275ZM391.713 201.248C391.713 201.846 391.49 202.307 391.045 202.631C390.6 202.955 389.975 203.117 389.17 203.117C388.318 203.117 387.654 202.982 387.178 202.713V201.811C387.486 201.967 387.816 202.09 388.168 202.18C388.523 202.27 388.865 202.314 389.193 202.314C389.701 202.314 390.092 202.234 390.365 202.074C390.639 201.91 390.775 201.662 390.775 201.33C390.775 201.08 390.666 200.867 390.447 200.691C390.232 200.512 389.811 200.301 389.182 200.059C388.584 199.836 388.158 199.643 387.904 199.479C387.654 199.311 387.467 199.121 387.342 198.91C387.221 198.699 387.16 198.447 387.16 198.154C387.16 197.631 387.373 197.219 387.799 196.918C388.225 196.613 388.809 196.461 389.551 196.461C390.242 196.461 390.918 196.602 391.578 196.883L391.232 197.674C390.588 197.408 390.004 197.275 389.48 197.275C389.02 197.275 388.672 197.348 388.438 197.492C388.203 197.637 388.086 197.836 388.086 198.09C388.086 198.262 388.129 198.408 388.215 198.529C388.305 198.65 388.447 198.766 388.643 198.875C388.838 198.984 389.213 199.143 389.768 199.35C390.529 199.627 391.043 199.906 391.309 200.188C391.578 200.469 391.713 200.822 391.713 201.248ZM397.695 203V198.846C397.695 198.322 397.576 197.932 397.338 197.674C397.1 197.416 396.727 197.287 396.219 197.287C395.543 197.287 395.049 197.471 394.736 197.838C394.428 198.205 394.273 198.807 394.273 199.643V203H393.301V193.883H394.273V196.643C394.273 196.975 394.258 197.25 394.227 197.469H394.285C394.477 197.16 394.748 196.918 395.1 196.742C395.455 196.562 395.859 196.473 396.312 196.473C397.098 196.473 397.686 196.66 398.076 197.035C398.471 197.406 398.668 197.998 398.668 198.811V203H397.695ZM404.621 203L404.428 202.086H404.381C404.061 202.488 403.74 202.762 403.42 202.906C403.104 203.047 402.707 203.117 402.23 203.117C401.594 203.117 401.094 202.953 400.73 202.625C400.371 202.297 400.191 201.83 400.191 201.225C400.191 199.928 401.229 199.248 403.303 199.186L404.393 199.15V198.752C404.393 198.248 404.283 197.877 404.064 197.639C403.85 197.396 403.504 197.275 403.027 197.275C402.492 197.275 401.887 197.439 401.211 197.768L400.912 197.023C401.229 196.852 401.574 196.717 401.949 196.619C402.328 196.521 402.707 196.473 403.086 196.473C403.852 196.473 404.418 196.643 404.785 196.982C405.156 197.322 405.342 197.867 405.342 198.617V203H404.621ZM402.424 202.314C403.029 202.314 403.504 202.148 403.848 201.816C404.195 201.484 404.369 201.02 404.369 200.422V199.842L403.396 199.883C402.623 199.91 402.064 200.031 401.721 200.246C401.381 200.457 401.211 200.787 401.211 201.236C401.211 201.588 401.316 201.855 401.527 202.039C401.742 202.223 402.041 202.314 402.424 202.314ZM410.34 203.117C409.922 203.117 409.539 203.041 409.191 202.889C408.848 202.732 408.559 202.494 408.324 202.174H408.254C408.301 202.549 408.324 202.904 408.324 203.24V205.883H407.352V196.578H408.143L408.277 197.457H408.324C408.574 197.105 408.865 196.852 409.197 196.695C409.529 196.539 409.91 196.461 410.34 196.461C411.191 196.461 411.848 196.752 412.309 197.334C412.773 197.916 413.006 198.732 413.006 199.783C413.006 200.838 412.77 201.658 412.297 202.244C411.828 202.826 411.176 203.117 410.34 203.117ZM410.199 197.287C409.543 197.287 409.068 197.469 408.775 197.832C408.482 198.195 408.332 198.773 408.324 199.566V199.783C408.324 200.686 408.475 201.332 408.775 201.723C409.076 202.109 409.559 202.303 410.223 202.303C410.777 202.303 411.211 202.078 411.523 201.629C411.84 201.18 411.998 200.561 411.998 199.771C411.998 198.971 411.84 198.357 411.523 197.932C411.211 197.502 410.77 197.287 410.199 197.287ZM417.424 203.117C416.475 203.117 415.725 202.828 415.174 202.25C414.627 201.672 414.354 200.869 414.354 199.842C414.354 198.807 414.607 197.984 415.115 197.375C415.627 196.766 416.312 196.461 417.172 196.461C417.977 196.461 418.613 196.727 419.082 197.258C419.551 197.785 419.785 198.482 419.785 199.35V199.965H415.361C415.381 200.719 415.57 201.291 415.93 201.682C416.293 202.072 416.803 202.268 417.459 202.268C418.15 202.268 418.834 202.123 419.51 201.834V202.701C419.166 202.85 418.84 202.955 418.531 203.018C418.227 203.084 417.857 203.117 417.424 203.117ZM417.16 197.275C416.645 197.275 416.232 197.443 415.924 197.779C415.619 198.115 415.439 198.58 415.385 199.174H418.742C418.742 198.561 418.605 198.092 418.332 197.768C418.059 197.439 417.668 197.275 417.16 197.275ZM427.361 198.365H429.775V199.174H427.361V201.67H426.547V199.174H424.145V198.365H426.547V195.857H427.361V198.365ZM439.531 200.721C439.531 201.475 439.258 202.062 438.711 202.484C438.164 202.906 437.422 203.117 436.484 203.117C435.469 203.117 434.688 202.986 434.141 202.725V201.764C434.492 201.912 434.875 202.029 435.289 202.115C435.703 202.201 436.113 202.244 436.52 202.244C437.184 202.244 437.684 202.119 438.02 201.869C438.355 201.615 438.523 201.264 438.523 200.814C438.523 200.518 438.463 200.275 438.342 200.088C438.225 199.896 438.025 199.721 437.744 199.561C437.467 199.4 437.043 199.219 436.473 199.016C435.676 198.73 435.105 198.393 434.762 198.002C434.422 197.611 434.252 197.102 434.252 196.473C434.252 195.812 434.5 195.287 434.996 194.896C435.492 194.506 436.148 194.311 436.965 194.311C437.816 194.311 438.6 194.467 439.314 194.779L439.004 195.646C438.297 195.35 437.609 195.201 436.941 195.201C436.414 195.201 436.002 195.314 435.705 195.541C435.408 195.768 435.26 196.082 435.26 196.484C435.26 196.781 435.314 197.025 435.424 197.217C435.533 197.404 435.717 197.578 435.975 197.738C436.236 197.895 436.635 198.068 437.17 198.26C438.068 198.58 438.686 198.924 439.021 199.291C439.361 199.658 439.531 200.135 439.531 200.721ZM443.562 202.303C444.211 202.303 444.684 202.129 444.98 201.781C445.277 201.434 445.436 200.848 445.455 200.023V199.807C445.455 198.908 445.303 198.262 444.998 197.867C444.693 197.473 444.211 197.275 443.551 197.275C442.98 197.275 442.543 197.498 442.238 197.943C441.938 198.385 441.787 199.01 441.787 199.818C441.787 200.627 441.936 201.244 442.232 201.67C442.533 202.092 442.977 202.303 443.562 202.303ZM443.416 203.117C442.588 203.117 441.941 202.826 441.477 202.244C441.012 201.662 440.779 200.85 440.779 199.807C440.779 198.756 441.014 197.936 441.482 197.346C441.951 196.756 442.604 196.461 443.439 196.461C444.318 196.461 444.994 196.793 445.467 197.457H445.52L445.66 196.578H446.428V205.883H445.455V203.135C445.455 202.744 445.477 202.412 445.52 202.139H445.443C444.994 202.791 444.318 203.117 443.416 203.117ZM449.41 196.578V200.744C449.41 201.268 449.529 201.658 449.768 201.916C450.006 202.174 450.379 202.303 450.887 202.303C451.559 202.303 452.049 202.119 452.357 201.752C452.67 201.385 452.826 200.785 452.826 199.953V196.578H453.799V203H452.996L452.855 202.139H452.803C452.604 202.455 452.326 202.697 451.971 202.865C451.619 203.033 451.217 203.117 450.764 203.117C449.982 203.117 449.396 202.932 449.006 202.561C448.619 202.189 448.426 201.596 448.426 200.779V196.578H449.41ZM459.816 203L459.623 202.086H459.576C459.256 202.488 458.936 202.762 458.615 202.906C458.299 203.047 457.902 203.117 457.426 203.117C456.789 203.117 456.289 202.953 455.926 202.625C455.566 202.297 455.387 201.83 455.387 201.225C455.387 199.928 456.424 199.248 458.498 199.186L459.588 199.15V198.752C459.588 198.248 459.479 197.877 459.26 197.639C459.045 197.396 458.699 197.275 458.223 197.275C457.688 197.275 457.082 197.439 456.406 197.768L456.107 197.023C456.424 196.852 456.77 196.717 457.145 196.619C457.523 196.521 457.902 196.473 458.281 196.473C459.047 196.473 459.613 196.643 459.98 196.982C460.352 197.322 460.537 197.867 460.537 198.617V203H459.816ZM457.619 202.314C458.225 202.314 458.699 202.148 459.043 201.816C459.391 201.484 459.564 201.02 459.564 200.422V199.842L458.592 199.883C457.818 199.91 457.26 200.031 456.916 200.246C456.576 200.457 456.406 200.787 456.406 201.236C456.406 201.588 456.512 201.855 456.723 202.039C456.938 202.223 457.236 202.314 457.619 202.314ZM466.689 201.248C466.689 201.846 466.467 202.307 466.021 202.631C465.576 202.955 464.951 203.117 464.146 203.117C463.295 203.117 462.631 202.982 462.154 202.713V201.811C462.463 201.967 462.793 202.09 463.145 202.18C463.5 202.27 463.842 202.314 464.17 202.314C464.678 202.314 465.068 202.234 465.342 202.074C465.615 201.91 465.752 201.662 465.752 201.33C465.752 201.08 465.643 200.867 465.424 200.691C465.209 200.512 464.787 200.301 464.158 200.059C463.561 199.836 463.135 199.643 462.881 199.479C462.631 199.311 462.443 199.121 462.318 198.91C462.197 198.699 462.137 198.447 462.137 198.154C462.137 197.631 462.35 197.219 462.775 196.918C463.201 196.613 463.785 196.461 464.527 196.461C465.219 196.461 465.895 196.602 466.555 196.883L466.209 197.674C465.564 197.408 464.98 197.275 464.457 197.275C463.996 197.275 463.648 197.348 463.414 197.492C463.18 197.637 463.062 197.836 463.062 198.09C463.062 198.262 463.105 198.408 463.191 198.529C463.281 198.65 463.424 198.766 463.619 198.875C463.814 198.984 464.189 199.143 464.744 199.35C465.506 199.627 466.02 199.906 466.285 200.188C466.555 200.469 466.689 200.822 466.689 201.248ZM472.672 203V198.846C472.672 198.322 472.553 197.932 472.314 197.674C472.076 197.416 471.703 197.287 471.195 197.287C470.52 197.287 470.025 197.471 469.713 197.838C469.404 198.205 469.25 198.807 469.25 199.643V203H468.277V193.883H469.25V196.643C469.25 196.975 469.234 197.25 469.203 197.469H469.262C469.453 197.16 469.725 196.918 470.076 196.742C470.432 196.562 470.836 196.473 471.289 196.473C472.074 196.473 472.662 196.66 473.053 197.035C473.447 197.406 473.645 197.998 473.645 198.811V203H472.672Z" fill="black"/>
<path d="M516.025 198.635C516.025 200.049 515.641 201.131 514.871 201.881C514.105 202.627 513.002 203 511.561 203H509.188V194.434H511.812C513.145 194.434 514.18 194.803 514.918 195.541C515.656 196.279 516.025 197.311 516.025 198.635ZM514.971 198.67C514.971 197.553 514.689 196.711 514.127 196.145C513.568 195.578 512.736 195.295 511.631 195.295H510.184V202.139H511.396C512.584 202.139 513.477 201.848 514.074 201.266C514.672 200.68 514.971 199.814 514.971 198.67ZM518.768 203H517.795V196.578H518.768V203ZM517.713 194.838C517.713 194.615 517.768 194.453 517.877 194.352C517.986 194.246 518.123 194.193 518.287 194.193C518.443 194.193 518.578 194.246 518.691 194.352C518.805 194.457 518.861 194.619 518.861 194.838C518.861 195.057 518.805 195.221 518.691 195.33C518.578 195.436 518.443 195.488 518.287 195.488C518.123 195.488 517.986 195.436 517.877 195.33C517.768 195.221 517.713 195.057 517.713 194.838ZM526.086 196.578V197.193L524.896 197.334C525.006 197.471 525.104 197.65 525.189 197.873C525.275 198.092 525.318 198.34 525.318 198.617C525.318 199.246 525.104 199.748 524.674 200.123C524.244 200.498 523.654 200.686 522.904 200.686C522.713 200.686 522.533 200.67 522.365 200.639C521.951 200.857 521.744 201.133 521.744 201.465C521.744 201.641 521.816 201.771 521.961 201.857C522.105 201.939 522.354 201.98 522.705 201.98H523.842C524.537 201.98 525.07 202.127 525.441 202.42C525.816 202.713 526.004 203.139 526.004 203.697C526.004 204.408 525.719 204.949 525.148 205.32C524.578 205.695 523.746 205.883 522.652 205.883C521.812 205.883 521.164 205.727 520.707 205.414C520.254 205.102 520.027 204.66 520.027 204.09C520.027 203.699 520.152 203.361 520.402 203.076C520.652 202.791 521.004 202.598 521.457 202.496C521.293 202.422 521.154 202.307 521.041 202.15C520.932 201.994 520.877 201.812 520.877 201.605C520.877 201.371 520.939 201.166 521.064 200.99C521.189 200.814 521.387 200.645 521.656 200.48C521.324 200.344 521.053 200.111 520.842 199.783C520.635 199.455 520.531 199.08 520.531 198.658C520.531 197.955 520.742 197.414 521.164 197.035C521.586 196.652 522.184 196.461 522.957 196.461C523.293 196.461 523.596 196.5 523.865 196.578H526.086ZM520.965 204.078C520.965 204.426 521.111 204.689 521.404 204.869C521.697 205.049 522.117 205.139 522.664 205.139C523.48 205.139 524.084 205.016 524.475 204.77C524.869 204.527 525.066 204.197 525.066 203.779C525.066 203.432 524.959 203.189 524.744 203.053C524.529 202.92 524.125 202.854 523.531 202.854H522.365C521.924 202.854 521.58 202.959 521.334 203.17C521.088 203.381 520.965 203.684 520.965 204.078ZM521.492 198.635C521.492 199.084 521.619 199.424 521.873 199.654C522.127 199.885 522.48 200 522.934 200C523.883 200 524.357 199.539 524.357 198.617C524.357 197.652 523.877 197.17 522.916 197.17C522.459 197.17 522.107 197.293 521.861 197.539C521.615 197.785 521.492 198.15 521.492 198.635ZM528.377 203H527.404V196.578H528.377V203ZM527.322 194.838C527.322 194.615 527.377 194.453 527.486 194.352C527.596 194.246 527.732 194.193 527.896 194.193C528.053 194.193 528.188 194.246 528.301 194.352C528.414 194.457 528.471 194.619 528.471 194.838C528.471 195.057 528.414 195.221 528.301 195.33C528.188 195.436 528.053 195.488 527.896 195.488C527.732 195.488 527.596 195.436 527.486 195.33C527.377 195.221 527.322 195.057 527.322 194.838ZM532.514 202.314C532.686 202.314 532.852 202.303 533.012 202.279C533.172 202.252 533.299 202.225 533.393 202.197V202.941C533.287 202.992 533.131 203.033 532.924 203.064C532.721 203.1 532.537 203.117 532.373 203.117C531.131 203.117 530.51 202.463 530.51 201.154V197.334H529.59V196.865L530.51 196.461L530.92 195.09H531.482V196.578H533.346V197.334H531.482V201.113C531.482 201.5 531.574 201.797 531.758 202.004C531.941 202.211 532.193 202.314 532.514 202.314ZM538.496 195.201C537.555 195.201 536.811 195.516 536.264 196.145C535.721 196.77 535.449 197.627 535.449 198.717C535.449 199.838 535.711 200.705 536.234 201.318C536.762 201.928 537.512 202.232 538.484 202.232C539.082 202.232 539.764 202.125 540.529 201.91V202.783C539.936 203.006 539.203 203.117 538.332 203.117C537.07 203.117 536.096 202.734 535.408 201.969C534.725 201.203 534.383 200.115 534.383 198.705C534.383 197.822 534.547 197.049 534.875 196.385C535.207 195.721 535.684 195.209 536.305 194.85C536.93 194.49 537.664 194.311 538.508 194.311C539.406 194.311 540.191 194.475 540.863 194.803L540.441 195.658C539.793 195.354 539.145 195.201 538.496 195.201ZM546.201 203L546.008 202.086H545.961C545.641 202.488 545.32 202.762 545 202.906C544.684 203.047 544.287 203.117 543.811 203.117C543.174 203.117 542.674 202.953 542.311 202.625C541.951 202.297 541.771 201.83 541.771 201.225C541.771 199.928 542.809 199.248 544.883 199.186L545.973 199.15V198.752C545.973 198.248 545.863 197.877 545.645 197.639C545.43 197.396 545.084 197.275 544.607 197.275C544.072 197.275 543.467 197.439 542.791 197.768L542.492 197.023C542.809 196.852 543.154 196.717 543.529 196.619C543.908 196.521 544.287 196.473 544.666 196.473C545.432 196.473 545.998 196.643 546.365 196.982C546.736 197.322 546.922 197.867 546.922 198.617V203H546.201ZM544.004 202.314C544.609 202.314 545.084 202.148 545.428 201.816C545.775 201.484 545.949 201.02 545.949 200.422V199.842L544.977 199.883C544.203 199.91 543.645 200.031 543.301 200.246C542.961 200.457 542.791 200.787 542.791 201.236C542.791 201.588 542.896 201.855 543.107 202.039C543.322 202.223 543.621 202.314 544.004 202.314ZM551.92 203.117C551.502 203.117 551.119 203.041 550.771 202.889C550.428 202.732 550.139 202.494 549.904 202.174H549.834C549.881 202.549 549.904 202.904 549.904 203.24V205.883H548.932V196.578H549.723L549.857 197.457H549.904C550.154 197.105 550.445 196.852 550.777 196.695C551.109 196.539 551.49 196.461 551.92 196.461C552.771 196.461 553.428 196.752 553.889 197.334C554.354 197.916 554.586 198.732 554.586 199.783C554.586 200.838 554.35 201.658 553.877 202.244C553.408 202.826 552.756 203.117 551.92 203.117ZM551.779 197.287C551.123 197.287 550.648 197.469 550.355 197.832C550.062 198.195 549.912 198.773 549.904 199.566V199.783C549.904 200.686 550.055 201.332 550.355 201.723C550.656 202.109 551.139 202.303 551.803 202.303C552.357 202.303 552.791 202.078 553.104 201.629C553.42 201.18 553.578 200.561 553.578 199.771C553.578 198.971 553.42 198.357 553.104 197.932C552.791 197.502 552.35 197.287 551.779 197.287ZM560.434 201.248C560.434 201.846 560.211 202.307 559.766 202.631C559.32 202.955 558.695 203.117 557.891 203.117C557.039 203.117 556.375 202.982 555.898 202.713V201.811C556.207 201.967 556.537 202.09 556.889 202.18C557.244 202.27 557.586 202.314 557.914 202.314C558.422 202.314 558.812 202.234 559.086 202.074C559.359 201.91 559.496 201.662 559.496 201.33C559.496 201.08 559.387 200.867 559.168 200.691C558.953 200.512 558.531 200.301 557.902 200.059C557.305 199.836 556.879 199.643 556.625 199.479C556.375 199.311 556.188 199.121 556.062 198.91C555.941 198.699 555.881 198.447 555.881 198.154C555.881 197.631 556.094 197.219 556.52 196.918C556.945 196.613 557.529 196.461 558.271 196.461C558.963 196.461 559.639 196.602 560.299 196.883L559.953 197.674C559.309 197.408 558.725 197.275 558.201 197.275C557.74 197.275 557.393 197.348 557.158 197.492C556.924 197.637 556.807 197.836 556.807 198.09C556.807 198.262 556.85 198.408 556.936 198.529C557.025 198.65 557.168 198.766 557.363 198.875C557.559 198.984 557.934 199.143 558.488 199.35C559.25 199.627 559.764 199.906 560.029 200.188C560.299 200.469 560.434 200.822 560.434 201.248Z" fill="black"/>
<path d="M622.254 195.201C621.312 195.201 620.568 195.516 620.021 196.145C619.479 196.77 619.207 197.627 619.207 198.717C619.207 199.838 619.469 200.705 619.992 201.318C620.52 201.928 621.27 202.232 622.242 202.232C622.84 202.232 623.521 202.125 624.287 201.91V202.783C623.693 203.006 622.961 203.117 622.09 203.117C620.828 203.117 619.854 202.734 619.166 201.969C618.482 201.203 618.141 200.115 618.141 198.705C618.141 197.822 618.305 197.049 618.633 196.385C618.965 195.721 619.441 195.209 620.062 194.85C620.688 194.49 621.422 194.311 622.266 194.311C623.164 194.311 623.949 194.475 624.621 194.803L624.199 195.658C623.551 195.354 622.902 195.201 622.254 195.201ZM626.982 203H626.01V193.883H626.982V203ZM632.994 203L632.801 202.086H632.754C632.434 202.488 632.113 202.762 631.793 202.906C631.477 203.047 631.08 203.117 630.604 203.117C629.967 203.117 629.467 202.953 629.104 202.625C628.744 202.297 628.564 201.83 628.564 201.225C628.564 199.928 629.602 199.248 631.676 199.186L632.766 199.15V198.752C632.766 198.248 632.656 197.877 632.438 197.639C632.223 197.396 631.877 197.275 631.4 197.275C630.865 197.275 630.26 197.439 629.584 197.768L629.285 197.023C629.602 196.852 629.947 196.717 630.322 196.619C630.701 196.521 631.08 196.473 631.459 196.473C632.225 196.473 632.791 196.643 633.158 196.982C633.529 197.322 633.715 197.867 633.715 198.617V203H632.994ZM630.797 202.314C631.402 202.314 631.877 202.148 632.221 201.816C632.568 201.484 632.742 201.02 632.742 200.422V199.842L631.77 199.883C630.996 199.91 630.438 200.031 630.094 200.246C629.754 200.457 629.584 200.787 629.584 201.236C629.584 201.588 629.689 201.855 629.9 202.039C630.115 202.223 630.414 202.314 630.797 202.314ZM639.867 201.248C639.867 201.846 639.645 202.307 639.199 202.631C638.754 202.955 638.129 203.117 637.324 203.117C636.473 203.117 635.809 202.982 635.332 202.713V201.811C635.641 201.967 635.971 202.09 636.322 202.18C636.678 202.27 637.02 202.314 637.348 202.314C637.855 202.314 638.246 202.234 638.52 202.074C638.793 201.91 638.93 201.662 638.93 201.33C638.93 201.08 638.82 200.867 638.602 200.691C638.387 200.512 637.965 200.301 637.336 200.059C636.738 199.836 636.312 199.643 636.059 199.479C635.809 199.311 635.621 199.121 635.496 198.91C635.375 198.699 635.314 198.447 635.314 198.154C635.314 197.631 635.527 197.219 635.953 196.918C636.379 196.613 636.963 196.461 637.705 196.461C638.396 196.461 639.072 196.602 639.732 196.883L639.387 197.674C638.742 197.408 638.158 197.275 637.635 197.275C637.174 197.275 636.826 197.348 636.592 197.492C636.357 197.637 636.24 197.836 636.24 198.09C636.24 198.262 636.283 198.408 636.369 198.529C636.459 198.65 636.602 198.766 636.797 198.875C636.992 198.984 637.367 199.143 637.922 199.35C638.684 199.627 639.197 199.906 639.463 200.188C639.732 200.469 639.867 200.822 639.867 201.248ZM645.598 201.248C645.598 201.846 645.375 202.307 644.93 202.631C644.484 202.955 643.859 203.117 643.055 203.117C642.203 203.117 641.539 202.982 641.062 202.713V201.811C641.371 201.967 641.701 202.09 642.053 202.18C642.408 202.27 642.75 202.314 643.078 202.314C643.586 202.314 643.977 202.234 644.25 202.074C644.523 201.91 644.66 201.662 644.66 201.33C644.66 201.08 644.551 200.867 644.332 200.691C644.117 200.512 643.695 200.301 643.066 200.059C642.469 199.836 642.043 199.643 641.789 199.479C641.539 199.311 641.352 199.121 641.227 198.91C641.105 198.699 641.045 198.447 641.045 198.154C641.045 197.631 641.258 197.219 641.684 196.918C642.109 196.613 642.693 196.461 643.436 196.461C644.127 196.461 644.803 196.602 645.463 196.883L645.117 197.674C644.473 197.408 643.889 197.275 643.365 197.275C642.904 197.275 642.557 197.348 642.322 197.492C642.088 197.637 641.971 197.836 641.971 198.09C641.971 198.262 642.014 198.408 642.1 198.529C642.189 198.65 642.332 198.766 642.527 198.875C642.723 198.984 643.098 199.143 643.652 199.35C644.414 199.627 644.928 199.906 645.193 200.188C645.463 200.469 645.598 200.822 645.598 201.248ZM648.158 203H647.186V196.578H648.158V203ZM647.104 194.838C647.104 194.615 647.158 194.453 647.268 194.352C647.377 194.246 647.514 194.193 647.678 194.193C647.834 194.193 647.969 194.246 648.082 194.352C648.195 194.457 648.252 194.619 648.252 194.838C648.252 195.057 648.195 195.221 648.082 195.33C647.969 195.436 647.834 195.488 647.678 195.488C647.514 195.488 647.377 195.436 647.268 195.33C647.158 195.221 647.104 195.057 647.104 194.838ZM653.115 197.334H651.48V203H650.508V197.334H649.359V196.895L650.508 196.543V196.186C650.508 194.607 651.197 193.818 652.576 193.818C652.916 193.818 653.314 193.887 653.771 194.023L653.52 194.803C653.145 194.682 652.824 194.621 652.559 194.621C652.191 194.621 651.92 194.744 651.744 194.99C651.568 195.232 651.48 195.623 651.48 196.162V196.578H653.115V197.334ZM655.26 203H654.287V196.578H655.26V203ZM654.205 194.838C654.205 194.615 654.26 194.453 654.369 194.352C654.479 194.246 654.615 194.193 654.779 194.193C654.936 194.193 655.07 194.246 655.184 194.352C655.297 194.457 655.354 194.619 655.354 194.838C655.354 195.057 655.297 195.221 655.184 195.33C655.07 195.436 654.936 195.488 654.779 195.488C654.615 195.488 654.479 195.436 654.369 195.33C654.26 195.221 654.205 195.057 654.205 194.838ZM659.889 203.117C658.959 203.117 658.238 202.832 657.727 202.262C657.219 201.688 656.965 200.877 656.965 199.83C656.965 198.756 657.223 197.926 657.738 197.34C658.258 196.754 658.996 196.461 659.953 196.461C660.262 196.461 660.57 196.494 660.879 196.561C661.188 196.627 661.43 196.705 661.605 196.795L661.307 197.621C661.092 197.535 660.857 197.465 660.604 197.41C660.35 197.352 660.125 197.322 659.93 197.322C658.625 197.322 657.973 198.154 657.973 199.818C657.973 200.607 658.131 201.213 658.447 201.635C658.768 202.057 659.24 202.268 659.865 202.268C660.4 202.268 660.949 202.152 661.512 201.922V202.783C661.082 203.006 660.541 203.117 659.889 203.117ZM666.99 203L666.797 202.086H666.75C666.43 202.488 666.109 202.762 665.789 202.906C665.473 203.047 665.076 203.117 664.6 203.117C663.963 203.117 663.463 202.953 663.1 202.625C662.74 202.297 662.561 201.83 662.561 201.225C662.561 199.928 663.598 199.248 665.672 199.186L666.762 199.15V198.752C666.762 198.248 666.652 197.877 666.434 197.639C666.219 197.396 665.873 197.275 665.396 197.275C664.861 197.275 664.256 197.439 663.58 197.768L663.281 197.023C663.598 196.852 663.943 196.717 664.318 196.619C664.697 196.521 665.076 196.473 665.455 196.473C666.221 196.473 666.787 196.643 667.154 196.982C667.525 197.322 667.711 197.867 667.711 198.617V203H666.99ZM664.793 202.314C665.398 202.314 665.873 202.148 666.217 201.816C666.564 201.484 666.738 201.02 666.738 200.422V199.842L665.766 199.883C664.992 199.91 664.434 200.031 664.09 200.246C663.75 200.457 663.58 200.787 663.58 201.236C663.58 201.588 663.686 201.855 663.896 202.039C664.111 202.223 664.41 202.314 664.793 202.314ZM671.795 202.314C671.967 202.314 672.133 202.303 672.293 202.279C672.453 202.252 672.58 202.225 672.674 202.197V202.941C672.568 202.992 672.412 203.033 672.205 203.064C672.002 203.1 671.818 203.117 671.654 203.117C670.412 203.117 669.791 202.463 669.791 201.154V197.334H668.871V196.865L669.791 196.461L670.201 195.09H670.764V196.578H672.627V197.334H670.764V201.113C670.764 201.5 670.855 201.797 671.039 202.004C671.223 202.211 671.475 202.314 671.795 202.314ZM674.936 203H673.963V196.578H674.936V203ZM673.881 194.838C673.881 194.615 673.936 194.453 674.045 194.352C674.154 194.246 674.291 194.193 674.455 194.193C674.611 194.193 674.746 194.246 674.859 194.352C674.973 194.457 675.029 194.619 675.029 194.838C675.029 195.057 674.973 195.221 674.859 195.33C674.746 195.436 674.611 195.488 674.455 195.488C674.291 195.488 674.154 195.436 674.045 195.33C673.936 195.221 673.881 195.057 673.881 194.838ZM682.541 199.783C682.541 200.83 682.277 201.648 681.75 202.238C681.223 202.824 680.494 203.117 679.564 203.117C678.99 203.117 678.48 202.982 678.035 202.713C677.59 202.443 677.246 202.057 677.004 201.553C676.762 201.049 676.641 200.459 676.641 199.783C676.641 198.736 676.902 197.922 677.426 197.34C677.949 196.754 678.676 196.461 679.605 196.461C680.504 196.461 681.217 196.76 681.744 197.357C682.275 197.955 682.541 198.764 682.541 199.783ZM677.648 199.783C677.648 200.604 677.812 201.229 678.141 201.658C678.469 202.088 678.951 202.303 679.588 202.303C680.225 202.303 680.707 202.09 681.035 201.664C681.367 201.234 681.533 200.607 681.533 199.783C681.533 198.967 681.367 198.348 681.035 197.926C680.707 197.5 680.221 197.287 679.576 197.287C678.939 197.287 678.459 197.496 678.135 197.914C677.811 198.332 677.648 198.955 677.648 199.783ZM688.646 203V198.846C688.646 198.322 688.527 197.932 688.289 197.674C688.051 197.416 687.678 197.287 687.17 197.287C686.498 197.287 686.006 197.469 685.693 197.832C685.381 198.195 685.225 198.795 685.225 199.631V203H684.252V196.578H685.043L685.201 197.457H685.248C685.447 197.141 685.727 196.896 686.086 196.725C686.445 196.549 686.846 196.461 687.287 196.461C688.061 196.461 688.643 196.648 689.033 197.023C689.424 197.395 689.619 197.99 689.619 198.811V203H688.646Z" fill="black"/>
<path d="M144.5 113C144.5 114.402 145.053 115.479 146.013 116.275C146.95 117.053 148.252 117.544 149.739 117.864C152.708 118.502 156.644 118.5 160.5 118.5C164.394 118.5 168.208 118.502 171.051 119.114C172.471 119.419 173.591 119.866 174.349 120.494C175.084 121.104 175.5 121.902 175.5 123L176.5 123C176.5 121.598 175.947 120.521 174.987 119.725C174.05 118.947 172.748 118.456 171.261 118.136C168.292 117.498 164.356 117.5 160.5 117.5C156.606 117.5 152.792 117.498 149.949 116.886C148.529 116.581 147.409 116.134 146.651 115.506C145.916 114.896 145.5 114.098 145.5 113L144.5 113ZM206.5 113C206.5 114.098 206.084 114.896 205.349 115.506C204.591 116.134 203.471 116.581 202.051 116.886C199.208 117.498 195.394 117.5 191.5 117.5C187.644 117.5 183.708 117.498 180.739 118.136C179.252 118.456 177.95 118.947 177.013 119.725C176.053 120.521 175.5 121.598 175.5 123L176.5 123C176.5 121.902 176.916 121.104 177.651 120.494C178.409 119.866 179.529 119.419 180.949 119.114C183.792 118.502 187.606 118.5 191.5 118.5C195.356 118.5 199.292 118.502 202.261 117.864C203.748 117.544 205.05 117.053 205.987 116.275C206.947 115.479 207.5 114.402 207.5 113L206.5 113Z" fill="black"/>
<path d="M175.35 136H169.719V135.162L171.975 132.895C172.662 132.199 173.115 131.703 173.334 131.406C173.553 131.109 173.717 130.82 173.826 130.539C173.936 130.258 173.99 129.955 173.99 129.631C173.99 129.174 173.852 128.812 173.574 128.547C173.297 128.277 172.912 128.143 172.42 128.143C172.064 128.143 171.727 128.201 171.406 128.318C171.09 128.436 170.736 128.648 170.346 128.957L169.83 128.295C170.619 127.639 171.479 127.311 172.408 127.311C173.213 127.311 173.844 127.518 174.301 127.932C174.758 128.342 174.986 128.895 174.986 129.59C174.986 130.133 174.834 130.67 174.529 131.201C174.225 131.732 173.654 132.404 172.818 133.217L170.943 135.051V135.098H175.35V136ZM182.621 134.031H181.35V136H180.418V134.031H176.252V133.182L180.318 127.387H181.35V133.146H182.621V134.031ZM180.418 133.146V130.299C180.418 129.74 180.438 129.109 180.477 128.406H180.43C180.242 128.781 180.066 129.092 179.902 129.338L177.225 133.146H180.418Z" fill="black"/>
<path d="M175.35 136H169.719V135.162L171.975 132.895C172.662 132.199 173.115 131.703 173.334 131.406C173.553 131.109 173.717 130.82 173.826 130.539C173.936 130.258 173.99 129.955 173.99 129.631C173.99 129.174 173.852 128.812 173.574 128.547C173.297 128.277 172.912 128.143 172.42 128.143C172.064 128.143 171.727 128.201 171.406 128.318C171.09 128.436 170.736 128.648 170.346 128.957L169.83 128.295C170.619 127.639 171.479 127.311 172.408 127.311C173.213 127.311 173.844 127.518 174.301 127.932C174.758 128.342 174.986 128.895 174.986 129.59C174.986 130.133 174.834 130.67 174.529 131.201C174.225 131.732 173.654 132.404 172.818 133.217L170.943 135.051V135.098H175.35V136ZM182.621 134.031H181.35V136H180.418V134.031H176.252V133.182L180.318 127.387H181.35V133.146H182.621V134.031ZM180.418 133.146V130.299C180.418 129.74 180.438 129.109 180.477 128.406H180.43C180.242 128.781 180.066 129.092 179.902 129.338L177.225 133.146H180.418Z" fill="black"/>
<path d="M175.35 136H169.719V135.162L171.975 132.895C172.662 132.199 173.115 131.703 173.334 131.406C173.553 131.109 173.717 130.82 173.826 130.539C173.936 130.258 173.99 129.955 173.99 129.631C173.99 129.174 173.852 128.812 173.574 128.547C173.297 128.277 172.912 128.143 172.42 128.143C172.064 128.143 171.727 128.201 171.406 128.318C171.09 128.436 170.736 128.648 170.346 128.957L169.83 128.295C170.619 127.639 171.479 127.311 172.408 127.311C173.213 127.311 173.844 127.518 174.301 127.932C174.758 128.342 174.986 128.895 174.986 129.59C174.986 130.133 174.834 130.67 174.529 131.201C174.225 131.732 173.654 132.404 172.818 133.217L170.943 135.051V135.098H175.35V136ZM182.621 134.031H181.35V136H180.418V134.031H176.252V133.182L180.318 127.387H181.35V133.146H182.621V134.031ZM180.418 133.146V130.299C180.418 129.74 180.438 129.109 180.477 128.406H180.43C180.242 128.781 180.066 129.092 179.902 129.338L177.225 133.146H180.418Z" fill="black"/>
<path d="M262.5 98C262.5 99.0899 262.783 99.9572 263.319 100.625C263.85 101.288 264.592 101.707 265.424 101.976C267.063 102.505 269.215 102.5 271.25 102.5C273.34 102.5 275.313 102.505 276.768 102.976C277.483 103.207 278.03 103.538 278.401 104C278.767 104.457 279 105.09 279 106L280 106C280 104.91 279.717 104.043 279.181 103.375C278.65 102.712 277.908 102.293 277.076 102.024C275.437 101.495 273.285 101.5 271.25 101.5C269.16 101.5 267.187 101.495 265.732 101.024C265.017 100.793 264.47 100.462 264.099 99.9997C263.733 99.5428 263.5 98.9101 263.5 98L262.5 98ZM295.5 98C295.5 98.9101 295.267 99.5428 294.901 99.9997C294.53 100.462 293.983 100.793 293.268 101.024C291.813 101.495 289.84 101.5 287.75 101.5C285.715 101.5 283.563 101.495 281.924 102.024C281.092 102.293 280.35 102.712 279.819 103.375C279.283 104.043 279 104.91 279 106L280 106C280 105.09 280.233 104.457 280.599 104C280.97 103.538 281.517 103.207 282.232 102.976C283.687 102.505 285.66 102.5 287.75 102.5C289.785 102.5 291.937 102.505 293.576 101.976C294.408 101.707 295.15 101.288 295.681 100.625C296.217 99.9572 296.5 99.0899 296.5 98L295.5 98Z" fill="black"/>
<path d="M279.488 110.311C280.27 110.311 280.889 110.492 281.346 110.855C281.803 111.219 282.031 111.721 282.031 112.361C282.031 112.783 281.9 113.168 281.639 113.516C281.377 113.863 280.959 114.18 280.385 114.465C281.08 114.797 281.574 115.146 281.867 115.514C282.16 115.877 282.307 116.299 282.307 116.779C282.307 117.49 282.059 118.059 281.562 118.484C281.066 118.906 280.387 119.117 279.523 119.117C278.609 119.117 277.906 118.918 277.414 118.52C276.922 118.117 276.676 117.549 276.676 116.814C276.676 115.834 277.273 115.07 278.469 114.523C277.93 114.219 277.543 113.891 277.309 113.539C277.074 113.184 276.957 112.787 276.957 112.35C276.957 111.729 277.186 111.234 277.643 110.867C278.104 110.496 278.719 110.311 279.488 110.311ZM277.637 116.838C277.637 117.307 277.799 117.672 278.123 117.934C278.451 118.195 278.91 118.326 279.5 118.326C280.082 118.326 280.535 118.189 280.859 117.916C281.184 117.643 281.346 117.268 281.346 116.791C281.346 116.412 281.193 116.076 280.889 115.783C280.584 115.486 280.053 115.199 279.295 114.922C278.713 115.172 278.291 115.449 278.029 115.754C277.768 116.055 277.637 116.416 277.637 116.838ZM279.477 111.102C278.988 111.102 278.605 111.219 278.328 111.453C278.051 111.688 277.912 112 277.912 112.391C277.912 112.75 278.027 113.059 278.258 113.316C278.488 113.574 278.914 113.832 279.535 114.09C280.094 113.855 280.488 113.604 280.719 113.334C280.953 113.064 281.07 112.75 281.07 112.391C281.07 111.996 280.928 111.684 280.643 111.453C280.361 111.219 279.973 111.102 279.477 111.102Z" fill="black"/>
<path d="M493.5 98C493.5 99.2624 494.309 100.15 495.49 100.757C496.662 101.36 498.293 101.743 500.184 101.996C503.974 102.501 509.012 102.5 514 102.5C519.012 102.5 523.974 102.501 527.684 102.996C529.543 103.243 531.037 103.61 532.053 104.132C533.059 104.65 533.5 105.262 533.5 106L534.5 106C534.5 104.738 533.691 103.85 532.51 103.243C531.338 102.64 529.707 102.257 527.816 102.004C524.026 101.499 518.988 101.5 514 101.5C508.988 101.5 504.026 101.499 500.316 101.004C498.457 100.757 496.963 100.39 495.947 99.8679C494.941 99.3502 494.5 98.7376 494.5 98L493.5 98ZM573.5 98C573.5 98.7376 573.059 99.3502 572.053 99.8679C571.037 100.39 569.543 100.757 567.684 101.004C563.974 101.499 559.012 101.5 554 101.5C549.012 101.5 543.974 101.499 540.184 102.004C538.293 102.257 536.662 102.64 535.49 103.243C534.309 103.85 533.5 104.738 533.5 106L534.5 106C534.5 105.262 534.941 104.65 535.947 104.132C536.963 103.61 538.457 103.243 540.316 102.996C544.026 102.501 548.988 102.5 554 102.5C558.988 102.5 564.026 102.501 567.816 101.996C569.707 101.743 571.338 101.36 572.51 100.757C573.691 100.15 574.5 99.2624 574.5 98L573.5 98Z" fill="black"/>
<path d="M489 42.5C487.847 42.5 486.957 42.9604 486.301 43.7565C485.665 44.5298 485.268 45.5969 485.011 46.8019C484.498 49.2088 484.5 52.3942 484.5 55.5C484.5 58.6442 484.498 61.7088 484.011 63.9894C483.768 65.1282 483.415 66.0142 482.926 66.6081C482.457 67.1791 481.847 67.5 481 67.5L481 68.5C482.153 68.5 483.043 68.0396 483.699 67.2435C484.335 66.4702 484.732 65.4031 484.989 64.1981C485.502 61.7912 485.5 58.6058 485.5 55.5C485.5 52.3558 485.502 49.2912 485.989 47.0106C486.232 45.8718 486.585 44.9858 487.074 44.3919C487.543 43.8209 488.153 43.5 489 43.5L489 42.5ZM489 92.5C488.153 92.5 487.543 92.1791 487.074 91.6081C486.585 91.0142 486.232 90.1282 485.989 88.9894C485.502 86.7088 485.5 83.6442 485.5 80.5C485.5 77.3942 485.502 74.2088 484.989 71.8019C484.732 70.5969 484.335 69.5298 483.699 68.7565C483.043 67.9604 482.153 67.5 481 67.5L481 68.5C481.847 68.5 482.457 68.8209 482.926 69.3919C483.415 69.9858 483.768 70.8718 484.011 72.0106C484.498 74.2912 484.5 77.3558 484.5 80.5C484.5 83.6058 484.498 86.7912 485.011 89.1981C485.268 90.4031 485.665 91.4702 486.301 92.2435C486.957 93.0396 487.847 93.5 489 93.5L489 92.5Z" fill="black"/>
<path d="M531.322 119H530.373V112.895C530.373 112.387 530.389 111.906 530.42 111.453C530.338 111.535 530.246 111.621 530.145 111.711C530.043 111.801 529.578 112.182 528.75 112.854L528.234 112.186L530.502 110.434H531.322V119ZM540.264 114.705C540.264 116.186 540.029 117.291 539.561 118.021C539.096 118.752 538.383 119.117 537.422 119.117C536.5 119.117 535.799 118.744 535.318 117.998C534.838 117.248 534.598 116.15 534.598 114.705C534.598 113.213 534.83 112.105 535.295 111.383C535.76 110.66 536.469 110.299 537.422 110.299C538.352 110.299 539.057 110.676 539.537 111.43C540.021 112.184 540.264 113.275 540.264 114.705ZM535.582 114.705C535.582 115.951 535.729 116.859 536.021 117.43C536.314 117.996 536.781 118.279 537.422 118.279C538.07 118.279 538.539 117.992 538.828 117.418C539.121 116.84 539.268 115.936 539.268 114.705C539.268 113.475 539.121 112.574 538.828 112.004C538.539 111.43 538.07 111.143 537.422 111.143C536.781 111.143 536.314 111.426 536.021 111.992C535.729 112.555 535.582 113.459 535.582 114.705Z" fill="black"/>
<path d="M613.5 78C613.5 79.2624 614.309 80.1498 615.49 80.7571C616.662 81.3596 618.293 81.7435 620.184 81.9956C623.974 82.501 629.012 82.5 634 82.5C639.012 82.5 643.974 82.501 647.684 82.9956C649.543 83.2435 651.037 83.6096 652.053 84.1321C653.059 84.6498 653.5 85.2624 653.5 86L654.5 86C654.5 84.7376 653.691 83.8502 652.51 83.2429C651.338 82.6404 649.707 82.2565 647.816 82.0044C644.026 81.499 638.988 81.5 634 81.5C628.988 81.5 624.026 81.499 620.316 81.0044C618.457 80.7565 616.963 80.3904 615.947 79.8679C614.941 79.3502 614.5 78.7376 614.5 78L613.5 78ZM693.5 78C693.5 78.7376 693.059 79.3502 692.053 79.8679C691.037 80.3904 689.543 80.7565 687.684 81.0044C683.974 81.499 679.012 81.5 674 81.5C669.012 81.5 663.974 81.499 660.184 82.0044C658.293 82.2565 656.662 82.6404 655.49 83.2429C654.309 83.8502 653.5 84.7376 653.5 86L654.5 86C654.5 85.2624 654.941 84.6498 655.947 84.1321C656.963 83.6096 658.457 83.2435 660.316 82.9956C664.026 82.501 668.988 82.5 674 82.5C678.988 82.5 684.026 82.501 687.816 81.9956C689.707 81.7435 691.338 81.3596 692.51 80.7571C693.691 80.1498 694.5 79.2624 694.5 78L693.5 78Z" fill="black"/>
<path d="M651.322 99H650.373V92.8945C650.373 92.3867 650.389 91.9062 650.42 91.4531C650.338 91.5352 650.246 91.6211 650.145 91.7109C650.043 91.8008 649.578 92.1816 648.75 92.8535L648.234 92.1855L650.502 90.4336H651.322V99ZM660.264 94.7051C660.264 96.1855 660.029 97.291 659.561 98.0215C659.096 98.752 658.383 99.1172 657.422 99.1172C656.5 99.1172 655.799 98.7441 655.318 97.998C654.838 97.248 654.598 96.1504 654.598 94.7051C654.598 93.2129 654.83 92.1055 655.295 91.3828C655.76 90.6602 656.469 90.2988 657.422 90.2988C658.352 90.2988 659.057 90.6758 659.537 91.4297C660.021 92.1836 660.264 93.2754 660.264 94.7051ZM655.582 94.7051C655.582 95.9512 655.729 96.8594 656.021 97.4297C656.314 97.9961 656.781 98.2793 657.422 98.2793C658.07 98.2793 658.539 97.9922 658.828 97.418C659.121 96.8398 659.268 95.9355 659.268 94.7051C659.268 93.4746 659.121 92.5742 658.828 92.0039C658.539 91.4297 658.07 91.1426 657.422 91.1426C656.781 91.1426 656.314 91.4258 656.021 91.9922C655.729 92.5547 655.582 93.459 655.582 94.7051Z" fill="black"/>
<path d="M469.322 72H468.373V65.8945C468.373 65.3867 468.389 64.9062 468.42 64.4531C468.338 64.5352 468.246 64.6211 468.145 64.7109C468.043 64.8008 467.578 65.1816 466.75 65.8535L466.234 65.1855L468.502 63.4336H469.322V72ZM472.686 68.3379C472.686 66.6543 473.012 65.3965 473.664 64.5645C474.32 63.7285 475.289 63.3105 476.57 63.3105C477.012 63.3105 477.359 63.3477 477.613 63.4219V64.2598C477.312 64.1621 476.969 64.1133 476.582 64.1133C475.664 64.1133 474.963 64.4004 474.479 64.9746C473.994 65.5449 473.729 66.4434 473.682 67.6699H473.752C474.182 66.998 474.861 66.6621 475.791 66.6621C476.561 66.6621 477.166 66.8945 477.607 67.3594C478.053 67.8242 478.275 68.4551 478.275 69.252C478.275 70.1426 478.031 70.8438 477.543 71.3555C477.059 71.8633 476.402 72.1172 475.574 72.1172C474.688 72.1172 473.984 71.7852 473.465 71.1211C472.945 70.4531 472.686 69.5254 472.686 68.3379ZM475.562 71.291C476.117 71.291 476.547 71.1172 476.852 70.7695C477.16 70.418 477.314 69.9121 477.314 69.252C477.314 68.6855 477.172 68.2402 476.887 67.916C476.602 67.5918 476.176 67.4297 475.609 67.4297C475.258 67.4297 474.936 67.502 474.643 67.6465C474.35 67.791 474.115 67.9902 473.939 68.2441C473.768 68.498 473.682 68.7617 473.682 69.0352C473.682 69.4375 473.76 69.8125 473.916 70.1602C474.072 70.5078 474.293 70.7832 474.578 70.9863C474.867 71.1895 475.195 71.291 475.562 71.291Z" fill="black"/>
<path d="M403.5 133C403.5 134.115 403.853 134.995 404.501 135.661C405.135 136.313 406.013 136.721 406.996 136.983C408.948 137.504 411.523 137.5 414 137.5C416.523 137.5 418.948 137.504 420.746 137.983C421.638 138.221 422.323 138.563 422.782 139.036C423.228 139.495 423.5 140.115 423.5 141L424.5 141C424.5 139.885 424.147 139.005 423.499 138.339C422.865 137.687 421.987 137.279 421.004 137.017C419.052 136.496 416.477 136.5 414 136.5C411.477 136.5 409.052 136.496 407.254 136.017C406.362 135.779 405.677 135.437 405.218 134.964C404.772 134.505 404.5 133.885 404.5 133L403.5 133ZM443.5 133C443.5 133.885 443.228 134.505 442.782 134.964C442.323 135.437 441.638 135.779 440.746 136.017C438.948 136.496 436.523 136.5 434 136.5C431.523 136.5 428.948 136.496 426.996 137.017C426.013 137.279 425.135 137.687 424.501 138.339C423.853 139.005 423.5 139.885 423.5 141L424.5 141C424.5 140.115 424.772 139.495 425.218 139.036C425.677 138.563 426.362 138.221 427.254 137.983C429.052 137.504 431.477 137.5 434 137.5C436.477 137.5 439.052 137.504 441.004 136.983C441.987 136.721 442.865 136.313 443.499 135.661C444.147 134.995 444.5 134.115 444.5 133L443.5 133Z" fill="black"/>
<path d="M399 7.5C398.321 7.5 397.755 7.82595 397.303 8.34541C396.859 8.85415 396.506 9.56719 396.215 10.416C395.632 12.116 395.253 14.5094 395.002 17.3307C394.5 22.9828 394.5 30.5082 394.5 38C394.5 45.5082 394.5 52.9828 394.002 58.5807C393.753 61.3844 393.382 63.6785 392.84 65.2597C392.568 66.0516 392.266 66.6276 391.943 66.9977C391.63 67.3572 391.321 67.5 391 67.5L391 68.5C391.679 68.5 392.245 68.174 392.697 67.6546C393.14 67.1458 393.494 66.4328 393.785 65.584C394.368 63.884 394.747 61.4906 394.998 58.6693C395.5 53.0172 395.5 45.4918 395.5 38C395.5 30.4918 395.5 23.0172 395.998 17.4193C396.247 14.6156 396.618 12.3215 397.16 10.7403C397.432 9.94844 397.734 9.37241 398.057 9.00225C398.37 8.6428 398.679 8.5 399 8.5L399 7.5ZM399 127.5C398.679 127.5 398.37 127.357 398.057 126.998C397.734 126.628 397.432 126.052 397.16 125.26C396.618 123.679 396.247 121.384 395.998 118.581C395.5 112.983 395.5 105.508 395.5 98C395.5 90.5082 395.5 82.9828 394.998 77.3307C394.747 74.5094 394.368 72.116 393.785 70.416C393.494 69.5672 393.14 68.8542 392.697 68.3454C392.245 67.8259 391.679 67.5 391 67.5L391 68.5C391.321 68.5 391.63 68.6428 391.943 69.0022C392.266 69.3724 392.568 69.9484 392.84 70.7403C393.382 72.3215 393.753 74.6156 394.002 77.4193C394.5 83.0172 394.5 90.4918 394.5 98C394.5 105.492 394.5 113.017 395.002 118.669C395.253 121.491 395.632 123.884 396.214 125.584C396.506 126.433 396.859 127.146 397.303 127.655C397.755 128.174 398.321 128.5 399 128.5L399 127.5Z" fill="black"/>
<path d="M424.488 145.311C425.27 145.311 425.889 145.492 426.346 145.855C426.803 146.219 427.031 146.721 427.031 147.361C427.031 147.783 426.9 148.168 426.639 148.516C426.377 148.863 425.959 149.18 425.385 149.465C426.08 149.797 426.574 150.146 426.867 150.514C427.16 150.877 427.307 151.299 427.307 151.779C427.307 152.49 427.059 153.059 426.562 153.484C426.066 153.906 425.387 154.117 424.523 154.117C423.609 154.117 422.906 153.918 422.414 153.52C421.922 153.117 421.676 152.549 421.676 151.814C421.676 150.834 422.273 150.07 423.469 149.523C422.93 149.219 422.543 148.891 422.309 148.539C422.074 148.184 421.957 147.787 421.957 147.35C421.957 146.729 422.186 146.234 422.643 145.867C423.104 145.496 423.719 145.311 424.488 145.311ZM422.637 151.838C422.637 152.307 422.799 152.672 423.123 152.934C423.451 153.195 423.91 153.326 424.5 153.326C425.082 153.326 425.535 153.189 425.859 152.916C426.184 152.643 426.346 152.268 426.346 151.791C426.346 151.412 426.193 151.076 425.889 150.783C425.584 150.486 425.053 150.199 424.295 149.922C423.713 150.172 423.291 150.449 423.029 150.754C422.768 151.055 422.637 151.416 422.637 151.838ZM424.477 146.102C423.988 146.102 423.605 146.219 423.328 146.453C423.051 146.688 422.912 147 422.912 147.391C422.912 147.75 423.027 148.059 423.258 148.316C423.488 148.574 423.914 148.832 424.535 149.09C425.094 148.855 425.488 148.604 425.719 148.334C425.953 148.064 426.07 147.75 426.07 147.391C426.07 146.996 425.928 146.684 425.643 146.453C425.361 146.219 424.973 146.102 424.477 146.102Z" fill="black"/>
<path d="M367.482 72H361.852V71.1621L364.107 68.8945C364.795 68.1992 365.248 67.7031 365.467 67.4062C365.686 67.1094 365.85 66.8203 365.959 66.5391C366.068 66.2578 366.123 65.9551 366.123 65.6309C366.123 65.1738 365.984 64.8125 365.707 64.5469C365.43 64.2773 365.045 64.1426 364.553 64.1426C364.197 64.1426 363.859 64.2012 363.539 64.3184C363.223 64.4355 362.869 64.6484 362.479 64.957L361.963 64.2949C362.752 63.6387 363.611 63.3105 364.541 63.3105C365.346 63.3105 365.977 63.5176 366.434 63.9316C366.891 64.3418 367.119 64.8945 367.119 65.5898C367.119 66.1328 366.967 66.6699 366.662 67.2012C366.357 67.7324 365.787 68.4043 364.951 69.2168L363.076 71.0508V71.0977H367.482V72ZM374.396 67.7051C374.396 69.1855 374.162 70.291 373.693 71.0215C373.229 71.752 372.516 72.1172 371.555 72.1172C370.633 72.1172 369.932 71.7441 369.451 70.998C368.971 70.248 368.73 69.1504 368.73 67.7051C368.73 66.2129 368.963 65.1055 369.428 64.3828C369.893 63.6602 370.602 63.2988 371.555 63.2988C372.484 63.2988 373.189 63.6758 373.67 64.4297C374.154 65.1836 374.396 66.2754 374.396 67.7051ZM369.715 67.7051C369.715 68.9512 369.861 69.8594 370.154 70.4297C370.447 70.9961 370.914 71.2793 371.555 71.2793C372.203 71.2793 372.672 70.9922 372.961 70.418C373.254 69.8398 373.4 68.9355 373.4 67.7051C373.4 66.4746 373.254 65.5742 372.961 65.0039C372.672 64.4297 372.203 64.1426 371.555 64.1426C370.914 64.1426 370.447 64.4258 370.154 64.9922C369.861 65.5547 369.715 66.459 369.715 67.7051ZM381.621 70.0312H380.35V72H379.418V70.0312H375.252V69.1816L379.318 63.3867H380.35V69.1465H381.621V70.0312ZM379.418 69.1465V66.2988C379.418 65.7402 379.438 65.1094 379.477 64.4062H379.43C379.242 64.7812 379.066 65.0918 378.902 65.3379L376.225 69.1465H379.418ZM385.289 63.3105C386.07 63.3105 386.689 63.4922 387.146 63.8555C387.604 64.2188 387.832 64.7207 387.832 65.3613C387.832 65.7832 387.701 66.168 387.439 66.5156C387.178 66.8633 386.76 67.1797 386.186 67.4648C386.881 67.7969 387.375 68.1465 387.668 68.5137C387.961 68.877 388.107 69.2988 388.107 69.7793C388.107 70.4902 387.859 71.0586 387.363 71.4844C386.867 71.9062 386.188 72.1172 385.324 72.1172C384.41 72.1172 383.707 71.918 383.215 71.5195C382.723 71.1172 382.477 70.5488 382.477 69.8145C382.477 68.834 383.074 68.0703 384.27 67.5234C383.73 67.2188 383.344 66.8906 383.109 66.5391C382.875 66.1836 382.758 65.7871 382.758 65.3496C382.758 64.7285 382.986 64.2344 383.443 63.8672C383.904 63.4961 384.52 63.3105 385.289 63.3105ZM383.438 69.8379C383.438 70.3066 383.6 70.6719 383.924 70.9336C384.252 71.1953 384.711 71.3262 385.301 71.3262C385.883 71.3262 386.336 71.1895 386.66 70.916C386.984 70.6426 387.146 70.2676 387.146 69.791C387.146 69.4121 386.994 69.0762 386.689 68.7832C386.385 68.4863 385.854 68.1992 385.096 67.9219C384.514 68.1719 384.092 68.4492 383.83 68.7539C383.568 69.0547 383.438 69.416 383.438 69.8379ZM385.277 64.1016C384.789 64.1016 384.406 64.2188 384.129 64.4531C383.852 64.6875 383.713 65 383.713 65.3906C383.713 65.75 383.828 66.0586 384.059 66.3164C384.289 66.5742 384.715 66.832 385.336 67.0898C385.895 66.8555 386.289 66.6035 386.52 66.334C386.754 66.0645 386.871 65.75 386.871 65.3906C386.871 64.9961 386.729 64.6836 386.443 64.4531C386.162 64.2188 385.773 64.1016 385.277 64.1016Z" fill="black"/>
<path d="M5.96094 2.44922C5.96094 2.99609 5.80664 3.44336 5.49805 3.79102C5.19336 4.13867 4.75977 4.37109 4.19727 4.48828V4.53516C4.88477 4.62109 5.39453 4.83984 5.72656 5.19141C6.05859 5.54297 6.22461 6.00391 6.22461 6.57422C6.22461 7.39062 5.94141 8.01953 5.375 8.46094C4.80859 8.89844 4.00391 9.11719 2.96094 9.11719C2.50781 9.11719 2.0918 9.08203 1.71289 9.01172C1.33789 8.94531 0.972656 8.82617 0.617188 8.6543V7.72852C0.988281 7.91211 1.38281 8.05273 1.80078 8.15039C2.22266 8.24414 2.62109 8.29102 2.99609 8.29102C4.47656 8.29102 5.2168 7.71094 5.2168 6.55078C5.2168 5.51172 4.40039 4.99219 2.76758 4.99219H1.92383V4.1543H2.7793C3.44727 4.1543 3.97656 4.00781 4.36719 3.71484C4.75781 3.41797 4.95313 3.00781 4.95313 2.48438C4.95313 2.06641 4.80859 1.73828 4.51953 1.5C4.23438 1.26172 3.8457 1.14258 3.35352 1.14258C2.97852 1.14258 2.625 1.19336 2.29297 1.29492C1.96094 1.39648 1.58203 1.58398 1.15625 1.85742L0.664063 1.20117C1.01563 0.923828 1.41992 0.707031 1.87695 0.550781C2.33789 0.390625 2.82227 0.310547 3.33008 0.310547C4.16211 0.310547 4.80859 0.501953 5.26953 0.884766C5.73047 1.26367 5.96094 1.78516 5.96094 2.44922Z" fill="black"/>
<path d="M12.33 11.0963C12.0747 10.7571 11.8021 10.5067 11.5013 10.3561C11.1912 10.2007 10.8793 10.1658 10.5808 10.2153C10.035 10.3058 9.54805 10.6869 9.1962 10.9518C8.78224 11.2633 8.50338 11.4586 8.24932 11.5007C8.14785 11.5175 8.05133 11.5079 7.94027 11.4523C7.8198 11.3919 7.65845 11.2649 7.46272 11.0049L6.66374 11.6062C6.91904 11.9454 7.19167 12.1958 7.49242 12.3464C7.80257 12.5018 8.1145 12.5367 8.41296 12.4872C8.95877 12.3967 9.44572 12.0156 9.79756 11.7507C10.2115 11.4392 10.4904 11.2439 10.7444 11.2018C10.8459 11.185 10.9424 11.1946 11.0535 11.2502C11.174 11.3105 11.3353 11.4376 11.531 11.6976L12.33 11.0963ZM6.20356 15.7074C6.00783 15.4473 5.93041 15.2571 5.90576 15.1246C5.88304 15.0025 5.90051 14.9071 5.94477 14.8143C6.05557 14.5818 6.32036 14.3679 6.73433 14.0563C7.08617 13.7915 7.58719 13.429 7.82523 12.9296C7.9554 12.6565 8.00811 12.3471 7.94466 12.006C7.88313 11.6753 7.71802 11.3441 7.46272 11.0049L6.66374 11.6062C6.85946 11.8663 6.93688 12.0565 6.96153 12.1889C6.98425 12.3111 6.96678 12.4065 6.92253 12.4993C6.81173 12.7318 6.54694 12.9457 6.13297 13.2573C5.78113 13.5221 5.28011 13.8846 5.04206 14.384C4.91189 14.6571 4.85918 14.9665 4.92264 15.3076C4.98417 15.6383 5.14928 15.9695 5.40457 16.3087L6.20356 15.7074Z" fill="black"/>
<path d="M142.416 22H136.785V21.1621L139.041 18.8945C139.729 18.1992 140.182 17.7031 140.4 17.4062C140.619 17.1094 140.783 16.8203 140.893 16.5391C141.002 16.2578 141.057 15.9551 141.057 15.6309C141.057 15.1738 140.918 14.8125 140.641 14.5469C140.363 14.2773 139.979 14.1426 139.486 14.1426C139.131 14.1426 138.793 14.2012 138.473 14.3184C138.156 14.4355 137.803 14.6484 137.412 14.957L136.896 14.2949C137.686 13.6387 138.545 13.3105 139.475 13.3105C140.279 13.3105 140.91 13.5176 141.367 13.9316C141.824 14.3418 142.053 14.8945 142.053 15.5898C142.053 16.1328 141.9 16.6699 141.596 17.2012C141.291 17.7324 140.721 18.4043 139.885 19.2168L138.01 21.0508V21.0977H142.416V22ZM146.33 16.7676C147.232 16.7676 147.941 16.9922 148.457 17.4414C148.977 17.8867 149.236 18.498 149.236 19.2754C149.236 20.1621 148.953 20.8574 148.387 21.3613C147.824 21.8652 147.047 22.1172 146.055 22.1172C145.09 22.1172 144.354 21.9629 143.846 21.6543V20.7168C144.119 20.8926 144.459 21.0312 144.865 21.1328C145.271 21.2305 145.672 21.2793 146.066 21.2793C146.754 21.2793 147.287 21.1172 147.666 20.793C148.049 20.4688 148.24 20 148.24 19.3867C148.24 18.1914 147.508 17.5938 146.043 17.5938C145.672 17.5938 145.176 17.6504 144.555 17.7637L144.051 17.4414L144.373 13.4336H148.633V14.3301H145.205L144.988 16.9023C145.438 16.8125 145.885 16.7676 146.33 16.7676ZM150.619 18.3379C150.619 16.6543 150.945 15.3965 151.598 14.5645C152.254 13.7285 153.223 13.3105 154.504 13.3105C154.945 13.3105 155.293 13.3477 155.547 13.4219V14.2598C155.246 14.1621 154.902 14.1133 154.516 14.1133C153.598 14.1133 152.896 14.4004 152.412 14.9746C151.928 15.5449 151.662 16.4434 151.615 17.6699H151.686C152.115 16.998 152.795 16.6621 153.725 16.6621C154.494 16.6621 155.1 16.8945 155.541 17.3594C155.986 17.8242 156.209 18.4551 156.209 19.252C156.209 20.1426 155.965 20.8438 155.477 21.3555C154.992 21.8633 154.336 22.1172 153.508 22.1172C152.621 22.1172 151.918 21.7852 151.398 21.1211C150.879 20.4531 150.619 19.5254 150.619 18.3379ZM153.496 21.291C154.051 21.291 154.48 21.1172 154.785 20.7695C155.094 20.418 155.248 19.9121 155.248 19.252C155.248 18.6855 155.105 18.2402 154.82 17.916C154.535 17.5918 154.109 17.4297 153.543 17.4297C153.191 17.4297 152.869 17.502 152.576 17.6465C152.283 17.791 152.049 17.9902 151.873 18.2441C151.701 18.498 151.615 18.7617 151.615 19.0352C151.615 19.4375 151.693 19.8125 151.85 20.1602C152.006 20.5078 152.227 20.7832 152.512 20.9863C152.801 21.1895 153.129 21.291 153.496 21.291Z" fill="black"/>
<path d="M167.471 21.1885C167.046 20.6236 166.437 20.4326 165.787 20.4818C165.166 20.5289 164.48 20.7934 163.783 21.1568C162.385 21.8859 160.744 23.1229 159.152 24.3212C157.536 25.5376 155.968 26.7154 154.66 27.3978C154.003 27.7402 153.461 27.9307 153.042 27.9624C152.652 27.9919 152.409 27.8856 152.233 27.6515L151.434 28.2528C151.859 28.8177 152.468 29.0088 153.118 28.9595C153.739 28.9124 154.425 28.6479 155.122 28.2845C156.52 27.5554 158.161 26.3184 159.753 25.1201C161.369 23.9037 162.937 22.7259 164.245 22.0435C164.902 21.7011 165.444 21.5107 165.863 21.4789C166.253 21.4494 166.496 21.5558 166.672 21.7898L167.471 21.1885ZM141.805 40.5063C141.629 40.2723 141.594 40.0091 141.73 39.6424C141.877 39.2489 142.21 38.7806 142.72 38.2444C143.738 37.1757 145.304 35.9956 146.92 34.7791C148.512 33.5808 150.155 32.3463 151.242 31.2044C151.784 30.6354 152.229 30.0494 152.446 29.4653C152.673 28.8543 152.658 28.2164 152.233 27.6515L151.434 28.2528C151.61 28.4869 151.645 28.7501 151.508 29.1167C151.362 29.5103 151.029 29.9785 150.518 30.5147C149.5 31.5835 147.935 32.7636 146.319 33.9801C144.727 35.1784 143.084 36.4129 141.996 37.5547C141.454 38.1238 141.01 38.7098 140.793 39.2939C140.566 39.9049 140.581 40.5428 141.006 41.1077L141.805 40.5063Z" fill="black"/>
<path d="M260.416 37H254.785V36.1621L257.041 33.8945C257.729 33.1992 258.182 32.7031 258.4 32.4062C258.619 32.1094 258.783 31.8203 258.893 31.5391C259.002 31.2578 259.057 30.9551 259.057 30.6309C259.057 30.1738 258.918 29.8125 258.641 29.5469C258.363 29.2773 257.979 29.1426 257.486 29.1426C257.131 29.1426 256.793 29.2012 256.473 29.3184C256.156 29.4355 255.803 29.6484 255.412 29.957L254.896 29.2949C255.686 28.6387 256.545 28.3105 257.475 28.3105C258.279 28.3105 258.91 28.5176 259.367 28.9316C259.824 29.3418 260.053 29.8945 260.053 30.5898C260.053 31.1328 259.9 31.6699 259.596 32.2012C259.291 32.7324 258.721 33.4043 257.885 34.2168L256.01 36.0508V36.0977H260.416V37ZM264.33 31.7676C265.232 31.7676 265.941 31.9922 266.457 32.4414C266.977 32.8867 267.236 33.498 267.236 34.2754C267.236 35.1621 266.953 35.8574 266.387 36.3613C265.824 36.8652 265.047 37.1172 264.055 37.1172C263.09 37.1172 262.354 36.9629 261.846 36.6543V35.7168C262.119 35.8926 262.459 36.0312 262.865 36.1328C263.271 36.2305 263.672 36.2793 264.066 36.2793C264.754 36.2793 265.287 36.1172 265.666 35.793C266.049 35.4688 266.24 35 266.24 34.3867C266.24 33.1914 265.508 32.5938 264.043 32.5938C263.672 32.5938 263.176 32.6504 262.555 32.7637L262.051 32.4414L262.373 28.4336H266.633V29.3301H263.205L262.988 31.9023C263.438 31.8125 263.885 31.7676 264.33 31.7676ZM268.619 33.3379C268.619 31.6543 268.945 30.3965 269.598 29.5645C270.254 28.7285 271.223 28.3105 272.504 28.3105C272.945 28.3105 273.293 28.3477 273.547 28.4219V29.2598C273.246 29.1621 272.902 29.1133 272.516 29.1133C271.598 29.1133 270.896 29.4004 270.412 29.9746C269.928 30.5449 269.662 31.4434 269.615 32.6699H269.686C270.115 31.998 270.795 31.6621 271.725 31.6621C272.494 31.6621 273.1 31.8945 273.541 32.3594C273.986 32.8242 274.209 33.4551 274.209 34.252C274.209 35.1426 273.965 35.8438 273.477 36.3555C272.992 36.8633 272.336 37.1172 271.508 37.1172C270.621 37.1172 269.918 36.7852 269.398 36.1211C268.879 35.4531 268.619 34.5254 268.619 33.3379ZM271.496 36.291C272.051 36.291 272.48 36.1172 272.785 35.7695C273.094 35.418 273.248 34.9121 273.248 34.252C273.248 33.6855 273.105 33.2402 272.82 32.916C272.535 32.5918 272.109 32.4297 271.543 32.4297C271.191 32.4297 270.869 32.502 270.576 32.6465C270.283 32.791 270.049 32.9902 269.873 33.2441C269.701 33.498 269.615 33.7617 269.615 34.0352C269.615 34.4375 269.693 34.8125 269.85 35.1602C270.006 35.5078 270.227 35.7832 270.512 35.9863C270.801 36.1895 271.129 36.291 271.496 36.291Z" fill="black"/>
<path d="M285.471 36.1885C285.046 35.6236 284.437 35.4326 283.787 35.4818C283.166 35.5289 282.48 35.7934 281.783 36.1568C280.385 36.8859 278.744 38.1229 277.152 39.3212C275.536 40.5376 273.968 41.7154 272.66 42.3978C272.003 42.7402 271.461 42.9307 271.042 42.9624C270.652 42.9919 270.409 42.8856 270.233 42.6515L269.434 43.2528C269.859 43.8177 270.468 44.0088 271.118 43.9595C271.739 43.9124 272.425 43.6479 273.122 43.2845C274.52 42.5554 276.161 41.3184 277.753 40.1201C279.369 38.9037 280.937 37.7259 282.245 37.0435C282.902 36.7011 283.444 36.5107 283.863 36.4789C284.253 36.4494 284.496 36.5558 284.672 36.7898L285.471 36.1885ZM259.805 55.5063C259.629 55.2723 259.594 55.0091 259.73 54.6424C259.877 54.2489 260.21 53.7806 260.72 53.2444C261.738 52.1757 263.304 50.9956 264.92 49.7791C266.512 48.5808 268.155 47.3463 269.242 46.2044C269.784 45.6354 270.229 45.0494 270.446 44.4653C270.673 43.8543 270.658 43.2164 270.233 42.6515L269.434 43.2528C269.61 43.4869 269.645 43.7501 269.508 44.1167C269.362 44.5103 269.029 44.9785 268.518 45.5147C267.5 46.5835 265.935 47.7636 264.319 48.9801C262.727 50.1784 261.084 51.4129 259.996 52.5547C259.454 53.1238 259.01 53.7098 258.793 54.2939C258.566 54.9049 258.581 55.5428 259.006 56.1077L259.805 55.5063Z" fill="black"/>
<path d="M145 45.5238L170.882 26H233V88.4762L207.118 108H145V45.5238Z" fill="white"/>
<path d="M145 45.5238L170.882 26H233M145 45.5238H207.118M145 45.5238V108H207.118M233 26L207.118 45.5238M233 26V88.4762L207.118 108M207.118 45.5238V108" stroke="black" stroke-width="2"/>
<path d="M9 19.4366L14.8889 15L115 15V115.563L109.111 120H9V19.4366Z" fill="white"/>
<path d="M9 19.4366L14.8889 15L115 15M9 19.4366H109.111M9 19.4366V120H109.111M115 15L109.111 19.4366M115 15V115.563L109.111 120M109.111 19.4366V120" stroke="black" stroke-width="2"/>
<path d="M90 99H62V71L66 68H94V96L90 99Z" fill="#8BCDF2"/>
<path d="M62 71V99H90M62 71L66 68H94M62 71H90M90 71V99M90 71L94 68M90 99L94 96V68" stroke="#32ACF1"/>
<path d="M161 97V89H153V97H161Z" fill="#8BCDF2" stroke="#32ACF1"/>
<path d="M72.416 84.0898C72.416 87.4414 71.1191 89.1172 68.5254 89.1172C68.0723 89.1172 67.7129 89.0781 67.4473 89V88.1621C67.7598 88.2637 68.1152 88.3145 68.5137 88.3145C69.4512 88.3145 70.1582 88.0254 70.6348 87.4473C71.1152 86.8652 71.377 85.9746 71.4199 84.7754H71.3496C71.1348 85.0996 70.8496 85.3477 70.4941 85.5195C70.1387 85.6875 69.7383 85.7715 69.293 85.7715C68.5352 85.7715 67.9336 85.5449 67.4883 85.0918C67.043 84.6387 66.8203 84.0059 66.8203 83.1934C66.8203 82.3027 67.0684 81.5996 67.5645 81.084C68.0645 80.5684 68.7207 80.3105 69.5332 80.3105C70.1152 80.3105 70.623 80.4609 71.0566 80.7617C71.4941 81.0586 71.8301 81.4941 72.0645 82.0684C72.2988 82.6387 72.416 83.3125 72.416 84.0898ZM69.5332 81.1426C68.9746 81.1426 68.543 81.3223 68.2383 81.6816C67.9336 82.041 67.7812 82.541 67.7812 83.1816C67.7812 83.7441 67.9219 84.1875 68.2031 84.5117C68.4844 84.832 68.9121 84.9922 69.4863 84.9922C69.8418 84.9922 70.168 84.9199 70.4648 84.7754C70.7656 84.6309 71.002 84.4336 71.1738 84.1836C71.3457 83.9336 71.4316 83.6719 71.4316 83.3984C71.4316 82.9883 71.3516 82.6094 71.1914 82.2617C71.0312 81.9141 70.8066 81.6406 70.5176 81.4414C70.2324 81.2422 69.9043 81.1426 69.5332 81.1426ZM78.5742 82.1094L79.1367 82.6895L77.0742 84.7637L79.125 86.8262L78.5625 87.4062L76.4883 85.3496L74.4492 87.4062L73.8574 86.8262L75.9082 84.7637L73.8457 82.7012L74.4316 82.1094L76.5 84.1895L78.5742 82.1094ZM86.1504 84.0898C86.1504 87.4414 84.8535 89.1172 82.2598 89.1172C81.8066 89.1172 81.4473 89.0781 81.1816 89V88.1621C81.4941 88.2637 81.8496 88.3145 82.248 88.3145C83.1855 88.3145 83.8926 88.0254 84.3691 87.4473C84.8496 86.8652 85.1113 85.9746 85.1543 84.7754H85.084C84.8691 85.0996 84.584 85.3477 84.2285 85.5195C83.873 85.6875 83.4727 85.7715 83.0273 85.7715C82.2695 85.7715 81.668 85.5449 81.2227 85.0918C80.7773 84.6387 80.5547 84.0059 80.5547 83.1934C80.5547 82.3027 80.8027 81.5996 81.2988 81.084C81.7988 80.5684 82.4551 80.3105 83.2676 80.3105C83.8496 80.3105 84.3574 80.4609 84.791 80.7617C85.2285 81.0586 85.5645 81.4941 85.7988 82.0684C86.0332 82.6387 86.1504 83.3125 86.1504 84.0898ZM83.2676 81.1426C82.709 81.1426 82.2773 81.3223 81.9727 81.6816C81.668 82.041 81.5156 82.541 81.5156 83.1816C81.5156 83.7441 81.6562 84.1875 81.9375 84.5117C82.2188 84.832 82.6465 84.9922 83.2207 84.9922C83.5762 84.9922 83.9023 84.9199 84.1992 84.7754C84.5 84.6309 84.7363 84.4336 84.9082 84.1836C85.0801 83.9336 85.166 83.6719 85.166 83.3984C85.166 82.9883 85.0859 82.6094 84.9258 82.2617C84.7656 81.9141 84.541 81.6406 84.252 81.4414C83.9668 81.2422 83.6387 81.1426 83.2676 81.1426Z" fill="black"/>
<line x1="156.881" y1="89.3558" x2="93.8814" y2="68.3558" stroke="black" stroke-width="0.75" stroke-dasharray="2 3"/>
<line x1="89.9888" y1="98.6252" x2="156.989" y2="96.6252" stroke="black" stroke-width="0.75" stroke-dasharray="2 3"/>
<path d="M263 59L288 40H321V74L297 93H263V59Z" fill="white"/>
<path d="M263 59L288 40H321M263 59H297M263 59V93H297M321 40L297 59M321 40V74L297 93M297 59V93" stroke="black" stroke-width="2"/>
<line x1="493.785" y1="43.3072" x2="443.785" y2="8.30722" stroke="black" stroke-width="0.75" stroke-dasharray="2 3"/>
<line x1="443.785" y1="127.693" x2="493.785" y2="92.6928" stroke="black" stroke-width="0.75" stroke-dasharray="2 3"/>
<rect x="494" y="43" width="80" height="50" fill="white" stroke="#32ACF1" stroke-width="2"/>
<rect x="614" y="63" width="80" height="10" fill="white" stroke="black" stroke-width="2"/>
<rect x="404" y="8" width="40" height="120" fill="white" stroke="#32ACF1" stroke-width="2"/>
<path d="M351.354 68.3536C351.549 68.1583 351.549 67.8417 351.354 67.6464L348.172 64.4645C347.976 64.2692 347.66 64.2692 347.464 64.4645C347.269 64.6597 347.269 64.9763 347.464 65.1716L350.293 68L347.464 70.8284C347.269 71.0237 347.269 71.3403 347.464 71.5355C347.66 71.7308 347.976 71.7308 348.172 71.5355L351.354 68.3536ZM331 68.5H351V67.5H331V68.5Z" fill="black"/>
<path d="M604.354 68.3536C604.549 68.1583 604.549 67.8417 604.354 67.6464L601.172 64.4645C600.976 64.2692 600.66 64.2692 600.464 64.4645C600.269 64.6597 600.269 64.9763 600.464 65.1716L603.293 68L600.464 70.8284C600.269 71.0237 600.269 71.3403 600.464 71.5355C600.66 71.7308 600.976 71.7308 601.172 71.5355L604.354 68.3536ZM584 68.5H604V67.5H584V68.5Z" fill="black"/>
<path d="M482 4.97266V4.16992H487.449V4.97266H482ZM482 7.36914V6.56641H487.449V7.36914H482ZM495.402 12.2148H492.477V0.00585938H495.402V0.648438H493.146V11.5654H495.402V12.2148ZM499.18 1.31055C499.961 1.31055 500.58 1.49219 501.037 1.85547C501.494 2.21875 501.723 2.7207 501.723 3.36133C501.723 3.7832 501.592 4.16797 501.33 4.51562C501.068 4.86328 500.65 5.17969 500.076 5.46484C500.771 5.79688 501.266 6.14648 501.559 6.51367C501.852 6.87695 501.998 7.29883 501.998 7.7793C501.998 8.49023 501.75 9.05859 501.254 9.48438C500.758 9.90625 500.078 10.1172 499.215 10.1172C498.301 10.1172 497.598 9.91797 497.105 9.51953C496.613 9.11719 496.367 8.54883 496.367 7.81445C496.367 6.83398 496.965 6.07031 498.16 5.52344C497.621 5.21875 497.234 4.89062 497 4.53906C496.766 4.18359 496.648 3.78711 496.648 3.34961C496.648 2.72852 496.877 2.23438 497.334 1.86719C497.795 1.49609 498.41 1.31055 499.18 1.31055ZM497.328 7.83789C497.328 8.30664 497.49 8.67188 497.814 8.93359C498.143 9.19531 498.602 9.32617 499.191 9.32617C499.773 9.32617 500.227 9.18945 500.551 8.91602C500.875 8.64258 501.037 8.26758 501.037 7.79102C501.037 7.41211 500.885 7.07617 500.58 6.7832C500.275 6.48633 499.744 6.19922 498.986 5.92188C498.404 6.17188 497.982 6.44922 497.721 6.75391C497.459 7.05469 497.328 7.41602 497.328 7.83789ZM499.168 2.10156C498.68 2.10156 498.297 2.21875 498.02 2.45312C497.742 2.6875 497.604 3 497.604 3.39062C497.604 3.75 497.719 4.05859 497.949 4.31641C498.18 4.57422 498.605 4.83203 499.227 5.08984C499.785 4.85547 500.18 4.60352 500.41 4.33398C500.645 4.06445 500.762 3.75 500.762 3.39062C500.762 2.99609 500.619 2.68359 500.334 2.45312C500.053 2.21875 499.664 2.10156 499.168 2.10156ZM508.133 3.10938L508.695 3.68945L506.633 5.76367L508.684 7.82617L508.121 8.40625L506.047 6.34961L504.008 8.40625L503.416 7.82617L505.467 5.76367L503.404 3.70117L503.99 3.10938L506.059 5.18945L508.133 3.10938ZM513.682 10H512.732V3.89453C512.732 3.38672 512.748 2.90625 512.779 2.45312C512.697 2.53516 512.605 2.62109 512.504 2.71094C512.402 2.80078 511.938 3.18164 511.109 3.85352L510.594 3.18555L512.861 1.43359H513.682V10ZM517.045 6.33789C517.045 4.6543 517.371 3.39648 518.023 2.56445C518.68 1.72852 519.648 1.31055 520.93 1.31055C521.371 1.31055 521.719 1.34766 521.973 1.42188V2.25977C521.672 2.16211 521.328 2.11328 520.941 2.11328C520.023 2.11328 519.322 2.40039 518.838 2.97461C518.354 3.54492 518.088 4.44336 518.041 5.66992H518.111C518.541 4.99805 519.221 4.66211 520.15 4.66211C520.92 4.66211 521.525 4.89453 521.967 5.35938C522.412 5.82422 522.635 6.45508 522.635 7.25195C522.635 8.14258 522.391 8.84375 521.902 9.35547C521.418 9.86328 520.762 10.1172 519.934 10.1172C519.047 10.1172 518.344 9.78516 517.824 9.12109C517.305 8.45312 517.045 7.52539 517.045 6.33789ZM519.922 9.29102C520.477 9.29102 520.906 9.11719 521.211 8.76953C521.52 8.41797 521.674 7.91211 521.674 7.25195C521.674 6.68555 521.531 6.24023 521.246 5.91602C520.961 5.5918 520.535 5.42969 519.969 5.42969C519.617 5.42969 519.295 5.50195 519.002 5.64648C518.709 5.79102 518.475 5.99023 518.299 6.24414C518.127 6.49805 518.041 6.76172 518.041 7.03516C518.041 7.4375 518.119 7.8125 518.275 8.16016C518.432 8.50781 518.652 8.7832 518.938 8.98633C519.227 9.18945 519.555 9.29102 519.922 9.29102ZM523.575 11.5654H525.831V0.648438H523.575V0.00585938H526.501V12.2148H523.575V11.5654Z" fill="black"/>
<path d="M467.549 1.88647C467.641 1.64829 467.668 1.56892 468.779 1.56892V1C468.118 1.02648 468.091 1.02648 467.337 1.02648C466.953 1.02648 465.987 1.02648 465.67 1V1.56892C465.829 1.56892 466.993 1.56892 466.993 1.75414C466.993 1.76738 466.993 1.79386 466.94 1.91294L464.717 7.81402L462.349 1.56892H463.606V1C463.182 1.02648 461.952 1.02648 461.449 1.02648C461.039 1.02648 459.756 1.02648 459.438 1V1.56892H460.549L461.092 2.99788L459.279 7.81402L456.924 1.56892H458.168V1C457.784 1.02648 456.487 1.02648 456.011 1.02648C455.588 1.02648 454.331 1.02648 454 1V1.56892H455.111L458.26 9.87808C458.34 10.103 458.38 10.1956 458.671 10.1956C458.962 10.1956 459.001 10.103 459.081 9.89131L461.383 3.79173L463.698 9.89131C463.778 10.103 463.817 10.1956 464.109 10.1956C464.36 10.1956 464.426 10.1427 464.519 9.89131L467.549 1.88647Z" fill="black"/>
<path d="M472.148 11.1728C472.148 11.1176 472.104 11.0735 472.038 11.0735C471.938 11.0735 471.927 11.1066 471.872 11.2941C471.585 12.2978 471.133 12.6397 470.769 12.6397C470.637 12.6397 470.482 12.6066 470.482 12.2757C470.482 11.9779 470.615 11.647 470.736 11.3162L471.508 9.26467C471.541 9.17643 471.619 8.9779 471.619 8.76834C471.619 8.3051 471.288 7.88598 470.747 7.88598C469.732 7.88598 469.324 9.48526 469.324 9.57349C469.324 9.61761 469.369 9.67276 469.446 9.67276C469.545 9.67276 469.556 9.62864 469.6 9.47423C469.865 8.54775 470.284 8.10657 470.714 8.10657C470.813 8.10657 471.001 8.1176 471.001 8.47054C471.001 8.75731 470.858 9.12128 470.769 9.36394L469.997 11.4154C469.931 11.5919 469.865 11.7684 469.865 11.9669C469.865 12.4632 470.207 12.8603 470.736 12.8603C471.751 12.8603 472.148 11.25 472.148 11.1728ZM472.06 5.86759C472.06 5.70212 471.927 5.5036 471.685 5.5036C471.431 5.5036 471.144 5.74626 471.144 6.03302C471.144 6.30877 471.376 6.39701 471.508 6.39701C471.806 6.39701 472.06 6.11026 472.06 5.86759Z" fill="black"/>
<path d="M476.557 9.25364C476.601 9.07717 476.601 8.92276 476.601 8.87864C476.601 8.23893 476.127 7.88598 475.631 7.88598C474.517 7.88598 473.921 9.49629 473.921 9.57349C473.921 9.62864 473.965 9.67276 474.031 9.67276C474.12 9.67276 474.131 9.62864 474.186 9.51835C474.627 8.44849 475.179 8.10657 475.598 8.10657C475.829 8.10657 475.951 8.2279 475.951 8.61393C475.951 8.87864 475.918 8.98893 475.873 9.18746L474.826 13.3456C474.616 14.1618 474.098 14.7794 473.491 14.7794C473.447 14.7794 473.215 14.7794 473.006 14.6691C473.27 14.614 473.48 14.4044 473.48 14.1397C473.48 13.9632 473.348 13.7868 473.105 13.7868C472.818 13.7868 472.554 14.0294 472.554 14.3603C472.554 14.8125 473.039 15 473.491 15C474.252 15 475.256 14.4375 475.531 13.3345L476.557 9.25364ZM477.009 5.86759C477.009 5.59184 476.778 5.5036 476.645 5.5036C476.348 5.5036 476.094 5.79035 476.094 6.03302C476.094 6.19849 476.226 6.39701 476.469 6.39701C476.723 6.39701 477.009 6.15435 477.009 5.86759Z" fill="black"/>
<path d="M197 86H169V58L173 55H201V83L197 86Z" fill="#8BCDF2"/>
<path d="M169 58V86H197M169 58L173 55H201M169 58H197M197 58V86M197 58L201 55M197 86L201 83V55" stroke="#32ACF1"/>
<path d="M281 84V76H273V84H281Z" fill="#8BCDF2" stroke="#32ACF1"/>
<path d="M179.416 71.0898C179.416 74.4414 178.119 76.1172 175.525 76.1172C175.072 76.1172 174.713 76.0781 174.447 76V75.1621C174.76 75.2637 175.115 75.3145 175.514 75.3145C176.451 75.3145 177.158 75.0254 177.635 74.4473C178.115 73.8652 178.377 72.9746 178.42 71.7754H178.35C178.135 72.0996 177.85 72.3477 177.494 72.5195C177.139 72.6875 176.738 72.7715 176.293 72.7715C175.535 72.7715 174.934 72.5449 174.488 72.0918C174.043 71.6387 173.82 71.0059 173.82 70.1934C173.82 69.3027 174.068 68.5996 174.564 68.084C175.064 67.5684 175.721 67.3105 176.533 67.3105C177.115 67.3105 177.623 67.4609 178.057 67.7617C178.494 68.0586 178.83 68.4941 179.064 69.0684C179.299 69.6387 179.416 70.3125 179.416 71.0898ZM176.533 68.1426C175.975 68.1426 175.543 68.3223 175.238 68.6816C174.934 69.041 174.781 69.541 174.781 70.1816C174.781 70.7441 174.922 71.1875 175.203 71.5117C175.484 71.832 175.912 71.9922 176.486 71.9922C176.842 71.9922 177.168 71.9199 177.465 71.7754C177.766 71.6309 178.002 71.4336 178.174 71.1836C178.346 70.9336 178.432 70.6719 178.432 70.3984C178.432 69.9883 178.352 69.6094 178.191 69.2617C178.031 68.9141 177.807 68.6406 177.518 68.4414C177.232 68.2422 176.904 68.1426 176.533 68.1426ZM185.574 69.1094L186.137 69.6895L184.074 71.7637L186.125 73.8262L185.562 74.4062L183.488 72.3496L181.449 74.4062L180.857 73.8262L182.908 71.7637L180.846 69.7012L181.432 69.1094L183.5 71.1895L185.574 69.1094ZM193.15 71.0898C193.15 74.4414 191.854 76.1172 189.26 76.1172C188.807 76.1172 188.447 76.0781 188.182 76V75.1621C188.494 75.2637 188.85 75.3145 189.248 75.3145C190.186 75.3145 190.893 75.0254 191.369 74.4473C191.85 73.8652 192.111 72.9746 192.154 71.7754H192.084C191.869 72.0996 191.584 72.3477 191.229 72.5195C190.873 72.6875 190.473 72.7715 190.027 72.7715C189.27 72.7715 188.668 72.5449 188.223 72.0918C187.777 71.6387 187.555 71.0059 187.555 70.1934C187.555 69.3027 187.803 68.5996 188.299 68.084C188.799 67.5684 189.455 67.3105 190.268 67.3105C190.85 67.3105 191.357 67.4609 191.791 67.7617C192.229 68.0586 192.564 68.4941 192.799 69.0684C193.033 69.6387 193.15 70.3125 193.15 71.0898ZM190.268 68.1426C189.709 68.1426 189.277 68.3223 188.973 68.6816C188.668 69.041 188.516 69.541 188.516 70.1816C188.516 70.7441 188.656 71.1875 188.938 71.5117C189.219 71.832 189.646 71.9922 190.221 71.9922C190.576 71.9922 190.902 71.9199 191.199 71.7754C191.5 71.6309 191.736 71.4336 191.908 71.1836C192.08 70.9336 192.166 70.6719 192.166 70.3984C192.166 69.9883 192.086 69.6094 191.926 69.2617C191.766 68.9141 191.541 68.6406 191.252 68.4414C190.967 68.2422 190.639 68.1426 190.268 68.1426Z" fill="black"/>
<line x1="276.9" y1="76.3615" x2="200.9" y2="55.3615" stroke="black" stroke-width="0.75" stroke-dasharray="2 3"/>
<line x1="196.991" y1="85.6251" x2="276.991" y2="83.6251" stroke="black" stroke-width="0.75" stroke-dasharray="2 3"/>
</svg>
