<svg width="695" height="184" viewBox="0 0 695 184" fill="none" xmlns="http://www.w3.org/2000/svg">
<path d="M8.5 125C8.5 126.512 9.4653 127.587 10.9198 128.335C12.3647 129.078 14.3867 129.556 16.7464 129.871C21.4742 130.501 27.7623 130.5 34 130.5C40.2623 130.5 46.4742 130.501 51.1214 131.121C53.4492 131.431 55.3335 131.891 56.6229 132.554C57.9028 133.212 58.5 134.012 58.5 135L59.5 135C59.5 133.488 58.5347 132.413 57.0802 131.665C55.6353 130.922 53.6133 130.444 51.2536 130.129C46.5258 129.499 40.2377 129.5 34 129.5C27.7377 129.5 21.5258 129.499 16.8786 128.879C14.5508 128.569 12.6665 128.109 11.3771 127.446C10.0972 126.788 9.5 125.988 9.5 125L8.5 125ZM108.5 125C108.5 125.988 107.903 126.788 106.623 127.446C105.333 128.109 103.449 128.569 101.121 128.879C96.4742 129.499 90.2623 129.5 84 129.5C77.7623 129.5 71.4742 129.499 66.7464 130.129C64.3867 130.444 62.3647 130.922 60.9198 131.665C59.4653 132.413 58.5 133.488 58.5 135L59.5 135C59.5 134.012 60.0972 133.212 61.3771 132.554C62.6665 131.891 64.5508 131.431 66.8786 131.121C71.5258 130.501 77.7377 130.5 84 130.5C90.2377 130.5 96.5258 130.501 101.254 129.871C103.613 129.556 105.635 129.078 107.08 128.335C108.535 127.587 109.5 126.512 109.5 125L108.5 125Z" fill="black"/>
<path d="M8.5 125C8.5 126.512 9.4653 127.587 10.9198 128.335C12.3647 129.078 14.3867 129.556 16.7464 129.871C21.4742 130.501 27.7623 130.5 34 130.5C40.2623 130.5 46.4742 130.501 51.1214 131.121C53.4492 131.431 55.3335 131.891 56.6229 132.554C57.9028 133.212 58.5 134.012 58.5 135L59.5 135C59.5 133.488 58.5347 132.413 57.0802 131.665C55.6353 130.922 53.6133 130.444 51.2536 130.129C46.5258 129.499 40.2377 129.5 34 129.5C27.7377 129.5 21.5258 129.499 16.8786 128.879C14.5508 128.569 12.6665 128.109 11.3771 127.446C10.0972 126.788 9.5 125.988 9.5 125L8.5 125ZM108.5 125C108.5 125.988 107.903 126.788 106.623 127.446C105.333 128.109 103.449 128.569 101.121 128.879C96.4742 129.499 90.2623 129.5 84 129.5C77.7623 129.5 71.4742 129.499 66.7464 130.129C64.3867 130.444 62.3647 130.922 60.9198 131.665C59.4653 132.413 58.5 133.488 58.5 135L59.5 135C59.5 134.012 60.0972 133.212 61.3771 132.554C62.6665 131.891 64.5508 131.431 66.8786 131.121C71.5258 130.501 77.7377 130.5 84 130.5C90.2377 130.5 96.5258 130.501 101.254 129.871C103.613 129.556 105.635 129.078 107.08 128.335C108.535 127.587 109.5 126.512 109.5 125L108.5 125Z" fill="black"/>
<path d="M58.0273 141.449C58.0273 141.996 57.873 142.443 57.5645 142.791C57.2598 143.139 56.8262 143.371 56.2637 143.488V143.535C56.9512 143.621 57.4609 143.84 57.793 144.191C58.125 144.543 58.291 145.004 58.291 145.574C58.291 146.391 58.0078 147.02 57.4414 147.461C56.875 147.898 56.0703 148.117 55.0273 148.117C54.5742 148.117 54.1582 148.082 53.7793 148.012C53.4043 147.945 53.0391 147.826 52.6836 147.654V146.729C53.0547 146.912 53.4492 147.053 53.8672 147.15C54.2891 147.244 54.6875 147.291 55.0625 147.291C56.543 147.291 57.2832 146.711 57.2832 145.551C57.2832 144.512 56.4668 143.992 54.834 143.992H53.9902V143.154H54.8457C55.5137 143.154 56.043 143.008 56.4336 142.715C56.8242 142.418 57.0195 142.008 57.0195 141.484C57.0195 141.066 56.875 140.738 56.5859 140.5C56.3008 140.262 55.9121 140.143 55.4199 140.143C55.0449 140.143 54.6914 140.193 54.3594 140.295C54.0273 140.396 53.6484 140.584 53.2227 140.857L52.7305 140.201C53.082 139.924 53.4863 139.707 53.9434 139.551C54.4043 139.391 54.8887 139.311 55.3965 139.311C56.2285 139.311 56.875 139.502 57.3359 139.885C57.7969 140.264 58.0273 140.785 58.0273 141.449ZM65.2168 148H59.5859V147.162L61.8418 144.895C62.5293 144.199 62.9824 143.703 63.2012 143.406C63.4199 143.109 63.584 142.82 63.6934 142.539C63.8027 142.258 63.8574 141.955 63.8574 141.631C63.8574 141.174 63.7188 140.812 63.4414 140.547C63.1641 140.277 62.7793 140.143 62.2871 140.143C61.9316 140.143 61.5938 140.201 61.2734 140.318C60.957 140.436 60.6035 140.648 60.2129 140.957L59.6973 140.295C60.4863 139.639 61.3457 139.311 62.2754 139.311C63.0801 139.311 63.7109 139.518 64.168 139.932C64.625 140.342 64.8535 140.895 64.8535 141.59C64.8535 142.133 64.7012 142.67 64.3965 143.201C64.0918 143.732 63.5215 144.404 62.6855 145.217L60.8105 147.051V147.098H65.2168V148Z" fill="black"/>
<path d="M43.4219 181V172.434H44.418V181H43.4219ZM54.8125 181V176.822C54.8125 176.311 54.7031 175.928 54.4844 175.674C54.2656 175.416 53.9258 175.287 53.4648 175.287C52.8594 175.287 52.4121 175.461 52.123 175.809C51.834 176.156 51.6895 176.691 51.6895 177.414V181H50.7168V176.822C50.7168 176.311 50.6074 175.928 50.3887 175.674C50.1699 175.416 49.8281 175.287 49.3633 175.287C48.7539 175.287 48.3066 175.471 48.0215 175.838C47.7402 176.201 47.5996 176.799 47.5996 177.631V181H46.627V174.578H47.418L47.5762 175.457H47.623C47.8066 175.145 48.0645 174.9 48.3965 174.725C48.7324 174.549 49.1074 174.461 49.5215 174.461C50.5254 174.461 51.1816 174.824 51.4902 175.551H51.5371C51.7285 175.215 52.0059 174.949 52.3691 174.754C52.7324 174.559 53.1465 174.461 53.6113 174.461C54.3379 174.461 54.8809 174.648 55.2402 175.023C55.6035 175.395 55.7852 175.99 55.7852 176.811V181H54.8125ZM61.7441 181L61.5508 180.086H61.5039C61.1836 180.488 60.8633 180.762 60.543 180.906C60.2266 181.047 59.8301 181.117 59.3535 181.117C58.7168 181.117 58.2168 180.953 57.8535 180.625C57.4941 180.297 57.3145 179.83 57.3145 179.225C57.3145 177.928 58.3516 177.248 60.4258 177.186L61.5156 177.15V176.752C61.5156 176.248 61.4062 175.877 61.1875 175.639C60.9727 175.396 60.627 175.275 60.1504 175.275C59.6152 175.275 59.0098 175.439 58.334 175.768L58.0352 175.023C58.3516 174.852 58.6973 174.717 59.0723 174.619C59.4512 174.521 59.8301 174.473 60.209 174.473C60.9746 174.473 61.541 174.643 61.9082 174.982C62.2793 175.322 62.4648 175.867 62.4648 176.617V181H61.7441ZM59.5469 180.314C60.1523 180.314 60.627 180.148 60.9707 179.816C61.3184 179.484 61.4922 179.02 61.4922 178.422V177.842L60.5195 177.883C59.7461 177.91 59.1875 178.031 58.8438 178.246C58.5039 178.457 58.334 178.787 58.334 179.236C58.334 179.588 58.4395 179.855 58.6504 180.039C58.8652 180.223 59.1641 180.314 59.5469 180.314ZM69.7305 174.578V175.193L68.541 175.334C68.6504 175.471 68.748 175.65 68.834 175.873C68.9199 176.092 68.9629 176.34 68.9629 176.617C68.9629 177.246 68.748 177.748 68.3184 178.123C67.8887 178.498 67.2988 178.686 66.5488 178.686C66.3574 178.686 66.1777 178.67 66.0098 178.639C65.5957 178.857 65.3887 179.133 65.3887 179.465C65.3887 179.641 65.4609 179.771 65.6055 179.857C65.75 179.939 65.998 179.98 66.3496 179.98H67.4863C68.1816 179.98 68.7148 180.127 69.0859 180.42C69.4609 180.713 69.6484 181.139 69.6484 181.697C69.6484 182.408 69.3633 182.949 68.793 183.32C68.2227 183.695 67.3906 183.883 66.2969 183.883C65.457 183.883 64.8086 183.727 64.3516 183.414C63.8984 183.102 63.6719 182.66 63.6719 182.09C63.6719 181.699 63.7969 181.361 64.0469 181.076C64.2969 180.791 64.6484 180.598 65.1016 180.496C64.9375 180.422 64.7988 180.307 64.6855 180.15C64.5762 179.994 64.5215 179.812 64.5215 179.605C64.5215 179.371 64.584 179.166 64.709 178.99C64.834 178.814 65.0312 178.645 65.3008 178.48C64.9688 178.344 64.6973 178.111 64.4863 177.783C64.2793 177.455 64.1758 177.08 64.1758 176.658C64.1758 175.955 64.3867 175.414 64.8086 175.035C65.2305 174.652 65.8281 174.461 66.6016 174.461C66.9375 174.461 67.2402 174.5 67.5098 174.578H69.7305ZM64.6094 182.078C64.6094 182.426 64.7559 182.689 65.0488 182.869C65.3418 183.049 65.7617 183.139 66.3086 183.139C67.125 183.139 67.7285 183.016 68.1191 182.77C68.5137 182.527 68.7109 182.197 68.7109 181.779C68.7109 181.432 68.6035 181.189 68.3887 181.053C68.1738 180.92 67.7695 180.854 67.1758 180.854H66.0098C65.5684 180.854 65.2246 180.959 64.9785 181.17C64.7324 181.381 64.6094 181.684 64.6094 182.078ZM65.1367 176.635C65.1367 177.084 65.2637 177.424 65.5176 177.654C65.7715 177.885 66.125 178 66.5781 178C67.5273 178 68.002 177.539 68.002 176.617C68.002 175.652 67.5215 175.17 66.5605 175.17C66.1035 175.17 65.752 175.293 65.5059 175.539C65.2598 175.785 65.1367 176.15 65.1367 176.635ZM73.7617 181.117C72.8125 181.117 72.0625 180.828 71.5117 180.25C70.9648 179.672 70.6914 178.869 70.6914 177.842C70.6914 176.807 70.9453 175.984 71.4531 175.375C71.9648 174.766 72.6504 174.461 73.5098 174.461C74.3145 174.461 74.9512 174.727 75.4199 175.258C75.8887 175.785 76.123 176.482 76.123 177.35V177.965H71.6992C71.7188 178.719 71.9082 179.291 72.2676 179.682C72.6309 180.072 73.1406 180.268 73.7969 180.268C74.4883 180.268 75.1719 180.123 75.8477 179.834V180.701C75.5039 180.85 75.1777 180.955 74.8691 181.018C74.5645 181.084 74.1953 181.117 73.7617 181.117ZM73.498 175.275C72.9824 175.275 72.5703 175.443 72.2617 175.779C71.957 176.115 71.7773 176.58 71.7227 177.174H75.0801C75.0801 176.561 74.9434 176.092 74.6699 175.768C74.3965 175.439 74.0059 175.275 73.498 175.275Z" fill="black"/>
<path d="M151.125 173.201C150.184 173.201 149.439 173.516 148.893 174.145C148.35 174.77 148.078 175.627 148.078 176.717C148.078 177.838 148.34 178.705 148.863 179.318C149.391 179.928 150.141 180.232 151.113 180.232C151.711 180.232 152.393 180.125 153.158 179.91V180.783C152.564 181.006 151.832 181.117 150.961 181.117C149.699 181.117 148.725 180.734 148.037 179.969C147.354 179.203 147.012 178.115 147.012 176.705C147.012 175.822 147.176 175.049 147.504 174.385C147.836 173.721 148.312 173.209 148.934 172.85C149.559 172.49 150.293 172.311 151.137 172.311C152.035 172.311 152.82 172.475 153.492 172.803L153.07 173.658C152.422 173.354 151.773 173.201 151.125 173.201ZM160.424 177.783C160.424 178.83 160.16 179.648 159.633 180.238C159.105 180.824 158.377 181.117 157.447 181.117C156.873 181.117 156.363 180.982 155.918 180.713C155.473 180.443 155.129 180.057 154.887 179.553C154.645 179.049 154.523 178.459 154.523 177.783C154.523 176.736 154.785 175.922 155.309 175.34C155.832 174.754 156.559 174.461 157.488 174.461C158.387 174.461 159.1 174.76 159.627 175.357C160.158 175.955 160.424 176.764 160.424 177.783ZM155.531 177.783C155.531 178.604 155.695 179.229 156.023 179.658C156.352 180.088 156.834 180.303 157.471 180.303C158.107 180.303 158.59 180.09 158.918 179.664C159.25 179.234 159.416 178.607 159.416 177.783C159.416 176.967 159.25 176.348 158.918 175.926C158.59 175.5 158.104 175.287 157.459 175.287C156.822 175.287 156.342 175.496 156.018 175.914C155.693 176.332 155.531 176.955 155.531 177.783ZM166.529 181V176.846C166.529 176.322 166.41 175.932 166.172 175.674C165.934 175.416 165.561 175.287 165.053 175.287C164.381 175.287 163.889 175.469 163.576 175.832C163.264 176.195 163.107 176.795 163.107 177.631V181H162.135V174.578H162.926L163.084 175.457H163.131C163.33 175.141 163.609 174.896 163.969 174.725C164.328 174.549 164.729 174.461 165.17 174.461C165.943 174.461 166.525 174.648 166.916 175.023C167.307 175.395 167.502 175.99 167.502 176.811V181H166.529ZM170.912 181L168.475 174.578H169.518L170.9 178.387C171.213 179.277 171.396 179.855 171.451 180.121H171.498C171.541 179.914 171.676 179.486 171.902 178.838C172.133 178.186 172.646 176.766 173.443 174.578H174.486L172.049 181H170.912ZM181.43 176.365H183.844V177.174H181.43V179.67H180.615V177.174H178.213V176.365H180.615V173.857H181.43V176.365ZM189.762 177.438V181H188.766V172.434H191.115C192.166 172.434 192.941 172.635 193.441 173.037C193.945 173.439 194.197 174.045 194.197 174.854C194.197 175.986 193.623 176.752 192.475 177.15L194.801 181H193.623L191.549 177.438H189.762ZM189.762 176.582H191.127C191.83 176.582 192.346 176.443 192.674 176.166C193.002 175.885 193.166 175.465 193.166 174.906C193.166 174.34 192.998 173.932 192.662 173.682C192.33 173.432 191.795 173.307 191.057 173.307H189.762V176.582ZM198.75 181.117C197.801 181.117 197.051 180.828 196.5 180.25C195.953 179.672 195.68 178.869 195.68 177.842C195.68 176.807 195.934 175.984 196.441 175.375C196.953 174.766 197.639 174.461 198.498 174.461C199.303 174.461 199.939 174.727 200.408 175.258C200.877 175.785 201.111 176.482 201.111 177.35V177.965H196.688C196.707 178.719 196.896 179.291 197.256 179.682C197.619 180.072 198.129 180.268 198.785 180.268C199.477 180.268 200.16 180.123 200.836 179.834V180.701C200.492 180.85 200.166 180.955 199.857 181.018C199.553 181.084 199.184 181.117 198.75 181.117ZM198.486 175.275C197.971 175.275 197.559 175.443 197.25 175.779C196.945 176.115 196.766 176.58 196.711 177.174H200.068C200.068 176.561 199.932 176.092 199.658 175.768C199.385 175.439 198.994 175.275 198.486 175.275ZM202.922 181V172.434H203.918V180.098H207.697V181H202.922ZM215.625 172.434V177.977C215.625 178.953 215.33 179.721 214.74 180.279C214.15 180.838 213.34 181.117 212.309 181.117C211.277 181.117 210.479 180.836 209.912 180.273C209.35 179.711 209.068 178.938 209.068 177.953V172.434H210.064V178.023C210.064 178.738 210.26 179.287 210.65 179.67C211.041 180.053 211.615 180.244 212.373 180.244C213.096 180.244 213.652 180.053 214.043 179.67C214.434 179.283 214.629 178.73 214.629 178.012V172.434H215.625Z" fill="black"/>
<path d="M283.242 173.201C282.301 173.201 281.557 173.516 281.01 174.145C280.467 174.77 280.195 175.627 280.195 176.717C280.195 177.838 280.457 178.705 280.98 179.318C281.508 179.928 282.258 180.232 283.23 180.232C283.828 180.232 284.51 180.125 285.275 179.91V180.783C284.682 181.006 283.949 181.117 283.078 181.117C281.816 181.117 280.842 180.734 280.154 179.969C279.471 179.203 279.129 178.115 279.129 176.705C279.129 175.822 279.293 175.049 279.621 174.385C279.953 173.721 280.43 173.209 281.051 172.85C281.676 172.49 282.41 172.311 283.254 172.311C284.152 172.311 284.938 172.475 285.609 172.803L285.188 173.658C284.539 173.354 283.891 173.201 283.242 173.201ZM292.541 177.783C292.541 178.83 292.277 179.648 291.75 180.238C291.223 180.824 290.494 181.117 289.564 181.117C288.99 181.117 288.48 180.982 288.035 180.713C287.59 180.443 287.246 180.057 287.004 179.553C286.762 179.049 286.641 178.459 286.641 177.783C286.641 176.736 286.902 175.922 287.426 175.34C287.949 174.754 288.676 174.461 289.605 174.461C290.504 174.461 291.217 174.76 291.744 175.357C292.275 175.955 292.541 176.764 292.541 177.783ZM287.648 177.783C287.648 178.604 287.812 179.229 288.141 179.658C288.469 180.088 288.951 180.303 289.588 180.303C290.225 180.303 290.707 180.09 291.035 179.664C291.367 179.234 291.533 178.607 291.533 177.783C291.533 176.967 291.367 176.348 291.035 175.926C290.707 175.5 290.221 175.287 289.576 175.287C288.939 175.287 288.459 175.496 288.135 175.914C287.811 176.332 287.648 176.955 287.648 177.783ZM298.646 181V176.846C298.646 176.322 298.527 175.932 298.289 175.674C298.051 175.416 297.678 175.287 297.17 175.287C296.498 175.287 296.006 175.469 295.693 175.832C295.381 176.195 295.225 176.795 295.225 177.631V181H294.252V174.578H295.043L295.201 175.457H295.248C295.447 175.141 295.727 174.896 296.086 174.725C296.445 174.549 296.846 174.461 297.287 174.461C298.061 174.461 298.643 174.648 299.033 175.023C299.424 175.395 299.619 175.99 299.619 176.811V181H298.646ZM303.029 181L300.592 174.578H301.635L303.018 178.387C303.33 179.277 303.514 179.855 303.568 180.121H303.615C303.658 179.914 303.793 179.486 304.02 178.838C304.25 178.186 304.764 176.766 305.561 174.578H306.604L304.166 181H303.029Z" fill="black"/>
<path d="M374.557 177.438V181H373.561V172.434H375.91C376.961 172.434 377.736 172.635 378.236 173.037C378.74 173.439 378.992 174.045 378.992 174.854C378.992 175.986 378.418 176.752 377.27 177.15L379.596 181H378.418L376.344 177.438H374.557ZM374.557 176.582H375.922C376.625 176.582 377.141 176.443 377.469 176.166C377.797 175.885 377.961 175.465 377.961 174.906C377.961 174.34 377.793 173.932 377.457 173.682C377.125 173.432 376.59 173.307 375.852 173.307H374.557V176.582ZM383.545 181.117C382.596 181.117 381.846 180.828 381.295 180.25C380.748 179.672 380.475 178.869 380.475 177.842C380.475 176.807 380.729 175.984 381.236 175.375C381.748 174.766 382.434 174.461 383.293 174.461C384.098 174.461 384.734 174.727 385.203 175.258C385.672 175.785 385.906 176.482 385.906 177.35V177.965H381.482C381.502 178.719 381.691 179.291 382.051 179.682C382.414 180.072 382.924 180.268 383.58 180.268C384.271 180.268 384.955 180.123 385.631 179.834V180.701C385.287 180.85 384.961 180.955 384.652 181.018C384.348 181.084 383.979 181.117 383.545 181.117ZM383.281 175.275C382.766 175.275 382.354 175.443 382.045 175.779C381.74 176.115 381.561 176.58 381.506 177.174H384.863C384.863 176.561 384.727 176.092 384.453 175.768C384.18 175.439 383.789 175.275 383.281 175.275ZM391.713 179.248C391.713 179.846 391.49 180.307 391.045 180.631C390.6 180.955 389.975 181.117 389.17 181.117C388.318 181.117 387.654 180.982 387.178 180.713V179.811C387.486 179.967 387.816 180.09 388.168 180.18C388.523 180.27 388.865 180.314 389.193 180.314C389.701 180.314 390.092 180.234 390.365 180.074C390.639 179.91 390.775 179.662 390.775 179.33C390.775 179.08 390.666 178.867 390.447 178.691C390.232 178.512 389.811 178.301 389.182 178.059C388.584 177.836 388.158 177.643 387.904 177.479C387.654 177.311 387.467 177.121 387.342 176.91C387.221 176.699 387.16 176.447 387.16 176.154C387.16 175.631 387.373 175.219 387.799 174.918C388.225 174.613 388.809 174.461 389.551 174.461C390.242 174.461 390.918 174.602 391.578 174.883L391.232 175.674C390.588 175.408 390.004 175.275 389.48 175.275C389.02 175.275 388.672 175.348 388.438 175.492C388.203 175.637 388.086 175.836 388.086 176.09C388.086 176.262 388.129 176.408 388.215 176.529C388.305 176.65 388.447 176.766 388.643 176.875C388.838 176.984 389.213 177.143 389.768 177.35C390.529 177.627 391.043 177.906 391.309 178.188C391.578 178.469 391.713 178.822 391.713 179.248ZM397.695 181V176.846C397.695 176.322 397.576 175.932 397.338 175.674C397.1 175.416 396.727 175.287 396.219 175.287C395.543 175.287 395.049 175.471 394.736 175.838C394.428 176.205 394.273 176.807 394.273 177.643V181H393.301V171.883H394.273V174.643C394.273 174.975 394.258 175.25 394.227 175.469H394.285C394.477 175.16 394.748 174.918 395.1 174.742C395.455 174.562 395.859 174.473 396.312 174.473C397.098 174.473 397.686 174.66 398.076 175.035C398.471 175.406 398.668 175.998 398.668 176.811V181H397.695ZM404.621 181L404.428 180.086H404.381C404.061 180.488 403.74 180.762 403.42 180.906C403.104 181.047 402.707 181.117 402.23 181.117C401.594 181.117 401.094 180.953 400.73 180.625C400.371 180.297 400.191 179.83 400.191 179.225C400.191 177.928 401.229 177.248 403.303 177.186L404.393 177.15V176.752C404.393 176.248 404.283 175.877 404.064 175.639C403.85 175.396 403.504 175.275 403.027 175.275C402.492 175.275 401.887 175.439 401.211 175.768L400.912 175.023C401.229 174.852 401.574 174.717 401.949 174.619C402.328 174.521 402.707 174.473 403.086 174.473C403.852 174.473 404.418 174.643 404.785 174.982C405.156 175.322 405.342 175.867 405.342 176.617V181H404.621ZM402.424 180.314C403.029 180.314 403.504 180.148 403.848 179.816C404.195 179.484 404.369 179.02 404.369 178.422V177.842L403.396 177.883C402.623 177.91 402.064 178.031 401.721 178.246C401.381 178.457 401.211 178.787 401.211 179.236C401.211 179.588 401.316 179.855 401.527 180.039C401.742 180.223 402.041 180.314 402.424 180.314ZM410.34 181.117C409.922 181.117 409.539 181.041 409.191 180.889C408.848 180.732 408.559 180.494 408.324 180.174H408.254C408.301 180.549 408.324 180.904 408.324 181.24V183.883H407.352V174.578H408.143L408.277 175.457H408.324C408.574 175.105 408.865 174.852 409.197 174.695C409.529 174.539 409.91 174.461 410.34 174.461C411.191 174.461 411.848 174.752 412.309 175.334C412.773 175.916 413.006 176.732 413.006 177.783C413.006 178.838 412.77 179.658 412.297 180.244C411.828 180.826 411.176 181.117 410.34 181.117ZM410.199 175.287C409.543 175.287 409.068 175.469 408.775 175.832C408.482 176.195 408.332 176.773 408.324 177.566V177.783C408.324 178.686 408.475 179.332 408.775 179.723C409.076 180.109 409.559 180.303 410.223 180.303C410.777 180.303 411.211 180.078 411.523 179.629C411.84 179.18 411.998 178.561 411.998 177.771C411.998 176.971 411.84 176.357 411.523 175.932C411.211 175.502 410.77 175.287 410.199 175.287ZM417.424 181.117C416.475 181.117 415.725 180.828 415.174 180.25C414.627 179.672 414.354 178.869 414.354 177.842C414.354 176.807 414.607 175.984 415.115 175.375C415.627 174.766 416.312 174.461 417.172 174.461C417.977 174.461 418.613 174.727 419.082 175.258C419.551 175.785 419.785 176.482 419.785 177.35V177.965H415.361C415.381 178.719 415.57 179.291 415.93 179.682C416.293 180.072 416.803 180.268 417.459 180.268C418.15 180.268 418.834 180.123 419.51 179.834V180.701C419.166 180.85 418.84 180.955 418.531 181.018C418.227 181.084 417.857 181.117 417.424 181.117ZM417.16 175.275C416.645 175.275 416.232 175.443 415.924 175.779C415.619 176.115 415.439 176.58 415.385 177.174H418.742C418.742 176.561 418.605 176.092 418.332 175.768C418.059 175.439 417.668 175.275 417.16 175.275ZM427.361 176.365H429.775V177.174H427.361V179.67H426.547V177.174H424.145V176.365H426.547V173.857H427.361V176.365ZM439.531 178.721C439.531 179.475 439.258 180.062 438.711 180.484C438.164 180.906 437.422 181.117 436.484 181.117C435.469 181.117 434.688 180.986 434.141 180.725V179.764C434.492 179.912 434.875 180.029 435.289 180.115C435.703 180.201 436.113 180.244 436.52 180.244C437.184 180.244 437.684 180.119 438.02 179.869C438.355 179.615 438.523 179.264 438.523 178.814C438.523 178.518 438.463 178.275 438.342 178.088C438.225 177.896 438.025 177.721 437.744 177.561C437.467 177.4 437.043 177.219 436.473 177.016C435.676 176.73 435.105 176.393 434.762 176.002C434.422 175.611 434.252 175.102 434.252 174.473C434.252 173.812 434.5 173.287 434.996 172.896C435.492 172.506 436.148 172.311 436.965 172.311C437.816 172.311 438.6 172.467 439.314 172.779L439.004 173.646C438.297 173.35 437.609 173.201 436.941 173.201C436.414 173.201 436.002 173.314 435.705 173.541C435.408 173.768 435.26 174.082 435.26 174.484C435.26 174.781 435.314 175.025 435.424 175.217C435.533 175.404 435.717 175.578 435.975 175.738C436.236 175.895 436.635 176.068 437.17 176.26C438.068 176.58 438.686 176.924 439.021 177.291C439.361 177.658 439.531 178.135 439.531 178.721ZM443.562 180.303C444.211 180.303 444.684 180.129 444.98 179.781C445.277 179.434 445.436 178.848 445.455 178.023V177.807C445.455 176.908 445.303 176.262 444.998 175.867C444.693 175.473 444.211 175.275 443.551 175.275C442.98 175.275 442.543 175.498 442.238 175.943C441.938 176.385 441.787 177.01 441.787 177.818C441.787 178.627 441.936 179.244 442.232 179.67C442.533 180.092 442.977 180.303 443.562 180.303ZM443.416 181.117C442.588 181.117 441.941 180.826 441.477 180.244C441.012 179.662 440.779 178.85 440.779 177.807C440.779 176.756 441.014 175.936 441.482 175.346C441.951 174.756 442.604 174.461 443.439 174.461C444.318 174.461 444.994 174.793 445.467 175.457H445.52L445.66 174.578H446.428V183.883H445.455V181.135C445.455 180.744 445.477 180.412 445.52 180.139H445.443C444.994 180.791 444.318 181.117 443.416 181.117ZM449.41 174.578V178.744C449.41 179.268 449.529 179.658 449.768 179.916C450.006 180.174 450.379 180.303 450.887 180.303C451.559 180.303 452.049 180.119 452.357 179.752C452.67 179.385 452.826 178.785 452.826 177.953V174.578H453.799V181H452.996L452.855 180.139H452.803C452.604 180.455 452.326 180.697 451.971 180.865C451.619 181.033 451.217 181.117 450.764 181.117C449.982 181.117 449.396 180.932 449.006 180.561C448.619 180.189 448.426 179.596 448.426 178.779V174.578H449.41ZM459.816 181L459.623 180.086H459.576C459.256 180.488 458.936 180.762 458.615 180.906C458.299 181.047 457.902 181.117 457.426 181.117C456.789 181.117 456.289 180.953 455.926 180.625C455.566 180.297 455.387 179.83 455.387 179.225C455.387 177.928 456.424 177.248 458.498 177.186L459.588 177.15V176.752C459.588 176.248 459.479 175.877 459.26 175.639C459.045 175.396 458.699 175.275 458.223 175.275C457.688 175.275 457.082 175.439 456.406 175.768L456.107 175.023C456.424 174.852 456.77 174.717 457.145 174.619C457.523 174.521 457.902 174.473 458.281 174.473C459.047 174.473 459.613 174.643 459.98 174.982C460.352 175.322 460.537 175.867 460.537 176.617V181H459.816ZM457.619 180.314C458.225 180.314 458.699 180.148 459.043 179.816C459.391 179.484 459.564 179.02 459.564 178.422V177.842L458.592 177.883C457.818 177.91 457.26 178.031 456.916 178.246C456.576 178.457 456.406 178.787 456.406 179.236C456.406 179.588 456.512 179.855 456.723 180.039C456.938 180.223 457.236 180.314 457.619 180.314ZM466.689 179.248C466.689 179.846 466.467 180.307 466.021 180.631C465.576 180.955 464.951 181.117 464.146 181.117C463.295 181.117 462.631 180.982 462.154 180.713V179.811C462.463 179.967 462.793 180.09 463.145 180.18C463.5 180.27 463.842 180.314 464.17 180.314C464.678 180.314 465.068 180.234 465.342 180.074C465.615 179.91 465.752 179.662 465.752 179.33C465.752 179.08 465.643 178.867 465.424 178.691C465.209 178.512 464.787 178.301 464.158 178.059C463.561 177.836 463.135 177.643 462.881 177.479C462.631 177.311 462.443 177.121 462.318 176.91C462.197 176.699 462.137 176.447 462.137 176.154C462.137 175.631 462.35 175.219 462.775 174.918C463.201 174.613 463.785 174.461 464.527 174.461C465.219 174.461 465.895 174.602 466.555 174.883L466.209 175.674C465.564 175.408 464.98 175.275 464.457 175.275C463.996 175.275 463.648 175.348 463.414 175.492C463.18 175.637 463.062 175.836 463.062 176.09C463.062 176.262 463.105 176.408 463.191 176.529C463.281 176.65 463.424 176.766 463.619 176.875C463.814 176.984 464.189 177.143 464.744 177.35C465.506 177.627 466.02 177.906 466.285 178.188C466.555 178.469 466.689 178.822 466.689 179.248ZM472.672 181V176.846C472.672 176.322 472.553 175.932 472.314 175.674C472.076 175.416 471.703 175.287 471.195 175.287C470.52 175.287 470.025 175.471 469.713 175.838C469.404 176.205 469.25 176.807 469.25 177.643V181H468.277V171.883H469.25V174.643C469.25 174.975 469.234 175.25 469.203 175.469H469.262C469.453 175.16 469.725 174.918 470.076 174.742C470.432 174.562 470.836 174.473 471.289 174.473C472.074 174.473 472.662 174.66 473.053 175.035C473.447 175.406 473.645 175.998 473.645 176.811V181H472.672Z" fill="black"/>
<path d="M504.252 181V172.434H505.248V181H504.252ZM515.643 181V176.822C515.643 176.311 515.533 175.928 515.314 175.674C515.096 175.416 514.756 175.287 514.295 175.287C513.689 175.287 513.242 175.461 512.953 175.809C512.664 176.156 512.52 176.691 512.52 177.414V181H511.547V176.822C511.547 176.311 511.438 175.928 511.219 175.674C511 175.416 510.658 175.287 510.193 175.287C509.584 175.287 509.137 175.471 508.852 175.838C508.57 176.201 508.43 176.799 508.43 177.631V181H507.457V174.578H508.248L508.406 175.457H508.453C508.637 175.145 508.895 174.9 509.227 174.725C509.562 174.549 509.938 174.461 510.352 174.461C511.355 174.461 512.012 174.824 512.32 175.551H512.367C512.559 175.215 512.836 174.949 513.199 174.754C513.562 174.559 513.977 174.461 514.441 174.461C515.168 174.461 515.711 174.648 516.07 175.023C516.434 175.395 516.615 175.99 516.615 176.811V181H515.643ZM522.574 181L522.381 180.086H522.334C522.014 180.488 521.693 180.762 521.373 180.906C521.057 181.047 520.66 181.117 520.184 181.117C519.547 181.117 519.047 180.953 518.684 180.625C518.324 180.297 518.145 179.83 518.145 179.225C518.145 177.928 519.182 177.248 521.256 177.186L522.346 177.15V176.752C522.346 176.248 522.236 175.877 522.018 175.639C521.803 175.396 521.457 175.275 520.98 175.275C520.445 175.275 519.84 175.439 519.164 175.768L518.865 175.023C519.182 174.852 519.527 174.717 519.902 174.619C520.281 174.521 520.66 174.473 521.039 174.473C521.805 174.473 522.371 174.643 522.738 174.982C523.109 175.322 523.295 175.867 523.295 176.617V181H522.574ZM520.377 180.314C520.982 180.314 521.457 180.148 521.801 179.816C522.148 179.484 522.322 179.02 522.322 178.422V177.842L521.35 177.883C520.576 177.91 520.018 178.031 519.674 178.246C519.334 178.457 519.164 178.787 519.164 179.236C519.164 179.588 519.27 179.855 519.48 180.039C519.695 180.223 519.994 180.314 520.377 180.314ZM530.561 174.578V175.193L529.371 175.334C529.48 175.471 529.578 175.65 529.664 175.873C529.75 176.092 529.793 176.34 529.793 176.617C529.793 177.246 529.578 177.748 529.148 178.123C528.719 178.498 528.129 178.686 527.379 178.686C527.188 178.686 527.008 178.67 526.84 178.639C526.426 178.857 526.219 179.133 526.219 179.465C526.219 179.641 526.291 179.771 526.436 179.857C526.58 179.939 526.828 179.98 527.18 179.98H528.316C529.012 179.98 529.545 180.127 529.916 180.42C530.291 180.713 530.479 181.139 530.479 181.697C530.479 182.408 530.193 182.949 529.623 183.32C529.053 183.695 528.221 183.883 527.127 183.883C526.287 183.883 525.639 183.727 525.182 183.414C524.729 183.102 524.502 182.66 524.502 182.09C524.502 181.699 524.627 181.361 524.877 181.076C525.127 180.791 525.479 180.598 525.932 180.496C525.768 180.422 525.629 180.307 525.516 180.15C525.406 179.994 525.352 179.812 525.352 179.605C525.352 179.371 525.414 179.166 525.539 178.99C525.664 178.814 525.861 178.645 526.131 178.48C525.799 178.344 525.527 178.111 525.316 177.783C525.109 177.455 525.006 177.08 525.006 176.658C525.006 175.955 525.217 175.414 525.639 175.035C526.061 174.652 526.658 174.461 527.432 174.461C527.768 174.461 528.07 174.5 528.34 174.578H530.561ZM525.439 182.078C525.439 182.426 525.586 182.689 525.879 182.869C526.172 183.049 526.592 183.139 527.139 183.139C527.955 183.139 528.559 183.016 528.949 182.77C529.344 182.527 529.541 182.197 529.541 181.779C529.541 181.432 529.434 181.189 529.219 181.053C529.004 180.92 528.6 180.854 528.006 180.854H526.84C526.398 180.854 526.055 180.959 525.809 181.17C525.562 181.381 525.439 181.684 525.439 182.078ZM525.967 176.635C525.967 177.084 526.094 177.424 526.348 177.654C526.602 177.885 526.955 178 527.408 178C528.357 178 528.832 177.539 528.832 176.617C528.832 175.652 528.352 175.17 527.391 175.17C526.934 175.17 526.582 175.293 526.336 175.539C526.09 175.785 525.967 176.15 525.967 176.635ZM534.592 181.117C533.643 181.117 532.893 180.828 532.342 180.25C531.795 179.672 531.521 178.869 531.521 177.842C531.521 176.807 531.775 175.984 532.283 175.375C532.795 174.766 533.48 174.461 534.34 174.461C535.145 174.461 535.781 174.727 536.25 175.258C536.719 175.785 536.953 176.482 536.953 177.35V177.965H532.529C532.549 178.719 532.738 179.291 533.098 179.682C533.461 180.072 533.971 180.268 534.627 180.268C535.318 180.268 536.002 180.123 536.678 179.834V180.701C536.334 180.85 536.008 180.955 535.699 181.018C535.395 181.084 535.025 181.117 534.592 181.117ZM534.328 175.275C533.812 175.275 533.4 175.443 533.092 175.779C532.787 176.115 532.607 176.58 532.553 177.174H535.91C535.91 176.561 535.773 176.092 535.5 175.768C535.227 175.439 534.836 175.275 534.328 175.275ZM542.432 173.201C541.49 173.201 540.746 173.516 540.199 174.145C539.656 174.77 539.385 175.627 539.385 176.717C539.385 177.838 539.646 178.705 540.17 179.318C540.697 179.928 541.447 180.232 542.42 180.232C543.018 180.232 543.699 180.125 544.465 179.91V180.783C543.871 181.006 543.139 181.117 542.268 181.117C541.006 181.117 540.031 180.734 539.344 179.969C538.66 179.203 538.318 178.115 538.318 176.705C538.318 175.822 538.482 175.049 538.811 174.385C539.143 173.721 539.619 173.209 540.24 172.85C540.865 172.49 541.6 172.311 542.443 172.311C543.342 172.311 544.127 172.475 544.799 172.803L544.377 173.658C543.729 173.354 543.08 173.201 542.432 173.201ZM550.137 181L549.943 180.086H549.896C549.576 180.488 549.256 180.762 548.936 180.906C548.619 181.047 548.223 181.117 547.746 181.117C547.109 181.117 546.609 180.953 546.246 180.625C545.887 180.297 545.707 179.83 545.707 179.225C545.707 177.928 546.744 177.248 548.818 177.186L549.908 177.15V176.752C549.908 176.248 549.799 175.877 549.58 175.639C549.365 175.396 549.02 175.275 548.543 175.275C548.008 175.275 547.402 175.439 546.727 175.768L546.428 175.023C546.744 174.852 547.09 174.717 547.465 174.619C547.844 174.521 548.223 174.473 548.602 174.473C549.367 174.473 549.934 174.643 550.301 174.982C550.672 175.322 550.857 175.867 550.857 176.617V181H550.137ZM547.939 180.314C548.545 180.314 549.02 180.148 549.363 179.816C549.711 179.484 549.885 179.02 549.885 178.422V177.842L548.912 177.883C548.139 177.91 547.58 178.031 547.236 178.246C546.896 178.457 546.727 178.787 546.727 179.236C546.727 179.588 546.832 179.855 547.043 180.039C547.258 180.223 547.557 180.314 547.939 180.314ZM555.855 181.117C555.438 181.117 555.055 181.041 554.707 180.889C554.363 180.732 554.074 180.494 553.84 180.174H553.77C553.816 180.549 553.84 180.904 553.84 181.24V183.883H552.867V174.578H553.658L553.793 175.457H553.84C554.09 175.105 554.381 174.852 554.713 174.695C555.045 174.539 555.426 174.461 555.855 174.461C556.707 174.461 557.363 174.752 557.824 175.334C558.289 175.916 558.521 176.732 558.521 177.783C558.521 178.838 558.285 179.658 557.812 180.244C557.344 180.826 556.691 181.117 555.855 181.117ZM555.715 175.287C555.059 175.287 554.584 175.469 554.291 175.832C553.998 176.195 553.848 176.773 553.84 177.566V177.783C553.84 178.686 553.99 179.332 554.291 179.723C554.592 180.109 555.074 180.303 555.738 180.303C556.293 180.303 556.727 180.078 557.039 179.629C557.355 179.18 557.514 178.561 557.514 177.771C557.514 176.971 557.355 176.357 557.039 175.932C556.727 175.502 556.285 175.287 555.715 175.287ZM564.369 179.248C564.369 179.846 564.146 180.307 563.701 180.631C563.256 180.955 562.631 181.117 561.826 181.117C560.975 181.117 560.311 180.982 559.834 180.713V179.811C560.143 179.967 560.473 180.09 560.824 180.18C561.18 180.27 561.521 180.314 561.85 180.314C562.357 180.314 562.748 180.234 563.021 180.074C563.295 179.91 563.432 179.662 563.432 179.33C563.432 179.08 563.322 178.867 563.104 178.691C562.889 178.512 562.467 178.301 561.838 178.059C561.24 177.836 560.814 177.643 560.561 177.479C560.311 177.311 560.123 177.121 559.998 176.91C559.877 176.699 559.816 176.447 559.816 176.154C559.816 175.631 560.029 175.219 560.455 174.918C560.881 174.613 561.465 174.461 562.207 174.461C562.898 174.461 563.574 174.602 564.234 174.883L563.889 175.674C563.244 175.408 562.66 175.275 562.137 175.275C561.676 175.275 561.328 175.348 561.094 175.492C560.859 175.637 560.742 175.836 560.742 176.09C560.742 176.262 560.785 176.408 560.871 176.529C560.961 176.65 561.104 176.766 561.299 176.875C561.494 176.984 561.869 177.143 562.424 177.35C563.186 177.627 563.699 177.906 563.965 178.188C564.234 178.469 564.369 178.822 564.369 179.248Z" fill="black"/>
<path d="M622.254 173.201C621.312 173.201 620.568 173.516 620.021 174.145C619.479 174.77 619.207 175.627 619.207 176.717C619.207 177.838 619.469 178.705 619.992 179.318C620.52 179.928 621.27 180.232 622.242 180.232C622.84 180.232 623.521 180.125 624.287 179.91V180.783C623.693 181.006 622.961 181.117 622.09 181.117C620.828 181.117 619.854 180.734 619.166 179.969C618.482 179.203 618.141 178.115 618.141 176.705C618.141 175.822 618.305 175.049 618.633 174.385C618.965 173.721 619.441 173.209 620.062 172.85C620.688 172.49 621.422 172.311 622.266 172.311C623.164 172.311 623.949 172.475 624.621 172.803L624.199 173.658C623.551 173.354 622.902 173.201 622.254 173.201ZM626.982 181H626.01V171.883H626.982V181ZM632.994 181L632.801 180.086H632.754C632.434 180.488 632.113 180.762 631.793 180.906C631.477 181.047 631.08 181.117 630.604 181.117C629.967 181.117 629.467 180.953 629.104 180.625C628.744 180.297 628.564 179.83 628.564 179.225C628.564 177.928 629.602 177.248 631.676 177.186L632.766 177.15V176.752C632.766 176.248 632.656 175.877 632.438 175.639C632.223 175.396 631.877 175.275 631.4 175.275C630.865 175.275 630.26 175.439 629.584 175.768L629.285 175.023C629.602 174.852 629.947 174.717 630.322 174.619C630.701 174.521 631.08 174.473 631.459 174.473C632.225 174.473 632.791 174.643 633.158 174.982C633.529 175.322 633.715 175.867 633.715 176.617V181H632.994ZM630.797 180.314C631.402 180.314 631.877 180.148 632.221 179.816C632.568 179.484 632.742 179.02 632.742 178.422V177.842L631.77 177.883C630.996 177.91 630.438 178.031 630.094 178.246C629.754 178.457 629.584 178.787 629.584 179.236C629.584 179.588 629.689 179.855 629.9 180.039C630.115 180.223 630.414 180.314 630.797 180.314ZM639.867 179.248C639.867 179.846 639.645 180.307 639.199 180.631C638.754 180.955 638.129 181.117 637.324 181.117C636.473 181.117 635.809 180.982 635.332 180.713V179.811C635.641 179.967 635.971 180.09 636.322 180.18C636.678 180.27 637.02 180.314 637.348 180.314C637.855 180.314 638.246 180.234 638.52 180.074C638.793 179.91 638.93 179.662 638.93 179.33C638.93 179.08 638.82 178.867 638.602 178.691C638.387 178.512 637.965 178.301 637.336 178.059C636.738 177.836 636.312 177.643 636.059 177.479C635.809 177.311 635.621 177.121 635.496 176.91C635.375 176.699 635.314 176.447 635.314 176.154C635.314 175.631 635.527 175.219 635.953 174.918C636.379 174.613 636.963 174.461 637.705 174.461C638.396 174.461 639.072 174.602 639.732 174.883L639.387 175.674C638.742 175.408 638.158 175.275 637.635 175.275C637.174 175.275 636.826 175.348 636.592 175.492C636.357 175.637 636.24 175.836 636.24 176.09C636.24 176.262 636.283 176.408 636.369 176.529C636.459 176.65 636.602 176.766 636.797 176.875C636.992 176.984 637.367 177.143 637.922 177.35C638.684 177.627 639.197 177.906 639.463 178.188C639.732 178.469 639.867 178.822 639.867 179.248ZM645.598 179.248C645.598 179.846 645.375 180.307 644.93 180.631C644.484 180.955 643.859 181.117 643.055 181.117C642.203 181.117 641.539 180.982 641.062 180.713V179.811C641.371 179.967 641.701 180.09 642.053 180.18C642.408 180.27 642.75 180.314 643.078 180.314C643.586 180.314 643.977 180.234 644.25 180.074C644.523 179.91 644.66 179.662 644.66 179.33C644.66 179.08 644.551 178.867 644.332 178.691C644.117 178.512 643.695 178.301 643.066 178.059C642.469 177.836 642.043 177.643 641.789 177.479C641.539 177.311 641.352 177.121 641.227 176.91C641.105 176.699 641.045 176.447 641.045 176.154C641.045 175.631 641.258 175.219 641.684 174.918C642.109 174.613 642.693 174.461 643.436 174.461C644.127 174.461 644.803 174.602 645.463 174.883L645.117 175.674C644.473 175.408 643.889 175.275 643.365 175.275C642.904 175.275 642.557 175.348 642.322 175.492C642.088 175.637 641.971 175.836 641.971 176.09C641.971 176.262 642.014 176.408 642.1 176.529C642.189 176.65 642.332 176.766 642.527 176.875C642.723 176.984 643.098 177.143 643.652 177.35C644.414 177.627 644.928 177.906 645.193 178.188C645.463 178.469 645.598 178.822 645.598 179.248ZM648.158 181H647.186V174.578H648.158V181ZM647.104 172.838C647.104 172.615 647.158 172.453 647.268 172.352C647.377 172.246 647.514 172.193 647.678 172.193C647.834 172.193 647.969 172.246 648.082 172.352C648.195 172.457 648.252 172.619 648.252 172.838C648.252 173.057 648.195 173.221 648.082 173.33C647.969 173.436 647.834 173.488 647.678 173.488C647.514 173.488 647.377 173.436 647.268 173.33C647.158 173.221 647.104 173.057 647.104 172.838ZM653.115 175.334H651.48V181H650.508V175.334H649.359V174.895L650.508 174.543V174.186C650.508 172.607 651.197 171.818 652.576 171.818C652.916 171.818 653.314 171.887 653.771 172.023L653.52 172.803C653.145 172.682 652.824 172.621 652.559 172.621C652.191 172.621 651.92 172.744 651.744 172.99C651.568 173.232 651.48 173.623 651.48 174.162V174.578H653.115V175.334ZM655.26 181H654.287V174.578H655.26V181ZM654.205 172.838C654.205 172.615 654.26 172.453 654.369 172.352C654.479 172.246 654.615 172.193 654.779 172.193C654.936 172.193 655.07 172.246 655.184 172.352C655.297 172.457 655.354 172.619 655.354 172.838C655.354 173.057 655.297 173.221 655.184 173.33C655.07 173.436 654.936 173.488 654.779 173.488C654.615 173.488 654.479 173.436 654.369 173.33C654.26 173.221 654.205 173.057 654.205 172.838ZM659.889 181.117C658.959 181.117 658.238 180.832 657.727 180.262C657.219 179.688 656.965 178.877 656.965 177.83C656.965 176.756 657.223 175.926 657.738 175.34C658.258 174.754 658.996 174.461 659.953 174.461C660.262 174.461 660.57 174.494 660.879 174.561C661.188 174.627 661.43 174.705 661.605 174.795L661.307 175.621C661.092 175.535 660.857 175.465 660.604 175.41C660.35 175.352 660.125 175.322 659.93 175.322C658.625 175.322 657.973 176.154 657.973 177.818C657.973 178.607 658.131 179.213 658.447 179.635C658.768 180.057 659.24 180.268 659.865 180.268C660.4 180.268 660.949 180.152 661.512 179.922V180.783C661.082 181.006 660.541 181.117 659.889 181.117ZM666.99 181L666.797 180.086H666.75C666.43 180.488 666.109 180.762 665.789 180.906C665.473 181.047 665.076 181.117 664.6 181.117C663.963 181.117 663.463 180.953 663.1 180.625C662.74 180.297 662.561 179.83 662.561 179.225C662.561 177.928 663.598 177.248 665.672 177.186L666.762 177.15V176.752C666.762 176.248 666.652 175.877 666.434 175.639C666.219 175.396 665.873 175.275 665.396 175.275C664.861 175.275 664.256 175.439 663.58 175.768L663.281 175.023C663.598 174.852 663.943 174.717 664.318 174.619C664.697 174.521 665.076 174.473 665.455 174.473C666.221 174.473 666.787 174.643 667.154 174.982C667.525 175.322 667.711 175.867 667.711 176.617V181H666.99ZM664.793 180.314C665.398 180.314 665.873 180.148 666.217 179.816C666.564 179.484 666.738 179.02 666.738 178.422V177.842L665.766 177.883C664.992 177.91 664.434 178.031 664.09 178.246C663.75 178.457 663.58 178.787 663.58 179.236C663.58 179.588 663.686 179.855 663.896 180.039C664.111 180.223 664.41 180.314 664.793 180.314ZM671.795 180.314C671.967 180.314 672.133 180.303 672.293 180.279C672.453 180.252 672.58 180.225 672.674 180.197V180.941C672.568 180.992 672.412 181.033 672.205 181.064C672.002 181.1 671.818 181.117 671.654 181.117C670.412 181.117 669.791 180.463 669.791 179.154V175.334H668.871V174.865L669.791 174.461L670.201 173.09H670.764V174.578H672.627V175.334H670.764V179.113C670.764 179.5 670.855 179.797 671.039 180.004C671.223 180.211 671.475 180.314 671.795 180.314ZM674.936 181H673.963V174.578H674.936V181ZM673.881 172.838C673.881 172.615 673.936 172.453 674.045 172.352C674.154 172.246 674.291 172.193 674.455 172.193C674.611 172.193 674.746 172.246 674.859 172.352C674.973 172.457 675.029 172.619 675.029 172.838C675.029 173.057 674.973 173.221 674.859 173.33C674.746 173.436 674.611 173.488 674.455 173.488C674.291 173.488 674.154 173.436 674.045 173.33C673.936 173.221 673.881 173.057 673.881 172.838ZM682.541 177.783C682.541 178.83 682.277 179.648 681.75 180.238C681.223 180.824 680.494 181.117 679.564 181.117C678.99 181.117 678.48 180.982 678.035 180.713C677.59 180.443 677.246 180.057 677.004 179.553C676.762 179.049 676.641 178.459 676.641 177.783C676.641 176.736 676.902 175.922 677.426 175.34C677.949 174.754 678.676 174.461 679.605 174.461C680.504 174.461 681.217 174.76 681.744 175.357C682.275 175.955 682.541 176.764 682.541 177.783ZM677.648 177.783C677.648 178.604 677.812 179.229 678.141 179.658C678.469 180.088 678.951 180.303 679.588 180.303C680.225 180.303 680.707 180.09 681.035 179.664C681.367 179.234 681.533 178.607 681.533 177.783C681.533 176.967 681.367 176.348 681.035 175.926C680.707 175.5 680.221 175.287 679.576 175.287C678.939 175.287 678.459 175.496 678.135 175.914C677.811 176.332 677.648 176.955 677.648 177.783ZM688.646 181V176.846C688.646 176.322 688.527 175.932 688.289 175.674C688.051 175.416 687.678 175.287 687.17 175.287C686.498 175.287 686.006 175.469 685.693 175.832C685.381 176.195 685.225 176.795 685.225 177.631V181H684.252V174.578H685.043L685.201 175.457H685.248C685.447 175.141 685.727 174.896 686.086 174.725C686.445 174.549 686.846 174.461 687.287 174.461C688.061 174.461 688.643 174.648 689.033 175.023C689.424 175.395 689.619 175.99 689.619 176.811V181H688.646Z" fill="black"/>
<path d="M144.5 113C144.5 114.402 145.053 115.479 146.013 116.275C146.95 117.053 148.252 117.544 149.739 117.864C152.708 118.502 156.644 118.5 160.5 118.5C164.394 118.5 168.208 118.502 171.051 119.114C172.471 119.419 173.591 119.866 174.349 120.494C175.084 121.104 175.5 121.902 175.5 123L176.5 123C176.5 121.598 175.947 120.521 174.987 119.725C174.05 118.947 172.748 118.456 171.261 118.136C168.292 117.498 164.356 117.5 160.5 117.5C156.606 117.5 152.792 117.498 149.949 116.886C148.529 116.581 147.409 116.134 146.651 115.506C145.916 114.896 145.5 114.098 145.5 113L144.5 113ZM206.5 113C206.5 114.098 206.084 114.896 205.349 115.506C204.591 116.134 203.471 116.581 202.051 116.886C199.208 117.498 195.394 117.5 191.5 117.5C187.644 117.5 183.708 117.498 180.739 118.136C179.252 118.456 177.95 118.947 177.013 119.725C176.053 120.521 175.5 121.598 175.5 123L176.5 123C176.5 121.902 176.916 121.104 177.651 120.494C178.409 119.866 179.529 119.419 180.949 119.114C183.792 118.502 187.606 118.5 191.5 118.5C195.356 118.5 199.292 118.502 202.261 117.864C203.748 117.544 205.05 117.053 205.987 116.275C206.947 115.479 207.5 114.402 207.5 113L206.5 113Z" fill="black"/>
<path d="M175.35 136H169.719V135.162L171.975 132.895C172.662 132.199 173.115 131.703 173.334 131.406C173.553 131.109 173.717 130.82 173.826 130.539C173.936 130.258 173.99 129.955 173.99 129.631C173.99 129.174 173.852 128.812 173.574 128.547C173.297 128.277 172.912 128.143 172.42 128.143C172.064 128.143 171.727 128.201 171.406 128.318C171.09 128.436 170.736 128.648 170.346 128.957L169.83 128.295C170.619 127.639 171.479 127.311 172.408 127.311C173.213 127.311 173.844 127.518 174.301 127.932C174.758 128.342 174.986 128.895 174.986 129.59C174.986 130.133 174.834 130.67 174.529 131.201C174.225 131.732 173.654 132.404 172.818 133.217L170.943 135.051V135.098H175.35V136ZM182.621 134.031H181.35V136H180.418V134.031H176.252V133.182L180.318 127.387H181.35V133.146H182.621V134.031ZM180.418 133.146V130.299C180.418 129.74 180.438 129.109 180.477 128.406H180.43C180.242 128.781 180.066 129.092 179.902 129.338L177.225 133.146H180.418Z" fill="black"/>
<path d="M175.35 136H169.719V135.162L171.975 132.895C172.662 132.199 173.115 131.703 173.334 131.406C173.553 131.109 173.717 130.82 173.826 130.539C173.936 130.258 173.99 129.955 173.99 129.631C173.99 129.174 173.852 128.812 173.574 128.547C173.297 128.277 172.912 128.143 172.42 128.143C172.064 128.143 171.727 128.201 171.406 128.318C171.09 128.436 170.736 128.648 170.346 128.957L169.83 128.295C170.619 127.639 171.479 127.311 172.408 127.311C173.213 127.311 173.844 127.518 174.301 127.932C174.758 128.342 174.986 128.895 174.986 129.59C174.986 130.133 174.834 130.67 174.529 131.201C174.225 131.732 173.654 132.404 172.818 133.217L170.943 135.051V135.098H175.35V136ZM182.621 134.031H181.35V136H180.418V134.031H176.252V133.182L180.318 127.387H181.35V133.146H182.621V134.031ZM180.418 133.146V130.299C180.418 129.74 180.438 129.109 180.477 128.406H180.43C180.242 128.781 180.066 129.092 179.902 129.338L177.225 133.146H180.418Z" fill="black"/>
<path d="M175.35 136H169.719V135.162L171.975 132.895C172.662 132.199 173.115 131.703 173.334 131.406C173.553 131.109 173.717 130.82 173.826 130.539C173.936 130.258 173.99 129.955 173.99 129.631C173.99 129.174 173.852 128.812 173.574 128.547C173.297 128.277 172.912 128.143 172.42 128.143C172.064 128.143 171.727 128.201 171.406 128.318C171.09 128.436 170.736 128.648 170.346 128.957L169.83 128.295C170.619 127.639 171.479 127.311 172.408 127.311C173.213 127.311 173.844 127.518 174.301 127.932C174.758 128.342 174.986 128.895 174.986 129.59C174.986 130.133 174.834 130.67 174.529 131.201C174.225 131.732 173.654 132.404 172.818 133.217L170.943 135.051V135.098H175.35V136ZM182.621 134.031H181.35V136H180.418V134.031H176.252V133.182L180.318 127.387H181.35V133.146H182.621V134.031ZM180.418 133.146V130.299C180.418 129.74 180.438 129.109 180.477 128.406H180.43C180.242 128.781 180.066 129.092 179.902 129.338L177.225 133.146H180.418Z" fill="black"/>
<path d="M262.5 98C262.5 99.0899 262.783 99.9572 263.319 100.625C263.85 101.288 264.592 101.707 265.424 101.976C267.063 102.505 269.215 102.5 271.25 102.5C273.34 102.5 275.313 102.505 276.768 102.976C277.483 103.207 278.03 103.538 278.401 104C278.767 104.457 279 105.09 279 106L280 106C280 104.91 279.717 104.043 279.181 103.375C278.65 102.712 277.908 102.293 277.076 102.024C275.437 101.495 273.285 101.5 271.25 101.5C269.16 101.5 267.187 101.495 265.732 101.024C265.017 100.793 264.47 100.462 264.099 99.9997C263.733 99.5428 263.5 98.9101 263.5 98L262.5 98ZM295.5 98C295.5 98.9101 295.267 99.5428 294.901 99.9997C294.53 100.462 293.983 100.793 293.268 101.024C291.813 101.495 289.84 101.5 287.75 101.5C285.715 101.5 283.563 101.495 281.924 102.024C281.092 102.293 280.35 102.712 279.819 103.375C279.283 104.043 279 104.91 279 106L280 106C280 105.09 280.233 104.457 280.599 104C280.97 103.538 281.517 103.207 282.232 102.976C283.687 102.505 285.66 102.5 287.75 102.5C289.785 102.5 291.937 102.505 293.576 101.976C294.408 101.707 295.15 101.288 295.681 100.625C296.217 99.9572 296.5 99.0899 296.5 98L295.5 98Z" fill="black"/>
<path d="M279.488 110.311C280.27 110.311 280.889 110.492 281.346 110.855C281.803 111.219 282.031 111.721 282.031 112.361C282.031 112.783 281.9 113.168 281.639 113.516C281.377 113.863 280.959 114.18 280.385 114.465C281.08 114.797 281.574 115.146 281.867 115.514C282.16 115.877 282.307 116.299 282.307 116.779C282.307 117.49 282.059 118.059 281.562 118.484C281.066 118.906 280.387 119.117 279.523 119.117C278.609 119.117 277.906 118.918 277.414 118.52C276.922 118.117 276.676 117.549 276.676 116.814C276.676 115.834 277.273 115.07 278.469 114.523C277.93 114.219 277.543 113.891 277.309 113.539C277.074 113.184 276.957 112.787 276.957 112.35C276.957 111.729 277.186 111.234 277.643 110.867C278.104 110.496 278.719 110.311 279.488 110.311ZM277.637 116.838C277.637 117.307 277.799 117.672 278.123 117.934C278.451 118.195 278.91 118.326 279.5 118.326C280.082 118.326 280.535 118.189 280.859 117.916C281.184 117.643 281.346 117.268 281.346 116.791C281.346 116.412 281.193 116.076 280.889 115.783C280.584 115.486 280.053 115.199 279.295 114.922C278.713 115.172 278.291 115.449 278.029 115.754C277.768 116.055 277.637 116.416 277.637 116.838ZM279.477 111.102C278.988 111.102 278.605 111.219 278.328 111.453C278.051 111.688 277.912 112 277.912 112.391C277.912 112.75 278.027 113.059 278.258 113.316C278.488 113.574 278.914 113.832 279.535 114.09C280.094 113.855 280.488 113.604 280.719 113.334C280.953 113.064 281.07 112.75 281.07 112.391C281.07 111.996 280.928 111.684 280.643 111.453C280.361 111.219 279.973 111.102 279.477 111.102Z" fill="black"/>
<path d="M493.5 98C493.5 99.2624 494.309 100.15 495.49 100.757C496.662 101.36 498.293 101.743 500.184 101.996C503.974 102.501 509.012 102.5 514 102.5C519.012 102.5 523.974 102.501 527.684 102.996C529.543 103.243 531.037 103.61 532.053 104.132C533.059 104.65 533.5 105.262 533.5 106L534.5 106C534.5 104.738 533.691 103.85 532.51 103.243C531.338 102.64 529.707 102.257 527.816 102.004C524.026 101.499 518.988 101.5 514 101.5C508.988 101.5 504.026 101.499 500.316 101.004C498.457 100.757 496.963 100.39 495.947 99.8679C494.941 99.3502 494.5 98.7376 494.5 98L493.5 98ZM573.5 98C573.5 98.7376 573.059 99.3502 572.053 99.8679C571.037 100.39 569.543 100.757 567.684 101.004C563.974 101.499 559.012 101.5 554 101.5C549.012 101.5 543.974 101.499 540.184 102.004C538.293 102.257 536.662 102.64 535.49 103.243C534.309 103.85 533.5 104.738 533.5 106L534.5 106C534.5 105.262 534.941 104.65 535.947 104.132C536.963 103.61 538.457 103.243 540.316 102.996C544.026 102.501 548.988 102.5 554 102.5C558.988 102.5 564.026 102.501 567.816 101.996C569.707 101.743 571.338 101.36 572.51 100.757C573.691 100.15 574.5 99.2624 574.5 98L573.5 98Z" fill="black"/>
<path d="M489 42.5C487.847 42.5 486.957 42.9604 486.301 43.7565C485.665 44.5298 485.268 45.5969 485.011 46.8019C484.498 49.2088 484.5 52.3942 484.5 55.5C484.5 58.6442 484.498 61.7088 484.011 63.9894C483.768 65.1282 483.415 66.0142 482.926 66.6081C482.457 67.1791 481.847 67.5 481 67.5L481 68.5C482.153 68.5 483.043 68.0396 483.699 67.2435C484.335 66.4702 484.732 65.4031 484.989 64.1981C485.502 61.7912 485.5 58.6058 485.5 55.5C485.5 52.3558 485.502 49.2912 485.989 47.0106C486.232 45.8718 486.585 44.9858 487.074 44.3919C487.543 43.8209 488.153 43.5 489 43.5L489 42.5ZM489 92.5C488.153 92.5 487.543 92.1791 487.074 91.6081C486.585 91.0142 486.232 90.1282 485.989 88.9894C485.502 86.7088 485.5 83.6442 485.5 80.5C485.5 77.3942 485.502 74.2088 484.989 71.8019C484.732 70.5969 484.335 69.5298 483.699 68.7565C483.043 67.9604 482.153 67.5 481 67.5L481 68.5C481.847 68.5 482.457 68.8209 482.926 69.3919C483.415 69.9858 483.768 70.8718 484.011 72.0106C484.498 74.2912 484.5 77.3558 484.5 80.5C484.5 83.6058 484.498 86.7912 485.011 89.1981C485.268 90.4031 485.665 91.4702 486.301 92.2435C486.957 93.0396 487.847 93.5 489 93.5L489 92.5Z" fill="black"/>
<path d="M531.322 119H530.373V112.895C530.373 112.387 530.389 111.906 530.42 111.453C530.338 111.535 530.246 111.621 530.145 111.711C530.043 111.801 529.578 112.182 528.75 112.854L528.234 112.186L530.502 110.434H531.322V119ZM540.264 114.705C540.264 116.186 540.029 117.291 539.561 118.021C539.096 118.752 538.383 119.117 537.422 119.117C536.5 119.117 535.799 118.744 535.318 117.998C534.838 117.248 534.598 116.15 534.598 114.705C534.598 113.213 534.83 112.105 535.295 111.383C535.76 110.66 536.469 110.299 537.422 110.299C538.352 110.299 539.057 110.676 539.537 111.43C540.021 112.184 540.264 113.275 540.264 114.705ZM535.582 114.705C535.582 115.951 535.729 116.859 536.021 117.43C536.314 117.996 536.781 118.279 537.422 118.279C538.07 118.279 538.539 117.992 538.828 117.418C539.121 116.84 539.268 115.936 539.268 114.705C539.268 113.475 539.121 112.574 538.828 112.004C538.539 111.43 538.07 111.143 537.422 111.143C536.781 111.143 536.314 111.426 536.021 111.992C535.729 112.555 535.582 113.459 535.582 114.705Z" fill="black"/>
<path d="M613.5 78C613.5 79.2624 614.309 80.1498 615.49 80.7571C616.662 81.3596 618.293 81.7435 620.184 81.9956C623.974 82.501 629.012 82.5 634 82.5C639.012 82.5 643.974 82.501 647.684 82.9956C649.543 83.2435 651.037 83.6096 652.053 84.1321C653.059 84.6498 653.5 85.2624 653.5 86L654.5 86C654.5 84.7376 653.691 83.8502 652.51 83.2429C651.338 82.6404 649.707 82.2565 647.816 82.0044C644.026 81.499 638.988 81.5 634 81.5C628.988 81.5 624.026 81.499 620.316 81.0044C618.457 80.7565 616.963 80.3904 615.947 79.8679C614.941 79.3502 614.5 78.7376 614.5 78L613.5 78ZM693.5 78C693.5 78.7376 693.059 79.3502 692.053 79.8679C691.037 80.3904 689.543 80.7565 687.684 81.0044C683.974 81.499 679.012 81.5 674 81.5C669.012 81.5 663.974 81.499 660.184 82.0044C658.293 82.2565 656.662 82.6404 655.49 83.2429C654.309 83.8502 653.5 84.7376 653.5 86L654.5 86C654.5 85.2624 654.941 84.6498 655.947 84.1321C656.963 83.6096 658.457 83.2435 660.316 82.9956C664.026 82.501 668.988 82.5 674 82.5C678.988 82.5 684.026 82.501 687.816 81.9956C689.707 81.7435 691.338 81.3596 692.51 80.7571C693.691 80.1498 694.5 79.2624 694.5 78L693.5 78Z" fill="black"/>
<path d="M651.322 99H650.373V92.8945C650.373 92.3867 650.389 91.9062 650.42 91.4531C650.338 91.5352 650.246 91.6211 650.145 91.7109C650.043 91.8008 649.578 92.1816 648.75 92.8535L648.234 92.1855L650.502 90.4336H651.322V99ZM660.264 94.7051C660.264 96.1855 660.029 97.291 659.561 98.0215C659.096 98.752 658.383 99.1172 657.422 99.1172C656.5 99.1172 655.799 98.7441 655.318 97.998C654.838 97.248 654.598 96.1504 654.598 94.7051C654.598 93.2129 654.83 92.1055 655.295 91.3828C655.76 90.6602 656.469 90.2988 657.422 90.2988C658.352 90.2988 659.057 90.6758 659.537 91.4297C660.021 92.1836 660.264 93.2754 660.264 94.7051ZM655.582 94.7051C655.582 95.9512 655.729 96.8594 656.021 97.4297C656.314 97.9961 656.781 98.2793 657.422 98.2793C658.07 98.2793 658.539 97.9922 658.828 97.418C659.121 96.8398 659.268 95.9355 659.268 94.7051C659.268 93.4746 659.121 92.5742 658.828 92.0039C658.539 91.4297 658.07 91.1426 657.422 91.1426C656.781 91.1426 656.314 91.4258 656.021 91.9922C655.729 92.5547 655.582 93.459 655.582 94.7051Z" fill="black"/>
<path d="M469.322 72H468.373V65.8945C468.373 65.3867 468.389 64.9062 468.42 64.4531C468.338 64.5352 468.246 64.6211 468.145 64.7109C468.043 64.8008 467.578 65.1816 466.75 65.8535L466.234 65.1855L468.502 63.4336H469.322V72ZM472.686 68.3379C472.686 66.6543 473.012 65.3965 473.664 64.5645C474.32 63.7285 475.289 63.3105 476.57 63.3105C477.012 63.3105 477.359 63.3477 477.613 63.4219V64.2598C477.312 64.1621 476.969 64.1133 476.582 64.1133C475.664 64.1133 474.963 64.4004 474.479 64.9746C473.994 65.5449 473.729 66.4434 473.682 67.6699H473.752C474.182 66.998 474.861 66.6621 475.791 66.6621C476.561 66.6621 477.166 66.8945 477.607 67.3594C478.053 67.8242 478.275 68.4551 478.275 69.252C478.275 70.1426 478.031 70.8438 477.543 71.3555C477.059 71.8633 476.402 72.1172 475.574 72.1172C474.688 72.1172 473.984 71.7852 473.465 71.1211C472.945 70.4531 472.686 69.5254 472.686 68.3379ZM475.562 71.291C476.117 71.291 476.547 71.1172 476.852 70.7695C477.16 70.418 477.314 69.9121 477.314 69.252C477.314 68.6855 477.172 68.2402 476.887 67.916C476.602 67.5918 476.176 67.4297 475.609 67.4297C475.258 67.4297 474.936 67.502 474.643 67.6465C474.35 67.791 474.115 67.9902 473.939 68.2441C473.768 68.498 473.682 68.7617 473.682 69.0352C473.682 69.4375 473.76 69.8125 473.916 70.1602C474.072 70.5078 474.293 70.7832 474.578 70.9863C474.867 71.1895 475.195 71.291 475.562 71.291Z" fill="black"/>
<path d="M403.5 133C403.5 134.115 403.853 134.995 404.501 135.661C405.135 136.313 406.013 136.721 406.996 136.983C408.948 137.504 411.523 137.5 414 137.5C416.523 137.5 418.948 137.504 420.746 137.983C421.638 138.221 422.323 138.563 422.782 139.036C423.228 139.495 423.5 140.115 423.5 141L424.5 141C424.5 139.885 424.147 139.005 423.499 138.339C422.865 137.687 421.987 137.279 421.004 137.017C419.052 136.496 416.477 136.5 414 136.5C411.477 136.5 409.052 136.496 407.254 136.017C406.362 135.779 405.677 135.437 405.218 134.964C404.772 134.505 404.5 133.885 404.5 133L403.5 133ZM443.5 133C443.5 133.885 443.228 134.505 442.782 134.964C442.323 135.437 441.638 135.779 440.746 136.017C438.948 136.496 436.523 136.5 434 136.5C431.523 136.5 428.948 136.496 426.996 137.017C426.013 137.279 425.135 137.687 424.501 138.339C423.853 139.005 423.5 139.885 423.5 141L424.5 141C424.5 140.115 424.772 139.495 425.218 139.036C425.677 138.563 426.362 138.221 427.254 137.983C429.052 137.504 431.477 137.5 434 137.5C436.477 137.5 439.052 137.504 441.004 136.983C441.987 136.721 442.865 136.313 443.499 135.661C444.147 134.995 444.5 134.115 444.5 133L443.5 133Z" fill="black"/>
<path d="M399 7.5C398.321 7.5 397.755 7.82595 397.303 8.34541C396.859 8.85415 396.506 9.56719 396.215 10.416C395.632 12.116 395.253 14.5094 395.002 17.3307C394.5 22.9828 394.5 30.5082 394.5 38C394.5 45.5082 394.5 52.9828 394.002 58.5807C393.753 61.3844 393.382 63.6785 392.84 65.2597C392.568 66.0516 392.266 66.6276 391.943 66.9977C391.63 67.3572 391.321 67.5 391 67.5L391 68.5C391.679 68.5 392.245 68.174 392.697 67.6546C393.14 67.1458 393.494 66.4328 393.785 65.584C394.368 63.884 394.747 61.4906 394.998 58.6693C395.5 53.0172 395.5 45.4918 395.5 38C395.5 30.4918 395.5 23.0172 395.998 17.4193C396.247 14.6156 396.618 12.3215 397.16 10.7403C397.432 9.94844 397.734 9.37241 398.057 9.00225C398.37 8.6428 398.679 8.5 399 8.5L399 7.5ZM399 127.5C398.679 127.5 398.37 127.357 398.057 126.998C397.734 126.628 397.432 126.052 397.16 125.26C396.618 123.679 396.247 121.384 395.998 118.581C395.5 112.983 395.5 105.508 395.5 98C395.5 90.5082 395.5 82.9828 394.998 77.3307C394.747 74.5094 394.368 72.116 393.785 70.416C393.494 69.5672 393.14 68.8542 392.697 68.3454C392.245 67.8259 391.679 67.5 391 67.5L391 68.5C391.321 68.5 391.63 68.6428 391.943 69.0022C392.266 69.3724 392.568 69.9484 392.84 70.7403C393.382 72.3215 393.753 74.6156 394.002 77.4193C394.5 83.0172 394.5 90.4918 394.5 98C394.5 105.492 394.5 113.017 395.002 118.669C395.253 121.491 395.632 123.884 396.214 125.584C396.506 126.433 396.859 127.146 397.303 127.655C397.755 128.174 398.321 128.5 399 128.5L399 127.5Z" fill="black"/>
<path d="M424.488 145.311C425.27 145.311 425.889 145.492 426.346 145.855C426.803 146.219 427.031 146.721 427.031 147.361C427.031 147.783 426.9 148.168 426.639 148.516C426.377 148.863 425.959 149.18 425.385 149.465C426.08 149.797 426.574 150.146 426.867 150.514C427.16 150.877 427.307 151.299 427.307 151.779C427.307 152.49 427.059 153.059 426.562 153.484C426.066 153.906 425.387 154.117 424.523 154.117C423.609 154.117 422.906 153.918 422.414 153.52C421.922 153.117 421.676 152.549 421.676 151.814C421.676 150.834 422.273 150.07 423.469 149.523C422.93 149.219 422.543 148.891 422.309 148.539C422.074 148.184 421.957 147.787 421.957 147.35C421.957 146.729 422.186 146.234 422.643 145.867C423.104 145.496 423.719 145.311 424.488 145.311ZM422.637 151.838C422.637 152.307 422.799 152.672 423.123 152.934C423.451 153.195 423.91 153.326 424.5 153.326C425.082 153.326 425.535 153.189 425.859 152.916C426.184 152.643 426.346 152.268 426.346 151.791C426.346 151.412 426.193 151.076 425.889 150.783C425.584 150.486 425.053 150.199 424.295 149.922C423.713 150.172 423.291 150.449 423.029 150.754C422.768 151.055 422.637 151.416 422.637 151.838ZM424.477 146.102C423.988 146.102 423.605 146.219 423.328 146.453C423.051 146.688 422.912 147 422.912 147.391C422.912 147.75 423.027 148.059 423.258 148.316C423.488 148.574 423.914 148.832 424.535 149.09C425.094 148.855 425.488 148.604 425.719 148.334C425.953 148.064 426.07 147.75 426.07 147.391C426.07 146.996 425.928 146.684 425.643 146.453C425.361 146.219 424.973 146.102 424.477 146.102Z" fill="black"/>
<path d="M367.482 72H361.852V71.1621L364.107 68.8945C364.795 68.1992 365.248 67.7031 365.467 67.4062C365.686 67.1094 365.85 66.8203 365.959 66.5391C366.068 66.2578 366.123 65.9551 366.123 65.6309C366.123 65.1738 365.984 64.8125 365.707 64.5469C365.43 64.2773 365.045 64.1426 364.553 64.1426C364.197 64.1426 363.859 64.2012 363.539 64.3184C363.223 64.4355 362.869 64.6484 362.479 64.957L361.963 64.2949C362.752 63.6387 363.611 63.3105 364.541 63.3105C365.346 63.3105 365.977 63.5176 366.434 63.9316C366.891 64.3418 367.119 64.8945 367.119 65.5898C367.119 66.1328 366.967 66.6699 366.662 67.2012C366.357 67.7324 365.787 68.4043 364.951 69.2168L363.076 71.0508V71.0977H367.482V72ZM374.396 67.7051C374.396 69.1855 374.162 70.291 373.693 71.0215C373.229 71.752 372.516 72.1172 371.555 72.1172C370.633 72.1172 369.932 71.7441 369.451 70.998C368.971 70.248 368.73 69.1504 368.73 67.7051C368.73 66.2129 368.963 65.1055 369.428 64.3828C369.893 63.6602 370.602 63.2988 371.555 63.2988C372.484 63.2988 373.189 63.6758 373.67 64.4297C374.154 65.1836 374.396 66.2754 374.396 67.7051ZM369.715 67.7051C369.715 68.9512 369.861 69.8594 370.154 70.4297C370.447 70.9961 370.914 71.2793 371.555 71.2793C372.203 71.2793 372.672 70.9922 372.961 70.418C373.254 69.8398 373.4 68.9355 373.4 67.7051C373.4 66.4746 373.254 65.5742 372.961 65.0039C372.672 64.4297 372.203 64.1426 371.555 64.1426C370.914 64.1426 370.447 64.4258 370.154 64.9922C369.861 65.5547 369.715 66.459 369.715 67.7051ZM381.621 70.0312H380.35V72H379.418V70.0312H375.252V69.1816L379.318 63.3867H380.35V69.1465H381.621V70.0312ZM379.418 69.1465V66.2988C379.418 65.7402 379.438 65.1094 379.477 64.4062H379.43C379.242 64.7812 379.066 65.0918 378.902 65.3379L376.225 69.1465H379.418ZM385.289 63.3105C386.07 63.3105 386.689 63.4922 387.146 63.8555C387.604 64.2188 387.832 64.7207 387.832 65.3613C387.832 65.7832 387.701 66.168 387.439 66.5156C387.178 66.8633 386.76 67.1797 386.186 67.4648C386.881 67.7969 387.375 68.1465 387.668 68.5137C387.961 68.877 388.107 69.2988 388.107 69.7793C388.107 70.4902 387.859 71.0586 387.363 71.4844C386.867 71.9062 386.188 72.1172 385.324 72.1172C384.41 72.1172 383.707 71.918 383.215 71.5195C382.723 71.1172 382.477 70.5488 382.477 69.8145C382.477 68.834 383.074 68.0703 384.27 67.5234C383.73 67.2188 383.344 66.8906 383.109 66.5391C382.875 66.1836 382.758 65.7871 382.758 65.3496C382.758 64.7285 382.986 64.2344 383.443 63.8672C383.904 63.4961 384.52 63.3105 385.289 63.3105ZM383.438 69.8379C383.438 70.3066 383.6 70.6719 383.924 70.9336C384.252 71.1953 384.711 71.3262 385.301 71.3262C385.883 71.3262 386.336 71.1895 386.66 70.916C386.984 70.6426 387.146 70.2676 387.146 69.791C387.146 69.4121 386.994 69.0762 386.689 68.7832C386.385 68.4863 385.854 68.1992 385.096 67.9219C384.514 68.1719 384.092 68.4492 383.83 68.7539C383.568 69.0547 383.438 69.416 383.438 69.8379ZM385.277 64.1016C384.789 64.1016 384.406 64.2188 384.129 64.4531C383.852 64.6875 383.713 65 383.713 65.3906C383.713 65.75 383.828 66.0586 384.059 66.3164C384.289 66.5742 384.715 66.832 385.336 67.0898C385.895 66.8555 386.289 66.6035 386.52 66.334C386.754 66.0645 386.871 65.75 386.871 65.3906C386.871 64.9961 386.729 64.6836 386.443 64.4531C386.162 64.2188 385.773 64.1016 385.277 64.1016Z" fill="black"/>
<path d="M5.96094 2.44922C5.96094 2.99609 5.80664 3.44336 5.49805 3.79102C5.19336 4.13867 4.75977 4.37109 4.19727 4.48828V4.53516C4.88477 4.62109 5.39453 4.83984 5.72656 5.19141C6.05859 5.54297 6.22461 6.00391 6.22461 6.57422C6.22461 7.39062 5.94141 8.01953 5.375 8.46094C4.80859 8.89844 4.00391 9.11719 2.96094 9.11719C2.50781 9.11719 2.0918 9.08203 1.71289 9.01172C1.33789 8.94531 0.972656 8.82617 0.617188 8.6543V7.72852C0.988281 7.91211 1.38281 8.05273 1.80078 8.15039C2.22266 8.24414 2.62109 8.29102 2.99609 8.29102C4.47656 8.29102 5.2168 7.71094 5.2168 6.55078C5.2168 5.51172 4.40039 4.99219 2.76758 4.99219H1.92383V4.1543H2.7793C3.44727 4.1543 3.97656 4.00781 4.36719 3.71484C4.75781 3.41797 4.95312 3.00781 4.95312 2.48438C4.95312 2.06641 4.80859 1.73828 4.51953 1.5C4.23438 1.26172 3.8457 1.14258 3.35352 1.14258C2.97852 1.14258 2.625 1.19336 2.29297 1.29492C1.96094 1.39648 1.58203 1.58398 1.15625 1.85742L0.664062 1.20117C1.01562 0.923828 1.41992 0.707031 1.87695 0.550781C2.33789 0.390625 2.82227 0.310547 3.33008 0.310547C4.16211 0.310547 4.80859 0.501953 5.26953 0.884766C5.73047 1.26367 5.96094 1.78516 5.96094 2.44922Z" fill="black"/>
<path d="M12.33 11.0963C12.0747 10.7571 11.8021 10.5067 11.5013 10.3561C11.1912 10.2007 10.8793 10.1658 10.5808 10.2153C10.035 10.3058 9.54805 10.6869 9.1962 10.9518C8.78224 11.2633 8.50338 11.4586 8.24932 11.5007C8.14785 11.5175 8.05133 11.5079 7.94027 11.4523C7.8198 11.3919 7.65845 11.2649 7.46272 11.0049L6.66374 11.6062C6.91904 11.9454 7.19167 12.1958 7.49242 12.3464C7.80257 12.5018 8.1145 12.5367 8.41296 12.4872C8.95877 12.3967 9.44572 12.0156 9.79756 11.7507C10.2115 11.4392 10.4904 11.2439 10.7444 11.2018C10.8459 11.185 10.9424 11.1946 11.0535 11.2502C11.174 11.3105 11.3353 11.4376 11.531 11.6976L12.33 11.0963ZM6.20356 15.7074C6.00783 15.4473 5.93041 15.2571 5.90576 15.1246C5.88304 15.0025 5.90051 14.9071 5.94477 14.8143C6.05557 14.5818 6.32036 14.3679 6.73433 14.0563C7.08617 13.7915 7.58719 13.429 7.82523 12.9296C7.9554 12.6565 8.00811 12.3471 7.94466 12.006C7.88313 11.6753 7.71802 11.3441 7.46272 11.0049L6.66374 11.6062C6.85946 11.8663 6.93688 12.0565 6.96153 12.1889C6.98425 12.3111 6.96678 12.4065 6.92253 12.4993C6.81173 12.7318 6.54694 12.9457 6.13297 13.2573C5.78113 13.5221 5.28011 13.8846 5.04206 14.384C4.91189 14.6571 4.85918 14.9665 4.92264 15.3076C4.98417 15.6383 5.14928 15.9695 5.40457 16.3087L6.20356 15.7074Z" fill="black"/>
<path d="M142.416 22H136.785V21.1621L139.041 18.8945C139.729 18.1992 140.182 17.7031 140.4 17.4062C140.619 17.1094 140.783 16.8203 140.893 16.5391C141.002 16.2578 141.057 15.9551 141.057 15.6309C141.057 15.1738 140.918 14.8125 140.641 14.5469C140.363 14.2773 139.979 14.1426 139.486 14.1426C139.131 14.1426 138.793 14.2012 138.473 14.3184C138.156 14.4355 137.803 14.6484 137.412 14.957L136.896 14.2949C137.686 13.6387 138.545 13.3105 139.475 13.3105C140.279 13.3105 140.91 13.5176 141.367 13.9316C141.824 14.3418 142.053 14.8945 142.053 15.5898C142.053 16.1328 141.9 16.6699 141.596 17.2012C141.291 17.7324 140.721 18.4043 139.885 19.2168L138.01 21.0508V21.0977H142.416V22ZM146.33 16.7676C147.232 16.7676 147.941 16.9922 148.457 17.4414C148.977 17.8867 149.236 18.498 149.236 19.2754C149.236 20.1621 148.953 20.8574 148.387 21.3613C147.824 21.8652 147.047 22.1172 146.055 22.1172C145.09 22.1172 144.354 21.9629 143.846 21.6543V20.7168C144.119 20.8926 144.459 21.0312 144.865 21.1328C145.271 21.2305 145.672 21.2793 146.066 21.2793C146.754 21.2793 147.287 21.1172 147.666 20.793C148.049 20.4688 148.24 20 148.24 19.3867C148.24 18.1914 147.508 17.5938 146.043 17.5938C145.672 17.5938 145.176 17.6504 144.555 17.7637L144.051 17.4414L144.373 13.4336H148.633V14.3301H145.205L144.988 16.9023C145.438 16.8125 145.885 16.7676 146.33 16.7676ZM150.619 18.3379C150.619 16.6543 150.945 15.3965 151.598 14.5645C152.254 13.7285 153.223 13.3105 154.504 13.3105C154.945 13.3105 155.293 13.3477 155.547 13.4219V14.2598C155.246 14.1621 154.902 14.1133 154.516 14.1133C153.598 14.1133 152.896 14.4004 152.412 14.9746C151.928 15.5449 151.662 16.4434 151.615 17.6699H151.686C152.115 16.998 152.795 16.6621 153.725 16.6621C154.494 16.6621 155.1 16.8945 155.541 17.3594C155.986 17.8242 156.209 18.4551 156.209 19.252C156.209 20.1426 155.965 20.8438 155.477 21.3555C154.992 21.8633 154.336 22.1172 153.508 22.1172C152.621 22.1172 151.918 21.7852 151.398 21.1211C150.879 20.4531 150.619 19.5254 150.619 18.3379ZM153.496 21.291C154.051 21.291 154.48 21.1172 154.785 20.7695C155.094 20.418 155.248 19.9121 155.248 19.252C155.248 18.6855 155.105 18.2402 154.82 17.916C154.535 17.5918 154.109 17.4297 153.543 17.4297C153.191 17.4297 152.869 17.502 152.576 17.6465C152.283 17.791 152.049 17.9902 151.873 18.2441C151.701 18.498 151.615 18.7617 151.615 19.0352C151.615 19.4375 151.693 19.8125 151.85 20.1602C152.006 20.5078 152.227 20.7832 152.512 20.9863C152.801 21.1895 153.129 21.291 153.496 21.291Z" fill="black"/>
<path d="M167.471 21.1885C167.046 20.6236 166.437 20.4326 165.787 20.4818C165.166 20.5289 164.48 20.7934 163.783 21.1568C162.385 21.8859 160.744 23.1229 159.152 24.3212C157.536 25.5376 155.968 26.7154 154.66 27.3978C154.003 27.7402 153.461 27.9307 153.042 27.9624C152.652 27.9919 152.409 27.8856 152.233 27.6515L151.434 28.2528C151.859 28.8177 152.468 29.0088 153.118 28.9595C153.739 28.9124 154.425 28.6479 155.122 28.2845C156.52 27.5554 158.161 26.3184 159.753 25.1201C161.369 23.9037 162.937 22.7259 164.245 22.0435C164.902 21.7011 165.444 21.5107 165.863 21.4789C166.253 21.4494 166.496 21.5558 166.672 21.7898L167.471 21.1885ZM141.805 40.5063C141.629 40.2723 141.594 40.0091 141.73 39.6424C141.877 39.2489 142.21 38.7806 142.72 38.2444C143.738 37.1757 145.304 35.9956 146.92 34.7791C148.512 33.5808 150.155 32.3463 151.242 31.2044C151.784 30.6354 152.229 30.0494 152.446 29.4653C152.673 28.8543 152.658 28.2164 152.233 27.6515L151.434 28.2528C151.61 28.4869 151.645 28.7501 151.508 29.1167C151.362 29.5103 151.029 29.9785 150.518 30.5147C149.5 31.5835 147.935 32.7636 146.319 33.9801C144.727 35.1784 143.084 36.4129 141.996 37.5547C141.454 38.1238 141.01 38.7098 140.793 39.2939C140.566 39.9049 140.581 40.5428 141.006 41.1077L141.805 40.5063Z" fill="black"/>
<path d="M260.416 37H254.785V36.1621L257.041 33.8945C257.729 33.1992 258.182 32.7031 258.4 32.4062C258.619 32.1094 258.783 31.8203 258.893 31.5391C259.002 31.2578 259.057 30.9551 259.057 30.6309C259.057 30.1738 258.918 29.8125 258.641 29.5469C258.363 29.2773 257.979 29.1426 257.486 29.1426C257.131 29.1426 256.793 29.2012 256.473 29.3184C256.156 29.4355 255.803 29.6484 255.412 29.957L254.896 29.2949C255.686 28.6387 256.545 28.3105 257.475 28.3105C258.279 28.3105 258.91 28.5176 259.367 28.9316C259.824 29.3418 260.053 29.8945 260.053 30.5898C260.053 31.1328 259.9 31.6699 259.596 32.2012C259.291 32.7324 258.721 33.4043 257.885 34.2168L256.01 36.0508V36.0977H260.416V37ZM264.33 31.7676C265.232 31.7676 265.941 31.9922 266.457 32.4414C266.977 32.8867 267.236 33.498 267.236 34.2754C267.236 35.1621 266.953 35.8574 266.387 36.3613C265.824 36.8652 265.047 37.1172 264.055 37.1172C263.09 37.1172 262.354 36.9629 261.846 36.6543V35.7168C262.119 35.8926 262.459 36.0312 262.865 36.1328C263.271 36.2305 263.672 36.2793 264.066 36.2793C264.754 36.2793 265.287 36.1172 265.666 35.793C266.049 35.4688 266.24 35 266.24 34.3867C266.24 33.1914 265.508 32.5938 264.043 32.5938C263.672 32.5938 263.176 32.6504 262.555 32.7637L262.051 32.4414L262.373 28.4336H266.633V29.3301H263.205L262.988 31.9023C263.438 31.8125 263.885 31.7676 264.33 31.7676ZM268.619 33.3379C268.619 31.6543 268.945 30.3965 269.598 29.5645C270.254 28.7285 271.223 28.3105 272.504 28.3105C272.945 28.3105 273.293 28.3477 273.547 28.4219V29.2598C273.246 29.1621 272.902 29.1133 272.516 29.1133C271.598 29.1133 270.896 29.4004 270.412 29.9746C269.928 30.5449 269.662 31.4434 269.615 32.6699H269.686C270.115 31.998 270.795 31.6621 271.725 31.6621C272.494 31.6621 273.1 31.8945 273.541 32.3594C273.986 32.8242 274.209 33.4551 274.209 34.252C274.209 35.1426 273.965 35.8438 273.477 36.3555C272.992 36.8633 272.336 37.1172 271.508 37.1172C270.621 37.1172 269.918 36.7852 269.398 36.1211C268.879 35.4531 268.619 34.5254 268.619 33.3379ZM271.496 36.291C272.051 36.291 272.48 36.1172 272.785 35.7695C273.094 35.418 273.248 34.9121 273.248 34.252C273.248 33.6855 273.105 33.2402 272.82 32.916C272.535 32.5918 272.109 32.4297 271.543 32.4297C271.191 32.4297 270.869 32.502 270.576 32.6465C270.283 32.791 270.049 32.9902 269.873 33.2441C269.701 33.498 269.615 33.7617 269.615 34.0352C269.615 34.4375 269.693 34.8125 269.85 35.1602C270.006 35.5078 270.227 35.7832 270.512 35.9863C270.801 36.1895 271.129 36.291 271.496 36.291Z" fill="black"/>
<path d="M285.471 36.1885C285.046 35.6236 284.437 35.4326 283.787 35.4818C283.166 35.5289 282.48 35.7934 281.783 36.1568C280.385 36.8859 278.744 38.1229 277.152 39.3212C275.536 40.5376 273.968 41.7154 272.66 42.3978C272.003 42.7402 271.461 42.9307 271.042 42.9624C270.652 42.9919 270.409 42.8856 270.233 42.6515L269.434 43.2528C269.859 43.8177 270.468 44.0088 271.118 43.9595C271.739 43.9124 272.425 43.6479 273.122 43.2845C274.52 42.5554 276.161 41.3184 277.753 40.1201C279.369 38.9037 280.937 37.7259 282.245 37.0435C282.902 36.7011 283.444 36.5107 283.863 36.4789C284.253 36.4494 284.496 36.5558 284.672 36.7898L285.471 36.1885ZM259.805 55.5063C259.629 55.2723 259.594 55.0091 259.73 54.6424C259.877 54.2489 260.21 53.7806 260.72 53.2444C261.738 52.1757 263.304 50.9956 264.92 49.7791C266.512 48.5808 268.155 47.3463 269.242 46.2044C269.784 45.6354 270.229 45.0494 270.446 44.4653C270.673 43.8543 270.658 43.2164 270.233 42.6515L269.434 43.2528C269.61 43.4869 269.645 43.7501 269.508 44.1167C269.362 44.5103 269.029 44.9785 268.518 45.5147C267.5 46.5835 265.935 47.7636 264.319 48.9801C262.727 50.1784 261.084 51.4129 259.996 52.5547C259.454 53.1238 259.01 53.7098 258.793 54.2939C258.566 54.9049 258.581 55.5428 259.006 56.1077L259.805 55.5063Z" fill="black"/>
<path d="M9 19.4366L14.8889 15L115 15V115.563L109.111 120H9V19.4366Z" fill="white"/>
<path d="M9 19.4366L14.8889 15L115 15M9 19.4366H109.111M9 19.4366V120H109.111M115 15L109.111 19.4366M115 15V115.563L109.111 120M109.111 19.4366V120" stroke="black" stroke-width="2"/>
<path d="M90 99H62V71L66 68H94V96L90 99Z" fill="#CEB7FF"/>
<path d="M62 71V99H90M62 71L66 68H94M62 71H90M90 71V99M90 71L94 68M90 99L94 96V68" stroke="#9462FF"/>
<path d="M161 97V89H153V97H161Z" fill="#CEB7FF" stroke="#9462FF"/>
<path d="M71.416 84.0898C71.416 87.4414 70.1191 89.1172 67.5254 89.1172C67.0723 89.1172 66.7129 89.0781 66.4473 89V88.1621C66.7598 88.2637 67.1152 88.3145 67.5137 88.3145C68.4512 88.3145 69.1582 88.0254 69.6348 87.4473C70.1152 86.8652 70.377 85.9746 70.4199 84.7754H70.3496C70.1348 85.0996 69.8496 85.3477 69.4941 85.5195C69.1387 85.6875 68.7383 85.7715 68.293 85.7715C67.5352 85.7715 66.9336 85.5449 66.4883 85.0918C66.043 84.6387 65.8203 84.0059 65.8203 83.1934C65.8203 82.3027 66.0684 81.5996 66.5645 81.084C67.0645 80.5684 67.7207 80.3105 68.5332 80.3105C69.1152 80.3105 69.623 80.4609 70.0566 80.7617C70.4941 81.0586 70.8301 81.4941 71.0645 82.0684C71.2988 82.6387 71.416 83.3125 71.416 84.0898ZM68.5332 81.1426C67.9746 81.1426 67.543 81.3223 67.2383 81.6816C66.9336 82.041 66.7812 82.541 66.7812 83.1816C66.7812 83.7441 66.9219 84.1875 67.2031 84.5117C67.4844 84.832 67.9121 84.9922 68.4863 84.9922C68.8418 84.9922 69.168 84.9199 69.4648 84.7754C69.7656 84.6309 70.002 84.4336 70.1738 84.1836C70.3457 83.9336 70.4316 83.6719 70.4316 83.3984C70.4316 82.9883 70.3516 82.6094 70.1914 82.2617C70.0312 81.9141 69.8066 81.6406 69.5176 81.4414C69.2324 81.2422 68.9043 81.1426 68.5332 81.1426ZM77.5742 82.1094L78.1367 82.6895L76.0742 84.7637L78.125 86.8262L77.5625 87.4062L75.4883 85.3496L73.4492 87.4062L72.8574 86.8262L74.9082 84.7637L72.8457 82.7012L73.4316 82.1094L75.5 84.1895L77.5742 82.1094ZM85.1504 84.0898C85.1504 87.4414 83.8535 89.1172 81.2598 89.1172C80.8066 89.1172 80.4473 89.0781 80.1816 89V88.1621C80.4941 88.2637 80.8496 88.3145 81.248 88.3145C82.1855 88.3145 82.8926 88.0254 83.3691 87.4473C83.8496 86.8652 84.1113 85.9746 84.1543 84.7754H84.084C83.8691 85.0996 83.584 85.3477 83.2285 85.5195C82.873 85.6875 82.4727 85.7715 82.0273 85.7715C81.2695 85.7715 80.668 85.5449 80.2227 85.0918C79.7773 84.6387 79.5547 84.0059 79.5547 83.1934C79.5547 82.3027 79.8027 81.5996 80.2988 81.084C80.7988 80.5684 81.4551 80.3105 82.2676 80.3105C82.8496 80.3105 83.3574 80.4609 83.791 80.7617C84.2285 81.0586 84.5645 81.4941 84.7988 82.0684C85.0332 82.6387 85.1504 83.3125 85.1504 84.0898ZM82.2676 81.1426C81.709 81.1426 81.2773 81.3223 80.9727 81.6816C80.668 82.041 80.5156 82.541 80.5156 83.1816C80.5156 83.7441 80.6562 84.1875 80.9375 84.5117C81.2188 84.832 81.6465 84.9922 82.2207 84.9922C82.5762 84.9922 82.9023 84.9199 83.1992 84.7754C83.5 84.6309 83.7363 84.4336 83.9082 84.1836C84.0801 83.9336 84.166 83.6719 84.166 83.3984C84.166 82.9883 84.0859 82.6094 83.9258 82.2617C83.7656 81.9141 83.541 81.6406 83.252 81.4414C82.9668 81.2422 82.6387 81.1426 82.2676 81.1426Z" fill="black"/>
<line x1="156.881" y1="89.3558" x2="93.8814" y2="68.3558" stroke="black" stroke-width="0.75" stroke-dasharray="2 3"/>
<line x1="89.9888" y1="98.6252" x2="156.989" y2="96.6252" stroke="black" stroke-width="0.75" stroke-dasharray="2 3"/>
<path d="M263 59L288 40H321V74L297 93H263V59Z" fill="white"/>
<path d="M263 59L288 40H321M263 59H297M263 59V93H297M321 40L297 59M321 40V74L297 93M297 59V93" stroke="black" stroke-width="2"/>
<line x1="493.785" y1="43.3072" x2="443.785" y2="8.30722" stroke="black" stroke-width="0.75" stroke-dasharray="2 3"/>
<line x1="443.785" y1="127.693" x2="493.785" y2="92.6928" stroke="black" stroke-width="0.75" stroke-dasharray="2 3"/>
<rect x="494" y="43" width="80" height="50" fill="white" stroke="#32ACF1" stroke-width="2"/>
<rect x="614" y="63" width="80" height="10" fill="white" stroke="black" stroke-width="2"/>
<rect x="404" y="8" width="40" height="120" fill="white" stroke="#32ACF1" stroke-width="2"/>
<path d="M351.354 68.3536C351.549 68.1583 351.549 67.8417 351.354 67.6464L348.172 64.4645C347.976 64.2692 347.66 64.2692 347.464 64.4645C347.269 64.6597 347.269 64.9763 347.464 65.1716L350.293 68L347.464 70.8284C347.269 71.0237 347.269 71.3403 347.464 71.5355C347.66 71.7308 347.976 71.7308 348.172 71.5355L351.354 68.3536ZM331 68.5H351V67.5H331V68.5Z" fill="black"/>
<path d="M604.354 68.3536C604.549 68.1583 604.549 67.8417 604.354 67.6464L601.172 64.4645C600.976 64.2692 600.66 64.2692 600.464 64.4645C600.269 64.6597 600.269 64.9763 600.464 65.1716L603.293 68L600.464 70.8284C600.269 71.0237 600.269 71.3403 600.464 71.5355C600.66 71.7308 600.976 71.7308 601.172 71.5355L604.354 68.3536ZM584 68.5H604V67.5H584V68.5Z" fill="black"/>
<path d="M482 4.97266V4.16992H487.449V4.97266H482ZM482 7.36914V6.56641H487.449V7.36914H482ZM495.402 12.2148H492.477V0.00585938H495.402V0.648438H493.146V11.5654H495.402V12.2148ZM499.18 1.31055C499.961 1.31055 500.58 1.49219 501.037 1.85547C501.494 2.21875 501.723 2.7207 501.723 3.36133C501.723 3.7832 501.592 4.16797 501.33 4.51562C501.068 4.86328 500.65 5.17969 500.076 5.46484C500.771 5.79688 501.266 6.14648 501.559 6.51367C501.852 6.87695 501.998 7.29883 501.998 7.7793C501.998 8.49023 501.75 9.05859 501.254 9.48438C500.758 9.90625 500.078 10.1172 499.215 10.1172C498.301 10.1172 497.598 9.91797 497.105 9.51953C496.613 9.11719 496.367 8.54883 496.367 7.81445C496.367 6.83398 496.965 6.07031 498.16 5.52344C497.621 5.21875 497.234 4.89062 497 4.53906C496.766 4.18359 496.648 3.78711 496.648 3.34961C496.648 2.72852 496.877 2.23438 497.334 1.86719C497.795 1.49609 498.41 1.31055 499.18 1.31055ZM497.328 7.83789C497.328 8.30664 497.49 8.67188 497.814 8.93359C498.143 9.19531 498.602 9.32617 499.191 9.32617C499.773 9.32617 500.227 9.18945 500.551 8.91602C500.875 8.64258 501.037 8.26758 501.037 7.79102C501.037 7.41211 500.885 7.07617 500.58 6.7832C500.275 6.48633 499.744 6.19922 498.986 5.92188C498.404 6.17188 497.982 6.44922 497.721 6.75391C497.459 7.05469 497.328 7.41602 497.328 7.83789ZM499.168 2.10156C498.68 2.10156 498.297 2.21875 498.02 2.45312C497.742 2.6875 497.604 3 497.604 3.39062C497.604 3.75 497.719 4.05859 497.949 4.31641C498.18 4.57422 498.605 4.83203 499.227 5.08984C499.785 4.85547 500.18 4.60352 500.41 4.33398C500.645 4.06445 500.762 3.75 500.762 3.39062C500.762 2.99609 500.619 2.68359 500.334 2.45312C500.053 2.21875 499.664 2.10156 499.168 2.10156ZM508.133 3.10938L508.695 3.68945L506.633 5.76367L508.684 7.82617L508.121 8.40625L506.047 6.34961L504.008 8.40625L503.416 7.82617L505.467 5.76367L503.404 3.70117L503.99 3.10938L506.059 5.18945L508.133 3.10938ZM513.682 10H512.732V3.89453C512.732 3.38672 512.748 2.90625 512.779 2.45312C512.697 2.53516 512.605 2.62109 512.504 2.71094C512.402 2.80078 511.938 3.18164 511.109 3.85352L510.594 3.18555L512.861 1.43359H513.682V10ZM517.045 6.33789C517.045 4.6543 517.371 3.39648 518.023 2.56445C518.68 1.72852 519.648 1.31055 520.93 1.31055C521.371 1.31055 521.719 1.34766 521.973 1.42188V2.25977C521.672 2.16211 521.328 2.11328 520.941 2.11328C520.023 2.11328 519.322 2.40039 518.838 2.97461C518.354 3.54492 518.088 4.44336 518.041 5.66992H518.111C518.541 4.99805 519.221 4.66211 520.15 4.66211C520.92 4.66211 521.525 4.89453 521.967 5.35938C522.412 5.82422 522.635 6.45508 522.635 7.25195C522.635 8.14258 522.391 8.84375 521.902 9.35547C521.418 9.86328 520.762 10.1172 519.934 10.1172C519.047 10.1172 518.344 9.78516 517.824 9.12109C517.305 8.45312 517.045 7.52539 517.045 6.33789ZM519.922 9.29102C520.477 9.29102 520.906 9.11719 521.211 8.76953C521.52 8.41797 521.674 7.91211 521.674 7.25195C521.674 6.68555 521.531 6.24023 521.246 5.91602C520.961 5.5918 520.535 5.42969 519.969 5.42969C519.617 5.42969 519.295 5.50195 519.002 5.64648C518.709 5.79102 518.475 5.99023 518.299 6.24414C518.127 6.49805 518.041 6.76172 518.041 7.03516C518.041 7.4375 518.119 7.8125 518.275 8.16016C518.432 8.50781 518.652 8.7832 518.938 8.98633C519.227 9.18945 519.555 9.29102 519.922 9.29102ZM523.575 11.5654H525.831V0.648438H523.575V0.00585938H526.501V12.2148H523.575V11.5654Z" fill="black"/>
<path d="M467.549 1.88647C467.641 1.64829 467.668 1.56892 468.779 1.56892V1C468.118 1.02648 468.091 1.02648 467.337 1.02648C466.953 1.02648 465.987 1.02648 465.67 1V1.56892C465.829 1.56892 466.993 1.56892 466.993 1.75414C466.993 1.76738 466.993 1.79386 466.94 1.91294L464.717 7.81402L462.349 1.56892H463.606V1C463.182 1.02648 461.952 1.02648 461.449 1.02648C461.039 1.02648 459.756 1.02648 459.438 1V1.56892H460.549L461.092 2.99788L459.279 7.81402L456.924 1.56892H458.168V1C457.784 1.02648 456.487 1.02648 456.011 1.02648C455.588 1.02648 454.331 1.02648 454 1V1.56892H455.111L458.26 9.87808C458.34 10.103 458.38 10.1956 458.671 10.1956C458.962 10.1956 459.001 10.103 459.081 9.89131L461.383 3.79173L463.698 9.89131C463.778 10.103 463.817 10.1956 464.109 10.1956C464.36 10.1956 464.426 10.1427 464.519 9.89131L467.549 1.88647Z" fill="black"/>
<path d="M472.148 11.1728C472.148 11.1176 472.104 11.0735 472.038 11.0735C471.938 11.0735 471.927 11.1066 471.872 11.2941C471.585 12.2978 471.133 12.6397 470.769 12.6397C470.637 12.6397 470.482 12.6066 470.482 12.2757C470.482 11.9779 470.615 11.647 470.736 11.3162L471.508 9.26467C471.541 9.17643 471.619 8.9779 471.619 8.76834C471.619 8.3051 471.288 7.88598 470.747 7.88598C469.732 7.88598 469.324 9.48526 469.324 9.57349C469.324 9.61761 469.369 9.67276 469.446 9.67276C469.545 9.67276 469.556 9.62864 469.6 9.47423C469.865 8.54775 470.284 8.10657 470.714 8.10657C470.813 8.10657 471.001 8.1176 471.001 8.47054C471.001 8.75731 470.858 9.12128 470.769 9.36394L469.997 11.4154C469.931 11.5919 469.865 11.7684 469.865 11.9669C469.865 12.4632 470.207 12.8603 470.736 12.8603C471.751 12.8603 472.148 11.25 472.148 11.1728ZM472.06 5.86759C472.06 5.70212 471.927 5.5036 471.685 5.5036C471.431 5.5036 471.144 5.74626 471.144 6.03302C471.144 6.30877 471.376 6.39701 471.508 6.39701C471.806 6.39701 472.06 6.11026 472.06 5.86759Z" fill="black"/>
<path d="M476.557 9.25364C476.601 9.07717 476.601 8.92276 476.601 8.87864C476.601 8.23893 476.127 7.88598 475.631 7.88598C474.517 7.88598 473.921 9.49629 473.921 9.57349C473.921 9.62864 473.965 9.67276 474.031 9.67276C474.12 9.67276 474.131 9.62864 474.186 9.51835C474.627 8.44849 475.179 8.10657 475.598 8.10657C475.829 8.10657 475.951 8.2279 475.951 8.61393C475.951 8.87864 475.918 8.98893 475.873 9.18746L474.826 13.3456C474.616 14.1618 474.098 14.7794 473.491 14.7794C473.447 14.7794 473.215 14.7794 473.006 14.6691C473.27 14.614 473.48 14.4044 473.48 14.1397C473.48 13.9632 473.348 13.7868 473.105 13.7868C472.818 13.7868 472.554 14.0294 472.554 14.3603C472.554 14.8125 473.039 15 473.491 15C474.252 15 475.256 14.4375 475.531 13.3345L476.557 9.25364ZM477.009 5.86759C477.009 5.59184 476.778 5.5036 476.645 5.5036C476.348 5.5036 476.094 5.79035 476.094 6.03302C476.094 6.19849 476.226 6.39701 476.469 6.39701C476.723 6.39701 477.009 6.15435 477.009 5.86759Z" fill="black"/>
<path d="M197 86H169V58L195 39H223V67L197 86Z" fill="#CEB7FF"/>
<path d="M169 58V86H197M169 58L195 39H223M169 58H197M197 58V86M197 58L223 39M197 86L223 67V39" stroke="#9462FF"/>
<path d="M145 45.5238L170.882 26H233M145 45.5238H207.118M145 45.5238V108H207.118M233 26L207.118 45.5238M233 26V88.4762L207.118 108M207.118 45.5238V108" stroke="black" stroke-width="2"/>
<path d="M281 84V76H273V84H281Z" fill="#CEB7FF" stroke="#9462FF"/>
<path d="M178.416 71.0898C178.416 74.4414 177.119 76.1172 174.525 76.1172C174.072 76.1172 173.713 76.0781 173.447 76V75.1621C173.76 75.2637 174.115 75.3145 174.514 75.3145C175.451 75.3145 176.158 75.0254 176.635 74.4473C177.115 73.8652 177.377 72.9746 177.42 71.7754H177.35C177.135 72.0996 176.85 72.3477 176.494 72.5195C176.139 72.6875 175.738 72.7715 175.293 72.7715C174.535 72.7715 173.934 72.5449 173.488 72.0918C173.043 71.6387 172.82 71.0059 172.82 70.1934C172.82 69.3027 173.068 68.5996 173.564 68.084C174.064 67.5684 174.721 67.3105 175.533 67.3105C176.115 67.3105 176.623 67.4609 177.057 67.7617C177.494 68.0586 177.83 68.4941 178.064 69.0684C178.299 69.6387 178.416 70.3125 178.416 71.0898ZM175.533 68.1426C174.975 68.1426 174.543 68.3223 174.238 68.6816C173.934 69.041 173.781 69.541 173.781 70.1816C173.781 70.7441 173.922 71.1875 174.203 71.5117C174.484 71.832 174.912 71.9922 175.486 71.9922C175.842 71.9922 176.168 71.9199 176.465 71.7754C176.766 71.6309 177.002 71.4336 177.174 71.1836C177.346 70.9336 177.432 70.6719 177.432 70.3984C177.432 69.9883 177.352 69.6094 177.191 69.2617C177.031 68.9141 176.807 68.6406 176.518 68.4414C176.232 68.2422 175.904 68.1426 175.533 68.1426ZM184.574 69.1094L185.137 69.6895L183.074 71.7637L185.125 73.8262L184.562 74.4062L182.488 72.3496L180.449 74.4062L179.857 73.8262L181.908 71.7637L179.846 69.7012L180.432 69.1094L182.5 71.1895L184.574 69.1094ZM192.15 71.0898C192.15 74.4414 190.854 76.1172 188.26 76.1172C187.807 76.1172 187.447 76.0781 187.182 76V75.1621C187.494 75.2637 187.85 75.3145 188.248 75.3145C189.186 75.3145 189.893 75.0254 190.369 74.4473C190.85 73.8652 191.111 72.9746 191.154 71.7754H191.084C190.869 72.0996 190.584 72.3477 190.229 72.5195C189.873 72.6875 189.473 72.7715 189.027 72.7715C188.27 72.7715 187.668 72.5449 187.223 72.0918C186.777 71.6387 186.555 71.0059 186.555 70.1934C186.555 69.3027 186.803 68.5996 187.299 68.084C187.799 67.5684 188.455 67.3105 189.268 67.3105C189.85 67.3105 190.357 67.4609 190.791 67.7617C191.229 68.0586 191.564 68.4941 191.799 69.0684C192.033 69.6387 192.15 70.3125 192.15 71.0898ZM189.268 68.1426C188.709 68.1426 188.277 68.3223 187.973 68.6816C187.668 69.041 187.516 69.541 187.516 70.1816C187.516 70.7441 187.656 71.1875 187.938 71.5117C188.219 71.832 188.646 71.9922 189.221 71.9922C189.576 71.9922 189.902 71.9199 190.199 71.7754C190.5 71.6309 190.736 71.4336 190.908 71.1836C191.08 70.9336 191.166 70.6719 191.166 70.3984C191.166 69.9883 191.086 69.6094 190.926 69.2617C190.766 68.9141 190.541 68.6406 190.252 68.4414C189.967 68.2422 189.639 68.1426 189.268 68.1426Z" fill="black"/>
<line x1="276.788" y1="76.3093" x2="222.788" y2="39.3094" stroke="black" stroke-width="0.75" stroke-dasharray="2 3"/>
<line x1="196.991" y1="85.6251" x2="276.991" y2="83.6251" stroke="black" stroke-width="0.75" stroke-dasharray="2 3"/>
</svg>
