<svg width="871" height="231" viewBox="0 0 871 231" fill="none" xmlns="http://www.w3.org/2000/svg">
<path d="M20 38.5C19.1882 38.5 18.5116 38.9039 17.9663 39.5549C17.4296 40.1957 16.995 41.1015 16.6345 42.195C15.9124 44.3855 15.44 47.4803 15.1268 51.1449C14.4996 58.4835 14.5 68.2579 14.5 78C14.5 87.7579 14.4996 97.4835 13.8768 104.77C13.565 108.418 13.0999 111.417 12.4158 113.492C12.0732 114.531 11.6874 115.301 11.2671 115.803C10.8554 116.294 10.4382 116.5 10 116.5L10 117.5C10.8119 117.5 11.4884 117.096 12.0337 116.445C12.5704 115.804 13.005 114.899 13.3655 113.805C14.0876 111.615 14.56 108.52 14.8732 104.855C15.5004 97.5165 15.5 87.7421 15.5 78C15.5 68.2421 15.5004 58.5165 16.1232 51.2301C16.435 47.5822 16.9001 44.5833 17.5842 42.5081C17.9268 41.4689 18.3126 40.6988 18.7329 40.197C19.1446 39.7055 19.5618 39.5 20 39.5V38.5ZM20 194.5C19.5618 194.5 19.1446 194.294 18.7329 193.803C18.3126 193.301 17.9268 192.531 17.5842 191.492C16.9001 189.417 16.435 186.418 16.1232 182.77C15.5004 175.483 15.5 165.758 15.5 156C15.5 146.258 15.5004 136.483 14.8732 129.145C14.56 125.48 14.0876 122.385 13.3655 120.195C13.005 119.101 12.5704 118.196 12.0337 117.555C11.4884 116.904 10.8118 116.5 10 116.5L10 117.5C10.4382 117.5 10.8554 117.706 11.2671 118.197C11.6874 118.699 12.0732 119.469 12.4158 120.508C13.0999 122.583 13.565 125.582 13.8768 129.23C14.4996 136.517 14.5 146.242 14.5 156C14.5 165.742 14.4996 175.517 15.1268 182.855C15.44 186.52 15.9124 189.615 16.6345 191.805C16.995 192.899 17.4296 193.804 17.9663 194.445C18.5116 195.096 19.1882 195.5 20 195.5V194.5Z" fill="black"/>
<path d="M5 120.477C5 120.394 4.92187 120.328 4.80469 120.328C4.6289 120.328 4.60938 120.378 4.51172 120.658C4.00391 122.159 3.20313 122.67 2.55859 122.67C2.32422 122.67 2.05078 122.621 2.05078 122.126C2.05078 121.681 2.28516 121.186 2.5 120.691L3.86719 117.624C3.92578 117.492 4.0625 117.195 4.0625 116.882C4.0625 116.189 3.47656 115.562 2.51953 115.562C0.722655 115.562 0 117.954 0 118.085C0 118.151 0.0781256 118.234 0.214844 118.234C0.390624 118.234 0.410158 118.168 0.488284 117.937C0.957034 116.552 1.69921 115.892 2.46094 115.892C2.63672 115.892 2.96875 115.909 2.96875 116.436C2.96875 116.865 2.71484 117.409 2.55859 117.772L1.19141 120.84C1.07422 121.103 0.957034 121.367 0.957034 121.664C0.957034 122.406 1.5625 123 2.5 123C4.29687 123 5 120.592 5 120.477ZM4.84375 112.544C4.84375 112.297 4.60938 112 4.17969 112C3.73047 112 3.22265 112.363 3.22265 112.792C3.22265 113.204 3.63281 113.336 3.86719 113.336C4.39453 113.336 4.84375 112.907 4.84375 112.544Z" fill="black"/>
<path d="M180.5 29C180.5 28.196 180.115 27.5208 179.486 26.9726C178.868 26.4337 177.993 25.9977 176.94 25.6364C174.829 24.9129 171.85 24.4403 168.326 24.127C161.267 23.4996 151.867 23.5 142.5 23.5C133.117 23.5 123.767 23.4996 116.763 22.877C113.256 22.5652 110.376 22.1004 108.385 21.4176C107.388 21.0758 106.651 20.6915 106.171 20.2734C105.701 19.8646 105.5 19.446 105.5 19L104.5 19C104.5 19.804 104.885 20.4792 105.514 21.0274C106.132 21.5663 107.007 22.0023 108.06 22.3636C110.171 23.0871 113.15 23.5597 116.674 23.873C123.733 24.5004 133.133 24.5 142.5 24.5C151.883 24.5 161.233 24.5004 168.237 25.123C171.744 25.4347 174.624 25.8996 176.615 26.5823C177.612 26.9242 178.349 27.3085 178.829 27.7266C179.299 28.1354 179.5 28.554 179.5 29L180.5 29ZM30.5 29C30.5 28.554 30.7014 28.1354 31.1707 27.7266C31.6507 27.3085 32.3879 26.9241 33.3848 26.5823C35.3762 25.8996 38.2562 25.4347 41.763 25.123C48.7672 24.5004 58.1168 24.5 67.5 24.5C76.8668 24.5 86.2672 24.5004 93.3255 23.873C96.85 23.5597 99.8293 23.0871 101.94 22.3636C102.993 22.0023 103.868 21.5663 104.486 21.0274C105.115 20.4792 105.5 19.804 105.5 19L104.5 19C104.5 19.446 104.299 19.8646 103.829 20.2734C103.349 20.6915 102.612 21.0758 101.615 21.4176C99.6238 22.1004 96.7438 22.5652 93.237 22.877C86.2328 23.4996 76.8832 23.5 67.5 23.5C58.1332 23.5 48.7328 23.4996 41.6745 24.127C38.15 24.4402 35.1707 24.9129 33.0605 25.6364C32.0066 25.9977 31.1325 26.4337 30.5139 26.9726C29.8845 27.5208 29.5 28.196 29.5 29L30.5 29Z" fill="black"/>
<path d="M111.039 12.5562C111.039 12.4886 110.985 12.4346 110.904 12.4346C110.782 12.4346 110.769 12.4751 110.701 12.7048C110.35 13.9343 109.796 14.3531 109.35 14.3531C109.188 14.3531 108.999 14.3126 108.999 13.9073C108.999 13.5425 109.161 13.1372 109.31 12.7318L110.256 10.2188C110.296 10.1107 110.391 9.86755 110.391 9.61084C110.391 9.04339 109.985 8.52998 109.323 8.52998C108.08 8.52998 107.58 10.489 107.58 10.5971C107.58 10.6512 107.634 10.7187 107.729 10.7187C107.851 10.7187 107.864 10.6647 107.918 10.4755C108.242 9.34063 108.756 8.8002 109.283 8.8002C109.404 8.8002 109.634 8.8137 109.634 9.24605C109.634 9.59733 109.458 10.0432 109.35 10.3404L108.405 12.8534C108.323 13.0696 108.242 13.2858 108.242 13.529C108.242 14.137 108.661 14.6233 109.31 14.6233C110.553 14.6233 111.039 12.6508 111.039 12.5562ZM110.931 6.05751C110.931 5.85481 110.769 5.61163 110.472 5.61163C110.161 5.61163 109.81 5.90889 109.81 6.26015C109.81 6.59794 110.093 6.70603 110.256 6.70603C110.62 6.70603 110.931 6.35477 110.931 6.05751Z" fill="black"/>
<path d="M106.504 0.405208C106.52 0.340344 106.553 0.243112 106.553 0.162097C106.553 9.74355e-09 106.391 0 106.358 0C106.342 0 105.548 0.064799 105.467 0.0810152C105.191 0.0972314 104.948 0.129665 104.656 0.145881C104.251 0.178248 104.138 0.194464 104.138 0.486225C104.138 0.648321 104.268 0.648321 104.494 0.648321C105.289 0.648321 105.305 0.794201 105.305 0.956232C105.305 1.05346 105.272 1.18313 105.256 1.23178L104.268 5.17025C104.089 4.74885 103.652 4.10054 102.809 4.10054C100.977 4.10054 99 6.46688 99 8.86562C99 10.4702 99.94 11.4102 101.042 11.4102C101.934 11.4102 102.695 10.7133 103.149 10.1784C103.311 11.1347 104.073 11.4102 104.559 11.4102C105.045 11.4102 105.434 11.1185 105.726 10.535C105.986 9.98395 106.212 8.99528 106.212 8.93045C106.212 8.84941 106.148 8.78458 106.05 8.78458C105.905 8.78458 105.888 8.86562 105.823 9.10874C105.58 10.065 105.272 11.0861 104.608 11.0861C104.138 11.0861 104.105 10.6647 104.105 10.3405C104.105 10.2757 104.105 9.93533 104.219 9.48151L106.504 0.405208ZM103.23 9.31943C103.149 9.59497 103.149 9.62738 102.922 9.93533C102.566 10.3891 101.853 11.0861 101.091 11.0861C100.426 11.0861 100.054 10.4864 100.054 9.53013C100.054 8.63871 100.556 6.82344 100.864 6.14272C101.415 5.00818 102.177 4.42473 102.809 4.42473C103.879 4.42473 104.089 5.75374 104.089 5.8834C104.089 5.8996 104.041 6.1103 104.024 6.14272L103.23 9.31943Z" fill="black"/>
<rect x="30" y="39" width="150" height="24" fill="white" stroke="black" stroke-width="2"/>
<rect x="30" y="73" width="150" height="24" fill="white" stroke="black" stroke-width="2"/>
<rect x="30" y="107" width="150" height="24" fill="white" stroke="black" stroke-width="2"/>
<rect x="30" y="171" width="150" height="24" fill="white" stroke="black" stroke-width="2"/>
<circle cx="105" cy="143" r="2" fill="black"/>
<circle cx="105" cy="151" r="2" fill="black"/>
<circle cx="105" cy="159" r="2" fill="black"/>
<path d="M103.041 215.13V215.827C104.045 215.827 104.159 215.827 104.159 216.459V219.635C104.159 220.867 103.43 221.856 102.165 221.856C100.95 221.856 100.885 221.451 100.885 220.559V215L98 215.13V215.827C99.0049 215.827 99.1183 215.827 99.1183 216.459V220.3C99.1183 221.921 100.204 222.391 101.938 222.391C102.327 222.391 103.527 222.391 104.224 221.078H104.24V222.391L107.044 222.293V221.597C106.039 221.597 105.926 221.597 105.926 220.964V215L103.041 215.13Z" fill="black"/>
<path d="M111.235 223.636C111.235 223.569 111.181 223.515 111.1 223.515C110.978 223.515 110.965 223.555 110.897 223.785C110.546 225.014 109.992 225.433 109.546 225.433C109.384 225.433 109.195 225.393 109.195 224.987C109.195 224.623 109.357 224.217 109.505 223.812L110.451 221.299C110.492 221.191 110.586 220.948 110.586 220.691C110.586 220.124 110.181 219.61 109.519 219.61C108.276 219.61 107.776 221.569 107.776 221.677C107.776 221.731 107.83 221.799 107.925 221.799C108.046 221.799 108.06 221.745 108.114 221.556C108.438 220.421 108.951 219.88 109.478 219.88C109.6 219.88 109.83 219.894 109.83 220.326C109.83 220.677 109.654 221.123 109.546 221.421L108.6 223.934C108.519 224.15 108.438 224.366 108.438 224.609C108.438 225.217 108.857 225.703 109.505 225.703C110.748 225.703 111.235 223.731 111.235 223.636ZM111.127 217.138C111.127 216.935 110.965 216.692 110.667 216.692C110.357 216.692 110.005 216.989 110.005 217.34C110.005 217.678 110.289 217.786 110.451 217.786C110.816 217.786 111.127 217.435 111.127 217.138Z" fill="black"/>
<path d="M525.143 105.479C525.408 105.4 525.558 105.121 525.479 104.857L524.191 100.545C524.112 100.281 523.834 100.13 523.569 100.209C523.304 100.288 523.154 100.567 523.233 100.831L524.378 104.664L520.545 105.809C520.281 105.888 520.13 106.166 520.209 106.431C520.288 106.696 520.567 106.846 520.831 106.767L525.143 105.479ZM424.762 51.44L524.762 105.44L525.238 104.56L425.238 50.56L424.762 51.44Z" fill="black"/>
<path d="M525.245 113.436C525.486 113.3 525.571 112.996 525.436 112.755L523.23 108.833C523.094 108.592 522.789 108.507 522.549 108.642C522.308 108.778 522.223 109.082 522.358 109.323L524.319 112.809L520.833 114.77C520.592 114.906 520.507 115.211 520.642 115.451C520.778 115.692 521.082 115.777 521.323 115.642L525.245 113.436ZM424.865 85.4815L524.865 113.481L525.135 112.519L425.135 84.5185L424.865 85.4815Z" fill="black"/>
<path d="M525.346 121.361C525.546 121.169 525.552 120.853 525.361 120.654L522.243 117.409C522.052 117.209 521.735 117.203 521.536 117.394C521.337 117.586 521.33 117.902 521.522 118.101L524.293 120.986L521.409 123.757C521.209 123.948 521.203 124.265 521.394 124.464C521.586 124.663 521.902 124.67 522.101 124.478L525.346 121.361ZM424.99 119.5L524.99 121.5L525.01 120.5L425.01 118.5L424.99 119.5Z" fill="black"/>
<path d="M525.479 129.143C525.558 128.879 525.408 128.6 525.143 128.521L520.831 127.233C520.567 127.154 520.288 127.304 520.209 127.569C520.13 127.834 520.281 128.112 520.545 128.191L524.378 129.336L523.233 133.169C523.154 133.433 523.304 133.712 523.569 133.791C523.834 133.87 524.112 133.719 524.191 133.455L525.479 129.143ZM425.238 183.44L525.238 129.44L524.762 128.56L424.762 182.56L425.238 183.44Z" fill="black"/>
<path d="M480.628 147.295C480.628 147.228 480.574 147.174 480.493 147.174C480.371 147.174 480.358 147.214 480.29 147.444C479.939 148.673 479.385 149.092 478.939 149.092C478.777 149.092 478.588 149.052 478.588 148.646C478.588 148.281 478.75 147.876 478.899 147.471L479.844 144.958C479.885 144.85 479.98 144.606 479.98 144.35C479.98 143.782 479.574 143.269 478.912 143.269C477.669 143.269 477.169 145.228 477.169 145.336C477.169 145.39 477.223 145.458 477.318 145.458C477.44 145.458 477.453 145.404 477.507 145.214C477.831 144.08 478.345 143.539 478.872 143.539C478.993 143.539 479.223 143.553 479.223 143.985C479.223 144.336 479.047 144.782 478.939 145.079L477.994 147.592C477.912 147.809 477.831 148.025 477.831 148.268C477.831 148.876 478.25 149.362 478.899 149.362C480.142 149.362 480.628 147.39 480.628 147.295ZM480.52 140.796C480.52 140.594 480.358 140.351 480.061 140.351C479.75 140.351 479.399 140.648 479.399 140.999C479.399 141.337 479.682 141.445 479.844 141.445C480.209 141.445 480.52 141.094 480.52 140.796Z" fill="black"/>
<path d="M475.689 140.054C475.381 140.054 475.235 140.054 475.008 140.248C474.911 140.329 474.733 140.572 474.733 140.831C474.733 141.156 474.976 141.35 475.284 141.35C475.673 141.35 476.11 141.026 476.11 140.378C476.11 139.6 475.365 139 474.246 139C472.123 139 470 141.318 470 143.619C470 145.029 470.875 146.31 472.528 146.31C474.733 146.31 476.127 144.592 476.127 144.381C476.127 144.284 476.029 144.203 475.964 144.203C475.916 144.203 475.9 144.219 475.754 144.365C474.716 145.742 473.177 145.986 472.561 145.986C471.442 145.986 471.086 145.013 471.086 144.203C471.086 143.635 471.361 142.063 471.945 140.961C472.366 140.199 473.242 139.324 474.263 139.324C474.473 139.324 475.365 139.357 475.689 140.054Z" fill="black"/>
<path d="M474.689 106.054C474.381 106.054 474.235 106.054 474.008 106.248C473.911 106.329 473.733 106.572 473.733 106.831C473.733 107.156 473.976 107.35 474.284 107.35C474.673 107.35 475.11 107.026 475.11 106.378C475.11 105.6 474.365 105 473.246 105C471.123 105 469 107.318 469 109.619C469 111.029 469.875 112.31 471.528 112.31C473.733 112.31 475.127 110.592 475.127 110.381C475.127 110.284 475.029 110.203 474.964 110.203C474.916 110.203 474.9 110.219 474.754 110.365C473.716 111.742 472.177 111.986 471.561 111.986C470.442 111.986 470.086 111.013 470.086 110.203C470.086 109.635 470.361 108.063 470.945 106.961C471.366 106.199 472.242 105.324 473.263 105.324C473.473 105.324 474.365 105.357 474.689 106.054Z" fill="black"/>
<path d="M478.142 110.681C479.345 110.681 479.871 111.721 479.871 112.923C479.871 114.545 479.007 115.166 478.223 115.166C477.507 115.166 476.345 114.815 475.98 113.775C476.048 113.802 476.115 113.802 476.183 113.802C476.507 113.802 476.75 113.585 476.75 113.234C476.75 112.842 476.453 112.667 476.183 112.667C475.953 112.667 475.602 112.775 475.602 113.275C475.602 114.518 476.818 115.49 478.25 115.49C479.75 115.49 480.898 114.315 480.898 112.937C480.898 111.626 479.817 110.681 478.534 110.532C479.561 110.316 480.547 109.397 480.547 108.168C480.547 107.114 479.48 106.344 478.264 106.344C477.034 106.344 475.953 107.1 475.953 108.181C475.953 108.654 476.305 108.735 476.48 108.735C476.764 108.735 477.007 108.559 477.007 108.208C477.007 107.857 476.764 107.681 476.48 107.681C476.426 107.681 476.359 107.681 476.305 107.708C476.696 106.816 477.764 106.654 478.237 106.654C478.71 106.654 479.601 106.884 479.601 108.181C479.601 108.559 479.547 109.235 479.088 109.829C478.683 110.356 478.223 110.383 477.777 110.424C477.71 110.424 477.399 110.451 477.345 110.451C477.25 110.464 477.196 110.478 477.196 110.572C477.196 110.667 477.21 110.681 477.48 110.681H478.142Z" fill="black"/>
<path d="M474.689 86.0535C474.381 86.0535 474.235 86.0535 474.008 86.248C473.911 86.329 473.733 86.5722 473.733 86.8315C473.733 87.1556 473.976 87.3501 474.284 87.3501C474.673 87.3501 475.11 87.026 475.11 86.3777C475.11 85.5997 474.365 85 473.246 85C471.123 85 469 87.3177 469 89.6192C469 91.0293 469.875 92.3097 471.528 92.3097C473.733 92.3097 475.127 90.5917 475.127 90.381C475.127 90.2837 475.029 90.2027 474.964 90.2027C474.916 90.2027 474.9 90.2189 474.754 90.3648C473.716 91.7424 472.177 91.9855 471.561 91.9855C470.442 91.9855 470.086 91.0131 470.086 90.2027C470.086 89.6354 470.361 88.0633 470.945 86.9611C471.366 86.1994 472.242 85.3242 473.263 85.3242C473.473 85.3242 474.365 85.3566 474.689 86.0535Z" fill="black"/>
<path d="M480.79 93.18H480.547C480.412 94.1393 480.304 94.3014 480.25 94.3825C480.182 94.4906 479.209 94.4906 479.02 94.4906H476.426C476.913 93.9637 477.858 93.0044 479.007 91.8965C479.831 91.1129 480.79 90.1942 480.79 88.8566C480.79 87.2623 479.52 86.3436 478.102 86.3436C476.615 86.3436 475.71 87.6541 475.71 88.8701C475.71 89.397 476.102 89.4646 476.264 89.4646C476.399 89.4646 476.805 89.3835 476.805 88.9106C476.805 88.4918 476.453 88.3702 476.264 88.3702C476.183 88.3702 476.102 88.3837 476.048 88.4107C476.305 87.2623 477.088 86.6949 477.912 86.6949C479.088 86.6949 479.858 87.6271 479.858 88.8566C479.858 90.032 479.169 91.0453 478.399 91.9235L475.71 94.9635V95.2742H480.466L480.79 93.18Z" fill="black"/>
<path d="M474.689 65.0535C474.381 65.0535 474.235 65.0535 474.008 65.248C473.911 65.329 473.733 65.5722 473.733 65.8315C473.733 66.1556 473.976 66.3501 474.284 66.3501C474.673 66.3501 475.11 66.026 475.11 65.3777C475.11 64.5997 474.365 64 473.246 64C471.123 64 469 66.3177 469 68.6192C469 70.0293 469.875 71.3097 471.528 71.3097C473.733 71.3097 475.127 69.5917 475.127 69.381C475.127 69.2837 475.029 69.2027 474.964 69.2027C474.916 69.2027 474.9 69.2189 474.754 69.3648C473.716 70.7424 472.177 70.9855 471.561 70.9855C470.442 70.9855 470.086 70.0131 470.086 69.2027C470.086 68.6354 470.361 67.0633 470.945 65.9611C471.366 65.1994 472.242 64.3242 473.263 64.3242C473.473 64.3242 474.365 64.3566 474.689 65.0535Z" fill="black"/>
<path d="M478.75 65.6408C478.75 65.3571 478.737 65.3436 478.547 65.3436C478.02 65.9786 477.223 66.1812 476.467 66.2083C476.426 66.2083 476.359 66.2083 476.345 66.2353C476.332 66.2623 476.332 66.2894 476.332 66.5731C476.75 66.5731 477.453 66.492 477.993 66.1677V73.2879C477.993 73.7608 477.966 73.9229 476.805 73.9229H476.399V74.2742C477.048 74.2607 477.723 74.2472 478.372 74.2472C479.02 74.2472 479.696 74.2607 480.344 74.2742V73.9229H479.939C478.777 73.9229 478.75 73.7743 478.75 73.2879V65.6408Z" fill="black"/>
<rect x="540" y="105" width="100" height="24" fill="white" stroke="black" stroke-width="2"/>
<path d="M589.494 215.421C589.494 215.113 589.494 215 589.251 215C589.154 215 589.122 215 588.879 215.146C588.814 215.194 588.635 215.308 588.554 215.357C588.101 215.097 587.501 215 586.917 215C586.431 215 584 215 584 217.107C584 218.809 586.01 219.165 586.512 219.246C586.95 219.327 587.485 219.425 587.549 219.425C588.198 219.571 588.846 219.976 588.846 220.656C588.846 221.904 587.371 221.904 587.031 221.904C586.204 221.904 585.183 221.645 584.729 220.073C584.632 219.749 584.616 219.733 584.34 219.733C584 219.733 584 219.781 584 220.154V222.018C584 222.326 584 222.439 584.243 222.439C584.357 222.439 584.389 222.439 584.713 222.18L585.135 221.872C585.864 222.439 586.739 222.439 587.031 222.439C587.922 222.439 589.948 222.245 589.948 220.089C589.948 219.311 589.527 218.776 589.203 218.485C588.538 217.934 587.987 217.836 587.112 217.674C586.075 217.496 585.102 217.318 585.102 216.54C585.102 215.486 586.545 215.486 586.885 215.486C588.684 215.486 588.781 216.621 588.814 217.026C588.83 217.237 588.96 217.237 589.154 217.237C589.494 217.237 589.494 217.188 589.494 216.815V215.421Z" fill="black"/>
<path d="M595.278 221.334C595.332 221.118 595.332 220.929 595.332 220.875C595.332 220.091 594.751 219.659 594.143 219.659C592.779 219.659 592.049 221.631 592.049 221.726C592.049 221.793 592.103 221.847 592.184 221.847C592.292 221.847 592.306 221.793 592.373 221.658C592.914 220.348 593.589 219.929 594.103 219.929C594.387 219.929 594.535 220.078 594.535 220.55C594.535 220.875 594.495 221.01 594.441 221.253L593.157 226.347C592.9 227.346 592.265 228.103 591.522 228.103C591.468 228.103 591.184 228.103 590.928 227.968C591.252 227.9 591.509 227.644 591.509 227.319C591.509 227.103 591.347 226.887 591.049 226.887C590.698 226.887 590.374 227.184 590.374 227.59C590.374 228.143 590.968 228.373 591.522 228.373C592.454 228.373 593.684 227.684 594.022 226.333L595.278 221.334ZM595.832 217.186C595.832 216.848 595.548 216.74 595.386 216.74C595.022 216.74 594.711 217.092 594.711 217.389C594.711 217.592 594.873 217.835 595.17 217.835C595.481 217.835 595.832 217.538 595.832 217.186Z" fill="black"/>
<rect x="770" y="105" width="100" height="24" fill="white" stroke="black" stroke-width="2"/>
<path d="M820.634 216.07C820.747 215.827 820.812 215.697 821.833 215.697V215C821.25 215.032 821.217 215.032 820.553 215.032C820.115 215.032 820.083 215.032 819.159 215V215.697C819.597 215.697 819.953 215.778 819.953 215.891C819.953 215.908 819.953 215.924 819.872 216.086L817.976 220.251L815.885 215.697H816.776V215C816.404 215.032 815.269 215.032 814.831 215.032C814.361 215.032 813.421 215.032 813 215V215.697H814.021L816.874 221.888C817.02 222.196 817.052 222.277 817.425 222.277C817.684 222.277 817.814 222.245 817.96 221.921L820.634 216.07Z" fill="black"/>
<path d="M826.927 221.188C826.981 220.972 826.981 220.783 826.981 220.729C826.981 219.945 826.4 219.513 825.792 219.513C824.428 219.513 823.698 221.485 823.698 221.58C823.698 221.648 823.752 221.702 823.833 221.702C823.941 221.702 823.955 221.648 824.022 221.512C824.563 220.202 825.238 219.783 825.752 219.783C826.035 219.783 826.184 219.932 826.184 220.405C826.184 220.729 826.144 220.864 826.09 221.107L824.806 226.201C824.549 227.201 823.914 227.957 823.171 227.957C823.117 227.957 822.833 227.957 822.577 227.822C822.901 227.754 823.158 227.498 823.158 227.174C823.158 226.957 822.996 226.741 822.698 226.741C822.347 226.741 822.023 227.038 822.023 227.444C822.023 227.998 822.617 228.227 823.171 228.227C824.103 228.227 825.333 227.538 825.671 226.187L826.927 221.188ZM827.481 217.04C827.481 216.703 827.197 216.595 827.035 216.595C826.67 216.595 826.36 216.946 826.36 217.243C826.36 217.446 826.522 217.689 826.819 217.689C827.13 217.689 827.481 217.392 827.481 217.04Z" fill="black"/>
<path d="M755.354 117.354C755.549 117.158 755.549 116.842 755.354 116.646L752.172 113.464C751.976 113.269 751.66 113.269 751.464 113.464C751.269 113.66 751.269 113.976 751.464 114.172L754.293 117L751.464 119.828C751.269 120.024 751.269 120.34 751.464 120.536C751.66 120.731 751.976 120.731 752.172 120.536L755.354 117.354ZM655 117.5H755V116.5H655V117.5Z" fill="black"/>
<path d="M688.603 103.409C688.603 103.117 688.587 103.101 688.49 103.101C688.425 103.101 688.409 103.117 688.214 103.36C688.165 103.425 688.02 103.587 687.971 103.652C687.452 103.101 686.723 103.084 686.447 103.084C684.648 103.084 684 104.024 684 104.964C684 106.423 685.653 106.763 686.123 106.861C687.144 107.071 687.501 107.136 687.841 107.428C688.052 107.622 688.409 107.979 688.409 108.563C688.409 109.243 688.02 110.118 686.528 110.118C685.118 110.118 684.616 109.049 684.324 107.622C684.276 107.396 684.276 107.379 684.146 107.379C684.016 107.379 684 107.396 684 107.72V110.054C684 110.345 684.016 110.362 684.113 110.362C684.194 110.362 684.211 110.345 684.292 110.216C684.389 110.07 684.632 109.681 684.729 109.519C685.053 109.956 685.621 110.378 686.528 110.378C688.133 110.378 688.992 109.503 688.992 108.238C688.992 107.412 688.554 106.974 688.344 106.78C687.857 106.277 687.29 106.164 686.609 106.034C685.718 105.84 684.583 105.613 684.583 104.624C684.583 104.203 684.81 103.311 686.447 103.311C688.182 103.311 688.279 104.932 688.311 105.451C688.327 105.532 688.409 105.548 688.457 105.548C688.603 105.548 688.603 105.499 688.603 105.224V103.409Z" fill="black"/>
<path d="M696.059 103.149H695.799L695.313 104.754C694.94 103.895 694.26 103.149 693.174 103.149C691.521 103.149 689.932 104.624 689.932 106.763C689.932 108.887 691.423 110.378 693.044 110.378C694.292 110.378 694.989 109.422 695.2 109.065V112.29C695.2 112.906 695.135 112.987 694.098 112.987V113.409C694.487 113.376 695.2 113.376 695.621 113.376C696.043 113.376 696.772 113.376 697.161 113.409V112.987C696.124 112.987 696.059 112.922 696.059 112.29V103.149ZM695.232 108.028C695.232 108.725 694.649 109.373 694.6 109.422C694.098 109.989 693.514 110.118 693.125 110.118C691.91 110.118 690.97 108.579 690.97 106.78C690.97 104.883 692.039 103.441 693.287 103.441C694.584 103.441 695.232 104.916 695.232 105.759V108.028Z" fill="black"/>
<path d="M701.99 103.327V103.749C702.946 103.749 703.092 103.846 703.092 104.624V107.574C703.092 108.935 702.362 110.118 701.163 110.118C699.834 110.118 699.721 109.324 699.721 108.482V103.149L697.759 103.327V103.749C698.408 103.749 698.845 103.749 698.862 104.397V107.509C698.862 108.595 698.862 109.292 699.283 109.746C699.494 109.956 699.899 110.378 701.066 110.378C702.443 110.378 702.978 109.211 703.108 108.87H703.124V110.378L705.053 110.248V109.827C704.097 109.827 703.951 109.73 703.951 108.952V103.149L701.99 103.327Z" fill="black"/>
<path d="M711.308 106.05C711.308 104.981 711.308 104.413 710.628 103.781C710.028 103.246 709.331 103.084 708.78 103.084C707.5 103.084 706.576 104.089 706.576 105.159C706.576 105.759 707.062 105.791 707.159 105.791C707.37 105.791 707.743 105.661 707.743 105.208C707.743 104.802 707.435 104.624 707.159 104.624C707.094 104.624 707.013 104.64 706.965 104.656C707.305 103.635 708.18 103.344 708.748 103.344C709.558 103.344 710.449 104.057 710.449 105.418V106.131C709.493 106.164 708.342 106.293 707.435 106.78C706.414 107.347 706.122 108.157 706.122 108.773C706.122 110.021 707.581 110.378 708.44 110.378C709.331 110.378 710.158 109.875 710.514 108.952C710.547 109.665 711 110.313 711.714 110.313C712.054 110.313 712.913 110.086 712.913 108.806V107.898H712.621V108.822C712.621 109.811 712.184 109.94 711.973 109.94C711.308 109.94 711.308 109.097 711.308 108.384V106.05ZM710.449 107.995C710.449 109.405 709.444 110.118 708.553 110.118C707.743 110.118 707.111 109.519 707.111 108.773C707.111 108.287 707.321 107.428 708.261 106.909C709.039 106.472 709.931 106.407 710.449 106.374V107.995Z" fill="black"/>
<path d="M717.887 103.409C717.887 103.117 717.871 103.101 717.774 103.101C717.709 103.101 717.693 103.117 717.498 103.36C717.45 103.425 717.304 103.587 717.255 103.652C716.737 103.101 716.007 103.084 715.732 103.084C713.933 103.084 713.284 104.024 713.284 104.964C713.284 106.423 714.938 106.763 715.408 106.861C716.429 107.071 716.785 107.136 717.126 107.428C717.336 107.622 717.693 107.979 717.693 108.563C717.693 109.243 717.304 110.118 715.813 110.118C714.403 110.118 713.9 109.049 713.609 107.622C713.56 107.396 713.56 107.379 713.43 107.379C713.301 107.379 713.284 107.396 713.284 107.72V110.054C713.284 110.345 713.301 110.362 713.398 110.362C713.479 110.362 713.495 110.345 713.576 110.216C713.673 110.07 713.917 109.681 714.014 109.519C714.338 109.956 714.905 110.378 715.813 110.378C717.417 110.378 718.276 109.503 718.276 108.238C718.276 107.412 717.839 106.974 717.628 106.78C717.142 106.277 716.575 106.164 715.894 106.034C715.002 105.84 713.868 105.613 713.868 104.624C713.868 104.203 714.095 103.311 715.732 103.311C717.466 103.311 717.563 104.932 717.596 105.451C717.612 105.532 717.693 105.548 717.742 105.548C717.887 105.548 717.887 105.499 717.887 105.224V103.409Z" fill="black"/>
<path d="M725.408 105.321C725.408 104.494 725.246 103.149 723.333 103.149C722.004 103.149 721.356 104.219 721.162 104.754H721.145V99L719.217 99.1782V99.5997C720.173 99.5997 720.319 99.6969 720.319 100.475V109.13C720.319 109.746 720.254 109.827 719.217 109.827V110.248C719.606 110.216 720.319 110.216 720.74 110.216C721.162 110.216 721.891 110.216 722.28 110.248V109.827C721.243 109.827 721.178 109.762 721.178 109.13V106.018C721.178 104.527 722.085 103.409 723.22 103.409C724.419 103.409 724.549 104.478 724.549 105.256V109.13C724.549 109.746 724.484 109.827 723.447 109.827V110.248C723.836 110.216 724.549 110.216 724.97 110.216C725.392 110.216 726.121 110.216 726.51 110.248V109.827C725.473 109.827 725.408 109.762 725.408 109.13V105.321Z" fill="black"/>
<rect x="310" y="39" width="100" height="24" fill="white" stroke="black" stroke-width="2"/>
<rect x="310" y="73" width="100" height="24" fill="white" stroke="black" stroke-width="2"/>
<rect x="310" y="107" width="100" height="24" fill="white" stroke="black" stroke-width="2"/>
<rect x="310" y="171" width="100" height="24" fill="white" stroke="black" stroke-width="2"/>
<circle cx="360" cy="143" r="2" fill="black"/>
<circle cx="360" cy="151" r="2" fill="black"/>
<circle cx="360" cy="159" r="2" fill="black"/>
<path d="M352.571 210.956L356.979 212.95L357.174 212.593L352.587 210L348 212.593L348.178 212.95L352.571 210.956Z" fill="black"/>
<path d="M353.24 215.12V215.817C354.244 215.817 354.358 215.817 354.358 216.449V219.626C354.358 220.857 353.629 221.846 352.364 221.846C351.149 221.846 351.084 221.441 351.084 220.549V214.99L348.199 215.12V215.817C349.204 215.817 349.317 215.817 349.317 216.449V220.29C349.317 221.911 350.403 222.381 352.138 222.381C352.526 222.381 353.726 222.381 354.423 221.068H354.439V222.381L357.243 222.284V221.587C356.238 221.587 356.125 221.587 356.125 220.955V214.99L353.24 215.12Z" fill="black"/>
<path d="M362.339 222.551C362.393 222.335 362.393 222.146 362.393 222.092C362.393 221.308 361.812 220.876 361.204 220.876C359.84 220.876 359.11 222.848 359.11 222.943C359.11 223.011 359.164 223.065 359.245 223.065C359.353 223.065 359.367 223.011 359.434 222.875C359.975 221.565 360.65 221.146 361.164 221.146C361.447 221.146 361.596 221.295 361.596 221.768C361.596 222.092 361.555 222.227 361.501 222.47L360.218 227.564C359.961 228.563 359.326 229.32 358.583 229.32C358.529 229.32 358.245 229.32 357.989 229.185C358.313 229.117 358.57 228.861 358.57 228.536C358.57 228.32 358.407 228.104 358.11 228.104C357.759 228.104 357.435 228.401 357.435 228.807C357.435 229.361 358.029 229.59 358.583 229.59C359.515 229.59 360.745 228.901 361.083 227.55L362.339 222.551ZM362.893 218.403C362.893 218.066 362.609 217.958 362.447 217.958C362.082 217.958 361.772 218.309 361.772 218.606C361.772 218.809 361.934 219.052 362.231 219.052C362.542 219.052 362.893 218.755 362.893 218.403Z" fill="black"/>
<path d="M365.971 217.187C365.971 216.944 365.971 216.701 365.701 216.701C365.431 216.701 365.431 216.944 365.431 217.187V229.725C365.431 229.969 365.431 230.212 365.701 230.212C365.971 230.212 365.971 229.969 365.971 229.725V217.187Z" fill="black"/>
<path d="M371.386 224.902C371.386 224.835 371.331 224.78 371.25 224.78C371.129 224.78 371.115 224.821 371.048 225.051C370.696 226.28 370.143 226.699 369.697 226.699C369.535 226.699 369.345 226.658 369.345 226.253C369.345 225.888 369.508 225.483 369.656 225.078L370.602 222.565C370.642 222.457 370.737 222.213 370.737 221.957C370.737 221.389 370.332 220.876 369.67 220.876C368.427 220.876 367.927 222.835 367.927 222.943C367.927 222.997 367.981 223.065 368.075 223.065C368.197 223.065 368.21 223.011 368.265 222.821C368.589 221.686 369.102 221.146 369.629 221.146C369.751 221.146 369.98 221.16 369.98 221.592C369.98 221.943 369.805 222.389 369.697 222.686L368.751 225.199C368.67 225.415 368.589 225.632 368.589 225.875C368.589 226.483 369.008 226.969 369.656 226.969C370.899 226.969 371.386 224.997 371.386 224.902ZM371.277 218.403C371.277 218.201 371.115 217.958 370.818 217.958C370.507 217.958 370.156 218.255 370.156 218.606C370.156 218.944 370.44 219.052 370.602 219.052C370.967 219.052 371.277 218.701 371.277 218.403Z" fill="black"/>
<path d="M410.5 29C410.5 27.4876 409.535 26.4127 408.08 25.6647C406.635 24.9216 404.613 24.444 402.254 24.1294C397.526 23.499 391.238 23.5 385 23.5C378.738 23.5 372.526 23.499 367.879 22.8794C365.551 22.569 363.667 22.1091 362.377 21.446C361.097 20.7877 360.5 19.9876 360.5 19L359.5 19C359.5 20.5124 360.465 21.5873 361.92 22.3353C363.365 23.0784 365.387 23.556 367.746 23.8706C372.474 24.501 378.762 24.5 385 24.5C391.262 24.5 397.474 24.501 402.121 25.1206C404.449 25.431 406.333 25.8909 407.623 26.554C408.903 27.2123 409.5 28.0124 409.5 29L410.5 29ZM310.5 29C310.5 28.0124 311.097 27.2123 312.377 26.554C313.667 25.8909 315.551 25.431 317.879 25.1206C322.526 24.501 328.738 24.5 335 24.5C341.238 24.5 347.526 24.501 352.254 23.8706C354.613 23.556 356.635 23.0784 358.08 22.3353C359.535 21.5873 360.5 20.5124 360.5 19L359.5 19C359.5 19.9876 358.903 20.7877 357.623 21.446C356.333 22.1091 354.449 22.569 352.121 22.8794C347.474 23.499 341.262 23.5 335 23.5C328.762 23.5 322.474 23.499 317.746 24.1294C315.387 24.444 313.365 24.9216 311.92 25.6647C310.465 26.4127 309.5 27.4876 309.5 29L310.5 29Z" fill="black"/>
<path d="M365.944 10.2053C365.998 9.98914 365.998 9.8 365.998 9.74595C365.998 8.96232 365.417 8.52998 364.809 8.52998C363.445 8.52998 362.715 10.5026 362.715 10.5971C362.715 10.6647 362.769 10.7187 362.85 10.7187C362.958 10.7187 362.972 10.6647 363.04 10.5296C363.58 9.21903 364.256 8.8002 364.769 8.8002C365.053 8.8002 365.201 8.94882 365.201 9.42169C365.201 9.74595 365.161 9.88106 365.107 10.1243L363.823 15.2178C363.566 16.2176 362.931 16.9742 362.188 16.9742C362.134 16.9742 361.851 16.9742 361.594 16.8391C361.918 16.7716 362.175 16.5149 362.175 16.1906C362.175 15.9744 362.013 15.7583 361.715 15.7583C361.364 15.7583 361.04 16.0555 361.04 16.4608C361.04 17.0148 361.634 17.2444 362.188 17.2444C363.121 17.2444 364.35 16.5554 364.688 15.2043L365.944 10.2053ZM366.498 6.05751C366.498 5.71972 366.215 5.61163 366.052 5.61163C365.688 5.61163 365.377 5.9629 365.377 6.26015C365.377 6.46285 365.539 6.70603 365.836 6.70603C366.147 6.70603 366.498 6.40878 366.498 6.05751Z" fill="black"/>
<path d="M360.504 0.405208C360.52 0.340344 360.553 0.243112 360.553 0.162097C360.553 9.74355e-09 360.391 0 360.358 0C360.342 0 359.548 0.064799 359.467 0.0810152C359.191 0.0972314 358.948 0.129665 358.656 0.145881C358.251 0.178248 358.138 0.194464 358.138 0.486225C358.138 0.648321 358.268 0.648321 358.494 0.648321C359.289 0.648321 359.305 0.794201 359.305 0.956232C359.305 1.05346 359.272 1.18313 359.256 1.23178L358.268 5.17025C358.089 4.74885 357.652 4.10054 356.809 4.10054C354.977 4.10054 353 6.46688 353 8.86562C353 10.4702 353.94 11.4102 355.042 11.4102C355.934 11.4102 356.695 10.7133 357.149 10.1784C357.311 11.1347 358.073 11.4102 358.559 11.4102C359.045 11.4102 359.434 11.1185 359.726 10.535C359.986 9.98395 360.212 8.99528 360.212 8.93045C360.212 8.84941 360.148 8.78458 360.05 8.78458C359.905 8.78458 359.888 8.86562 359.823 9.10874C359.58 10.065 359.272 11.0861 358.608 11.0861C358.138 11.0861 358.105 10.6647 358.105 10.3405C358.105 10.2757 358.105 9.93533 358.219 9.48151L360.504 0.405208ZM357.23 9.31943C357.149 9.59497 357.149 9.62738 356.922 9.93533C356.566 10.3891 355.853 11.0861 355.091 11.0861C354.426 11.0861 354.054 10.4864 354.054 9.53013C354.054 8.63871 354.556 6.82344 354.864 6.14272C355.415 5.00818 356.177 4.42473 356.809 4.42473C357.879 4.42473 358.089 5.75374 358.089 5.8834C358.089 5.8996 358.041 6.1103 358.024 6.14272L357.23 9.31943Z" fill="black"/>
<path d="M295.354 51.3536C295.549 51.1583 295.549 50.8417 295.354 50.6464L292.172 47.4645C291.976 47.2692 291.66 47.2692 291.464 47.4645C291.269 47.6597 291.269 47.9763 291.464 48.1716L294.293 51L291.464 53.8284C291.269 54.0237 291.269 54.3403 291.464 54.5355C291.66 54.7308 291.976 54.7308 292.172 54.5355L295.354 51.3536ZM195 51.5H295V50.5H195V51.5Z" fill="black"/>
<path d="M295.354 85.3536C295.549 85.1583 295.549 84.8417 295.354 84.6464L292.172 81.4645C291.976 81.2692 291.66 81.2692 291.464 81.4645C291.269 81.6597 291.269 81.9763 291.464 82.1716L294.293 85L291.464 87.8284C291.269 88.0237 291.269 88.3403 291.464 88.5355C291.66 88.7308 291.976 88.7308 292.172 88.5355L295.354 85.3536ZM195 85.5H295V84.5H195V85.5Z" fill="black"/>
<path d="M295.354 119.354C295.549 119.158 295.549 118.842 295.354 118.646L292.172 115.464C291.976 115.269 291.66 115.269 291.464 115.464C291.269 115.66 291.269 115.976 291.464 116.172L294.293 119L291.464 121.828C291.269 122.024 291.269 122.34 291.464 122.536C291.66 122.731 291.976 122.731 292.172 122.536L295.354 119.354ZM195 119.5H295V118.5H195V119.5Z" fill="black"/>
<path d="M295.354 183.354C295.549 183.158 295.549 182.842 295.354 182.646L292.172 179.464C291.976 179.269 291.66 179.269 291.464 179.464C291.269 179.66 291.269 179.976 291.464 180.172L294.293 183L291.464 185.828C291.269 186.024 291.269 186.34 291.464 186.536C291.66 186.731 291.976 186.731 292.172 186.536L295.354 183.354ZM195 183.5H295V182.5H195V183.5Z" fill="black"/>
<path d="M247.51 163.08C247.623 162.79 247.655 162.693 249.01 162.693V162C248.203 162.032 248.171 162.032 247.252 162.032C246.784 162.032 245.608 162.032 245.221 162V162.693C245.414 162.693 246.833 162.693 246.833 162.919C246.833 162.935 246.833 162.967 246.768 163.112L244.06 170.303L241.174 162.693H242.705V162C242.189 162.032 240.69 162.032 240.077 162.032C239.577 162.032 238.014 162.032 237.627 162V162.693H238.981L239.642 164.435L237.433 170.303L234.563 162.693H236.079V162C235.611 162.032 234.031 162.032 233.451 162.032C232.935 162.032 231.403 162.032 231 162V162.693H232.354L236.192 172.819C236.288 173.093 236.337 173.206 236.691 173.206C237.046 173.206 237.095 173.093 237.191 172.835L239.997 165.402L242.818 172.835C242.915 173.093 242.963 173.206 243.318 173.206C243.624 173.206 243.705 173.141 243.818 172.835L247.51 163.08Z" fill="black"/>
<path d="M253.115 174.396C253.115 174.329 253.061 174.275 252.98 174.275C252.859 174.275 252.846 174.316 252.779 174.544C252.429 175.767 251.878 176.184 251.434 176.184C251.273 176.184 251.085 176.143 251.085 175.74C251.085 175.377 251.246 174.974 251.394 174.571L252.335 172.071C252.375 171.964 252.469 171.722 252.469 171.466C252.469 170.902 252.066 170.391 251.408 170.391C250.171 170.391 249.674 172.34 249.674 172.447C249.674 172.501 249.728 172.568 249.822 172.568C249.943 172.568 249.956 172.515 250.01 172.326C250.332 171.197 250.843 170.66 251.367 170.66C251.488 170.66 251.717 170.673 251.717 171.103C251.717 171.453 251.542 171.896 251.434 172.192L250.494 174.692C250.413 174.907 250.332 175.122 250.332 175.364C250.332 175.969 250.749 176.453 251.394 176.453C252.631 176.453 253.115 174.49 253.115 174.396ZM253.007 167.932C253.007 167.73 252.846 167.488 252.55 167.488C252.241 167.488 251.891 167.784 251.891 168.133C251.891 168.469 252.174 168.577 252.335 168.577C252.698 168.577 253.007 168.227 253.007 167.932Z" fill="black"/>
<path d="M258.488 172.058C258.541 171.843 258.541 171.654 258.541 171.601C258.541 170.821 257.963 170.391 257.359 170.391C256.001 170.391 255.275 172.353 255.275 172.447C255.275 172.515 255.329 172.568 255.41 172.568C255.517 172.568 255.531 172.515 255.598 172.38C256.136 171.077 256.808 170.66 257.318 170.66C257.601 170.66 257.748 170.808 257.748 171.278C257.748 171.601 257.708 171.735 257.654 171.977L256.378 177.044C256.122 178.039 255.49 178.791 254.751 178.791C254.698 178.791 254.415 178.791 254.16 178.657C254.482 178.59 254.738 178.334 254.738 178.012C254.738 177.797 254.577 177.582 254.281 177.582C253.931 177.582 253.609 177.877 253.609 178.28C253.609 178.832 254.2 179.06 254.751 179.06C255.679 179.06 256.902 178.375 257.238 177.031L258.488 172.058ZM259.039 167.932C259.039 167.595 258.756 167.488 258.595 167.488C258.232 167.488 257.923 167.837 257.923 168.133C257.923 168.335 258.084 168.577 258.38 168.577C258.689 168.577 259.039 168.281 259.039 167.932Z" fill="black"/>
<path d="M246.51 99.0802C246.623 98.79 246.655 98.6933 248.01 98.6933V98C247.203 98.0323 247.171 98.0323 246.252 98.0323C245.784 98.0323 244.608 98.0323 244.221 98V98.6933C244.414 98.6933 245.833 98.6933 245.833 98.919C245.833 98.9351 245.833 98.9674 245.768 99.1125L243.06 106.303L240.174 98.6933H241.705V98C241.189 98.0323 239.69 98.0323 239.077 98.0323C238.577 98.0323 237.014 98.0323 236.627 98V98.6933H237.981L238.642 100.435L236.433 106.303L233.563 98.6933H235.079V98C234.611 98.0323 233.031 98.0323 232.451 98.0323C231.935 98.0323 230.403 98.0323 230 98V98.6933H231.354L235.192 108.819C235.288 109.093 235.337 109.206 235.691 109.206C236.046 109.206 236.095 109.093 236.191 108.835L238.997 101.402L241.818 108.835C241.915 109.093 241.963 109.206 242.318 109.206C242.624 109.206 242.705 109.141 242.818 108.835L246.51 99.0802Z" fill="black"/>
<path d="M251.281 107.749C252.477 107.749 253.002 108.783 253.002 109.98C253.002 111.592 252.141 112.211 251.362 112.211C250.65 112.211 249.494 111.861 249.131 110.826C249.198 110.853 249.265 110.853 249.332 110.853C249.655 110.853 249.897 110.638 249.897 110.289C249.897 109.899 249.601 109.724 249.332 109.724C249.104 109.724 248.754 109.832 248.754 110.329C248.754 111.566 249.964 112.533 251.389 112.533C252.881 112.533 254.023 111.364 254.023 109.993C254.023 108.689 252.948 107.749 251.671 107.601C252.692 107.386 253.674 106.472 253.674 105.249C253.674 104.2 252.612 103.434 251.402 103.434C250.179 103.434 249.104 104.187 249.104 105.262C249.104 105.733 249.453 105.813 249.628 105.813C249.91 105.813 250.152 105.638 250.152 105.289C250.152 104.94 249.91 104.765 249.628 104.765C249.574 104.765 249.507 104.765 249.453 104.792C249.843 103.905 250.905 103.743 251.375 103.743C251.846 103.743 252.733 103.972 252.733 105.262C252.733 105.638 252.679 106.31 252.222 106.902C251.819 107.426 251.362 107.453 250.918 107.493C250.851 107.493 250.542 107.52 250.488 107.52C250.394 107.533 250.34 107.547 250.34 107.641C250.34 107.735 250.354 107.749 250.623 107.749H251.281Z" fill="black"/>
<path d="M259.156 108.058C259.21 107.843 259.21 107.654 259.21 107.601C259.21 106.821 258.632 106.391 258.027 106.391C256.669 106.391 255.944 108.353 255.944 108.447C255.944 108.515 255.997 108.568 256.078 108.568C256.186 108.568 256.199 108.515 256.266 108.38C256.804 107.077 257.476 106.66 257.987 106.66C258.269 106.66 258.417 106.808 258.417 107.278C258.417 107.601 258.376 107.735 258.323 107.977L257.046 113.044C256.79 114.039 256.159 114.791 255.42 114.791C255.366 114.791 255.084 114.791 254.828 114.657C255.151 114.59 255.406 114.334 255.406 114.012C255.406 113.797 255.245 113.582 254.949 113.582C254.6 113.582 254.277 113.877 254.277 114.28C254.277 114.832 254.868 115.06 255.42 115.06C256.347 115.06 257.57 114.375 257.906 113.031L259.156 108.058ZM259.707 103.932C259.707 103.595 259.425 103.488 259.263 103.488C258.901 103.488 258.591 103.837 258.591 104.133C258.591 104.335 258.753 104.577 259.048 104.577C259.358 104.577 259.707 104.281 259.707 103.932Z" fill="black"/>
<path d="M246.51 65.0802C246.623 64.79 246.655 64.6933 248.01 64.6933V64C247.203 64.0323 247.171 64.0323 246.252 64.0323C245.784 64.0323 244.608 64.0323 244.221 64V64.6933C244.414 64.6933 245.833 64.6933 245.833 64.919C245.833 64.9351 245.833 64.9674 245.768 65.1125L243.06 72.3034L240.174 64.6933H241.705V64C241.189 64.0323 239.69 64.0323 239.077 64.0323C238.577 64.0323 237.014 64.0323 236.627 64V64.6933H237.981L238.642 66.4346L236.433 72.3034L233.563 64.6933H235.079V64C234.611 64.0323 233.031 64.0323 232.451 64.0323C231.935 64.0323 230.403 64.0323 230 64V64.6933H231.354L235.192 74.8186C235.288 75.0927 235.337 75.2055 235.691 75.2055C236.046 75.2055 236.095 75.0927 236.191 74.8347L238.997 67.4019L241.818 74.8347C241.915 75.0927 241.963 75.2055 242.318 75.2055C242.624 75.2055 242.705 75.141 242.818 74.8347L246.51 65.0802Z" fill="black"/>
<path d="M253.915 76.235H253.674C253.539 77.1892 253.432 77.3505 253.378 77.4312C253.311 77.5387 252.343 77.5387 252.155 77.5387H249.574C250.058 77.0145 250.999 76.0603 252.141 74.9582C252.961 74.1786 253.915 73.2647 253.915 71.9341C253.915 70.3481 252.652 69.4342 251.241 69.4342C249.762 69.4342 248.862 70.7379 248.862 71.9476C248.862 72.4717 249.252 72.5389 249.413 72.5389C249.547 72.5389 249.951 72.4583 249.951 71.9879C249.951 71.5712 249.601 71.4503 249.413 71.4503C249.332 71.4503 249.252 71.4637 249.198 71.4906C249.453 70.3481 250.233 69.7837 251.053 69.7837C252.222 69.7837 252.988 70.711 252.988 71.9341C252.988 73.1034 252.303 74.1114 251.537 74.985L248.862 78.0091V78.3182H253.593L253.915 76.235Z" fill="black"/>
<path d="M259.156 74.0576C259.21 73.8426 259.21 73.6544 259.21 73.6007C259.21 72.8211 258.632 72.3911 258.027 72.3911C256.669 72.3911 255.944 74.3533 255.944 74.4474C255.944 74.5146 255.997 74.5684 256.078 74.5684C256.186 74.5684 256.199 74.5146 256.266 74.3802C256.804 73.0765 257.476 72.6599 257.987 72.6599C258.269 72.6599 258.417 72.8077 258.417 73.2781C258.417 73.6007 258.376 73.7351 258.323 73.977L257.046 79.044C256.79 80.0385 256.159 80.7912 255.42 80.7912C255.366 80.7912 255.084 80.7912 254.828 80.6568C255.151 80.5896 255.406 80.3342 255.406 80.0117C255.406 79.7966 255.245 79.5816 254.949 79.5816C254.6 79.5816 254.277 79.8773 254.277 80.2805C254.277 80.8315 254.868 81.06 255.42 81.06C256.347 81.06 257.57 80.3746 257.906 79.0305L259.156 74.0576ZM259.707 69.9315C259.707 69.5955 259.425 69.488 259.263 69.488C258.901 69.488 258.591 69.8374 258.591 70.1331C258.591 70.3347 258.753 70.5766 259.048 70.5766C259.357 70.5766 259.707 70.2809 259.707 69.9315Z" fill="black"/>
<path d="M246.51 31.0802C246.623 30.79 246.655 30.6933 248.01 30.6933V30C247.203 30.0323 247.171 30.0323 246.252 30.0323C245.784 30.0323 244.608 30.0323 244.221 30V30.6933C244.414 30.6933 245.833 30.6933 245.833 30.919C245.833 30.9351 245.833 30.9674 245.768 31.1125L243.06 38.3034L240.174 30.6933H241.705V30C241.189 30.0323 239.69 30.0323 239.077 30.0323C238.577 30.0323 237.014 30.0323 236.627 30V30.6933H237.981L238.642 32.4346L236.433 38.3034L233.563 30.6933H235.079V30C234.611 30.0323 233.031 30.0323 232.451 30.0323C231.935 30.0323 230.403 30.0323 230 30V30.6933H231.354L235.192 40.8186C235.288 41.0927 235.337 41.2055 235.691 41.2055C236.046 41.2055 236.095 41.0927 236.191 40.8347L238.997 33.4019L241.818 40.8347C241.915 41.0927 241.963 41.2055 242.318 41.2055C242.624 41.2055 242.705 41.141 242.818 40.8347L246.51 31.0802Z" fill="black"/>
<path d="M251.886 35.7299C251.886 35.4476 251.873 35.4342 251.684 35.4342C251.16 36.0659 250.367 36.2675 249.615 36.2944C249.574 36.2944 249.507 36.2944 249.494 36.3213C249.48 36.3481 249.48 36.3751 249.48 36.6573C249.897 36.6573 250.596 36.5767 251.133 36.2541V43.3371C251.133 43.8075 251.106 43.9688 249.951 43.9688H249.547V44.3182C250.193 44.3048 250.865 44.2913 251.51 44.2913C252.155 44.2913 252.827 44.3048 253.472 44.3182V43.9688H253.069C251.913 43.9688 251.886 43.8209 251.886 43.3371V35.7299Z" fill="black"/>
<path d="M259.156 40.0576C259.21 39.8426 259.21 39.6544 259.21 39.6007C259.21 38.8211 258.632 38.3911 258.027 38.3911C256.669 38.3911 255.944 40.3533 255.944 40.4474C255.944 40.5146 255.997 40.5684 256.078 40.5684C256.186 40.5684 256.199 40.5146 256.266 40.3802C256.804 39.0765 257.476 38.6599 257.987 38.6599C258.269 38.6599 258.417 38.8077 258.417 39.2781C258.417 39.6007 258.376 39.7351 258.323 39.977L257.046 45.044C256.79 46.0385 256.159 46.7912 255.42 46.7912C255.366 46.7912 255.084 46.7912 254.828 46.6568C255.151 46.5896 255.406 46.3342 255.406 46.0117C255.406 45.7966 255.245 45.5816 254.949 45.5816C254.6 45.5816 254.277 45.8773 254.277 46.2805C254.277 46.8315 254.868 47.06 255.42 47.06C256.347 47.06 257.57 46.3746 257.906 45.0305L259.156 40.0576ZM259.707 35.9315C259.707 35.5955 259.425 35.488 259.263 35.488C258.901 35.488 258.591 35.8374 258.591 36.1331C258.591 36.3347 258.753 36.5766 259.048 36.5766C259.357 36.5766 259.707 36.2809 259.707 35.9315Z" fill="black"/>
</svg>
