<svg width="670" height="187" viewBox="0 0 670 187" fill="none" xmlns="http://www.w3.org/2000/svg">
<path d="M8.5 128C8.5 129.512 9.4653 130.587 10.9198 131.335C12.3647 132.078 14.3867 132.556 16.7464 132.871C21.4742 133.501 27.7623 133.5 34 133.5C40.2623 133.5 46.4742 133.501 51.1214 134.121C53.4492 134.431 55.3335 134.891 56.6229 135.554C57.9028 136.212 58.5 137.012 58.5 138L59.5 138C59.5 136.488 58.5347 135.413 57.0802 134.665C55.6353 133.922 53.6133 133.444 51.2536 133.129C46.5258 132.499 40.2377 132.5 34 132.5C27.7377 132.5 21.5258 132.499 16.8786 131.879C14.5508 131.569 12.6665 131.109 11.3771 130.446C10.0972 129.788 9.5 128.988 9.5 128L8.5 128ZM108.5 128C108.5 128.988 107.903 129.788 106.623 130.446C105.333 131.109 103.449 131.569 101.121 131.879C96.4742 132.499 90.2623 132.5 84 132.5C77.7623 132.5 71.4742 132.499 66.7464 133.129C64.3867 133.444 62.3647 133.922 60.9198 134.665C59.4653 135.413 58.5 136.488 58.5 138L59.5 138C59.5 137.012 60.0972 136.212 61.3771 135.554C62.6665 134.891 64.5508 134.431 66.8786 134.121C71.5258 133.501 77.7377 133.5 84 133.5C90.2377 133.5 96.5258 133.501 101.254 132.871C103.613 132.556 105.635 132.078 107.08 131.335C108.535 130.587 109.5 129.512 109.5 128L108.5 128Z" fill="black"/>
<path d="M8.5 128C8.5 129.512 9.4653 130.587 10.9198 131.335C12.3647 132.078 14.3867 132.556 16.7464 132.871C21.4742 133.501 27.7623 133.5 34 133.5C40.2623 133.5 46.4742 133.501 51.1214 134.121C53.4492 134.431 55.3335 134.891 56.6229 135.554C57.9028 136.212 58.5 137.012 58.5 138L59.5 138C59.5 136.488 58.5347 135.413 57.0802 134.665C55.6353 133.922 53.6133 133.444 51.2536 133.129C46.5258 132.499 40.2377 132.5 34 132.5C27.7377 132.5 21.5258 132.499 16.8786 131.879C14.5508 131.569 12.6665 131.109 11.3771 130.446C10.0972 129.788 9.5 128.988 9.5 128L8.5 128ZM108.5 128C108.5 128.988 107.903 129.788 106.623 130.446C105.333 131.109 103.449 131.569 101.121 131.879C96.4742 132.499 90.2623 132.5 84 132.5C77.7623 132.5 71.4742 132.499 66.7464 133.129C64.3867 133.444 62.3647 133.922 60.9198 134.665C59.4653 135.413 58.5 136.488 58.5 138L59.5 138C59.5 137.012 60.0972 136.212 61.3771 135.554C62.6665 134.891 64.5508 134.431 66.8786 134.121C71.5258 133.501 77.7377 133.5 84 133.5C90.2377 133.5 96.5258 133.501 101.254 132.871C103.613 132.556 105.635 132.078 107.08 131.335C108.535 130.587 109.5 129.512 109.5 128L108.5 128Z" fill="black"/>
<path d="M58.0273 144.449C58.0273 144.996 57.873 145.443 57.5645 145.791C57.2598 146.139 56.8262 146.371 56.2637 146.488V146.535C56.9512 146.621 57.4609 146.84 57.793 147.191C58.125 147.543 58.291 148.004 58.291 148.574C58.291 149.391 58.0078 150.02 57.4414 150.461C56.875 150.898 56.0703 151.117 55.0273 151.117C54.5742 151.117 54.1582 151.082 53.7793 151.012C53.4043 150.945 53.0391 150.826 52.6836 150.654V149.729C53.0547 149.912 53.4492 150.053 53.8672 150.15C54.2891 150.244 54.6875 150.291 55.0625 150.291C56.543 150.291 57.2832 149.711 57.2832 148.551C57.2832 147.512 56.4668 146.992 54.834 146.992H53.9902V146.154H54.8457C55.5137 146.154 56.043 146.008 56.4336 145.715C56.8242 145.418 57.0195 145.008 57.0195 144.484C57.0195 144.066 56.875 143.738 56.5859 143.5C56.3008 143.262 55.9121 143.143 55.4199 143.143C55.0449 143.143 54.6914 143.193 54.3594 143.295C54.0273 143.396 53.6484 143.584 53.2227 143.857L52.7305 143.201C53.082 142.924 53.4863 142.707 53.9434 142.551C54.4043 142.391 54.8887 142.311 55.3965 142.311C56.2285 142.311 56.875 142.502 57.3359 142.885C57.7969 143.264 58.0273 143.785 58.0273 144.449ZM65.2168 151H59.5859V150.162L61.8418 147.895C62.5293 147.199 62.9824 146.703 63.2012 146.406C63.4199 146.109 63.584 145.82 63.6934 145.539C63.8027 145.258 63.8574 144.955 63.8574 144.631C63.8574 144.174 63.7188 143.812 63.4414 143.547C63.1641 143.277 62.7793 143.143 62.2871 143.143C61.9316 143.143 61.5938 143.201 61.2734 143.318C60.957 143.436 60.6035 143.648 60.2129 143.957L59.6973 143.295C60.4863 142.639 61.3457 142.311 62.2754 142.311C63.0801 142.311 63.7109 142.518 64.168 142.932C64.625 143.342 64.8535 143.895 64.8535 144.59C64.8535 145.133 64.7012 145.67 64.3965 146.201C64.0918 146.732 63.5215 147.404 62.6855 148.217L60.8105 150.051V150.098H65.2168V151Z" fill="black"/>
<path d="M43.4219 184V175.434H44.418V184H43.4219ZM54.8125 184V179.822C54.8125 179.311 54.7031 178.928 54.4844 178.674C54.2656 178.416 53.9258 178.287 53.4648 178.287C52.8594 178.287 52.4121 178.461 52.123 178.809C51.834 179.156 51.6895 179.691 51.6895 180.414V184H50.7168V179.822C50.7168 179.311 50.6074 178.928 50.3887 178.674C50.1699 178.416 49.8281 178.287 49.3633 178.287C48.7539 178.287 48.3066 178.471 48.0215 178.838C47.7402 179.201 47.5996 179.799 47.5996 180.631V184H46.627V177.578H47.418L47.5762 178.457H47.623C47.8066 178.145 48.0645 177.9 48.3965 177.725C48.7324 177.549 49.1074 177.461 49.5215 177.461C50.5254 177.461 51.1816 177.824 51.4902 178.551H51.5371C51.7285 178.215 52.0059 177.949 52.3691 177.754C52.7324 177.559 53.1465 177.461 53.6113 177.461C54.3379 177.461 54.8809 177.648 55.2402 178.023C55.6035 178.395 55.7852 178.99 55.7852 179.811V184H54.8125ZM61.7441 184L61.5508 183.086H61.5039C61.1836 183.488 60.8633 183.762 60.543 183.906C60.2266 184.047 59.8301 184.117 59.3535 184.117C58.7168 184.117 58.2168 183.953 57.8535 183.625C57.4941 183.297 57.3145 182.83 57.3145 182.225C57.3145 180.928 58.3516 180.248 60.4258 180.186L61.5156 180.15V179.752C61.5156 179.248 61.4062 178.877 61.1875 178.639C60.9727 178.396 60.627 178.275 60.1504 178.275C59.6152 178.275 59.0098 178.439 58.334 178.768L58.0352 178.023C58.3516 177.852 58.6973 177.717 59.0723 177.619C59.4512 177.521 59.8301 177.473 60.209 177.473C60.9746 177.473 61.541 177.643 61.9082 177.982C62.2793 178.322 62.4648 178.867 62.4648 179.617V184H61.7441ZM59.5469 183.314C60.1523 183.314 60.627 183.148 60.9707 182.816C61.3184 182.484 61.4922 182.02 61.4922 181.422V180.842L60.5195 180.883C59.7461 180.91 59.1875 181.031 58.8438 181.246C58.5039 181.457 58.334 181.787 58.334 182.236C58.334 182.588 58.4395 182.855 58.6504 183.039C58.8652 183.223 59.1641 183.314 59.5469 183.314ZM69.7305 177.578V178.193L68.541 178.334C68.6504 178.471 68.748 178.65 68.834 178.873C68.9199 179.092 68.9629 179.34 68.9629 179.617C68.9629 180.246 68.748 180.748 68.3184 181.123C67.8887 181.498 67.2988 181.686 66.5488 181.686C66.3574 181.686 66.1777 181.67 66.0098 181.639C65.5957 181.857 65.3887 182.133 65.3887 182.465C65.3887 182.641 65.4609 182.771 65.6055 182.857C65.75 182.939 65.998 182.98 66.3496 182.98H67.4863C68.1816 182.98 68.7148 183.127 69.0859 183.42C69.4609 183.713 69.6484 184.139 69.6484 184.697C69.6484 185.408 69.3633 185.949 68.793 186.32C68.2227 186.695 67.3906 186.883 66.2969 186.883C65.457 186.883 64.8086 186.727 64.3516 186.414C63.8984 186.102 63.6719 185.66 63.6719 185.09C63.6719 184.699 63.7969 184.361 64.0469 184.076C64.2969 183.791 64.6484 183.598 65.1016 183.496C64.9375 183.422 64.7988 183.307 64.6855 183.15C64.5762 182.994 64.5215 182.812 64.5215 182.605C64.5215 182.371 64.584 182.166 64.709 181.99C64.834 181.814 65.0312 181.645 65.3008 181.48C64.9688 181.344 64.6973 181.111 64.4863 180.783C64.2793 180.455 64.1758 180.08 64.1758 179.658C64.1758 178.955 64.3867 178.414 64.8086 178.035C65.2305 177.652 65.8281 177.461 66.6016 177.461C66.9375 177.461 67.2402 177.5 67.5098 177.578H69.7305ZM64.6094 185.078C64.6094 185.426 64.7559 185.689 65.0488 185.869C65.3418 186.049 65.7617 186.139 66.3086 186.139C67.125 186.139 67.7285 186.016 68.1191 185.77C68.5137 185.527 68.7109 185.197 68.7109 184.779C68.7109 184.432 68.6035 184.189 68.3887 184.053C68.1738 183.92 67.7695 183.854 67.1758 183.854H66.0098C65.5684 183.854 65.2246 183.959 64.9785 184.17C64.7324 184.381 64.6094 184.684 64.6094 185.078ZM65.1367 179.635C65.1367 180.084 65.2637 180.424 65.5176 180.654C65.7715 180.885 66.125 181 66.5781 181C67.5273 181 68.002 180.539 68.002 179.617C68.002 178.652 67.5215 178.17 66.5605 178.17C66.1035 178.17 65.752 178.293 65.5059 178.539C65.2598 178.785 65.1367 179.15 65.1367 179.635ZM73.7617 184.117C72.8125 184.117 72.0625 183.828 71.5117 183.25C70.9648 182.672 70.6914 181.869 70.6914 180.842C70.6914 179.807 70.9453 178.984 71.4531 178.375C71.9648 177.766 72.6504 177.461 73.5098 177.461C74.3145 177.461 74.9512 177.727 75.4199 178.258C75.8887 178.785 76.123 179.482 76.123 180.35V180.965H71.6992C71.7188 181.719 71.9082 182.291 72.2676 182.682C72.6309 183.072 73.1406 183.268 73.7969 183.268C74.4883 183.268 75.1719 183.123 75.8477 182.834V183.701C75.5039 183.85 75.1777 183.955 74.8691 184.018C74.5645 184.084 74.1953 184.117 73.7617 184.117ZM73.498 178.275C72.9824 178.275 72.5703 178.443 72.2617 178.779C71.957 179.115 71.7773 179.58 71.7227 180.174H75.0801C75.0801 179.561 74.9434 179.092 74.6699 178.768C74.3965 178.439 74.0059 178.275 73.498 178.275Z" fill="black"/>
<path d="M151.125 176.201C150.184 176.201 149.439 176.516 148.893 177.145C148.35 177.77 148.078 178.627 148.078 179.717C148.078 180.838 148.34 181.705 148.863 182.318C149.391 182.928 150.141 183.232 151.113 183.232C151.711 183.232 152.393 183.125 153.158 182.91V183.783C152.564 184.006 151.832 184.117 150.961 184.117C149.699 184.117 148.725 183.734 148.037 182.969C147.354 182.203 147.012 181.115 147.012 179.705C147.012 178.822 147.176 178.049 147.504 177.385C147.836 176.721 148.312 176.209 148.934 175.85C149.559 175.49 150.293 175.311 151.137 175.311C152.035 175.311 152.82 175.475 153.492 175.803L153.07 176.658C152.422 176.354 151.773 176.201 151.125 176.201ZM160.424 180.783C160.424 181.83 160.16 182.648 159.633 183.238C159.105 183.824 158.377 184.117 157.447 184.117C156.873 184.117 156.363 183.982 155.918 183.713C155.473 183.443 155.129 183.057 154.887 182.553C154.645 182.049 154.523 181.459 154.523 180.783C154.523 179.736 154.785 178.922 155.309 178.34C155.832 177.754 156.559 177.461 157.488 177.461C158.387 177.461 159.1 177.76 159.627 178.357C160.158 178.955 160.424 179.764 160.424 180.783ZM155.531 180.783C155.531 181.604 155.695 182.229 156.023 182.658C156.352 183.088 156.834 183.303 157.471 183.303C158.107 183.303 158.59 183.09 158.918 182.664C159.25 182.234 159.416 181.607 159.416 180.783C159.416 179.967 159.25 179.348 158.918 178.926C158.59 178.5 158.104 178.287 157.459 178.287C156.822 178.287 156.342 178.496 156.018 178.914C155.693 179.332 155.531 179.955 155.531 180.783ZM166.529 184V179.846C166.529 179.322 166.41 178.932 166.172 178.674C165.934 178.416 165.561 178.287 165.053 178.287C164.381 178.287 163.889 178.469 163.576 178.832C163.264 179.195 163.107 179.795 163.107 180.631V184H162.135V177.578H162.926L163.084 178.457H163.131C163.33 178.141 163.609 177.896 163.969 177.725C164.328 177.549 164.729 177.461 165.17 177.461C165.943 177.461 166.525 177.648 166.916 178.023C167.307 178.395 167.502 178.99 167.502 179.811V184H166.529ZM170.912 184L168.475 177.578H169.518L170.9 181.387C171.213 182.277 171.396 182.855 171.451 183.121H171.498C171.541 182.914 171.676 182.486 171.902 181.838C172.133 181.186 172.646 179.766 173.443 177.578H174.486L172.049 184H170.912ZM181.43 179.365H183.844V180.174H181.43V182.67H180.615V180.174H178.213V179.365H180.615V176.857H181.43V179.365ZM189.762 180.438V184H188.766V175.434H191.115C192.166 175.434 192.941 175.635 193.441 176.037C193.945 176.439 194.197 177.045 194.197 177.854C194.197 178.986 193.623 179.752 192.475 180.15L194.801 184H193.623L191.549 180.438H189.762ZM189.762 179.582H191.127C191.83 179.582 192.346 179.443 192.674 179.166C193.002 178.885 193.166 178.465 193.166 177.906C193.166 177.34 192.998 176.932 192.662 176.682C192.33 176.432 191.795 176.307 191.057 176.307H189.762V179.582ZM198.75 184.117C197.801 184.117 197.051 183.828 196.5 183.25C195.953 182.672 195.68 181.869 195.68 180.842C195.68 179.807 195.934 178.984 196.441 178.375C196.953 177.766 197.639 177.461 198.498 177.461C199.303 177.461 199.939 177.727 200.408 178.258C200.877 178.785 201.111 179.482 201.111 180.35V180.965H196.688C196.707 181.719 196.896 182.291 197.256 182.682C197.619 183.072 198.129 183.268 198.785 183.268C199.477 183.268 200.16 183.123 200.836 182.834V183.701C200.492 183.85 200.166 183.955 199.857 184.018C199.553 184.084 199.184 184.117 198.75 184.117ZM198.486 178.275C197.971 178.275 197.559 178.443 197.25 178.779C196.945 179.115 196.766 179.58 196.711 180.174H200.068C200.068 179.561 199.932 179.092 199.658 178.768C199.385 178.439 198.994 178.275 198.486 178.275ZM202.922 184V175.434H203.918V183.098H207.697V184H202.922ZM215.625 175.434V180.977C215.625 181.953 215.33 182.721 214.74 183.279C214.15 183.838 213.34 184.117 212.309 184.117C211.277 184.117 210.479 183.836 209.912 183.273C209.35 182.711 209.068 181.938 209.068 180.953V175.434H210.064V181.023C210.064 181.738 210.26 182.287 210.65 182.67C211.041 183.053 211.615 183.244 212.373 183.244C213.096 183.244 213.652 183.053 214.043 182.67C214.434 182.283 214.629 181.73 214.629 181.012V175.434H215.625Z" fill="black"/>
<path d="M283.242 176.201C282.301 176.201 281.557 176.516 281.01 177.145C280.467 177.77 280.195 178.627 280.195 179.717C280.195 180.838 280.457 181.705 280.98 182.318C281.508 182.928 282.258 183.232 283.23 183.232C283.828 183.232 284.51 183.125 285.275 182.91V183.783C284.682 184.006 283.949 184.117 283.078 184.117C281.816 184.117 280.842 183.734 280.154 182.969C279.471 182.203 279.129 181.115 279.129 179.705C279.129 178.822 279.293 178.049 279.621 177.385C279.953 176.721 280.43 176.209 281.051 175.85C281.676 175.49 282.41 175.311 283.254 175.311C284.152 175.311 284.938 175.475 285.609 175.803L285.188 176.658C284.539 176.354 283.891 176.201 283.242 176.201ZM292.541 180.783C292.541 181.83 292.277 182.648 291.75 183.238C291.223 183.824 290.494 184.117 289.564 184.117C288.99 184.117 288.48 183.982 288.035 183.713C287.59 183.443 287.246 183.057 287.004 182.553C286.762 182.049 286.641 181.459 286.641 180.783C286.641 179.736 286.902 178.922 287.426 178.34C287.949 177.754 288.676 177.461 289.605 177.461C290.504 177.461 291.217 177.76 291.744 178.357C292.275 178.955 292.541 179.764 292.541 180.783ZM287.648 180.783C287.648 181.604 287.812 182.229 288.141 182.658C288.469 183.088 288.951 183.303 289.588 183.303C290.225 183.303 290.707 183.09 291.035 182.664C291.367 182.234 291.533 181.607 291.533 180.783C291.533 179.967 291.367 179.348 291.035 178.926C290.707 178.5 290.221 178.287 289.576 178.287C288.939 178.287 288.459 178.496 288.135 178.914C287.811 179.332 287.648 179.955 287.648 180.783ZM298.646 184V179.846C298.646 179.322 298.527 178.932 298.289 178.674C298.051 178.416 297.678 178.287 297.17 178.287C296.498 178.287 296.006 178.469 295.693 178.832C295.381 179.195 295.225 179.795 295.225 180.631V184H294.252V177.578H295.043L295.201 178.457H295.248C295.447 178.141 295.727 177.896 296.086 177.725C296.445 177.549 296.846 177.461 297.287 177.461C298.061 177.461 298.643 177.648 299.033 178.023C299.424 178.395 299.619 178.99 299.619 179.811V184H298.646ZM303.029 184L300.592 177.578H301.635L303.018 181.387C303.33 182.277 303.514 182.855 303.568 183.121H303.615C303.658 182.914 303.793 182.486 304.02 181.838C304.25 181.186 304.764 179.766 305.561 177.578H306.604L304.166 184H303.029Z" fill="black"/>
<path d="M374.557 180.438V184H373.561V175.434H375.91C376.961 175.434 377.736 175.635 378.236 176.037C378.74 176.439 378.992 177.045 378.992 177.854C378.992 178.986 378.418 179.752 377.27 180.15L379.596 184H378.418L376.344 180.438H374.557ZM374.557 179.582H375.922C376.625 179.582 377.141 179.443 377.469 179.166C377.797 178.885 377.961 178.465 377.961 177.906C377.961 177.34 377.793 176.932 377.457 176.682C377.125 176.432 376.59 176.307 375.852 176.307H374.557V179.582ZM383.545 184.117C382.596 184.117 381.846 183.828 381.295 183.25C380.748 182.672 380.475 181.869 380.475 180.842C380.475 179.807 380.729 178.984 381.236 178.375C381.748 177.766 382.434 177.461 383.293 177.461C384.098 177.461 384.734 177.727 385.203 178.258C385.672 178.785 385.906 179.482 385.906 180.35V180.965H381.482C381.502 181.719 381.691 182.291 382.051 182.682C382.414 183.072 382.924 183.268 383.58 183.268C384.271 183.268 384.955 183.123 385.631 182.834V183.701C385.287 183.85 384.961 183.955 384.652 184.018C384.348 184.084 383.979 184.117 383.545 184.117ZM383.281 178.275C382.766 178.275 382.354 178.443 382.045 178.779C381.74 179.115 381.561 179.58 381.506 180.174H384.863C384.863 179.561 384.727 179.092 384.453 178.768C384.18 178.439 383.789 178.275 383.281 178.275ZM391.713 182.248C391.713 182.846 391.49 183.307 391.045 183.631C390.6 183.955 389.975 184.117 389.17 184.117C388.318 184.117 387.654 183.982 387.178 183.713V182.811C387.486 182.967 387.816 183.09 388.168 183.18C388.523 183.27 388.865 183.314 389.193 183.314C389.701 183.314 390.092 183.234 390.365 183.074C390.639 182.91 390.775 182.662 390.775 182.33C390.775 182.08 390.666 181.867 390.447 181.691C390.232 181.512 389.811 181.301 389.182 181.059C388.584 180.836 388.158 180.643 387.904 180.479C387.654 180.311 387.467 180.121 387.342 179.91C387.221 179.699 387.16 179.447 387.16 179.154C387.16 178.631 387.373 178.219 387.799 177.918C388.225 177.613 388.809 177.461 389.551 177.461C390.242 177.461 390.918 177.602 391.578 177.883L391.232 178.674C390.588 178.408 390.004 178.275 389.48 178.275C389.02 178.275 388.672 178.348 388.438 178.492C388.203 178.637 388.086 178.836 388.086 179.09C388.086 179.262 388.129 179.408 388.215 179.529C388.305 179.65 388.447 179.766 388.643 179.875C388.838 179.984 389.213 180.143 389.768 180.35C390.529 180.627 391.043 180.906 391.309 181.188C391.578 181.469 391.713 181.822 391.713 182.248ZM397.695 184V179.846C397.695 179.322 397.576 178.932 397.338 178.674C397.1 178.416 396.727 178.287 396.219 178.287C395.543 178.287 395.049 178.471 394.736 178.838C394.428 179.205 394.273 179.807 394.273 180.643V184H393.301V174.883H394.273V177.643C394.273 177.975 394.258 178.25 394.227 178.469H394.285C394.477 178.16 394.748 177.918 395.1 177.742C395.455 177.562 395.859 177.473 396.312 177.473C397.098 177.473 397.686 177.66 398.076 178.035C398.471 178.406 398.668 178.998 398.668 179.811V184H397.695ZM404.621 184L404.428 183.086H404.381C404.061 183.488 403.74 183.762 403.42 183.906C403.104 184.047 402.707 184.117 402.23 184.117C401.594 184.117 401.094 183.953 400.73 183.625C400.371 183.297 400.191 182.83 400.191 182.225C400.191 180.928 401.229 180.248 403.303 180.186L404.393 180.15V179.752C404.393 179.248 404.283 178.877 404.064 178.639C403.85 178.396 403.504 178.275 403.027 178.275C402.492 178.275 401.887 178.439 401.211 178.768L400.912 178.023C401.229 177.852 401.574 177.717 401.949 177.619C402.328 177.521 402.707 177.473 403.086 177.473C403.852 177.473 404.418 177.643 404.785 177.982C405.156 178.322 405.342 178.867 405.342 179.617V184H404.621ZM402.424 183.314C403.029 183.314 403.504 183.148 403.848 182.816C404.195 182.484 404.369 182.02 404.369 181.422V180.842L403.396 180.883C402.623 180.91 402.064 181.031 401.721 181.246C401.381 181.457 401.211 181.787 401.211 182.236C401.211 182.588 401.316 182.855 401.527 183.039C401.742 183.223 402.041 183.314 402.424 183.314ZM410.34 184.117C409.922 184.117 409.539 184.041 409.191 183.889C408.848 183.732 408.559 183.494 408.324 183.174H408.254C408.301 183.549 408.324 183.904 408.324 184.24V186.883H407.352V177.578H408.143L408.277 178.457H408.324C408.574 178.105 408.865 177.852 409.197 177.695C409.529 177.539 409.91 177.461 410.34 177.461C411.191 177.461 411.848 177.752 412.309 178.334C412.773 178.916 413.006 179.732 413.006 180.783C413.006 181.838 412.77 182.658 412.297 183.244C411.828 183.826 411.176 184.117 410.34 184.117ZM410.199 178.287C409.543 178.287 409.068 178.469 408.775 178.832C408.482 179.195 408.332 179.773 408.324 180.566V180.783C408.324 181.686 408.475 182.332 408.775 182.723C409.076 183.109 409.559 183.303 410.223 183.303C410.777 183.303 411.211 183.078 411.523 182.629C411.84 182.18 411.998 181.561 411.998 180.771C411.998 179.971 411.84 179.357 411.523 178.932C411.211 178.502 410.77 178.287 410.199 178.287ZM417.424 184.117C416.475 184.117 415.725 183.828 415.174 183.25C414.627 182.672 414.354 181.869 414.354 180.842C414.354 179.807 414.607 178.984 415.115 178.375C415.627 177.766 416.312 177.461 417.172 177.461C417.977 177.461 418.613 177.727 419.082 178.258C419.551 178.785 419.785 179.482 419.785 180.35V180.965H415.361C415.381 181.719 415.57 182.291 415.93 182.682C416.293 183.072 416.803 183.268 417.459 183.268C418.15 183.268 418.834 183.123 419.51 182.834V183.701C419.166 183.85 418.84 183.955 418.531 184.018C418.227 184.084 417.857 184.117 417.424 184.117ZM417.16 178.275C416.645 178.275 416.232 178.443 415.924 178.779C415.619 179.115 415.439 179.58 415.385 180.174H418.742C418.742 179.561 418.605 179.092 418.332 178.768C418.059 178.439 417.668 178.275 417.16 178.275ZM427.361 179.365H429.775V180.174H427.361V182.67H426.547V180.174H424.145V179.365H426.547V176.857H427.361V179.365ZM439.531 181.721C439.531 182.475 439.258 183.062 438.711 183.484C438.164 183.906 437.422 184.117 436.484 184.117C435.469 184.117 434.688 183.986 434.141 183.725V182.764C434.492 182.912 434.875 183.029 435.289 183.115C435.703 183.201 436.113 183.244 436.52 183.244C437.184 183.244 437.684 183.119 438.02 182.869C438.355 182.615 438.523 182.264 438.523 181.814C438.523 181.518 438.463 181.275 438.342 181.088C438.225 180.896 438.025 180.721 437.744 180.561C437.467 180.4 437.043 180.219 436.473 180.016C435.676 179.73 435.105 179.393 434.762 179.002C434.422 178.611 434.252 178.102 434.252 177.473C434.252 176.812 434.5 176.287 434.996 175.896C435.492 175.506 436.148 175.311 436.965 175.311C437.816 175.311 438.6 175.467 439.314 175.779L439.004 176.646C438.297 176.35 437.609 176.201 436.941 176.201C436.414 176.201 436.002 176.314 435.705 176.541C435.408 176.768 435.26 177.082 435.26 177.484C435.26 177.781 435.314 178.025 435.424 178.217C435.533 178.404 435.717 178.578 435.975 178.738C436.236 178.895 436.635 179.068 437.17 179.26C438.068 179.58 438.686 179.924 439.021 180.291C439.361 180.658 439.531 181.135 439.531 181.721ZM443.562 183.303C444.211 183.303 444.684 183.129 444.98 182.781C445.277 182.434 445.436 181.848 445.455 181.023V180.807C445.455 179.908 445.303 179.262 444.998 178.867C444.693 178.473 444.211 178.275 443.551 178.275C442.98 178.275 442.543 178.498 442.238 178.943C441.938 179.385 441.787 180.01 441.787 180.818C441.787 181.627 441.936 182.244 442.232 182.67C442.533 183.092 442.977 183.303 443.562 183.303ZM443.416 184.117C442.588 184.117 441.941 183.826 441.477 183.244C441.012 182.662 440.779 181.85 440.779 180.807C440.779 179.756 441.014 178.936 441.482 178.346C441.951 177.756 442.604 177.461 443.439 177.461C444.318 177.461 444.994 177.793 445.467 178.457H445.52L445.66 177.578H446.428V186.883H445.455V184.135C445.455 183.744 445.477 183.412 445.52 183.139H445.443C444.994 183.791 444.318 184.117 443.416 184.117ZM449.41 177.578V181.744C449.41 182.268 449.529 182.658 449.768 182.916C450.006 183.174 450.379 183.303 450.887 183.303C451.559 183.303 452.049 183.119 452.357 182.752C452.67 182.385 452.826 181.785 452.826 180.953V177.578H453.799V184H452.996L452.855 183.139H452.803C452.604 183.455 452.326 183.697 451.971 183.865C451.619 184.033 451.217 184.117 450.764 184.117C449.982 184.117 449.396 183.932 449.006 183.561C448.619 183.189 448.426 182.596 448.426 181.779V177.578H449.41ZM459.816 184L459.623 183.086H459.576C459.256 183.488 458.936 183.762 458.615 183.906C458.299 184.047 457.902 184.117 457.426 184.117C456.789 184.117 456.289 183.953 455.926 183.625C455.566 183.297 455.387 182.83 455.387 182.225C455.387 180.928 456.424 180.248 458.498 180.186L459.588 180.15V179.752C459.588 179.248 459.479 178.877 459.26 178.639C459.045 178.396 458.699 178.275 458.223 178.275C457.688 178.275 457.082 178.439 456.406 178.768L456.107 178.023C456.424 177.852 456.77 177.717 457.145 177.619C457.523 177.521 457.902 177.473 458.281 177.473C459.047 177.473 459.613 177.643 459.98 177.982C460.352 178.322 460.537 178.867 460.537 179.617V184H459.816ZM457.619 183.314C458.225 183.314 458.699 183.148 459.043 182.816C459.391 182.484 459.564 182.02 459.564 181.422V180.842L458.592 180.883C457.818 180.91 457.26 181.031 456.916 181.246C456.576 181.457 456.406 181.787 456.406 182.236C456.406 182.588 456.512 182.855 456.723 183.039C456.938 183.223 457.236 183.314 457.619 183.314ZM466.689 182.248C466.689 182.846 466.467 183.307 466.021 183.631C465.576 183.955 464.951 184.117 464.146 184.117C463.295 184.117 462.631 183.982 462.154 183.713V182.811C462.463 182.967 462.793 183.09 463.145 183.18C463.5 183.27 463.842 183.314 464.17 183.314C464.678 183.314 465.068 183.234 465.342 183.074C465.615 182.91 465.752 182.662 465.752 182.33C465.752 182.08 465.643 181.867 465.424 181.691C465.209 181.512 464.787 181.301 464.158 181.059C463.561 180.836 463.135 180.643 462.881 180.479C462.631 180.311 462.443 180.121 462.318 179.91C462.197 179.699 462.137 179.447 462.137 179.154C462.137 178.631 462.35 178.219 462.775 177.918C463.201 177.613 463.785 177.461 464.527 177.461C465.219 177.461 465.895 177.602 466.555 177.883L466.209 178.674C465.564 178.408 464.98 178.275 464.457 178.275C463.996 178.275 463.648 178.348 463.414 178.492C463.18 178.637 463.062 178.836 463.062 179.09C463.062 179.262 463.105 179.408 463.191 179.529C463.281 179.65 463.424 179.766 463.619 179.875C463.814 179.984 464.189 180.143 464.744 180.35C465.506 180.627 466.02 180.906 466.285 181.188C466.555 181.469 466.689 181.822 466.689 182.248ZM472.672 184V179.846C472.672 179.322 472.553 178.932 472.314 178.674C472.076 178.416 471.703 178.287 471.195 178.287C470.52 178.287 470.025 178.471 469.713 178.838C469.404 179.205 469.25 179.807 469.25 180.643V184H468.277V174.883H469.25V177.643C469.25 177.975 469.234 178.25 469.203 178.469H469.262C469.453 178.16 469.725 177.918 470.076 177.742C470.432 177.562 470.836 177.473 471.289 177.473C472.074 177.473 472.662 177.66 473.053 178.035C473.447 178.406 473.645 178.998 473.645 179.811V184H472.672Z" fill="black"/>
<path d="M504.252 184V175.434H505.248V184H504.252ZM515.643 184V179.822C515.643 179.311 515.533 178.928 515.314 178.674C515.096 178.416 514.756 178.287 514.295 178.287C513.689 178.287 513.242 178.461 512.953 178.809C512.664 179.156 512.52 179.691 512.52 180.414V184H511.547V179.822C511.547 179.311 511.438 178.928 511.219 178.674C511 178.416 510.658 178.287 510.193 178.287C509.584 178.287 509.137 178.471 508.852 178.838C508.57 179.201 508.43 179.799 508.43 180.631V184H507.457V177.578H508.248L508.406 178.457H508.453C508.637 178.145 508.895 177.9 509.227 177.725C509.562 177.549 509.938 177.461 510.352 177.461C511.355 177.461 512.012 177.824 512.32 178.551H512.367C512.559 178.215 512.836 177.949 513.199 177.754C513.562 177.559 513.977 177.461 514.441 177.461C515.168 177.461 515.711 177.648 516.07 178.023C516.434 178.395 516.615 178.99 516.615 179.811V184H515.643ZM522.574 184L522.381 183.086H522.334C522.014 183.488 521.693 183.762 521.373 183.906C521.057 184.047 520.66 184.117 520.184 184.117C519.547 184.117 519.047 183.953 518.684 183.625C518.324 183.297 518.145 182.83 518.145 182.225C518.145 180.928 519.182 180.248 521.256 180.186L522.346 180.15V179.752C522.346 179.248 522.236 178.877 522.018 178.639C521.803 178.396 521.457 178.275 520.98 178.275C520.445 178.275 519.84 178.439 519.164 178.768L518.865 178.023C519.182 177.852 519.527 177.717 519.902 177.619C520.281 177.521 520.66 177.473 521.039 177.473C521.805 177.473 522.371 177.643 522.738 177.982C523.109 178.322 523.295 178.867 523.295 179.617V184H522.574ZM520.377 183.314C520.982 183.314 521.457 183.148 521.801 182.816C522.148 182.484 522.322 182.02 522.322 181.422V180.842L521.35 180.883C520.576 180.91 520.018 181.031 519.674 181.246C519.334 181.457 519.164 181.787 519.164 182.236C519.164 182.588 519.27 182.855 519.48 183.039C519.695 183.223 519.994 183.314 520.377 183.314ZM530.561 177.578V178.193L529.371 178.334C529.48 178.471 529.578 178.65 529.664 178.873C529.75 179.092 529.793 179.34 529.793 179.617C529.793 180.246 529.578 180.748 529.148 181.123C528.719 181.498 528.129 181.686 527.379 181.686C527.188 181.686 527.008 181.67 526.84 181.639C526.426 181.857 526.219 182.133 526.219 182.465C526.219 182.641 526.291 182.771 526.436 182.857C526.58 182.939 526.828 182.98 527.18 182.98H528.316C529.012 182.98 529.545 183.127 529.916 183.42C530.291 183.713 530.479 184.139 530.479 184.697C530.479 185.408 530.193 185.949 529.623 186.32C529.053 186.695 528.221 186.883 527.127 186.883C526.287 186.883 525.639 186.727 525.182 186.414C524.729 186.102 524.502 185.66 524.502 185.09C524.502 184.699 524.627 184.361 524.877 184.076C525.127 183.791 525.479 183.598 525.932 183.496C525.768 183.422 525.629 183.307 525.516 183.15C525.406 182.994 525.352 182.812 525.352 182.605C525.352 182.371 525.414 182.166 525.539 181.99C525.664 181.814 525.861 181.645 526.131 181.48C525.799 181.344 525.527 181.111 525.316 180.783C525.109 180.455 525.006 180.08 525.006 179.658C525.006 178.955 525.217 178.414 525.639 178.035C526.061 177.652 526.658 177.461 527.432 177.461C527.768 177.461 528.07 177.5 528.34 177.578H530.561ZM525.439 185.078C525.439 185.426 525.586 185.689 525.879 185.869C526.172 186.049 526.592 186.139 527.139 186.139C527.955 186.139 528.559 186.016 528.949 185.77C529.344 185.527 529.541 185.197 529.541 184.779C529.541 184.432 529.434 184.189 529.219 184.053C529.004 183.92 528.6 183.854 528.006 183.854H526.84C526.398 183.854 526.055 183.959 525.809 184.17C525.562 184.381 525.439 184.684 525.439 185.078ZM525.967 179.635C525.967 180.084 526.094 180.424 526.348 180.654C526.602 180.885 526.955 181 527.408 181C528.357 181 528.832 180.539 528.832 179.617C528.832 178.652 528.352 178.17 527.391 178.17C526.934 178.17 526.582 178.293 526.336 178.539C526.09 178.785 525.967 179.15 525.967 179.635ZM534.592 184.117C533.643 184.117 532.893 183.828 532.342 183.25C531.795 182.672 531.521 181.869 531.521 180.842C531.521 179.807 531.775 178.984 532.283 178.375C532.795 177.766 533.48 177.461 534.34 177.461C535.145 177.461 535.781 177.727 536.25 178.258C536.719 178.785 536.953 179.482 536.953 180.35V180.965H532.529C532.549 181.719 532.738 182.291 533.098 182.682C533.461 183.072 533.971 183.268 534.627 183.268C535.318 183.268 536.002 183.123 536.678 182.834V183.701C536.334 183.85 536.008 183.955 535.699 184.018C535.395 184.084 535.025 184.117 534.592 184.117ZM534.328 178.275C533.812 178.275 533.4 178.443 533.092 178.779C532.787 179.115 532.607 179.58 532.553 180.174H535.91C535.91 179.561 535.773 179.092 535.5 178.768C535.227 178.439 534.836 178.275 534.328 178.275ZM542.432 176.201C541.49 176.201 540.746 176.516 540.199 177.145C539.656 177.77 539.385 178.627 539.385 179.717C539.385 180.838 539.646 181.705 540.17 182.318C540.697 182.928 541.447 183.232 542.42 183.232C543.018 183.232 543.699 183.125 544.465 182.91V183.783C543.871 184.006 543.139 184.117 542.268 184.117C541.006 184.117 540.031 183.734 539.344 182.969C538.66 182.203 538.318 181.115 538.318 179.705C538.318 178.822 538.482 178.049 538.811 177.385C539.143 176.721 539.619 176.209 540.24 175.85C540.865 175.49 541.6 175.311 542.443 175.311C543.342 175.311 544.127 175.475 544.799 175.803L544.377 176.658C543.729 176.354 543.08 176.201 542.432 176.201ZM550.137 184L549.943 183.086H549.896C549.576 183.488 549.256 183.762 548.936 183.906C548.619 184.047 548.223 184.117 547.746 184.117C547.109 184.117 546.609 183.953 546.246 183.625C545.887 183.297 545.707 182.83 545.707 182.225C545.707 180.928 546.744 180.248 548.818 180.186L549.908 180.15V179.752C549.908 179.248 549.799 178.877 549.58 178.639C549.365 178.396 549.02 178.275 548.543 178.275C548.008 178.275 547.402 178.439 546.727 178.768L546.428 178.023C546.744 177.852 547.09 177.717 547.465 177.619C547.844 177.521 548.223 177.473 548.602 177.473C549.367 177.473 549.934 177.643 550.301 177.982C550.672 178.322 550.857 178.867 550.857 179.617V184H550.137ZM547.939 183.314C548.545 183.314 549.02 183.148 549.363 182.816C549.711 182.484 549.885 182.02 549.885 181.422V180.842L548.912 180.883C548.139 180.91 547.58 181.031 547.236 181.246C546.896 181.457 546.727 181.787 546.727 182.236C546.727 182.588 546.832 182.855 547.043 183.039C547.258 183.223 547.557 183.314 547.939 183.314ZM555.855 184.117C555.438 184.117 555.055 184.041 554.707 183.889C554.363 183.732 554.074 183.494 553.84 183.174H553.77C553.816 183.549 553.84 183.904 553.84 184.24V186.883H552.867V177.578H553.658L553.793 178.457H553.84C554.09 178.105 554.381 177.852 554.713 177.695C555.045 177.539 555.426 177.461 555.855 177.461C556.707 177.461 557.363 177.752 557.824 178.334C558.289 178.916 558.521 179.732 558.521 180.783C558.521 181.838 558.285 182.658 557.812 183.244C557.344 183.826 556.691 184.117 555.855 184.117ZM555.715 178.287C555.059 178.287 554.584 178.469 554.291 178.832C553.998 179.195 553.848 179.773 553.84 180.566V180.783C553.84 181.686 553.99 182.332 554.291 182.723C554.592 183.109 555.074 183.303 555.738 183.303C556.293 183.303 556.727 183.078 557.039 182.629C557.355 182.18 557.514 181.561 557.514 180.771C557.514 179.971 557.355 179.357 557.039 178.932C556.727 178.502 556.285 178.287 555.715 178.287ZM564.369 182.248C564.369 182.846 564.146 183.307 563.701 183.631C563.256 183.955 562.631 184.117 561.826 184.117C560.975 184.117 560.311 183.982 559.834 183.713V182.811C560.143 182.967 560.473 183.09 560.824 183.18C561.18 183.27 561.521 183.314 561.85 183.314C562.357 183.314 562.748 183.234 563.021 183.074C563.295 182.91 563.432 182.662 563.432 182.33C563.432 182.08 563.322 181.867 563.104 181.691C562.889 181.512 562.467 181.301 561.838 181.059C561.24 180.836 560.814 180.643 560.561 180.479C560.311 180.311 560.123 180.121 559.998 179.91C559.877 179.699 559.816 179.447 559.816 179.154C559.816 178.631 560.029 178.219 560.455 177.918C560.881 177.613 561.465 177.461 562.207 177.461C562.898 177.461 563.574 177.602 564.234 177.883L563.889 178.674C563.244 178.408 562.66 178.275 562.137 178.275C561.676 178.275 561.328 178.348 561.094 178.492C560.859 178.637 560.742 178.836 560.742 179.09C560.742 179.262 560.785 179.408 560.871 179.529C560.961 179.65 561.104 179.766 561.299 179.875C561.494 179.984 561.869 180.143 562.424 180.35C563.186 180.627 563.699 180.906 563.965 181.188C564.234 181.469 564.369 181.822 564.369 182.248Z" fill="black"/>
<path d="M602.254 176.201C601.312 176.201 600.568 176.516 600.021 177.145C599.479 177.77 599.207 178.627 599.207 179.717C599.207 180.838 599.469 181.705 599.992 182.318C600.52 182.928 601.27 183.232 602.242 183.232C602.84 183.232 603.521 183.125 604.287 182.91V183.783C603.693 184.006 602.961 184.117 602.09 184.117C600.828 184.117 599.854 183.734 599.166 182.969C598.482 182.203 598.141 181.115 598.141 179.705C598.141 178.822 598.305 178.049 598.633 177.385C598.965 176.721 599.441 176.209 600.062 175.85C600.688 175.49 601.422 175.311 602.266 175.311C603.164 175.311 603.949 175.475 604.621 175.803L604.199 176.658C603.551 176.354 602.902 176.201 602.254 176.201ZM606.982 184H606.01V174.883H606.982V184ZM612.994 184L612.801 183.086H612.754C612.434 183.488 612.113 183.762 611.793 183.906C611.477 184.047 611.08 184.117 610.604 184.117C609.967 184.117 609.467 183.953 609.104 183.625C608.744 183.297 608.564 182.83 608.564 182.225C608.564 180.928 609.602 180.248 611.676 180.186L612.766 180.15V179.752C612.766 179.248 612.656 178.877 612.438 178.639C612.223 178.396 611.877 178.275 611.4 178.275C610.865 178.275 610.26 178.439 609.584 178.768L609.285 178.023C609.602 177.852 609.947 177.717 610.322 177.619C610.701 177.521 611.08 177.473 611.459 177.473C612.225 177.473 612.791 177.643 613.158 177.982C613.529 178.322 613.715 178.867 613.715 179.617V184H612.994ZM610.797 183.314C611.402 183.314 611.877 183.148 612.221 182.816C612.568 182.484 612.742 182.02 612.742 181.422V180.842L611.77 180.883C610.996 180.91 610.438 181.031 610.094 181.246C609.754 181.457 609.584 181.787 609.584 182.236C609.584 182.588 609.689 182.855 609.9 183.039C610.115 183.223 610.414 183.314 610.797 183.314ZM619.867 182.248C619.867 182.846 619.645 183.307 619.199 183.631C618.754 183.955 618.129 184.117 617.324 184.117C616.473 184.117 615.809 183.982 615.332 183.713V182.811C615.641 182.967 615.971 183.09 616.322 183.18C616.678 183.27 617.02 183.314 617.348 183.314C617.855 183.314 618.246 183.234 618.52 183.074C618.793 182.91 618.93 182.662 618.93 182.33C618.93 182.08 618.82 181.867 618.602 181.691C618.387 181.512 617.965 181.301 617.336 181.059C616.738 180.836 616.312 180.643 616.059 180.479C615.809 180.311 615.621 180.121 615.496 179.91C615.375 179.699 615.314 179.447 615.314 179.154C615.314 178.631 615.527 178.219 615.953 177.918C616.379 177.613 616.963 177.461 617.705 177.461C618.396 177.461 619.072 177.602 619.732 177.883L619.387 178.674C618.742 178.408 618.158 178.275 617.635 178.275C617.174 178.275 616.826 178.348 616.592 178.492C616.357 178.637 616.24 178.836 616.24 179.09C616.24 179.262 616.283 179.408 616.369 179.529C616.459 179.65 616.602 179.766 616.797 179.875C616.992 179.984 617.367 180.143 617.922 180.35C618.684 180.627 619.197 180.906 619.463 181.188C619.732 181.469 619.867 181.822 619.867 182.248ZM625.598 182.248C625.598 182.846 625.375 183.307 624.93 183.631C624.484 183.955 623.859 184.117 623.055 184.117C622.203 184.117 621.539 183.982 621.062 183.713V182.811C621.371 182.967 621.701 183.09 622.053 183.18C622.408 183.27 622.75 183.314 623.078 183.314C623.586 183.314 623.977 183.234 624.25 183.074C624.523 182.91 624.66 182.662 624.66 182.33C624.66 182.08 624.551 181.867 624.332 181.691C624.117 181.512 623.695 181.301 623.066 181.059C622.469 180.836 622.043 180.643 621.789 180.479C621.539 180.311 621.352 180.121 621.227 179.91C621.105 179.699 621.045 179.447 621.045 179.154C621.045 178.631 621.258 178.219 621.684 177.918C622.109 177.613 622.693 177.461 623.436 177.461C624.127 177.461 624.803 177.602 625.463 177.883L625.117 178.674C624.473 178.408 623.889 178.275 623.365 178.275C622.904 178.275 622.557 178.348 622.322 178.492C622.088 178.637 621.971 178.836 621.971 179.09C621.971 179.262 622.014 179.408 622.1 179.529C622.189 179.65 622.332 179.766 622.527 179.875C622.723 179.984 623.098 180.143 623.652 180.35C624.414 180.627 624.928 180.906 625.193 181.188C625.463 181.469 625.598 181.822 625.598 182.248ZM628.158 184H627.186V177.578H628.158V184ZM627.104 175.838C627.104 175.615 627.158 175.453 627.268 175.352C627.377 175.246 627.514 175.193 627.678 175.193C627.834 175.193 627.969 175.246 628.082 175.352C628.195 175.457 628.252 175.619 628.252 175.838C628.252 176.057 628.195 176.221 628.082 176.33C627.969 176.436 627.834 176.488 627.678 176.488C627.514 176.488 627.377 176.436 627.268 176.33C627.158 176.221 627.104 176.057 627.104 175.838ZM633.115 178.334H631.48V184H630.508V178.334H629.359V177.895L630.508 177.543V177.186C630.508 175.607 631.197 174.818 632.576 174.818C632.916 174.818 633.314 174.887 633.771 175.023L633.52 175.803C633.145 175.682 632.824 175.621 632.559 175.621C632.191 175.621 631.92 175.744 631.744 175.99C631.568 176.232 631.48 176.623 631.48 177.162V177.578H633.115V178.334ZM635.26 184H634.287V177.578H635.26V184ZM634.205 175.838C634.205 175.615 634.26 175.453 634.369 175.352C634.479 175.246 634.615 175.193 634.779 175.193C634.936 175.193 635.07 175.246 635.184 175.352C635.297 175.457 635.354 175.619 635.354 175.838C635.354 176.057 635.297 176.221 635.184 176.33C635.07 176.436 634.936 176.488 634.779 176.488C634.615 176.488 634.479 176.436 634.369 176.33C634.26 176.221 634.205 176.057 634.205 175.838ZM639.889 184.117C638.959 184.117 638.238 183.832 637.727 183.262C637.219 182.688 636.965 181.877 636.965 180.83C636.965 179.756 637.223 178.926 637.738 178.34C638.258 177.754 638.996 177.461 639.953 177.461C640.262 177.461 640.57 177.494 640.879 177.561C641.188 177.627 641.43 177.705 641.605 177.795L641.307 178.621C641.092 178.535 640.857 178.465 640.604 178.41C640.35 178.352 640.125 178.322 639.93 178.322C638.625 178.322 637.973 179.154 637.973 180.818C637.973 181.607 638.131 182.213 638.447 182.635C638.768 183.057 639.24 183.268 639.865 183.268C640.4 183.268 640.949 183.152 641.512 182.922V183.783C641.082 184.006 640.541 184.117 639.889 184.117ZM646.99 184L646.797 183.086H646.75C646.43 183.488 646.109 183.762 645.789 183.906C645.473 184.047 645.076 184.117 644.6 184.117C643.963 184.117 643.463 183.953 643.1 183.625C642.74 183.297 642.561 182.83 642.561 182.225C642.561 180.928 643.598 180.248 645.672 180.186L646.762 180.15V179.752C646.762 179.248 646.652 178.877 646.434 178.639C646.219 178.396 645.873 178.275 645.396 178.275C644.861 178.275 644.256 178.439 643.58 178.768L643.281 178.023C643.598 177.852 643.943 177.717 644.318 177.619C644.697 177.521 645.076 177.473 645.455 177.473C646.221 177.473 646.787 177.643 647.154 177.982C647.525 178.322 647.711 178.867 647.711 179.617V184H646.99ZM644.793 183.314C645.398 183.314 645.873 183.148 646.217 182.816C646.564 182.484 646.738 182.02 646.738 181.422V180.842L645.766 180.883C644.992 180.91 644.434 181.031 644.09 181.246C643.75 181.457 643.58 181.787 643.58 182.236C643.58 182.588 643.686 182.855 643.896 183.039C644.111 183.223 644.41 183.314 644.793 183.314ZM651.795 183.314C651.967 183.314 652.133 183.303 652.293 183.279C652.453 183.252 652.58 183.225 652.674 183.197V183.941C652.568 183.992 652.412 184.033 652.205 184.064C652.002 184.1 651.818 184.117 651.654 184.117C650.412 184.117 649.791 183.463 649.791 182.154V178.334H648.871V177.865L649.791 177.461L650.201 176.09H650.764V177.578H652.627V178.334H650.764V182.113C650.764 182.5 650.855 182.797 651.039 183.004C651.223 183.211 651.475 183.314 651.795 183.314ZM654.936 184H653.963V177.578H654.936V184ZM653.881 175.838C653.881 175.615 653.936 175.453 654.045 175.352C654.154 175.246 654.291 175.193 654.455 175.193C654.611 175.193 654.746 175.246 654.859 175.352C654.973 175.457 655.029 175.619 655.029 175.838C655.029 176.057 654.973 176.221 654.859 176.33C654.746 176.436 654.611 176.488 654.455 176.488C654.291 176.488 654.154 176.436 654.045 176.33C653.936 176.221 653.881 176.057 653.881 175.838ZM662.541 180.783C662.541 181.83 662.277 182.648 661.75 183.238C661.223 183.824 660.494 184.117 659.564 184.117C658.99 184.117 658.48 183.982 658.035 183.713C657.59 183.443 657.246 183.057 657.004 182.553C656.762 182.049 656.641 181.459 656.641 180.783C656.641 179.736 656.902 178.922 657.426 178.34C657.949 177.754 658.676 177.461 659.605 177.461C660.504 177.461 661.217 177.76 661.744 178.357C662.275 178.955 662.541 179.764 662.541 180.783ZM657.648 180.783C657.648 181.604 657.812 182.229 658.141 182.658C658.469 183.088 658.951 183.303 659.588 183.303C660.225 183.303 660.707 183.09 661.035 182.664C661.367 182.234 661.533 181.607 661.533 180.783C661.533 179.967 661.367 179.348 661.035 178.926C660.707 178.5 660.221 178.287 659.576 178.287C658.939 178.287 658.459 178.496 658.135 178.914C657.811 179.332 657.648 179.955 657.648 180.783ZM668.646 184V179.846C668.646 179.322 668.527 178.932 668.289 178.674C668.051 178.416 667.678 178.287 667.17 178.287C666.498 178.287 666.006 178.469 665.693 178.832C665.381 179.195 665.225 179.795 665.225 180.631V184H664.252V177.578H665.043L665.201 178.457H665.248C665.447 178.141 665.727 177.896 666.086 177.725C666.445 177.549 666.846 177.461 667.287 177.461C668.061 177.461 668.643 177.648 669.033 178.023C669.424 178.395 669.619 178.99 669.619 179.811V184H668.646Z" fill="black"/>
<path d="M144.5 116C144.5 117.402 145.053 118.479 146.013 119.275C146.95 120.053 148.252 120.544 149.739 120.864C152.708 121.502 156.644 121.5 160.5 121.5C164.394 121.5 168.208 121.502 171.051 122.114C172.471 122.419 173.591 122.866 174.349 123.494C175.084 124.104 175.5 124.902 175.5 126L176.5 126C176.5 124.598 175.947 123.521 174.987 122.725C174.05 121.947 172.748 121.456 171.261 121.136C168.292 120.498 164.356 120.5 160.5 120.5C156.606 120.5 152.792 120.498 149.949 119.886C148.529 119.581 147.409 119.134 146.651 118.506C145.916 117.896 145.5 117.098 145.5 116L144.5 116ZM206.5 116C206.5 117.098 206.084 117.896 205.349 118.506C204.591 119.134 203.471 119.581 202.051 119.886C199.208 120.498 195.394 120.5 191.5 120.5C187.644 120.5 183.708 120.498 180.739 121.136C179.252 121.456 177.95 121.947 177.013 122.725C176.053 123.521 175.5 124.598 175.5 126L176.5 126C176.5 124.902 176.916 124.104 177.651 123.494C178.409 122.866 179.529 122.419 180.949 122.114C183.792 121.502 187.606 121.5 191.5 121.5C195.356 121.5 199.292 121.502 202.261 120.864C203.748 120.544 205.05 120.053 205.987 119.275C206.947 118.479 207.5 117.402 207.5 116L206.5 116Z" fill="black"/>
<path d="M175.35 139H169.719V138.162L171.975 135.895C172.662 135.199 173.115 134.703 173.334 134.406C173.553 134.109 173.717 133.82 173.826 133.539C173.936 133.258 173.99 132.955 173.99 132.631C173.99 132.174 173.852 131.812 173.574 131.547C173.297 131.277 172.912 131.143 172.42 131.143C172.064 131.143 171.727 131.201 171.406 131.318C171.09 131.436 170.736 131.648 170.346 131.957L169.83 131.295C170.619 130.639 171.479 130.311 172.408 130.311C173.213 130.311 173.844 130.518 174.301 130.932C174.758 131.342 174.986 131.895 174.986 132.59C174.986 133.133 174.834 133.67 174.529 134.201C174.225 134.732 173.654 135.404 172.818 136.217L170.943 138.051V138.098H175.35V139ZM182.621 137.031H181.35V139H180.418V137.031H176.252V136.182L180.318 130.387H181.35V136.146H182.621V137.031ZM180.418 136.146V133.299C180.418 132.74 180.438 132.109 180.477 131.406H180.43C180.242 131.781 180.066 132.092 179.902 132.338L177.225 136.146H180.418Z" fill="black"/>
<path d="M175.35 139H169.719V138.162L171.975 135.895C172.662 135.199 173.115 134.703 173.334 134.406C173.553 134.109 173.717 133.82 173.826 133.539C173.936 133.258 173.99 132.955 173.99 132.631C173.99 132.174 173.852 131.812 173.574 131.547C173.297 131.277 172.912 131.143 172.42 131.143C172.064 131.143 171.727 131.201 171.406 131.318C171.09 131.436 170.736 131.648 170.346 131.957L169.83 131.295C170.619 130.639 171.479 130.311 172.408 130.311C173.213 130.311 173.844 130.518 174.301 130.932C174.758 131.342 174.986 131.895 174.986 132.59C174.986 133.133 174.834 133.67 174.529 134.201C174.225 134.732 173.654 135.404 172.818 136.217L170.943 138.051V138.098H175.35V139ZM182.621 137.031H181.35V139H180.418V137.031H176.252V136.182L180.318 130.387H181.35V136.146H182.621V137.031ZM180.418 136.146V133.299C180.418 132.74 180.438 132.109 180.477 131.406H180.43C180.242 131.781 180.066 132.092 179.902 132.338L177.225 136.146H180.418Z" fill="black"/>
<path d="M175.35 139H169.719V138.162L171.975 135.895C172.662 135.199 173.115 134.703 173.334 134.406C173.553 134.109 173.717 133.82 173.826 133.539C173.936 133.258 173.99 132.955 173.99 132.631C173.99 132.174 173.852 131.812 173.574 131.547C173.297 131.277 172.912 131.143 172.42 131.143C172.064 131.143 171.727 131.201 171.406 131.318C171.09 131.436 170.736 131.648 170.346 131.957L169.83 131.295C170.619 130.639 171.479 130.311 172.408 130.311C173.213 130.311 173.844 130.518 174.301 130.932C174.758 131.342 174.986 131.895 174.986 132.59C174.986 133.133 174.834 133.67 174.529 134.201C174.225 134.732 173.654 135.404 172.818 136.217L170.943 138.051V138.098H175.35V139ZM182.621 137.031H181.35V139H180.418V137.031H176.252V136.182L180.318 130.387H181.35V136.146H182.621V137.031ZM180.418 136.146V133.299C180.418 132.74 180.438 132.109 180.477 131.406H180.43C180.242 131.781 180.066 132.092 179.902 132.338L177.225 136.146H180.418Z" fill="black"/>
<path d="M262.5 101C262.5 102.09 262.783 102.957 263.319 103.625C263.85 104.288 264.592 104.707 265.424 104.976C267.063 105.505 269.215 105.5 271.25 105.5C273.34 105.5 275.313 105.505 276.768 105.976C277.483 106.207 278.03 106.538 278.401 107C278.767 107.457 279 108.09 279 109L280 109C280 107.91 279.717 107.043 279.181 106.375C278.65 105.712 277.908 105.293 277.076 105.024C275.437 104.495 273.285 104.5 271.25 104.5C269.16 104.5 267.187 104.495 265.732 104.024C265.017 103.793 264.47 103.462 264.099 103C263.733 102.543 263.5 101.91 263.5 101L262.5 101ZM295.5 101C295.5 101.91 295.267 102.543 294.901 103C294.53 103.462 293.983 103.793 293.268 104.024C291.813 104.495 289.84 104.5 287.75 104.5C285.715 104.5 283.563 104.495 281.924 105.024C281.092 105.293 280.35 105.712 279.819 106.375C279.283 107.043 279 107.91 279 109L280 109C280 108.09 280.233 107.457 280.599 107C280.97 106.538 281.517 106.207 282.232 105.976C283.687 105.505 285.66 105.5 287.75 105.5C289.785 105.5 291.937 105.505 293.576 104.976C294.408 104.707 295.15 104.288 295.681 103.625C296.217 102.957 296.5 102.09 296.5 101L295.5 101Z" fill="black"/>
<path d="M279.488 113.311C280.27 113.311 280.889 113.492 281.346 113.855C281.803 114.219 282.031 114.721 282.031 115.361C282.031 115.783 281.9 116.168 281.639 116.516C281.377 116.863 280.959 117.18 280.385 117.465C281.08 117.797 281.574 118.146 281.867 118.514C282.16 118.877 282.307 119.299 282.307 119.779C282.307 120.49 282.059 121.059 281.562 121.484C281.066 121.906 280.387 122.117 279.523 122.117C278.609 122.117 277.906 121.918 277.414 121.52C276.922 121.117 276.676 120.549 276.676 119.814C276.676 118.834 277.273 118.07 278.469 117.523C277.93 117.219 277.543 116.891 277.309 116.539C277.074 116.184 276.957 115.787 276.957 115.35C276.957 114.729 277.186 114.234 277.643 113.867C278.104 113.496 278.719 113.311 279.488 113.311ZM277.637 119.838C277.637 120.307 277.799 120.672 278.123 120.934C278.451 121.195 278.91 121.326 279.5 121.326C280.082 121.326 280.535 121.189 280.859 120.916C281.184 120.643 281.346 120.268 281.346 119.791C281.346 119.412 281.193 119.076 280.889 118.783C280.584 118.486 280.053 118.199 279.295 117.922C278.713 118.172 278.291 118.449 278.029 118.754C277.768 119.055 277.637 119.416 277.637 119.838ZM279.477 114.102C278.988 114.102 278.605 114.219 278.328 114.453C278.051 114.688 277.912 115 277.912 115.391C277.912 115.75 278.027 116.059 278.258 116.316C278.488 116.574 278.914 116.832 279.535 117.09C280.094 116.855 280.488 116.604 280.719 116.334C280.953 116.064 281.07 115.75 281.07 115.391C281.07 114.996 280.928 114.684 280.643 114.453C280.361 114.219 279.973 114.102 279.477 114.102Z" fill="black"/>
<path d="M507.5 116C507.5 117.161 507.983 118.052 508.807 118.705C509.607 119.338 510.712 119.733 511.962 119.99C514.46 120.502 517.768 120.5 521 120.5C524.268 120.5 527.46 120.502 529.837 120.99C531.025 121.233 531.951 121.588 532.573 122.08C533.17 122.552 533.5 123.161 533.5 124L534.5 124C534.5 122.839 534.017 121.948 533.193 121.295C532.393 120.662 531.288 120.267 530.038 120.01C527.54 119.498 524.232 119.5 521 119.5C517.732 119.5 514.54 119.498 512.163 119.01C510.975 118.767 510.049 118.412 509.427 117.92C508.83 117.448 508.5 116.839 508.5 116L507.5 116ZM559.5 116C559.5 116.839 559.17 117.448 558.573 117.92C557.951 118.412 557.025 118.767 555.837 119.01C553.46 119.498 550.268 119.5 547 119.5C543.768 119.5 540.46 119.498 537.962 120.01C536.712 120.267 535.607 120.662 534.807 121.295C533.983 121.948 533.5 122.839 533.5 124L534.5 124C534.5 123.161 534.83 122.552 535.427 122.08C536.049 121.588 536.975 121.233 538.163 120.99C540.54 120.502 543.732 120.5 547 120.5C550.232 120.5 553.54 120.502 556.038 119.99C557.288 119.733 558.393 119.338 559.193 118.705C560.017 118.052 560.5 117.161 560.5 116L559.5 116Z" fill="black"/>
<path d="M503 30.5C501.738 30.5 500.85 31.3091 500.243 32.4901C499.64 33.6616 499.257 35.293 499.004 37.1839C498.499 40.9742 498.5 46.0123 498.5 51C498.5 56.0123 498.499 60.9742 498.004 64.6839C497.757 66.543 497.39 68.0366 496.868 69.0526C496.35 70.0591 495.738 70.5 495 70.5L495 71.5C496.262 71.5 497.15 70.6909 497.757 69.5099C498.36 68.3384 498.743 66.707 498.996 64.8161C499.501 61.0258 499.5 55.9877 499.5 51C499.5 45.9877 499.501 41.0258 499.996 37.3161C500.243 35.457 500.61 33.9634 501.132 32.9474C501.65 31.9409 502.262 31.5 503 31.5L503 30.5ZM503 110.5C502.262 110.5 501.65 110.059 501.132 109.053C500.61 108.037 500.243 106.543 499.996 104.684C499.501 100.974 499.5 96.0123 499.5 91C499.5 86.0123 499.501 80.9742 498.996 77.1839C498.743 75.293 498.36 73.6616 497.757 72.4901C497.15 71.3091 496.262 70.5 495 70.5L495 71.5C495.738 71.5 496.35 71.9409 496.868 72.9474C497.39 73.9634 497.757 75.457 498.004 77.3161C498.499 81.0258 498.5 85.9877 498.5 91C498.5 95.9877 498.499 101.026 499.004 104.816C499.257 106.707 499.64 108.338 500.243 109.51C500.85 110.691 501.738 111.5 503 111.5L503 110.5Z" fill="black"/>
<path d="M531.322 137H530.373V130.895C530.373 130.387 530.389 129.906 530.42 129.453C530.338 129.535 530.246 129.621 530.145 129.711C530.043 129.801 529.578 130.182 528.75 130.854L528.234 130.186L530.502 128.434H531.322V137ZM534.686 133.338C534.686 131.654 535.012 130.396 535.664 129.564C536.32 128.729 537.289 128.311 538.57 128.311C539.012 128.311 539.359 128.348 539.613 128.422V129.26C539.312 129.162 538.969 129.113 538.582 129.113C537.664 129.113 536.963 129.4 536.479 129.975C535.994 130.545 535.729 131.443 535.682 132.67H535.752C536.182 131.998 536.861 131.662 537.791 131.662C538.561 131.662 539.166 131.895 539.607 132.359C540.053 132.824 540.275 133.455 540.275 134.252C540.275 135.143 540.031 135.844 539.543 136.355C539.059 136.863 538.402 137.117 537.574 137.117C536.688 137.117 535.984 136.785 535.465 136.121C534.945 135.453 534.686 134.525 534.686 133.338ZM537.562 136.291C538.117 136.291 538.547 136.117 538.852 135.77C539.16 135.418 539.314 134.912 539.314 134.252C539.314 133.686 539.172 133.24 538.887 132.916C538.602 132.592 538.176 132.43 537.609 132.43C537.258 132.43 536.936 132.502 536.643 132.646C536.35 132.791 536.115 132.99 535.939 133.244C535.768 133.498 535.682 133.762 535.682 134.035C535.682 134.438 535.76 134.812 535.916 135.16C536.072 135.508 536.293 135.783 536.578 135.986C536.867 136.189 537.195 136.291 537.562 136.291Z" fill="black"/>
<path d="M483.322 75H482.373V68.8945C482.373 68.3867 482.389 67.9062 482.42 67.4531C482.338 67.5352 482.246 67.6211 482.145 67.7109C482.043 67.8008 481.578 68.1816 480.75 68.8535L480.234 68.1855L482.502 66.4336H483.322V75ZM492.264 70.7051C492.264 72.1855 492.029 73.291 491.561 74.0215C491.096 74.752 490.383 75.1172 489.422 75.1172C488.5 75.1172 487.799 74.7441 487.318 73.998C486.838 73.248 486.598 72.1504 486.598 70.7051C486.598 69.2129 486.83 68.1055 487.295 67.3828C487.76 66.6602 488.469 66.2988 489.422 66.2988C490.352 66.2988 491.057 66.6758 491.537 67.4297C492.021 68.1836 492.264 69.2754 492.264 70.7051ZM487.582 70.7051C487.582 71.9512 487.729 72.8594 488.021 73.4297C488.314 73.9961 488.781 74.2793 489.422 74.2793C490.07 74.2793 490.539 73.9922 490.828 73.418C491.121 72.8398 491.268 71.9355 491.268 70.7051C491.268 69.4746 491.121 68.5742 490.828 68.0039C490.539 67.4297 490.07 67.1426 489.422 67.1426C488.781 67.1426 488.314 67.4258 488.021 67.9922C487.729 68.5547 487.582 69.459 487.582 70.7051Z" fill="black"/>
<path d="M624 30.5C622.738 30.5 621.85 31.3091 621.243 32.4901C620.64 33.6616 620.257 35.293 620.004 37.1839C619.499 40.9742 619.5 46.0123 619.5 51C619.5 56.0123 619.499 60.9742 619.004 64.6839C618.757 66.543 618.39 68.0366 617.868 69.0526C617.35 70.0591 616.738 70.5 616 70.5L616 71.5C617.262 71.5 618.15 70.6909 618.757 69.5099C619.36 68.3384 619.743 66.707 619.996 64.8161C620.501 61.0258 620.5 55.9877 620.5 51C620.5 45.9877 620.501 41.0258 620.996 37.3161C621.243 35.457 621.61 33.9634 622.132 32.9474C622.65 31.9409 623.262 31.5 624 31.5L624 30.5ZM624 110.5C623.262 110.5 622.65 110.059 622.132 109.053C621.61 108.037 621.243 106.543 620.996 104.684C620.501 100.974 620.5 96.0123 620.5 91C620.5 86.0123 620.501 80.9742 619.996 77.1839C619.743 75.293 619.36 73.6616 618.757 72.4901C618.15 71.3091 617.262 70.5 616 70.5L616 71.5C616.738 71.5 617.35 71.9409 617.868 72.9474C618.39 73.9634 618.757 75.457 619.004 77.3161C619.499 81.0258 619.5 85.9877 619.5 91C619.5 95.9877 619.499 101.026 620.004 104.816C620.257 106.707 620.64 108.338 621.243 109.51C621.85 110.691 622.738 111.5 624 111.5L624 110.5Z" fill="black"/>
<path d="M604.322 75H603.373V68.8945C603.373 68.3867 603.389 67.9062 603.42 67.4531C603.338 67.5352 603.246 67.6211 603.145 67.7109C603.043 67.8008 602.578 68.1816 601.75 68.8535L601.234 68.1855L603.502 66.4336H604.322V75ZM613.264 70.7051C613.264 72.1855 613.029 73.291 612.561 74.0215C612.096 74.752 611.383 75.1172 610.422 75.1172C609.5 75.1172 608.799 74.7441 608.318 73.998C607.838 73.248 607.598 72.1504 607.598 70.7051C607.598 69.2129 607.83 68.1055 608.295 67.3828C608.76 66.6602 609.469 66.2988 610.422 66.2988C611.352 66.2988 612.057 66.6758 612.537 67.4297C613.021 68.1836 613.264 69.2754 613.264 70.7051ZM608.582 70.7051C608.582 71.9512 608.729 72.8594 609.021 73.4297C609.314 73.9961 609.781 74.2793 610.422 74.2793C611.07 74.2793 611.539 73.9922 611.828 73.418C612.121 72.8398 612.268 71.9355 612.268 70.7051C612.268 69.4746 612.121 68.5742 611.828 68.0039C611.539 67.4297 611.07 67.1426 610.422 67.1426C609.781 67.1426 609.314 67.4258 609.021 67.9922C608.729 68.5547 608.582 69.459 608.582 70.7051Z" fill="black"/>
<path d="M403.5 136C403.5 137.115 403.853 137.995 404.501 138.661C405.135 139.313 406.013 139.721 406.996 139.983C408.948 140.504 411.523 140.5 414 140.5C416.523 140.5 418.948 140.504 420.746 140.983C421.638 141.221 422.323 141.563 422.782 142.036C423.228 142.495 423.5 143.115 423.5 144L424.5 144C424.5 142.885 424.147 142.005 423.499 141.339C422.865 140.687 421.987 140.279 421.004 140.017C419.052 139.496 416.477 139.5 414 139.5C411.477 139.5 409.052 139.496 407.254 139.017C406.362 138.779 405.677 138.437 405.218 137.964C404.772 137.505 404.5 136.885 404.5 136L403.5 136ZM443.5 136C443.5 136.885 443.228 137.505 442.782 137.964C442.323 138.437 441.638 138.779 440.746 139.017C438.948 139.496 436.523 139.5 434 139.5C431.523 139.5 428.948 139.496 426.996 140.017C426.013 140.279 425.135 140.687 424.501 141.339C423.853 142.005 423.5 142.885 423.5 144L424.5 144C424.5 143.115 424.772 142.495 425.218 142.036C425.677 141.563 426.362 141.221 427.254 140.983C429.052 140.504 431.477 140.5 434 140.5C436.477 140.5 439.052 140.504 441.004 139.983C441.987 139.721 442.865 139.313 443.499 138.661C444.147 137.995 444.5 137.115 444.5 136L443.5 136Z" fill="black"/>
<path d="M399 10.5C398.321 10.5 397.755 10.8259 397.303 11.3454C396.859 11.8542 396.506 12.5672 396.215 13.416C395.632 15.116 395.253 17.5094 395.002 20.3307C394.5 25.9828 394.5 33.5082 394.5 41C394.5 48.5082 394.5 55.9828 394.002 61.5807C393.753 64.3844 393.382 66.6785 392.84 68.2597C392.568 69.0516 392.266 69.6276 391.943 69.9977C391.63 70.3572 391.321 70.5 391 70.5L391 71.5C391.679 71.5 392.245 71.174 392.697 70.6546C393.14 70.1458 393.494 69.4328 393.785 68.584C394.368 66.884 394.747 64.4906 394.998 61.6693C395.5 56.0172 395.5 48.4918 395.5 41C395.5 33.4918 395.5 26.0172 395.998 20.4193C396.247 17.6156 396.618 15.3215 397.16 13.7403C397.432 12.9484 397.734 12.3724 398.057 12.0023C398.37 11.6428 398.679 11.5 399 11.5L399 10.5ZM399 130.5C398.679 130.5 398.37 130.357 398.057 129.998C397.734 129.628 397.432 129.052 397.16 128.26C396.618 126.679 396.247 124.384 395.998 121.581C395.5 115.983 395.5 108.508 395.5 101C395.5 93.5082 395.5 85.9828 394.998 80.3307C394.747 77.5094 394.368 75.116 393.785 73.416C393.494 72.5672 393.14 71.8542 392.697 71.3454C392.245 70.8259 391.679 70.5 391 70.5L391 71.5C391.321 71.5 391.63 71.6428 391.943 72.0022C392.266 72.3724 392.568 72.9484 392.84 73.7403C393.382 75.3215 393.753 77.6156 394.002 80.4193C394.5 86.0172 394.5 93.4918 394.5 101C394.5 108.492 394.5 116.017 395.002 121.669C395.253 124.491 395.632 126.884 396.214 128.584C396.506 129.433 396.859 130.146 397.303 130.655C397.755 131.174 398.321 131.5 399 131.5L399 130.5Z" fill="black"/>
<path d="M424.488 148.311C425.27 148.311 425.889 148.492 426.346 148.855C426.803 149.219 427.031 149.721 427.031 150.361C427.031 150.783 426.9 151.168 426.639 151.516C426.377 151.863 425.959 152.18 425.385 152.465C426.08 152.797 426.574 153.146 426.867 153.514C427.16 153.877 427.307 154.299 427.307 154.779C427.307 155.49 427.059 156.059 426.562 156.484C426.066 156.906 425.387 157.117 424.523 157.117C423.609 157.117 422.906 156.918 422.414 156.52C421.922 156.117 421.676 155.549 421.676 154.814C421.676 153.834 422.273 153.07 423.469 152.523C422.93 152.219 422.543 151.891 422.309 151.539C422.074 151.184 421.957 150.787 421.957 150.35C421.957 149.729 422.186 149.234 422.643 148.867C423.104 148.496 423.719 148.311 424.488 148.311ZM422.637 154.838C422.637 155.307 422.799 155.672 423.123 155.934C423.451 156.195 423.91 156.326 424.5 156.326C425.082 156.326 425.535 156.189 425.859 155.916C426.184 155.643 426.346 155.268 426.346 154.791C426.346 154.412 426.193 154.076 425.889 153.783C425.584 153.486 425.053 153.199 424.295 152.922C423.713 153.172 423.291 153.449 423.029 153.754C422.768 154.055 422.637 154.416 422.637 154.838ZM424.477 149.102C423.988 149.102 423.605 149.219 423.328 149.453C423.051 149.688 422.912 150 422.912 150.391C422.912 150.75 423.027 151.059 423.258 151.316C423.488 151.574 423.914 151.832 424.535 152.09C425.094 151.855 425.488 151.604 425.719 151.334C425.953 151.064 426.07 150.75 426.07 150.391C426.07 149.996 425.928 149.684 425.643 149.453C425.361 149.219 424.973 149.102 424.477 149.102Z" fill="black"/>
<path d="M367.482 75H361.852V74.1621L364.107 71.8945C364.795 71.1992 365.248 70.7031 365.467 70.4062C365.686 70.1094 365.85 69.8203 365.959 69.5391C366.068 69.2578 366.123 68.9551 366.123 68.6309C366.123 68.1738 365.984 67.8125 365.707 67.5469C365.43 67.2773 365.045 67.1426 364.553 67.1426C364.197 67.1426 363.859 67.2012 363.539 67.3184C363.223 67.4355 362.869 67.6484 362.479 67.957L361.963 67.2949C362.752 66.6387 363.611 66.3105 364.541 66.3105C365.346 66.3105 365.977 66.5176 366.434 66.9316C366.891 67.3418 367.119 67.8945 367.119 68.5898C367.119 69.1328 366.967 69.6699 366.662 70.2012C366.357 70.7324 365.787 71.4043 364.951 72.2168L363.076 74.0508V74.0977H367.482V75ZM374.396 70.7051C374.396 72.1855 374.162 73.291 373.693 74.0215C373.229 74.752 372.516 75.1172 371.555 75.1172C370.633 75.1172 369.932 74.7441 369.451 73.998C368.971 73.248 368.73 72.1504 368.73 70.7051C368.73 69.2129 368.963 68.1055 369.428 67.3828C369.893 66.6602 370.602 66.2988 371.555 66.2988C372.484 66.2988 373.189 66.6758 373.67 67.4297C374.154 68.1836 374.396 69.2754 374.396 70.7051ZM369.715 70.7051C369.715 71.9512 369.861 72.8594 370.154 73.4297C370.447 73.9961 370.914 74.2793 371.555 74.2793C372.203 74.2793 372.672 73.9922 372.961 73.418C373.254 72.8398 373.4 71.9355 373.4 70.7051C373.4 69.4746 373.254 68.5742 372.961 68.0039C372.672 67.4297 372.203 67.1426 371.555 67.1426C370.914 67.1426 370.447 67.4258 370.154 67.9922C369.861 68.5547 369.715 69.459 369.715 70.7051ZM381.621 73.0312H380.35V75H379.418V73.0312H375.252V72.1816L379.318 66.3867H380.35V72.1465H381.621V73.0312ZM379.418 72.1465V69.2988C379.418 68.7402 379.438 68.1094 379.477 67.4062H379.43C379.242 67.7812 379.066 68.0918 378.902 68.3379L376.225 72.1465H379.418ZM385.289 66.3105C386.07 66.3105 386.689 66.4922 387.146 66.8555C387.604 67.2188 387.832 67.7207 387.832 68.3613C387.832 68.7832 387.701 69.168 387.439 69.5156C387.178 69.8633 386.76 70.1797 386.186 70.4648C386.881 70.7969 387.375 71.1465 387.668 71.5137C387.961 71.877 388.107 72.2988 388.107 72.7793C388.107 73.4902 387.859 74.0586 387.363 74.4844C386.867 74.9062 386.188 75.1172 385.324 75.1172C384.41 75.1172 383.707 74.918 383.215 74.5195C382.723 74.1172 382.477 73.5488 382.477 72.8145C382.477 71.834 383.074 71.0703 384.27 70.5234C383.73 70.2188 383.344 69.8906 383.109 69.5391C382.875 69.1836 382.758 68.7871 382.758 68.3496C382.758 67.7285 382.986 67.2344 383.443 66.8672C383.904 66.4961 384.52 66.3105 385.289 66.3105ZM383.438 72.8379C383.438 73.3066 383.6 73.6719 383.924 73.9336C384.252 74.1953 384.711 74.3262 385.301 74.3262C385.883 74.3262 386.336 74.1895 386.66 73.916C386.984 73.6426 387.146 73.2676 387.146 72.791C387.146 72.4121 386.994 72.0762 386.689 71.7832C386.385 71.4863 385.854 71.1992 385.096 70.9219C384.514 71.1719 384.092 71.4492 383.83 71.7539C383.568 72.0547 383.438 72.416 383.438 72.8379ZM385.277 67.1016C384.789 67.1016 384.406 67.2188 384.129 67.4531C383.852 67.6875 383.713 68 383.713 68.3906C383.713 68.75 383.828 69.0586 384.059 69.3164C384.289 69.5742 384.715 69.832 385.336 70.0898C385.895 69.8555 386.289 69.6035 386.52 69.334C386.754 69.0645 386.871 68.75 386.871 68.3906C386.871 67.9961 386.729 67.6836 386.443 67.4531C386.162 67.2188 385.773 67.1016 385.277 67.1016Z" fill="black"/>
<path d="M5.96094 5.44922C5.96094 5.99609 5.80664 6.44336 5.49805 6.79102C5.19336 7.13867 4.75977 7.37109 4.19727 7.48828V7.53516C4.88477 7.62109 5.39453 7.83984 5.72656 8.19141C6.05859 8.54297 6.22461 9.00391 6.22461 9.57422C6.22461 10.3906 5.94141 11.0195 5.375 11.4609C4.80859 11.8984 4.00391 12.1172 2.96094 12.1172C2.50781 12.1172 2.0918 12.082 1.71289 12.0117C1.33789 11.9453 0.972656 11.8262 0.617188 11.6543V10.7285C0.988281 10.9121 1.38281 11.0527 1.80078 11.1504C2.22266 11.2441 2.62109 11.291 2.99609 11.291C4.47656 11.291 5.2168 10.7109 5.2168 9.55078C5.2168 8.51172 4.40039 7.99219 2.76758 7.99219H1.92383V7.1543H2.7793C3.44727 7.1543 3.97656 7.00781 4.36719 6.71484C4.75781 6.41797 4.95312 6.00781 4.95312 5.48438C4.95312 5.06641 4.80859 4.73828 4.51953 4.5C4.23438 4.26172 3.8457 4.14258 3.35352 4.14258C2.97852 4.14258 2.625 4.19336 2.29297 4.29492C1.96094 4.39648 1.58203 4.58398 1.15625 4.85742L0.664062 4.20117C1.01562 3.92383 1.41992 3.70703 1.87695 3.55078C2.33789 3.39062 2.82227 3.31055 3.33008 3.31055C4.16211 3.31055 4.80859 3.50195 5.26953 3.88477C5.73047 4.26367 5.96094 4.78516 5.96094 5.44922Z" fill="black"/>
<path d="M12.33 14.0963C12.0747 13.7571 11.8021 13.5067 11.5013 13.3561C11.1912 13.2007 10.8793 13.1658 10.5808 13.2153C10.035 13.3058 9.54805 13.6869 9.1962 13.9518C8.78224 14.2633 8.50338 14.4586 8.24932 14.5007C8.14785 14.5175 8.05133 14.5079 7.94027 14.4523C7.8198 14.3919 7.65845 14.2649 7.46272 14.0049L6.66374 14.6062C6.91904 14.9454 7.19167 15.1958 7.49242 15.3464C7.80257 15.5018 8.1145 15.5367 8.41296 15.4872C8.95877 15.3967 9.44572 15.0156 9.79756 14.7507C10.2115 14.4392 10.4904 14.2439 10.7444 14.2018C10.8459 14.185 10.9424 14.1946 11.0535 14.2502C11.174 14.3105 11.3353 14.4376 11.531 14.6976L12.33 14.0963ZM6.20356 18.7074C6.00783 18.4473 5.93041 18.2571 5.90576 18.1246C5.88304 18.0025 5.90051 17.9071 5.94477 17.8143C6.05557 17.5818 6.32036 17.3679 6.73433 17.0563C7.08617 16.7915 7.58719 16.429 7.82523 15.9296C7.9554 15.6565 8.00811 15.3471 7.94466 15.006C7.88313 14.6753 7.71802 14.3441 7.46272 14.0049L6.66374 14.6062C6.85946 14.8663 6.93688 15.0565 6.96153 15.1889C6.98425 15.3111 6.96678 15.4065 6.92253 15.4993C6.81173 15.7318 6.54694 15.9457 6.13297 16.2573C5.78113 16.5221 5.28011 16.8846 5.04206 17.384C4.91189 17.6571 4.85918 17.9665 4.92264 18.3076C4.98417 18.6383 5.14928 18.9695 5.40457 19.3087L6.20356 18.7074Z" fill="black"/>
<path d="M142.416 25H136.785V24.1621L139.041 21.8945C139.729 21.1992 140.182 20.7031 140.4 20.4062C140.619 20.1094 140.783 19.8203 140.893 19.5391C141.002 19.2578 141.057 18.9551 141.057 18.6309C141.057 18.1738 140.918 17.8125 140.641 17.5469C140.363 17.2773 139.979 17.1426 139.486 17.1426C139.131 17.1426 138.793 17.2012 138.473 17.3184C138.156 17.4355 137.803 17.6484 137.412 17.957L136.896 17.2949C137.686 16.6387 138.545 16.3105 139.475 16.3105C140.279 16.3105 140.91 16.5176 141.367 16.9316C141.824 17.3418 142.053 17.8945 142.053 18.5898C142.053 19.1328 141.9 19.6699 141.596 20.2012C141.291 20.7324 140.721 21.4043 139.885 22.2168L138.01 24.0508V24.0977H142.416V25ZM146.33 19.7676C147.232 19.7676 147.941 19.9922 148.457 20.4414C148.977 20.8867 149.236 21.498 149.236 22.2754C149.236 23.1621 148.953 23.8574 148.387 24.3613C147.824 24.8652 147.047 25.1172 146.055 25.1172C145.09 25.1172 144.354 24.9629 143.846 24.6543V23.7168C144.119 23.8926 144.459 24.0312 144.865 24.1328C145.271 24.2305 145.672 24.2793 146.066 24.2793C146.754 24.2793 147.287 24.1172 147.666 23.793C148.049 23.4688 148.24 23 148.24 22.3867C148.24 21.1914 147.508 20.5938 146.043 20.5938C145.672 20.5938 145.176 20.6504 144.555 20.7637L144.051 20.4414L144.373 16.4336H148.633V17.3301H145.205L144.988 19.9023C145.438 19.8125 145.885 19.7676 146.33 19.7676ZM150.619 21.3379C150.619 19.6543 150.945 18.3965 151.598 17.5645C152.254 16.7285 153.223 16.3105 154.504 16.3105C154.945 16.3105 155.293 16.3477 155.547 16.4219V17.2598C155.246 17.1621 154.902 17.1133 154.516 17.1133C153.598 17.1133 152.896 17.4004 152.412 17.9746C151.928 18.5449 151.662 19.4434 151.615 20.6699H151.686C152.115 19.998 152.795 19.6621 153.725 19.6621C154.494 19.6621 155.1 19.8945 155.541 20.3594C155.986 20.8242 156.209 21.4551 156.209 22.252C156.209 23.1426 155.965 23.8438 155.477 24.3555C154.992 24.8633 154.336 25.1172 153.508 25.1172C152.621 25.1172 151.918 24.7852 151.398 24.1211C150.879 23.4531 150.619 22.5254 150.619 21.3379ZM153.496 24.291C154.051 24.291 154.48 24.1172 154.785 23.7695C155.094 23.418 155.248 22.9121 155.248 22.252C155.248 21.6855 155.105 21.2402 154.82 20.916C154.535 20.5918 154.109 20.4297 153.543 20.4297C153.191 20.4297 152.869 20.502 152.576 20.6465C152.283 20.791 152.049 20.9902 151.873 21.2441C151.701 21.498 151.615 21.7617 151.615 22.0352C151.615 22.4375 151.693 22.8125 151.85 23.1602C152.006 23.5078 152.227 23.7832 152.512 23.9863C152.801 24.1895 153.129 24.291 153.496 24.291Z" fill="black"/>
<path d="M167.471 24.1885C167.046 23.6236 166.437 23.4326 165.787 23.4818C165.166 23.5289 164.48 23.7934 163.783 24.1568C162.385 24.8859 160.744 26.1229 159.152 27.3212C157.536 28.5376 155.968 29.7154 154.66 30.3978C154.003 30.7402 153.461 30.9307 153.042 30.9624C152.652 30.9919 152.409 30.8856 152.233 30.6515L151.434 31.2528C151.859 31.8177 152.468 32.0088 153.118 31.9595C153.739 31.9124 154.425 31.6479 155.122 31.2845C156.52 30.5554 158.161 29.3184 159.753 28.1201C161.369 26.9037 162.937 25.7259 164.245 25.0435C164.902 24.7011 165.444 24.5107 165.863 24.4789C166.253 24.4494 166.496 24.5558 166.672 24.7898L167.471 24.1885ZM141.805 43.5063C141.629 43.2723 141.594 43.0091 141.73 42.6424C141.877 42.2489 142.21 41.7806 142.72 41.2444C143.738 40.1757 145.304 38.9956 146.92 37.7791C148.512 36.5808 150.155 35.3463 151.242 34.2044C151.784 33.6354 152.229 33.0494 152.446 32.4653C152.673 31.8543 152.658 31.2164 152.233 30.6515L151.434 31.2528C151.61 31.4869 151.645 31.7501 151.508 32.1167C151.362 32.5103 151.029 32.9785 150.518 33.5147C149.5 34.5835 147.935 35.7636 146.319 36.9801C144.727 38.1784 143.084 39.4129 141.996 40.5547C141.454 41.1238 141.01 41.7098 140.793 42.2939C140.566 42.9049 140.581 43.5428 141.006 44.1077L141.805 43.5063Z" fill="black"/>
<path d="M260.416 40H254.785V39.1621L257.041 36.8945C257.729 36.1992 258.182 35.7031 258.4 35.4062C258.619 35.1094 258.783 34.8203 258.893 34.5391C259.002 34.2578 259.057 33.9551 259.057 33.6309C259.057 33.1738 258.918 32.8125 258.641 32.5469C258.363 32.2773 257.979 32.1426 257.486 32.1426C257.131 32.1426 256.793 32.2012 256.473 32.3184C256.156 32.4355 255.803 32.6484 255.412 32.957L254.896 32.2949C255.686 31.6387 256.545 31.3105 257.475 31.3105C258.279 31.3105 258.91 31.5176 259.367 31.9316C259.824 32.3418 260.053 32.8945 260.053 33.5898C260.053 34.1328 259.9 34.6699 259.596 35.2012C259.291 35.7324 258.721 36.4043 257.885 37.2168L256.01 39.0508V39.0977H260.416V40ZM264.33 34.7676C265.232 34.7676 265.941 34.9922 266.457 35.4414C266.977 35.8867 267.236 36.498 267.236 37.2754C267.236 38.1621 266.953 38.8574 266.387 39.3613C265.824 39.8652 265.047 40.1172 264.055 40.1172C263.09 40.1172 262.354 39.9629 261.846 39.6543V38.7168C262.119 38.8926 262.459 39.0312 262.865 39.1328C263.271 39.2305 263.672 39.2793 264.066 39.2793C264.754 39.2793 265.287 39.1172 265.666 38.793C266.049 38.4688 266.24 38 266.24 37.3867C266.24 36.1914 265.508 35.5938 264.043 35.5938C263.672 35.5938 263.176 35.6504 262.555 35.7637L262.051 35.4414L262.373 31.4336H266.633V32.3301H263.205L262.988 34.9023C263.438 34.8125 263.885 34.7676 264.33 34.7676ZM268.619 36.3379C268.619 34.6543 268.945 33.3965 269.598 32.5645C270.254 31.7285 271.223 31.3105 272.504 31.3105C272.945 31.3105 273.293 31.3477 273.547 31.4219V32.2598C273.246 32.1621 272.902 32.1133 272.516 32.1133C271.598 32.1133 270.896 32.4004 270.412 32.9746C269.928 33.5449 269.662 34.4434 269.615 35.6699H269.686C270.115 34.998 270.795 34.6621 271.725 34.6621C272.494 34.6621 273.1 34.8945 273.541 35.3594C273.986 35.8242 274.209 36.4551 274.209 37.252C274.209 38.1426 273.965 38.8438 273.477 39.3555C272.992 39.8633 272.336 40.1172 271.508 40.1172C270.621 40.1172 269.918 39.7852 269.398 39.1211C268.879 38.4531 268.619 37.5254 268.619 36.3379ZM271.496 39.291C272.051 39.291 272.48 39.1172 272.785 38.7695C273.094 38.418 273.248 37.9121 273.248 37.252C273.248 36.6855 273.105 36.2402 272.82 35.916C272.535 35.5918 272.109 35.4297 271.543 35.4297C271.191 35.4297 270.869 35.502 270.576 35.6465C270.283 35.791 270.049 35.9902 269.873 36.2441C269.701 36.498 269.615 36.7617 269.615 37.0352C269.615 37.4375 269.693 37.8125 269.85 38.1602C270.006 38.5078 270.227 38.7832 270.512 38.9863C270.801 39.1895 271.129 39.291 271.496 39.291Z" fill="black"/>
<path d="M285.471 39.1885C285.046 38.6236 284.437 38.4326 283.787 38.4818C283.166 38.5289 282.48 38.7934 281.783 39.1568C280.385 39.8859 278.744 41.1229 277.152 42.3212C275.536 43.5376 273.968 44.7154 272.66 45.3978C272.003 45.7402 271.461 45.9307 271.042 45.9624C270.652 45.9919 270.409 45.8856 270.233 45.6515L269.434 46.2528C269.859 46.8177 270.468 47.0088 271.118 46.9595C271.739 46.9124 272.425 46.6479 273.122 46.2845C274.52 45.5554 276.161 44.3184 277.753 43.1201C279.369 41.9037 280.937 40.7259 282.245 40.0435C282.902 39.7011 283.444 39.5107 283.863 39.4789C284.253 39.4494 284.496 39.5558 284.672 39.7898L285.471 39.1885ZM259.805 58.5063C259.629 58.2723 259.594 58.0091 259.73 57.6424C259.877 57.2489 260.21 56.7806 260.72 56.2444C261.738 55.1757 263.304 53.9956 264.92 52.7791C266.512 51.5808 268.155 50.3463 269.242 49.2044C269.784 48.6354 270.229 48.0494 270.446 47.4653C270.673 46.8543 270.658 46.2164 270.233 45.6515L269.434 46.2528C269.61 46.4869 269.645 46.7501 269.508 47.1167C269.362 47.5103 269.029 47.9785 268.518 48.5147C267.5 49.5835 265.935 50.7636 264.319 51.9801C262.727 53.1784 261.084 54.4129 259.996 55.5547C259.454 56.1238 259.01 56.7098 258.793 57.2939C258.566 57.9049 258.581 58.5428 259.006 59.1077L259.805 58.5063Z" fill="black"/>
<path d="M9 22.4366L14.8889 18L115 18V118.563L109.111 123H9V22.4366Z" fill="white"/>
<path d="M9 22.4366L14.8889 18L115 18M9 22.4366H109.111M9 22.4366V123H109.111M115 18L109.111 22.4366M115 18V118.563L109.111 123M109.111 22.4366V123" stroke="black" stroke-width="2"/>
<path d="M90 102H62V74L66 71H94V99L90 102Z" fill="#CEB7FF"/>
<path d="M62 74V102H90M62 74L66 71H94M62 74H90M90 74V102M90 74L94 71M90 102L94 99V71" stroke="#9462FF"/>
<path d="M161 100V92H153V100H161Z" fill="#CEB7FF" stroke="#9462FF"/>
<path d="M71.416 87.0898C71.416 90.4414 70.1191 92.1172 67.5254 92.1172C67.0723 92.1172 66.7129 92.0781 66.4473 92V91.1621C66.7598 91.2637 67.1152 91.3145 67.5137 91.3145C68.4512 91.3145 69.1582 91.0254 69.6348 90.4473C70.1152 89.8652 70.377 88.9746 70.4199 87.7754H70.3496C70.1348 88.0996 69.8496 88.3477 69.4941 88.5195C69.1387 88.6875 68.7383 88.7715 68.293 88.7715C67.5352 88.7715 66.9336 88.5449 66.4883 88.0918C66.043 87.6387 65.8203 87.0059 65.8203 86.1934C65.8203 85.3027 66.0684 84.5996 66.5645 84.084C67.0645 83.5684 67.7207 83.3105 68.5332 83.3105C69.1152 83.3105 69.623 83.4609 70.0566 83.7617C70.4941 84.0586 70.8301 84.4941 71.0645 85.0684C71.2988 85.6387 71.416 86.3125 71.416 87.0898ZM68.5332 84.1426C67.9746 84.1426 67.543 84.3223 67.2383 84.6816C66.9336 85.041 66.7812 85.541 66.7812 86.1816C66.7812 86.7441 66.9219 87.1875 67.2031 87.5117C67.4844 87.832 67.9121 87.9922 68.4863 87.9922C68.8418 87.9922 69.168 87.9199 69.4648 87.7754C69.7656 87.6309 70.002 87.4336 70.1738 87.1836C70.3457 86.9336 70.4316 86.6719 70.4316 86.3984C70.4316 85.9883 70.3516 85.6094 70.1914 85.2617C70.0312 84.9141 69.8066 84.6406 69.5176 84.4414C69.2324 84.2422 68.9043 84.1426 68.5332 84.1426ZM77.5742 85.1094L78.1367 85.6895L76.0742 87.7637L78.125 89.8262L77.5625 90.4062L75.4883 88.3496L73.4492 90.4062L72.8574 89.8262L74.9082 87.7637L72.8457 85.7012L73.4316 85.1094L75.5 87.1895L77.5742 85.1094ZM85.1504 87.0898C85.1504 90.4414 83.8535 92.1172 81.2598 92.1172C80.8066 92.1172 80.4473 92.0781 80.1816 92V91.1621C80.4941 91.2637 80.8496 91.3145 81.248 91.3145C82.1855 91.3145 82.8926 91.0254 83.3691 90.4473C83.8496 89.8652 84.1113 88.9746 84.1543 87.7754H84.084C83.8691 88.0996 83.584 88.3477 83.2285 88.5195C82.873 88.6875 82.4727 88.7715 82.0273 88.7715C81.2695 88.7715 80.668 88.5449 80.2227 88.0918C79.7773 87.6387 79.5547 87.0059 79.5547 86.1934C79.5547 85.3027 79.8027 84.5996 80.2988 84.084C80.7988 83.5684 81.4551 83.3105 82.2676 83.3105C82.8496 83.3105 83.3574 83.4609 83.791 83.7617C84.2285 84.0586 84.5645 84.4941 84.7988 85.0684C85.0332 85.6387 85.1504 86.3125 85.1504 87.0898ZM82.2676 84.1426C81.709 84.1426 81.2773 84.3223 80.9727 84.6816C80.668 85.041 80.5156 85.541 80.5156 86.1816C80.5156 86.7441 80.6562 87.1875 80.9375 87.5117C81.2188 87.832 81.6465 87.9922 82.2207 87.9922C82.5762 87.9922 82.9023 87.9199 83.1992 87.7754C83.5 87.6309 83.7363 87.4336 83.9082 87.1836C84.0801 86.9336 84.166 86.6719 84.166 86.3984C84.166 85.9883 84.0859 85.6094 83.9258 85.2617C83.7656 84.9141 83.541 84.6406 83.252 84.4414C82.9668 84.2422 82.6387 84.1426 82.2676 84.1426Z" fill="black"/>
<line x1="156.881" y1="92.3558" x2="93.8814" y2="71.3558" stroke="black" stroke-width="0.75" stroke-dasharray="2 3"/>
<line x1="89.9888" y1="101.625" x2="156.989" y2="99.6252" stroke="black" stroke-width="0.75" stroke-dasharray="2 3"/>
<path d="M263 62L288 43H321V77L297 96H263V62Z" fill="white"/>
<path d="M263 62L288 43H321M263 62H297M263 62V96H297M321 43L297 62M321 43V77L297 96M297 62V96" stroke="black" stroke-width="2"/>
<rect x="508" y="31" width="52" height="80" fill="white" stroke="#32ACF1" stroke-width="2"/>
<rect x="629" y="31" width="10" height="80" fill="white" stroke="black" stroke-width="2"/>
<rect x="404" y="11" width="40" height="120" fill="white" stroke="#32ACF1" stroke-width="2"/>
<path d="M351.354 71.3536C351.549 71.1583 351.549 70.8417 351.354 70.6464L348.172 67.4645C347.976 67.2692 347.66 67.2692 347.464 67.4645C347.269 67.6597 347.269 67.9763 347.464 68.1716L350.293 71L347.464 73.8284C347.269 74.0237 347.269 74.3403 347.464 74.5355C347.66 74.7308 347.976 74.7308 348.172 74.5355L351.354 71.3536ZM331 71.5H351V70.5H331V71.5Z" fill="black"/>
<path d="M590.354 71.3536C590.549 71.1583 590.549 70.8417 590.354 70.6464L587.172 67.4645C586.976 67.2692 586.66 67.2692 586.464 67.4645C586.269 67.6597 586.269 67.9763 586.464 68.1716L589.293 71L586.464 73.8284C586.269 74.0237 586.269 74.3403 586.464 74.5355C586.66 74.7308 586.976 74.7308 587.172 74.5355L590.354 71.3536ZM570 71.5H590V70.5H570V71.5Z" fill="black"/>
<path d="M482 4.97266V4.16992H487.449V4.97266H482ZM482 7.36914V6.56641H487.449V7.36914H482ZM495.402 12.2148H492.477V0.00585938H495.402V0.648438H493.146V11.5654H495.402V12.2148ZM499.18 1.31055C499.961 1.31055 500.58 1.49219 501.037 1.85547C501.494 2.21875 501.723 2.7207 501.723 3.36133C501.723 3.7832 501.592 4.16797 501.33 4.51562C501.068 4.86328 500.65 5.17969 500.076 5.46484C500.771 5.79688 501.266 6.14648 501.559 6.51367C501.852 6.87695 501.998 7.29883 501.998 7.7793C501.998 8.49023 501.75 9.05859 501.254 9.48438C500.758 9.90625 500.078 10.1172 499.215 10.1172C498.301 10.1172 497.598 9.91797 497.105 9.51953C496.613 9.11719 496.367 8.54883 496.367 7.81445C496.367 6.83398 496.965 6.07031 498.16 5.52344C497.621 5.21875 497.234 4.89062 497 4.53906C496.766 4.18359 496.648 3.78711 496.648 3.34961C496.648 2.72852 496.877 2.23438 497.334 1.86719C497.795 1.49609 498.41 1.31055 499.18 1.31055ZM497.328 7.83789C497.328 8.30664 497.49 8.67188 497.814 8.93359C498.143 9.19531 498.602 9.32617 499.191 9.32617C499.773 9.32617 500.227 9.18945 500.551 8.91602C500.875 8.64258 501.037 8.26758 501.037 7.79102C501.037 7.41211 500.885 7.07617 500.58 6.7832C500.275 6.48633 499.744 6.19922 498.986 5.92188C498.404 6.17188 497.982 6.44922 497.721 6.75391C497.459 7.05469 497.328 7.41602 497.328 7.83789ZM499.168 2.10156C498.68 2.10156 498.297 2.21875 498.02 2.45312C497.742 2.6875 497.604 3 497.604 3.39062C497.604 3.75 497.719 4.05859 497.949 4.31641C498.18 4.57422 498.605 4.83203 499.227 5.08984C499.785 4.85547 500.18 4.60352 500.41 4.33398C500.645 4.06445 500.762 3.75 500.762 3.39062C500.762 2.99609 500.619 2.68359 500.334 2.45312C500.053 2.21875 499.664 2.10156 499.168 2.10156ZM508.133 3.10938L508.695 3.68945L506.633 5.76367L508.684 7.82617L508.121 8.40625L506.047 6.34961L504.008 8.40625L503.416 7.82617L505.467 5.76367L503.404 3.70117L503.99 3.10938L506.059 5.18945L508.133 3.10938ZM513.682 10H512.732V3.89453C512.732 3.38672 512.748 2.90625 512.779 2.45312C512.697 2.53516 512.605 2.62109 512.504 2.71094C512.402 2.80078 511.938 3.18164 511.109 3.85352L510.594 3.18555L512.861 1.43359H513.682V10ZM517.045 6.33789C517.045 4.6543 517.371 3.39648 518.023 2.56445C518.68 1.72852 519.648 1.31055 520.93 1.31055C521.371 1.31055 521.719 1.34766 521.973 1.42188V2.25977C521.672 2.16211 521.328 2.11328 520.941 2.11328C520.023 2.11328 519.322 2.40039 518.838 2.97461C518.354 3.54492 518.088 4.44336 518.041 5.66992H518.111C518.541 4.99805 519.221 4.66211 520.15 4.66211C520.92 4.66211 521.525 4.89453 521.967 5.35938C522.412 5.82422 522.635 6.45508 522.635 7.25195C522.635 8.14258 522.391 8.84375 521.902 9.35547C521.418 9.86328 520.762 10.1172 519.934 10.1172C519.047 10.1172 518.344 9.78516 517.824 9.12109C517.305 8.45312 517.045 7.52539 517.045 6.33789ZM519.922 9.29102C520.477 9.29102 520.906 9.11719 521.211 8.76953C521.52 8.41797 521.674 7.91211 521.674 7.25195C521.674 6.68555 521.531 6.24023 521.246 5.91602C520.961 5.5918 520.535 5.42969 519.969 5.42969C519.617 5.42969 519.295 5.50195 519.002 5.64648C518.709 5.79102 518.475 5.99023 518.299 6.24414C518.127 6.49805 518.041 6.76172 518.041 7.03516C518.041 7.4375 518.119 7.8125 518.275 8.16016C518.432 8.50781 518.652 8.7832 518.938 8.98633C519.227 9.18945 519.555 9.29102 519.922 9.29102ZM523.575 11.5654H525.831V0.648438H523.575V0.00585938H526.501V12.2148H523.575V11.5654Z" fill="black"/>
<path d="M467.549 1.88647C467.641 1.64829 467.668 1.56892 468.779 1.56892V1C468.118 1.02648 468.091 1.02648 467.337 1.02648C466.953 1.02648 465.987 1.02648 465.67 1V1.56892C465.829 1.56892 466.993 1.56892 466.993 1.75414C466.993 1.76738 466.993 1.79386 466.94 1.91294L464.717 7.81402L462.349 1.56892H463.606V1C463.182 1.02648 461.952 1.02648 461.449 1.02648C461.039 1.02648 459.756 1.02648 459.438 1V1.56892H460.549L461.092 2.99788L459.279 7.81402L456.924 1.56892H458.168V1C457.784 1.02648 456.487 1.02648 456.011 1.02648C455.588 1.02648 454.331 1.02648 454 1V1.56892H455.111L458.26 9.87808C458.34 10.103 458.38 10.1956 458.671 10.1956C458.962 10.1956 459.001 10.103 459.081 9.89131L461.383 3.79173L463.698 9.89131C463.778 10.103 463.817 10.1956 464.109 10.1956C464.36 10.1956 464.426 10.1427 464.519 9.89131L467.549 1.88647Z" fill="black"/>
<path d="M472.148 11.1728C472.148 11.1176 472.104 11.0735 472.038 11.0735C471.938 11.0735 471.927 11.1066 471.872 11.2941C471.585 12.2978 471.133 12.6397 470.769 12.6397C470.637 12.6397 470.482 12.6066 470.482 12.2757C470.482 11.9779 470.615 11.647 470.736 11.3162L471.508 9.26467C471.541 9.17643 471.619 8.9779 471.619 8.76834C471.619 8.3051 471.288 7.88598 470.747 7.88598C469.732 7.88598 469.324 9.48526 469.324 9.57349C469.324 9.61761 469.369 9.67276 469.446 9.67276C469.545 9.67276 469.556 9.62864 469.6 9.47423C469.865 8.54775 470.284 8.10657 470.714 8.10657C470.813 8.10657 471.001 8.1176 471.001 8.47054C471.001 8.75731 470.858 9.12128 470.769 9.36394L469.997 11.4154C469.931 11.5919 469.865 11.7684 469.865 11.9669C469.865 12.4632 470.207 12.8603 470.736 12.8603C471.751 12.8603 472.148 11.25 472.148 11.1728ZM472.06 5.86759C472.06 5.70212 471.927 5.5036 471.685 5.5036C471.431 5.5036 471.144 5.74626 471.144 6.03302C471.144 6.30877 471.376 6.39701 471.508 6.39701C471.806 6.39701 472.06 6.11026 472.06 5.86759Z" fill="black"/>
<path d="M476.557 9.25364C476.601 9.07717 476.601 8.92276 476.601 8.87864C476.601 8.23893 476.127 7.88598 475.631 7.88598C474.517 7.88598 473.921 9.49629 473.921 9.57349C473.921 9.62864 473.965 9.67276 474.031 9.67276C474.12 9.67276 474.131 9.62864 474.186 9.51835C474.627 8.44849 475.179 8.10657 475.598 8.10657C475.829 8.10657 475.951 8.2279 475.951 8.61393C475.951 8.87864 475.918 8.98893 475.873 9.18746L474.826 13.3456C474.616 14.1618 474.098 14.7794 473.491 14.7794C473.447 14.7794 473.215 14.7794 473.006 14.6691C473.27 14.614 473.48 14.4044 473.48 14.1397C473.48 13.9632 473.348 13.7868 473.105 13.7868C472.818 13.7868 472.554 14.0294 472.554 14.3603C472.554 14.8125 473.039 15 473.491 15C474.252 15 475.256 14.4375 475.531 13.3345L476.557 9.25364ZM477.009 5.86759C477.009 5.59184 476.778 5.5036 476.645 5.5036C476.348 5.5036 476.094 5.79035 476.094 6.03302C476.094 6.19849 476.226 6.39701 476.469 6.39701C476.723 6.39701 477.009 6.15435 477.009 5.86759Z" fill="black"/>
<path d="M197 89H169V61L195 42H223V70L197 89Z" fill="#CEB7FF"/>
<path d="M169 61V89H197M169 61L195 42H223M169 61H197M197 61V89M197 61L223 42M197 89L223 70V42" stroke="#9462FF"/>
<path d="M145 48.5238L170.882 29H233M145 48.5238H207.118M145 48.5238V111H207.118M233 29L207.118 48.5238M233 29V91.4762L207.118 111M207.118 48.5238V111" stroke="black" stroke-width="2"/>
<path d="M281 87V79H273V87H281Z" fill="#CEB7FF" stroke="#9462FF"/>
<path d="M178.416 74.0898C178.416 77.4414 177.119 79.1172 174.525 79.1172C174.072 79.1172 173.713 79.0781 173.447 79V78.1621C173.76 78.2637 174.115 78.3145 174.514 78.3145C175.451 78.3145 176.158 78.0254 176.635 77.4473C177.115 76.8652 177.377 75.9746 177.42 74.7754H177.35C177.135 75.0996 176.85 75.3477 176.494 75.5195C176.139 75.6875 175.738 75.7715 175.293 75.7715C174.535 75.7715 173.934 75.5449 173.488 75.0918C173.043 74.6387 172.82 74.0059 172.82 73.1934C172.82 72.3027 173.068 71.5996 173.564 71.084C174.064 70.5684 174.721 70.3105 175.533 70.3105C176.115 70.3105 176.623 70.4609 177.057 70.7617C177.494 71.0586 177.83 71.4941 178.064 72.0684C178.299 72.6387 178.416 73.3125 178.416 74.0898ZM175.533 71.1426C174.975 71.1426 174.543 71.3223 174.238 71.6816C173.934 72.041 173.781 72.541 173.781 73.1816C173.781 73.7441 173.922 74.1875 174.203 74.5117C174.484 74.832 174.912 74.9922 175.486 74.9922C175.842 74.9922 176.168 74.9199 176.465 74.7754C176.766 74.6309 177.002 74.4336 177.174 74.1836C177.346 73.9336 177.432 73.6719 177.432 73.3984C177.432 72.9883 177.352 72.6094 177.191 72.2617C177.031 71.9141 176.807 71.6406 176.518 71.4414C176.232 71.2422 175.904 71.1426 175.533 71.1426ZM184.574 72.1094L185.137 72.6895L183.074 74.7637L185.125 76.8262L184.562 77.4062L182.488 75.3496L180.449 77.4062L179.857 76.8262L181.908 74.7637L179.846 72.7012L180.432 72.1094L182.5 74.1895L184.574 72.1094ZM192.15 74.0898C192.15 77.4414 190.854 79.1172 188.26 79.1172C187.807 79.1172 187.447 79.0781 187.182 79V78.1621C187.494 78.2637 187.85 78.3145 188.248 78.3145C189.186 78.3145 189.893 78.0254 190.369 77.4473C190.85 76.8652 191.111 75.9746 191.154 74.7754H191.084C190.869 75.0996 190.584 75.3477 190.229 75.5195C189.873 75.6875 189.473 75.7715 189.027 75.7715C188.27 75.7715 187.668 75.5449 187.223 75.0918C186.777 74.6387 186.555 74.0059 186.555 73.1934C186.555 72.3027 186.803 71.5996 187.299 71.084C187.799 70.5684 188.455 70.3105 189.268 70.3105C189.85 70.3105 190.357 70.4609 190.791 70.7617C191.229 71.0586 191.564 71.4941 191.799 72.0684C192.033 72.6387 192.15 73.3125 192.15 74.0898ZM189.268 71.1426C188.709 71.1426 188.277 71.3223 187.973 71.6816C187.668 72.041 187.516 72.541 187.516 73.1816C187.516 73.7441 187.656 74.1875 187.938 74.5117C188.219 74.832 188.646 74.9922 189.221 74.9922C189.576 74.9922 189.902 74.9199 190.199 74.7754C190.5 74.6309 190.736 74.4336 190.908 74.1836C191.08 73.9336 191.166 73.6719 191.166 73.3984C191.166 72.9883 191.086 72.6094 190.926 72.2617C190.766 71.9141 190.541 71.6406 190.252 71.4414C189.967 71.2422 189.639 71.1426 189.268 71.1426Z" fill="black"/>
<line x1="276.788" y1="79.3093" x2="222.788" y2="42.3094" stroke="black" stroke-width="0.75" stroke-dasharray="2 3"/>
<line x1="196.991" y1="88.6251" x2="276.991" y2="86.6251" stroke="black" stroke-width="0.75" stroke-dasharray="2 3"/>
<line x1="507.888" y1="31.3579" x2="443.888" y2="11.3579" stroke="black" stroke-width="0.75" stroke-dasharray="2 3"/>
<line x1="443.888" y1="130.642" x2="507.888" y2="110.642" stroke="black" stroke-width="0.75" stroke-dasharray="2 3"/>
</svg>
