<svg width="900" height="235" viewBox="0 0 900 235" fill="none" xmlns="http://www.w3.org/2000/svg">
<path d="M35 40.5C34.1882 40.5 33.5116 40.9039 32.9663 41.5549C32.4296 42.1957 31.995 43.1015 31.6345 44.195C30.9124 46.3855 30.44 49.4803 30.1268 53.1449C29.4996 60.4835 29.5 70.2579 29.5 80C29.5 89.7579 29.4996 99.4835 28.8768 106.77C28.565 110.418 28.0999 113.417 27.4158 115.492C27.0732 116.531 26.6874 117.301 26.2671 117.803C25.8554 118.294 25.4382 118.5 25 118.5L25 119.5C25.8119 119.5 26.4884 119.096 27.0337 118.445C27.5704 117.804 28.005 116.899 28.3655 115.805C29.0876 113.615 29.56 110.52 29.8732 106.855C30.5004 99.5165 30.5 89.7421 30.5 80C30.5 70.2421 30.5004 60.5165 31.1232 53.2301C31.435 49.5822 31.9001 46.5833 32.5842 44.5081C32.9268 43.4689 33.3126 42.6988 33.7329 42.197C34.1446 41.7055 34.5618 41.5 35 41.5V40.5ZM35 196.5C34.5618 196.5 34.1446 196.294 33.7329 195.803C33.3126 195.301 32.9268 194.531 32.5842 193.492C31.9001 191.417 31.435 188.418 31.1232 184.77C30.5004 177.483 30.5 167.758 30.5 158C30.5 148.258 30.5004 138.483 29.8732 131.145C29.56 127.48 29.0876 124.385 28.3655 122.195C28.005 121.101 27.5704 120.196 27.0337 119.555C26.4884 118.904 25.8118 118.5 25 118.5L25 119.5C25.4382 119.5 25.8554 119.706 26.2671 120.197C26.6874 120.699 27.0732 121.469 27.4158 122.508C28.0999 124.583 28.565 127.582 28.8768 131.23C29.4996 138.517 29.5 148.242 29.5 158C29.5 167.742 29.4996 177.517 30.1268 184.855C30.44 188.52 30.9124 191.615 31.6345 193.805C31.995 194.899 32.4296 195.804 32.9663 196.445C33.5116 197.096 34.1882 197.5 35 197.5V196.5Z" fill="black"/>
<path d="M20 122.477C20 122.394 19.9219 122.328 19.8047 122.328C19.6289 122.328 19.6094 122.378 19.5117 122.658C19.0039 124.159 18.2031 124.67 17.5586 124.67C17.3242 124.67 17.0508 124.621 17.0508 124.126C17.0508 123.681 17.2852 123.186 17.5 122.691L18.8672 119.624C18.9258 119.492 19.0625 119.195 19.0625 118.882C19.0625 118.189 18.4766 117.562 17.5195 117.562C15.7227 117.562 15 119.954 15 120.085C15 120.151 15.0781 120.234 15.2148 120.234C15.3906 120.234 15.4102 120.168 15.4883 119.937C15.957 118.552 16.6992 117.892 17.4609 117.892C17.6367 117.892 17.9687 117.909 17.9687 118.436C17.9687 118.865 17.7148 119.409 17.5586 119.772L16.1914 122.84C16.0742 123.103 15.957 123.367 15.957 123.664C15.957 124.406 16.5625 125 17.5 125C19.2969 125 20 122.592 20 122.477ZM19.8437 114.544C19.8437 114.297 19.6094 114 19.1797 114C18.7305 114 18.2227 114.363 18.2227 114.792C18.2227 115.204 18.6328 115.336 18.8672 115.336C19.3945 115.336 19.8437 114.907 19.8437 114.544Z" fill="black"/>
<path d="M195.5 31C195.5 30.196 195.115 29.5208 194.486 28.9726C193.868 28.4337 192.993 27.9977 191.94 27.6364C189.829 26.9129 186.85 26.4403 183.326 26.127C176.267 25.4996 166.867 25.5 157.5 25.5C148.117 25.5 138.767 25.4996 131.763 24.877C128.256 24.5652 125.376 24.1004 123.385 23.4176C122.388 23.0758 121.651 22.6915 121.171 22.2734C120.701 21.8646 120.5 21.446 120.5 21L119.5 21C119.5 21.804 119.885 22.4792 120.514 23.0274C121.132 23.5663 122.007 24.0023 123.06 24.3636C125.171 25.0871 128.15 25.5597 131.674 25.873C138.733 26.5004 148.133 26.5 157.5 26.5C166.883 26.5 176.233 26.5004 183.237 27.123C186.744 27.4347 189.624 27.8996 191.615 28.5823C192.612 28.9242 193.349 29.3085 193.829 29.7266C194.299 30.1354 194.5 30.554 194.5 31L195.5 31ZM45.5 31C45.5 30.554 45.7014 30.1354 46.1707 29.7266C46.6507 29.3085 47.3879 28.9241 48.3848 28.5823C50.3762 27.8996 53.2562 27.4347 56.763 27.123C63.7672 26.5004 73.1168 26.5 82.5 26.5C91.8668 26.5 101.267 26.5004 108.326 25.873C111.85 25.5597 114.829 25.0871 116.94 24.3636C117.993 24.0023 118.868 23.5663 119.486 23.0274C120.115 22.4792 120.5 21.804 120.5 21L119.5 21C119.5 21.446 119.299 21.8646 118.829 22.2734C118.349 22.6915 117.612 23.0758 116.615 23.4176C114.624 24.1004 111.744 24.5652 108.237 24.877C101.233 25.4996 91.8832 25.5 82.5 25.5C73.1332 25.5 63.7328 25.4996 56.6745 26.127C53.15 26.4402 50.1707 26.9129 48.0605 27.6364C47.0066 27.9977 46.1325 28.4337 45.5139 28.9726C44.8845 29.5208 44.5 30.196 44.5 31L45.5 31Z" fill="black"/>
<path d="M126.039 14.5562C126.039 14.4886 125.985 14.4346 125.904 14.4346C125.782 14.4346 125.769 14.4751 125.701 14.7048C125.35 15.9343 124.796 16.3531 124.35 16.3531C124.188 16.3531 123.999 16.3126 123.999 15.9073C123.999 15.5425 124.161 15.1372 124.31 14.7318L125.256 12.2188C125.296 12.1107 125.391 11.8675 125.391 11.6108C125.391 11.0434 124.985 10.53 124.323 10.53C123.08 10.53 122.58 12.489 122.58 12.5971C122.58 12.6512 122.634 12.7187 122.729 12.7187C122.851 12.7187 122.864 12.6647 122.918 12.4755C123.242 11.3406 123.756 10.8002 124.283 10.8002C124.404 10.8002 124.634 10.8137 124.634 11.246C124.634 11.5973 124.458 12.0432 124.35 12.3404L123.405 14.8534C123.323 15.0696 123.242 15.2858 123.242 15.529C123.242 16.137 123.661 16.6233 124.31 16.6233C125.553 16.6233 126.039 14.6508 126.039 14.5562ZM125.931 8.05751C125.931 7.85481 125.769 7.61163 125.472 7.61163C125.161 7.61163 124.81 7.90889 124.81 8.26015C124.81 8.59794 125.093 8.70603 125.256 8.70603C125.62 8.70603 125.931 8.35477 125.931 8.05751Z" fill="black"/>
<path d="M121.504 2.40521C121.52 2.34034 121.553 2.24311 121.553 2.1621C121.553 2 121.391 2 121.358 2C121.342 2 120.548 2.0648 120.467 2.08102C120.191 2.09723 119.948 2.12966 119.656 2.14588C119.251 2.17825 119.138 2.19446 119.138 2.48622C119.138 2.64832 119.268 2.64832 119.494 2.64832C120.289 2.64832 120.305 2.7942 120.305 2.95623C120.305 3.05346 120.272 3.18313 120.256 3.23178L119.268 7.17025C119.089 6.74885 118.652 6.10054 117.809 6.10054C115.977 6.10054 114 8.46688 114 10.8656C114 12.4702 114.94 13.4102 116.042 13.4102C116.934 13.4102 117.695 12.7133 118.149 12.1784C118.311 13.1347 119.073 13.4102 119.559 13.4102C120.045 13.4102 120.434 13.1185 120.726 12.535C120.986 11.984 121.212 10.9953 121.212 10.9304C121.212 10.8494 121.148 10.7846 121.05 10.7846C120.905 10.7846 120.888 10.8656 120.823 11.1087C120.58 12.065 120.272 13.0861 119.608 13.0861C119.138 13.0861 119.105 12.6647 119.105 12.3405C119.105 12.2757 119.105 11.9353 119.219 11.4815L121.504 2.40521ZM118.23 11.3194C118.149 11.595 118.149 11.6274 117.922 11.9353C117.566 12.3891 116.853 13.0861 116.091 13.0861C115.426 13.0861 115.054 12.4864 115.054 11.5301C115.054 10.6387 115.556 8.82344 115.864 8.14272C116.415 7.00818 117.177 6.42473 117.809 6.42473C118.879 6.42473 119.089 7.75374 119.089 7.8834C119.089 7.8996 119.041 8.1103 119.024 8.14272L118.23 11.3194Z" fill="black"/>
<rect x="45" y="41" width="150" height="24" fill="white" stroke="black" stroke-width="2"/>
<rect x="45" y="75" width="150" height="24" fill="white" stroke="black" stroke-width="2"/>
<rect x="45" y="109" width="150" height="24" fill="white" stroke="black" stroke-width="2"/>
<rect x="45" y="173" width="150" height="24" fill="white" stroke="black" stroke-width="2"/>
<circle cx="120" cy="145" r="2" fill="black"/>
<circle cx="120" cy="153" r="2" fill="black"/>
<circle cx="120" cy="161" r="2" fill="black"/>
<path d="M118.041 217.13V217.827C119.045 217.827 119.159 217.827 119.159 218.459V221.635C119.159 222.867 118.43 223.856 117.165 223.856C115.95 223.856 115.885 223.451 115.885 222.559V217L113 217.13V217.827C114.005 217.827 114.118 217.827 114.118 218.459V222.3C114.118 223.921 115.204 224.391 116.938 224.391C117.327 224.391 118.527 224.391 119.224 223.078H119.24V224.391L122.044 224.293V223.597C121.039 223.597 120.926 223.597 120.926 222.964V217L118.041 217.13Z" fill="black"/>
<path d="M126.235 225.636C126.235 225.569 126.181 225.515 126.1 225.515C125.978 225.515 125.965 225.555 125.897 225.785C125.546 227.014 124.992 227.433 124.546 227.433C124.384 227.433 124.195 227.393 124.195 226.987C124.195 226.623 124.357 226.217 124.505 225.812L125.451 223.299C125.492 223.191 125.586 222.948 125.586 222.691C125.586 222.124 125.181 221.61 124.519 221.61C123.276 221.61 122.776 223.569 122.776 223.677C122.776 223.731 122.83 223.799 122.925 223.799C123.046 223.799 123.06 223.745 123.114 223.556C123.438 222.421 123.951 221.88 124.478 221.88C124.6 221.88 124.83 221.894 124.83 222.326C124.83 222.677 124.654 223.123 124.546 223.421L123.6 225.934C123.519 226.15 123.438 226.366 123.438 226.609C123.438 227.217 123.857 227.703 124.505 227.703C125.748 227.703 126.235 225.731 126.235 225.636ZM126.127 219.138C126.127 218.935 125.965 218.692 125.667 218.692C125.357 218.692 125.005 218.989 125.005 219.34C125.005 219.678 125.289 219.786 125.451 219.786C125.816 219.786 126.127 219.435 126.127 219.138Z" fill="black"/>
<path d="M540.143 107.479C540.408 107.4 540.558 107.121 540.479 106.857L539.191 102.545C539.112 102.281 538.834 102.13 538.569 102.209C538.304 102.288 538.154 102.567 538.233 102.831L539.378 106.664L535.545 107.809C535.281 107.888 535.13 108.166 535.209 108.431C535.288 108.696 535.567 108.846 535.831 108.767L540.143 107.479ZM439.762 53.44L539.762 107.44L540.238 106.56L440.238 52.56L439.762 53.44Z" fill="black"/>
<path d="M540.245 115.436C540.486 115.3 540.571 114.996 540.436 114.755L538.23 110.833C538.094 110.592 537.789 110.507 537.549 110.642C537.308 110.778 537.223 111.082 537.358 111.323L539.319 114.809L535.833 116.77C535.592 116.906 535.507 117.211 535.642 117.451C535.778 117.692 536.082 117.777 536.323 117.642L540.245 115.436ZM439.865 87.4815L539.865 115.481L540.135 114.519L440.135 86.5185L439.865 87.4815Z" fill="black"/>
<path d="M540.346 123.361C540.546 123.169 540.552 122.853 540.361 122.654L537.243 119.409C537.052 119.209 536.735 119.203 536.536 119.394C536.337 119.586 536.33 119.902 536.522 120.101L539.293 122.986L536.409 125.757C536.209 125.948 536.203 126.265 536.394 126.464C536.586 126.663 536.902 126.67 537.101 126.478L540.346 123.361ZM439.99 121.5L539.99 123.5L540.01 122.5L440.01 120.5L439.99 121.5Z" fill="black"/>
<path d="M540.479 131.143C540.558 130.879 540.408 130.6 540.143 130.521L535.831 129.233C535.567 129.154 535.288 129.304 535.209 129.569C535.13 129.834 535.281 130.112 535.545 130.191L539.378 131.336L538.233 135.169C538.154 135.433 538.304 135.712 538.569 135.791C538.834 135.87 539.112 135.719 539.191 135.455L540.479 131.143ZM440.238 185.44L540.238 131.44L539.762 130.56L439.762 184.56L440.238 185.44Z" fill="black"/>
<rect x="555" y="107" width="100" height="24" fill="white" stroke="black" stroke-width="2"/>
<path d="M604.494 217.421C604.494 217.113 604.494 217 604.251 217C604.154 217 604.122 217 603.879 217.146C603.814 217.194 603.635 217.308 603.554 217.357C603.101 217.097 602.501 217 601.917 217C601.431 217 599 217 599 219.107C599 220.809 601.01 221.165 601.512 221.246C601.95 221.327 602.485 221.425 602.549 221.425C603.198 221.571 603.846 221.976 603.846 222.656C603.846 223.904 602.371 223.904 602.031 223.904C601.204 223.904 600.183 223.645 599.729 222.073C599.632 221.749 599.616 221.733 599.34 221.733C599 221.733 599 221.781 599 222.154V224.018C599 224.326 599 224.439 599.243 224.439C599.357 224.439 599.389 224.439 599.713 224.18L600.135 223.872C600.864 224.439 601.739 224.439 602.031 224.439C602.922 224.439 604.948 224.245 604.948 222.089C604.948 221.311 604.527 220.776 604.203 220.485C603.538 219.934 602.987 219.836 602.112 219.674C601.075 219.496 600.102 219.318 600.102 218.54C600.102 217.486 601.545 217.486 601.885 217.486C603.684 217.486 603.781 218.621 603.814 219.026C603.83 219.237 603.96 219.237 604.154 219.237C604.494 219.237 604.494 219.188 604.494 218.815V217.421Z" fill="black"/>
<path d="M610.278 223.334C610.332 223.118 610.332 222.929 610.332 222.875C610.332 222.091 609.751 221.659 609.143 221.659C607.779 221.659 607.049 223.631 607.049 223.726C607.049 223.793 607.103 223.847 607.184 223.847C607.292 223.847 607.306 223.793 607.373 223.658C607.914 222.348 608.589 221.929 609.103 221.929C609.387 221.929 609.535 222.078 609.535 222.55C609.535 222.875 609.495 223.01 609.441 223.253L608.157 228.347C607.9 229.346 607.265 230.103 606.522 230.103C606.468 230.103 606.184 230.103 605.928 229.968C606.252 229.9 606.509 229.644 606.509 229.319C606.509 229.103 606.347 228.887 606.049 228.887C605.698 228.887 605.374 229.184 605.374 229.59C605.374 230.143 605.968 230.373 606.522 230.373C607.454 230.373 608.684 229.684 609.022 228.333L610.278 223.334ZM610.832 219.186C610.832 218.848 610.548 218.74 610.386 218.74C610.022 218.74 609.711 219.092 609.711 219.389C609.711 219.592 609.873 219.835 610.17 219.835C610.481 219.835 610.832 219.538 610.832 219.186Z" fill="black"/>
<rect x="785" y="107" width="100" height="24" fill="white" stroke="black" stroke-width="2"/>
<path d="M835.634 218.07C835.747 217.827 835.812 217.697 836.833 217.697V217C836.25 217.032 836.217 217.032 835.553 217.032C835.115 217.032 835.083 217.032 834.159 217V217.697C834.597 217.697 834.953 217.778 834.953 217.891C834.953 217.908 834.953 217.924 834.872 218.086L832.976 222.251L830.885 217.697H831.776V217C831.404 217.032 830.269 217.032 829.831 217.032C829.361 217.032 828.421 217.032 828 217V217.697H829.021L831.874 223.888C832.02 224.196 832.052 224.277 832.425 224.277C832.684 224.277 832.814 224.245 832.96 223.921L835.634 218.07Z" fill="black"/>
<path d="M841.927 223.188C841.981 222.972 841.981 222.783 841.981 222.729C841.981 221.945 841.4 221.513 840.792 221.513C839.428 221.513 838.698 223.485 838.698 223.58C838.698 223.648 838.752 223.702 838.833 223.702C838.941 223.702 838.955 223.648 839.022 223.512C839.563 222.202 840.238 221.783 840.752 221.783C841.035 221.783 841.184 221.932 841.184 222.405C841.184 222.729 841.144 222.864 841.09 223.107L839.806 228.201C839.549 229.201 838.914 229.957 838.171 229.957C838.117 229.957 837.833 229.957 837.577 229.822C837.901 229.754 838.158 229.498 838.158 229.174C838.158 228.957 837.996 228.741 837.698 228.741C837.347 228.741 837.023 229.038 837.023 229.444C837.023 229.998 837.617 230.227 838.171 230.227C839.103 230.227 840.333 229.538 840.671 228.187L841.927 223.188ZM842.481 219.04C842.481 218.703 842.197 218.595 842.035 218.595C841.67 218.595 841.36 218.946 841.36 219.243C841.36 219.446 841.522 219.689 841.819 219.689C842.13 219.689 842.481 219.392 842.481 219.04Z" fill="black"/>
<path d="M770.354 119.354C770.549 119.158 770.549 118.842 770.354 118.646L767.172 115.464C766.976 115.269 766.66 115.269 766.464 115.464C766.269 115.66 766.269 115.976 766.464 116.172L769.293 119L766.464 121.828C766.269 122.024 766.269 122.34 766.464 122.536C766.66 122.731 766.976 122.731 767.172 122.536L770.354 119.354ZM670 119.5H770V118.5H670V119.5Z" fill="black"/>
<path d="M703.603 105.409C703.603 105.117 703.587 105.101 703.49 105.101C703.425 105.101 703.409 105.117 703.214 105.36C703.165 105.425 703.02 105.587 702.971 105.652C702.452 105.101 701.723 105.084 701.447 105.084C699.648 105.084 699 106.024 699 106.964C699 108.423 700.653 108.763 701.123 108.861C702.144 109.071 702.501 109.136 702.841 109.428C703.052 109.623 703.409 109.979 703.409 110.563C703.409 111.243 703.02 112.118 701.528 112.118C700.118 112.118 699.616 111.049 699.324 109.623C699.276 109.396 699.276 109.379 699.146 109.379C699.016 109.379 699 109.396 699 109.72V112.054C699 112.345 699.016 112.362 699.113 112.362C699.194 112.362 699.211 112.345 699.292 112.216C699.389 112.07 699.632 111.681 699.729 111.519C700.053 111.956 700.621 112.378 701.528 112.378C703.133 112.378 703.992 111.503 703.992 110.238C703.992 109.412 703.554 108.974 703.344 108.78C702.857 108.277 702.29 108.164 701.609 108.034C700.718 107.84 699.583 107.613 699.583 106.624C699.583 106.203 699.81 105.311 701.447 105.311C703.182 105.311 703.279 106.932 703.311 107.451C703.327 107.532 703.409 107.548 703.457 107.548C703.603 107.548 703.603 107.499 703.603 107.224V105.409Z" fill="black"/>
<path d="M711.059 105.149H710.799L710.313 106.754C709.94 105.895 709.26 105.149 708.174 105.149C706.521 105.149 704.932 106.624 704.932 108.763C704.932 110.887 706.423 112.378 708.044 112.378C709.292 112.378 709.989 111.422 710.2 111.065V114.29C710.2 114.906 710.135 114.987 709.098 114.987V115.409C709.487 115.376 710.2 115.376 710.621 115.376C711.043 115.376 711.772 115.376 712.161 115.409V114.987C711.124 114.987 711.059 114.922 711.059 114.29V105.149ZM710.232 110.028C710.232 110.725 709.649 111.373 709.6 111.422C709.098 111.989 708.514 112.118 708.125 112.118C706.91 112.118 705.97 110.579 705.97 108.78C705.97 106.883 707.039 105.441 708.287 105.441C709.584 105.441 710.232 106.916 710.232 107.759V110.028Z" fill="black"/>
<path d="M716.99 105.327V105.749C717.946 105.749 718.092 105.846 718.092 106.624V109.574C718.092 110.935 717.362 112.118 716.163 112.118C714.834 112.118 714.721 111.324 714.721 110.482V105.149L712.759 105.327V105.749C713.408 105.749 713.845 105.749 713.862 106.397V109.509C713.862 110.595 713.862 111.292 714.283 111.746C714.494 111.956 714.899 112.378 716.066 112.378C717.443 112.378 717.978 111.211 718.108 110.87H718.124V112.378L720.053 112.248V111.827C719.097 111.827 718.951 111.73 718.951 110.952V105.149L716.99 105.327Z" fill="black"/>
<path d="M726.308 108.05C726.308 106.981 726.308 106.413 725.628 105.781C725.028 105.246 724.331 105.084 723.78 105.084C722.5 105.084 721.576 106.089 721.576 107.159C721.576 107.759 722.062 107.791 722.159 107.791C722.37 107.791 722.743 107.661 722.743 107.208C722.743 106.802 722.435 106.624 722.159 106.624C722.094 106.624 722.013 106.64 721.965 106.656C722.305 105.635 723.18 105.344 723.748 105.344C724.558 105.344 725.449 106.057 725.449 107.418V108.131C724.493 108.164 723.342 108.293 722.435 108.78C721.414 109.347 721.122 110.157 721.122 110.773C721.122 112.021 722.581 112.378 723.44 112.378C724.331 112.378 725.158 111.875 725.514 110.952C725.547 111.665 726 112.313 726.714 112.313C727.054 112.313 727.913 112.086 727.913 110.806V109.898H727.621V110.822C727.621 111.811 727.184 111.94 726.973 111.94C726.308 111.94 726.308 111.097 726.308 110.384V108.05ZM725.449 109.995C725.449 111.405 724.444 112.118 723.553 112.118C722.743 112.118 722.111 111.519 722.111 110.773C722.111 110.287 722.321 109.428 723.261 108.909C724.039 108.472 724.931 108.407 725.449 108.375V109.995Z" fill="black"/>
<path d="M732.887 105.409C732.887 105.117 732.871 105.101 732.774 105.101C732.709 105.101 732.693 105.117 732.498 105.36C732.45 105.425 732.304 105.587 732.255 105.652C731.737 105.101 731.007 105.084 730.732 105.084C728.933 105.084 728.284 106.024 728.284 106.964C728.284 108.423 729.938 108.763 730.408 108.861C731.429 109.071 731.785 109.136 732.126 109.428C732.336 109.623 732.693 109.979 732.693 110.563C732.693 111.243 732.304 112.118 730.813 112.118C729.403 112.118 728.9 111.049 728.609 109.623C728.56 109.396 728.56 109.379 728.43 109.379C728.301 109.379 728.284 109.396 728.284 109.72V112.054C728.284 112.345 728.301 112.362 728.398 112.362C728.479 112.362 728.495 112.345 728.576 112.216C728.673 112.07 728.917 111.681 729.014 111.519C729.338 111.956 729.905 112.378 730.813 112.378C732.417 112.378 733.276 111.503 733.276 110.238C733.276 109.412 732.839 108.974 732.628 108.78C732.142 108.277 731.575 108.164 730.894 108.034C730.002 107.84 728.868 107.613 728.868 106.624C728.868 106.203 729.095 105.311 730.732 105.311C732.466 105.311 732.563 106.932 732.596 107.451C732.612 107.532 732.693 107.548 732.742 107.548C732.887 107.548 732.887 107.499 732.887 107.224V105.409Z" fill="black"/>
<path d="M740.408 107.321C740.408 106.494 740.246 105.149 738.333 105.149C737.004 105.149 736.356 106.219 736.162 106.754H736.145V101L734.217 101.178V101.6C735.173 101.6 735.319 101.697 735.319 102.475V111.13C735.319 111.746 735.254 111.827 734.217 111.827V112.248C734.606 112.216 735.319 112.216 735.74 112.216C736.162 112.216 736.891 112.216 737.28 112.248V111.827C736.243 111.827 736.178 111.762 736.178 111.13V108.018C736.178 106.527 737.085 105.409 738.22 105.409C739.419 105.409 739.549 106.478 739.549 107.256V111.13C739.549 111.746 739.484 111.827 738.447 111.827V112.248C738.836 112.216 739.549 112.216 739.97 112.216C740.392 112.216 741.121 112.216 741.51 112.248V111.827C740.473 111.827 740.408 111.762 740.408 111.13V107.321Z" fill="black"/>
<rect x="325" y="41" width="100" height="24" fill="white" stroke="black" stroke-width="2"/>
<rect x="325" y="75" width="100" height="24" fill="white" stroke="black" stroke-width="2"/>
<rect x="325" y="109" width="100" height="24" fill="white" stroke="black" stroke-width="2"/>
<rect x="325" y="173" width="100" height="24" fill="white" stroke="black" stroke-width="2"/>
<circle cx="375" cy="145" r="2" fill="black"/>
<circle cx="375" cy="153" r="2" fill="black"/>
<circle cx="375" cy="161" r="2" fill="black"/>
<path d="M367.571 212.956L371.979 214.95L372.174 214.593L367.587 212L363 214.593L363.178 214.95L367.571 212.956Z" fill="black"/>
<path d="M368.24 217.12V217.817C369.244 217.817 369.358 217.817 369.358 218.449V221.626C369.358 222.857 368.629 223.846 367.364 223.846C366.149 223.846 366.084 223.441 366.084 222.549V216.99L363.199 217.12V217.817C364.204 217.817 364.317 217.817 364.317 218.449V222.29C364.317 223.911 365.403 224.381 367.138 224.381C367.526 224.381 368.726 224.381 369.423 223.068H369.439V224.381L372.243 224.284V223.587C371.238 223.587 371.125 223.587 371.125 222.955V216.99L368.24 217.12Z" fill="black"/>
<path d="M377.339 224.551C377.393 224.335 377.393 224.146 377.393 224.092C377.393 223.308 376.812 222.876 376.204 222.876C374.84 222.876 374.11 224.848 374.11 224.943C374.11 225.011 374.164 225.065 374.245 225.065C374.353 225.065 374.367 225.011 374.434 224.875C374.975 223.565 375.65 223.146 376.164 223.146C376.447 223.146 376.596 223.295 376.596 223.768C376.596 224.092 376.555 224.227 376.501 224.47L375.218 229.564C374.961 230.563 374.326 231.32 373.583 231.32C373.529 231.32 373.245 231.32 372.989 231.185C373.313 231.117 373.57 230.861 373.57 230.536C373.57 230.32 373.407 230.104 373.11 230.104C372.759 230.104 372.435 230.401 372.435 230.807C372.435 231.361 373.029 231.59 373.583 231.59C374.515 231.59 375.745 230.901 376.083 229.55L377.339 224.551ZM377.893 220.403C377.893 220.066 377.609 219.958 377.447 219.958C377.082 219.958 376.772 220.309 376.772 220.606C376.772 220.809 376.934 221.052 377.231 221.052C377.542 221.052 377.893 220.755 377.893 220.403Z" fill="black"/>
<path d="M380.971 219.187C380.971 218.944 380.971 218.701 380.701 218.701C380.431 218.701 380.431 218.944 380.431 219.187V231.725C380.431 231.969 380.431 232.212 380.701 232.212C380.971 232.212 380.971 231.969 380.971 231.725V219.187Z" fill="black"/>
<path d="M386.386 226.902C386.386 226.835 386.331 226.78 386.25 226.78C386.129 226.78 386.115 226.821 386.048 227.051C385.696 228.28 385.143 228.699 384.697 228.699C384.535 228.699 384.345 228.658 384.345 228.253C384.345 227.888 384.508 227.483 384.656 227.078L385.602 224.565C385.642 224.457 385.737 224.213 385.737 223.957C385.737 223.389 385.332 222.876 384.67 222.876C383.427 222.876 382.927 224.835 382.927 224.943C382.927 224.997 382.981 225.065 383.075 225.065C383.197 225.065 383.21 225.011 383.265 224.821C383.589 223.687 384.102 223.146 384.629 223.146C384.751 223.146 384.98 223.16 384.98 223.592C384.98 223.943 384.805 224.389 384.697 224.686L383.751 227.199C383.67 227.415 383.589 227.632 383.589 227.875C383.589 228.483 384.008 228.969 384.656 228.969C385.899 228.969 386.386 226.997 386.386 226.902ZM386.277 220.403C386.277 220.201 386.115 219.958 385.818 219.958C385.507 219.958 385.156 220.255 385.156 220.606C385.156 220.944 385.44 221.052 385.602 221.052C385.967 221.052 386.277 220.701 386.277 220.403Z" fill="black"/>
<path d="M425.5 31C425.5 29.4876 424.535 28.4127 423.08 27.6647C421.635 26.9216 419.613 26.444 417.254 26.1294C412.526 25.499 406.238 25.5 400 25.5C393.738 25.5 387.526 25.499 382.879 24.8794C380.551 24.569 378.667 24.1091 377.377 23.446C376.097 22.7877 375.5 21.9876 375.5 21L374.5 21C374.5 22.5124 375.465 23.5873 376.92 24.3353C378.365 25.0784 380.387 25.556 382.746 25.8706C387.474 26.501 393.762 26.5 400 26.5C406.262 26.5 412.474 26.501 417.121 27.1206C419.449 27.431 421.333 27.8909 422.623 28.554C423.903 29.2123 424.5 30.0124 424.5 31L425.5 31ZM325.5 31C325.5 30.0124 326.097 29.2123 327.377 28.554C328.667 27.8909 330.551 27.431 332.879 27.1206C337.526 26.501 343.738 26.5 350 26.5C356.238 26.5 362.526 26.501 367.254 25.8706C369.613 25.556 371.635 25.0784 373.08 24.3353C374.535 23.5873 375.5 22.5124 375.5 21L374.5 21C374.5 21.9876 373.903 22.7877 372.623 23.446C371.333 24.1091 369.449 24.569 367.121 24.8794C362.474 25.499 356.262 25.5 350 25.5C343.762 25.5 337.474 25.499 332.746 26.1294C330.387 26.444 328.365 26.9216 326.92 27.6647C325.465 28.4127 324.5 29.4876 324.5 31L325.5 31Z" fill="black"/>
<path d="M380.944 12.2053C380.998 11.9891 380.998 11.8 380.998 11.746C380.998 10.9623 380.417 10.53 379.809 10.53C378.445 10.53 377.715 12.5026 377.715 12.5971C377.715 12.6647 377.769 12.7187 377.85 12.7187C377.958 12.7187 377.972 12.6647 378.04 12.5296C378.58 11.219 379.256 10.8002 379.769 10.8002C380.053 10.8002 380.201 10.9488 380.201 11.4217C380.201 11.746 380.161 11.8811 380.107 12.1243L378.823 17.2178C378.566 18.2176 377.931 18.9742 377.188 18.9742C377.134 18.9742 376.851 18.9742 376.594 18.8391C376.918 18.7716 377.175 18.5149 377.175 18.1906C377.175 17.9744 377.013 17.7583 376.715 17.7583C376.364 17.7583 376.04 18.0555 376.04 18.4608C376.04 19.0148 376.634 19.2444 377.188 19.2444C378.121 19.2444 379.35 18.5554 379.688 17.2043L380.944 12.2053ZM381.498 8.05751C381.498 7.71972 381.215 7.61163 381.052 7.61163C380.688 7.61163 380.377 7.9629 380.377 8.26015C380.377 8.46285 380.539 8.70603 380.836 8.70603C381.147 8.70603 381.498 8.40878 381.498 8.05751Z" fill="black"/>
<path d="M375.504 2.40521C375.52 2.34034 375.553 2.24311 375.553 2.1621C375.553 2 375.391 2 375.358 2C375.342 2 374.548 2.0648 374.467 2.08102C374.191 2.09723 373.948 2.12966 373.656 2.14588C373.251 2.17825 373.138 2.19446 373.138 2.48622C373.138 2.64832 373.268 2.64832 373.494 2.64832C374.289 2.64832 374.305 2.7942 374.305 2.95623C374.305 3.05346 374.272 3.18313 374.256 3.23178L373.268 7.17025C373.089 6.74885 372.652 6.10054 371.809 6.10054C369.977 6.10054 368 8.46688 368 10.8656C368 12.4702 368.94 13.4102 370.042 13.4102C370.934 13.4102 371.695 12.7133 372.149 12.1784C372.311 13.1347 373.073 13.4102 373.559 13.4102C374.045 13.4102 374.434 13.1185 374.726 12.535C374.986 11.984 375.212 10.9953 375.212 10.9304C375.212 10.8494 375.148 10.7846 375.05 10.7846C374.905 10.7846 374.888 10.8656 374.823 11.1087C374.58 12.065 374.272 13.0861 373.608 13.0861C373.138 13.0861 373.105 12.6647 373.105 12.3405C373.105 12.2757 373.105 11.9353 373.219 11.4815L375.504 2.40521ZM372.23 11.3194C372.149 11.595 372.149 11.6274 371.922 11.9353C371.566 12.3891 370.853 13.0861 370.091 13.0861C369.426 13.0861 369.054 12.4864 369.054 11.5301C369.054 10.6387 369.556 8.82344 369.864 8.14272C370.415 7.00818 371.177 6.42473 371.809 6.42473C372.879 6.42473 373.089 7.75374 373.089 7.8834C373.089 7.8996 373.041 8.1103 373.024 8.14272L372.23 11.3194Z" fill="black"/>
<path d="M310.354 53.3536C310.549 53.1583 310.549 52.8417 310.354 52.6464L307.172 49.4645C306.976 49.2692 306.66 49.2692 306.464 49.4645C306.269 49.6597 306.269 49.9763 306.464 50.1716L309.293 53L306.464 55.8284C306.269 56.0237 306.269 56.3403 306.464 56.5355C306.66 56.7308 306.976 56.7308 307.172 56.5355L310.354 53.3536ZM210 53.5H310V52.5H210V53.5Z" fill="black"/>
<path d="M310.354 87.3536C310.549 87.1583 310.549 86.8417 310.354 86.6464L307.172 83.4645C306.976 83.2692 306.66 83.2692 306.464 83.4645C306.269 83.6597 306.269 83.9763 306.464 84.1716L309.293 87L306.464 89.8284C306.269 90.0237 306.269 90.3403 306.464 90.5355C306.66 90.7308 306.976 90.7308 307.172 90.5355L310.354 87.3536ZM210 87.5H310V86.5H210V87.5Z" fill="black"/>
<path d="M310.354 121.354C310.549 121.158 310.549 120.842 310.354 120.646L307.172 117.464C306.976 117.269 306.66 117.269 306.464 117.464C306.269 117.66 306.269 117.976 306.464 118.172L309.293 121L306.464 123.828C306.269 124.024 306.269 124.34 306.464 124.536C306.66 124.731 306.976 124.731 307.172 124.536L310.354 121.354ZM210 121.5H310V120.5H210V121.5Z" fill="black"/>
<path d="M310.354 185.354C310.549 185.158 310.549 184.842 310.354 184.646L307.172 181.464C306.976 181.269 306.66 181.269 306.464 181.464C306.269 181.66 306.269 181.976 306.464 182.172L309.293 185L306.464 187.828C306.269 188.024 306.269 188.34 306.464 188.536C306.66 188.731 306.976 188.731 307.172 188.536L310.354 185.354ZM210 185.5H310V184.5H210V185.5Z" fill="black"/>
<path d="M262.51 165.08C262.623 164.79 262.655 164.693 264.01 164.693V164C263.203 164.032 263.171 164.032 262.252 164.032C261.784 164.032 260.608 164.032 260.221 164V164.693C260.414 164.693 261.833 164.693 261.833 164.919C261.833 164.935 261.833 164.967 261.768 165.112L259.06 172.303L256.174 164.693H257.705V164C257.189 164.032 255.69 164.032 255.077 164.032C254.577 164.032 253.014 164.032 252.627 164V164.693H253.981L254.642 166.435L252.433 172.303L249.563 164.693H251.079V164C250.611 164.032 249.031 164.032 248.451 164.032C247.935 164.032 246.403 164.032 246 164V164.693H247.354L251.192 174.819C251.288 175.093 251.337 175.206 251.691 175.206C252.046 175.206 252.095 175.093 252.191 174.835L254.997 167.402L257.818 174.835C257.915 175.093 257.963 175.206 258.318 175.206C258.624 175.206 258.705 175.141 258.818 174.835L262.51 165.08Z" fill="black"/>
<path d="M268.115 176.396C268.115 176.329 268.061 176.275 267.98 176.275C267.859 176.275 267.846 176.316 267.779 176.544C267.429 177.767 266.878 178.184 266.434 178.184C266.273 178.184 266.085 178.143 266.085 177.74C266.085 177.377 266.246 176.974 266.394 176.571L267.335 174.071C267.375 173.964 267.469 173.722 267.469 173.466C267.469 172.902 267.066 172.391 266.408 172.391C265.171 172.391 264.674 174.34 264.674 174.447C264.674 174.501 264.728 174.568 264.822 174.568C264.943 174.568 264.956 174.515 265.01 174.326C265.332 173.197 265.843 172.66 266.367 172.66C266.488 172.66 266.717 172.673 266.717 173.103C266.717 173.453 266.542 173.896 266.434 174.192L265.494 176.692C265.413 176.907 265.332 177.122 265.332 177.364C265.332 177.969 265.749 178.453 266.394 178.453C267.631 178.453 268.115 176.49 268.115 176.396ZM268.007 169.932C268.007 169.73 267.846 169.488 267.55 169.488C267.241 169.488 266.891 169.784 266.891 170.133C266.891 170.469 267.174 170.577 267.335 170.577C267.698 170.577 268.007 170.227 268.007 169.932Z" fill="black"/>
<path d="M273.488 174.058C273.541 173.843 273.541 173.654 273.541 173.601C273.541 172.821 272.963 172.391 272.359 172.391C271.001 172.391 270.275 174.353 270.275 174.447C270.275 174.515 270.329 174.568 270.41 174.568C270.517 174.568 270.531 174.515 270.598 174.38C271.136 173.077 271.808 172.66 272.318 172.66C272.601 172.66 272.748 172.808 272.748 173.278C272.748 173.601 272.708 173.735 272.654 173.977L271.378 179.044C271.122 180.039 270.49 180.791 269.751 180.791C269.698 180.791 269.415 180.791 269.16 180.657C269.482 180.59 269.738 180.334 269.738 180.012C269.738 179.797 269.577 179.582 269.281 179.582C268.931 179.582 268.609 179.877 268.609 180.28C268.609 180.832 269.2 181.06 269.751 181.06C270.679 181.06 271.902 180.375 272.238 179.031L273.488 174.058ZM274.039 169.932C274.039 169.595 273.756 169.488 273.595 169.488C273.232 169.488 272.923 169.837 272.923 170.133C272.923 170.335 273.084 170.577 273.38 170.577C273.689 170.577 274.039 170.281 274.039 169.932Z" fill="black"/>
<path d="M261.51 101.08C261.623 100.79 261.655 100.693 263.01 100.693V100C262.203 100.032 262.171 100.032 261.252 100.032C260.784 100.032 259.608 100.032 259.221 100V100.693C259.414 100.693 260.833 100.693 260.833 100.919C260.833 100.935 260.833 100.967 260.768 101.112L258.06 108.303L255.174 100.693H256.705V100C256.189 100.032 254.69 100.032 254.077 100.032C253.577 100.032 252.014 100.032 251.627 100V100.693H252.981L253.642 102.435L251.433 108.303L248.563 100.693H250.079V100C249.611 100.032 248.031 100.032 247.451 100.032C246.935 100.032 245.403 100.032 245 100V100.693H246.354L250.192 110.819C250.288 111.093 250.337 111.206 250.691 111.206C251.046 111.206 251.095 111.093 251.191 110.835L253.997 103.402L256.818 110.835C256.915 111.093 256.963 111.206 257.318 111.206C257.624 111.206 257.705 111.141 257.818 110.835L261.51 101.08Z" fill="black"/>
<path d="M266.281 109.749C267.477 109.749 268.002 110.783 268.002 111.98C268.002 113.592 267.141 114.211 266.362 114.211C265.65 114.211 264.494 113.861 264.131 112.826C264.198 112.853 264.265 112.853 264.332 112.853C264.655 112.853 264.897 112.638 264.897 112.289C264.897 111.899 264.601 111.724 264.332 111.724C264.104 111.724 263.754 111.832 263.754 112.329C263.754 113.566 264.964 114.533 266.389 114.533C267.881 114.533 269.023 113.364 269.023 111.993C269.023 110.689 267.948 109.749 266.671 109.601C267.692 109.386 268.674 108.472 268.674 107.249C268.674 106.2 267.612 105.434 266.402 105.434C265.179 105.434 264.104 106.187 264.104 107.262C264.104 107.733 264.453 107.813 264.628 107.813C264.91 107.813 265.152 107.638 265.152 107.289C265.152 106.94 264.91 106.765 264.628 106.765C264.574 106.765 264.507 106.765 264.453 106.792C264.843 105.905 265.905 105.743 266.375 105.743C266.846 105.743 267.733 105.972 267.733 107.262C267.733 107.638 267.679 108.31 267.222 108.902C266.819 109.426 266.362 109.453 265.918 109.493C265.851 109.493 265.542 109.52 265.488 109.52C265.394 109.533 265.34 109.547 265.34 109.641C265.34 109.735 265.354 109.749 265.623 109.749H266.281Z" fill="black"/>
<path d="M274.156 110.058C274.21 109.843 274.21 109.654 274.21 109.601C274.21 108.821 273.632 108.391 273.027 108.391C271.669 108.391 270.944 110.353 270.944 110.447C270.944 110.515 270.997 110.568 271.078 110.568C271.186 110.568 271.199 110.515 271.266 110.38C271.804 109.077 272.476 108.66 272.987 108.66C273.269 108.66 273.417 108.808 273.417 109.278C273.417 109.601 273.376 109.735 273.323 109.977L272.046 115.044C271.79 116.039 271.159 116.791 270.42 116.791C270.366 116.791 270.084 116.791 269.828 116.657C270.151 116.59 270.406 116.334 270.406 116.012C270.406 115.797 270.245 115.582 269.949 115.582C269.6 115.582 269.277 115.877 269.277 116.28C269.277 116.832 269.868 117.06 270.42 117.06C271.347 117.06 272.57 116.375 272.906 115.031L274.156 110.058ZM274.707 105.932C274.707 105.595 274.425 105.488 274.263 105.488C273.901 105.488 273.591 105.837 273.591 106.133C273.591 106.335 273.753 106.577 274.048 106.577C274.358 106.577 274.707 106.281 274.707 105.932Z" fill="black"/>
<path d="M261.51 67.0802C261.623 66.79 261.655 66.6933 263.01 66.6933V66C262.203 66.0323 262.171 66.0323 261.252 66.0323C260.784 66.0323 259.608 66.0323 259.221 66V66.6933C259.414 66.6933 260.833 66.6933 260.833 66.919C260.833 66.9351 260.833 66.9674 260.768 67.1125L258.06 74.3034L255.174 66.6933H256.705V66C256.189 66.0323 254.69 66.0323 254.077 66.0323C253.577 66.0323 252.014 66.0323 251.627 66V66.6933H252.981L253.642 68.4346L251.433 74.3034L248.563 66.6933H250.079V66C249.611 66.0323 248.031 66.0323 247.451 66.0323C246.935 66.0323 245.403 66.0323 245 66V66.6933H246.354L250.192 76.8186C250.288 77.0927 250.337 77.2055 250.691 77.2055C251.046 77.2055 251.095 77.0927 251.191 76.8347L253.997 69.4019L256.818 76.8347C256.915 77.0927 256.963 77.2055 257.318 77.2055C257.624 77.2055 257.705 77.141 257.818 76.8347L261.51 67.0802Z" fill="black"/>
<path d="M268.915 78.235H268.674C268.539 79.1892 268.432 79.3505 268.378 79.4312C268.311 79.5387 267.343 79.5387 267.155 79.5387H264.574C265.058 79.0145 265.999 78.0603 267.141 76.9582C267.961 76.1786 268.915 75.2647 268.915 73.9341C268.915 72.3481 267.652 71.4342 266.241 71.4342C264.762 71.4342 263.862 72.7379 263.862 73.9475C263.862 74.4717 264.252 74.5389 264.413 74.5389C264.547 74.5389 264.951 74.4583 264.951 73.9879C264.951 73.5712 264.601 73.4503 264.413 73.4503C264.332 73.4503 264.252 73.4637 264.198 73.4906C264.453 72.3481 265.233 71.7837 266.053 71.7837C267.222 71.7837 267.988 72.711 267.988 73.9341C267.988 75.1034 267.303 76.1114 266.537 76.985L263.862 80.0091V80.3182H268.593L268.915 78.235Z" fill="black"/>
<path d="M274.156 76.0576C274.21 75.8426 274.21 75.6544 274.21 75.6007C274.21 74.8212 273.632 74.3911 273.027 74.3911C271.669 74.3911 270.944 76.3533 270.944 76.4474C270.944 76.5146 270.997 76.5684 271.078 76.5684C271.186 76.5684 271.199 76.5146 271.266 76.3802C271.804 75.0765 272.476 74.6599 272.987 74.6599C273.269 74.6599 273.417 74.8077 273.417 75.2781C273.417 75.6007 273.376 75.7351 273.323 75.977L272.046 81.044C271.79 82.0385 271.159 82.7912 270.42 82.7912C270.366 82.7912 270.084 82.7912 269.828 82.6568C270.151 82.5896 270.406 82.3342 270.406 82.0117C270.406 81.7966 270.245 81.5816 269.949 81.5816C269.6 81.5816 269.277 81.8773 269.277 82.2805C269.277 82.8315 269.868 83.06 270.42 83.06C271.347 83.06 272.57 82.3746 272.906 81.0305L274.156 76.0576ZM274.707 71.9315C274.707 71.5955 274.425 71.488 274.263 71.488C273.901 71.488 273.591 71.8374 273.591 72.1331C273.591 72.3347 273.753 72.5766 274.048 72.5766C274.357 72.5766 274.707 72.2809 274.707 71.9315Z" fill="black"/>
<path d="M261.51 33.0802C261.623 32.79 261.655 32.6933 263.01 32.6933V32C262.203 32.0323 262.171 32.0323 261.252 32.0323C260.784 32.0323 259.608 32.0323 259.221 32V32.6933C259.414 32.6933 260.833 32.6933 260.833 32.919C260.833 32.9351 260.833 32.9674 260.768 33.1125L258.06 40.3034L255.174 32.6933H256.705V32C256.189 32.0323 254.69 32.0323 254.077 32.0323C253.577 32.0323 252.014 32.0323 251.627 32V32.6933H252.981L253.642 34.4346L251.433 40.3034L248.563 32.6933H250.079V32C249.611 32.0323 248.031 32.0323 247.451 32.0323C246.935 32.0323 245.403 32.0323 245 32V32.6933H246.354L250.192 42.8186C250.288 43.0927 250.337 43.2055 250.691 43.2055C251.046 43.2055 251.095 43.0927 251.191 42.8347L253.997 35.4019L256.818 42.8347C256.915 43.0927 256.963 43.2055 257.318 43.2055C257.624 43.2055 257.705 43.141 257.818 42.8347L261.51 33.0802Z" fill="black"/>
<path d="M266.886 37.7299C266.886 37.4476 266.873 37.4342 266.684 37.4342C266.16 38.0659 265.367 38.2675 264.615 38.2944C264.574 38.2944 264.507 38.2944 264.494 38.3213C264.48 38.3481 264.48 38.3751 264.48 38.6573C264.897 38.6573 265.596 38.5767 266.133 38.2541V45.3371C266.133 45.8075 266.106 45.9688 264.951 45.9688H264.547V46.3182C265.193 46.3048 265.865 46.2913 266.51 46.2913C267.155 46.2913 267.827 46.3048 268.472 46.3182V45.9688H268.069C266.913 45.9688 266.886 45.8209 266.886 45.3371V37.7299Z" fill="black"/>
<path d="M274.156 42.0576C274.21 41.8426 274.21 41.6544 274.21 41.6007C274.21 40.8212 273.632 40.3911 273.027 40.3911C271.669 40.3911 270.944 42.3533 270.944 42.4474C270.944 42.5146 270.997 42.5684 271.078 42.5684C271.186 42.5684 271.199 42.5146 271.266 42.3802C271.804 41.0765 272.476 40.6599 272.987 40.6599C273.269 40.6599 273.417 40.8077 273.417 41.2781C273.417 41.6007 273.376 41.7351 273.323 41.977L272.046 47.044C271.79 48.0385 271.159 48.7912 270.42 48.7912C270.366 48.7912 270.084 48.7912 269.828 48.6568C270.151 48.5896 270.406 48.3342 270.406 48.0117C270.406 47.7966 270.245 47.5816 269.949 47.5816C269.6 47.5816 269.277 47.8773 269.277 48.2805C269.277 48.8315 269.868 49.06 270.42 49.06C271.347 49.06 272.57 48.3746 272.906 47.0305L274.156 42.0576ZM274.707 37.9315C274.707 37.5955 274.425 37.488 274.263 37.488C273.901 37.488 273.591 37.8374 273.591 38.1331C273.591 38.3347 273.753 38.5766 274.048 38.5766C274.357 38.5766 274.707 38.2809 274.707 37.9315Z" fill="black"/>
<path d="M487.689 141.054C487.381 141.054 487.235 141.054 487.008 141.248C486.911 141.329 486.733 141.572 486.733 141.831C486.733 142.156 486.976 142.35 487.284 142.35C487.673 142.35 488.11 142.026 488.11 141.378C488.11 140.6 487.365 140 486.246 140C484.123 140 482 142.318 482 144.619C482 146.029 482.875 147.31 484.528 147.31C486.733 147.31 488.127 145.592 488.127 145.381C488.127 145.284 488.029 145.203 487.964 145.203C487.916 145.203 487.9 145.219 487.754 145.365C486.716 146.742 485.177 146.986 484.561 146.986C483.442 146.986 483.086 146.013 483.086 145.203C483.086 144.635 483.361 143.063 483.945 141.961C484.366 141.199 485.242 140.324 486.263 140.324C486.473 140.324 487.365 140.357 487.689 141.054Z" fill="black"/>
<path d="M492.641 148.208C492.641 148.141 492.587 148.087 492.506 148.087C492.385 148.087 492.372 148.128 492.305 148.356C491.955 149.579 491.404 149.996 490.961 149.996C490.799 149.996 490.611 149.956 490.611 149.552C490.611 149.189 490.773 148.786 490.92 148.383L491.861 145.883C491.901 145.776 491.996 145.534 491.996 145.278C491.996 144.714 491.592 144.203 490.934 144.203C489.697 144.203 489.2 146.152 489.2 146.259C489.2 146.313 489.254 146.38 489.348 146.38C489.469 146.38 489.482 146.327 489.536 146.138C489.859 145.01 490.369 144.472 490.893 144.472C491.014 144.472 491.243 144.485 491.243 144.915C491.243 145.265 491.068 145.708 490.961 146.004L490.02 148.504C489.939 148.719 489.859 148.934 489.859 149.176C489.859 149.781 490.275 150.265 490.92 150.265C492.157 150.265 492.641 148.302 492.641 148.208ZM492.533 141.744C492.533 141.542 492.372 141.3 492.076 141.3C491.767 141.3 491.418 141.596 491.418 141.945C491.418 142.281 491.7 142.389 491.861 142.389C492.224 142.389 492.533 142.039 492.533 141.744Z" fill="black"/>
<path d="M498.014 145.87C498.068 145.655 498.068 145.466 498.068 145.413C498.068 144.633 497.49 144.203 496.885 144.203C495.527 144.203 494.802 146.165 494.802 146.259C494.802 146.327 494.855 146.38 494.936 146.38C495.044 146.38 495.057 146.327 495.124 146.192C495.662 144.889 496.334 144.472 496.845 144.472C497.127 144.472 497.275 144.62 497.275 145.09C497.275 145.413 497.234 145.547 497.181 145.789L495.904 150.856C495.648 151.851 495.017 152.603 494.277 152.603C494.224 152.603 493.941 152.603 493.686 152.469C494.009 152.402 494.264 152.146 494.264 151.824C494.264 151.609 494.103 151.394 493.807 151.394C493.458 151.394 493.135 151.689 493.135 152.093C493.135 152.644 493.726 152.872 494.277 152.872C495.205 152.872 496.428 152.187 496.764 150.843L498.014 145.87ZM498.565 141.744C498.565 141.408 498.283 141.3 498.121 141.3C497.759 141.3 497.449 141.649 497.449 141.945C497.449 142.147 497.611 142.389 497.906 142.389C498.215 142.389 498.565 142.093 498.565 141.744Z" fill="black"/>
<path d="M486.689 108.054C486.381 108.054 486.235 108.054 486.008 108.248C485.911 108.329 485.733 108.572 485.733 108.831C485.733 109.156 485.976 109.35 486.284 109.35C486.673 109.35 487.11 109.026 487.11 108.378C487.11 107.6 486.365 107 485.246 107C483.123 107 481 109.318 481 111.619C481 113.029 481.875 114.31 483.528 114.31C485.733 114.31 487.127 112.592 487.127 112.381C487.127 112.284 487.029 112.203 486.964 112.203C486.916 112.203 486.9 112.219 486.754 112.365C485.716 113.742 484.177 113.986 483.561 113.986C482.442 113.986 482.086 113.013 482.086 112.203C482.086 111.635 482.361 110.063 482.945 108.961C483.366 108.199 484.242 107.324 485.263 107.324C485.473 107.324 486.365 107.357 486.689 108.054Z" fill="black"/>
<path d="M490.127 112.614C491.323 112.614 491.847 113.649 491.847 114.845C491.847 116.458 490.987 117.076 490.207 117.076C489.495 117.076 488.339 116.727 487.976 115.692C488.044 115.719 488.111 115.719 488.178 115.719C488.5 115.719 488.742 115.504 488.742 115.154C488.742 114.765 488.447 114.59 488.178 114.59C487.949 114.59 487.6 114.698 487.6 115.195C487.6 116.431 488.81 117.399 490.234 117.399C491.726 117.399 492.869 116.23 492.869 114.859C492.869 113.555 491.793 112.614 490.517 112.466C491.538 112.251 492.519 111.337 492.519 110.114C492.519 109.066 491.457 108.3 490.248 108.3C489.025 108.3 487.949 109.053 487.949 110.128C487.949 110.598 488.299 110.679 488.474 110.679C488.756 110.679 488.998 110.504 488.998 110.155C488.998 109.805 488.756 109.631 488.474 109.631C488.42 109.631 488.353 109.631 488.299 109.657C488.689 108.77 489.75 108.609 490.221 108.609C490.691 108.609 491.578 108.838 491.578 110.128C491.578 110.504 491.525 111.176 491.068 111.768C490.664 112.292 490.207 112.319 489.764 112.359C489.697 112.359 489.388 112.386 489.334 112.386C489.24 112.399 489.186 112.413 489.186 112.507C489.186 112.601 489.199 112.614 489.468 112.614H490.127Z" fill="black"/>
<path d="M498.001 112.923C498.055 112.708 498.055 112.52 498.055 112.466C498.055 111.687 497.477 111.257 496.872 111.257C495.515 111.257 494.789 113.219 494.789 113.313C494.789 113.38 494.843 113.434 494.924 113.434C495.031 113.434 495.045 113.38 495.112 113.246C495.649 111.942 496.321 111.526 496.832 111.526C497.114 111.526 497.262 111.673 497.262 112.144C497.262 112.466 497.222 112.601 497.168 112.843L495.891 117.91C495.636 118.904 495.004 119.657 494.265 119.657C494.211 119.657 493.929 119.657 493.674 119.523C493.996 119.455 494.252 119.2 494.252 118.877C494.252 118.662 494.09 118.447 493.795 118.447C493.445 118.447 493.123 118.743 493.123 119.146C493.123 119.697 493.714 119.926 494.265 119.926C495.192 119.926 496.415 119.24 496.752 117.896L498.001 112.923ZM498.552 108.797C498.552 108.461 498.27 108.354 498.109 108.354C497.746 108.354 497.437 108.703 497.437 108.999C497.437 109.2 497.598 109.442 497.894 109.442C498.203 109.442 498.552 109.147 498.552 108.797Z" fill="black"/>
<path d="M486.689 88.0535C486.381 88.0535 486.235 88.0535 486.008 88.248C485.911 88.329 485.733 88.5722 485.733 88.8315C485.733 89.1556 485.976 89.3501 486.284 89.3501C486.673 89.3501 487.11 89.026 487.11 88.3777C487.11 87.5997 486.365 87 485.246 87C483.123 87 481 89.3177 481 91.6192C481 93.0293 481.875 94.3097 483.528 94.3097C485.733 94.3097 487.127 92.5917 487.127 92.381C487.127 92.2837 487.029 92.2027 486.964 92.2027C486.916 92.2027 486.9 92.2189 486.754 92.3648C485.716 93.7424 484.177 93.9855 483.561 93.9855C482.442 93.9855 482.086 93.0131 482.086 92.2027C482.086 91.6354 482.361 90.0633 482.945 88.9611C483.366 88.1994 484.242 87.3242 485.263 87.3242C485.473 87.3242 486.365 87.3566 486.689 88.0535Z" fill="black"/>
<path d="M492.754 95.2007H492.512C492.377 96.155 492.27 96.3163 492.216 96.3969C492.149 96.5044 491.181 96.5044 490.993 96.5044H488.412C488.896 95.9803 489.837 95.026 490.979 93.9239C491.799 93.1444 492.754 92.2304 492.754 90.8999C492.754 89.3139 491.49 88.4 490.079 88.4C488.601 88.4 487.7 89.7037 487.7 90.9133C487.7 91.4375 488.09 91.5047 488.251 91.5047C488.385 91.5047 488.789 91.424 488.789 90.9536C488.789 90.537 488.439 90.416 488.251 90.416C488.17 90.416 488.09 90.4294 488.036 90.4563C488.291 89.3139 489.071 88.7494 489.891 88.7494C491.06 88.7494 491.826 89.6768 491.826 90.8999C491.826 92.0692 491.141 93.0772 490.375 93.9508L487.7 96.9748V97.284H492.431L492.754 95.2007Z" fill="black"/>
<path d="M497.994 93.0234C498.048 92.8084 498.048 92.6202 498.048 92.5664C498.048 91.7869 497.47 91.3568 496.865 91.3568C495.507 91.3568 494.782 93.3191 494.782 93.4132C494.782 93.4804 494.835 93.5341 494.916 93.5341C495.024 93.5341 495.037 93.4804 495.104 93.346C495.642 92.0423 496.314 91.6256 496.825 91.6256C497.107 91.6256 497.255 91.7735 497.255 92.2439C497.255 92.5664 497.214 92.7008 497.161 92.9428L495.884 98.0097C495.628 99.0043 494.997 99.757 494.258 99.757C494.204 99.757 493.922 99.757 493.666 99.6226C493.989 99.5554 494.244 99.3 494.244 98.9774C494.244 98.7624 494.083 98.5473 493.787 98.5473C493.438 98.5473 493.115 98.843 493.115 99.2462C493.115 99.7973 493.706 100.026 494.258 100.026C495.185 100.026 496.408 99.3403 496.744 97.9963L497.994 93.0234ZM498.545 88.8973C498.545 88.5612 498.263 88.4537 498.101 88.4537C497.739 88.4537 497.429 88.8031 497.429 89.0989C497.429 89.3005 497.591 89.5424 497.886 89.5424C498.196 89.5424 498.545 89.2467 498.545 88.8973Z" fill="black"/>
<path d="M486.689 67.0535C486.381 67.0535 486.235 67.0535 486.008 67.248C485.911 67.329 485.733 67.5722 485.733 67.8315C485.733 68.1556 485.976 68.3501 486.284 68.3501C486.673 68.3501 487.11 68.026 487.11 67.3777C487.11 66.5997 486.365 66 485.246 66C483.123 66 481 68.3177 481 70.6192C481 72.0293 481.875 73.3097 483.528 73.3097C485.733 73.3097 487.127 71.5917 487.127 71.381C487.127 71.2837 487.029 71.2027 486.964 71.2027C486.916 71.2027 486.9 71.2189 486.754 71.3648C485.716 72.7424 484.177 72.9855 483.561 72.9855C482.442 72.9855 482.086 72.0131 482.086 71.2027C482.086 70.6354 482.361 69.0633 482.945 67.9611C483.366 67.1994 484.242 66.3242 485.263 66.3242C485.473 66.3242 486.365 66.3566 486.689 67.0535Z" fill="black"/>
<path d="M490.676 67.6356C490.676 67.3534 490.662 67.34 490.474 67.34C489.95 67.9717 489.157 68.1732 488.404 68.2002C488.364 68.2002 488.297 68.2002 488.283 68.227C488.27 68.2539 488.27 68.2808 488.27 68.5631C488.687 68.5631 489.386 68.4824 489.923 68.1598V75.2428C489.923 75.7132 489.896 75.8745 488.74 75.8745H488.337V76.224C488.982 76.2105 489.654 76.1971 490.299 76.1971C490.945 76.1971 491.617 76.2105 492.262 76.224V75.8745H491.859C490.703 75.8745 490.676 75.7267 490.676 75.2428V67.6356Z" fill="black"/>
<path d="M497.946 71.9634C497.999 71.7484 497.999 71.5602 497.999 71.5064C497.999 70.7269 497.421 70.2968 496.817 70.2968C495.459 70.2968 494.733 72.2591 494.733 72.3532C494.733 72.4204 494.787 72.4741 494.868 72.4741C494.975 72.4741 494.989 72.4204 495.056 72.286C495.594 70.9823 496.266 70.5656 496.776 70.5656C497.059 70.5656 497.206 70.7135 497.206 71.1839C497.206 71.5064 497.166 71.6408 497.112 71.8828L495.836 76.9497C495.58 77.9443 494.948 78.6969 494.209 78.6969C494.156 78.6969 493.873 78.6969 493.618 78.5625C493.94 78.4953 494.196 78.24 494.196 77.9174C494.196 77.7024 494.035 77.4873 493.739 77.4873C493.389 77.4873 493.067 77.783 493.067 78.1862C493.067 78.7373 493.658 78.9657 494.209 78.9657C495.137 78.9657 496.36 78.2803 496.696 76.9363L497.946 71.9634ZM498.497 67.8373C498.497 67.5012 498.214 67.3937 498.053 67.3937C497.69 67.3937 497.381 67.7431 497.381 68.0388C497.381 68.2405 497.542 68.4824 497.838 68.4824C498.147 68.4824 498.497 68.1867 498.497 67.8373Z" fill="black"/>
</svg>
