<svg width="700" height="195" viewBox="0 0 700 195" fill="none" xmlns="http://www.w3.org/2000/svg">
<path d="M11.5 132C11.5 133.512 12.4653 134.587 13.9198 135.335C15.3647 136.078 17.3867 136.556 19.7464 136.871C24.4742 137.501 30.7623 137.5 37 137.5C43.2623 137.5 49.4742 137.501 54.1214 138.121C56.4492 138.431 58.3335 138.891 59.6229 139.554C60.9028 140.212 61.5 141.012 61.5 142L62.5 142C62.5 140.488 61.5347 139.413 60.0802 138.665C58.6353 137.922 56.6133 137.444 54.2536 137.129C49.5258 136.499 43.2377 136.5 37 136.5C30.7377 136.5 24.5258 136.499 19.8786 135.879C17.5508 135.569 15.6665 135.109 14.3771 134.446C13.0972 133.788 12.5 132.988 12.5 132L11.5 132ZM111.5 132C111.5 132.988 110.903 133.788 109.623 134.446C108.333 135.109 106.449 135.569 104.121 135.879C99.4742 136.499 93.2623 136.5 87 136.5C80.7623 136.5 74.4742 136.499 69.7464 137.129C67.3867 137.444 65.3647 137.922 63.9198 138.665C62.4653 139.413 61.5 140.488 61.5 142L62.5 142C62.5 141.012 63.0972 140.212 64.3771 139.554C65.6665 138.891 67.5508 138.431 69.8786 138.121C74.5258 137.501 80.7377 137.5 87 137.5C93.2377 137.5 99.5258 137.501 104.254 136.871C106.613 136.556 108.635 136.078 110.08 135.335C111.535 134.587 112.5 133.512 112.5 132L111.5 132Z" fill="black"/>
<path d="M11.5 132C11.5 133.512 12.4653 134.587 13.9198 135.335C15.3647 136.078 17.3867 136.556 19.7464 136.871C24.4742 137.501 30.7623 137.5 37 137.5C43.2623 137.5 49.4742 137.501 54.1214 138.121C56.4492 138.431 58.3335 138.891 59.6229 139.554C60.9028 140.212 61.5 141.012 61.5 142L62.5 142C62.5 140.488 61.5347 139.413 60.0802 138.665C58.6353 137.922 56.6133 137.444 54.2536 137.129C49.5258 136.499 43.2377 136.5 37 136.5C30.7377 136.5 24.5258 136.499 19.8786 135.879C17.5508 135.569 15.6665 135.109 14.3771 134.446C13.0972 133.788 12.5 132.988 12.5 132L11.5 132ZM111.5 132C111.5 132.988 110.903 133.788 109.623 134.446C108.333 135.109 106.449 135.569 104.121 135.879C99.4742 136.499 93.2623 136.5 87 136.5C80.7623 136.5 74.4742 136.499 69.7464 137.129C67.3867 137.444 65.3647 137.922 63.9198 138.665C62.4653 139.413 61.5 140.488 61.5 142L62.5 142C62.5 141.012 63.0972 140.212 64.3771 139.554C65.6665 138.891 67.5508 138.431 69.8786 138.121C74.5258 137.501 80.7377 137.5 87 137.5C93.2377 137.5 99.5258 137.501 104.254 136.871C106.613 136.556 108.635 136.078 110.08 135.335C111.535 134.587 112.5 133.512 112.5 132L111.5 132Z" fill="black"/>
<path d="M61.0273 148.449C61.0273 148.996 60.873 149.443 60.5645 149.791C60.2598 150.139 59.8262 150.371 59.2637 150.488V150.535C59.9512 150.621 60.4609 150.84 60.793 151.191C61.125 151.543 61.291 152.004 61.291 152.574C61.291 153.391 61.0078 154.02 60.4414 154.461C59.875 154.898 59.0703 155.117 58.0273 155.117C57.5742 155.117 57.1582 155.082 56.7793 155.012C56.4043 154.945 56.0391 154.826 55.6836 154.654V153.729C56.0547 153.912 56.4492 154.053 56.8672 154.15C57.2891 154.244 57.6875 154.291 58.0625 154.291C59.543 154.291 60.2832 153.711 60.2832 152.551C60.2832 151.512 59.4668 150.992 57.834 150.992H56.9902V150.154H57.8457C58.5137 150.154 59.043 150.008 59.4336 149.715C59.8242 149.418 60.0195 149.008 60.0195 148.484C60.0195 148.066 59.875 147.738 59.5859 147.5C59.3008 147.262 58.9121 147.143 58.4199 147.143C58.0449 147.143 57.6914 147.193 57.3594 147.295C57.0273 147.396 56.6484 147.584 56.2227 147.857L55.7305 147.201C56.082 146.924 56.4863 146.707 56.9434 146.551C57.4043 146.391 57.8887 146.311 58.3965 146.311C59.2285 146.311 59.875 146.502 60.3359 146.885C60.7969 147.264 61.0273 147.785 61.0273 148.449ZM68.2168 155H62.5859V154.162L64.8418 151.895C65.5293 151.199 65.9824 150.703 66.2012 150.406C66.4199 150.109 66.584 149.82 66.6934 149.539C66.8027 149.258 66.8574 148.955 66.8574 148.631C66.8574 148.174 66.7188 147.812 66.4414 147.547C66.1641 147.277 65.7793 147.143 65.2871 147.143C64.9316 147.143 64.5938 147.201 64.2734 147.318C63.957 147.436 63.6035 147.648 63.2129 147.957L62.6973 147.295C63.4863 146.639 64.3457 146.311 65.2754 146.311C66.0801 146.311 66.7109 146.518 67.168 146.932C67.625 147.342 67.8535 147.895 67.8535 148.59C67.8535 149.133 67.7012 149.67 67.3965 150.201C67.0918 150.732 66.5215 151.404 65.6855 152.217L63.8105 154.051V154.098H68.2168V155Z" fill="black"/>
<path d="M46.4219 188V179.434H47.418V188H46.4219ZM57.8125 188V183.822C57.8125 183.311 57.7031 182.928 57.4844 182.674C57.2656 182.416 56.9258 182.287 56.4648 182.287C55.8594 182.287 55.4121 182.461 55.123 182.809C54.834 183.156 54.6895 183.691 54.6895 184.414V188H53.7168V183.822C53.7168 183.311 53.6074 182.928 53.3887 182.674C53.1699 182.416 52.8281 182.287 52.3633 182.287C51.7539 182.287 51.3066 182.471 51.0215 182.838C50.7402 183.201 50.5996 183.799 50.5996 184.631V188H49.627V181.578H50.418L50.5762 182.457H50.623C50.8066 182.145 51.0645 181.9 51.3965 181.725C51.7324 181.549 52.1074 181.461 52.5215 181.461C53.5254 181.461 54.1816 181.824 54.4902 182.551H54.5371C54.7285 182.215 55.0059 181.949 55.3691 181.754C55.7324 181.559 56.1465 181.461 56.6113 181.461C57.3379 181.461 57.8809 181.648 58.2402 182.023C58.6035 182.395 58.7852 182.99 58.7852 183.811V188H57.8125ZM64.7441 188L64.5508 187.086H64.5039C64.1836 187.488 63.8633 187.762 63.543 187.906C63.2266 188.047 62.8301 188.117 62.3535 188.117C61.7168 188.117 61.2168 187.953 60.8535 187.625C60.4941 187.297 60.3145 186.83 60.3145 186.225C60.3145 184.928 61.3516 184.248 63.4258 184.186L64.5156 184.15V183.752C64.5156 183.248 64.4062 182.877 64.1875 182.639C63.9727 182.396 63.627 182.275 63.1504 182.275C62.6152 182.275 62.0098 182.439 61.334 182.768L61.0352 182.023C61.3516 181.852 61.6973 181.717 62.0723 181.619C62.4512 181.521 62.8301 181.473 63.209 181.473C63.9746 181.473 64.541 181.643 64.9082 181.982C65.2793 182.322 65.4648 182.867 65.4648 183.617V188H64.7441ZM62.5469 187.314C63.1523 187.314 63.627 187.148 63.9707 186.816C64.3184 186.484 64.4922 186.02 64.4922 185.422V184.842L63.5195 184.883C62.7461 184.91 62.1875 185.031 61.8438 185.246C61.5039 185.457 61.334 185.787 61.334 186.236C61.334 186.588 61.4395 186.855 61.6504 187.039C61.8652 187.223 62.1641 187.314 62.5469 187.314ZM72.7305 181.578V182.193L71.541 182.334C71.6504 182.471 71.748 182.65 71.834 182.873C71.9199 183.092 71.9629 183.34 71.9629 183.617C71.9629 184.246 71.748 184.748 71.3184 185.123C70.8887 185.498 70.2988 185.686 69.5488 185.686C69.3574 185.686 69.1777 185.67 69.0098 185.639C68.5957 185.857 68.3887 186.133 68.3887 186.465C68.3887 186.641 68.4609 186.771 68.6055 186.857C68.75 186.939 68.998 186.98 69.3496 186.98H70.4863C71.1816 186.98 71.7148 187.127 72.0859 187.42C72.4609 187.713 72.6484 188.139 72.6484 188.697C72.6484 189.408 72.3633 189.949 71.793 190.32C71.2227 190.695 70.3906 190.883 69.2969 190.883C68.457 190.883 67.8086 190.727 67.3516 190.414C66.8984 190.102 66.6719 189.66 66.6719 189.09C66.6719 188.699 66.7969 188.361 67.0469 188.076C67.2969 187.791 67.6484 187.598 68.1016 187.496C67.9375 187.422 67.7988 187.307 67.6855 187.15C67.5762 186.994 67.5215 186.812 67.5215 186.605C67.5215 186.371 67.584 186.166 67.709 185.99C67.834 185.814 68.0312 185.645 68.3008 185.48C67.9688 185.344 67.6973 185.111 67.4863 184.783C67.2793 184.455 67.1758 184.08 67.1758 183.658C67.1758 182.955 67.3867 182.414 67.8086 182.035C68.2305 181.652 68.8281 181.461 69.6016 181.461C69.9375 181.461 70.2402 181.5 70.5098 181.578H72.7305ZM67.6094 189.078C67.6094 189.426 67.7559 189.689 68.0488 189.869C68.3418 190.049 68.7617 190.139 69.3086 190.139C70.125 190.139 70.7285 190.016 71.1191 189.77C71.5137 189.527 71.7109 189.197 71.7109 188.779C71.7109 188.432 71.6035 188.189 71.3887 188.053C71.1738 187.92 70.7695 187.854 70.1758 187.854H69.0098C68.5684 187.854 68.2246 187.959 67.9785 188.17C67.7324 188.381 67.6094 188.684 67.6094 189.078ZM68.1367 183.635C68.1367 184.084 68.2637 184.424 68.5176 184.654C68.7715 184.885 69.125 185 69.5781 185C70.5273 185 71.002 184.539 71.002 183.617C71.002 182.652 70.5215 182.17 69.5605 182.17C69.1035 182.17 68.752 182.293 68.5059 182.539C68.2598 182.785 68.1367 183.15 68.1367 183.635ZM76.7617 188.117C75.8125 188.117 75.0625 187.828 74.5117 187.25C73.9648 186.672 73.6914 185.869 73.6914 184.842C73.6914 183.807 73.9453 182.984 74.4531 182.375C74.9648 181.766 75.6504 181.461 76.5098 181.461C77.3145 181.461 77.9512 181.727 78.4199 182.258C78.8887 182.785 79.123 183.482 79.123 184.35V184.965H74.6992C74.7188 185.719 74.9082 186.291 75.2676 186.682C75.6309 187.072 76.1406 187.268 76.7969 187.268C77.4883 187.268 78.1719 187.123 78.8477 186.834V187.701C78.5039 187.85 78.1777 187.955 77.8691 188.018C77.5645 188.084 77.1953 188.117 76.7617 188.117ZM76.498 182.275C75.9824 182.275 75.5703 182.443 75.2617 182.779C74.957 183.115 74.7773 183.58 74.7227 184.174H78.0801C78.0801 183.561 77.9434 183.092 77.6699 182.768C77.3965 182.439 77.0059 182.275 76.498 182.275Z" fill="black"/>
<path d="M154.125 180.201C153.184 180.201 152.439 180.516 151.893 181.145C151.35 181.77 151.078 182.627 151.078 183.717C151.078 184.838 151.34 185.705 151.863 186.318C152.391 186.928 153.141 187.232 154.113 187.232C154.711 187.232 155.393 187.125 156.158 186.91V187.783C155.564 188.006 154.832 188.117 153.961 188.117C152.699 188.117 151.725 187.734 151.037 186.969C150.354 186.203 150.012 185.115 150.012 183.705C150.012 182.822 150.176 182.049 150.504 181.385C150.836 180.721 151.312 180.209 151.934 179.85C152.559 179.49 153.293 179.311 154.137 179.311C155.035 179.311 155.82 179.475 156.492 179.803L156.07 180.658C155.422 180.354 154.773 180.201 154.125 180.201ZM163.424 184.783C163.424 185.83 163.16 186.648 162.633 187.238C162.105 187.824 161.377 188.117 160.447 188.117C159.873 188.117 159.363 187.982 158.918 187.713C158.473 187.443 158.129 187.057 157.887 186.553C157.645 186.049 157.523 185.459 157.523 184.783C157.523 183.736 157.785 182.922 158.309 182.34C158.832 181.754 159.559 181.461 160.488 181.461C161.387 181.461 162.1 181.76 162.627 182.357C163.158 182.955 163.424 183.764 163.424 184.783ZM158.531 184.783C158.531 185.604 158.695 186.229 159.023 186.658C159.352 187.088 159.834 187.303 160.471 187.303C161.107 187.303 161.59 187.09 161.918 186.664C162.25 186.234 162.416 185.607 162.416 184.783C162.416 183.967 162.25 183.348 161.918 182.926C161.59 182.5 161.104 182.287 160.459 182.287C159.822 182.287 159.342 182.496 159.018 182.914C158.693 183.332 158.531 183.955 158.531 184.783ZM169.529 188V183.846C169.529 183.322 169.41 182.932 169.172 182.674C168.934 182.416 168.561 182.287 168.053 182.287C167.381 182.287 166.889 182.469 166.576 182.832C166.264 183.195 166.107 183.795 166.107 184.631V188H165.135V181.578H165.926L166.084 182.457H166.131C166.33 182.141 166.609 181.896 166.969 181.725C167.328 181.549 167.729 181.461 168.17 181.461C168.943 181.461 169.525 181.648 169.916 182.023C170.307 182.395 170.502 182.99 170.502 183.811V188H169.529ZM173.912 188L171.475 181.578H172.518L173.9 185.387C174.213 186.277 174.396 186.855 174.451 187.121H174.498C174.541 186.914 174.676 186.486 174.902 185.838C175.133 185.186 175.646 183.766 176.443 181.578H177.486L175.049 188H173.912ZM184.43 183.365H186.844V184.174H184.43V186.67H183.615V184.174H181.213V183.365H183.615V180.857H184.43V183.365ZM192.762 184.438V188H191.766V179.434H194.115C195.166 179.434 195.941 179.635 196.441 180.037C196.945 180.439 197.197 181.045 197.197 181.854C197.197 182.986 196.623 183.752 195.475 184.15L197.801 188H196.623L194.549 184.438H192.762ZM192.762 183.582H194.127C194.83 183.582 195.346 183.443 195.674 183.166C196.002 182.885 196.166 182.465 196.166 181.906C196.166 181.34 195.998 180.932 195.662 180.682C195.33 180.432 194.795 180.307 194.057 180.307H192.762V183.582ZM201.75 188.117C200.801 188.117 200.051 187.828 199.5 187.25C198.953 186.672 198.68 185.869 198.68 184.842C198.68 183.807 198.934 182.984 199.441 182.375C199.953 181.766 200.639 181.461 201.498 181.461C202.303 181.461 202.939 181.727 203.408 182.258C203.877 182.785 204.111 183.482 204.111 184.35V184.965H199.688C199.707 185.719 199.896 186.291 200.256 186.682C200.619 187.072 201.129 187.268 201.785 187.268C202.477 187.268 203.16 187.123 203.836 186.834V187.701C203.492 187.85 203.166 187.955 202.857 188.018C202.553 188.084 202.184 188.117 201.75 188.117ZM201.486 182.275C200.971 182.275 200.559 182.443 200.25 182.779C199.945 183.115 199.766 183.58 199.711 184.174H203.068C203.068 183.561 202.932 183.092 202.658 182.768C202.385 182.439 201.994 182.275 201.486 182.275ZM205.922 188V179.434H206.918V187.098H210.697V188H205.922ZM218.625 179.434V184.977C218.625 185.953 218.33 186.721 217.74 187.279C217.15 187.838 216.34 188.117 215.309 188.117C214.277 188.117 213.479 187.836 212.912 187.273C212.35 186.711 212.068 185.938 212.068 184.953V179.434H213.064V185.023C213.064 185.738 213.26 186.287 213.65 186.67C214.041 187.053 214.615 187.244 215.373 187.244C216.096 187.244 216.652 187.053 217.043 186.67C217.434 186.283 217.629 185.73 217.629 185.012V179.434H218.625Z" fill="black"/>
<path d="M286.242 180.201C285.301 180.201 284.557 180.516 284.01 181.145C283.467 181.77 283.195 182.627 283.195 183.717C283.195 184.838 283.457 185.705 283.98 186.318C284.508 186.928 285.258 187.232 286.23 187.232C286.828 187.232 287.51 187.125 288.275 186.91V187.783C287.682 188.006 286.949 188.117 286.078 188.117C284.816 188.117 283.842 187.734 283.154 186.969C282.471 186.203 282.129 185.115 282.129 183.705C282.129 182.822 282.293 182.049 282.621 181.385C282.953 180.721 283.43 180.209 284.051 179.85C284.676 179.49 285.41 179.311 286.254 179.311C287.152 179.311 287.938 179.475 288.609 179.803L288.188 180.658C287.539 180.354 286.891 180.201 286.242 180.201ZM295.541 184.783C295.541 185.83 295.277 186.648 294.75 187.238C294.223 187.824 293.494 188.117 292.564 188.117C291.99 188.117 291.48 187.982 291.035 187.713C290.59 187.443 290.246 187.057 290.004 186.553C289.762 186.049 289.641 185.459 289.641 184.783C289.641 183.736 289.902 182.922 290.426 182.34C290.949 181.754 291.676 181.461 292.605 181.461C293.504 181.461 294.217 181.76 294.744 182.357C295.275 182.955 295.541 183.764 295.541 184.783ZM290.648 184.783C290.648 185.604 290.812 186.229 291.141 186.658C291.469 187.088 291.951 187.303 292.588 187.303C293.225 187.303 293.707 187.09 294.035 186.664C294.367 186.234 294.533 185.607 294.533 184.783C294.533 183.967 294.367 183.348 294.035 182.926C293.707 182.5 293.221 182.287 292.576 182.287C291.939 182.287 291.459 182.496 291.135 182.914C290.811 183.332 290.648 183.955 290.648 184.783ZM301.646 188V183.846C301.646 183.322 301.527 182.932 301.289 182.674C301.051 182.416 300.678 182.287 300.17 182.287C299.498 182.287 299.006 182.469 298.693 182.832C298.381 183.195 298.225 183.795 298.225 184.631V188H297.252V181.578H298.043L298.201 182.457H298.248C298.447 182.141 298.727 181.896 299.086 181.725C299.445 181.549 299.846 181.461 300.287 181.461C301.061 181.461 301.643 181.648 302.033 182.023C302.424 182.395 302.619 182.99 302.619 183.811V188H301.646ZM306.029 188L303.592 181.578H304.635L306.018 185.387C306.33 186.277 306.514 186.855 306.568 187.121H306.615C306.658 186.914 306.793 186.486 307.02 185.838C307.25 185.186 307.764 183.766 308.561 181.578H309.604L307.166 188H306.029Z" fill="black"/>
<path d="M377.557 184.438V188H376.561V179.434H378.91C379.961 179.434 380.736 179.635 381.236 180.037C381.74 180.439 381.992 181.045 381.992 181.854C381.992 182.986 381.418 183.752 380.27 184.15L382.596 188H381.418L379.344 184.438H377.557ZM377.557 183.582H378.922C379.625 183.582 380.141 183.443 380.469 183.166C380.797 182.885 380.961 182.465 380.961 181.906C380.961 181.34 380.793 180.932 380.457 180.682C380.125 180.432 379.59 180.307 378.852 180.307H377.557V183.582ZM386.545 188.117C385.596 188.117 384.846 187.828 384.295 187.25C383.748 186.672 383.475 185.869 383.475 184.842C383.475 183.807 383.729 182.984 384.236 182.375C384.748 181.766 385.434 181.461 386.293 181.461C387.098 181.461 387.734 181.727 388.203 182.258C388.672 182.785 388.906 183.482 388.906 184.35V184.965H384.482C384.502 185.719 384.691 186.291 385.051 186.682C385.414 187.072 385.924 187.268 386.58 187.268C387.271 187.268 387.955 187.123 388.631 186.834V187.701C388.287 187.85 387.961 187.955 387.652 188.018C387.348 188.084 386.979 188.117 386.545 188.117ZM386.281 182.275C385.766 182.275 385.354 182.443 385.045 182.779C384.74 183.115 384.561 183.58 384.506 184.174H387.863C387.863 183.561 387.727 183.092 387.453 182.768C387.18 182.439 386.789 182.275 386.281 182.275ZM394.713 186.248C394.713 186.846 394.49 187.307 394.045 187.631C393.6 187.955 392.975 188.117 392.17 188.117C391.318 188.117 390.654 187.982 390.178 187.713V186.811C390.486 186.967 390.816 187.09 391.168 187.18C391.523 187.27 391.865 187.314 392.193 187.314C392.701 187.314 393.092 187.234 393.365 187.074C393.639 186.91 393.775 186.662 393.775 186.33C393.775 186.08 393.666 185.867 393.447 185.691C393.232 185.512 392.811 185.301 392.182 185.059C391.584 184.836 391.158 184.643 390.904 184.479C390.654 184.311 390.467 184.121 390.342 183.91C390.221 183.699 390.16 183.447 390.16 183.154C390.16 182.631 390.373 182.219 390.799 181.918C391.225 181.613 391.809 181.461 392.551 181.461C393.242 181.461 393.918 181.602 394.578 181.883L394.232 182.674C393.588 182.408 393.004 182.275 392.48 182.275C392.02 182.275 391.672 182.348 391.438 182.492C391.203 182.637 391.086 182.836 391.086 183.09C391.086 183.262 391.129 183.408 391.215 183.529C391.305 183.65 391.447 183.766 391.643 183.875C391.838 183.984 392.213 184.143 392.768 184.35C393.529 184.627 394.043 184.906 394.309 185.188C394.578 185.469 394.713 185.822 394.713 186.248ZM400.695 188V183.846C400.695 183.322 400.576 182.932 400.338 182.674C400.1 182.416 399.727 182.287 399.219 182.287C398.543 182.287 398.049 182.471 397.736 182.838C397.428 183.205 397.273 183.807 397.273 184.643V188H396.301V178.883H397.273V181.643C397.273 181.975 397.258 182.25 397.227 182.469H397.285C397.477 182.16 397.748 181.918 398.1 181.742C398.455 181.562 398.859 181.473 399.312 181.473C400.098 181.473 400.686 181.66 401.076 182.035C401.471 182.406 401.668 182.998 401.668 183.811V188H400.695ZM407.621 188L407.428 187.086H407.381C407.061 187.488 406.74 187.762 406.42 187.906C406.104 188.047 405.707 188.117 405.23 188.117C404.594 188.117 404.094 187.953 403.73 187.625C403.371 187.297 403.191 186.83 403.191 186.225C403.191 184.928 404.229 184.248 406.303 184.186L407.393 184.15V183.752C407.393 183.248 407.283 182.877 407.064 182.639C406.85 182.396 406.504 182.275 406.027 182.275C405.492 182.275 404.887 182.439 404.211 182.768L403.912 182.023C404.229 181.852 404.574 181.717 404.949 181.619C405.328 181.521 405.707 181.473 406.086 181.473C406.852 181.473 407.418 181.643 407.785 181.982C408.156 182.322 408.342 182.867 408.342 183.617V188H407.621ZM405.424 187.314C406.029 187.314 406.504 187.148 406.848 186.816C407.195 186.484 407.369 186.02 407.369 185.422V184.842L406.396 184.883C405.623 184.91 405.064 185.031 404.721 185.246C404.381 185.457 404.211 185.787 404.211 186.236C404.211 186.588 404.316 186.855 404.527 187.039C404.742 187.223 405.041 187.314 405.424 187.314ZM413.34 188.117C412.922 188.117 412.539 188.041 412.191 187.889C411.848 187.732 411.559 187.494 411.324 187.174H411.254C411.301 187.549 411.324 187.904 411.324 188.24V190.883H410.352V181.578H411.143L411.277 182.457H411.324C411.574 182.105 411.865 181.852 412.197 181.695C412.529 181.539 412.91 181.461 413.34 181.461C414.191 181.461 414.848 181.752 415.309 182.334C415.773 182.916 416.006 183.732 416.006 184.783C416.006 185.838 415.77 186.658 415.297 187.244C414.828 187.826 414.176 188.117 413.34 188.117ZM413.199 182.287C412.543 182.287 412.068 182.469 411.775 182.832C411.482 183.195 411.332 183.773 411.324 184.566V184.783C411.324 185.686 411.475 186.332 411.775 186.723C412.076 187.109 412.559 187.303 413.223 187.303C413.777 187.303 414.211 187.078 414.523 186.629C414.84 186.18 414.998 185.561 414.998 184.771C414.998 183.971 414.84 183.357 414.523 182.932C414.211 182.502 413.77 182.287 413.199 182.287ZM420.424 188.117C419.475 188.117 418.725 187.828 418.174 187.25C417.627 186.672 417.354 185.869 417.354 184.842C417.354 183.807 417.607 182.984 418.115 182.375C418.627 181.766 419.312 181.461 420.172 181.461C420.977 181.461 421.613 181.727 422.082 182.258C422.551 182.785 422.785 183.482 422.785 184.35V184.965H418.361C418.381 185.719 418.57 186.291 418.93 186.682C419.293 187.072 419.803 187.268 420.459 187.268C421.15 187.268 421.834 187.123 422.51 186.834V187.701C422.166 187.85 421.84 187.955 421.531 188.018C421.227 188.084 420.857 188.117 420.424 188.117ZM420.16 182.275C419.645 182.275 419.232 182.443 418.924 182.779C418.619 183.115 418.439 183.58 418.385 184.174H421.742C421.742 183.561 421.605 183.092 421.332 182.768C421.059 182.439 420.668 182.275 420.16 182.275ZM430.361 183.365H432.775V184.174H430.361V186.67H429.547V184.174H427.145V183.365H429.547V180.857H430.361V183.365ZM442.531 185.721C442.531 186.475 442.258 187.062 441.711 187.484C441.164 187.906 440.422 188.117 439.484 188.117C438.469 188.117 437.688 187.986 437.141 187.725V186.764C437.492 186.912 437.875 187.029 438.289 187.115C438.703 187.201 439.113 187.244 439.52 187.244C440.184 187.244 440.684 187.119 441.02 186.869C441.355 186.615 441.523 186.264 441.523 185.814C441.523 185.518 441.463 185.275 441.342 185.088C441.225 184.896 441.025 184.721 440.744 184.561C440.467 184.4 440.043 184.219 439.473 184.016C438.676 183.73 438.105 183.393 437.762 183.002C437.422 182.611 437.252 182.102 437.252 181.473C437.252 180.812 437.5 180.287 437.996 179.896C438.492 179.506 439.148 179.311 439.965 179.311C440.816 179.311 441.6 179.467 442.314 179.779L442.004 180.646C441.297 180.35 440.609 180.201 439.941 180.201C439.414 180.201 439.002 180.314 438.705 180.541C438.408 180.768 438.26 181.082 438.26 181.484C438.26 181.781 438.314 182.025 438.424 182.217C438.533 182.404 438.717 182.578 438.975 182.738C439.236 182.895 439.635 183.068 440.17 183.26C441.068 183.58 441.686 183.924 442.021 184.291C442.361 184.658 442.531 185.135 442.531 185.721ZM446.562 187.303C447.211 187.303 447.684 187.129 447.98 186.781C448.277 186.434 448.436 185.848 448.455 185.023V184.807C448.455 183.908 448.303 183.262 447.998 182.867C447.693 182.473 447.211 182.275 446.551 182.275C445.98 182.275 445.543 182.498 445.238 182.943C444.938 183.385 444.787 184.01 444.787 184.818C444.787 185.627 444.936 186.244 445.232 186.67C445.533 187.092 445.977 187.303 446.562 187.303ZM446.416 188.117C445.588 188.117 444.941 187.826 444.477 187.244C444.012 186.662 443.779 185.85 443.779 184.807C443.779 183.756 444.014 182.936 444.482 182.346C444.951 181.756 445.604 181.461 446.439 181.461C447.318 181.461 447.994 181.793 448.467 182.457H448.52L448.66 181.578H449.428V190.883H448.455V188.135C448.455 187.744 448.477 187.412 448.52 187.139H448.443C447.994 187.791 447.318 188.117 446.416 188.117ZM452.41 181.578V185.744C452.41 186.268 452.529 186.658 452.768 186.916C453.006 187.174 453.379 187.303 453.887 187.303C454.559 187.303 455.049 187.119 455.357 186.752C455.67 186.385 455.826 185.785 455.826 184.953V181.578H456.799V188H455.996L455.855 187.139H455.803C455.604 187.455 455.326 187.697 454.971 187.865C454.619 188.033 454.217 188.117 453.764 188.117C452.982 188.117 452.396 187.932 452.006 187.561C451.619 187.189 451.426 186.596 451.426 185.779V181.578H452.41ZM462.816 188L462.623 187.086H462.576C462.256 187.488 461.936 187.762 461.615 187.906C461.299 188.047 460.902 188.117 460.426 188.117C459.789 188.117 459.289 187.953 458.926 187.625C458.566 187.297 458.387 186.83 458.387 186.225C458.387 184.928 459.424 184.248 461.498 184.186L462.588 184.15V183.752C462.588 183.248 462.479 182.877 462.26 182.639C462.045 182.396 461.699 182.275 461.223 182.275C460.688 182.275 460.082 182.439 459.406 182.768L459.107 182.023C459.424 181.852 459.77 181.717 460.145 181.619C460.523 181.521 460.902 181.473 461.281 181.473C462.047 181.473 462.613 181.643 462.98 181.982C463.352 182.322 463.537 182.867 463.537 183.617V188H462.816ZM460.619 187.314C461.225 187.314 461.699 187.148 462.043 186.816C462.391 186.484 462.564 186.02 462.564 185.422V184.842L461.592 184.883C460.818 184.91 460.26 185.031 459.916 185.246C459.576 185.457 459.406 185.787 459.406 186.236C459.406 186.588 459.512 186.855 459.723 187.039C459.938 187.223 460.236 187.314 460.619 187.314ZM469.689 186.248C469.689 186.846 469.467 187.307 469.021 187.631C468.576 187.955 467.951 188.117 467.146 188.117C466.295 188.117 465.631 187.982 465.154 187.713V186.811C465.463 186.967 465.793 187.09 466.145 187.18C466.5 187.27 466.842 187.314 467.17 187.314C467.678 187.314 468.068 187.234 468.342 187.074C468.615 186.91 468.752 186.662 468.752 186.33C468.752 186.08 468.643 185.867 468.424 185.691C468.209 185.512 467.787 185.301 467.158 185.059C466.561 184.836 466.135 184.643 465.881 184.479C465.631 184.311 465.443 184.121 465.318 183.91C465.197 183.699 465.137 183.447 465.137 183.154C465.137 182.631 465.35 182.219 465.775 181.918C466.201 181.613 466.785 181.461 467.527 181.461C468.219 181.461 468.895 181.602 469.555 181.883L469.209 182.674C468.564 182.408 467.98 182.275 467.457 182.275C466.996 182.275 466.648 182.348 466.414 182.492C466.18 182.637 466.062 182.836 466.062 183.09C466.062 183.262 466.105 183.408 466.191 183.529C466.281 183.65 466.424 183.766 466.619 183.875C466.814 183.984 467.189 184.143 467.744 184.35C468.506 184.627 469.02 184.906 469.285 185.188C469.555 185.469 469.689 185.822 469.689 186.248ZM475.672 188V183.846C475.672 183.322 475.553 182.932 475.314 182.674C475.076 182.416 474.703 182.287 474.195 182.287C473.52 182.287 473.025 182.471 472.713 182.838C472.404 183.205 472.25 183.807 472.25 184.643V188H471.277V178.883H472.25V181.643C472.25 181.975 472.234 182.25 472.203 182.469H472.262C472.453 182.16 472.725 181.918 473.076 181.742C473.432 181.562 473.836 181.473 474.289 181.473C475.074 181.473 475.662 181.66 476.053 182.035C476.447 182.406 476.645 182.998 476.645 183.811V188H475.672Z" fill="black"/>
<path d="M507.252 188V179.434H508.248V188H507.252ZM518.643 188V183.822C518.643 183.311 518.533 182.928 518.314 182.674C518.096 182.416 517.756 182.287 517.295 182.287C516.689 182.287 516.242 182.461 515.953 182.809C515.664 183.156 515.52 183.691 515.52 184.414V188H514.547V183.822C514.547 183.311 514.438 182.928 514.219 182.674C514 182.416 513.658 182.287 513.193 182.287C512.584 182.287 512.137 182.471 511.852 182.838C511.57 183.201 511.43 183.799 511.43 184.631V188H510.457V181.578H511.248L511.406 182.457H511.453C511.637 182.145 511.895 181.9 512.227 181.725C512.562 181.549 512.938 181.461 513.352 181.461C514.355 181.461 515.012 181.824 515.32 182.551H515.367C515.559 182.215 515.836 181.949 516.199 181.754C516.562 181.559 516.977 181.461 517.441 181.461C518.168 181.461 518.711 181.648 519.07 182.023C519.434 182.395 519.615 182.99 519.615 183.811V188H518.643ZM525.574 188L525.381 187.086H525.334C525.014 187.488 524.693 187.762 524.373 187.906C524.057 188.047 523.66 188.117 523.184 188.117C522.547 188.117 522.047 187.953 521.684 187.625C521.324 187.297 521.145 186.83 521.145 186.225C521.145 184.928 522.182 184.248 524.256 184.186L525.346 184.15V183.752C525.346 183.248 525.236 182.877 525.018 182.639C524.803 182.396 524.457 182.275 523.98 182.275C523.445 182.275 522.84 182.439 522.164 182.768L521.865 182.023C522.182 181.852 522.527 181.717 522.902 181.619C523.281 181.521 523.66 181.473 524.039 181.473C524.805 181.473 525.371 181.643 525.738 181.982C526.109 182.322 526.295 182.867 526.295 183.617V188H525.574ZM523.377 187.314C523.982 187.314 524.457 187.148 524.801 186.816C525.148 186.484 525.322 186.02 525.322 185.422V184.842L524.35 184.883C523.576 184.91 523.018 185.031 522.674 185.246C522.334 185.457 522.164 185.787 522.164 186.236C522.164 186.588 522.27 186.855 522.48 187.039C522.695 187.223 522.994 187.314 523.377 187.314ZM533.561 181.578V182.193L532.371 182.334C532.48 182.471 532.578 182.65 532.664 182.873C532.75 183.092 532.793 183.34 532.793 183.617C532.793 184.246 532.578 184.748 532.148 185.123C531.719 185.498 531.129 185.686 530.379 185.686C530.188 185.686 530.008 185.67 529.84 185.639C529.426 185.857 529.219 186.133 529.219 186.465C529.219 186.641 529.291 186.771 529.436 186.857C529.58 186.939 529.828 186.98 530.18 186.98H531.316C532.012 186.98 532.545 187.127 532.916 187.42C533.291 187.713 533.479 188.139 533.479 188.697C533.479 189.408 533.193 189.949 532.623 190.32C532.053 190.695 531.221 190.883 530.127 190.883C529.287 190.883 528.639 190.727 528.182 190.414C527.729 190.102 527.502 189.66 527.502 189.09C527.502 188.699 527.627 188.361 527.877 188.076C528.127 187.791 528.479 187.598 528.932 187.496C528.768 187.422 528.629 187.307 528.516 187.15C528.406 186.994 528.352 186.812 528.352 186.605C528.352 186.371 528.414 186.166 528.539 185.99C528.664 185.814 528.861 185.645 529.131 185.48C528.799 185.344 528.527 185.111 528.316 184.783C528.109 184.455 528.006 184.08 528.006 183.658C528.006 182.955 528.217 182.414 528.639 182.035C529.061 181.652 529.658 181.461 530.432 181.461C530.768 181.461 531.07 181.5 531.34 181.578H533.561ZM528.439 189.078C528.439 189.426 528.586 189.689 528.879 189.869C529.172 190.049 529.592 190.139 530.139 190.139C530.955 190.139 531.559 190.016 531.949 189.77C532.344 189.527 532.541 189.197 532.541 188.779C532.541 188.432 532.434 188.189 532.219 188.053C532.004 187.92 531.6 187.854 531.006 187.854H529.84C529.398 187.854 529.055 187.959 528.809 188.17C528.562 188.381 528.439 188.684 528.439 189.078ZM528.967 183.635C528.967 184.084 529.094 184.424 529.348 184.654C529.602 184.885 529.955 185 530.408 185C531.357 185 531.832 184.539 531.832 183.617C531.832 182.652 531.352 182.17 530.391 182.17C529.934 182.17 529.582 182.293 529.336 182.539C529.09 182.785 528.967 183.15 528.967 183.635ZM537.592 188.117C536.643 188.117 535.893 187.828 535.342 187.25C534.795 186.672 534.521 185.869 534.521 184.842C534.521 183.807 534.775 182.984 535.283 182.375C535.795 181.766 536.48 181.461 537.34 181.461C538.145 181.461 538.781 181.727 539.25 182.258C539.719 182.785 539.953 183.482 539.953 184.35V184.965H535.529C535.549 185.719 535.738 186.291 536.098 186.682C536.461 187.072 536.971 187.268 537.627 187.268C538.318 187.268 539.002 187.123 539.678 186.834V187.701C539.334 187.85 539.008 187.955 538.699 188.018C538.395 188.084 538.025 188.117 537.592 188.117ZM537.328 182.275C536.812 182.275 536.4 182.443 536.092 182.779C535.787 183.115 535.607 183.58 535.553 184.174H538.91C538.91 183.561 538.773 183.092 538.5 182.768C538.227 182.439 537.836 182.275 537.328 182.275ZM545.432 180.201C544.49 180.201 543.746 180.516 543.199 181.145C542.656 181.77 542.385 182.627 542.385 183.717C542.385 184.838 542.646 185.705 543.17 186.318C543.697 186.928 544.447 187.232 545.42 187.232C546.018 187.232 546.699 187.125 547.465 186.91V187.783C546.871 188.006 546.139 188.117 545.268 188.117C544.006 188.117 543.031 187.734 542.344 186.969C541.66 186.203 541.318 185.115 541.318 183.705C541.318 182.822 541.482 182.049 541.811 181.385C542.143 180.721 542.619 180.209 543.24 179.85C543.865 179.49 544.6 179.311 545.443 179.311C546.342 179.311 547.127 179.475 547.799 179.803L547.377 180.658C546.729 180.354 546.08 180.201 545.432 180.201ZM553.137 188L552.943 187.086H552.896C552.576 187.488 552.256 187.762 551.936 187.906C551.619 188.047 551.223 188.117 550.746 188.117C550.109 188.117 549.609 187.953 549.246 187.625C548.887 187.297 548.707 186.83 548.707 186.225C548.707 184.928 549.744 184.248 551.818 184.186L552.908 184.15V183.752C552.908 183.248 552.799 182.877 552.58 182.639C552.365 182.396 552.02 182.275 551.543 182.275C551.008 182.275 550.402 182.439 549.727 182.768L549.428 182.023C549.744 181.852 550.09 181.717 550.465 181.619C550.844 181.521 551.223 181.473 551.602 181.473C552.367 181.473 552.934 181.643 553.301 181.982C553.672 182.322 553.857 182.867 553.857 183.617V188H553.137ZM550.939 187.314C551.545 187.314 552.02 187.148 552.363 186.816C552.711 186.484 552.885 186.02 552.885 185.422V184.842L551.912 184.883C551.139 184.91 550.58 185.031 550.236 185.246C549.896 185.457 549.727 185.787 549.727 186.236C549.727 186.588 549.832 186.855 550.043 187.039C550.258 187.223 550.557 187.314 550.939 187.314ZM558.855 188.117C558.438 188.117 558.055 188.041 557.707 187.889C557.363 187.732 557.074 187.494 556.84 187.174H556.77C556.816 187.549 556.84 187.904 556.84 188.24V190.883H555.867V181.578H556.658L556.793 182.457H556.84C557.09 182.105 557.381 181.852 557.713 181.695C558.045 181.539 558.426 181.461 558.855 181.461C559.707 181.461 560.363 181.752 560.824 182.334C561.289 182.916 561.521 183.732 561.521 184.783C561.521 185.838 561.285 186.658 560.812 187.244C560.344 187.826 559.691 188.117 558.855 188.117ZM558.715 182.287C558.059 182.287 557.584 182.469 557.291 182.832C556.998 183.195 556.848 183.773 556.84 184.566V184.783C556.84 185.686 556.99 186.332 557.291 186.723C557.592 187.109 558.074 187.303 558.738 187.303C559.293 187.303 559.727 187.078 560.039 186.629C560.355 186.18 560.514 185.561 560.514 184.771C560.514 183.971 560.355 183.357 560.039 182.932C559.727 182.502 559.285 182.287 558.715 182.287ZM567.369 186.248C567.369 186.846 567.146 187.307 566.701 187.631C566.256 187.955 565.631 188.117 564.826 188.117C563.975 188.117 563.311 187.982 562.834 187.713V186.811C563.143 186.967 563.473 187.09 563.824 187.18C564.18 187.27 564.521 187.314 564.85 187.314C565.357 187.314 565.748 187.234 566.021 187.074C566.295 186.91 566.432 186.662 566.432 186.33C566.432 186.08 566.322 185.867 566.104 185.691C565.889 185.512 565.467 185.301 564.838 185.059C564.24 184.836 563.814 184.643 563.561 184.479C563.311 184.311 563.123 184.121 562.998 183.91C562.877 183.699 562.816 183.447 562.816 183.154C562.816 182.631 563.029 182.219 563.455 181.918C563.881 181.613 564.465 181.461 565.207 181.461C565.898 181.461 566.574 181.602 567.234 181.883L566.889 182.674C566.244 182.408 565.66 182.275 565.137 182.275C564.676 182.275 564.328 182.348 564.094 182.492C563.859 182.637 563.742 182.836 563.742 183.09C563.742 183.262 563.785 183.408 563.871 183.529C563.961 183.65 564.104 183.766 564.299 183.875C564.494 183.984 564.869 184.143 565.424 184.35C566.186 184.627 566.699 184.906 566.965 185.188C567.234 185.469 567.369 185.822 567.369 186.248Z" fill="black"/>
<path d="M625.254 180.201C624.312 180.201 623.568 180.516 623.021 181.145C622.479 181.77 622.207 182.627 622.207 183.717C622.207 184.838 622.469 185.705 622.992 186.318C623.52 186.928 624.27 187.232 625.242 187.232C625.84 187.232 626.521 187.125 627.287 186.91V187.783C626.693 188.006 625.961 188.117 625.09 188.117C623.828 188.117 622.854 187.734 622.166 186.969C621.482 186.203 621.141 185.115 621.141 183.705C621.141 182.822 621.305 182.049 621.633 181.385C621.965 180.721 622.441 180.209 623.062 179.85C623.688 179.49 624.422 179.311 625.266 179.311C626.164 179.311 626.949 179.475 627.621 179.803L627.199 180.658C626.551 180.354 625.902 180.201 625.254 180.201ZM629.982 188H629.01V178.883H629.982V188ZM635.994 188L635.801 187.086H635.754C635.434 187.488 635.113 187.762 634.793 187.906C634.477 188.047 634.08 188.117 633.604 188.117C632.967 188.117 632.467 187.953 632.104 187.625C631.744 187.297 631.564 186.83 631.564 186.225C631.564 184.928 632.602 184.248 634.676 184.186L635.766 184.15V183.752C635.766 183.248 635.656 182.877 635.438 182.639C635.223 182.396 634.877 182.275 634.4 182.275C633.865 182.275 633.26 182.439 632.584 182.768L632.285 182.023C632.602 181.852 632.947 181.717 633.322 181.619C633.701 181.521 634.08 181.473 634.459 181.473C635.225 181.473 635.791 181.643 636.158 181.982C636.529 182.322 636.715 182.867 636.715 183.617V188H635.994ZM633.797 187.314C634.402 187.314 634.877 187.148 635.221 186.816C635.568 186.484 635.742 186.02 635.742 185.422V184.842L634.77 184.883C633.996 184.91 633.438 185.031 633.094 185.246C632.754 185.457 632.584 185.787 632.584 186.236C632.584 186.588 632.689 186.855 632.9 187.039C633.115 187.223 633.414 187.314 633.797 187.314ZM642.867 186.248C642.867 186.846 642.645 187.307 642.199 187.631C641.754 187.955 641.129 188.117 640.324 188.117C639.473 188.117 638.809 187.982 638.332 187.713V186.811C638.641 186.967 638.971 187.09 639.322 187.18C639.678 187.27 640.02 187.314 640.348 187.314C640.855 187.314 641.246 187.234 641.52 187.074C641.793 186.91 641.93 186.662 641.93 186.33C641.93 186.08 641.82 185.867 641.602 185.691C641.387 185.512 640.965 185.301 640.336 185.059C639.738 184.836 639.312 184.643 639.059 184.479C638.809 184.311 638.621 184.121 638.496 183.91C638.375 183.699 638.314 183.447 638.314 183.154C638.314 182.631 638.527 182.219 638.953 181.918C639.379 181.613 639.963 181.461 640.705 181.461C641.396 181.461 642.072 181.602 642.732 181.883L642.387 182.674C641.742 182.408 641.158 182.275 640.635 182.275C640.174 182.275 639.826 182.348 639.592 182.492C639.357 182.637 639.24 182.836 639.24 183.09C639.24 183.262 639.283 183.408 639.369 183.529C639.459 183.65 639.602 183.766 639.797 183.875C639.992 183.984 640.367 184.143 640.922 184.35C641.684 184.627 642.197 184.906 642.463 185.188C642.732 185.469 642.867 185.822 642.867 186.248ZM648.598 186.248C648.598 186.846 648.375 187.307 647.93 187.631C647.484 187.955 646.859 188.117 646.055 188.117C645.203 188.117 644.539 187.982 644.062 187.713V186.811C644.371 186.967 644.701 187.09 645.053 187.18C645.408 187.27 645.75 187.314 646.078 187.314C646.586 187.314 646.977 187.234 647.25 187.074C647.523 186.91 647.66 186.662 647.66 186.33C647.66 186.08 647.551 185.867 647.332 185.691C647.117 185.512 646.695 185.301 646.066 185.059C645.469 184.836 645.043 184.643 644.789 184.479C644.539 184.311 644.352 184.121 644.227 183.91C644.105 183.699 644.045 183.447 644.045 183.154C644.045 182.631 644.258 182.219 644.684 181.918C645.109 181.613 645.693 181.461 646.436 181.461C647.127 181.461 647.803 181.602 648.463 181.883L648.117 182.674C647.473 182.408 646.889 182.275 646.365 182.275C645.904 182.275 645.557 182.348 645.322 182.492C645.088 182.637 644.971 182.836 644.971 183.09C644.971 183.262 645.014 183.408 645.1 183.529C645.189 183.65 645.332 183.766 645.527 183.875C645.723 183.984 646.098 184.143 646.652 184.35C647.414 184.627 647.928 184.906 648.193 185.188C648.463 185.469 648.598 185.822 648.598 186.248ZM651.158 188H650.186V181.578H651.158V188ZM650.104 179.838C650.104 179.615 650.158 179.453 650.268 179.352C650.377 179.246 650.514 179.193 650.678 179.193C650.834 179.193 650.969 179.246 651.082 179.352C651.195 179.457 651.252 179.619 651.252 179.838C651.252 180.057 651.195 180.221 651.082 180.33C650.969 180.436 650.834 180.488 650.678 180.488C650.514 180.488 650.377 180.436 650.268 180.33C650.158 180.221 650.104 180.057 650.104 179.838ZM656.115 182.334H654.48V188H653.508V182.334H652.359V181.895L653.508 181.543V181.186C653.508 179.607 654.197 178.818 655.576 178.818C655.916 178.818 656.314 178.887 656.771 179.023L656.52 179.803C656.145 179.682 655.824 179.621 655.559 179.621C655.191 179.621 654.92 179.744 654.744 179.99C654.568 180.232 654.48 180.623 654.48 181.162V181.578H656.115V182.334ZM658.26 188H657.287V181.578H658.26V188ZM657.205 179.838C657.205 179.615 657.26 179.453 657.369 179.352C657.479 179.246 657.615 179.193 657.779 179.193C657.936 179.193 658.07 179.246 658.184 179.352C658.297 179.457 658.354 179.619 658.354 179.838C658.354 180.057 658.297 180.221 658.184 180.33C658.07 180.436 657.936 180.488 657.779 180.488C657.615 180.488 657.479 180.436 657.369 180.33C657.26 180.221 657.205 180.057 657.205 179.838ZM662.889 188.117C661.959 188.117 661.238 187.832 660.727 187.262C660.219 186.688 659.965 185.877 659.965 184.83C659.965 183.756 660.223 182.926 660.738 182.34C661.258 181.754 661.996 181.461 662.953 181.461C663.262 181.461 663.57 181.494 663.879 181.561C664.188 181.627 664.43 181.705 664.605 181.795L664.307 182.621C664.092 182.535 663.857 182.465 663.604 182.41C663.35 182.352 663.125 182.322 662.93 182.322C661.625 182.322 660.973 183.154 660.973 184.818C660.973 185.607 661.131 186.213 661.447 186.635C661.768 187.057 662.24 187.268 662.865 187.268C663.4 187.268 663.949 187.152 664.512 186.922V187.783C664.082 188.006 663.541 188.117 662.889 188.117ZM669.99 188L669.797 187.086H669.75C669.43 187.488 669.109 187.762 668.789 187.906C668.473 188.047 668.076 188.117 667.6 188.117C666.963 188.117 666.463 187.953 666.1 187.625C665.74 187.297 665.561 186.83 665.561 186.225C665.561 184.928 666.598 184.248 668.672 184.186L669.762 184.15V183.752C669.762 183.248 669.652 182.877 669.434 182.639C669.219 182.396 668.873 182.275 668.396 182.275C667.861 182.275 667.256 182.439 666.58 182.768L666.281 182.023C666.598 181.852 666.943 181.717 667.318 181.619C667.697 181.521 668.076 181.473 668.455 181.473C669.221 181.473 669.787 181.643 670.154 181.982C670.525 182.322 670.711 182.867 670.711 183.617V188H669.99ZM667.793 187.314C668.398 187.314 668.873 187.148 669.217 186.816C669.564 186.484 669.738 186.02 669.738 185.422V184.842L668.766 184.883C667.992 184.91 667.434 185.031 667.09 185.246C666.75 185.457 666.58 185.787 666.58 186.236C666.58 186.588 666.686 186.855 666.896 187.039C667.111 187.223 667.41 187.314 667.793 187.314ZM674.795 187.314C674.967 187.314 675.133 187.303 675.293 187.279C675.453 187.252 675.58 187.225 675.674 187.197V187.941C675.568 187.992 675.412 188.033 675.205 188.064C675.002 188.1 674.818 188.117 674.654 188.117C673.412 188.117 672.791 187.463 672.791 186.154V182.334H671.871V181.865L672.791 181.461L673.201 180.09H673.764V181.578H675.627V182.334H673.764V186.113C673.764 186.5 673.855 186.797 674.039 187.004C674.223 187.211 674.475 187.314 674.795 187.314ZM677.936 188H676.963V181.578H677.936V188ZM676.881 179.838C676.881 179.615 676.936 179.453 677.045 179.352C677.154 179.246 677.291 179.193 677.455 179.193C677.611 179.193 677.746 179.246 677.859 179.352C677.973 179.457 678.029 179.619 678.029 179.838C678.029 180.057 677.973 180.221 677.859 180.33C677.746 180.436 677.611 180.488 677.455 180.488C677.291 180.488 677.154 180.436 677.045 180.33C676.936 180.221 676.881 180.057 676.881 179.838ZM685.541 184.783C685.541 185.83 685.277 186.648 684.75 187.238C684.223 187.824 683.494 188.117 682.564 188.117C681.99 188.117 681.48 187.982 681.035 187.713C680.59 187.443 680.246 187.057 680.004 186.553C679.762 186.049 679.641 185.459 679.641 184.783C679.641 183.736 679.902 182.922 680.426 182.34C680.949 181.754 681.676 181.461 682.605 181.461C683.504 181.461 684.217 181.76 684.744 182.357C685.275 182.955 685.541 183.764 685.541 184.783ZM680.648 184.783C680.648 185.604 680.812 186.229 681.141 186.658C681.469 187.088 681.951 187.303 682.588 187.303C683.225 187.303 683.707 187.09 684.035 186.664C684.367 186.234 684.533 185.607 684.533 184.783C684.533 183.967 684.367 183.348 684.035 182.926C683.707 182.5 683.221 182.287 682.576 182.287C681.939 182.287 681.459 182.496 681.135 182.914C680.811 183.332 680.648 183.955 680.648 184.783ZM691.646 188V183.846C691.646 183.322 691.527 182.932 691.289 182.674C691.051 182.416 690.678 182.287 690.17 182.287C689.498 182.287 689.006 182.469 688.693 182.832C688.381 183.195 688.225 183.795 688.225 184.631V188H687.252V181.578H688.043L688.201 182.457H688.248C688.447 182.141 688.727 181.896 689.086 181.725C689.445 181.549 689.846 181.461 690.287 181.461C691.061 181.461 691.643 181.648 692.033 182.023C692.424 182.395 692.619 182.99 692.619 183.811V188H691.646Z" fill="black"/>
<path d="M147.5 120C147.5 121.402 148.053 122.479 149.013 123.275C149.95 124.053 151.252 124.544 152.739 124.864C155.708 125.502 159.644 125.5 163.5 125.5C167.394 125.5 171.208 125.502 174.051 126.114C175.471 126.419 176.591 126.866 177.349 127.494C178.084 128.104 178.5 128.902 178.5 130L179.5 130C179.5 128.598 178.947 127.521 177.987 126.725C177.05 125.947 175.748 125.456 174.261 125.136C171.292 124.498 167.356 124.5 163.5 124.5C159.606 124.5 155.792 124.498 152.949 123.886C151.529 123.581 150.409 123.134 149.651 122.506C148.916 121.896 148.5 121.098 148.5 120L147.5 120ZM209.5 120C209.5 121.098 209.084 121.896 208.349 122.506C207.591 123.134 206.471 123.581 205.051 123.886C202.208 124.498 198.394 124.5 194.5 124.5C190.644 124.5 186.708 124.498 183.739 125.136C182.252 125.456 180.95 125.947 180.013 126.725C179.053 127.521 178.5 128.598 178.5 130L179.5 130C179.5 128.902 179.916 128.104 180.651 127.494C181.409 126.866 182.529 126.419 183.949 126.114C186.792 125.502 190.606 125.5 194.5 125.5C198.356 125.5 202.292 125.502 205.261 124.864C206.748 124.544 208.05 124.053 208.987 123.275C209.947 122.479 210.5 121.402 210.5 120L209.5 120Z" fill="black"/>
<path d="M178.35 143H172.719V142.162L174.975 139.895C175.662 139.199 176.115 138.703 176.334 138.406C176.553 138.109 176.717 137.82 176.826 137.539C176.936 137.258 176.99 136.955 176.99 136.631C176.99 136.174 176.852 135.812 176.574 135.547C176.297 135.277 175.912 135.143 175.42 135.143C175.064 135.143 174.727 135.201 174.406 135.318C174.09 135.436 173.736 135.648 173.346 135.957L172.83 135.295C173.619 134.639 174.479 134.311 175.408 134.311C176.213 134.311 176.844 134.518 177.301 134.932C177.758 135.342 177.986 135.895 177.986 136.59C177.986 137.133 177.834 137.67 177.529 138.201C177.225 138.732 176.654 139.404 175.818 140.217L173.943 142.051V142.098H178.35V143ZM185.621 141.031H184.35V143H183.418V141.031H179.252V140.182L183.318 134.387H184.35V140.146H185.621V141.031ZM183.418 140.146V137.299C183.418 136.74 183.438 136.109 183.477 135.406H183.43C183.242 135.781 183.066 136.092 182.902 136.338L180.225 140.146H183.418Z" fill="black"/>
<path d="M178.35 143H172.719V142.162L174.975 139.895C175.662 139.199 176.115 138.703 176.334 138.406C176.553 138.109 176.717 137.82 176.826 137.539C176.936 137.258 176.99 136.955 176.99 136.631C176.99 136.174 176.852 135.812 176.574 135.547C176.297 135.277 175.912 135.143 175.42 135.143C175.064 135.143 174.727 135.201 174.406 135.318C174.09 135.436 173.736 135.648 173.346 135.957L172.83 135.295C173.619 134.639 174.479 134.311 175.408 134.311C176.213 134.311 176.844 134.518 177.301 134.932C177.758 135.342 177.986 135.895 177.986 136.59C177.986 137.133 177.834 137.67 177.529 138.201C177.225 138.732 176.654 139.404 175.818 140.217L173.943 142.051V142.098H178.35V143ZM185.621 141.031H184.35V143H183.418V141.031H179.252V140.182L183.318 134.387H184.35V140.146H185.621V141.031ZM183.418 140.146V137.299C183.418 136.74 183.438 136.109 183.477 135.406H183.43C183.242 135.781 183.066 136.092 182.902 136.338L180.225 140.146H183.418Z" fill="black"/>
<path d="M178.35 143H172.719V142.162L174.975 139.895C175.662 139.199 176.115 138.703 176.334 138.406C176.553 138.109 176.717 137.82 176.826 137.539C176.936 137.258 176.99 136.955 176.99 136.631C176.99 136.174 176.852 135.812 176.574 135.547C176.297 135.277 175.912 135.143 175.42 135.143C175.064 135.143 174.727 135.201 174.406 135.318C174.09 135.436 173.736 135.648 173.346 135.957L172.83 135.295C173.619 134.639 174.479 134.311 175.408 134.311C176.213 134.311 176.844 134.518 177.301 134.932C177.758 135.342 177.986 135.895 177.986 136.59C177.986 137.133 177.834 137.67 177.529 138.201C177.225 138.732 176.654 139.404 175.818 140.217L173.943 142.051V142.098H178.35V143ZM185.621 141.031H184.35V143H183.418V141.031H179.252V140.182L183.318 134.387H184.35V140.146H185.621V141.031ZM183.418 140.146V137.299C183.418 136.74 183.438 136.109 183.477 135.406H183.43C183.242 135.781 183.066 136.092 182.902 136.338L180.225 140.146H183.418Z" fill="black"/>
<path d="M265.5 105C265.5 106.09 265.783 106.957 266.319 107.625C266.85 108.288 267.592 108.707 268.424 108.976C270.063 109.505 272.215 109.5 274.25 109.5C276.34 109.5 278.313 109.505 279.768 109.976C280.483 110.207 281.03 110.538 281.401 111C281.767 111.457 282 112.09 282 113L283 113C283 111.91 282.717 111.043 282.181 110.375C281.65 109.712 280.908 109.293 280.076 109.024C278.437 108.495 276.285 108.5 274.25 108.5C272.16 108.5 270.187 108.495 268.732 108.024C268.017 107.793 267.47 107.462 267.099 107C266.733 106.543 266.5 105.91 266.5 105L265.5 105ZM298.5 105C298.5 105.91 298.267 106.543 297.901 107C297.53 107.462 296.983 107.793 296.268 108.024C294.813 108.495 292.84 108.5 290.75 108.5C288.715 108.5 286.563 108.495 284.924 109.024C284.092 109.293 283.35 109.712 282.819 110.375C282.283 111.043 282 111.91 282 113L283 113C283 112.09 283.233 111.457 283.599 111C283.97 110.538 284.517 110.207 285.232 109.976C286.687 109.505 288.66 109.5 290.75 109.5C292.785 109.5 294.937 109.505 296.576 108.976C297.408 108.707 298.15 108.288 298.681 107.625C299.217 106.957 299.5 106.09 299.5 105L298.5 105Z" fill="black"/>
<path d="M282.488 117.311C283.27 117.311 283.889 117.492 284.346 117.855C284.803 118.219 285.031 118.721 285.031 119.361C285.031 119.783 284.9 120.168 284.639 120.516C284.377 120.863 283.959 121.18 283.385 121.465C284.08 121.797 284.574 122.146 284.867 122.514C285.16 122.877 285.307 123.299 285.307 123.779C285.307 124.49 285.059 125.059 284.562 125.484C284.066 125.906 283.387 126.117 282.523 126.117C281.609 126.117 280.906 125.918 280.414 125.52C279.922 125.117 279.676 124.549 279.676 123.814C279.676 122.834 280.273 122.07 281.469 121.523C280.93 121.219 280.543 120.891 280.309 120.539C280.074 120.184 279.957 119.787 279.957 119.35C279.957 118.729 280.186 118.234 280.643 117.867C281.104 117.496 281.719 117.311 282.488 117.311ZM280.637 123.838C280.637 124.307 280.799 124.672 281.123 124.934C281.451 125.195 281.91 125.326 282.5 125.326C283.082 125.326 283.535 125.189 283.859 124.916C284.184 124.643 284.346 124.268 284.346 123.791C284.346 123.412 284.193 123.076 283.889 122.783C283.584 122.486 283.053 122.199 282.295 121.922C281.713 122.172 281.291 122.449 281.029 122.754C280.768 123.055 280.637 123.416 280.637 123.838ZM282.477 118.102C281.988 118.102 281.605 118.219 281.328 118.453C281.051 118.688 280.912 119 280.912 119.391C280.912 119.75 281.027 120.059 281.258 120.316C281.488 120.574 281.914 120.832 282.535 121.09C283.094 120.855 283.488 120.604 283.719 120.334C283.953 120.064 284.07 119.75 284.07 119.391C284.07 118.996 283.928 118.684 283.643 118.453C283.361 118.219 282.973 118.102 282.477 118.102Z" fill="black"/>
<path d="M496.5 105C496.5 106.262 497.309 107.15 498.49 107.757C499.662 108.36 501.293 108.743 503.184 108.996C506.974 109.501 512.012 109.5 517 109.5C522.012 109.5 526.974 109.501 530.684 109.996C532.543 110.243 534.037 110.61 535.053 111.132C536.059 111.65 536.5 112.262 536.5 113L537.5 113C537.5 111.738 536.691 110.85 535.51 110.243C534.338 109.64 532.707 109.257 530.816 109.004C527.026 108.499 521.988 108.5 517 108.5C511.988 108.5 507.026 108.499 503.316 108.004C501.457 107.757 499.963 107.39 498.947 106.868C497.941 106.35 497.5 105.738 497.5 105L496.5 105ZM576.5 105C576.5 105.738 576.059 106.35 575.053 106.868C574.037 107.39 572.543 107.757 570.684 108.004C566.974 108.499 562.012 108.5 557 108.5C552.012 108.5 546.974 108.499 543.184 109.004C541.293 109.257 539.662 109.64 538.49 110.243C537.309 110.85 536.5 111.738 536.5 113L537.5 113C537.5 112.262 537.941 111.65 538.947 111.132C539.963 110.61 541.457 110.243 543.316 109.996C547.026 109.501 551.988 109.5 557 109.5C561.988 109.5 567.026 109.501 570.816 108.996C572.707 108.743 574.338 108.36 575.51 107.757C576.691 107.15 577.5 106.262 577.5 105L576.5 105Z" fill="black"/>
<path d="M492 49.5C490.847 49.5 489.957 49.9604 489.301 50.7565C488.665 51.5298 488.268 52.5969 488.011 53.8019C487.498 56.2088 487.5 59.3942 487.5 62.5C487.5 65.6442 487.498 68.7088 487.011 70.9894C486.768 72.1282 486.415 73.0142 485.926 73.6081C485.457 74.1791 484.847 74.5 484 74.5L484 75.5C485.153 75.5 486.043 75.0396 486.699 74.2435C487.335 73.4702 487.732 72.4031 487.989 71.1981C488.502 68.7912 488.5 65.6058 488.5 62.5C488.5 59.3558 488.502 56.2912 488.989 54.0106C489.232 52.8718 489.585 51.9858 490.074 51.3919C490.543 50.8209 491.153 50.5 492 50.5L492 49.5ZM492 99.5C491.153 99.5 490.543 99.1791 490.074 98.6081C489.585 98.0142 489.232 97.1282 488.989 95.9894C488.502 93.7088 488.5 90.6442 488.5 87.5C488.5 84.3942 488.502 81.2088 487.989 78.8019C487.732 77.5969 487.335 76.5298 486.699 75.7565C486.043 74.9604 485.153 74.5 484 74.5L484 75.5C484.847 75.5 485.457 75.8209 485.926 76.3919C486.415 76.9858 486.768 77.8718 487.011 79.0106C487.498 81.2912 487.5 84.3558 487.5 87.5C487.5 90.6058 487.498 93.7912 488.011 96.1981C488.268 97.4031 488.665 98.4702 489.301 99.2435C489.957 100.04 490.847 100.5 492 100.5L492 99.5Z" fill="black"/>
<path d="M534.322 126H533.373V119.895C533.373 119.387 533.389 118.906 533.42 118.453C533.338 118.535 533.246 118.621 533.145 118.711C533.043 118.801 532.578 119.182 531.75 119.854L531.234 119.186L533.502 117.434H534.322V126ZM543.264 121.705C543.264 123.186 543.029 124.291 542.561 125.021C542.096 125.752 541.383 126.117 540.422 126.117C539.5 126.117 538.799 125.744 538.318 124.998C537.838 124.248 537.598 123.15 537.598 121.705C537.598 120.213 537.83 119.105 538.295 118.383C538.76 117.66 539.469 117.299 540.422 117.299C541.352 117.299 542.057 117.676 542.537 118.43C543.021 119.184 543.264 120.275 543.264 121.705ZM538.582 121.705C538.582 122.951 538.729 123.859 539.021 124.43C539.314 124.996 539.781 125.279 540.422 125.279C541.07 125.279 541.539 124.992 541.828 124.418C542.121 123.84 542.268 122.936 542.268 121.705C542.268 120.475 542.121 119.574 541.828 119.004C541.539 118.43 541.07 118.143 540.422 118.143C539.781 118.143 539.314 118.426 539.021 118.992C538.729 119.555 538.582 120.459 538.582 121.705Z" fill="black"/>
<path d="M616.5 85C616.5 86.2624 617.309 87.1498 618.49 87.7571C619.662 88.3596 621.293 88.7435 623.184 88.9956C626.974 89.501 632.012 89.5 637 89.5C642.012 89.5 646.974 89.501 650.684 89.9956C652.543 90.2435 654.037 90.6096 655.053 91.1321C656.059 91.6498 656.5 92.2624 656.5 93L657.5 93C657.5 91.7376 656.691 90.8502 655.51 90.2429C654.338 89.6404 652.707 89.2565 650.816 89.0044C647.026 88.499 641.988 88.5 637 88.5C631.988 88.5 627.026 88.499 623.316 88.0044C621.457 87.7565 619.963 87.3904 618.947 86.8679C617.941 86.3502 617.5 85.7376 617.5 85L616.5 85ZM696.5 85C696.5 85.7376 696.059 86.3502 695.053 86.8679C694.037 87.3904 692.543 87.7565 690.684 88.0044C686.974 88.499 682.012 88.5 677 88.5C672.012 88.5 666.974 88.499 663.184 89.0044C661.293 89.2565 659.662 89.6404 658.49 90.2429C657.309 90.8502 656.5 91.7376 656.5 93L657.5 93C657.5 92.2624 657.941 91.6498 658.947 91.1321C659.963 90.6096 661.457 90.2435 663.316 89.9956C667.026 89.501 671.988 89.5 677 89.5C681.988 89.5 687.026 89.501 690.816 88.9956C692.707 88.7435 694.338 88.3596 695.51 87.7571C696.691 87.1498 697.5 86.2624 697.5 85L696.5 85Z" fill="black"/>
<path d="M654.322 106H653.373V99.8945C653.373 99.3867 653.389 98.9062 653.42 98.4531C653.338 98.5352 653.246 98.6211 653.145 98.7109C653.043 98.8008 652.578 99.1816 651.75 99.8535L651.234 99.1855L653.502 97.4336H654.322V106ZM663.264 101.705C663.264 103.186 663.029 104.291 662.561 105.021C662.096 105.752 661.383 106.117 660.422 106.117C659.5 106.117 658.799 105.744 658.318 104.998C657.838 104.248 657.598 103.15 657.598 101.705C657.598 100.213 657.83 99.1055 658.295 98.3828C658.76 97.6602 659.469 97.2988 660.422 97.2988C661.352 97.2988 662.057 97.6758 662.537 98.4297C663.021 99.1836 663.264 100.275 663.264 101.705ZM658.582 101.705C658.582 102.951 658.729 103.859 659.021 104.43C659.314 104.996 659.781 105.279 660.422 105.279C661.07 105.279 661.539 104.992 661.828 104.418C662.121 103.84 662.268 102.936 662.268 101.705C662.268 100.475 662.121 99.5742 661.828 99.0039C661.539 98.4297 661.07 98.1426 660.422 98.1426C659.781 98.1426 659.314 98.4258 659.021 98.9922C658.729 99.5547 658.582 100.459 658.582 101.705Z" fill="black"/>
<path d="M472.322 79H471.373V72.8945C471.373 72.3867 471.389 71.9062 471.42 71.4531C471.338 71.5352 471.246 71.6211 471.145 71.7109C471.043 71.8008 470.578 72.1816 469.75 72.8535L469.234 72.1855L471.502 70.4336H472.322V79ZM475.686 75.3379C475.686 73.6543 476.012 72.3965 476.664 71.5645C477.32 70.7285 478.289 70.3105 479.57 70.3105C480.012 70.3105 480.359 70.3477 480.613 70.4219V71.2598C480.312 71.1621 479.969 71.1133 479.582 71.1133C478.664 71.1133 477.963 71.4004 477.479 71.9746C476.994 72.5449 476.729 73.4434 476.682 74.6699H476.752C477.182 73.998 477.861 73.6621 478.791 73.6621C479.561 73.6621 480.166 73.8945 480.607 74.3594C481.053 74.8242 481.275 75.4551 481.275 76.252C481.275 77.1426 481.031 77.8438 480.543 78.3555C480.059 78.8633 479.402 79.1172 478.574 79.1172C477.688 79.1172 476.984 78.7852 476.465 78.1211C475.945 77.4531 475.686 76.5254 475.686 75.3379ZM478.562 78.291C479.117 78.291 479.547 78.1172 479.852 77.7695C480.16 77.418 480.314 76.9121 480.314 76.252C480.314 75.6855 480.172 75.2402 479.887 74.916C479.602 74.5918 479.176 74.4297 478.609 74.4297C478.258 74.4297 477.936 74.502 477.643 74.6465C477.35 74.791 477.115 74.9902 476.939 75.2441C476.768 75.498 476.682 75.7617 476.682 76.0352C476.682 76.4375 476.76 76.8125 476.916 77.1602C477.072 77.5078 477.293 77.7832 477.578 77.9863C477.867 78.1895 478.195 78.291 478.562 78.291Z" fill="black"/>
<path d="M406.5 140C406.5 141.115 406.853 141.995 407.501 142.661C408.135 143.313 409.013 143.721 409.996 143.983C411.948 144.504 414.523 144.5 417 144.5C419.523 144.5 421.948 144.504 423.746 144.983C424.638 145.221 425.323 145.563 425.782 146.036C426.228 146.495 426.5 147.115 426.5 148L427.5 148C427.5 146.885 427.147 146.005 426.499 145.339C425.865 144.687 424.987 144.279 424.004 144.017C422.052 143.496 419.477 143.5 417 143.5C414.477 143.5 412.052 143.496 410.254 143.017C409.362 142.779 408.677 142.437 408.218 141.964C407.772 141.505 407.5 140.885 407.5 140L406.5 140ZM446.5 140C446.5 140.885 446.228 141.505 445.782 141.964C445.323 142.437 444.638 142.779 443.746 143.017C441.948 143.496 439.523 143.5 437 143.5C434.523 143.5 431.948 143.496 429.996 144.017C429.013 144.279 428.135 144.687 427.501 145.339C426.853 146.005 426.5 146.885 426.5 148L427.5 148C427.5 147.115 427.772 146.495 428.218 146.036C428.677 145.563 429.362 145.221 430.254 144.983C432.052 144.504 434.477 144.5 437 144.5C439.477 144.5 442.052 144.504 444.004 143.983C444.987 143.721 445.865 143.313 446.499 142.661C447.147 141.995 447.5 141.115 447.5 140L446.5 140Z" fill="black"/>
<path d="M402 14.5C401.321 14.5 400.755 14.8259 400.303 15.3454C399.859 15.8542 399.506 16.5672 399.215 17.416C398.632 19.116 398.253 21.5094 398.002 24.3307C397.5 29.9828 397.5 37.5082 397.5 45C397.5 52.5082 397.5 59.9828 397.002 65.5807C396.753 68.3844 396.382 70.6785 395.84 72.2597C395.568 73.0516 395.266 73.6276 394.943 73.9977C394.63 74.3572 394.321 74.5 394 74.5L394 75.5C394.679 75.5 395.245 75.174 395.697 74.6546C396.14 74.1458 396.494 73.4328 396.785 72.584C397.368 70.884 397.747 68.4906 397.998 65.6693C398.5 60.0172 398.5 52.4918 398.5 45C398.5 37.4918 398.5 30.0172 398.998 24.4193C399.247 21.6156 399.618 19.3215 400.16 17.7403C400.432 16.9484 400.734 16.3724 401.057 16.0023C401.37 15.6428 401.679 15.5 402 15.5L402 14.5ZM402 134.5C401.679 134.5 401.37 134.357 401.057 133.998C400.734 133.628 400.432 133.052 400.16 132.26C399.618 130.679 399.247 128.384 398.998 125.581C398.5 119.983 398.5 112.508 398.5 105C398.5 97.5082 398.5 89.9828 397.998 84.3307C397.747 81.5094 397.368 79.116 396.785 77.416C396.494 76.5672 396.14 75.8542 395.697 75.3454C395.245 74.8259 394.679 74.5 394 74.5L394 75.5C394.321 75.5 394.63 75.6428 394.943 76.0022C395.266 76.3724 395.568 76.9484 395.84 77.7403C396.382 79.3215 396.753 81.6156 397.002 84.4193C397.5 90.0172 397.5 97.4918 397.5 105C397.5 112.492 397.5 120.017 398.002 125.669C398.253 128.491 398.632 130.884 399.214 132.584C399.506 133.433 399.859 134.146 400.303 134.655C400.755 135.174 401.321 135.5 402 135.5L402 134.5Z" fill="black"/>
<path d="M427.488 152.311C428.27 152.311 428.889 152.492 429.346 152.855C429.803 153.219 430.031 153.721 430.031 154.361C430.031 154.783 429.9 155.168 429.639 155.516C429.377 155.863 428.959 156.18 428.385 156.465C429.08 156.797 429.574 157.146 429.867 157.514C430.16 157.877 430.307 158.299 430.307 158.779C430.307 159.49 430.059 160.059 429.562 160.484C429.066 160.906 428.387 161.117 427.523 161.117C426.609 161.117 425.906 160.918 425.414 160.52C424.922 160.117 424.676 159.549 424.676 158.814C424.676 157.834 425.273 157.07 426.469 156.523C425.93 156.219 425.543 155.891 425.309 155.539C425.074 155.184 424.957 154.787 424.957 154.35C424.957 153.729 425.186 153.234 425.643 152.867C426.104 152.496 426.719 152.311 427.488 152.311ZM425.637 158.838C425.637 159.307 425.799 159.672 426.123 159.934C426.451 160.195 426.91 160.326 427.5 160.326C428.082 160.326 428.535 160.189 428.859 159.916C429.184 159.643 429.346 159.268 429.346 158.791C429.346 158.412 429.193 158.076 428.889 157.783C428.584 157.486 428.053 157.199 427.295 156.922C426.713 157.172 426.291 157.449 426.029 157.754C425.768 158.055 425.637 158.416 425.637 158.838ZM427.477 153.102C426.988 153.102 426.605 153.219 426.328 153.453C426.051 153.688 425.912 154 425.912 154.391C425.912 154.75 426.027 155.059 426.258 155.316C426.488 155.574 426.914 155.832 427.535 156.09C428.094 155.855 428.488 155.604 428.719 155.334C428.953 155.064 429.07 154.75 429.07 154.391C429.07 153.996 428.928 153.684 428.643 153.453C428.361 153.219 427.973 153.102 427.477 153.102Z" fill="black"/>
<path d="M370.482 79H364.852V78.1621L367.107 75.8945C367.795 75.1992 368.248 74.7031 368.467 74.4062C368.686 74.1094 368.85 73.8203 368.959 73.5391C369.068 73.2578 369.123 72.9551 369.123 72.6309C369.123 72.1738 368.984 71.8125 368.707 71.5469C368.43 71.2773 368.045 71.1426 367.553 71.1426C367.197 71.1426 366.859 71.2012 366.539 71.3184C366.223 71.4355 365.869 71.6484 365.479 71.957L364.963 71.2949C365.752 70.6387 366.611 70.3105 367.541 70.3105C368.346 70.3105 368.977 70.5176 369.434 70.9316C369.891 71.3418 370.119 71.8945 370.119 72.5898C370.119 73.1328 369.967 73.6699 369.662 74.2012C369.357 74.7324 368.787 75.4043 367.951 76.2168L366.076 78.0508V78.0977H370.482V79ZM377.396 74.7051C377.396 76.1855 377.162 77.291 376.693 78.0215C376.229 78.752 375.516 79.1172 374.555 79.1172C373.633 79.1172 372.932 78.7441 372.451 77.998C371.971 77.248 371.73 76.1504 371.73 74.7051C371.73 73.2129 371.963 72.1055 372.428 71.3828C372.893 70.6602 373.602 70.2988 374.555 70.2988C375.484 70.2988 376.189 70.6758 376.67 71.4297C377.154 72.1836 377.396 73.2754 377.396 74.7051ZM372.715 74.7051C372.715 75.9512 372.861 76.8594 373.154 77.4297C373.447 77.9961 373.914 78.2793 374.555 78.2793C375.203 78.2793 375.672 77.9922 375.961 77.418C376.254 76.8398 376.4 75.9355 376.4 74.7051C376.4 73.4746 376.254 72.5742 375.961 72.0039C375.672 71.4297 375.203 71.1426 374.555 71.1426C373.914 71.1426 373.447 71.4258 373.154 71.9922C372.861 72.5547 372.715 73.459 372.715 74.7051ZM384.621 77.0312H383.35V79H382.418V77.0312H378.252V76.1816L382.318 70.3867H383.35V76.1465H384.621V77.0312ZM382.418 76.1465V73.2988C382.418 72.7402 382.438 72.1094 382.477 71.4062H382.43C382.242 71.7812 382.066 72.0918 381.902 72.3379L379.225 76.1465H382.418ZM388.289 70.3105C389.07 70.3105 389.689 70.4922 390.146 70.8555C390.604 71.2188 390.832 71.7207 390.832 72.3613C390.832 72.7832 390.701 73.168 390.439 73.5156C390.178 73.8633 389.76 74.1797 389.186 74.4648C389.881 74.7969 390.375 75.1465 390.668 75.5137C390.961 75.877 391.107 76.2988 391.107 76.7793C391.107 77.4902 390.859 78.0586 390.363 78.4844C389.867 78.9062 389.188 79.1172 388.324 79.1172C387.41 79.1172 386.707 78.918 386.215 78.5195C385.723 78.1172 385.477 77.5488 385.477 76.8145C385.477 75.834 386.074 75.0703 387.27 74.5234C386.73 74.2188 386.344 73.8906 386.109 73.5391C385.875 73.1836 385.758 72.7871 385.758 72.3496C385.758 71.7285 385.986 71.2344 386.443 70.8672C386.904 70.4961 387.52 70.3105 388.289 70.3105ZM386.438 76.8379C386.438 77.3066 386.6 77.6719 386.924 77.9336C387.252 78.1953 387.711 78.3262 388.301 78.3262C388.883 78.3262 389.336 78.1895 389.66 77.916C389.984 77.6426 390.146 77.2676 390.146 76.791C390.146 76.4121 389.994 76.0762 389.689 75.7832C389.385 75.4863 388.854 75.1992 388.096 74.9219C387.514 75.1719 387.092 75.4492 386.83 75.7539C386.568 76.0547 386.438 76.416 386.438 76.8379ZM388.277 71.1016C387.789 71.1016 387.406 71.2188 387.129 71.4531C386.852 71.6875 386.713 72 386.713 72.3906C386.713 72.75 386.828 73.0586 387.059 73.3164C387.289 73.5742 387.715 73.832 388.336 74.0898C388.895 73.8555 389.289 73.6035 389.52 73.334C389.754 73.0645 389.871 72.75 389.871 72.3906C389.871 71.9961 389.729 71.6836 389.443 71.4531C389.162 71.2188 388.773 71.1016 388.277 71.1016Z" fill="black"/>
<path d="M8.96094 9.44922C8.96094 9.99609 8.80664 10.4434 8.49805 10.791C8.19336 11.1387 7.75977 11.3711 7.19727 11.4883V11.5352C7.88477 11.6211 8.39453 11.8398 8.72656 12.1914C9.05859 12.543 9.22461 13.0039 9.22461 13.5742C9.22461 14.3906 8.94141 15.0195 8.375 15.4609C7.80859 15.8984 7.00391 16.1172 5.96094 16.1172C5.50781 16.1172 5.0918 16.082 4.71289 16.0117C4.33789 15.9453 3.97266 15.8262 3.61719 15.6543V14.7285C3.98828 14.9121 4.38281 15.0527 4.80078 15.1504C5.22266 15.2441 5.62109 15.291 5.99609 15.291C7.47656 15.291 8.2168 14.7109 8.2168 13.5508C8.2168 12.5117 7.40039 11.9922 5.76758 11.9922H4.92383V11.1543H5.7793C6.44727 11.1543 6.97656 11.0078 7.36719 10.7148C7.75781 10.418 7.95312 10.0078 7.95312 9.48438C7.95312 9.06641 7.80859 8.73828 7.51953 8.5C7.23438 8.26172 6.8457 8.14258 6.35352 8.14258C5.97852 8.14258 5.625 8.19336 5.29297 8.29492C4.96094 8.39648 4.58203 8.58398 4.15625 8.85742L3.66406 8.20117C4.01562 7.92383 4.41992 7.70703 4.87695 7.55078C5.33789 7.39062 5.82227 7.31055 6.33008 7.31055C7.16211 7.31055 7.80859 7.50195 8.26953 7.88477C8.73047 8.26367 8.96094 8.78516 8.96094 9.44922Z" fill="black"/>
<path d="M15.33 18.0963C15.0747 17.7571 14.8021 17.5067 14.5013 17.3561C14.1912 17.2007 13.8793 17.1658 13.5808 17.2153C13.035 17.3058 12.548 17.6869 12.1962 17.9518C11.7822 18.2633 11.5034 18.4586 11.2493 18.5007C11.1479 18.5175 11.0513 18.5079 10.9403 18.4523C10.8198 18.3919 10.6584 18.2649 10.4627 18.0049L9.66374 18.6062C9.91904 18.9454 10.1917 19.1958 10.4924 19.3464C10.8026 19.5018 11.1145 19.5367 11.413 19.4872C11.9588 19.3967 12.4457 19.0156 12.7976 18.7507C13.2115 18.4392 13.4904 18.2439 13.7444 18.2018C13.8459 18.185 13.9424 18.1946 14.0535 18.2502C14.174 18.3105 14.3353 18.4376 14.531 18.6976L15.33 18.0963ZM9.20356 22.7074C9.00783 22.4473 8.93041 22.2571 8.90576 22.1246C8.88304 22.0025 8.90051 21.9071 8.94477 21.8143C9.05557 21.5818 9.32036 21.3679 9.73433 21.0563C10.0862 20.7915 10.5872 20.429 10.8252 19.9296C10.9554 19.6565 11.0081 19.3471 10.9447 19.006C10.8831 18.6753 10.718 18.3441 10.4627 18.0049L9.66374 18.6062C9.85946 18.8663 9.93688 19.0565 9.96153 19.1889C9.98425 19.3111 9.96678 19.4065 9.92253 19.4993C9.81173 19.7318 9.54694 19.9457 9.13297 20.2573C8.78113 20.5221 8.28011 20.8846 8.04206 21.384C7.91189 21.6571 7.85918 21.9665 7.92264 22.3076C7.98417 22.6383 8.14928 22.9695 8.40457 23.3087L9.20356 22.7074Z" fill="black"/>
<path d="M145.416 29H139.785V28.1621L142.041 25.8945C142.729 25.1992 143.182 24.7031 143.4 24.4062C143.619 24.1094 143.783 23.8203 143.893 23.5391C144.002 23.2578 144.057 22.9551 144.057 22.6309C144.057 22.1738 143.918 21.8125 143.641 21.5469C143.363 21.2773 142.979 21.1426 142.486 21.1426C142.131 21.1426 141.793 21.2012 141.473 21.3184C141.156 21.4355 140.803 21.6484 140.412 21.957L139.896 21.2949C140.686 20.6387 141.545 20.3105 142.475 20.3105C143.279 20.3105 143.91 20.5176 144.367 20.9316C144.824 21.3418 145.053 21.8945 145.053 22.5898C145.053 23.1328 144.9 23.6699 144.596 24.2012C144.291 24.7324 143.721 25.4043 142.885 26.2168L141.01 28.0508V28.0977H145.416V29ZM149.33 23.7676C150.232 23.7676 150.941 23.9922 151.457 24.4414C151.977 24.8867 152.236 25.498 152.236 26.2754C152.236 27.1621 151.953 27.8574 151.387 28.3613C150.824 28.8652 150.047 29.1172 149.055 29.1172C148.09 29.1172 147.354 28.9629 146.846 28.6543V27.7168C147.119 27.8926 147.459 28.0312 147.865 28.1328C148.271 28.2305 148.672 28.2793 149.066 28.2793C149.754 28.2793 150.287 28.1172 150.666 27.793C151.049 27.4688 151.24 27 151.24 26.3867C151.24 25.1914 150.508 24.5938 149.043 24.5938C148.672 24.5938 148.176 24.6504 147.555 24.7637L147.051 24.4414L147.373 20.4336H151.633V21.3301H148.205L147.988 23.9023C148.438 23.8125 148.885 23.7676 149.33 23.7676ZM153.619 25.3379C153.619 23.6543 153.945 22.3965 154.598 21.5645C155.254 20.7285 156.223 20.3105 157.504 20.3105C157.945 20.3105 158.293 20.3477 158.547 20.4219V21.2598C158.246 21.1621 157.902 21.1133 157.516 21.1133C156.598 21.1133 155.896 21.4004 155.412 21.9746C154.928 22.5449 154.662 23.4434 154.615 24.6699H154.686C155.115 23.998 155.795 23.6621 156.725 23.6621C157.494 23.6621 158.1 23.8945 158.541 24.3594C158.986 24.8242 159.209 25.4551 159.209 26.252C159.209 27.1426 158.965 27.8438 158.477 28.3555C157.992 28.8633 157.336 29.1172 156.508 29.1172C155.621 29.1172 154.918 28.7852 154.398 28.1211C153.879 27.4531 153.619 26.5254 153.619 25.3379ZM156.496 28.291C157.051 28.291 157.48 28.1172 157.785 27.7695C158.094 27.418 158.248 26.9121 158.248 26.252C158.248 25.6855 158.105 25.2402 157.82 24.916C157.535 24.5918 157.109 24.4297 156.543 24.4297C156.191 24.4297 155.869 24.502 155.576 24.6465C155.283 24.791 155.049 24.9902 154.873 25.2441C154.701 25.498 154.615 25.7617 154.615 26.0352C154.615 26.4375 154.693 26.8125 154.85 27.1602C155.006 27.5078 155.227 27.7832 155.512 27.9863C155.801 28.1895 156.129 28.291 156.496 28.291Z" fill="black"/>
<path d="M170.471 28.1885C170.046 27.6236 169.437 27.4326 168.787 27.4818C168.166 27.5289 167.48 27.7934 166.783 28.1568C165.385 28.8859 163.744 30.1229 162.152 31.3212C160.536 32.5376 158.968 33.7154 157.66 34.3978C157.003 34.7402 156.461 34.9307 156.042 34.9624C155.652 34.9919 155.409 34.8856 155.233 34.6515L154.434 35.2528C154.859 35.8177 155.468 36.0088 156.118 35.9595C156.739 35.9124 157.425 35.6479 158.122 35.2845C159.52 34.5554 161.161 33.3184 162.753 32.1201C164.369 30.9037 165.937 29.7259 167.245 29.0435C167.902 28.7011 168.444 28.5107 168.863 28.4789C169.253 28.4494 169.496 28.5558 169.672 28.7898L170.471 28.1885ZM144.805 47.5063C144.629 47.2723 144.594 47.0091 144.73 46.6424C144.877 46.2489 145.21 45.7806 145.72 45.2444C146.738 44.1757 148.304 42.9956 149.92 41.7791C151.512 40.5808 153.155 39.3463 154.242 38.2044C154.784 37.6354 155.229 37.0494 155.446 36.4653C155.673 35.8543 155.658 35.2164 155.233 34.6515L154.434 35.2528C154.61 35.4869 154.645 35.7501 154.508 36.1167C154.362 36.5103 154.029 36.9785 153.518 37.5147C152.5 38.5835 150.935 39.7636 149.319 40.9801C147.727 42.1784 146.084 43.4129 144.996 44.5547C144.454 45.1238 144.01 45.7098 143.793 46.2939C143.566 46.9049 143.581 47.5428 144.006 48.1077L144.805 47.5063Z" fill="black"/>
<path d="M263.416 44H257.785V43.1621L260.041 40.8945C260.729 40.1992 261.182 39.7031 261.4 39.4062C261.619 39.1094 261.783 38.8203 261.893 38.5391C262.002 38.2578 262.057 37.9551 262.057 37.6309C262.057 37.1738 261.918 36.8125 261.641 36.5469C261.363 36.2773 260.979 36.1426 260.486 36.1426C260.131 36.1426 259.793 36.2012 259.473 36.3184C259.156 36.4355 258.803 36.6484 258.412 36.957L257.896 36.2949C258.686 35.6387 259.545 35.3105 260.475 35.3105C261.279 35.3105 261.91 35.5176 262.367 35.9316C262.824 36.3418 263.053 36.8945 263.053 37.5898C263.053 38.1328 262.9 38.6699 262.596 39.2012C262.291 39.7324 261.721 40.4043 260.885 41.2168L259.01 43.0508V43.0977H263.416V44ZM267.33 38.7676C268.232 38.7676 268.941 38.9922 269.457 39.4414C269.977 39.8867 270.236 40.498 270.236 41.2754C270.236 42.1621 269.953 42.8574 269.387 43.3613C268.824 43.8652 268.047 44.1172 267.055 44.1172C266.09 44.1172 265.354 43.9629 264.846 43.6543V42.7168C265.119 42.8926 265.459 43.0312 265.865 43.1328C266.271 43.2305 266.672 43.2793 267.066 43.2793C267.754 43.2793 268.287 43.1172 268.666 42.793C269.049 42.4688 269.24 42 269.24 41.3867C269.24 40.1914 268.508 39.5938 267.043 39.5938C266.672 39.5938 266.176 39.6504 265.555 39.7637L265.051 39.4414L265.373 35.4336H269.633V36.3301H266.205L265.988 38.9023C266.438 38.8125 266.885 38.7676 267.33 38.7676ZM271.619 40.3379C271.619 38.6543 271.945 37.3965 272.598 36.5645C273.254 35.7285 274.223 35.3105 275.504 35.3105C275.945 35.3105 276.293 35.3477 276.547 35.4219V36.2598C276.246 36.1621 275.902 36.1133 275.516 36.1133C274.598 36.1133 273.896 36.4004 273.412 36.9746C272.928 37.5449 272.662 38.4434 272.615 39.6699H272.686C273.115 38.998 273.795 38.6621 274.725 38.6621C275.494 38.6621 276.1 38.8945 276.541 39.3594C276.986 39.8242 277.209 40.4551 277.209 41.252C277.209 42.1426 276.965 42.8438 276.477 43.3555C275.992 43.8633 275.336 44.1172 274.508 44.1172C273.621 44.1172 272.918 43.7852 272.398 43.1211C271.879 42.4531 271.619 41.5254 271.619 40.3379ZM274.496 43.291C275.051 43.291 275.48 43.1172 275.785 42.7695C276.094 42.418 276.248 41.9121 276.248 41.252C276.248 40.6855 276.105 40.2402 275.82 39.916C275.535 39.5918 275.109 39.4297 274.543 39.4297C274.191 39.4297 273.869 39.502 273.576 39.6465C273.283 39.791 273.049 39.9902 272.873 40.2441C272.701 40.498 272.615 40.7617 272.615 41.0352C272.615 41.4375 272.693 41.8125 272.85 42.1602C273.006 42.5078 273.227 42.7832 273.512 42.9863C273.801 43.1895 274.129 43.291 274.496 43.291Z" fill="black"/>
<path d="M288.471 43.1885C288.046 42.6236 287.437 42.4326 286.787 42.4818C286.166 42.5289 285.48 42.7934 284.783 43.1568C283.385 43.8859 281.744 45.1229 280.152 46.3212C278.536 47.5376 276.968 48.7154 275.66 49.3978C275.003 49.7402 274.461 49.9307 274.042 49.9624C273.652 49.9919 273.409 49.8856 273.233 49.6515L272.434 50.2528C272.859 50.8177 273.468 51.0088 274.118 50.9595C274.739 50.9124 275.425 50.6479 276.122 50.2845C277.52 49.5554 279.161 48.3184 280.753 47.1201C282.369 45.9037 283.937 44.7259 285.245 44.0435C285.902 43.7011 286.444 43.5107 286.863 43.4789C287.253 43.4494 287.496 43.5558 287.672 43.7898L288.471 43.1885ZM262.805 62.5063C262.629 62.2723 262.594 62.0091 262.73 61.6424C262.877 61.2489 263.21 60.7806 263.72 60.2444C264.738 59.1757 266.304 57.9956 267.92 56.7791C269.512 55.5808 271.155 54.3463 272.242 53.2044C272.784 52.6354 273.229 52.0494 273.446 51.4653C273.673 50.8543 273.658 50.2164 273.233 49.6515L272.434 50.2528C272.61 50.4869 272.645 50.7501 272.508 51.1167C272.362 51.5103 272.029 51.9785 271.518 52.5147C270.5 53.5835 268.935 54.7636 267.319 55.9801C265.727 57.1784 264.084 58.4129 262.996 59.5547C262.454 60.1238 262.01 60.7098 261.793 61.2939C261.566 61.9049 261.581 62.5428 262.006 63.1077L262.805 62.5063Z" fill="black"/>
<path d="M12 26.4366L17.8889 22L118 22V122.563L112.111 127H12V26.4366Z" fill="white"/>
<path d="M12 26.4366L17.8889 22L118 22M12 26.4366H112.111M12 26.4366V127H112.111M118 22L112.111 26.4366M118 22V122.563L112.111 127M112.111 26.4366V127" stroke="black" stroke-width="2"/>
<path d="M93 106H65V78L69 75H97V103L93 106Z" fill="#8BCDF2"/>
<path d="M65 78V106H93M65 78L69 75H97M65 78H93M93 78V106M93 78L97 75M93 106L97 103V75" stroke="#32ACF1"/>
<path d="M164 104V96H156V104H164Z" fill="#8BCDF2" stroke="#32ACF1"/>
<path d="M74.416 91.0898C74.416 94.4414 73.1191 96.1172 70.5254 96.1172C70.0723 96.1172 69.7129 96.0781 69.4473 96V95.1621C69.7598 95.2637 70.1152 95.3145 70.5137 95.3145C71.4512 95.3145 72.1582 95.0254 72.6348 94.4473C73.1152 93.8652 73.377 92.9746 73.4199 91.7754H73.3496C73.1348 92.0996 72.8496 92.3477 72.4941 92.5195C72.1387 92.6875 71.7383 92.7715 71.293 92.7715C70.5352 92.7715 69.9336 92.5449 69.4883 92.0918C69.043 91.6387 68.8203 91.0059 68.8203 90.1934C68.8203 89.3027 69.0684 88.5996 69.5645 88.084C70.0645 87.5684 70.7207 87.3105 71.5332 87.3105C72.1152 87.3105 72.623 87.4609 73.0566 87.7617C73.4941 88.0586 73.8301 88.4941 74.0645 89.0684C74.2988 89.6387 74.416 90.3125 74.416 91.0898ZM71.5332 88.1426C70.9746 88.1426 70.543 88.3223 70.2383 88.6816C69.9336 89.041 69.7812 89.541 69.7812 90.1816C69.7812 90.7441 69.9219 91.1875 70.2031 91.5117C70.4844 91.832 70.9121 91.9922 71.4863 91.9922C71.8418 91.9922 72.168 91.9199 72.4648 91.7754C72.7656 91.6309 73.002 91.4336 73.1738 91.1836C73.3457 90.9336 73.4316 90.6719 73.4316 90.3984C73.4316 89.9883 73.3516 89.6094 73.1914 89.2617C73.0312 88.9141 72.8066 88.6406 72.5176 88.4414C72.2324 88.2422 71.9043 88.1426 71.5332 88.1426ZM80.5742 89.1094L81.1367 89.6895L79.0742 91.7637L81.125 93.8262L80.5625 94.4062L78.4883 92.3496L76.4492 94.4062L75.8574 93.8262L77.9082 91.7637L75.8457 89.7012L76.4316 89.1094L78.5 91.1895L80.5742 89.1094ZM88.1504 91.0898C88.1504 94.4414 86.8535 96.1172 84.2598 96.1172C83.8066 96.1172 83.4473 96.0781 83.1816 96V95.1621C83.4941 95.2637 83.8496 95.3145 84.248 95.3145C85.1855 95.3145 85.8926 95.0254 86.3691 94.4473C86.8496 93.8652 87.1113 92.9746 87.1543 91.7754H87.084C86.8691 92.0996 86.584 92.3477 86.2285 92.5195C85.873 92.6875 85.4727 92.7715 85.0273 92.7715C84.2695 92.7715 83.668 92.5449 83.2227 92.0918C82.7773 91.6387 82.5547 91.0059 82.5547 90.1934C82.5547 89.3027 82.8027 88.5996 83.2988 88.084C83.7988 87.5684 84.4551 87.3105 85.2676 87.3105C85.8496 87.3105 86.3574 87.4609 86.791 87.7617C87.2285 88.0586 87.5645 88.4941 87.7988 89.0684C88.0332 89.6387 88.1504 90.3125 88.1504 91.0898ZM85.2676 88.1426C84.709 88.1426 84.2773 88.3223 83.9727 88.6816C83.668 89.041 83.5156 89.541 83.5156 90.1816C83.5156 90.7441 83.6562 91.1875 83.9375 91.5117C84.2188 91.832 84.6465 91.9922 85.2207 91.9922C85.5762 91.9922 85.9023 91.9199 86.1992 91.7754C86.5 91.6309 86.7363 91.4336 86.9082 91.1836C87.0801 90.9336 87.166 90.6719 87.166 90.3984C87.166 89.9883 87.0859 89.6094 86.9258 89.2617C86.7656 88.9141 86.541 88.6406 86.252 88.4414C85.9668 88.2422 85.6387 88.1426 85.2676 88.1426Z" fill="black"/>
<line x1="159.881" y1="96.3558" x2="96.8814" y2="75.3558" stroke="black" stroke-width="0.75" stroke-dasharray="2 3"/>
<line x1="92.9888" y1="105.625" x2="159.989" y2="103.625" stroke="black" stroke-width="0.75" stroke-dasharray="2 3"/>
<path d="M266 66L291 47H324V81L300 100H266V66Z" fill="white"/>
<path d="M266 66L291 47H324M266 66H300M266 66V100H300M324 47L300 66M324 47V81L300 100M300 66V100" stroke="black" stroke-width="2"/>
<line x1="496.785" y1="50.3072" x2="446.785" y2="15.3072" stroke="black" stroke-width="0.75" stroke-dasharray="2 3"/>
<line x1="446.785" y1="134.693" x2="496.785" y2="99.6928" stroke="black" stroke-width="0.75" stroke-dasharray="2 3"/>
<rect x="497" y="50" width="80" height="50" fill="white" stroke="#32ACF1" stroke-width="2"/>
<rect x="617" y="70" width="80" height="10" fill="white" stroke="black" stroke-width="2"/>
<rect x="407" y="15" width="40" height="120" fill="white" stroke="#32ACF1" stroke-width="2"/>
<path d="M354.354 75.3536C354.549 75.1583 354.549 74.8417 354.354 74.6464L351.172 71.4645C350.976 71.2692 350.66 71.2692 350.464 71.4645C350.269 71.6597 350.269 71.9763 350.464 72.1716L353.293 75L350.464 77.8284C350.269 78.0237 350.269 78.3403 350.464 78.5355C350.66 78.7308 350.976 78.7308 351.172 78.5355L354.354 75.3536ZM334 75.5H354V74.5H334V75.5Z" fill="black"/>
<path d="M607.354 75.3536C607.549 75.1583 607.549 74.8417 607.354 74.6464L604.172 71.4645C603.976 71.2692 603.66 71.2692 603.464 71.4645C603.269 71.6597 603.269 71.9763 603.464 72.1716L606.293 75L603.464 77.8284C603.269 78.0237 603.269 78.3403 603.464 78.5355C603.66 78.7308 603.976 78.7308 604.172 78.5355L607.354 75.3536ZM587 75.5H607V74.5H587V75.5Z" fill="black"/>
<path d="M485 11.9727V11.1699H490.449V11.9727H485ZM485 14.3691V13.5664H490.449V14.3691H485ZM498.402 19.2148H495.477V7.00586H498.402V7.64844H496.146V18.5654H498.402V19.2148ZM502.18 8.31055C502.961 8.31055 503.58 8.49219 504.037 8.85547C504.494 9.21875 504.723 9.7207 504.723 10.3613C504.723 10.7832 504.592 11.168 504.33 11.5156C504.068 11.8633 503.65 12.1797 503.076 12.4648C503.771 12.7969 504.266 13.1465 504.559 13.5137C504.852 13.877 504.998 14.2988 504.998 14.7793C504.998 15.4902 504.75 16.0586 504.254 16.4844C503.758 16.9062 503.078 17.1172 502.215 17.1172C501.301 17.1172 500.598 16.918 500.105 16.5195C499.613 16.1172 499.367 15.5488 499.367 14.8145C499.367 13.834 499.965 13.0703 501.16 12.5234C500.621 12.2188 500.234 11.8906 500 11.5391C499.766 11.1836 499.648 10.7871 499.648 10.3496C499.648 9.72852 499.877 9.23438 500.334 8.86719C500.795 8.49609 501.41 8.31055 502.18 8.31055ZM500.328 14.8379C500.328 15.3066 500.49 15.6719 500.814 15.9336C501.143 16.1953 501.602 16.3262 502.191 16.3262C502.773 16.3262 503.227 16.1895 503.551 15.916C503.875 15.6426 504.037 15.2676 504.037 14.791C504.037 14.4121 503.885 14.0762 503.58 13.7832C503.275 13.4863 502.744 13.1992 501.986 12.9219C501.404 13.1719 500.982 13.4492 500.721 13.7539C500.459 14.0547 500.328 14.416 500.328 14.8379ZM502.168 9.10156C501.68 9.10156 501.297 9.21875 501.02 9.45312C500.742 9.6875 500.604 10 500.604 10.3906C500.604 10.75 500.719 11.0586 500.949 11.3164C501.18 11.5742 501.605 11.832 502.227 12.0898C502.785 11.8555 503.18 11.6035 503.41 11.334C503.645 11.0645 503.762 10.75 503.762 10.3906C503.762 9.99609 503.619 9.68359 503.334 9.45312C503.053 9.21875 502.664 9.10156 502.168 9.10156ZM511.133 10.1094L511.695 10.6895L509.633 12.7637L511.684 14.8262L511.121 15.4062L509.047 13.3496L507.008 15.4062L506.416 14.8262L508.467 12.7637L506.404 10.7012L506.99 10.1094L509.059 12.1895L511.133 10.1094ZM516.682 17H515.732V10.8945C515.732 10.3867 515.748 9.90625 515.779 9.45312C515.697 9.53516 515.605 9.62109 515.504 9.71094C515.402 9.80078 514.938 10.1816 514.109 10.8535L513.594 10.1855L515.861 8.43359H516.682V17ZM520.045 13.3379C520.045 11.6543 520.371 10.3965 521.023 9.56445C521.68 8.72852 522.648 8.31055 523.93 8.31055C524.371 8.31055 524.719 8.34766 524.973 8.42188V9.25977C524.672 9.16211 524.328 9.11328 523.941 9.11328C523.023 9.11328 522.322 9.40039 521.838 9.97461C521.354 10.5449 521.088 11.4434 521.041 12.6699H521.111C521.541 11.998 522.221 11.6621 523.15 11.6621C523.92 11.6621 524.525 11.8945 524.967 12.3594C525.412 12.8242 525.635 13.4551 525.635 14.252C525.635 15.1426 525.391 15.8438 524.902 16.3555C524.418 16.8633 523.762 17.1172 522.934 17.1172C522.047 17.1172 521.344 16.7852 520.824 16.1211C520.305 15.4531 520.045 14.5254 520.045 13.3379ZM522.922 16.291C523.477 16.291 523.906 16.1172 524.211 15.7695C524.52 15.418 524.674 14.9121 524.674 14.252C524.674 13.6855 524.531 13.2402 524.246 12.916C523.961 12.5918 523.535 12.4297 522.969 12.4297C522.617 12.4297 522.295 12.502 522.002 12.6465C521.709 12.791 521.475 12.9902 521.299 13.2441C521.127 13.498 521.041 13.7617 521.041 14.0352C521.041 14.4375 521.119 14.8125 521.275 15.1602C521.432 15.5078 521.652 15.7832 521.938 15.9863C522.227 16.1895 522.555 16.291 522.922 16.291ZM526.575 18.5654H528.831V7.64844H526.575V7.00586H529.501V19.2148H526.575V18.5654Z" fill="black"/>
<path d="M470.549 8.88647C470.641 8.64829 470.668 8.56892 471.779 8.56892V8C471.118 8.02648 471.091 8.02648 470.337 8.02648C469.953 8.02648 468.987 8.02648 468.67 8V8.56892C468.829 8.56892 469.993 8.56892 469.993 8.75414C469.993 8.76738 469.993 8.79386 469.94 8.91294L467.717 14.814L465.349 8.56892H466.606V8C466.182 8.02648 464.952 8.02648 464.449 8.02648C464.039 8.02648 462.756 8.02648 462.438 8V8.56892H463.549L464.092 9.99788L462.279 14.814L459.924 8.56892H461.168V8C460.784 8.02648 459.487 8.02648 459.011 8.02648C458.588 8.02648 457.331 8.02648 457 8V8.56892H458.111L461.26 16.8781C461.34 17.103 461.38 17.1956 461.671 17.1956C461.962 17.1956 462.001 17.103 462.081 16.8913L464.383 10.7917L466.698 16.8913C466.778 17.103 466.817 17.1956 467.109 17.1956C467.36 17.1956 467.426 17.1427 467.519 16.8913L470.549 8.88647Z" fill="black"/>
<path d="M475.148 18.1728C475.148 18.1176 475.104 18.0735 475.038 18.0735C474.938 18.0735 474.927 18.1066 474.872 18.2941C474.585 19.2978 474.133 19.6397 473.769 19.6397C473.637 19.6397 473.482 19.6066 473.482 19.2757C473.482 18.9779 473.615 18.647 473.736 18.3162L474.508 16.2647C474.541 16.1764 474.619 15.9779 474.619 15.7683C474.619 15.3051 474.288 14.886 473.747 14.886C472.732 14.886 472.324 16.4853 472.324 16.5735C472.324 16.6176 472.369 16.6728 472.446 16.6728C472.545 16.6728 472.556 16.6286 472.6 16.4742C472.865 15.5478 473.284 15.1066 473.714 15.1066C473.813 15.1066 474.001 15.1176 474.001 15.4705C474.001 15.7573 473.858 16.1213 473.769 16.3639L472.997 18.4154C472.931 18.5919 472.865 18.7684 472.865 18.9669C472.865 19.4632 473.207 19.8603 473.736 19.8603C474.751 19.8603 475.148 18.25 475.148 18.1728ZM475.06 12.8676C475.06 12.7021 474.927 12.5036 474.685 12.5036C474.431 12.5036 474.144 12.7463 474.144 13.033C474.144 13.3088 474.376 13.397 474.508 13.397C474.806 13.397 475.06 13.1103 475.06 12.8676Z" fill="black"/>
<path d="M479.557 16.2536C479.601 16.0772 479.601 15.9228 479.601 15.8786C479.601 15.2389 479.127 14.886 478.631 14.886C477.517 14.886 476.921 16.4963 476.921 16.5735C476.921 16.6286 476.965 16.6728 477.031 16.6728C477.12 16.6728 477.131 16.6286 477.186 16.5183C477.627 15.4485 478.179 15.1066 478.598 15.1066C478.829 15.1066 478.951 15.2279 478.951 15.6139C478.951 15.8786 478.918 15.9889 478.873 16.1875L477.826 20.3456C477.616 21.1618 477.098 21.7794 476.491 21.7794C476.447 21.7794 476.215 21.7794 476.006 21.6691C476.27 21.614 476.48 21.4044 476.48 21.1397C476.48 20.9632 476.348 20.7868 476.105 20.7868C475.818 20.7868 475.554 21.0294 475.554 21.3603C475.554 21.8125 476.039 22 476.491 22C477.252 22 478.256 21.4375 478.531 20.3345L479.557 16.2536ZM480.009 12.8676C480.009 12.5918 479.778 12.5036 479.645 12.5036C479.348 12.5036 479.094 12.7904 479.094 13.033C479.094 13.1985 479.226 13.397 479.469 13.397C479.723 13.397 480.009 13.1543 480.009 12.8676Z" fill="black"/>
<path d="M200 93H172V65L198 46H226V74L200 93Z" fill="#8BCDF2"/>
<path d="M172 65V93H200M172 65L198 46H226M172 65H200M200 65V93M200 65L226 46M200 93L226 74V46" stroke="#32ACF1"/>
<path d="M148 52.5238L173.882 33H236M148 52.5238H210.118M148 52.5238V115H210.118M236 33L210.118 52.5238M236 33V95.4762L210.118 115M210.118 52.5238V115" stroke="black" stroke-width="2"/>
<path d="M284 91V83H276V91H284Z" fill="#8BCDF2" stroke="#32ACF1"/>
<path d="M181.416 78.0898C181.416 81.4414 180.119 83.1172 177.525 83.1172C177.072 83.1172 176.713 83.0781 176.447 83V82.1621C176.76 82.2637 177.115 82.3145 177.514 82.3145C178.451 82.3145 179.158 82.0254 179.635 81.4473C180.115 80.8652 180.377 79.9746 180.42 78.7754H180.35C180.135 79.0996 179.85 79.3477 179.494 79.5195C179.139 79.6875 178.738 79.7715 178.293 79.7715C177.535 79.7715 176.934 79.5449 176.488 79.0918C176.043 78.6387 175.82 78.0059 175.82 77.1934C175.82 76.3027 176.068 75.5996 176.564 75.084C177.064 74.5684 177.721 74.3105 178.533 74.3105C179.115 74.3105 179.623 74.4609 180.057 74.7617C180.494 75.0586 180.83 75.4941 181.064 76.0684C181.299 76.6387 181.416 77.3125 181.416 78.0898ZM178.533 75.1426C177.975 75.1426 177.543 75.3223 177.238 75.6816C176.934 76.041 176.781 76.541 176.781 77.1816C176.781 77.7441 176.922 78.1875 177.203 78.5117C177.484 78.832 177.912 78.9922 178.486 78.9922C178.842 78.9922 179.168 78.9199 179.465 78.7754C179.766 78.6309 180.002 78.4336 180.174 78.1836C180.346 77.9336 180.432 77.6719 180.432 77.3984C180.432 76.9883 180.352 76.6094 180.191 76.2617C180.031 75.9141 179.807 75.6406 179.518 75.4414C179.232 75.2422 178.904 75.1426 178.533 75.1426ZM187.574 76.1094L188.137 76.6895L186.074 78.7637L188.125 80.8262L187.562 81.4062L185.488 79.3496L183.449 81.4062L182.857 80.8262L184.908 78.7637L182.846 76.7012L183.432 76.1094L185.5 78.1895L187.574 76.1094ZM195.15 78.0898C195.15 81.4414 193.854 83.1172 191.26 83.1172C190.807 83.1172 190.447 83.0781 190.182 83V82.1621C190.494 82.2637 190.85 82.3145 191.248 82.3145C192.186 82.3145 192.893 82.0254 193.369 81.4473C193.85 80.8652 194.111 79.9746 194.154 78.7754H194.084C193.869 79.0996 193.584 79.3477 193.229 79.5195C192.873 79.6875 192.473 79.7715 192.027 79.7715C191.27 79.7715 190.668 79.5449 190.223 79.0918C189.777 78.6387 189.555 78.0059 189.555 77.1934C189.555 76.3027 189.803 75.5996 190.299 75.084C190.799 74.5684 191.455 74.3105 192.268 74.3105C192.85 74.3105 193.357 74.4609 193.791 74.7617C194.229 75.0586 194.564 75.4941 194.799 76.0684C195.033 76.6387 195.15 77.3125 195.15 78.0898ZM192.268 75.1426C191.709 75.1426 191.277 75.3223 190.973 75.6816C190.668 76.041 190.516 76.541 190.516 77.1816C190.516 77.7441 190.656 78.1875 190.938 78.5117C191.219 78.832 191.646 78.9922 192.221 78.9922C192.576 78.9922 192.902 78.9199 193.199 78.7754C193.5 78.6309 193.736 78.4336 193.908 78.1836C194.08 77.9336 194.166 77.6719 194.166 77.3984C194.166 76.9883 194.086 76.6094 193.926 76.2617C193.766 75.9141 193.541 75.6406 193.252 75.4414C192.967 75.2422 192.639 75.1426 192.268 75.1426Z" fill="black"/>
<line x1="279.788" y1="83.3093" x2="225.788" y2="46.3094" stroke="black" stroke-width="0.75" stroke-dasharray="2 3"/>
<line x1="199.991" y1="92.6251" x2="279.991" y2="90.6251" stroke="black" stroke-width="0.75" stroke-dasharray="2 3"/>
</svg>
