<svg width="791" height="231" viewBox="0 0 791 231" fill="none" xmlns="http://www.w3.org/2000/svg">
<path d="M20 38.5C19.1882 38.5 18.5116 38.9039 17.9663 39.5549C17.4296 40.1957 16.995 41.1015 16.6345 42.195C15.9124 44.3855 15.44 47.4803 15.1268 51.1449C14.4996 58.4835 14.5 68.2579 14.5 78C14.5 87.7579 14.4996 97.4835 13.8768 104.77C13.565 108.418 13.0999 111.417 12.4158 113.492C12.0732 114.531 11.6874 115.301 11.2671 115.803C10.8554 116.294 10.4382 116.5 10 116.5L10 117.5C10.8119 117.5 11.4884 117.096 12.0337 116.445C12.5704 115.804 13.005 114.899 13.3655 113.805C14.0876 111.615 14.56 108.52 14.8732 104.855C15.5004 97.5165 15.5 87.7421 15.5 78C15.5 68.2421 15.5004 58.5165 16.1232 51.2301C16.435 47.5822 16.9001 44.5833 17.5842 42.5081C17.9268 41.4689 18.3126 40.6988 18.7329 40.197C19.1446 39.7055 19.5618 39.5 20 39.5V38.5ZM20 194.5C19.5618 194.5 19.1446 194.294 18.7329 193.803C18.3126 193.301 17.9268 192.531 17.5842 191.492C16.9001 189.417 16.435 186.418 16.1232 182.77C15.5004 175.483 15.5 165.758 15.5 156C15.5 146.258 15.5004 136.483 14.8732 129.145C14.56 125.48 14.0876 122.385 13.3655 120.195C13.005 119.101 12.5704 118.196 12.0337 117.555C11.4884 116.904 10.8118 116.5 10 116.5L10 117.5C10.4382 117.5 10.8554 117.706 11.2671 118.197C11.6874 118.699 12.0732 119.469 12.4158 120.508C13.0999 122.583 13.565 125.582 13.8768 129.23C14.4996 136.517 14.5 146.242 14.5 156C14.5 165.742 14.4996 175.517 15.1268 182.855C15.44 186.52 15.9124 189.615 16.6345 191.805C16.995 192.899 17.4296 193.804 17.9663 194.445C18.5116 195.096 19.1882 195.5 20 195.5V194.5Z" fill="black"/>
<path d="M5 120.477C5 120.394 4.92187 120.328 4.80469 120.328C4.6289 120.328 4.60938 120.378 4.51172 120.658C4.00391 122.159 3.20313 122.67 2.55859 122.67C2.32422 122.67 2.05078 122.621 2.05078 122.126C2.05078 121.681 2.28516 121.186 2.5 120.691L3.86719 117.624C3.92578 117.492 4.0625 117.195 4.0625 116.882C4.0625 116.189 3.47656 115.562 2.51953 115.562C0.722655 115.562 0 117.954 0 118.085C0 118.151 0.0781256 118.234 0.214844 118.234C0.390624 118.234 0.410158 118.168 0.488284 117.937C0.957034 116.552 1.69921 115.892 2.46094 115.892C2.63672 115.892 2.96875 115.909 2.96875 116.436C2.96875 116.865 2.71484 117.409 2.55859 117.772L1.19141 120.84C1.07422 121.103 0.957034 121.367 0.957034 121.664C0.957034 122.406 1.5625 123 2.5 123C4.29687 123 5 120.592 5 120.477ZM4.84375 112.544C4.84375 112.297 4.60938 112 4.17969 112C3.73047 112 3.22265 112.363 3.22265 112.792C3.22265 113.204 3.63281 113.336 3.86719 113.336C4.39453 113.336 4.84375 112.907 4.84375 112.544Z" fill="black"/>
<path d="M180.5 29C180.5 28.196 180.115 27.5208 179.486 26.9726C178.868 26.4337 177.993 25.9977 176.94 25.6364C174.829 24.9129 171.85 24.4403 168.326 24.127C161.267 23.4996 151.867 23.5 142.5 23.5C133.117 23.5 123.767 23.4996 116.763 22.877C113.256 22.5652 110.376 22.1004 108.385 21.4176C107.388 21.0758 106.651 20.6915 106.171 20.2734C105.701 19.8646 105.5 19.446 105.5 19L104.5 19C104.5 19.804 104.885 20.4792 105.514 21.0274C106.132 21.5663 107.007 22.0023 108.06 22.3636C110.171 23.0871 113.15 23.5597 116.674 23.873C123.733 24.5004 133.133 24.5 142.5 24.5C151.883 24.5 161.233 24.5004 168.237 25.123C171.744 25.4347 174.624 25.8996 176.615 26.5823C177.612 26.9242 178.349 27.3085 178.829 27.7266C179.299 28.1354 179.5 28.554 179.5 29L180.5 29ZM30.5 29C30.5 28.554 30.7014 28.1354 31.1707 27.7266C31.6507 27.3085 32.3879 26.9241 33.3848 26.5823C35.3762 25.8996 38.2562 25.4347 41.763 25.123C48.7672 24.5004 58.1168 24.5 67.5 24.5C76.8668 24.5 86.2672 24.5004 93.3255 23.873C96.85 23.5597 99.8293 23.0871 101.94 22.3636C102.993 22.0023 103.868 21.5663 104.486 21.0274C105.115 20.4792 105.5 19.804 105.5 19L104.5 19C104.5 19.446 104.299 19.8646 103.829 20.2734C103.349 20.6915 102.612 21.0758 101.615 21.4176C99.6238 22.1004 96.7438 22.5652 93.237 22.877C86.2328 23.4996 76.8832 23.5 67.5 23.5C58.1332 23.5 48.7328 23.4996 41.6745 24.127C38.15 24.4402 35.1707 24.9129 33.0605 25.6364C32.0066 25.9977 31.1325 26.4337 30.5139 26.9726C29.8845 27.5208 29.5 28.196 29.5 29L30.5 29Z" fill="black"/>
<path d="M111.039 12.5562C111.039 12.4886 110.985 12.4346 110.904 12.4346C110.782 12.4346 110.769 12.4751 110.701 12.7048C110.35 13.9343 109.796 14.3531 109.35 14.3531C109.188 14.3531 108.999 14.3126 108.999 13.9073C108.999 13.5425 109.161 13.1372 109.31 12.7318L110.256 10.2188C110.296 10.1107 110.391 9.86755 110.391 9.61084C110.391 9.04339 109.985 8.52998 109.323 8.52998C108.08 8.52998 107.58 10.489 107.58 10.5971C107.58 10.6512 107.634 10.7187 107.729 10.7187C107.851 10.7187 107.864 10.6647 107.918 10.4755C108.242 9.34063 108.756 8.8002 109.283 8.8002C109.404 8.8002 109.634 8.8137 109.634 9.24605C109.634 9.59733 109.458 10.0432 109.35 10.3404L108.405 12.8534C108.323 13.0696 108.242 13.2858 108.242 13.529C108.242 14.137 108.661 14.6233 109.31 14.6233C110.553 14.6233 111.039 12.6508 111.039 12.5562ZM110.931 6.05751C110.931 5.85481 110.769 5.61163 110.472 5.61163C110.161 5.61163 109.81 5.90889 109.81 6.26015C109.81 6.59794 110.093 6.70603 110.256 6.70603C110.62 6.70603 110.931 6.35477 110.931 6.05751Z" fill="black"/>
<path d="M106.504 0.405208C106.52 0.340344 106.553 0.243112 106.553 0.162097C106.553 9.74355e-09 106.391 0 106.358 0C106.342 0 105.548 0.064799 105.467 0.0810152C105.191 0.0972314 104.948 0.129665 104.656 0.145881C104.251 0.178248 104.138 0.194464 104.138 0.486225C104.138 0.648321 104.268 0.648321 104.494 0.648321C105.289 0.648321 105.305 0.794201 105.305 0.956232C105.305 1.05346 105.272 1.18313 105.256 1.23178L104.268 5.17025C104.089 4.74885 103.652 4.10054 102.809 4.10054C100.977 4.10054 99 6.46688 99 8.86562C99 10.4702 99.94 11.4102 101.042 11.4102C101.934 11.4102 102.695 10.7133 103.149 10.1784C103.311 11.1347 104.073 11.4102 104.559 11.4102C105.045 11.4102 105.434 11.1185 105.726 10.535C105.986 9.98395 106.212 8.99528 106.212 8.93045C106.212 8.84941 106.148 8.78458 106.05 8.78458C105.905 8.78458 105.888 8.86562 105.823 9.10874C105.58 10.065 105.272 11.0861 104.608 11.0861C104.138 11.0861 104.105 10.6647 104.105 10.3405C104.105 10.2757 104.105 9.93533 104.219 9.48151L106.504 0.405208ZM103.23 9.31943C103.149 9.59497 103.149 9.62738 102.922 9.93533C102.566 10.3891 101.853 11.0861 101.091 11.0861C100.426 11.0861 100.054 10.4864 100.054 9.53013C100.054 8.63871 100.556 6.82344 100.864 6.14272C101.415 5.00818 102.177 4.42473 102.809 4.42473C103.879 4.42473 104.089 5.75374 104.089 5.8834C104.089 5.8996 104.041 6.1103 104.024 6.14272L103.23 9.31943Z" fill="black"/>
<rect x="30" y="39" width="150" height="24" fill="white" stroke="#32ACF1" stroke-width="2"/>
<rect x="30" y="73" width="150" height="24" fill="white" stroke="#32ACF1" stroke-width="2"/>
<rect x="30" y="107" width="150" height="24" fill="white" stroke="#32ACF1" stroke-width="2"/>
<rect x="30" y="171" width="150" height="24" fill="white" stroke="#32ACF1" stroke-width="2"/>
<circle cx="105" cy="143" r="2" fill="black"/>
<circle cx="105" cy="151" r="2" fill="black"/>
<circle cx="105" cy="159" r="2" fill="black"/>
<path d="M103.041 215.13V215.827C104.045 215.827 104.159 215.827 104.159 216.459V219.635C104.159 220.867 103.43 221.856 102.165 221.856C100.95 221.856 100.885 221.451 100.885 220.559V215L98 215.13V215.827C99.0049 215.827 99.1183 215.827 99.1183 216.459V220.3C99.1183 221.921 100.204 222.391 101.938 222.391C102.327 222.391 103.527 222.391 104.224 221.078H104.24V222.391L107.044 222.293V221.597C106.039 221.597 105.926 221.597 105.926 220.964V215L103.041 215.13Z" fill="black"/>
<path d="M111.235 223.636C111.235 223.569 111.181 223.515 111.1 223.515C110.978 223.515 110.965 223.555 110.897 223.785C110.546 225.014 109.992 225.433 109.546 225.433C109.384 225.433 109.195 225.393 109.195 224.987C109.195 224.623 109.357 224.217 109.505 223.812L110.451 221.299C110.492 221.191 110.586 220.948 110.586 220.691C110.586 220.124 110.181 219.61 109.519 219.61C108.276 219.61 107.776 221.569 107.776 221.677C107.776 221.731 107.83 221.799 107.925 221.799C108.046 221.799 108.06 221.745 108.114 221.556C108.438 220.421 108.951 219.88 109.478 219.88C109.6 219.88 109.83 219.894 109.83 220.326C109.83 220.677 109.654 221.123 109.546 221.421L108.6 223.934C108.519 224.15 108.438 224.366 108.438 224.609C108.438 225.217 108.857 225.703 109.505 225.703C110.748 225.703 111.235 223.731 111.235 223.636ZM111.127 217.138C111.127 216.935 110.965 216.692 110.667 216.692C110.357 216.692 110.005 216.989 110.005 217.34C110.005 217.678 110.289 217.786 110.451 217.786C110.816 217.786 111.127 217.435 111.127 217.138Z" fill="black"/>
<path d="M485.143 105.479C485.408 105.4 485.558 105.121 485.479 104.857L484.191 100.545C484.112 100.281 483.834 100.13 483.569 100.209C483.304 100.288 483.154 100.567 483.233 100.831L484.378 104.664L480.545 105.809C480.281 105.888 480.13 106.166 480.209 106.431C480.288 106.696 480.567 106.846 480.831 106.767L485.143 105.479ZM384.762 51.44L484.762 105.44L485.238 104.56L385.238 50.56L384.762 51.44Z" fill="black"/>
<path d="M485.245 113.436C485.486 113.3 485.571 112.996 485.436 112.755L483.23 108.833C483.094 108.592 482.789 108.507 482.549 108.642C482.308 108.778 482.223 109.082 482.358 109.323L484.319 112.809L480.833 114.77C480.592 114.906 480.507 115.211 480.642 115.451C480.778 115.692 481.082 115.777 481.323 115.642L485.245 113.436ZM384.865 85.4815L484.865 113.481L485.135 112.519L385.135 84.5185L384.865 85.4815Z" fill="black"/>
<path d="M485.346 121.361C485.546 121.169 485.552 120.853 485.361 120.654L482.243 117.409C482.052 117.209 481.735 117.203 481.536 117.394C481.337 117.586 481.33 117.902 481.522 118.101L484.293 120.986L481.409 123.757C481.209 123.948 481.203 124.265 481.394 124.464C481.586 124.663 481.902 124.67 482.101 124.478L485.346 121.361ZM384.99 119.5L484.99 121.5L485.01 120.5L385.01 118.5L384.99 119.5Z" fill="black"/>
<path d="M485.479 129.143C485.558 128.879 485.408 128.6 485.143 128.521L480.831 127.233C480.567 127.154 480.288 127.304 480.209 127.569C480.13 127.834 480.281 128.112 480.545 128.191L484.378 129.336L483.233 133.169C483.154 133.433 483.304 133.712 483.569 133.791C483.834 133.87 484.112 133.719 484.191 133.455L485.479 129.143ZM385.238 183.44L485.238 129.44L484.762 128.56L384.762 182.56L385.238 183.44Z" fill="black"/>
<rect x="500" y="105" width="100" height="24" fill="white" stroke="#32ACF1" stroke-width="2"/>
<path d="M549.494 215.421C549.494 215.113 549.494 215 549.251 215C549.154 215 549.122 215 548.879 215.146C548.814 215.194 548.635 215.308 548.554 215.357C548.101 215.097 547.501 215 546.917 215C546.431 215 544 215 544 217.107C544 218.809 546.01 219.165 546.512 219.246C546.95 219.327 547.485 219.425 547.549 219.425C548.198 219.571 548.846 219.976 548.846 220.656C548.846 221.904 547.371 221.904 547.031 221.904C546.204 221.904 545.183 221.645 544.729 220.073C544.632 219.749 544.616 219.733 544.34 219.733C544 219.733 544 219.781 544 220.154V222.018C544 222.326 544 222.439 544.243 222.439C544.357 222.439 544.389 222.439 544.713 222.18L545.135 221.872C545.864 222.439 546.739 222.439 547.031 222.439C547.922 222.439 549.948 222.245 549.948 220.089C549.948 219.311 549.527 218.776 549.203 218.485C548.538 217.934 547.987 217.836 547.112 217.674C546.075 217.496 545.102 217.318 545.102 216.54C545.102 215.486 546.545 215.486 546.885 215.486C548.684 215.486 548.781 216.621 548.814 217.026C548.83 217.237 548.96 217.237 549.154 217.237C549.494 217.237 549.494 217.188 549.494 216.815V215.421Z" fill="black"/>
<path d="M555.278 221.334C555.332 221.118 555.332 220.929 555.332 220.875C555.332 220.091 554.751 219.659 554.143 219.659C552.779 219.659 552.049 221.631 552.049 221.726C552.049 221.793 552.103 221.847 552.184 221.847C552.292 221.847 552.306 221.793 552.373 221.658C552.914 220.348 553.589 219.929 554.103 219.929C554.387 219.929 554.535 220.078 554.535 220.55C554.535 220.875 554.495 221.01 554.441 221.253L553.157 226.347C552.9 227.346 552.265 228.103 551.522 228.103C551.468 228.103 551.184 228.103 550.928 227.968C551.252 227.9 551.509 227.644 551.509 227.319C551.509 227.103 551.347 226.887 551.049 226.887C550.698 226.887 550.374 227.184 550.374 227.59C550.374 228.143 550.968 228.373 551.522 228.373C552.454 228.373 553.684 227.684 554.022 226.333L555.278 221.334ZM555.832 217.186C555.832 216.848 555.548 216.74 555.386 216.74C555.022 216.74 554.711 217.092 554.711 217.389C554.711 217.592 554.873 217.835 555.17 217.835C555.481 217.835 555.832 217.538 555.832 217.186Z" fill="black"/>
<rect x="690" y="105" width="100" height="24" fill="white" stroke="#32ACF1" stroke-width="2"/>
<path d="M740.634 216.07C740.747 215.827 740.812 215.697 741.833 215.697V215C741.25 215.032 741.217 215.032 740.553 215.032C740.115 215.032 740.083 215.032 739.159 215V215.697C739.597 215.697 739.953 215.778 739.953 215.891C739.953 215.908 739.953 215.924 739.872 216.086L737.976 220.251L735.885 215.697H736.776V215C736.404 215.032 735.269 215.032 734.831 215.032C734.361 215.032 733.421 215.032 733 215V215.697H734.021L736.874 221.888C737.02 222.196 737.052 222.277 737.425 222.277C737.684 222.277 737.814 222.245 737.96 221.921L740.634 216.07Z" fill="black"/>
<path d="M746.927 221.188C746.981 220.972 746.981 220.783 746.981 220.729C746.981 219.945 746.4 219.513 745.792 219.513C744.428 219.513 743.698 221.485 743.698 221.58C743.698 221.648 743.752 221.702 743.833 221.702C743.941 221.702 743.955 221.648 744.022 221.512C744.563 220.202 745.238 219.783 745.752 219.783C746.035 219.783 746.184 219.932 746.184 220.405C746.184 220.729 746.144 220.864 746.09 221.107L744.806 226.201C744.549 227.201 743.914 227.957 743.171 227.957C743.117 227.957 742.833 227.957 742.577 227.822C742.901 227.754 743.158 227.498 743.158 227.174C743.158 226.957 742.996 226.741 742.698 226.741C742.347 226.741 742.023 227.038 742.023 227.444C742.023 227.998 742.617 228.227 743.171 228.227C744.103 228.227 745.333 227.538 745.671 226.187L746.927 221.188ZM747.481 217.04C747.481 216.703 747.197 216.595 747.035 216.595C746.67 216.595 746.36 216.946 746.36 217.243C746.36 217.446 746.522 217.689 746.819 217.689C747.13 217.689 747.481 217.392 747.481 217.04Z" fill="black"/>
<path d="M675.354 117.354C675.549 117.158 675.549 116.842 675.354 116.646L672.172 113.464C671.976 113.269 671.66 113.269 671.464 113.464C671.269 113.66 671.269 113.976 671.464 114.172L674.293 117L671.464 119.828C671.269 120.024 671.269 120.34 671.464 120.536C671.66 120.731 671.976 120.731 672.172 120.536L675.354 117.354ZM615 117.5H675V116.5H615V117.5Z" fill="black"/>
<path d="M628.603 103.409C628.603 103.117 628.587 103.101 628.49 103.101C628.425 103.101 628.409 103.117 628.214 103.36C628.165 103.425 628.02 103.587 627.971 103.652C627.452 103.101 626.723 103.084 626.447 103.084C624.648 103.084 624 104.024 624 104.964C624 106.423 625.653 106.763 626.123 106.861C627.144 107.071 627.501 107.136 627.841 107.428C628.052 107.623 628.409 107.979 628.409 108.563C628.409 109.243 628.02 110.118 626.528 110.118C625.118 110.118 624.616 109.049 624.324 107.623C624.276 107.396 624.276 107.379 624.146 107.379C624.016 107.379 624 107.396 624 107.72V110.054C624 110.345 624.016 110.362 624.113 110.362C624.194 110.362 624.211 110.345 624.292 110.216C624.389 110.07 624.632 109.681 624.729 109.519C625.053 109.956 625.621 110.378 626.528 110.378C628.133 110.378 628.992 109.503 628.992 108.238C628.992 107.412 628.554 106.974 628.344 106.78C627.857 106.277 627.29 106.164 626.609 106.034C625.718 105.84 624.583 105.613 624.583 104.624C624.583 104.203 624.81 103.311 626.447 103.311C628.182 103.311 628.279 104.932 628.311 105.451C628.327 105.532 628.409 105.548 628.457 105.548C628.603 105.548 628.603 105.499 628.603 105.224V103.409Z" fill="black"/>
<path d="M636.059 103.149H635.799L635.313 104.754C634.94 103.895 634.26 103.149 633.174 103.149C631.521 103.149 629.932 104.624 629.932 106.763C629.932 108.887 631.423 110.378 633.044 110.378C634.292 110.378 634.989 109.422 635.2 109.065V112.29C635.2 112.906 635.135 112.987 634.098 112.987V113.409C634.487 113.376 635.2 113.376 635.621 113.376C636.043 113.376 636.772 113.376 637.161 113.409V112.987C636.124 112.987 636.059 112.922 636.059 112.29V103.149ZM635.232 108.028C635.232 108.725 634.649 109.373 634.6 109.422C634.098 109.989 633.514 110.118 633.125 110.118C631.91 110.118 630.97 108.579 630.97 106.78C630.97 104.883 632.039 103.441 633.287 103.441C634.584 103.441 635.232 104.916 635.232 105.759V108.028Z" fill="black"/>
<path d="M641.99 103.327V103.749C642.946 103.749 643.092 103.846 643.092 104.624V107.574C643.092 108.935 642.362 110.118 641.163 110.118C639.834 110.118 639.721 109.324 639.721 108.482V103.149L637.759 103.327V103.749C638.408 103.749 638.845 103.749 638.862 104.397V107.509C638.862 108.595 638.862 109.292 639.283 109.746C639.494 109.956 639.899 110.378 641.066 110.378C642.443 110.378 642.978 109.211 643.108 108.87H643.124V110.378L645.053 110.248V109.827C644.097 109.827 643.951 109.73 643.951 108.952V103.149L641.99 103.327Z" fill="black"/>
<path d="M651.308 106.05C651.308 104.981 651.308 104.413 650.628 103.781C650.028 103.246 649.331 103.084 648.78 103.084C647.5 103.084 646.576 104.089 646.576 105.159C646.576 105.759 647.062 105.791 647.159 105.791C647.37 105.791 647.743 105.661 647.743 105.208C647.743 104.802 647.435 104.624 647.159 104.624C647.094 104.624 647.013 104.64 646.965 104.656C647.305 103.635 648.18 103.344 648.748 103.344C649.558 103.344 650.449 104.057 650.449 105.418V106.131C649.493 106.164 648.342 106.293 647.435 106.78C646.414 107.347 646.122 108.157 646.122 108.773C646.122 110.021 647.581 110.378 648.44 110.378C649.331 110.378 650.158 109.875 650.514 108.952C650.547 109.665 651 110.313 651.714 110.313C652.054 110.313 652.913 110.086 652.913 108.806V107.898H652.621V108.822C652.621 109.811 652.184 109.94 651.973 109.94C651.308 109.94 651.308 109.097 651.308 108.384V106.05ZM650.449 107.995C650.449 109.405 649.444 110.118 648.553 110.118C647.743 110.118 647.111 109.519 647.111 108.773C647.111 108.287 647.321 107.428 648.261 106.909C649.039 106.472 649.931 106.407 650.449 106.375V107.995Z" fill="black"/>
<path d="M657.887 103.409C657.887 103.117 657.871 103.101 657.774 103.101C657.709 103.101 657.693 103.117 657.498 103.36C657.45 103.425 657.304 103.587 657.255 103.652C656.737 103.101 656.007 103.084 655.732 103.084C653.933 103.084 653.284 104.024 653.284 104.964C653.284 106.423 654.938 106.763 655.408 106.861C656.429 107.071 656.785 107.136 657.126 107.428C657.336 107.623 657.693 107.979 657.693 108.563C657.693 109.243 657.304 110.118 655.813 110.118C654.403 110.118 653.9 109.049 653.609 107.623C653.56 107.396 653.56 107.379 653.43 107.379C653.301 107.379 653.284 107.396 653.284 107.72V110.054C653.284 110.345 653.301 110.362 653.398 110.362C653.479 110.362 653.495 110.345 653.576 110.216C653.673 110.07 653.917 109.681 654.014 109.519C654.338 109.956 654.905 110.378 655.813 110.378C657.417 110.378 658.276 109.503 658.276 108.238C658.276 107.412 657.839 106.974 657.628 106.78C657.142 106.277 656.575 106.164 655.894 106.034C655.002 105.84 653.868 105.613 653.868 104.624C653.868 104.203 654.095 103.311 655.732 103.311C657.466 103.311 657.563 104.932 657.596 105.451C657.612 105.532 657.693 105.548 657.742 105.548C657.887 105.548 657.887 105.499 657.887 105.224V103.409Z" fill="black"/>
<path d="M665.408 105.321C665.408 104.494 665.246 103.149 663.333 103.149C662.004 103.149 661.356 104.219 661.162 104.754H661.145V99L659.217 99.1782V99.5997C660.173 99.5997 660.319 99.6969 660.319 100.475V109.13C660.319 109.746 660.254 109.827 659.217 109.827V110.248C659.606 110.216 660.319 110.216 660.74 110.216C661.162 110.216 661.891 110.216 662.28 110.248V109.827C661.243 109.827 661.178 109.762 661.178 109.13V106.018C661.178 104.527 662.085 103.409 663.22 103.409C664.419 103.409 664.549 104.478 664.549 105.256V109.13C664.549 109.746 664.484 109.827 663.447 109.827V110.248C663.836 110.216 664.549 110.216 664.97 110.216C665.392 110.216 666.121 110.216 666.51 110.248V109.827C665.473 109.827 665.408 109.762 665.408 109.13V105.321Z" fill="black"/>
<rect x="270" y="39" width="100" height="24" fill="white" stroke="#32ACF1" stroke-width="2"/>
<rect x="270" y="73" width="100" height="24" fill="white" stroke="#32ACF1" stroke-width="2"/>
<rect x="270" y="107" width="100" height="24" fill="white" stroke="#32ACF1" stroke-width="2"/>
<rect x="270" y="171" width="100" height="24" fill="white" stroke="#32ACF1" stroke-width="2"/>
<circle cx="320" cy="143" r="2" fill="black"/>
<circle cx="320" cy="151" r="2" fill="black"/>
<circle cx="320" cy="159" r="2" fill="black"/>
<path d="M312.571 210.956L316.979 212.95L317.174 212.593L312.587 210L308 212.593L308.178 212.95L312.571 210.956Z" fill="black"/>
<path d="M313.24 215.12V215.817C314.244 215.817 314.358 215.817 314.358 216.449V219.626C314.358 220.857 313.629 221.846 312.364 221.846C311.149 221.846 311.084 221.441 311.084 220.549V214.99L308.199 215.12V215.817C309.204 215.817 309.317 215.817 309.317 216.449V220.29C309.317 221.911 310.403 222.381 312.138 222.381C312.526 222.381 313.726 222.381 314.423 221.068H314.439V222.381L317.243 222.284V221.587C316.238 221.587 316.125 221.587 316.125 220.955V214.99L313.24 215.12Z" fill="black"/>
<path d="M322.339 222.551C322.393 222.335 322.393 222.146 322.393 222.092C322.393 221.308 321.812 220.876 321.204 220.876C319.84 220.876 319.11 222.848 319.11 222.943C319.11 223.011 319.164 223.065 319.245 223.065C319.353 223.065 319.367 223.011 319.434 222.875C319.975 221.565 320.65 221.146 321.164 221.146C321.447 221.146 321.596 221.295 321.596 221.768C321.596 222.092 321.555 222.227 321.501 222.47L320.218 227.564C319.961 228.563 319.326 229.32 318.583 229.32C318.529 229.32 318.245 229.32 317.989 229.185C318.313 229.117 318.57 228.861 318.57 228.536C318.57 228.32 318.407 228.104 318.11 228.104C317.759 228.104 317.435 228.401 317.435 228.807C317.435 229.361 318.029 229.59 318.583 229.59C319.515 229.59 320.745 228.901 321.083 227.55L322.339 222.551ZM322.893 218.403C322.893 218.066 322.609 217.958 322.447 217.958C322.082 217.958 321.772 218.309 321.772 218.606C321.772 218.809 321.934 219.052 322.231 219.052C322.542 219.052 322.893 218.755 322.893 218.403Z" fill="black"/>
<path d="M325.971 217.187C325.971 216.944 325.971 216.701 325.701 216.701C325.431 216.701 325.431 216.944 325.431 217.187V229.725C325.431 229.969 325.431 230.212 325.701 230.212C325.971 230.212 325.971 229.969 325.971 229.725V217.187Z" fill="black"/>
<path d="M331.386 224.902C331.386 224.835 331.331 224.78 331.25 224.78C331.129 224.78 331.115 224.821 331.048 225.051C330.696 226.28 330.143 226.699 329.697 226.699C329.535 226.699 329.345 226.658 329.345 226.253C329.345 225.888 329.508 225.483 329.656 225.078L330.602 222.565C330.642 222.457 330.737 222.213 330.737 221.957C330.737 221.389 330.332 220.876 329.67 220.876C328.427 220.876 327.927 222.835 327.927 222.943C327.927 222.997 327.981 223.065 328.075 223.065C328.197 223.065 328.21 223.011 328.265 222.821C328.589 221.687 329.102 221.146 329.629 221.146C329.751 221.146 329.98 221.16 329.98 221.592C329.98 221.943 329.805 222.389 329.697 222.686L328.751 225.199C328.67 225.415 328.589 225.632 328.589 225.875C328.589 226.483 329.008 226.969 329.656 226.969C330.899 226.969 331.386 224.997 331.386 224.902ZM331.277 218.403C331.277 218.201 331.115 217.958 330.818 217.958C330.507 217.958 330.156 218.255 330.156 218.606C330.156 218.944 330.44 219.052 330.602 219.052C330.967 219.052 331.277 218.701 331.277 218.403Z" fill="black"/>
<path d="M370.5 29C370.5 27.4876 369.535 26.4127 368.08 25.6647C366.635 24.9216 364.613 24.444 362.254 24.1294C357.526 23.499 351.238 23.5 345 23.5C338.738 23.5 332.526 23.499 327.879 22.8794C325.551 22.569 323.667 22.1091 322.377 21.446C321.097 20.7877 320.5 19.9876 320.5 19L319.5 19C319.5 20.5124 320.465 21.5873 321.92 22.3353C323.365 23.0784 325.387 23.556 327.746 23.8706C332.474 24.501 338.762 24.5 345 24.5C351.262 24.5 357.474 24.501 362.121 25.1206C364.449 25.431 366.333 25.8909 367.623 26.554C368.903 27.2123 369.5 28.0124 369.5 29L370.5 29ZM270.5 29C270.5 28.0124 271.097 27.2123 272.377 26.554C273.667 25.8909 275.551 25.431 277.879 25.1206C282.526 24.501 288.738 24.5 295 24.5C301.238 24.5 307.526 24.501 312.254 23.8706C314.613 23.556 316.635 23.0784 318.08 22.3353C319.535 21.5873 320.5 20.5124 320.5 19L319.5 19C319.5 19.9876 318.903 20.7877 317.623 21.446C316.333 22.1091 314.449 22.569 312.121 22.8794C307.474 23.499 301.262 23.5 295 23.5C288.762 23.5 282.474 23.499 277.746 24.1294C275.387 24.444 273.365 24.9216 271.92 25.6647C270.465 26.4127 269.5 27.4876 269.5 29L270.5 29Z" fill="black"/>
<path d="M325.944 10.2053C325.998 9.98914 325.998 9.8 325.998 9.74595C325.998 8.96232 325.417 8.52998 324.809 8.52998C323.445 8.52998 322.715 10.5026 322.715 10.5971C322.715 10.6647 322.769 10.7187 322.85 10.7187C322.958 10.7187 322.972 10.6647 323.04 10.5296C323.58 9.21903 324.256 8.8002 324.769 8.8002C325.053 8.8002 325.201 8.94882 325.201 9.42169C325.201 9.74595 325.161 9.88106 325.107 10.1243L323.823 15.2178C323.566 16.2176 322.931 16.9742 322.188 16.9742C322.134 16.9742 321.851 16.9742 321.594 16.8391C321.918 16.7716 322.175 16.5149 322.175 16.1906C322.175 15.9744 322.013 15.7583 321.715 15.7583C321.364 15.7583 321.04 16.0555 321.04 16.4608C321.04 17.0148 321.634 17.2444 322.188 17.2444C323.121 17.2444 324.35 16.5554 324.688 15.2043L325.944 10.2053ZM326.498 6.05751C326.498 5.71972 326.215 5.61163 326.052 5.61163C325.688 5.61163 325.377 5.9629 325.377 6.26015C325.377 6.46285 325.539 6.70603 325.836 6.70603C326.147 6.70603 326.498 6.40878 326.498 6.05751Z" fill="black"/>
<path d="M320.504 0.405208C320.52 0.340344 320.553 0.243112 320.553 0.162097C320.553 9.74355e-09 320.391 0 320.358 0C320.342 0 319.548 0.064799 319.467 0.0810152C319.191 0.0972314 318.948 0.129665 318.656 0.145881C318.251 0.178248 318.138 0.194464 318.138 0.486225C318.138 0.648321 318.268 0.648321 318.494 0.648321C319.289 0.648321 319.305 0.794201 319.305 0.956232C319.305 1.05346 319.272 1.18313 319.256 1.23178L318.268 5.17025C318.089 4.74885 317.652 4.10054 316.809 4.10054C314.977 4.10054 313 6.46688 313 8.86562C313 10.4702 313.94 11.4102 315.042 11.4102C315.934 11.4102 316.695 10.7133 317.149 10.1784C317.311 11.1347 318.073 11.4102 318.559 11.4102C319.045 11.4102 319.434 11.1185 319.726 10.535C319.986 9.98395 320.212 8.99528 320.212 8.93045C320.212 8.84941 320.148 8.78458 320.05 8.78458C319.905 8.78458 319.888 8.86562 319.823 9.10874C319.58 10.065 319.272 11.0861 318.608 11.0861C318.138 11.0861 318.105 10.6647 318.105 10.3405C318.105 10.2757 318.105 9.93533 318.219 9.48151L320.504 0.405208ZM317.23 9.31943C317.149 9.59497 317.149 9.62738 316.922 9.93533C316.566 10.3891 315.853 11.0861 315.091 11.0861C314.426 11.0861 314.054 10.4864 314.054 9.53013C314.054 8.63871 314.556 6.82344 314.864 6.14272C315.415 5.00818 316.177 4.42473 316.809 4.42473C317.879 4.42473 318.089 5.75374 318.089 5.8834C318.089 5.8996 318.041 6.1103 318.024 6.14272L317.23 9.31943Z" fill="black"/>
<path d="M255.354 51.3536C255.549 51.1583 255.549 50.8417 255.354 50.6464L252.172 47.4645C251.976 47.2692 251.66 47.2692 251.464 47.4645C251.269 47.6597 251.269 47.9763 251.464 48.1716L254.293 51L251.464 53.8284C251.269 54.0237 251.269 54.3403 251.464 54.5355C251.66 54.7308 251.976 54.7308 252.172 54.5355L255.354 51.3536ZM195 51.5H255V50.5H195V51.5Z" fill="black"/>
<path d="M255.354 85.3536C255.549 85.1583 255.549 84.8417 255.354 84.6464L252.172 81.4645C251.976 81.2692 251.66 81.2692 251.464 81.4645C251.269 81.6597 251.269 81.9763 251.464 82.1716L254.293 85L251.464 87.8284C251.269 88.0237 251.269 88.3403 251.464 88.5355C251.66 88.7308 251.976 88.7308 252.172 88.5355L255.354 85.3536ZM195 85.5H255V84.5H195V85.5Z" fill="black"/>
<path d="M255.354 119.354C255.549 119.158 255.549 118.842 255.354 118.646L252.172 115.464C251.976 115.269 251.66 115.269 251.464 115.464C251.269 115.66 251.269 115.976 251.464 116.172L254.293 119L251.464 121.828C251.269 122.024 251.269 122.34 251.464 122.536C251.66 122.731 251.976 122.731 252.172 122.536L255.354 119.354ZM195 119.5H255V118.5H195V119.5Z" fill="black"/>
<path d="M255.354 183.354C255.549 183.158 255.549 182.842 255.354 182.646L252.172 179.464C251.976 179.269 251.66 179.269 251.464 179.464C251.269 179.66 251.269 179.976 251.464 180.172L254.293 183L251.464 185.828C251.269 186.024 251.269 186.34 251.464 186.536C251.66 186.731 251.976 186.731 252.172 186.536L255.354 183.354ZM195 183.5H255V182.5H195V183.5Z" fill="black"/>
<path d="M227.51 163.08C227.623 162.79 227.655 162.693 229.01 162.693V162C228.203 162.032 228.171 162.032 227.252 162.032C226.784 162.032 225.608 162.032 225.221 162V162.693C225.414 162.693 226.833 162.693 226.833 162.919C226.833 162.935 226.833 162.967 226.768 163.112L224.06 170.303L221.174 162.693H222.705V162C222.189 162.032 220.69 162.032 220.077 162.032C219.577 162.032 218.014 162.032 217.627 162V162.693H218.981L219.642 164.435L217.433 170.303L214.563 162.693H216.079V162C215.611 162.032 214.031 162.032 213.451 162.032C212.935 162.032 211.403 162.032 211 162V162.693H212.354L216.192 172.819C216.288 173.093 216.337 173.206 216.691 173.206C217.046 173.206 217.095 173.093 217.191 172.835L219.997 165.402L222.818 172.835C222.915 173.093 222.963 173.206 223.318 173.206C223.624 173.206 223.705 173.141 223.818 172.835L227.51 163.08Z" fill="black"/>
<path d="M233.115 174.396C233.115 174.329 233.061 174.275 232.98 174.275C232.859 174.275 232.846 174.316 232.779 174.544C232.429 175.767 231.878 176.184 231.434 176.184C231.273 176.184 231.085 176.143 231.085 175.74C231.085 175.377 231.246 174.974 231.394 174.571L232.335 172.071C232.375 171.964 232.469 171.722 232.469 171.466C232.469 170.902 232.066 170.391 231.408 170.391C230.171 170.391 229.674 172.34 229.674 172.447C229.674 172.501 229.728 172.568 229.822 172.568C229.943 172.568 229.956 172.515 230.01 172.326C230.332 171.197 230.843 170.66 231.367 170.66C231.488 170.66 231.717 170.673 231.717 171.103C231.717 171.453 231.542 171.896 231.434 172.192L230.494 174.692C230.413 174.907 230.332 175.122 230.332 175.364C230.332 175.969 230.749 176.453 231.394 176.453C232.631 176.453 233.115 174.49 233.115 174.396ZM233.007 167.932C233.007 167.73 232.846 167.488 232.55 167.488C232.241 167.488 231.891 167.784 231.891 168.133C231.891 168.469 232.174 168.577 232.335 168.577C232.698 168.577 233.007 168.227 233.007 167.932Z" fill="black"/>
<path d="M238.488 172.058C238.541 171.843 238.541 171.654 238.541 171.601C238.541 170.821 237.963 170.391 237.359 170.391C236.001 170.391 235.275 172.353 235.275 172.447C235.275 172.515 235.329 172.568 235.41 172.568C235.517 172.568 235.531 172.515 235.598 172.38C236.136 171.077 236.808 170.66 237.318 170.66C237.601 170.66 237.748 170.808 237.748 171.278C237.748 171.601 237.708 171.735 237.654 171.977L236.378 177.044C236.122 178.039 235.49 178.791 234.751 178.791C234.698 178.791 234.415 178.791 234.16 178.657C234.482 178.59 234.738 178.334 234.738 178.012C234.738 177.797 234.577 177.582 234.281 177.582C233.931 177.582 233.609 177.877 233.609 178.28C233.609 178.832 234.2 179.06 234.751 179.06C235.679 179.06 236.902 178.375 237.238 177.031L238.488 172.058ZM239.039 167.932C239.039 167.595 238.756 167.488 238.595 167.488C238.232 167.488 237.923 167.837 237.923 168.133C237.923 168.335 238.084 168.577 238.38 168.577C238.689 168.577 239.039 168.281 239.039 167.932Z" fill="black"/>
<path d="M226.51 99.0802C226.623 98.79 226.655 98.6933 228.01 98.6933V98C227.203 98.0323 227.171 98.0323 226.252 98.0323C225.784 98.0323 224.608 98.0323 224.221 98V98.6933C224.414 98.6933 225.833 98.6933 225.833 98.919C225.833 98.9351 225.833 98.9674 225.768 99.1125L223.06 106.303L220.174 98.6933H221.705V98C221.189 98.0323 219.69 98.0323 219.077 98.0323C218.577 98.0323 217.014 98.0323 216.627 98V98.6933H217.981L218.642 100.435L216.433 106.303L213.563 98.6933H215.079V98C214.611 98.0323 213.031 98.0323 212.451 98.0323C211.935 98.0323 210.403 98.0323 210 98V98.6933H211.354L215.192 108.819C215.288 109.093 215.337 109.206 215.691 109.206C216.046 109.206 216.095 109.093 216.191 108.835L218.997 101.402L221.818 108.835C221.915 109.093 221.963 109.206 222.318 109.206C222.624 109.206 222.705 109.141 222.818 108.835L226.51 99.0802Z" fill="black"/>
<path d="M231.281 107.749C232.477 107.749 233.002 108.783 233.002 109.98C233.002 111.592 232.141 112.211 231.362 112.211C230.65 112.211 229.494 111.861 229.131 110.826C229.198 110.853 229.265 110.853 229.332 110.853C229.655 110.853 229.897 110.638 229.897 110.289C229.897 109.899 229.601 109.724 229.332 109.724C229.104 109.724 228.754 109.832 228.754 110.329C228.754 111.566 229.964 112.533 231.389 112.533C232.881 112.533 234.023 111.364 234.023 109.993C234.023 108.689 232.948 107.749 231.671 107.601C232.692 107.386 233.674 106.472 233.674 105.249C233.674 104.2 232.612 103.434 231.402 103.434C230.179 103.434 229.104 104.187 229.104 105.262C229.104 105.733 229.453 105.813 229.628 105.813C229.91 105.813 230.152 105.638 230.152 105.289C230.152 104.94 229.91 104.765 229.628 104.765C229.574 104.765 229.507 104.765 229.453 104.792C229.843 103.905 230.905 103.743 231.375 103.743C231.846 103.743 232.733 103.972 232.733 105.262C232.733 105.638 232.679 106.31 232.222 106.902C231.819 107.426 231.362 107.453 230.918 107.493C230.851 107.493 230.542 107.52 230.488 107.52C230.394 107.533 230.34 107.547 230.34 107.641C230.34 107.735 230.354 107.749 230.623 107.749H231.281Z" fill="black"/>
<path d="M239.156 108.058C239.21 107.843 239.21 107.654 239.21 107.601C239.21 106.821 238.632 106.391 238.027 106.391C236.669 106.391 235.944 108.353 235.944 108.447C235.944 108.515 235.997 108.568 236.078 108.568C236.186 108.568 236.199 108.515 236.266 108.38C236.804 107.077 237.476 106.66 237.987 106.66C238.269 106.66 238.417 106.808 238.417 107.278C238.417 107.601 238.376 107.735 238.323 107.977L237.046 113.044C236.79 114.039 236.159 114.791 235.42 114.791C235.366 114.791 235.084 114.791 234.828 114.657C235.151 114.59 235.406 114.334 235.406 114.012C235.406 113.797 235.245 113.582 234.949 113.582C234.6 113.582 234.277 113.877 234.277 114.28C234.277 114.832 234.868 115.06 235.42 115.06C236.347 115.06 237.57 114.375 237.906 113.031L239.156 108.058ZM239.707 103.932C239.707 103.595 239.425 103.488 239.263 103.488C238.901 103.488 238.591 103.837 238.591 104.133C238.591 104.335 238.753 104.577 239.048 104.577C239.358 104.577 239.707 104.281 239.707 103.932Z" fill="black"/>
<path d="M227.51 65.0802C227.623 64.79 227.655 64.6933 229.01 64.6933V64C228.203 64.0323 228.171 64.0323 227.252 64.0323C226.784 64.0323 225.608 64.0323 225.221 64V64.6933C225.414 64.6933 226.833 64.6933 226.833 64.919C226.833 64.9351 226.833 64.9674 226.768 65.1125L224.06 72.3034L221.174 64.6933H222.705V64C222.189 64.0323 220.69 64.0323 220.077 64.0323C219.577 64.0323 218.014 64.0323 217.627 64V64.6933H218.981L219.642 66.4346L217.433 72.3034L214.563 64.6933H216.079V64C215.611 64.0323 214.031 64.0323 213.451 64.0323C212.935 64.0323 211.403 64.0323 211 64V64.6933H212.354L216.192 74.8186C216.288 75.0927 216.337 75.2055 216.691 75.2055C217.046 75.2055 217.095 75.0927 217.191 74.8347L219.997 67.4019L222.818 74.8347C222.915 75.0927 222.963 75.2055 223.318 75.2055C223.624 75.2055 223.705 75.141 223.818 74.8347L227.51 65.0802Z" fill="black"/>
<path d="M234.915 76.235H234.674C234.539 77.1892 234.432 77.3505 234.378 77.4312C234.311 77.5387 233.343 77.5387 233.155 77.5387H230.574C231.058 77.0145 231.999 76.0603 233.141 74.9582C233.961 74.1786 234.915 73.2647 234.915 71.9341C234.915 70.3481 233.652 69.4342 232.241 69.4342C230.762 69.4342 229.862 70.7379 229.862 71.9475C229.862 72.4717 230.252 72.5389 230.413 72.5389C230.547 72.5389 230.951 72.4583 230.951 71.9879C230.951 71.5712 230.601 71.4503 230.413 71.4503C230.332 71.4503 230.252 71.4637 230.198 71.4906C230.453 70.3481 231.233 69.7837 232.053 69.7837C233.222 69.7837 233.988 70.711 233.988 71.9341C233.988 73.1034 233.303 74.1114 232.537 74.985L229.862 78.0091V78.3182H234.593L234.915 76.235Z" fill="black"/>
<path d="M240.156 74.0576C240.21 73.8426 240.21 73.6544 240.21 73.6007C240.21 72.8212 239.632 72.3911 239.027 72.3911C237.669 72.3911 236.944 74.3533 236.944 74.4474C236.944 74.5146 236.997 74.5684 237.078 74.5684C237.186 74.5684 237.199 74.5146 237.266 74.3802C237.804 73.0765 238.476 72.6599 238.987 72.6599C239.269 72.6599 239.417 72.8077 239.417 73.2781C239.417 73.6007 239.376 73.7351 239.323 73.977L238.046 79.044C237.79 80.0385 237.159 80.7912 236.42 80.7912C236.366 80.7912 236.084 80.7912 235.828 80.6568C236.151 80.5896 236.406 80.3342 236.406 80.0117C236.406 79.7966 236.245 79.5816 235.949 79.5816C235.6 79.5816 235.277 79.8773 235.277 80.2805C235.277 80.8315 235.868 81.06 236.42 81.06C237.347 81.06 238.57 80.3746 238.906 79.0305L240.156 74.0576ZM240.707 69.9315C240.707 69.5955 240.425 69.488 240.263 69.488C239.901 69.488 239.591 69.8374 239.591 70.1331C239.591 70.3347 239.753 70.5766 240.048 70.5766C240.357 70.5766 240.707 70.2809 240.707 69.9315Z" fill="black"/>
<path d="M226.51 31.0802C226.623 30.79 226.655 30.6933 228.01 30.6933V30C227.203 30.0323 227.171 30.0323 226.252 30.0323C225.784 30.0323 224.608 30.0323 224.221 30V30.6933C224.414 30.6933 225.833 30.6933 225.833 30.919C225.833 30.9351 225.833 30.9674 225.768 31.1125L223.06 38.3034L220.174 30.6933H221.705V30C221.189 30.0323 219.69 30.0323 219.077 30.0323C218.577 30.0323 217.014 30.0323 216.627 30V30.6933H217.981L218.642 32.4346L216.433 38.3034L213.563 30.6933H215.079V30C214.611 30.0323 213.031 30.0323 212.451 30.0323C211.935 30.0323 210.403 30.0323 210 30V30.6933H211.354L215.192 40.8186C215.288 41.0927 215.337 41.2055 215.691 41.2055C216.046 41.2055 216.095 41.0927 216.191 40.8347L218.997 33.4019L221.818 40.8347C221.915 41.0927 221.963 41.2055 222.318 41.2055C222.624 41.2055 222.705 41.141 222.818 40.8347L226.51 31.0802Z" fill="black"/>
<path d="M231.886 35.7299C231.886 35.4476 231.873 35.4342 231.684 35.4342C231.16 36.0659 230.367 36.2675 229.615 36.2944C229.574 36.2944 229.507 36.2944 229.494 36.3213C229.48 36.3481 229.48 36.3751 229.48 36.6573C229.897 36.6573 230.596 36.5767 231.133 36.2541V43.3371C231.133 43.8075 231.106 43.9688 229.951 43.9688H229.547V44.3182C230.193 44.3048 230.865 44.2913 231.51 44.2913C232.155 44.2913 232.827 44.3048 233.472 44.3182V43.9688H233.069C231.913 43.9688 231.886 43.8209 231.886 43.3371V35.7299Z" fill="black"/>
<path d="M239.156 40.0576C239.21 39.8426 239.21 39.6544 239.21 39.6007C239.21 38.8212 238.632 38.3911 238.027 38.3911C236.669 38.3911 235.944 40.3533 235.944 40.4474C235.944 40.5146 235.997 40.5684 236.078 40.5684C236.186 40.5684 236.199 40.5146 236.266 40.3802C236.804 39.0765 237.476 38.6599 237.987 38.6599C238.269 38.6599 238.417 38.8077 238.417 39.2781C238.417 39.6007 238.376 39.7351 238.323 39.977L237.046 45.044C236.79 46.0385 236.159 46.7912 235.42 46.7912C235.366 46.7912 235.084 46.7912 234.828 46.6568C235.151 46.5896 235.406 46.3342 235.406 46.0117C235.406 45.7966 235.245 45.5816 234.949 45.5816C234.6 45.5816 234.277 45.8773 234.277 46.2805C234.277 46.8315 234.868 47.06 235.42 47.06C236.347 47.06 237.57 46.3746 237.906 45.0305L239.156 40.0576ZM239.707 35.9315C239.707 35.5955 239.425 35.488 239.263 35.488C238.901 35.488 238.591 35.8374 238.591 36.1331C238.591 36.3347 238.753 36.5766 239.048 36.5766C239.357 36.5766 239.707 36.2809 239.707 35.9315Z" fill="black"/>
<path d="M432.689 139.054C432.381 139.054 432.235 139.054 432.008 139.248C431.911 139.329 431.733 139.572 431.733 139.831C431.733 140.156 431.976 140.35 432.284 140.35C432.673 140.35 433.11 140.026 433.11 139.378C433.11 138.6 432.365 138 431.246 138C429.123 138 427 140.318 427 142.619C427 144.029 427.875 145.31 429.528 145.31C431.733 145.31 433.127 143.592 433.127 143.381C433.127 143.284 433.029 143.203 432.964 143.203C432.916 143.203 432.9 143.219 432.754 143.365C431.716 144.742 430.177 144.986 429.561 144.986C428.442 144.986 428.086 144.013 428.086 143.203C428.086 142.635 428.361 141.063 428.945 139.961C429.366 139.199 430.242 138.324 431.263 138.324C431.473 138.324 432.365 138.357 432.689 139.054Z" fill="black"/>
<path d="M437.641 146.208C437.641 146.141 437.587 146.087 437.506 146.087C437.385 146.087 437.372 146.128 437.305 146.356C436.955 147.579 436.404 147.996 435.961 147.996C435.799 147.996 435.611 147.956 435.611 147.552C435.611 147.189 435.773 146.786 435.92 146.383L436.861 143.883C436.901 143.776 436.996 143.534 436.996 143.278C436.996 142.714 436.592 142.203 435.934 142.203C434.697 142.203 434.2 144.152 434.2 144.259C434.2 144.313 434.254 144.38 434.348 144.38C434.469 144.38 434.482 144.327 434.536 144.138C434.859 143.01 435.369 142.472 435.893 142.472C436.014 142.472 436.243 142.485 436.243 142.915C436.243 143.265 436.068 143.708 435.961 144.004L435.02 146.504C434.939 146.719 434.859 146.934 434.859 147.176C434.859 147.781 435.275 148.265 435.92 148.265C437.157 148.265 437.641 146.302 437.641 146.208ZM437.533 139.744C437.533 139.542 437.372 139.3 437.076 139.3C436.767 139.3 436.418 139.596 436.418 139.945C436.418 140.281 436.7 140.389 436.861 140.389C437.224 140.389 437.533 140.039 437.533 139.744Z" fill="black"/>
<path d="M443.014 143.87C443.068 143.655 443.068 143.466 443.068 143.413C443.068 142.633 442.49 142.203 441.885 142.203C440.527 142.203 439.802 144.165 439.802 144.259C439.802 144.327 439.855 144.38 439.936 144.38C440.044 144.38 440.057 144.327 440.124 144.192C440.662 142.889 441.334 142.472 441.845 142.472C442.127 142.472 442.275 142.62 442.275 143.09C442.275 143.413 442.234 143.547 442.181 143.789L440.904 148.856C440.648 149.851 440.017 150.603 439.277 150.603C439.224 150.603 438.941 150.603 438.686 150.469C439.009 150.402 439.264 150.146 439.264 149.824C439.264 149.609 439.103 149.394 438.807 149.394C438.458 149.394 438.135 149.689 438.135 150.093C438.135 150.644 438.726 150.872 439.277 150.872C440.205 150.872 441.428 150.187 441.764 148.843L443.014 143.87ZM443.565 139.744C443.565 139.408 443.283 139.3 443.121 139.3C442.759 139.3 442.449 139.649 442.449 139.945C442.449 140.147 442.611 140.389 442.906 140.389C443.215 140.389 443.565 140.093 443.565 139.744Z" fill="black"/>
<path d="M431.689 106.054C431.381 106.054 431.235 106.054 431.008 106.248C430.911 106.329 430.733 106.572 430.733 106.831C430.733 107.156 430.976 107.35 431.284 107.35C431.673 107.35 432.11 107.026 432.11 106.378C432.11 105.6 431.365 105 430.246 105C428.123 105 426 107.318 426 109.619C426 111.029 426.875 112.31 428.528 112.31C430.733 112.31 432.127 110.592 432.127 110.381C432.127 110.284 432.029 110.203 431.964 110.203C431.916 110.203 431.9 110.219 431.754 110.365C430.716 111.742 429.177 111.986 428.561 111.986C427.442 111.986 427.086 111.013 427.086 110.203C427.086 109.635 427.361 108.063 427.945 106.961C428.366 106.199 429.242 105.324 430.263 105.324C430.473 105.324 431.365 105.357 431.689 106.054Z" fill="black"/>
<path d="M435.127 110.614C436.323 110.614 436.847 111.649 436.847 112.845C436.847 114.458 435.987 115.076 435.207 115.076C434.495 115.076 433.339 114.727 432.976 113.692C433.044 113.719 433.111 113.719 433.178 113.719C433.5 113.719 433.742 113.504 433.742 113.154C433.742 112.765 433.447 112.59 433.178 112.59C432.949 112.59 432.6 112.698 432.6 113.195C432.6 114.431 433.81 115.399 435.234 115.399C436.726 115.399 437.869 114.23 437.869 112.859C437.869 111.555 436.793 110.614 435.517 110.466C436.538 110.251 437.519 109.337 437.519 108.114C437.519 107.066 436.457 106.3 435.248 106.3C434.025 106.3 432.949 107.053 432.949 108.128C432.949 108.598 433.299 108.679 433.474 108.679C433.756 108.679 433.998 108.504 433.998 108.155C433.998 107.805 433.756 107.631 433.474 107.631C433.42 107.631 433.353 107.631 433.299 107.657C433.689 106.77 434.75 106.609 435.221 106.609C435.691 106.609 436.578 106.838 436.578 108.128C436.578 108.504 436.525 109.176 436.068 109.768C435.664 110.292 435.207 110.319 434.764 110.359C434.697 110.359 434.388 110.386 434.334 110.386C434.24 110.399 434.186 110.413 434.186 110.507C434.186 110.601 434.199 110.614 434.468 110.614H435.127Z" fill="black"/>
<path d="M443.001 110.923C443.055 110.708 443.055 110.52 443.055 110.466C443.055 109.687 442.477 109.257 441.872 109.257C440.515 109.257 439.789 111.219 439.789 111.313C439.789 111.38 439.843 111.434 439.924 111.434C440.031 111.434 440.045 111.38 440.112 111.246C440.649 109.942 441.321 109.526 441.832 109.526C442.114 109.526 442.262 109.673 442.262 110.144C442.262 110.466 442.222 110.601 442.168 110.843L440.891 115.91C440.636 116.904 440.004 117.657 439.265 117.657C439.211 117.657 438.929 117.657 438.674 117.523C438.996 117.455 439.252 117.2 439.252 116.877C439.252 116.662 439.09 116.447 438.795 116.447C438.445 116.447 438.123 116.743 438.123 117.146C438.123 117.697 438.714 117.926 439.265 117.926C440.192 117.926 441.415 117.24 441.752 115.896L443.001 110.923ZM443.552 106.797C443.552 106.461 443.27 106.354 443.109 106.354C442.746 106.354 442.437 106.703 442.437 106.999C442.437 107.2 442.598 107.442 442.894 107.442C443.203 107.442 443.552 107.147 443.552 106.797Z" fill="black"/>
<path d="M431.689 86.0535C431.381 86.0535 431.235 86.0535 431.008 86.248C430.911 86.329 430.733 86.5722 430.733 86.8315C430.733 87.1556 430.976 87.3501 431.284 87.3501C431.673 87.3501 432.11 87.026 432.11 86.3777C432.11 85.5997 431.365 85 430.246 85C428.123 85 426 87.3177 426 89.6192C426 91.0293 426.875 92.3097 428.528 92.3097C430.733 92.3097 432.127 90.5917 432.127 90.381C432.127 90.2837 432.029 90.2027 431.964 90.2027C431.916 90.2027 431.9 90.2189 431.754 90.3648C430.716 91.7424 429.177 91.9855 428.561 91.9855C427.442 91.9855 427.086 91.0131 427.086 90.2027C427.086 89.6354 427.361 88.0633 427.945 86.9611C428.366 86.1994 429.242 85.3242 430.263 85.3242C430.473 85.3242 431.365 85.3566 431.689 86.0535Z" fill="black"/>
<path d="M437.754 93.2007H437.512C437.377 94.155 437.27 94.3163 437.216 94.3969C437.149 94.5044 436.181 94.5044 435.993 94.5044H433.412C433.896 93.9803 434.837 93.026 435.979 91.9239C436.799 91.1444 437.754 90.2304 437.754 88.8999C437.754 87.3139 436.49 86.4 435.079 86.4C433.601 86.4 432.7 87.7037 432.7 88.9133C432.7 89.4375 433.09 89.5047 433.251 89.5047C433.385 89.5047 433.789 89.424 433.789 88.9536C433.789 88.537 433.439 88.416 433.251 88.416C433.17 88.416 433.09 88.4294 433.036 88.4563C433.291 87.3139 434.071 86.7494 434.891 86.7494C436.06 86.7494 436.826 87.6768 436.826 88.8999C436.826 90.0692 436.141 91.0772 435.375 91.9508L432.7 94.9748V95.284H437.431L437.754 93.2007Z" fill="black"/>
<path d="M442.994 91.0234C443.048 90.8084 443.048 90.6202 443.048 90.5664C443.048 89.7869 442.47 89.3568 441.865 89.3568C440.507 89.3568 439.782 91.3191 439.782 91.4132C439.782 91.4804 439.835 91.5341 439.916 91.5341C440.024 91.5341 440.037 91.4804 440.104 91.346C440.642 90.0423 441.314 89.6256 441.825 89.6256C442.107 89.6256 442.255 89.7735 442.255 90.2439C442.255 90.5664 442.214 90.7008 442.161 90.9428L440.884 96.0097C440.628 97.0043 439.997 97.757 439.258 97.757C439.204 97.757 438.922 97.757 438.666 97.6226C438.989 97.5554 439.244 97.3 439.244 96.9774C439.244 96.7624 439.083 96.5473 438.787 96.5473C438.438 96.5473 438.115 96.843 438.115 97.2462C438.115 97.7973 438.706 98.0258 439.258 98.0258C440.185 98.0258 441.408 97.3403 441.744 95.9963L442.994 91.0234ZM443.545 86.8973C443.545 86.5612 443.263 86.4537 443.101 86.4537C442.739 86.4537 442.429 86.8031 442.429 87.0989C442.429 87.3005 442.591 87.5424 442.886 87.5424C443.196 87.5424 443.545 87.2467 443.545 86.8973Z" fill="black"/>
<path d="M431.689 65.0535C431.381 65.0535 431.235 65.0535 431.008 65.248C430.911 65.329 430.733 65.5722 430.733 65.8315C430.733 66.1556 430.976 66.3501 431.284 66.3501C431.673 66.3501 432.11 66.026 432.11 65.3777C432.11 64.5997 431.365 64 430.246 64C428.123 64 426 66.3177 426 68.6192C426 70.0293 426.875 71.3097 428.528 71.3097C430.733 71.3097 432.127 69.5917 432.127 69.381C432.127 69.2837 432.029 69.2027 431.964 69.2027C431.916 69.2027 431.9 69.2189 431.754 69.3648C430.716 70.7424 429.177 70.9855 428.561 70.9855C427.442 70.9855 427.086 70.0131 427.086 69.2027C427.086 68.6354 427.361 67.0633 427.945 65.9611C428.366 65.1994 429.242 64.3242 430.263 64.3242C430.473 64.3242 431.365 64.3566 431.689 65.0535Z" fill="black"/>
<path d="M435.676 65.6356C435.676 65.3534 435.662 65.34 435.474 65.34C434.95 65.9717 434.157 66.1732 433.404 66.2002C433.364 66.2002 433.297 66.2002 433.283 66.227C433.27 66.2539 433.27 66.2808 433.27 66.5631C433.687 66.5631 434.386 66.4824 434.923 66.1598V73.2428C434.923 73.7132 434.896 73.8745 433.74 73.8745H433.337V74.224C433.982 74.2105 434.654 74.1971 435.299 74.1971C435.945 74.1971 436.617 74.2105 437.262 74.224V73.8745H436.859C435.703 73.8745 435.676 73.7267 435.676 73.2428V65.6356Z" fill="black"/>
<path d="M442.946 69.9634C442.999 69.7484 442.999 69.5602 442.999 69.5064C442.999 68.7269 442.421 68.2968 441.817 68.2968C440.459 68.2968 439.733 70.2591 439.733 70.3532C439.733 70.4204 439.787 70.4741 439.868 70.4741C439.975 70.4741 439.989 70.4204 440.056 70.286C440.594 68.9823 441.266 68.5656 441.776 68.5656C442.059 68.5656 442.206 68.7135 442.206 69.1839C442.206 69.5064 442.166 69.6408 442.112 69.8828L440.836 74.9497C440.58 75.9443 439.948 76.6969 439.209 76.6969C439.156 76.6969 438.873 76.6969 438.618 76.5625C438.94 76.4953 439.196 76.24 439.196 75.9174C439.196 75.7024 439.035 75.4873 438.739 75.4873C438.389 75.4873 438.067 75.783 438.067 76.1862C438.067 76.7373 438.658 76.9657 439.209 76.9657C440.137 76.9657 441.36 76.2803 441.696 74.9363L442.946 69.9634ZM443.497 65.8373C443.497 65.5012 443.214 65.3937 443.053 65.3937C442.69 65.3937 442.381 65.7431 442.381 66.0388C442.381 66.2405 442.542 66.4824 442.838 66.4824C443.147 66.4824 443.497 66.1867 443.497 65.8373Z" fill="black"/>
</svg>
