<svg width="736" height="350" viewBox="0 0 736 350" fill="none" xmlns="http://www.w3.org/2000/svg">
<path d="M25 35.5C23.836 35.5 22.8825 36.1905 22.1143 37.2918C21.3487 38.3895 20.7152 39.9623 20.1819 41.9047C19.1136 45.7962 18.408 51.3251 17.9388 57.9176C16.9997 71.1112 17 88.6941 17 106.25C17 123.819 16.9997 141.361 16.0638 154.511C15.5955 161.091 14.8948 166.538 13.8538 170.331C13.3323 172.23 12.7354 173.676 12.0655 174.636C11.3981 175.593 10.711 176 10 176L10 177C11.164 177 12.1175 176.309 12.8857 175.208C13.6513 174.111 14.2848 172.538 14.8181 170.595C15.8864 166.704 16.592 161.175 17.0612 154.582C18.0003 141.389 18 123.806 18 106.25C18 88.6809 18.0003 71.1388 18.9362 57.9886C19.4045 51.4093 20.1052 45.9617 21.1462 42.1695C21.6677 40.2701 22.2646 38.8244 22.9345 37.8639C23.6019 36.9072 24.289 36.5 25 36.5V35.5ZM25 316.5C24.289 316.5 23.6019 316.093 22.9345 315.136C22.2646 314.176 21.6677 312.73 21.1462 310.831C20.1052 307.038 19.4045 301.591 18.9362 295.011C18.0003 281.861 18 264.319 18 246.75C18 229.194 18.0003 211.611 17.0612 198.418C16.592 191.825 15.8864 186.296 14.8181 182.405C14.2848 180.462 13.6513 178.889 12.8857 177.792C12.1175 176.69 11.164 176 10 176L10 177C10.711 177 11.3981 177.407 12.0655 178.364C12.7354 179.324 13.3323 180.77 13.8538 182.669C14.8948 186.462 15.5955 191.909 16.0638 198.489C16.9997 211.639 17 229.181 17 246.75C17 264.306 16.9997 281.889 17.9388 295.082C18.408 301.675 19.1136 307.204 20.1819 311.095C20.7152 313.038 21.3487 314.611 22.1143 315.708C22.8825 316.81 23.836 317.5 25 317.5V316.5Z" fill="black"/>
<path d="M5 179.477C5 179.394 4.92187 179.328 4.80469 179.328C4.6289 179.328 4.60938 179.378 4.51172 179.658C4.00391 181.159 3.20313 181.67 2.55859 181.67C2.32422 181.67 2.05078 181.621 2.05078 181.126C2.05078 180.681 2.28516 180.186 2.5 179.691L3.86719 176.624C3.92578 176.492 4.0625 176.195 4.0625 175.882C4.0625 175.189 3.47656 174.562 2.51953 174.562C0.722655 174.562 0 176.954 0 177.085C0 177.151 0.0781256 177.234 0.214844 177.234C0.390624 177.234 0.410158 177.168 0.488284 176.937C0.957034 175.552 1.69921 174.892 2.46094 174.892C2.63672 174.892 2.96875 174.909 2.96875 175.436C2.96875 175.865 2.71484 176.409 2.55859 176.772L1.19141 179.84C1.07422 180.103 0.957034 180.367 0.957034 180.664C0.957034 181.406 1.5625 182 2.5 182C4.29687 182 5 179.592 5 179.477ZM4.84375 171.544C4.84375 171.297 4.60938 171 4.17969 171C3.73047 171 3.22265 171.363 3.22265 171.792C3.22265 172.204 3.63281 172.336 3.86719 172.336C4.39453 172.336 4.84375 171.907 4.84375 171.544Z" fill="black"/>
<path d="M59.4827 9.7816C59.0002 9.14064 58.3397 8.87178 57.6029 8.8822C56.8974 8.89218 56.1281 9.15576 55.35 9.5393C53.7926 10.307 51.9936 11.6635 50.25 12.9758C48.479 14.3087 46.7636 15.5974 45.3092 16.3143C44.5814 16.673 43.9705 16.8616 43.4844 16.8684C43.0296 16.8749 42.687 16.7253 42.4177 16.3676L41.6187 16.9689C42.1012 17.6099 42.7617 17.8788 43.4985 17.8683C44.204 17.8584 44.9733 17.5948 45.7513 17.2112C47.3088 16.4436 49.1078 15.0871 50.8514 13.7748C52.6224 12.4418 54.3378 11.1531 55.7922 10.4362C56.52 10.0775 57.1309 9.88898 57.617 9.8821C58.0718 9.87567 58.4144 10.0252 58.6837 10.383L59.4827 9.7816ZM31.3664 30.9434C31.0971 30.5856 31.0482 30.215 31.1802 29.7798C31.3214 29.3145 31.6716 28.7796 32.2178 28.1796C33.3091 26.9804 35.0222 25.6886 36.7932 24.3557C38.5368 23.0434 40.3382 21.69 41.5069 20.4058C42.0908 19.7643 42.557 19.098 42.7618 18.4228C42.9757 17.7177 42.9002 17.0086 42.4177 16.3676L41.6187 16.9689C41.888 17.3267 41.9369 17.6973 41.8049 18.1325C41.6637 18.5978 41.3135 19.1327 40.7673 19.7328C39.676 20.9319 37.9628 22.2237 36.1919 23.5567C34.4483 24.869 32.6469 26.2223 31.4782 27.5065C30.8943 28.148 30.4281 28.8143 30.2233 29.4895C30.0094 30.1947 30.0849 30.9038 30.5674 31.5447L31.3664 30.9434Z" fill="black"/>
<path d="M39.0391 12.5562C39.0391 12.4886 38.9851 12.4346 38.904 12.4346C38.7824 12.4346 38.7689 12.4751 38.7014 12.7048C38.3501 13.9343 37.7962 14.3531 37.3503 14.3531C37.1882 14.3531 36.999 14.3126 36.999 13.9073C36.999 13.5425 37.1611 13.1372 37.3098 12.7318L38.2555 10.2188C38.296 10.1107 38.3906 9.86755 38.3906 9.61084C38.3906 9.04339 37.9853 8.52998 37.3233 8.52998C36.0803 8.52998 35.5804 10.489 35.5804 10.5971C35.5804 10.6512 35.6344 10.7187 35.729 10.7187C35.8506 10.7187 35.8641 10.6647 35.9182 10.4755C36.2424 9.34063 36.7558 8.8002 37.2827 8.8002C37.4043 8.8002 37.634 8.8137 37.634 9.24605C37.634 9.59733 37.4584 10.0432 37.3503 10.3404L36.4045 12.8534C36.3235 13.0696 36.2424 13.2858 36.2424 13.529C36.2424 14.137 36.6612 14.6233 37.3098 14.6233C38.5528 14.6233 39.0391 12.6508 39.0391 12.5562ZM38.9311 6.05751C38.9311 5.85481 38.7689 5.61163 38.4717 5.61163C38.1609 5.61163 37.8097 5.90889 37.8097 6.26015C37.8097 6.59794 38.0934 6.70603 38.2555 6.70603C38.6203 6.70603 38.9311 6.35477 38.9311 6.05751Z" fill="black"/>
<path d="M34.5042 0.405208C34.5204 0.340344 34.5528 0.243112 34.5528 0.162097C34.5528 9.74355e-09 34.3907 0 34.3583 0C34.3421 0 33.548 0.064799 33.4669 0.0810152C33.1913 0.0972314 32.9482 0.129665 32.6565 0.145881C32.2513 0.178248 32.1379 0.194464 32.1379 0.486225C32.1379 0.648321 32.2675 0.648321 32.4944 0.648321C33.2886 0.648321 33.3048 0.794201 33.3048 0.956232C33.3048 1.05346 33.2724 1.18313 33.2562 1.23178L32.2675 5.17025C32.0892 4.74885 31.6516 4.10054 30.8088 4.10054C28.9773 4.10054 27 6.46688 27 8.86562C27 10.4702 27.94 11.4102 29.0422 11.4102C29.9336 11.4102 30.6954 10.7133 31.1492 10.1784C31.3113 11.1347 32.073 11.4102 32.5593 11.4102C33.0455 11.4102 33.4344 11.1185 33.7262 10.535C33.9855 9.98395 34.2124 8.99528 34.2124 8.93045C34.2124 8.84941 34.1476 8.78458 34.0504 8.78458C33.9045 8.78458 33.8883 8.86562 33.8234 9.10874C33.5803 10.065 33.2724 11.0861 32.6079 11.0861C32.1379 11.0861 32.1054 10.6647 32.1054 10.3405C32.1054 10.2757 32.1054 9.93533 32.2189 9.48151L34.5042 0.405208ZM31.2302 9.31943C31.1492 9.59497 31.1492 9.62738 30.9223 9.93533C30.5657 10.3891 29.8526 11.0861 29.0908 11.0861C28.4263 11.0861 28.0535 10.4864 28.0535 9.53013C28.0535 8.63871 28.5559 6.82344 28.8639 6.14272C29.4149 5.00818 30.1767 4.42473 30.8088 4.42473C31.8785 4.42473 32.0892 5.75374 32.0892 5.8834C32.0892 5.8996 32.0406 6.1103 32.0244 6.14272L31.2302 9.31943Z" fill="black"/>
<path d="M81.0406 336.13V336.827C82.0455 336.827 82.1589 336.827 82.1589 337.459V340.635C82.1589 341.867 81.4296 342.856 80.1654 342.856C78.9498 342.856 78.885 342.451 78.885 341.559V336L76 336.13V336.827C77.0049 336.827 77.1183 336.827 77.1183 337.459V341.3C77.1183 342.921 78.2043 343.391 79.9385 343.391C80.3275 343.391 81.5268 343.391 82.2238 342.078H82.24V343.391L85.0439 343.293V342.597C84.039 342.597 83.9256 342.597 83.9256 341.964V336L81.0406 336.13Z" fill="black"/>
<path d="M89.2348 344.636C89.2348 344.569 89.1807 344.515 89.0997 344.515C88.9781 344.515 88.9646 344.555 88.897 344.785C88.5457 346.014 87.9918 346.433 87.5459 346.433C87.3838 346.433 87.1947 346.393 87.1947 345.987C87.1947 345.623 87.3568 345.217 87.5054 344.812L88.4512 342.299C88.4917 342.191 88.5863 341.948 88.5863 341.691C88.5863 341.124 88.181 340.61 87.5189 340.61C86.2759 340.61 85.776 342.569 85.776 342.677C85.776 342.731 85.8301 342.799 85.9247 342.799C86.0462 342.799 86.0598 342.745 86.1138 342.556C86.4381 341.421 86.9515 340.88 87.4784 340.88C87.6 340.88 87.8297 340.894 87.8297 341.326C87.8297 341.677 87.654 342.123 87.5459 342.421L86.6002 344.934C86.5191 345.15 86.4381 345.366 86.4381 345.609C86.4381 346.217 86.8569 346.703 87.5054 346.703C88.7484 346.703 89.2348 344.731 89.2348 344.636ZM89.1267 338.138C89.1267 337.935 88.9646 337.692 88.6673 337.692C88.3566 337.692 88.0053 337.989 88.0053 338.34C88.0053 338.678 88.289 338.786 88.4512 338.786C88.816 338.786 89.1267 338.435 89.1267 338.138Z" fill="black"/>
<circle cx="83" cy="205" r="2" fill="black"/>
<circle cx="83" cy="213" r="2" fill="black"/>
<circle cx="83" cy="221" r="2" fill="black"/>
<path d="M265.307 11.2922C264.647 10.4161 263.685 10.1399 262.615 10.2501C261.569 10.3577 260.372 10.8332 259.104 11.5095C256.563 12.8652 253.547 15.1368 250.577 17.3719C247.585 19.6242 244.639 21.8401 242.182 23.151C240.95 23.8079 239.89 24.2104 239.039 24.298C238.214 24.3829 237.641 24.1713 237.248 23.6492L236.449 24.2506C237.109 25.1267 238.071 25.4029 239.142 25.2927C240.187 25.1851 241.385 24.7096 242.652 24.0333C245.193 22.6776 248.209 20.406 251.179 18.1709C254.171 15.9186 257.118 13.7027 259.575 12.3918C260.806 11.7349 261.866 11.3324 262.717 11.2448C263.542 11.1599 264.115 11.3715 264.508 11.8936L265.307 11.2922ZM217.609 47.192C217.216 46.6699 217.171 46.0612 217.481 45.2916C217.801 44.4982 218.481 43.5908 219.453 42.5894C221.393 40.5912 224.337 38.3732 227.33 36.1208C230.3 33.8857 233.317 31.6162 235.323 29.5497C236.324 28.5187 237.112 27.4995 237.505 26.5247C237.907 25.5263 237.908 24.5254 237.248 23.6492L236.449 24.2506C236.842 24.7727 236.887 25.3814 236.577 26.1511C236.258 26.9444 235.577 27.8519 234.605 28.8532C232.666 30.8514 229.721 33.0695 226.729 35.3218C223.759 37.557 220.741 39.8264 218.735 41.8929C217.735 42.9239 216.946 43.9431 216.554 44.9179C216.151 45.9164 216.151 46.9173 216.81 47.7934L217.609 47.192Z" fill="black"/>
<path d="M232.944 17.2053C232.998 16.9891 232.998 16.8 232.998 16.746C232.998 15.9623 232.417 15.53 231.809 15.53C230.445 15.53 229.715 17.5026 229.715 17.5971C229.715 17.6647 229.769 17.7187 229.85 17.7187C229.958 17.7187 229.972 17.6647 230.04 17.5296C230.58 16.219 231.256 15.8002 231.769 15.8002C232.053 15.8002 232.201 15.9488 232.201 16.4217C232.201 16.746 232.161 16.8811 232.107 17.1243L230.823 22.2178C230.566 23.2176 229.931 23.9742 229.188 23.9742C229.134 23.9742 228.851 23.9742 228.594 23.8391C228.918 23.7716 229.175 23.5149 229.175 23.1906C229.175 22.9744 229.013 22.7583 228.715 22.7583C228.364 22.7583 228.04 23.0555 228.04 23.4608C228.04 24.0148 228.634 24.2444 229.188 24.2444C230.121 24.2444 231.35 23.5554 231.688 22.2043L232.944 17.2053ZM233.498 13.0575C233.498 12.7197 233.215 12.6116 233.052 12.6116C232.688 12.6116 232.377 12.9629 232.377 13.2602C232.377 13.4629 232.539 13.706 232.836 13.706C233.147 13.706 233.498 13.4088 233.498 13.0575Z" fill="black"/>
<path d="M227.504 7.40521C227.52 7.34034 227.553 7.24311 227.553 7.1621C227.553 7 227.391 7 227.358 7C227.342 7 226.548 7.0648 226.467 7.08102C226.191 7.09723 225.948 7.12966 225.656 7.14588C225.251 7.17825 225.138 7.19446 225.138 7.48622C225.138 7.64832 225.268 7.64832 225.494 7.64832C226.289 7.64832 226.305 7.7942 226.305 7.95623C226.305 8.05346 226.272 8.18313 226.256 8.23178L225.268 12.1703C225.089 11.7489 224.652 11.1005 223.809 11.1005C221.977 11.1005 220 13.4669 220 15.8656C220 17.4702 220.94 18.4102 222.042 18.4102C222.934 18.4102 223.695 17.7133 224.149 17.1784C224.311 18.1347 225.073 18.4102 225.559 18.4102C226.045 18.4102 226.434 18.1185 226.726 17.535C226.986 16.984 227.212 15.9953 227.212 15.9304C227.212 15.8494 227.148 15.7846 227.05 15.7846C226.905 15.7846 226.888 15.8656 226.823 16.1087C226.58 17.065 226.272 18.0861 225.608 18.0861C225.138 18.0861 225.105 17.6647 225.105 17.3405C225.105 17.2757 225.105 16.9353 225.219 16.4815L227.504 7.40521ZM224.23 16.3194C224.149 16.595 224.149 16.6274 223.922 16.9353C223.566 17.3891 222.853 18.0861 222.091 18.0861C221.426 18.0861 221.054 17.4864 221.054 16.5301C221.054 15.6387 221.556 13.8234 221.864 13.1427C222.415 12.0082 223.177 11.4247 223.809 11.4247C224.879 11.4247 225.089 12.7537 225.089 12.8834C225.089 12.8996 225.041 13.1103 225.024 13.1427L224.23 16.3194Z" fill="black"/>
<path d="M178.51 255.08C178.623 254.79 178.655 254.693 180.01 254.693V254C179.203 254.032 179.171 254.032 178.252 254.032C177.784 254.032 176.608 254.032 176.221 254V254.693C176.414 254.693 177.833 254.693 177.833 254.919C177.833 254.935 177.833 254.967 177.768 255.112L175.06 262.303L172.174 254.693H173.705V254C173.189 254.032 171.69 254.032 171.077 254.032C170.577 254.032 169.014 254.032 168.627 254V254.693H169.981L170.642 256.435L168.433 262.303L165.563 254.693H167.079V254C166.611 254.032 165.031 254.032 164.451 254.032C163.935 254.032 162.403 254.032 162 254V254.693H163.354L167.192 264.819C167.288 265.093 167.337 265.206 167.691 265.206C168.046 265.206 168.095 265.093 168.191 264.835L170.997 257.402L173.818 264.835C173.915 265.093 173.963 265.206 174.318 265.206C174.624 265.206 174.705 265.141 174.818 264.835L178.51 255.08Z" fill="black"/>
<path d="M184.115 266.396C184.115 266.329 184.061 266.275 183.98 266.275C183.859 266.275 183.846 266.316 183.779 266.544C183.429 267.767 182.878 268.184 182.434 268.184C182.273 268.184 182.085 268.143 182.085 267.74C182.085 267.377 182.246 266.974 182.394 266.571L183.335 264.071C183.375 263.964 183.469 263.722 183.469 263.466C183.469 262.902 183.066 262.391 182.408 262.391C181.171 262.391 180.674 264.34 180.674 264.447C180.674 264.501 180.728 264.568 180.822 264.568C180.943 264.568 180.956 264.515 181.01 264.326C181.332 263.197 181.843 262.66 182.367 262.66C182.488 262.66 182.717 262.673 182.717 263.103C182.717 263.453 182.542 263.896 182.434 264.192L181.494 266.692C181.413 266.907 181.332 267.122 181.332 267.364C181.332 267.969 181.749 268.453 182.394 268.453C183.631 268.453 184.115 266.49 184.115 266.396ZM184.007 259.932C184.007 259.73 183.846 259.488 183.55 259.488C183.241 259.488 182.891 259.784 182.891 260.133C182.891 260.469 183.174 260.577 183.335 260.577C183.698 260.577 184.007 260.227 184.007 259.932Z" fill="black"/>
<path d="M189.488 264.058C189.541 263.843 189.541 263.654 189.541 263.601C189.541 262.821 188.963 262.391 188.359 262.391C187.001 262.391 186.275 264.353 186.275 264.447C186.275 264.515 186.329 264.568 186.41 264.568C186.517 264.568 186.531 264.515 186.598 264.38C187.136 263.077 187.808 262.66 188.318 262.66C188.601 262.66 188.748 262.808 188.748 263.278C188.748 263.601 188.708 263.735 188.654 263.977L187.378 269.044C187.122 270.039 186.49 270.791 185.751 270.791C185.698 270.791 185.415 270.791 185.16 270.657C185.482 270.59 185.738 270.334 185.738 270.012C185.738 269.797 185.577 269.582 185.281 269.582C184.931 269.582 184.609 269.877 184.609 270.28C184.609 270.832 185.2 271.06 185.751 271.06C186.679 271.06 187.902 270.375 188.238 269.031L189.488 264.058ZM190.039 259.932C190.039 259.595 189.756 259.488 189.595 259.488C189.232 259.488 188.923 259.837 188.923 260.133C188.923 260.335 189.084 260.577 189.38 260.577C189.689 260.577 190.039 260.281 190.039 259.932Z" fill="black"/>
<path d="M178.51 136.08C178.623 135.79 178.655 135.693 180.01 135.693V135C179.203 135.032 179.171 135.032 178.252 135.032C177.784 135.032 176.608 135.032 176.221 135V135.693C176.414 135.693 177.833 135.693 177.833 135.919C177.833 135.935 177.833 135.967 177.768 136.112L175.06 143.303L172.174 135.693H173.705V135C173.189 135.032 171.69 135.032 171.077 135.032C170.577 135.032 169.014 135.032 168.627 135V135.693H169.981L170.642 137.435L168.433 143.303L165.563 135.693H167.079V135C166.611 135.032 165.031 135.032 164.451 135.032C163.935 135.032 162.403 135.032 162 135V135.693H163.354L167.192 145.819C167.288 146.093 167.337 146.206 167.691 146.206C168.046 146.206 168.095 146.093 168.191 145.835L170.997 138.402L173.818 145.835C173.915 146.093 173.963 146.206 174.318 146.206C174.624 146.206 174.705 146.141 174.818 145.835L178.51 136.08Z" fill="black"/>
<path d="M185.915 147.235H185.674C185.539 148.189 185.432 148.351 185.378 148.431C185.311 148.539 184.343 148.539 184.155 148.539H181.574C182.058 148.015 182.999 147.06 184.141 145.958C184.961 145.179 185.915 144.265 185.915 142.934C185.915 141.348 184.652 140.434 183.241 140.434C181.762 140.434 180.862 141.738 180.862 142.948C180.862 143.472 181.252 143.539 181.413 143.539C181.547 143.539 181.951 143.458 181.951 142.988C181.951 142.571 181.601 142.45 181.413 142.45C181.332 142.45 181.252 142.464 181.198 142.491C181.453 141.348 182.233 140.784 183.053 140.784C184.222 140.784 184.988 141.711 184.988 142.934C184.988 144.103 184.303 145.111 183.537 145.985L180.862 149.009V149.318H185.593L185.915 147.235Z" fill="black"/>
<path d="M191.156 145.058C191.21 144.843 191.21 144.654 191.21 144.601C191.21 143.821 190.632 143.391 190.027 143.391C188.669 143.391 187.944 145.353 187.944 145.447C187.944 145.515 187.997 145.568 188.078 145.568C188.186 145.568 188.199 145.515 188.266 145.38C188.804 144.077 189.476 143.66 189.987 143.66C190.269 143.66 190.417 143.808 190.417 144.278C190.417 144.601 190.376 144.735 190.323 144.977L189.046 150.044C188.79 151.039 188.159 151.791 187.42 151.791C187.366 151.791 187.084 151.791 186.828 151.657C187.151 151.59 187.406 151.334 187.406 151.012C187.406 150.797 187.245 150.582 186.949 150.582C186.6 150.582 186.277 150.877 186.277 151.28C186.277 151.832 186.868 152.06 187.42 152.06C188.347 152.06 189.57 151.375 189.906 150.031L191.156 145.058ZM191.707 140.931C191.707 140.595 191.425 140.488 191.263 140.488C190.901 140.488 190.591 140.837 190.591 141.133C190.591 141.335 190.753 141.577 191.048 141.577C191.358 141.577 191.707 141.281 191.707 140.931Z" fill="black"/>
<path d="M178.51 47.0802C178.623 46.79 178.655 46.6933 180.01 46.6933V46C179.203 46.0323 179.171 46.0323 178.252 46.0323C177.784 46.0323 176.608 46.0323 176.221 46V46.6933C176.414 46.6933 177.833 46.6933 177.833 46.919C177.833 46.9351 177.833 46.9674 177.768 47.1125L175.06 54.3034L172.174 46.6933H173.705V46C173.189 46.0323 171.69 46.0323 171.077 46.0323C170.577 46.0323 169.014 46.0323 168.627 46V46.6933H169.981L170.642 48.4346L168.433 54.3034L165.563 46.6933H167.079V46C166.611 46.0323 165.031 46.0323 164.451 46.0323C163.935 46.0323 162.403 46.0323 162 46V46.6933H163.354L167.192 56.8186C167.288 57.0927 167.337 57.2055 167.691 57.2055C168.046 57.2055 168.095 57.0927 168.191 56.8347L170.997 49.4019L173.818 56.8347C173.915 57.0927 173.963 57.2055 174.318 57.2055C174.624 57.2055 174.705 57.141 174.818 56.8347L178.51 47.0802Z" fill="black"/>
<path d="M183.886 51.7299C183.886 51.4476 183.873 51.4342 183.684 51.4342C183.16 52.0659 182.367 52.2675 181.615 52.2944C181.574 52.2944 181.507 52.2944 181.494 52.3213C181.48 52.3481 181.48 52.3751 181.48 52.6573C181.897 52.6573 182.596 52.5766 183.133 52.2541V59.3371C183.133 59.8075 183.106 59.9688 181.951 59.9688H181.547V60.3182C182.193 60.3048 182.865 60.2913 183.51 60.2913C184.155 60.2913 184.827 60.3048 185.472 60.3182V59.9688H185.069C183.913 59.9688 183.886 59.8209 183.886 59.3371V51.7299Z" fill="black"/>
<path d="M191.156 56.0576C191.21 55.8426 191.21 55.6544 191.21 55.6007C191.21 54.8211 190.632 54.391 190.027 54.391C188.669 54.391 187.944 56.3533 187.944 56.4474C187.944 56.5146 187.997 56.5684 188.078 56.5684C188.186 56.5684 188.199 56.5146 188.266 56.3802C188.804 55.0765 189.476 54.6599 189.987 54.6599C190.269 54.6599 190.417 54.8077 190.417 55.2781C190.417 55.6007 190.376 55.7351 190.323 55.977L189.046 61.044C188.79 62.0385 188.159 62.7912 187.42 62.7912C187.366 62.7912 187.084 62.7912 186.828 62.6568C187.151 62.5896 187.406 62.3342 187.406 62.0117C187.406 61.7966 187.245 61.5816 186.949 61.5816C186.6 61.5816 186.277 61.8772 186.277 62.2805C186.277 62.8315 186.868 63.06 187.42 63.06C188.347 63.06 189.57 62.3745 189.906 61.0305L191.156 56.0576ZM191.707 51.9315C191.707 51.5955 191.425 51.4879 191.263 51.4879C190.901 51.4879 190.591 51.8374 190.591 52.1331C190.591 52.3347 190.753 52.5766 191.048 52.5766C191.358 52.5766 191.707 52.2809 191.707 51.9315Z" fill="black"/>
<path d="M262.571 329.956L266.979 331.95L267.174 331.593L262.587 329L258 331.593L258.178 331.95L262.571 329.956Z" fill="black"/>
<path d="M263.24 334.12V334.817C264.244 334.817 264.358 334.817 264.358 335.449V338.626C264.358 339.857 263.629 340.846 262.364 340.846C261.149 340.846 261.084 340.441 261.084 339.549V333.99L258.199 334.12V334.817C259.204 334.817 259.317 334.817 259.317 335.449V339.29C259.317 340.911 260.403 341.381 262.138 341.381C262.526 341.381 263.726 341.381 264.423 340.068H264.439V341.381L267.243 341.284V340.587C266.238 340.587 266.125 340.587 266.125 339.955V333.99L263.24 334.12Z" fill="black"/>
<path d="M272.339 341.551C272.393 341.335 272.393 341.146 272.393 341.092C272.393 340.308 271.812 339.876 271.204 339.876C269.84 339.876 269.11 341.848 269.11 341.943C269.11 342.011 269.164 342.065 269.245 342.065C269.353 342.065 269.367 342.011 269.434 341.875C269.975 340.565 270.65 340.146 271.164 340.146C271.447 340.146 271.596 340.295 271.596 340.768C271.596 341.092 271.555 341.227 271.501 341.47L270.218 346.564C269.961 347.563 269.326 348.32 268.583 348.32C268.529 348.32 268.245 348.32 267.989 348.185C268.313 348.117 268.57 347.861 268.57 347.536C268.57 347.32 268.407 347.104 268.11 347.104C267.759 347.104 267.435 347.401 267.435 347.807C267.435 348.361 268.029 348.59 268.583 348.59C269.515 348.59 270.745 347.901 271.083 346.55L272.339 341.551ZM272.893 337.403C272.893 337.066 272.609 336.958 272.447 336.958C272.082 336.958 271.772 337.309 271.772 337.606C271.772 337.809 271.934 338.052 272.231 338.052C272.542 338.052 272.893 337.755 272.893 337.403Z" fill="black"/>
<path d="M275.971 336.187C275.971 335.944 275.971 335.701 275.701 335.701C275.431 335.701 275.431 335.944 275.431 336.187V348.725C275.431 348.969 275.431 349.212 275.701 349.212C275.971 349.212 275.971 348.969 275.971 348.725V336.187Z" fill="black"/>
<path d="M281.386 343.902C281.386 343.835 281.331 343.78 281.25 343.78C281.129 343.78 281.115 343.821 281.048 344.051C280.696 345.28 280.143 345.699 279.697 345.699C279.535 345.699 279.345 345.658 279.345 345.253C279.345 344.888 279.508 344.483 279.656 344.078L280.602 341.565C280.642 341.457 280.737 341.213 280.737 340.957C280.737 340.389 280.332 339.876 279.67 339.876C278.427 339.876 277.927 341.835 277.927 341.943C277.927 341.997 277.981 342.065 278.075 342.065C278.197 342.065 278.21 342.011 278.265 341.821C278.589 340.686 279.102 340.146 279.629 340.146C279.751 340.146 279.98 340.16 279.98 340.592C279.98 340.943 279.805 341.389 279.697 341.686L278.751 344.199C278.67 344.415 278.589 344.632 278.589 344.875C278.589 345.483 279.008 345.969 279.656 345.969C280.899 345.969 281.386 343.997 281.386 343.902ZM281.277 337.403C281.277 337.201 281.115 336.958 280.818 336.958C280.507 336.958 280.156 337.255 280.156 337.606C280.156 337.944 280.44 338.052 280.602 338.052C280.967 338.052 281.277 337.701 281.277 337.403Z" fill="black"/>
<circle cx="270" cy="205" r="2" fill="black"/>
<circle cx="270" cy="213" r="2" fill="black"/>
<circle cx="270" cy="221" r="2" fill="black"/>
<path d="M271 102H221V52L269 16H319V66L271 102Z" fill="white"/>
<path d="M221 52H271M221 52V102H271M221 52L269 16H319M271 52V102M271 52L319 16M271 102L319 66V16" stroke="#32ACF1" stroke-width="2"/>
<path d="M271 196H221V146L269 110H319V160L271 196Z" fill="white"/>
<path d="M221 146H271M221 146V196H271M221 146L269 110H319M271 146V196M271 146L319 110M271 196L319 160V110" stroke="#32ACF1" stroke-width="2"/>
<path d="M271 315H221V265L269 229H319V279L271 315Z" fill="white"/>
<path d="M221 265H271M221 265V315H271M221 265L269 229H319M271 265V315M271 265L319 229M271 315L319 279V229" stroke="#32ACF1" stroke-width="2"/>
<path d="M434.114 121.487C434.383 121.424 434.55 121.155 434.487 120.886L433.459 116.505C433.396 116.236 433.127 116.069 432.858 116.132C432.589 116.195 432.422 116.464 432.486 116.733L433.399 120.627L429.505 121.541C429.236 121.604 429.069 121.873 429.132 122.142C429.195 122.411 429.464 122.578 429.733 122.514L434.114 121.487ZM333.737 59.425L433.737 121.425L434.263 120.575L334.263 58.575L333.737 59.425Z" fill="black"/>
<path d="M434.313 164.39C434.528 164.217 434.563 163.903 434.39 163.687L431.575 160.176C431.402 159.961 431.088 159.926 430.872 160.099C430.657 160.272 430.622 160.587 430.795 160.802L433.297 163.923L430.176 166.425C429.961 166.598 429.926 166.912 430.099 167.128C430.272 167.343 430.587 167.378 430.802 167.205L434.313 164.39ZM333.945 153.497L433.945 164.497L434.055 163.503L334.055 152.503L333.945 153.497Z" fill="black"/>
<path d="M434.489 207.104C434.546 206.834 434.374 206.568 434.104 206.511L429.702 205.577C429.432 205.52 429.166 205.692 429.109 205.962C429.052 206.233 429.224 206.498 429.494 206.555L433.407 207.385L432.577 211.298C432.52 211.568 432.692 211.834 432.962 211.891C433.233 211.948 433.498 211.776 433.555 211.506L434.489 207.104ZM334.272 272.419L434.272 207.419L433.727 206.581L333.728 271.581L334.272 272.419Z" fill="black"/>
<path d="M497.494 336.421C497.494 336.113 497.494 336 497.251 336C497.154 336 497.122 336 496.879 336.146C496.814 336.194 496.635 336.308 496.554 336.357C496.101 336.097 495.501 336 494.917 336C494.431 336 492 336 492 338.107C492 339.809 494.01 340.165 494.512 340.246C494.95 340.327 495.485 340.425 495.549 340.425C496.198 340.571 496.846 340.976 496.846 341.656C496.846 342.904 495.371 342.904 495.031 342.904C494.204 342.904 493.183 342.645 492.729 341.073C492.632 340.749 492.616 340.733 492.34 340.733C492 340.733 492 340.781 492 341.154V343.018C492 343.326 492 343.439 492.243 343.439C492.357 343.439 492.389 343.439 492.713 343.18L493.135 342.872C493.864 343.439 494.739 343.439 495.031 343.439C495.922 343.439 497.948 343.245 497.948 341.089C497.948 340.311 497.527 339.776 497.203 339.485C496.538 338.934 495.987 338.836 495.112 338.674C494.075 338.496 493.102 338.318 493.102 337.54C493.102 336.486 494.545 336.486 494.885 336.486C496.684 336.486 496.781 337.621 496.814 338.026C496.83 338.237 496.96 338.237 497.154 338.237C497.494 338.237 497.494 338.188 497.494 337.815V336.421Z" fill="black"/>
<path d="M503.278 342.334C503.332 342.118 503.332 341.929 503.332 341.875C503.332 341.091 502.751 340.659 502.143 340.659C500.779 340.659 500.049 342.631 500.049 342.726C500.049 342.793 500.103 342.847 500.184 342.847C500.292 342.847 500.306 342.793 500.373 342.658C500.914 341.348 501.589 340.929 502.103 340.929C502.386 340.929 502.535 341.078 502.535 341.55C502.535 341.875 502.495 342.01 502.441 342.253L501.157 347.347C500.9 348.346 500.265 349.103 499.522 349.103C499.468 349.103 499.184 349.103 498.928 348.968C499.252 348.9 499.509 348.644 499.509 348.319C499.509 348.103 499.347 347.887 499.049 347.887C498.698 347.887 498.374 348.184 498.374 348.59C498.374 349.143 498.968 349.373 499.522 349.373C500.454 349.373 501.684 348.684 502.022 347.333L503.278 342.334ZM503.832 338.186C503.832 337.848 503.548 337.74 503.386 337.74C503.021 337.74 502.711 338.092 502.711 338.389C502.711 338.592 502.873 338.835 503.17 338.835C503.481 338.835 503.832 338.538 503.832 338.186Z" fill="black"/>
<path d="M499 207H449V157L497 121H547V171L499 207Z" fill="white"/>
<path d="M449 157H499M449 157V207H499M449 157L497 121H547M499 157V207M499 157L547 121M499 207L547 171V121" stroke="#32ACF1" stroke-width="2"/>
<path d="M622.354 159.354C622.549 159.158 622.549 158.842 622.354 158.646L619.172 155.464C618.976 155.269 618.66 155.269 618.464 155.464C618.269 155.66 618.269 155.976 618.464 156.172L621.293 159L618.464 161.828C618.269 162.024 618.269 162.34 618.464 162.536C618.66 162.731 618.976 162.731 619.172 162.536L622.354 159.354ZM562 159.5H622V158.5H562V159.5Z" fill="black"/>
<path d="M575.603 145.409C575.603 145.117 575.587 145.101 575.49 145.101C575.425 145.101 575.409 145.117 575.214 145.36C575.165 145.425 575.02 145.587 574.971 145.652C574.452 145.101 573.723 145.084 573.447 145.084C571.648 145.084 571 146.024 571 146.964C571 148.423 572.653 148.763 573.123 148.861C574.144 149.071 574.501 149.136 574.841 149.428C575.052 149.623 575.409 149.979 575.409 150.563C575.409 151.243 575.02 152.118 573.528 152.118C572.118 152.118 571.616 151.049 571.324 149.623C571.276 149.396 571.276 149.379 571.146 149.379C571.016 149.379 571 149.396 571 149.72V152.054C571 152.345 571.016 152.362 571.113 152.362C571.194 152.362 571.211 152.345 571.292 152.216C571.389 152.07 571.632 151.681 571.729 151.519C572.053 151.956 572.621 152.378 573.528 152.378C575.133 152.378 575.992 151.503 575.992 150.238C575.992 149.412 575.554 148.974 575.344 148.78C574.857 148.277 574.29 148.164 573.609 148.034C572.718 147.84 571.583 147.613 571.583 146.624C571.583 146.203 571.81 145.311 573.447 145.311C575.182 145.311 575.279 146.932 575.311 147.451C575.327 147.532 575.409 147.548 575.457 147.548C575.603 147.548 575.603 147.499 575.603 147.224V145.409Z" fill="black"/>
<path d="M583.059 145.149H582.799L582.313 146.754C581.94 145.895 581.26 145.149 580.174 145.149C578.521 145.149 576.932 146.624 576.932 148.764C576.932 150.887 578.423 152.378 580.044 152.378C581.292 152.378 581.989 151.422 582.2 151.065V154.29C582.2 154.906 582.135 154.987 581.098 154.987V155.409C581.487 155.376 582.2 155.376 582.621 155.376C583.043 155.376 583.772 155.376 584.161 155.409V154.987C583.124 154.987 583.059 154.922 583.059 154.29V145.149ZM582.232 150.028C582.232 150.725 581.649 151.373 581.6 151.422C581.098 151.989 580.514 152.119 580.125 152.119C578.91 152.119 577.97 150.579 577.97 148.78C577.97 146.883 579.039 145.441 580.287 145.441C581.584 145.441 582.232 146.916 582.232 147.759V150.028Z" fill="black"/>
<path d="M588.99 145.327V145.749C589.946 145.749 590.092 145.846 590.092 146.624V149.574C590.092 150.935 589.362 152.119 588.163 152.119C586.834 152.119 586.721 151.324 586.721 150.482V145.149L584.759 145.327V145.749C585.408 145.749 585.845 145.749 585.862 146.397V149.509C585.862 150.595 585.862 151.292 586.283 151.746C586.494 151.956 586.899 152.378 588.066 152.378C589.443 152.378 589.978 151.211 590.108 150.871H590.124V152.378L592.053 152.248V151.827C591.097 151.827 590.951 151.73 590.951 150.952V145.149L588.99 145.327Z" fill="black"/>
<path d="M598.308 148.05C598.308 146.981 598.308 146.413 597.628 145.781C597.028 145.246 596.331 145.084 595.78 145.084C594.499 145.084 593.576 146.089 593.576 147.159C593.576 147.759 594.062 147.791 594.159 147.791C594.37 147.791 594.743 147.661 594.743 147.208C594.743 146.802 594.435 146.624 594.159 146.624C594.094 146.624 594.013 146.64 593.965 146.656C594.305 145.635 595.18 145.344 595.747 145.344C596.558 145.344 597.449 146.057 597.449 147.418V148.131C596.493 148.164 595.342 148.293 594.435 148.78C593.414 149.347 593.122 150.157 593.122 150.773C593.122 152.021 594.581 152.378 595.44 152.378C596.331 152.378 597.158 151.875 597.514 150.952C597.547 151.665 598 152.313 598.713 152.313C599.054 152.313 599.913 152.086 599.913 150.806V149.898H599.621V150.822C599.621 151.811 599.183 151.94 598.973 151.94C598.308 151.94 598.308 151.097 598.308 150.384V148.05ZM597.449 149.995C597.449 151.405 596.444 152.118 595.553 152.118C594.743 152.118 594.11 151.519 594.11 150.773C594.11 150.287 594.321 149.428 595.261 148.909C596.039 148.472 596.931 148.407 597.449 148.375V149.995Z" fill="black"/>
<path d="M604.887 145.409C604.887 145.117 604.871 145.101 604.774 145.101C604.709 145.101 604.693 145.117 604.498 145.36C604.45 145.425 604.304 145.587 604.255 145.652C603.737 145.101 603.007 145.084 602.732 145.084C600.933 145.084 600.284 146.024 600.284 146.964C600.284 148.423 601.938 148.763 602.408 148.861C603.429 149.071 603.785 149.136 604.126 149.428C604.336 149.623 604.693 149.979 604.693 150.563C604.693 151.243 604.304 152.118 602.813 152.118C601.403 152.118 600.9 151.049 600.609 149.623C600.56 149.396 600.56 149.379 600.43 149.379C600.301 149.379 600.284 149.396 600.284 149.72V152.054C600.284 152.345 600.301 152.362 600.398 152.362C600.479 152.362 600.495 152.345 600.576 152.216C600.673 152.07 600.917 151.681 601.014 151.519C601.338 151.956 601.905 152.378 602.813 152.378C604.417 152.378 605.276 151.503 605.276 150.238C605.276 149.412 604.839 148.974 604.628 148.78C604.142 148.277 603.575 148.164 602.894 148.034C602.002 147.84 600.868 147.613 600.868 146.624C600.868 146.203 601.095 145.311 602.732 145.311C604.466 145.311 604.563 146.932 604.596 147.451C604.612 147.532 604.693 147.548 604.742 147.548C604.887 147.548 604.887 147.499 604.887 147.224V145.409Z" fill="black"/>
<path d="M612.408 147.321C612.408 146.494 612.246 145.149 610.333 145.149C609.004 145.149 608.356 146.219 608.162 146.754H608.145V141L606.217 141.178V141.6C607.173 141.6 607.319 141.697 607.319 142.475V151.13C607.319 151.746 607.254 151.827 606.217 151.827V152.248C606.606 152.216 607.319 152.216 607.74 152.216C608.162 152.216 608.891 152.216 609.28 152.248V151.827C608.243 151.827 608.178 151.762 608.178 151.13V148.018C608.178 146.527 609.085 145.409 610.22 145.409C611.419 145.409 611.549 146.478 611.549 147.256V151.13C611.549 151.746 611.484 151.827 610.447 151.827V152.248C610.836 152.216 611.549 152.216 611.97 152.216C612.392 152.216 613.121 152.216 613.51 152.248V151.827C612.473 151.827 612.408 151.762 612.408 151.13V147.321Z" fill="black"/>
<path d="M686.634 337.07C686.747 336.827 686.812 336.697 687.833 336.697V336C687.25 336.032 687.217 336.032 686.553 336.032C686.115 336.032 686.083 336.032 685.159 336V336.697C685.597 336.697 685.953 336.778 685.953 336.891C685.953 336.908 685.953 336.924 685.872 337.086L683.976 341.251L681.885 336.697H682.776V336C682.404 336.032 681.269 336.032 680.831 336.032C680.361 336.032 679.421 336.032 679 336V336.697H680.021L682.874 342.888C683.02 343.196 683.052 343.277 683.425 343.277C683.684 343.277 683.814 343.245 683.96 342.921L686.634 337.07Z" fill="black"/>
<path d="M692.927 342.188C692.981 341.972 692.981 341.783 692.981 341.729C692.981 340.945 692.4 340.513 691.792 340.513C690.428 340.513 689.698 342.485 689.698 342.58C689.698 342.648 689.752 342.702 689.833 342.702C689.941 342.702 689.955 342.648 690.022 342.512C690.563 341.202 691.238 340.783 691.752 340.783C692.035 340.783 692.184 340.932 692.184 341.405C692.184 341.729 692.144 341.864 692.09 342.107L690.806 347.201C690.549 348.201 689.914 348.957 689.171 348.957C689.117 348.957 688.833 348.957 688.577 348.822C688.901 348.754 689.158 348.498 689.158 348.174C689.158 347.957 688.996 347.741 688.698 347.741C688.347 347.741 688.023 348.038 688.023 348.444C688.023 348.998 688.617 349.227 689.171 349.227C690.103 349.227 691.333 348.538 691.671 347.187L692.927 342.188ZM693.481 338.04C693.481 337.703 693.197 337.595 693.035 337.595C692.67 337.595 692.36 337.946 692.36 338.243C692.36 338.446 692.522 338.689 692.819 338.689C693.13 338.689 693.481 338.392 693.481 338.04Z" fill="black"/>
<path d="M687 207H637V157L685 121H735V171L687 207Z" fill="white"/>
<path d="M637 157H687M637 157V207H687M637 157L685 121H735M687 157V207M687 157L735 121M687 207L735 171V121" stroke="#32ACF1" stroke-width="2"/>
<path d="M381.689 221.054C381.381 221.054 381.235 221.054 381.008 221.248C380.911 221.329 380.733 221.572 380.733 221.831C380.733 222.156 380.976 222.35 381.284 222.35C381.673 222.35 382.11 222.026 382.11 221.378C382.11 220.6 381.365 220 380.246 220C378.123 220 376 222.318 376 224.619C376 226.029 376.875 227.31 378.528 227.31C380.733 227.31 382.127 225.592 382.127 225.381C382.127 225.284 382.029 225.203 381.964 225.203C381.916 225.203 381.9 225.219 381.754 225.365C380.716 226.742 379.177 226.986 378.561 226.986C377.442 226.986 377.086 226.013 377.086 225.203C377.086 224.635 377.361 223.063 377.945 221.961C378.366 221.199 379.242 220.324 380.263 220.324C380.473 220.324 381.365 220.357 381.689 221.054Z" fill="black"/>
<path d="M386.641 228.208C386.641 228.141 386.587 228.087 386.506 228.087C386.385 228.087 386.372 228.128 386.305 228.356C385.955 229.579 385.404 229.996 384.961 229.996C384.799 229.996 384.611 229.956 384.611 229.552C384.611 229.189 384.773 228.786 384.92 228.383L385.861 225.883C385.901 225.776 385.996 225.534 385.996 225.278C385.996 224.714 385.592 224.203 384.934 224.203C383.697 224.203 383.2 226.152 383.2 226.259C383.2 226.313 383.254 226.38 383.348 226.38C383.469 226.38 383.482 226.327 383.536 226.138C383.859 225.01 384.369 224.472 384.893 224.472C385.014 224.472 385.243 224.485 385.243 224.915C385.243 225.265 385.068 225.708 384.961 226.004L384.02 228.504C383.939 228.719 383.859 228.934 383.859 229.176C383.859 229.781 384.275 230.265 384.92 230.265C386.157 230.265 386.641 228.302 386.641 228.208ZM386.533 221.744C386.533 221.542 386.372 221.3 386.076 221.3C385.767 221.3 385.418 221.596 385.418 221.945C385.418 222.281 385.7 222.389 385.861 222.389C386.224 222.389 386.533 222.039 386.533 221.744Z" fill="black"/>
<path d="M392.014 225.87C392.068 225.655 392.068 225.466 392.068 225.413C392.068 224.633 391.49 224.203 390.885 224.203C389.527 224.203 388.802 226.165 388.802 226.259C388.802 226.327 388.855 226.38 388.936 226.38C389.044 226.38 389.057 226.327 389.124 226.192C389.662 224.889 390.334 224.472 390.845 224.472C391.127 224.472 391.275 224.62 391.275 225.09C391.275 225.413 391.234 225.547 391.181 225.789L389.904 230.856C389.648 231.851 389.017 232.603 388.277 232.603C388.224 232.603 387.941 232.603 387.686 232.469C388.009 232.402 388.264 232.146 388.264 231.824C388.264 231.609 388.103 231.394 387.807 231.394C387.458 231.394 387.135 231.689 387.135 232.092C387.135 232.644 387.726 232.872 388.277 232.872C389.205 232.872 390.428 232.187 390.764 230.843L392.014 225.87ZM392.565 221.744C392.565 221.408 392.283 221.3 392.121 221.3C391.759 221.3 391.449 221.649 391.449 221.945C391.449 222.147 391.611 222.389 391.906 222.389C392.215 222.389 392.565 222.093 392.565 221.744Z" fill="black"/>
<path d="M380.689 144.054C380.381 144.054 380.235 144.054 380.008 144.248C379.911 144.329 379.733 144.572 379.733 144.831C379.733 145.156 379.976 145.35 380.284 145.35C380.673 145.35 381.11 145.026 381.11 144.378C381.11 143.6 380.365 143 379.246 143C377.123 143 375 145.318 375 147.619C375 149.029 375.875 150.31 377.528 150.31C379.733 150.31 381.127 148.592 381.127 148.381C381.127 148.284 381.029 148.203 380.964 148.203C380.916 148.203 380.9 148.219 380.754 148.365C379.716 149.742 378.177 149.986 377.561 149.986C376.442 149.986 376.086 149.013 376.086 148.203C376.086 147.635 376.361 146.063 376.945 144.961C377.366 144.199 378.242 143.324 379.263 143.324C379.473 143.324 380.365 143.357 380.689 144.054Z" fill="black"/>
<path d="M386.754 151.201H386.512C386.377 152.155 386.27 152.316 386.216 152.397C386.149 152.504 385.181 152.504 384.993 152.504H382.412C382.896 151.98 383.837 151.026 384.979 149.924C385.799 149.144 386.754 148.23 386.754 146.9C386.754 145.314 385.49 144.4 384.079 144.4C382.601 144.4 381.7 145.704 381.7 146.913C381.7 147.437 382.09 147.505 382.251 147.505C382.385 147.505 382.789 147.424 382.789 146.954C382.789 146.537 382.439 146.416 382.251 146.416C382.17 146.416 382.09 146.429 382.036 146.456C382.291 145.314 383.071 144.749 383.891 144.749C385.06 144.749 385.826 145.677 385.826 146.9C385.826 148.069 385.141 149.077 384.375 149.951L381.7 152.975V153.284H386.431L386.754 151.201Z" fill="black"/>
<path d="M391.994 149.023C392.048 148.808 392.048 148.62 392.048 148.566C392.048 147.787 391.47 147.357 390.865 147.357C389.507 147.357 388.782 149.319 388.782 149.413C388.782 149.48 388.835 149.534 388.916 149.534C389.024 149.534 389.037 149.48 389.104 149.346C389.642 148.042 390.314 147.626 390.825 147.626C391.107 147.626 391.255 147.773 391.255 148.244C391.255 148.566 391.214 148.701 391.161 148.943L389.884 154.01C389.628 155.004 388.997 155.757 388.258 155.757C388.204 155.757 387.922 155.757 387.666 155.623C387.989 155.555 388.244 155.3 388.244 154.977C388.244 154.762 388.083 154.547 387.787 154.547C387.438 154.547 387.115 154.843 387.115 155.246C387.115 155.797 387.706 156.026 388.258 156.026C389.185 156.026 390.408 155.34 390.744 153.996L391.994 149.023ZM392.545 144.897C392.545 144.561 392.263 144.454 392.101 144.454C391.739 144.454 391.429 144.803 391.429 145.099C391.429 145.301 391.591 145.542 391.886 145.542C392.196 145.542 392.545 145.247 392.545 144.897Z" fill="black"/>
<path d="M380.689 75.0535C380.381 75.0535 380.235 75.0535 380.008 75.248C379.911 75.329 379.733 75.5722 379.733 75.8315C379.733 76.1556 379.976 76.3501 380.284 76.3501C380.673 76.3501 381.11 76.026 381.11 75.3777C381.11 74.5997 380.365 74 379.246 74C377.123 74 375 76.3177 375 78.6192C375 80.0293 375.875 81.3097 377.528 81.3097C379.733 81.3097 381.127 79.5917 381.127 79.381C381.127 79.2837 381.029 79.2027 380.964 79.2027C380.916 79.2027 380.9 79.2189 380.754 79.3648C379.716 80.7424 378.177 80.9855 377.561 80.9855C376.442 80.9855 376.086 80.0131 376.086 79.2027C376.086 78.6354 376.361 77.0633 376.945 75.9611C377.366 75.1994 378.242 74.3242 379.263 74.3242C379.473 74.3242 380.365 74.3566 380.689 75.0535Z" fill="black"/>
<path d="M384.676 75.6356C384.676 75.3534 384.662 75.34 384.474 75.34C383.95 75.9717 383.157 76.1732 382.404 76.2002C382.364 76.2002 382.297 76.2002 382.283 76.227C382.27 76.2539 382.27 76.2808 382.27 76.5631C382.687 76.5631 383.386 76.4824 383.923 76.1598V83.2428C383.923 83.7132 383.896 83.8745 382.74 83.8745H382.337V84.224C382.982 84.2105 383.654 84.1971 384.299 84.1971C384.945 84.1971 385.617 84.2105 386.262 84.224V83.8745H385.859C384.703 83.8745 384.676 83.7267 384.676 83.2428V75.6356Z" fill="black"/>
<path d="M391.946 79.9634C391.999 79.7484 391.999 79.5602 391.999 79.5064C391.999 78.7269 391.422 78.2968 390.817 78.2968C389.459 78.2968 388.733 80.2591 388.733 80.3532C388.733 80.4204 388.787 80.4741 388.868 80.4741C388.975 80.4741 388.989 80.4204 389.056 80.286C389.594 78.9823 390.266 78.5656 390.776 78.5656C391.059 78.5656 391.206 78.7135 391.206 79.1839C391.206 79.5064 391.166 79.6408 391.112 79.8828L389.836 84.9497C389.58 85.9443 388.949 86.6969 388.209 86.6969C388.156 86.6969 387.873 86.6969 387.618 86.5625C387.941 86.4953 388.196 86.24 388.196 85.9174C388.196 85.7024 388.035 85.4873 387.739 85.4873C387.389 85.4873 387.067 85.783 387.067 86.1862C387.067 86.7373 387.658 86.9657 388.209 86.9657C389.137 86.9657 390.36 86.2803 390.696 84.9363L391.946 79.9634ZM392.497 75.8373C392.497 75.5012 392.214 75.3937 392.053 75.3937C391.69 75.3937 391.381 75.7431 391.381 76.0388C391.381 76.2405 391.542 76.4824 391.838 76.4824C392.147 76.4824 392.497 76.1867 392.497 75.8373Z" fill="black"/>
<path d="M237 91V83H229V91H237Z" fill="#CEB7FF" stroke="#9462FF"/>
<line x1="232.881" y1="83.3558" x2="118.881" y2="45.3558" stroke="black" stroke-width="0.75" stroke-dasharray="2 3"/>
<line x1="90.9918" y1="93.6251" x2="232.99" y2="90.5382" stroke="black" stroke-width="0.75" stroke-dasharray="2 3"/>
<path d="M91 94H63V66L91 45H119V73L91 94Z" fill="#CEB7FF"/>
<path d="M63 66V94H91M63 66L91 45H119M63 66H91M91 66V94M91 66L119 45M91 94L119 73V45" stroke="#9462FF"/>
<path d="M237 185V177H229V185H237Z" fill="#CEB7FF" stroke="#9462FF"/>
<line x1="232.881" y1="177.356" x2="118.881" y2="139.356" stroke="black" stroke-width="0.75" stroke-dasharray="2 3"/>
<line x1="90.9918" y1="187.625" x2="232.99" y2="184.538" stroke="black" stroke-width="0.75" stroke-dasharray="2 3"/>
<path d="M91 188H63V160L91 139H119V167L91 188Z" fill="#CEB7FF"/>
<path d="M63 160V188H91M63 160L91 139H119M63 160H91M91 160V188M91 160L119 139M91 188L119 167V139" stroke="#9462FF"/>
<path d="M237 304V296H229V304H237Z" fill="#CEB7FF" stroke="#9462FF"/>
<line x1="232.881" y1="296.356" x2="118.881" y2="258.356" stroke="black" stroke-width="0.75" stroke-dasharray="2 3"/>
<line x1="90.9918" y1="306.625" x2="232.99" y2="303.538" stroke="black" stroke-width="0.75" stroke-dasharray="2 3"/>
<path d="M91 307H63V279L91 258H119V286L91 307Z" fill="#CEB7FF"/>
<path d="M63 279V307H91M63 279L91 258H119M63 279H91M91 279V307M91 279L119 258M91 307L119 286V258" stroke="#9462FF"/>
<path d="M35 36.1905L63.2353 15H131M35 36.1905H102.765M35 36.1905V104H102.765M131 15L102.765 36.1905M131 15V82.8095L102.765 104M102.765 36.1905V104" stroke="#32ACF1" stroke-width="2"/>
<path d="M35 130.19L63.2353 109H131M35 130.19H102.765M35 130.19V198H102.765M131 109L102.765 130.19M131 109V176.81L102.765 198M102.765 130.19V198" stroke="#32ACF1" stroke-width="2"/>
<path d="M35 249.19L63.2353 228H131M35 249.19H102.765M35 249.19V317H102.765M131 228L102.765 249.19M131 228V295.81L102.765 317M102.765 249.19V317" stroke="#32ACF1" stroke-width="2"/>
</svg>
