<svg width="700" height="240" viewBox="0 0 700 240" fill="none" xmlns="http://www.w3.org/2000/svg">
<path d="M10.5 157C10.5 158.512 11.4653 159.587 12.9198 160.335C14.3647 161.078 16.3867 161.556 18.7464 161.871C23.4742 162.501 29.7623 162.5 36 162.5C42.2623 162.5 48.4742 162.501 53.1214 163.121C55.4492 163.431 57.3335 163.891 58.6229 164.554C59.9028 165.212 60.5 166.012 60.5 167L61.5 167C61.5 165.488 60.5347 164.413 59.0802 163.665C57.6353 162.922 55.6133 162.444 53.2536 162.129C48.5258 161.499 42.2377 161.5 36 161.5C29.7377 161.5 23.5258 161.499 18.8786 160.879C16.5508 160.569 14.6665 160.109 13.3771 159.446C12.0972 158.788 11.5 157.988 11.5 157L10.5 157ZM110.5 157C110.5 157.988 109.903 158.788 108.623 159.446C107.333 160.109 105.449 160.569 103.121 160.879C98.4742 161.499 92.2623 161.5 86 161.5C79.7623 161.5 73.4742 161.499 68.7464 162.129C66.3867 162.444 64.3647 162.922 62.9198 163.665C61.4653 164.413 60.5 165.488 60.5 167L61.5 167C61.5 166.012 62.0972 165.212 63.3771 164.554C64.6665 163.891 66.5508 163.431 68.8786 163.121C73.5258 162.501 79.7377 162.5 86 162.5C92.2377 162.5 98.5258 162.501 103.254 161.871C105.613 161.556 107.635 161.078 109.08 160.335C110.535 159.587 111.5 158.512 111.5 157L110.5 157Z" fill="black"/>
<path d="M10.5 157C10.5 158.512 11.4653 159.587 12.9198 160.335C14.3647 161.078 16.3867 161.556 18.7464 161.871C23.4742 162.501 29.7623 162.5 36 162.5C42.2623 162.5 48.4742 162.501 53.1214 163.121C55.4492 163.431 57.3335 163.891 58.6229 164.554C59.9028 165.212 60.5 166.012 60.5 167L61.5 167C61.5 165.488 60.5347 164.413 59.0802 163.665C57.6353 162.922 55.6133 162.444 53.2536 162.129C48.5258 161.499 42.2377 161.5 36 161.5C29.7377 161.5 23.5258 161.499 18.8786 160.879C16.5508 160.569 14.6665 160.109 13.3771 159.446C12.0972 158.788 11.5 157.988 11.5 157L10.5 157ZM110.5 157C110.5 157.988 109.903 158.788 108.623 159.446C107.333 160.109 105.449 160.569 103.121 160.879C98.4742 161.499 92.2623 161.5 86 161.5C79.7623 161.5 73.4742 161.499 68.7464 162.129C66.3867 162.444 64.3647 162.922 62.9198 163.665C61.4653 164.413 60.5 165.488 60.5 167L61.5 167C61.5 166.012 62.0972 165.212 63.3771 164.554C64.6665 163.891 66.5508 163.431 68.8786 163.121C73.5258 162.501 79.7377 162.5 86 162.5C92.2377 162.5 98.5258 162.501 103.254 161.871C105.613 161.556 107.635 161.078 109.08 160.335C110.535 159.587 111.5 158.512 111.5 157L110.5 157Z" fill="black"/>
<path d="M60.0273 173.449C60.0273 173.996 59.873 174.443 59.5645 174.791C59.2598 175.139 58.8262 175.371 58.2637 175.488V175.535C58.9512 175.621 59.4609 175.84 59.793 176.191C60.125 176.543 60.291 177.004 60.291 177.574C60.291 178.391 60.0078 179.02 59.4414 179.461C58.875 179.898 58.0703 180.117 57.0273 180.117C56.5742 180.117 56.1582 180.082 55.7793 180.012C55.4043 179.945 55.0391 179.826 54.6836 179.654V178.729C55.0547 178.912 55.4492 179.053 55.8672 179.15C56.2891 179.244 56.6875 179.291 57.0625 179.291C58.543 179.291 59.2832 178.711 59.2832 177.551C59.2832 176.512 58.4668 175.992 56.834 175.992H55.9902V175.154H56.8457C57.5137 175.154 58.043 175.008 58.4336 174.715C58.8242 174.418 59.0195 174.008 59.0195 173.484C59.0195 173.066 58.875 172.738 58.5859 172.5C58.3008 172.262 57.9121 172.143 57.4199 172.143C57.0449 172.143 56.6914 172.193 56.3594 172.295C56.0273 172.396 55.6484 172.584 55.2227 172.857L54.7305 172.201C55.082 171.924 55.4863 171.707 55.9434 171.551C56.4043 171.391 56.8887 171.311 57.3965 171.311C58.2285 171.311 58.875 171.502 59.3359 171.885C59.7969 172.264 60.0273 172.785 60.0273 173.449ZM67.2168 180H61.5859V179.162L63.8418 176.895C64.5293 176.199 64.9824 175.703 65.2012 175.406C65.4199 175.109 65.584 174.82 65.6934 174.539C65.8027 174.258 65.8574 173.955 65.8574 173.631C65.8574 173.174 65.7188 172.812 65.4414 172.547C65.1641 172.277 64.7793 172.143 64.2871 172.143C63.9316 172.143 63.5938 172.201 63.2734 172.318C62.957 172.436 62.6035 172.648 62.2129 172.957L61.6973 172.295C62.4863 171.639 63.3457 171.311 64.2754 171.311C65.0801 171.311 65.7109 171.518 66.168 171.932C66.625 172.342 66.8535 172.895 66.8535 173.59C66.8535 174.133 66.7012 174.67 66.3965 175.201C66.0918 175.732 65.5215 176.404 64.6855 177.217L62.8105 179.051V179.098H67.2168V180Z" fill="black"/>
<path d="M45.4219 235V226.434H46.418V235H45.4219ZM56.8125 235V230.822C56.8125 230.311 56.7031 229.928 56.4844 229.674C56.2656 229.416 55.9258 229.287 55.4648 229.287C54.8594 229.287 54.4121 229.461 54.123 229.809C53.834 230.156 53.6895 230.691 53.6895 231.414V235H52.7168V230.822C52.7168 230.311 52.6074 229.928 52.3887 229.674C52.1699 229.416 51.8281 229.287 51.3633 229.287C50.7539 229.287 50.3066 229.471 50.0215 229.838C49.7402 230.201 49.5996 230.799 49.5996 231.631V235H48.627V228.578H49.418L49.5762 229.457H49.623C49.8066 229.145 50.0645 228.9 50.3965 228.725C50.7324 228.549 51.1074 228.461 51.5215 228.461C52.5254 228.461 53.1816 228.824 53.4902 229.551H53.5371C53.7285 229.215 54.0059 228.949 54.3691 228.754C54.7324 228.559 55.1465 228.461 55.6113 228.461C56.3379 228.461 56.8809 228.648 57.2402 229.023C57.6035 229.395 57.7852 229.99 57.7852 230.811V235H56.8125ZM63.7441 235L63.5508 234.086H63.5039C63.1836 234.488 62.8633 234.762 62.543 234.906C62.2266 235.047 61.8301 235.117 61.3535 235.117C60.7168 235.117 60.2168 234.953 59.8535 234.625C59.4941 234.297 59.3145 233.83 59.3145 233.225C59.3145 231.928 60.3516 231.248 62.4258 231.186L63.5156 231.15V230.752C63.5156 230.248 63.4062 229.877 63.1875 229.639C62.9727 229.396 62.627 229.275 62.1504 229.275C61.6152 229.275 61.0098 229.439 60.334 229.768L60.0352 229.023C60.3516 228.852 60.6973 228.717 61.0723 228.619C61.4512 228.521 61.8301 228.473 62.209 228.473C62.9746 228.473 63.541 228.643 63.9082 228.982C64.2793 229.322 64.4648 229.867 64.4648 230.617V235H63.7441ZM61.5469 234.314C62.1523 234.314 62.627 234.148 62.9707 233.816C63.3184 233.484 63.4922 233.02 63.4922 232.422V231.842L62.5195 231.883C61.7461 231.91 61.1875 232.031 60.8438 232.246C60.5039 232.457 60.334 232.787 60.334 233.236C60.334 233.588 60.4395 233.855 60.6504 234.039C60.8652 234.223 61.1641 234.314 61.5469 234.314ZM71.7305 228.578V229.193L70.541 229.334C70.6504 229.471 70.748 229.65 70.834 229.873C70.9199 230.092 70.9629 230.34 70.9629 230.617C70.9629 231.246 70.748 231.748 70.3184 232.123C69.8887 232.498 69.2988 232.686 68.5488 232.686C68.3574 232.686 68.1777 232.67 68.0098 232.639C67.5957 232.857 67.3887 233.133 67.3887 233.465C67.3887 233.641 67.4609 233.771 67.6055 233.857C67.75 233.939 67.998 233.98 68.3496 233.98H69.4863C70.1816 233.98 70.7148 234.127 71.0859 234.42C71.4609 234.713 71.6484 235.139 71.6484 235.697C71.6484 236.408 71.3633 236.949 70.793 237.32C70.2227 237.695 69.3906 237.883 68.2969 237.883C67.457 237.883 66.8086 237.727 66.3516 237.414C65.8984 237.102 65.6719 236.66 65.6719 236.09C65.6719 235.699 65.7969 235.361 66.0469 235.076C66.2969 234.791 66.6484 234.598 67.1016 234.496C66.9375 234.422 66.7988 234.307 66.6855 234.15C66.5762 233.994 66.5215 233.812 66.5215 233.605C66.5215 233.371 66.584 233.166 66.709 232.99C66.834 232.814 67.0312 232.645 67.3008 232.48C66.9688 232.344 66.6973 232.111 66.4863 231.783C66.2793 231.455 66.1758 231.08 66.1758 230.658C66.1758 229.955 66.3867 229.414 66.8086 229.035C67.2305 228.652 67.8281 228.461 68.6016 228.461C68.9375 228.461 69.2402 228.5 69.5098 228.578H71.7305ZM66.6094 236.078C66.6094 236.426 66.7559 236.689 67.0488 236.869C67.3418 237.049 67.7617 237.139 68.3086 237.139C69.125 237.139 69.7285 237.016 70.1191 236.77C70.5137 236.527 70.7109 236.197 70.7109 235.779C70.7109 235.432 70.6035 235.189 70.3887 235.053C70.1738 234.92 69.7695 234.854 69.1758 234.854H68.0098C67.5684 234.854 67.2246 234.959 66.9785 235.17C66.7324 235.381 66.6094 235.684 66.6094 236.078ZM67.1367 230.635C67.1367 231.084 67.2637 231.424 67.5176 231.654C67.7715 231.885 68.125 232 68.5781 232C69.5273 232 70.002 231.539 70.002 230.617C70.002 229.652 69.5215 229.17 68.5605 229.17C68.1035 229.17 67.752 229.293 67.5059 229.539C67.2598 229.785 67.1367 230.15 67.1367 230.635ZM75.7617 235.117C74.8125 235.117 74.0625 234.828 73.5117 234.25C72.9648 233.672 72.6914 232.869 72.6914 231.842C72.6914 230.807 72.9453 229.984 73.4531 229.375C73.9648 228.766 74.6504 228.461 75.5098 228.461C76.3145 228.461 76.9512 228.727 77.4199 229.258C77.8887 229.785 78.123 230.482 78.123 231.35V231.965H73.6992C73.7188 232.719 73.9082 233.291 74.2676 233.682C74.6309 234.072 75.1406 234.268 75.7969 234.268C76.4883 234.268 77.1719 234.123 77.8477 233.834V234.701C77.5039 234.85 77.1777 234.955 76.8691 235.018C76.5645 235.084 76.1953 235.117 75.7617 235.117ZM75.498 229.275C74.9824 229.275 74.5703 229.443 74.2617 229.779C73.957 230.115 73.7773 230.58 73.7227 231.174H77.0801C77.0801 230.561 76.9434 230.092 76.6699 229.768C76.3965 229.439 76.0059 229.275 75.498 229.275Z" fill="black"/>
<path d="M153.125 227.201C152.184 227.201 151.439 227.516 150.893 228.145C150.35 228.77 150.078 229.627 150.078 230.717C150.078 231.838 150.34 232.705 150.863 233.318C151.391 233.928 152.141 234.232 153.113 234.232C153.711 234.232 154.393 234.125 155.158 233.91V234.783C154.564 235.006 153.832 235.117 152.961 235.117C151.699 235.117 150.725 234.734 150.037 233.969C149.354 233.203 149.012 232.115 149.012 230.705C149.012 229.822 149.176 229.049 149.504 228.385C149.836 227.721 150.312 227.209 150.934 226.85C151.559 226.49 152.293 226.311 153.137 226.311C154.035 226.311 154.82 226.475 155.492 226.803L155.07 227.658C154.422 227.354 153.773 227.201 153.125 227.201ZM162.424 231.783C162.424 232.83 162.16 233.648 161.633 234.238C161.105 234.824 160.377 235.117 159.447 235.117C158.873 235.117 158.363 234.982 157.918 234.713C157.473 234.443 157.129 234.057 156.887 233.553C156.645 233.049 156.523 232.459 156.523 231.783C156.523 230.736 156.785 229.922 157.309 229.34C157.832 228.754 158.559 228.461 159.488 228.461C160.387 228.461 161.1 228.76 161.627 229.357C162.158 229.955 162.424 230.764 162.424 231.783ZM157.531 231.783C157.531 232.604 157.695 233.229 158.023 233.658C158.352 234.088 158.834 234.303 159.471 234.303C160.107 234.303 160.59 234.09 160.918 233.664C161.25 233.234 161.416 232.607 161.416 231.783C161.416 230.967 161.25 230.348 160.918 229.926C160.59 229.5 160.104 229.287 159.459 229.287C158.822 229.287 158.342 229.496 158.018 229.914C157.693 230.332 157.531 230.955 157.531 231.783ZM168.529 235V230.846C168.529 230.322 168.41 229.932 168.172 229.674C167.934 229.416 167.561 229.287 167.053 229.287C166.381 229.287 165.889 229.469 165.576 229.832C165.264 230.195 165.107 230.795 165.107 231.631V235H164.135V228.578H164.926L165.084 229.457H165.131C165.33 229.141 165.609 228.896 165.969 228.725C166.328 228.549 166.729 228.461 167.17 228.461C167.943 228.461 168.525 228.648 168.916 229.023C169.307 229.395 169.502 229.99 169.502 230.811V235H168.529ZM172.912 235L170.475 228.578H171.518L172.9 232.387C173.213 233.277 173.396 233.855 173.451 234.121H173.498C173.541 233.914 173.676 233.486 173.902 232.838C174.133 232.186 174.646 230.766 175.443 228.578H176.486L174.049 235H172.912ZM183.43 230.365H185.844V231.174H183.43V233.67H182.615V231.174H180.213V230.365H182.615V227.857H183.43V230.365ZM191.762 231.438V235H190.766V226.434H193.115C194.166 226.434 194.941 226.635 195.441 227.037C195.945 227.439 196.197 228.045 196.197 228.854C196.197 229.986 195.623 230.752 194.475 231.15L196.801 235H195.623L193.549 231.438H191.762ZM191.762 230.582H193.127C193.83 230.582 194.346 230.443 194.674 230.166C195.002 229.885 195.166 229.465 195.166 228.906C195.166 228.34 194.998 227.932 194.662 227.682C194.33 227.432 193.795 227.307 193.057 227.307H191.762V230.582ZM200.75 235.117C199.801 235.117 199.051 234.828 198.5 234.25C197.953 233.672 197.68 232.869 197.68 231.842C197.68 230.807 197.934 229.984 198.441 229.375C198.953 228.766 199.639 228.461 200.498 228.461C201.303 228.461 201.939 228.727 202.408 229.258C202.877 229.785 203.111 230.482 203.111 231.35V231.965H198.688C198.707 232.719 198.896 233.291 199.256 233.682C199.619 234.072 200.129 234.268 200.785 234.268C201.477 234.268 202.16 234.123 202.836 233.834V234.701C202.492 234.85 202.166 234.955 201.857 235.018C201.553 235.084 201.184 235.117 200.75 235.117ZM200.486 229.275C199.971 229.275 199.559 229.443 199.25 229.779C198.945 230.115 198.766 230.58 198.711 231.174H202.068C202.068 230.561 201.932 230.092 201.658 229.768C201.385 229.439 200.994 229.275 200.486 229.275ZM204.922 235V226.434H205.918V234.098H209.697V235H204.922ZM217.625 226.434V231.977C217.625 232.953 217.33 233.721 216.74 234.279C216.15 234.838 215.34 235.117 214.309 235.117C213.277 235.117 212.479 234.836 211.912 234.273C211.35 233.711 211.068 232.938 211.068 231.953V226.434H212.064V232.023C212.064 232.738 212.26 233.287 212.65 233.67C213.041 234.053 213.615 234.244 214.373 234.244C215.096 234.244 215.652 234.053 216.043 233.67C216.434 233.283 216.629 232.73 216.629 232.012V226.434H217.625Z" fill="black"/>
<path d="M280.072 227.201C279.131 227.201 278.387 227.516 277.84 228.145C277.297 228.77 277.025 229.627 277.025 230.717C277.025 231.838 277.287 232.705 277.811 233.318C278.338 233.928 279.088 234.232 280.061 234.232C280.658 234.232 281.34 234.125 282.105 233.91V234.783C281.512 235.006 280.779 235.117 279.908 235.117C278.646 235.117 277.672 234.734 276.984 233.969C276.301 233.203 275.959 232.115 275.959 230.705C275.959 229.822 276.123 229.049 276.451 228.385C276.783 227.721 277.26 227.209 277.881 226.85C278.506 226.49 279.24 226.311 280.084 226.311C280.982 226.311 281.768 226.475 282.439 226.803L282.018 227.658C281.369 227.354 280.721 227.201 280.072 227.201ZM289.371 231.783C289.371 232.83 289.107 233.648 288.58 234.238C288.053 234.824 287.324 235.117 286.395 235.117C285.82 235.117 285.311 234.982 284.865 234.713C284.42 234.443 284.076 234.057 283.834 233.553C283.592 233.049 283.471 232.459 283.471 231.783C283.471 230.736 283.732 229.922 284.256 229.34C284.779 228.754 285.506 228.461 286.436 228.461C287.334 228.461 288.047 228.76 288.574 229.357C289.105 229.955 289.371 230.764 289.371 231.783ZM284.479 231.783C284.479 232.604 284.643 233.229 284.971 233.658C285.299 234.088 285.781 234.303 286.418 234.303C287.055 234.303 287.537 234.09 287.865 233.664C288.197 233.234 288.363 232.607 288.363 231.783C288.363 230.967 288.197 230.348 287.865 229.926C287.537 229.5 287.051 229.287 286.406 229.287C285.77 229.287 285.289 229.496 284.965 229.914C284.641 230.332 284.479 230.955 284.479 231.783ZM295.477 235V230.846C295.477 230.322 295.357 229.932 295.119 229.674C294.881 229.416 294.508 229.287 294 229.287C293.328 229.287 292.836 229.469 292.523 229.832C292.211 230.195 292.055 230.795 292.055 231.631V235H291.082V228.578H291.873L292.031 229.457H292.078C292.277 229.141 292.557 228.896 292.916 228.725C293.275 228.549 293.676 228.461 294.117 228.461C294.891 228.461 295.473 228.648 295.863 229.023C296.254 229.395 296.449 229.99 296.449 230.811V235H295.477ZM299.859 235L297.422 228.578H298.465L299.848 232.387C300.16 233.277 300.344 233.855 300.398 234.121H300.445C300.488 233.914 300.623 233.486 300.85 232.838C301.08 232.186 301.594 230.766 302.391 228.578H303.434L300.996 235H299.859ZM308.279 227.201C307.338 227.201 306.594 227.516 306.047 228.145C305.504 228.77 305.232 229.627 305.232 230.717C305.232 231.838 305.494 232.705 306.018 233.318C306.545 233.928 307.295 234.232 308.268 234.232C308.865 234.232 309.547 234.125 310.312 233.91V234.783C309.719 235.006 308.986 235.117 308.115 235.117C306.854 235.117 305.879 234.734 305.191 233.969C304.508 233.203 304.166 232.115 304.166 230.705C304.166 229.822 304.33 229.049 304.658 228.385C304.99 227.721 305.467 227.209 306.088 226.85C306.713 226.49 307.447 226.311 308.291 226.311C309.189 226.311 309.975 226.475 310.646 226.803L310.225 227.658C309.576 227.354 308.928 227.201 308.279 227.201ZM315.984 235L315.791 234.086H315.744C315.424 234.488 315.104 234.762 314.783 234.906C314.467 235.047 314.07 235.117 313.594 235.117C312.957 235.117 312.457 234.953 312.094 234.625C311.734 234.297 311.555 233.83 311.555 233.225C311.555 231.928 312.592 231.248 314.666 231.186L315.756 231.15V230.752C315.756 230.248 315.646 229.877 315.428 229.639C315.213 229.396 314.867 229.275 314.391 229.275C313.855 229.275 313.25 229.439 312.574 229.768L312.275 229.023C312.592 228.852 312.938 228.717 313.312 228.619C313.691 228.521 314.07 228.473 314.449 228.473C315.215 228.473 315.781 228.643 316.148 228.982C316.52 229.322 316.705 229.867 316.705 230.617V235H315.984ZM313.787 234.314C314.393 234.314 314.867 234.148 315.211 233.816C315.559 233.484 315.732 233.02 315.732 232.422V231.842L314.76 231.883C313.986 231.91 313.428 232.031 313.084 232.246C312.744 232.457 312.574 232.787 312.574 233.236C312.574 233.588 312.68 233.855 312.891 234.039C313.105 234.223 313.404 234.314 313.787 234.314ZM321.703 235.117C321.285 235.117 320.902 235.041 320.555 234.889C320.211 234.732 319.922 234.494 319.688 234.174H319.617C319.664 234.549 319.688 234.904 319.688 235.24V237.883H318.715V228.578H319.506L319.641 229.457H319.688C319.938 229.105 320.229 228.852 320.561 228.695C320.893 228.539 321.273 228.461 321.703 228.461C322.555 228.461 323.211 228.752 323.672 229.334C324.137 229.916 324.369 230.732 324.369 231.783C324.369 232.838 324.133 233.658 323.66 234.244C323.191 234.826 322.539 235.117 321.703 235.117ZM321.562 229.287C320.906 229.287 320.432 229.469 320.139 229.832C319.846 230.195 319.695 230.773 319.688 231.566V231.783C319.688 232.686 319.838 233.332 320.139 233.723C320.439 234.109 320.922 234.303 321.586 234.303C322.141 234.303 322.574 234.078 322.887 233.629C323.203 233.18 323.361 232.561 323.361 231.771C323.361 230.971 323.203 230.357 322.887 229.932C322.574 229.502 322.133 229.287 321.562 229.287ZM330.217 233.248C330.217 233.846 329.994 234.307 329.549 234.631C329.104 234.955 328.479 235.117 327.674 235.117C326.822 235.117 326.158 234.982 325.682 234.713V233.811C325.99 233.967 326.32 234.09 326.672 234.18C327.027 234.27 327.369 234.314 327.697 234.314C328.205 234.314 328.596 234.234 328.869 234.074C329.143 233.91 329.279 233.662 329.279 233.33C329.279 233.08 329.17 232.867 328.951 232.691C328.736 232.512 328.314 232.301 327.686 232.059C327.088 231.836 326.662 231.643 326.408 231.479C326.158 231.311 325.971 231.121 325.846 230.91C325.725 230.699 325.664 230.447 325.664 230.154C325.664 229.631 325.877 229.219 326.303 228.918C326.729 228.613 327.312 228.461 328.055 228.461C328.746 228.461 329.422 228.602 330.082 228.883L329.736 229.674C329.092 229.408 328.508 229.275 327.984 229.275C327.523 229.275 327.176 229.348 326.941 229.492C326.707 229.637 326.59 229.836 326.59 230.09C326.59 230.262 326.633 230.408 326.719 230.529C326.809 230.65 326.951 230.766 327.146 230.875C327.342 230.984 327.717 231.143 328.271 231.35C329.033 231.627 329.547 231.906 329.812 232.188C330.082 232.469 330.217 232.822 330.217 233.248Z" fill="black"/>
<path d="M406.656 231.438V235H405.66V226.434H408.01C409.061 226.434 409.836 226.635 410.336 227.037C410.84 227.439 411.092 228.045 411.092 228.854C411.092 229.986 410.518 230.752 409.369 231.15L411.695 235H410.518L408.443 231.438H406.656ZM406.656 230.582H408.021C408.725 230.582 409.24 230.443 409.568 230.166C409.896 229.885 410.061 229.465 410.061 228.906C410.061 228.34 409.893 227.932 409.557 227.682C409.225 227.432 408.689 227.307 407.951 227.307H406.656V230.582ZM415.645 235.117C414.695 235.117 413.945 234.828 413.395 234.25C412.848 233.672 412.574 232.869 412.574 231.842C412.574 230.807 412.828 229.984 413.336 229.375C413.848 228.766 414.533 228.461 415.393 228.461C416.197 228.461 416.834 228.727 417.303 229.258C417.771 229.785 418.006 230.482 418.006 231.35V231.965H413.582C413.602 232.719 413.791 233.291 414.15 233.682C414.514 234.072 415.023 234.268 415.68 234.268C416.371 234.268 417.055 234.123 417.73 233.834V234.701C417.387 234.85 417.061 234.955 416.752 235.018C416.447 235.084 416.078 235.117 415.645 235.117ZM415.381 229.275C414.865 229.275 414.453 229.443 414.145 229.779C413.84 230.115 413.66 230.58 413.605 231.174H416.963C416.963 230.561 416.826 230.092 416.553 229.768C416.279 229.439 415.889 229.275 415.381 229.275ZM423.812 233.248C423.812 233.846 423.59 234.307 423.145 234.631C422.699 234.955 422.074 235.117 421.27 235.117C420.418 235.117 419.754 234.982 419.277 234.713V233.811C419.586 233.967 419.916 234.09 420.268 234.18C420.623 234.27 420.965 234.314 421.293 234.314C421.801 234.314 422.191 234.234 422.465 234.074C422.738 233.91 422.875 233.662 422.875 233.33C422.875 233.08 422.766 232.867 422.547 232.691C422.332 232.512 421.91 232.301 421.281 232.059C420.684 231.836 420.258 231.643 420.004 231.479C419.754 231.311 419.566 231.121 419.441 230.91C419.32 230.699 419.26 230.447 419.26 230.154C419.26 229.631 419.473 229.219 419.898 228.918C420.324 228.613 420.908 228.461 421.65 228.461C422.342 228.461 423.018 228.602 423.678 228.883L423.332 229.674C422.688 229.408 422.104 229.275 421.58 229.275C421.119 229.275 420.771 229.348 420.537 229.492C420.303 229.637 420.186 229.836 420.186 230.09C420.186 230.262 420.229 230.408 420.314 230.529C420.404 230.65 420.547 230.766 420.742 230.875C420.938 230.984 421.312 231.143 421.867 231.35C422.629 231.627 423.143 231.906 423.408 232.188C423.678 232.469 423.812 232.822 423.812 233.248ZM429.795 235V230.846C429.795 230.322 429.676 229.932 429.438 229.674C429.199 229.416 428.826 229.287 428.318 229.287C427.643 229.287 427.148 229.471 426.836 229.838C426.527 230.205 426.373 230.807 426.373 231.643V235H425.4V225.883H426.373V228.643C426.373 228.975 426.357 229.25 426.326 229.469H426.385C426.576 229.16 426.848 228.918 427.199 228.742C427.555 228.562 427.959 228.473 428.412 228.473C429.197 228.473 429.785 228.66 430.176 229.035C430.57 229.406 430.768 229.998 430.768 230.811V235H429.795ZM436.721 235L436.527 234.086H436.48C436.16 234.488 435.84 234.762 435.52 234.906C435.203 235.047 434.807 235.117 434.33 235.117C433.693 235.117 433.193 234.953 432.83 234.625C432.471 234.297 432.291 233.83 432.291 233.225C432.291 231.928 433.328 231.248 435.402 231.186L436.492 231.15V230.752C436.492 230.248 436.383 229.877 436.164 229.639C435.949 229.396 435.604 229.275 435.127 229.275C434.592 229.275 433.986 229.439 433.311 229.768L433.012 229.023C433.328 228.852 433.674 228.717 434.049 228.619C434.428 228.521 434.807 228.473 435.186 228.473C435.951 228.473 436.518 228.643 436.885 228.982C437.256 229.322 437.441 229.867 437.441 230.617V235H436.721ZM434.523 234.314C435.129 234.314 435.604 234.148 435.947 233.816C436.295 233.484 436.469 233.02 436.469 232.422V231.842L435.496 231.883C434.723 231.91 434.164 232.031 433.82 232.246C433.48 232.457 433.311 232.787 433.311 233.236C433.311 233.588 433.416 233.855 433.627 234.039C433.842 234.223 434.141 234.314 434.523 234.314ZM442.439 235.117C442.021 235.117 441.639 235.041 441.291 234.889C440.947 234.732 440.658 234.494 440.424 234.174H440.354C440.4 234.549 440.424 234.904 440.424 235.24V237.883H439.451V228.578H440.242L440.377 229.457H440.424C440.674 229.105 440.965 228.852 441.297 228.695C441.629 228.539 442.01 228.461 442.439 228.461C443.291 228.461 443.947 228.752 444.408 229.334C444.873 229.916 445.105 230.732 445.105 231.783C445.105 232.838 444.869 233.658 444.396 234.244C443.928 234.826 443.275 235.117 442.439 235.117ZM442.299 229.287C441.643 229.287 441.168 229.469 440.875 229.832C440.582 230.195 440.432 230.773 440.424 231.566V231.783C440.424 232.686 440.574 233.332 440.875 233.723C441.176 234.109 441.658 234.303 442.322 234.303C442.877 234.303 443.311 234.078 443.623 233.629C443.939 233.18 444.098 232.561 444.098 231.771C444.098 230.971 443.939 230.357 443.623 229.932C443.311 229.502 442.869 229.287 442.299 229.287ZM449.523 235.117C448.574 235.117 447.824 234.828 447.273 234.25C446.727 233.672 446.453 232.869 446.453 231.842C446.453 230.807 446.707 229.984 447.215 229.375C447.727 228.766 448.412 228.461 449.271 228.461C450.076 228.461 450.713 228.727 451.182 229.258C451.65 229.785 451.885 230.482 451.885 231.35V231.965H447.461C447.48 232.719 447.67 233.291 448.029 233.682C448.393 234.072 448.902 234.268 449.559 234.268C450.25 234.268 450.934 234.123 451.609 233.834V234.701C451.266 234.85 450.939 234.955 450.631 235.018C450.326 235.084 449.957 235.117 449.523 235.117ZM449.26 229.275C448.744 229.275 448.332 229.443 448.023 229.779C447.719 230.115 447.539 230.58 447.484 231.174H450.842C450.842 230.561 450.705 230.092 450.432 229.768C450.158 229.439 449.768 229.275 449.26 229.275Z" fill="black"/>
<path d="M521.025 230.635C521.025 232.049 520.641 233.131 519.871 233.881C519.105 234.627 518.002 235 516.561 235H514.188V226.434H516.812C518.145 226.434 519.18 226.803 519.918 227.541C520.656 228.279 521.025 229.311 521.025 230.635ZM519.971 230.67C519.971 229.553 519.689 228.711 519.127 228.145C518.568 227.578 517.736 227.295 516.631 227.295H515.184V234.139H516.396C517.584 234.139 518.477 233.848 519.074 233.266C519.672 232.68 519.971 231.814 519.971 230.67ZM523.768 235H522.795V228.578H523.768V235ZM522.713 226.838C522.713 226.615 522.768 226.453 522.877 226.352C522.986 226.246 523.123 226.193 523.287 226.193C523.443 226.193 523.578 226.246 523.691 226.352C523.805 226.457 523.861 226.619 523.861 226.838C523.861 227.057 523.805 227.221 523.691 227.33C523.578 227.436 523.443 227.488 523.287 227.488C523.123 227.488 522.986 227.436 522.877 227.33C522.768 227.221 522.713 227.057 522.713 226.838ZM531.086 228.578V229.193L529.896 229.334C530.006 229.471 530.104 229.65 530.189 229.873C530.275 230.092 530.318 230.34 530.318 230.617C530.318 231.246 530.104 231.748 529.674 232.123C529.244 232.498 528.654 232.686 527.904 232.686C527.713 232.686 527.533 232.67 527.365 232.639C526.951 232.857 526.744 233.133 526.744 233.465C526.744 233.641 526.816 233.771 526.961 233.857C527.105 233.939 527.354 233.98 527.705 233.98H528.842C529.537 233.98 530.07 234.127 530.441 234.42C530.816 234.713 531.004 235.139 531.004 235.697C531.004 236.408 530.719 236.949 530.148 237.32C529.578 237.695 528.746 237.883 527.652 237.883C526.812 237.883 526.164 237.727 525.707 237.414C525.254 237.102 525.027 236.66 525.027 236.09C525.027 235.699 525.152 235.361 525.402 235.076C525.652 234.791 526.004 234.598 526.457 234.496C526.293 234.422 526.154 234.307 526.041 234.15C525.932 233.994 525.877 233.812 525.877 233.605C525.877 233.371 525.939 233.166 526.064 232.99C526.189 232.814 526.387 232.645 526.656 232.48C526.324 232.344 526.053 232.111 525.842 231.783C525.635 231.455 525.531 231.08 525.531 230.658C525.531 229.955 525.742 229.414 526.164 229.035C526.586 228.652 527.184 228.461 527.957 228.461C528.293 228.461 528.596 228.5 528.865 228.578H531.086ZM525.965 236.078C525.965 236.426 526.111 236.689 526.404 236.869C526.697 237.049 527.117 237.139 527.664 237.139C528.48 237.139 529.084 237.016 529.475 236.77C529.869 236.527 530.066 236.197 530.066 235.779C530.066 235.432 529.959 235.189 529.744 235.053C529.529 234.92 529.125 234.854 528.531 234.854H527.365C526.924 234.854 526.58 234.959 526.334 235.17C526.088 235.381 525.965 235.684 525.965 236.078ZM526.492 230.635C526.492 231.084 526.619 231.424 526.873 231.654C527.127 231.885 527.48 232 527.934 232C528.883 232 529.357 231.539 529.357 230.617C529.357 229.652 528.877 229.17 527.916 229.17C527.459 229.17 527.107 229.293 526.861 229.539C526.615 229.785 526.492 230.15 526.492 230.635ZM533.377 235H532.404V228.578H533.377V235ZM532.322 226.838C532.322 226.615 532.377 226.453 532.486 226.352C532.596 226.246 532.732 226.193 532.896 226.193C533.053 226.193 533.188 226.246 533.301 226.352C533.414 226.457 533.471 226.619 533.471 226.838C533.471 227.057 533.414 227.221 533.301 227.33C533.188 227.436 533.053 227.488 532.896 227.488C532.732 227.488 532.596 227.436 532.486 227.33C532.377 227.221 532.322 227.057 532.322 226.838ZM537.514 234.314C537.686 234.314 537.852 234.303 538.012 234.279C538.172 234.252 538.299 234.225 538.393 234.197V234.941C538.287 234.992 538.131 235.033 537.924 235.064C537.721 235.1 537.537 235.117 537.373 235.117C536.131 235.117 535.51 234.463 535.51 233.154V229.334H534.59V228.865L535.51 228.461L535.92 227.09H536.482V228.578H538.346V229.334H536.482V233.113C536.482 233.5 536.574 233.797 536.758 234.004C536.941 234.211 537.193 234.314 537.514 234.314ZM543.496 227.201C542.555 227.201 541.811 227.516 541.264 228.145C540.721 228.77 540.449 229.627 540.449 230.717C540.449 231.838 540.711 232.705 541.234 233.318C541.762 233.928 542.512 234.232 543.484 234.232C544.082 234.232 544.764 234.125 545.529 233.91V234.783C544.936 235.006 544.203 235.117 543.332 235.117C542.07 235.117 541.096 234.734 540.408 233.969C539.725 233.203 539.383 232.115 539.383 230.705C539.383 229.822 539.547 229.049 539.875 228.385C540.207 227.721 540.684 227.209 541.305 226.85C541.93 226.49 542.664 226.311 543.508 226.311C544.406 226.311 545.191 226.475 545.863 226.803L545.441 227.658C544.793 227.354 544.145 227.201 543.496 227.201ZM551.201 235L551.008 234.086H550.961C550.641 234.488 550.32 234.762 550 234.906C549.684 235.047 549.287 235.117 548.811 235.117C548.174 235.117 547.674 234.953 547.311 234.625C546.951 234.297 546.771 233.83 546.771 233.225C546.771 231.928 547.809 231.248 549.883 231.186L550.973 231.15V230.752C550.973 230.248 550.863 229.877 550.645 229.639C550.43 229.396 550.084 229.275 549.607 229.275C549.072 229.275 548.467 229.439 547.791 229.768L547.492 229.023C547.809 228.852 548.154 228.717 548.529 228.619C548.908 228.521 549.287 228.473 549.666 228.473C550.432 228.473 550.998 228.643 551.365 228.982C551.736 229.322 551.922 229.867 551.922 230.617V235H551.201ZM549.004 234.314C549.609 234.314 550.084 234.148 550.428 233.816C550.775 233.484 550.949 233.02 550.949 232.422V231.842L549.977 231.883C549.203 231.91 548.645 232.031 548.301 232.246C547.961 232.457 547.791 232.787 547.791 233.236C547.791 233.588 547.896 233.855 548.107 234.039C548.322 234.223 548.621 234.314 549.004 234.314ZM556.92 235.117C556.502 235.117 556.119 235.041 555.771 234.889C555.428 234.732 555.139 234.494 554.904 234.174H554.834C554.881 234.549 554.904 234.904 554.904 235.24V237.883H553.932V228.578H554.723L554.857 229.457H554.904C555.154 229.105 555.445 228.852 555.777 228.695C556.109 228.539 556.49 228.461 556.92 228.461C557.771 228.461 558.428 228.752 558.889 229.334C559.354 229.916 559.586 230.732 559.586 231.783C559.586 232.838 559.35 233.658 558.877 234.244C558.408 234.826 557.756 235.117 556.92 235.117ZM556.779 229.287C556.123 229.287 555.648 229.469 555.355 229.832C555.062 230.195 554.912 230.773 554.904 231.566V231.783C554.904 232.686 555.055 233.332 555.355 233.723C555.656 234.109 556.139 234.303 556.803 234.303C557.357 234.303 557.791 234.078 558.104 233.629C558.42 233.18 558.578 232.561 558.578 231.771C558.578 230.971 558.42 230.357 558.104 229.932C557.791 229.502 557.35 229.287 556.779 229.287ZM565.434 233.248C565.434 233.846 565.211 234.307 564.766 234.631C564.32 234.955 563.695 235.117 562.891 235.117C562.039 235.117 561.375 234.982 560.898 234.713V233.811C561.207 233.967 561.537 234.09 561.889 234.18C562.244 234.27 562.586 234.314 562.914 234.314C563.422 234.314 563.812 234.234 564.086 234.074C564.359 233.91 564.496 233.662 564.496 233.33C564.496 233.08 564.387 232.867 564.168 232.691C563.953 232.512 563.531 232.301 562.902 232.059C562.305 231.836 561.879 231.643 561.625 231.479C561.375 231.311 561.188 231.121 561.062 230.91C560.941 230.699 560.881 230.447 560.881 230.154C560.881 229.631 561.094 229.219 561.52 228.918C561.945 228.613 562.529 228.461 563.271 228.461C563.963 228.461 564.639 228.602 565.299 228.883L564.953 229.674C564.309 229.408 563.725 229.275 563.201 229.275C562.74 229.275 562.393 229.348 562.158 229.492C561.924 229.637 561.807 229.836 561.807 230.09C561.807 230.262 561.85 230.408 561.936 230.529C562.025 230.65 562.168 230.766 562.363 230.875C562.559 230.984 562.934 231.143 563.488 231.35C564.25 231.627 564.764 231.906 565.029 232.188C565.299 232.469 565.434 232.822 565.434 233.248Z" fill="black"/>
<path d="M627.254 227.201C626.312 227.201 625.568 227.516 625.021 228.145C624.479 228.77 624.207 229.627 624.207 230.717C624.207 231.838 624.469 232.705 624.992 233.318C625.52 233.928 626.27 234.232 627.242 234.232C627.84 234.232 628.521 234.125 629.287 233.91V234.783C628.693 235.006 627.961 235.117 627.09 235.117C625.828 235.117 624.854 234.734 624.166 233.969C623.482 233.203 623.141 232.115 623.141 230.705C623.141 229.822 623.305 229.049 623.633 228.385C623.965 227.721 624.441 227.209 625.062 226.85C625.688 226.49 626.422 226.311 627.266 226.311C628.164 226.311 628.949 226.475 629.621 226.803L629.199 227.658C628.551 227.354 627.902 227.201 627.254 227.201ZM631.982 235H631.01V225.883H631.982V235ZM637.994 235L637.801 234.086H637.754C637.434 234.488 637.113 234.762 636.793 234.906C636.477 235.047 636.08 235.117 635.604 235.117C634.967 235.117 634.467 234.953 634.104 234.625C633.744 234.297 633.564 233.83 633.564 233.225C633.564 231.928 634.602 231.248 636.676 231.186L637.766 231.15V230.752C637.766 230.248 637.656 229.877 637.438 229.639C637.223 229.396 636.877 229.275 636.4 229.275C635.865 229.275 635.26 229.439 634.584 229.768L634.285 229.023C634.602 228.852 634.947 228.717 635.322 228.619C635.701 228.521 636.08 228.473 636.459 228.473C637.225 228.473 637.791 228.643 638.158 228.982C638.529 229.322 638.715 229.867 638.715 230.617V235H637.994ZM635.797 234.314C636.402 234.314 636.877 234.148 637.221 233.816C637.568 233.484 637.742 233.02 637.742 232.422V231.842L636.77 231.883C635.996 231.91 635.438 232.031 635.094 232.246C634.754 232.457 634.584 232.787 634.584 233.236C634.584 233.588 634.689 233.855 634.9 234.039C635.115 234.223 635.414 234.314 635.797 234.314ZM644.867 233.248C644.867 233.846 644.645 234.307 644.199 234.631C643.754 234.955 643.129 235.117 642.324 235.117C641.473 235.117 640.809 234.982 640.332 234.713V233.811C640.641 233.967 640.971 234.09 641.322 234.18C641.678 234.27 642.02 234.314 642.348 234.314C642.855 234.314 643.246 234.234 643.52 234.074C643.793 233.91 643.93 233.662 643.93 233.33C643.93 233.08 643.82 232.867 643.602 232.691C643.387 232.512 642.965 232.301 642.336 232.059C641.738 231.836 641.312 231.643 641.059 231.479C640.809 231.311 640.621 231.121 640.496 230.91C640.375 230.699 640.314 230.447 640.314 230.154C640.314 229.631 640.527 229.219 640.953 228.918C641.379 228.613 641.963 228.461 642.705 228.461C643.396 228.461 644.072 228.602 644.732 228.883L644.387 229.674C643.742 229.408 643.158 229.275 642.635 229.275C642.174 229.275 641.826 229.348 641.592 229.492C641.357 229.637 641.24 229.836 641.24 230.09C641.24 230.262 641.283 230.408 641.369 230.529C641.459 230.65 641.602 230.766 641.797 230.875C641.992 230.984 642.367 231.143 642.922 231.35C643.684 231.627 644.197 231.906 644.463 232.188C644.732 232.469 644.867 232.822 644.867 233.248ZM650.598 233.248C650.598 233.846 650.375 234.307 649.93 234.631C649.484 234.955 648.859 235.117 648.055 235.117C647.203 235.117 646.539 234.982 646.062 234.713V233.811C646.371 233.967 646.701 234.09 647.053 234.18C647.408 234.27 647.75 234.314 648.078 234.314C648.586 234.314 648.977 234.234 649.25 234.074C649.523 233.91 649.66 233.662 649.66 233.33C649.66 233.08 649.551 232.867 649.332 232.691C649.117 232.512 648.695 232.301 648.066 232.059C647.469 231.836 647.043 231.643 646.789 231.479C646.539 231.311 646.352 231.121 646.227 230.91C646.105 230.699 646.045 230.447 646.045 230.154C646.045 229.631 646.258 229.219 646.684 228.918C647.109 228.613 647.693 228.461 648.436 228.461C649.127 228.461 649.803 228.602 650.463 228.883L650.117 229.674C649.473 229.408 648.889 229.275 648.365 229.275C647.904 229.275 647.557 229.348 647.322 229.492C647.088 229.637 646.971 229.836 646.971 230.09C646.971 230.262 647.014 230.408 647.1 230.529C647.189 230.65 647.332 230.766 647.527 230.875C647.723 230.984 648.098 231.143 648.652 231.35C649.414 231.627 649.928 231.906 650.193 232.188C650.463 232.469 650.598 232.822 650.598 233.248ZM653.158 235H652.186V228.578H653.158V235ZM652.104 226.838C652.104 226.615 652.158 226.453 652.268 226.352C652.377 226.246 652.514 226.193 652.678 226.193C652.834 226.193 652.969 226.246 653.082 226.352C653.195 226.457 653.252 226.619 653.252 226.838C653.252 227.057 653.195 227.221 653.082 227.33C652.969 227.436 652.834 227.488 652.678 227.488C652.514 227.488 652.377 227.436 652.268 227.33C652.158 227.221 652.104 227.057 652.104 226.838ZM658.115 229.334H656.48V235H655.508V229.334H654.359V228.895L655.508 228.543V228.186C655.508 226.607 656.197 225.818 657.576 225.818C657.916 225.818 658.314 225.887 658.771 226.023L658.52 226.803C658.145 226.682 657.824 226.621 657.559 226.621C657.191 226.621 656.92 226.744 656.744 226.99C656.568 227.232 656.48 227.623 656.48 228.162V228.578H658.115V229.334ZM660.26 235H659.287V228.578H660.26V235ZM659.205 226.838C659.205 226.615 659.26 226.453 659.369 226.352C659.479 226.246 659.615 226.193 659.779 226.193C659.936 226.193 660.07 226.246 660.184 226.352C660.297 226.457 660.354 226.619 660.354 226.838C660.354 227.057 660.297 227.221 660.184 227.33C660.07 227.436 659.936 227.488 659.779 227.488C659.615 227.488 659.479 227.436 659.369 227.33C659.26 227.221 659.205 227.057 659.205 226.838ZM664.889 235.117C663.959 235.117 663.238 234.832 662.727 234.262C662.219 233.688 661.965 232.877 661.965 231.83C661.965 230.756 662.223 229.926 662.738 229.34C663.258 228.754 663.996 228.461 664.953 228.461C665.262 228.461 665.57 228.494 665.879 228.561C666.188 228.627 666.43 228.705 666.605 228.795L666.307 229.621C666.092 229.535 665.857 229.465 665.604 229.41C665.35 229.352 665.125 229.322 664.93 229.322C663.625 229.322 662.973 230.154 662.973 231.818C662.973 232.607 663.131 233.213 663.447 233.635C663.768 234.057 664.24 234.268 664.865 234.268C665.4 234.268 665.949 234.152 666.512 233.922V234.783C666.082 235.006 665.541 235.117 664.889 235.117ZM671.99 235L671.797 234.086H671.75C671.43 234.488 671.109 234.762 670.789 234.906C670.473 235.047 670.076 235.117 669.6 235.117C668.963 235.117 668.463 234.953 668.1 234.625C667.74 234.297 667.561 233.83 667.561 233.225C667.561 231.928 668.598 231.248 670.672 231.186L671.762 231.15V230.752C671.762 230.248 671.652 229.877 671.434 229.639C671.219 229.396 670.873 229.275 670.396 229.275C669.861 229.275 669.256 229.439 668.58 229.768L668.281 229.023C668.598 228.852 668.943 228.717 669.318 228.619C669.697 228.521 670.076 228.473 670.455 228.473C671.221 228.473 671.787 228.643 672.154 228.982C672.525 229.322 672.711 229.867 672.711 230.617V235H671.99ZM669.793 234.314C670.398 234.314 670.873 234.148 671.217 233.816C671.564 233.484 671.738 233.02 671.738 232.422V231.842L670.766 231.883C669.992 231.91 669.434 232.031 669.09 232.246C668.75 232.457 668.58 232.787 668.58 233.236C668.58 233.588 668.686 233.855 668.896 234.039C669.111 234.223 669.41 234.314 669.793 234.314ZM676.795 234.314C676.967 234.314 677.133 234.303 677.293 234.279C677.453 234.252 677.58 234.225 677.674 234.197V234.941C677.568 234.992 677.412 235.033 677.205 235.064C677.002 235.1 676.818 235.117 676.654 235.117C675.412 235.117 674.791 234.463 674.791 233.154V229.334H673.871V228.865L674.791 228.461L675.201 227.09H675.764V228.578H677.627V229.334H675.764V233.113C675.764 233.5 675.855 233.797 676.039 234.004C676.223 234.211 676.475 234.314 676.795 234.314ZM679.936 235H678.963V228.578H679.936V235ZM678.881 226.838C678.881 226.615 678.936 226.453 679.045 226.352C679.154 226.246 679.291 226.193 679.455 226.193C679.611 226.193 679.746 226.246 679.859 226.352C679.973 226.457 680.029 226.619 680.029 226.838C680.029 227.057 679.973 227.221 679.859 227.33C679.746 227.436 679.611 227.488 679.455 227.488C679.291 227.488 679.154 227.436 679.045 227.33C678.936 227.221 678.881 227.057 678.881 226.838ZM687.541 231.783C687.541 232.83 687.277 233.648 686.75 234.238C686.223 234.824 685.494 235.117 684.564 235.117C683.99 235.117 683.48 234.982 683.035 234.713C682.59 234.443 682.246 234.057 682.004 233.553C681.762 233.049 681.641 232.459 681.641 231.783C681.641 230.736 681.902 229.922 682.426 229.34C682.949 228.754 683.676 228.461 684.605 228.461C685.504 228.461 686.217 228.76 686.744 229.357C687.275 229.955 687.541 230.764 687.541 231.783ZM682.648 231.783C682.648 232.604 682.812 233.229 683.141 233.658C683.469 234.088 683.951 234.303 684.588 234.303C685.225 234.303 685.707 234.09 686.035 233.664C686.367 233.234 686.533 232.607 686.533 231.783C686.533 230.967 686.367 230.348 686.035 229.926C685.707 229.5 685.221 229.287 684.576 229.287C683.939 229.287 683.459 229.496 683.135 229.914C682.811 230.332 682.648 230.955 682.648 231.783ZM693.646 235V230.846C693.646 230.322 693.527 229.932 693.289 229.674C693.051 229.416 692.678 229.287 692.17 229.287C691.498 229.287 691.006 229.469 690.693 229.832C690.381 230.195 690.225 230.795 690.225 231.631V235H689.252V228.578H690.043L690.201 229.457H690.248C690.447 229.141 690.727 228.896 691.086 228.725C691.445 228.549 691.846 228.461 692.287 228.461C693.061 228.461 693.643 228.648 694.033 229.023C694.424 229.395 694.619 229.99 694.619 230.811V235H693.646Z" fill="black"/>
<path d="M276 26.5C275.189 26.5 274.513 26.9006 273.967 27.5481C273.43 28.1852 272.995 29.0857 272.635 30.1726C271.912 32.3497 271.44 35.4252 271.127 39.0665C270.5 46.3584 270.5 56.0705 270.5 65.75C270.5 75.4455 270.5 85.1084 269.877 92.3478C269.565 95.9721 269.1 98.9513 268.416 101.012C268.074 102.045 267.688 102.809 267.268 103.307C266.857 103.795 266.439 104 266 104L266 105C266.811 105 267.487 104.599 268.033 103.952C268.57 103.315 269.005 102.414 269.365 101.327C270.088 99.1503 270.56 96.0748 270.873 92.4335C271.5 85.1416 271.5 75.4295 271.5 65.75C271.5 56.0545 271.5 46.3916 272.123 39.1522C272.435 35.5279 272.9 32.5487 273.584 30.4875C273.926 29.4553 274.312 28.6908 274.732 28.1926C275.143 27.7048 275.561 27.5 276 27.5L276 26.5ZM276 181.5C275.561 181.5 275.143 181.295 274.732 180.807C274.312 180.309 273.926 179.545 273.584 178.512C272.9 176.451 272.435 173.472 272.123 169.848C271.5 162.608 271.5 152.945 271.5 143.25C271.5 133.57 271.5 123.858 270.873 116.567C270.56 112.925 270.088 109.85 269.365 107.673C269.005 106.586 268.57 105.685 268.033 105.048C267.487 104.401 266.811 104 266 104L266 105C266.439 105 266.857 105.205 267.268 105.693C267.688 106.191 268.074 106.955 268.416 107.988C269.1 110.049 269.565 113.028 269.877 116.652C270.5 123.892 270.5 133.555 270.5 143.25C270.5 152.93 270.5 162.642 271.127 169.933C271.44 173.575 271.912 176.65 272.635 178.827C272.995 179.914 273.43 180.815 273.967 181.452C274.513 182.099 275.189 182.5 276 182.5L276 181.5Z" fill="black"/>
<path d="M256.027 102.449C256.027 102.996 255.873 103.443 255.564 103.791C255.26 104.139 254.826 104.371 254.264 104.488V104.535C254.951 104.621 255.461 104.84 255.793 105.191C256.125 105.543 256.291 106.004 256.291 106.574C256.291 107.391 256.008 108.02 255.441 108.461C254.875 108.898 254.07 109.117 253.027 109.117C252.574 109.117 252.158 109.082 251.779 109.012C251.404 108.945 251.039 108.826 250.684 108.654V107.729C251.055 107.912 251.449 108.053 251.867 108.15C252.289 108.244 252.688 108.291 253.062 108.291C254.543 108.291 255.283 107.711 255.283 106.551C255.283 105.512 254.467 104.992 252.834 104.992H251.99V104.154H252.846C253.514 104.154 254.043 104.008 254.434 103.715C254.824 103.418 255.02 103.008 255.02 102.484C255.02 102.066 254.875 101.738 254.586 101.5C254.301 101.262 253.912 101.143 253.42 101.143C253.045 101.143 252.691 101.193 252.359 101.295C252.027 101.396 251.648 101.584 251.223 101.857L250.73 101.201C251.082 100.924 251.486 100.707 251.943 100.551C252.404 100.391 252.889 100.311 253.396 100.311C254.229 100.311 254.875 100.502 255.336 100.885C255.797 101.264 256.027 101.785 256.027 102.449ZM263.217 109H257.586V108.162L259.842 105.895C260.529 105.199 260.982 104.703 261.201 104.406C261.42 104.109 261.584 103.82 261.693 103.539C261.803 103.258 261.857 102.955 261.857 102.631C261.857 102.174 261.719 101.812 261.441 101.547C261.164 101.277 260.779 101.143 260.287 101.143C259.932 101.143 259.594 101.201 259.273 101.318C258.957 101.436 258.604 101.648 258.213 101.957L257.697 101.295C258.486 100.639 259.346 100.311 260.275 100.311C261.08 100.311 261.711 100.518 262.168 100.932C262.625 101.342 262.854 101.895 262.854 102.59C262.854 103.133 262.701 103.67 262.396 104.201C262.092 104.732 261.521 105.404 260.686 106.217L258.811 108.051V108.098H263.217V109Z" fill="black"/>
<path d="M146.5 145C146.5 146.402 147.053 147.479 148.013 148.275C148.95 149.053 150.252 149.544 151.739 149.864C154.708 150.502 158.644 150.5 162.5 150.5C166.394 150.5 170.208 150.502 173.051 151.114C174.471 151.419 175.591 151.866 176.349 152.494C177.084 153.104 177.5 153.902 177.5 155L178.5 155C178.5 153.598 177.947 152.521 176.987 151.725C176.05 150.947 174.748 150.456 173.261 150.136C170.292 149.498 166.356 149.5 162.5 149.5C158.606 149.5 154.792 149.498 151.949 148.886C150.529 148.581 149.409 148.134 148.651 147.506C147.916 146.896 147.5 146.098 147.5 145L146.5 145ZM208.5 145C208.5 146.098 208.084 146.896 207.349 147.506C206.591 148.134 205.471 148.581 204.051 148.886C201.208 149.498 197.394 149.5 193.5 149.5C189.644 149.5 185.708 149.498 182.739 150.136C181.252 150.456 179.95 150.947 179.013 151.725C178.053 152.521 177.5 153.598 177.5 155L178.5 155C178.5 153.902 178.916 153.104 179.651 152.494C180.409 151.866 181.529 151.419 182.949 151.114C185.792 150.502 189.606 150.5 193.5 150.5C197.356 150.5 201.292 150.502 204.261 149.864C205.748 149.544 207.05 149.053 207.987 148.275C208.947 147.479 209.5 146.402 209.5 145L208.5 145Z" fill="black"/>
<path d="M177.35 168H171.719V167.162L173.975 164.895C174.662 164.199 175.115 163.703 175.334 163.406C175.553 163.109 175.717 162.82 175.826 162.539C175.936 162.258 175.99 161.955 175.99 161.631C175.99 161.174 175.852 160.812 175.574 160.547C175.297 160.277 174.912 160.143 174.42 160.143C174.064 160.143 173.727 160.201 173.406 160.318C173.09 160.436 172.736 160.648 172.346 160.957L171.83 160.295C172.619 159.639 173.479 159.311 174.408 159.311C175.213 159.311 175.844 159.518 176.301 159.932C176.758 160.342 176.986 160.895 176.986 161.59C176.986 162.133 176.834 162.67 176.529 163.201C176.225 163.732 175.654 164.404 174.818 165.217L172.943 167.051V167.098H177.35V168ZM184.621 166.031H183.35V168H182.418V166.031H178.252V165.182L182.318 159.387H183.35V165.146H184.621V166.031ZM182.418 165.146V162.299C182.418 161.74 182.438 161.109 182.477 160.406H182.43C182.242 160.781 182.066 161.092 181.902 161.338L179.225 165.146H182.418Z" fill="black"/>
<path d="M177.35 168H171.719V167.162L173.975 164.895C174.662 164.199 175.115 163.703 175.334 163.406C175.553 163.109 175.717 162.82 175.826 162.539C175.936 162.258 175.99 161.955 175.99 161.631C175.99 161.174 175.852 160.812 175.574 160.547C175.297 160.277 174.912 160.143 174.42 160.143C174.064 160.143 173.727 160.201 173.406 160.318C173.09 160.436 172.736 160.648 172.346 160.957L171.83 160.295C172.619 159.639 173.479 159.311 174.408 159.311C175.213 159.311 175.844 159.518 176.301 159.932C176.758 160.342 176.986 160.895 176.986 161.59C176.986 162.133 176.834 162.67 176.529 163.201C176.225 163.732 175.654 164.404 174.818 165.217L172.943 167.051V167.098H177.35V168ZM184.621 166.031H183.35V168H182.418V166.031H178.252V165.182L182.318 159.387H183.35V165.146H184.621V166.031ZM182.418 165.146V162.299C182.418 161.74 182.438 161.109 182.477 160.406H182.43C182.242 160.781 182.066 161.092 181.902 161.338L179.225 165.146H182.418Z" fill="black"/>
<path d="M177.35 168H171.719V167.162L173.975 164.895C174.662 164.199 175.115 163.703 175.334 163.406C175.553 163.109 175.717 162.82 175.826 162.539C175.936 162.258 175.99 161.955 175.99 161.631C175.99 161.174 175.852 160.812 175.574 160.547C175.297 160.277 174.912 160.143 174.42 160.143C174.064 160.143 173.727 160.201 173.406 160.318C173.09 160.436 172.736 160.648 172.346 160.957L171.83 160.295C172.619 159.639 173.479 159.311 174.408 159.311C175.213 159.311 175.844 159.518 176.301 159.932C176.758 160.342 176.986 160.895 176.986 161.59C176.986 162.133 176.834 162.67 176.529 163.201C176.225 163.732 175.654 164.404 174.818 165.217L172.943 167.051V167.098H177.35V168ZM184.621 166.031H183.35V168H182.418V166.031H178.252V165.182L182.318 159.387H183.35V165.146H184.621V166.031ZM182.418 165.146V162.299C182.418 161.74 182.438 161.109 182.477 160.406H182.43C182.242 160.781 182.066 161.092 181.902 161.338L179.225 165.146H182.418Z" fill="black"/>
<path d="M280.5 187C280.5 188.09 280.783 188.957 281.319 189.625C281.85 190.288 282.592 190.707 283.424 190.976C285.063 191.505 287.215 191.5 289.25 191.5C291.34 191.5 293.313 191.505 294.768 191.976C295.483 192.207 296.03 192.538 296.401 193C296.767 193.457 297 194.09 297 195L298 195C298 193.91 297.717 193.043 297.181 192.375C296.65 191.712 295.908 191.293 295.076 191.024C293.437 190.495 291.285 190.5 289.25 190.5C287.16 190.5 285.187 190.495 283.732 190.024C283.017 189.793 282.47 189.462 282.099 189C281.733 188.543 281.5 187.91 281.5 187L280.5 187ZM313.5 187C313.5 187.91 313.267 188.543 312.901 189C312.53 189.462 311.983 189.793 311.268 190.024C309.813 190.495 307.84 190.5 305.75 190.5C303.715 190.5 301.563 190.495 299.924 191.024C299.092 191.293 298.35 191.712 297.819 192.375C297.283 193.043 297 193.91 297 195L298 195C298 194.09 298.233 193.457 298.599 193C298.97 192.538 299.517 192.207 300.232 191.976C301.687 191.505 303.66 191.5 305.75 191.5C307.785 191.5 309.937 191.505 311.576 190.976C312.408 190.707 313.15 190.288 313.681 189.625C314.217 188.957 314.5 188.09 314.5 187L313.5 187Z" fill="black"/>
<path d="M297.488 199.311C298.27 199.311 298.889 199.492 299.346 199.855C299.803 200.219 300.031 200.721 300.031 201.361C300.031 201.783 299.9 202.168 299.639 202.516C299.377 202.863 298.959 203.18 298.385 203.465C299.08 203.797 299.574 204.146 299.867 204.514C300.16 204.877 300.307 205.299 300.307 205.779C300.307 206.49 300.059 207.059 299.562 207.484C299.066 207.906 298.387 208.117 297.523 208.117C296.609 208.117 295.906 207.918 295.414 207.52C294.922 207.117 294.676 206.549 294.676 205.814C294.676 204.834 295.273 204.07 296.469 203.523C295.93 203.219 295.543 202.891 295.309 202.539C295.074 202.184 294.957 201.787 294.957 201.35C294.957 200.729 295.186 200.234 295.643 199.867C296.104 199.496 296.719 199.311 297.488 199.311ZM295.637 205.838C295.637 206.307 295.799 206.672 296.123 206.934C296.451 207.195 296.91 207.326 297.5 207.326C298.082 207.326 298.535 207.189 298.859 206.916C299.184 206.643 299.346 206.268 299.346 205.791C299.346 205.412 299.193 205.076 298.889 204.783C298.584 204.486 298.053 204.199 297.295 203.922C296.713 204.172 296.291 204.449 296.029 204.754C295.768 205.055 295.637 205.416 295.637 205.838ZM297.477 200.102C296.988 200.102 296.605 200.219 296.328 200.453C296.051 200.688 295.912 201 295.912 201.391C295.912 201.75 296.027 202.059 296.258 202.316C296.488 202.574 296.914 202.832 297.535 203.09C298.094 202.855 298.488 202.604 298.719 202.334C298.953 202.064 299.07 201.75 299.07 201.391C299.07 200.996 298.928 200.684 298.643 200.453C298.361 200.219 297.973 200.102 297.477 200.102Z" fill="black"/>
<path d="M498.5 130C498.5 131.262 499.309 132.15 500.49 132.757C501.662 133.36 503.293 133.743 505.184 133.996C508.974 134.501 514.012 134.5 519 134.5C524.012 134.5 528.974 134.501 532.684 134.996C534.543 135.243 536.037 135.61 537.053 136.132C538.059 136.65 538.5 137.262 538.5 138L539.5 138C539.5 136.738 538.691 135.85 537.51 135.243C536.338 134.64 534.707 134.257 532.816 134.004C529.026 133.499 523.988 133.5 519 133.5C513.988 133.5 509.026 133.499 505.316 133.004C503.457 132.757 501.963 132.39 500.947 131.868C499.941 131.35 499.5 130.738 499.5 130L498.5 130ZM578.5 130C578.5 130.738 578.059 131.35 577.053 131.868C576.037 132.39 574.543 132.757 572.684 133.004C568.974 133.499 564.012 133.5 559 133.5C554.012 133.5 548.974 133.499 545.184 134.004C543.293 134.257 541.662 134.64 540.49 135.243C539.309 135.85 538.5 136.738 538.5 138L539.5 138C539.5 137.262 539.941 136.65 540.947 136.132C541.963 135.61 543.457 135.243 545.316 134.996C549.026 134.501 553.988 134.5 559 134.5C563.988 134.5 569.026 134.501 572.816 133.996C574.707 133.743 576.338 133.36 577.51 132.757C578.691 132.15 579.5 131.262 579.5 130L578.5 130Z" fill="black"/>
<path d="M494 74.5C492.847 74.5 491.957 74.9604 491.301 75.7565C490.665 76.5298 490.268 77.5969 490.011 78.8019C489.498 81.2088 489.5 84.3942 489.5 87.5C489.5 90.6442 489.498 93.7088 489.011 95.9894C488.768 97.1282 488.415 98.0142 487.926 98.6081C487.457 99.1791 486.847 99.5 486 99.5L486 100.5C487.153 100.5 488.043 100.04 488.699 99.2435C489.335 98.4702 489.732 97.4031 489.989 96.1981C490.502 93.7912 490.5 90.6058 490.5 87.5C490.5 84.3558 490.502 81.2912 490.989 79.0106C491.232 77.8718 491.585 76.9858 492.074 76.3919C492.543 75.8209 493.153 75.5 494 75.5L494 74.5ZM494 124.5C493.153 124.5 492.543 124.179 492.074 123.608C491.585 123.014 491.232 122.128 490.989 120.989C490.502 118.709 490.5 115.644 490.5 112.5C490.5 109.394 490.502 106.209 489.989 103.802C489.732 102.597 489.335 101.53 488.699 100.757C488.043 99.9604 487.153 99.5 486 99.5L486 100.5C486.847 100.5 487.457 100.821 487.926 101.392C488.415 101.986 488.768 102.872 489.011 104.011C489.498 106.291 489.5 109.356 489.5 112.5C489.5 115.606 489.498 118.791 490.011 121.198C490.268 122.403 490.665 123.47 491.301 124.243C491.957 125.04 492.847 125.5 494 125.5L494 124.5Z" fill="black"/>
<path d="M536.322 151H535.373V144.895C535.373 144.387 535.389 143.906 535.42 143.453C535.338 143.535 535.246 143.621 535.145 143.711C535.043 143.801 534.578 144.182 533.75 144.854L533.234 144.186L535.502 142.434H536.322V151ZM545.264 146.705C545.264 148.186 545.029 149.291 544.561 150.021C544.096 150.752 543.383 151.117 542.422 151.117C541.5 151.117 540.799 150.744 540.318 149.998C539.838 149.248 539.598 148.15 539.598 146.705C539.598 145.213 539.83 144.105 540.295 143.383C540.76 142.66 541.469 142.299 542.422 142.299C543.352 142.299 544.057 142.676 544.537 143.43C545.021 144.184 545.264 145.275 545.264 146.705ZM540.582 146.705C540.582 147.951 540.729 148.859 541.021 149.43C541.314 149.996 541.781 150.279 542.422 150.279C543.07 150.279 543.539 149.992 543.828 149.418C544.121 148.84 544.268 147.936 544.268 146.705C544.268 145.475 544.121 144.574 543.828 144.004C543.539 143.43 543.07 143.143 542.422 143.143C541.781 143.143 541.314 143.426 541.021 143.992C540.729 144.555 540.582 145.459 540.582 146.705Z" fill="black"/>
<path d="M618.5 110C618.5 111.262 619.309 112.15 620.49 112.757C621.662 113.36 623.293 113.743 625.184 113.996C628.974 114.501 634.012 114.5 639 114.5C644.012 114.5 648.974 114.501 652.684 114.996C654.543 115.243 656.037 115.61 657.053 116.132C658.059 116.65 658.5 117.262 658.5 118L659.5 118C659.5 116.738 658.691 115.85 657.51 115.243C656.338 114.64 654.707 114.257 652.816 114.004C649.026 113.499 643.988 113.5 639 113.5C633.988 113.5 629.026 113.499 625.316 113.004C623.457 112.757 621.963 112.39 620.947 111.868C619.941 111.35 619.5 110.738 619.5 110L618.5 110ZM698.5 110C698.5 110.738 698.059 111.35 697.053 111.868C696.037 112.39 694.543 112.757 692.684 113.004C688.974 113.499 684.012 113.5 679 113.5C674.012 113.5 668.974 113.499 665.184 114.004C663.293 114.257 661.662 114.64 660.49 115.243C659.309 115.85 658.5 116.738 658.5 118L659.5 118C659.5 117.262 659.941 116.65 660.947 116.132C661.963 115.61 663.457 115.243 665.316 114.996C669.026 114.501 673.988 114.5 679 114.5C683.988 114.5 689.026 114.501 692.816 113.996C694.707 113.743 696.338 113.36 697.51 112.757C698.691 112.15 699.5 111.262 699.5 110L698.5 110Z" fill="black"/>
<path d="M656.322 131H655.373V124.895C655.373 124.387 655.389 123.906 655.42 123.453C655.338 123.535 655.246 123.621 655.145 123.711C655.043 123.801 654.578 124.182 653.75 124.854L653.234 124.186L655.502 122.434H656.322V131ZM665.264 126.705C665.264 128.186 665.029 129.291 664.561 130.021C664.096 130.752 663.383 131.117 662.422 131.117C661.5 131.117 660.799 130.744 660.318 129.998C659.838 129.248 659.598 128.15 659.598 126.705C659.598 125.213 659.83 124.105 660.295 123.383C660.76 122.66 661.469 122.299 662.422 122.299C663.352 122.299 664.057 122.676 664.537 123.43C665.021 124.184 665.264 125.275 665.264 126.705ZM660.582 126.705C660.582 127.951 660.729 128.859 661.021 129.43C661.314 129.996 661.781 130.279 662.422 130.279C663.07 130.279 663.539 129.992 663.828 129.418C664.121 128.84 664.268 127.936 664.268 126.705C664.268 125.475 664.121 124.574 663.828 124.004C663.539 123.43 663.07 123.143 662.422 123.143C661.781 123.143 661.314 123.426 661.021 123.992C660.729 124.555 660.582 125.459 660.582 126.705Z" fill="black"/>
<path d="M474.322 104H473.373V97.8945C473.373 97.3867 473.389 96.9062 473.42 96.4531C473.338 96.5352 473.246 96.6211 473.145 96.7109C473.043 96.8008 472.578 97.1816 471.75 97.8535L471.234 97.1855L473.502 95.4336H474.322V104ZM477.686 100.338C477.686 98.6543 478.012 97.3965 478.664 96.5645C479.32 95.7285 480.289 95.3105 481.57 95.3105C482.012 95.3105 482.359 95.3477 482.613 95.4219V96.2598C482.312 96.1621 481.969 96.1133 481.582 96.1133C480.664 96.1133 479.963 96.4004 479.479 96.9746C478.994 97.5449 478.729 98.4434 478.682 99.6699H478.752C479.182 98.998 479.861 98.6621 480.791 98.6621C481.561 98.6621 482.166 98.8945 482.607 99.3594C483.053 99.8242 483.275 100.455 483.275 101.252C483.275 102.143 483.031 102.844 482.543 103.355C482.059 103.863 481.402 104.117 480.574 104.117C479.688 104.117 478.984 103.785 478.465 103.121C477.945 102.453 477.686 101.525 477.686 100.338ZM480.562 103.291C481.117 103.291 481.547 103.117 481.852 102.77C482.16 102.418 482.314 101.912 482.314 101.252C482.314 100.686 482.172 100.24 481.887 99.916C481.602 99.5918 481.176 99.4297 480.609 99.4297C480.258 99.4297 479.936 99.502 479.643 99.6465C479.35 99.791 479.115 99.9902 478.939 100.244C478.768 100.498 478.682 100.762 478.682 101.035C478.682 101.438 478.76 101.812 478.916 102.16C479.072 102.508 479.293 102.783 479.578 102.986C479.867 103.189 480.195 103.291 480.562 103.291Z" fill="black"/>
<path d="M408.5 165C408.5 166.115 408.853 166.995 409.501 167.661C410.135 168.313 411.013 168.721 411.996 168.983C413.948 169.504 416.523 169.5 419 169.5C421.523 169.5 423.948 169.504 425.746 169.983C426.638 170.221 427.323 170.563 427.782 171.036C428.228 171.495 428.5 172.115 428.5 173L429.5 173C429.5 171.885 429.147 171.005 428.499 170.339C427.865 169.687 426.987 169.279 426.004 169.017C424.052 168.496 421.477 168.5 419 168.5C416.477 168.5 414.052 168.496 412.254 168.017C411.362 167.779 410.677 167.437 410.218 166.964C409.772 166.505 409.5 165.885 409.5 165L408.5 165ZM448.5 165C448.5 165.885 448.228 166.505 447.782 166.964C447.323 167.437 446.638 167.779 445.746 168.017C443.948 168.496 441.523 168.5 439 168.5C436.523 168.5 433.948 168.496 431.996 169.017C431.013 169.279 430.135 169.687 429.501 170.339C428.853 171.005 428.5 171.885 428.5 173L429.5 173C429.5 172.115 429.772 171.495 430.218 171.036C430.677 170.563 431.362 170.221 432.254 169.983C434.052 169.504 436.477 169.5 439 169.5C441.477 169.5 444.052 169.504 446.004 168.983C446.987 168.721 447.865 168.313 448.499 167.661C449.147 166.995 449.5 166.115 449.5 165L448.5 165Z" fill="black"/>
<path d="M404 39.5C403.321 39.5 402.755 39.8259 402.303 40.3454C401.859 40.8542 401.506 41.5672 401.215 42.416C400.632 44.116 400.253 46.5094 400.002 49.3307C399.5 54.9828 399.5 62.5082 399.5 70C399.5 77.5082 399.5 84.9828 399.002 90.5807C398.753 93.3844 398.382 95.6785 397.84 97.2597C397.568 98.0516 397.266 98.6276 396.943 98.9977C396.63 99.3572 396.321 99.5 396 99.5L396 100.5C396.679 100.5 397.245 100.174 397.697 99.6546C398.14 99.1458 398.494 98.4328 398.785 97.584C399.368 95.884 399.747 93.4906 399.998 90.6693C400.5 85.0172 400.5 77.4918 400.5 70C400.5 62.4918 400.5 55.0172 400.998 49.4193C401.247 46.6156 401.618 44.3215 402.16 42.7403C402.432 41.9484 402.734 41.3724 403.057 41.0023C403.37 40.6428 403.679 40.5 404 40.5L404 39.5ZM404 159.5C403.679 159.5 403.37 159.357 403.057 158.998C402.734 158.628 402.432 158.052 402.16 157.26C401.618 155.679 401.247 153.384 400.998 150.581C400.5 144.983 400.5 137.508 400.5 130C400.5 122.508 400.5 114.983 399.998 109.331C399.747 106.509 399.368 104.116 398.785 102.416C398.494 101.567 398.14 100.854 397.697 100.345C397.245 99.8259 396.679 99.5 396 99.5L396 100.5C396.321 100.5 396.63 100.643 396.943 101.002C397.266 101.372 397.568 101.948 397.84 102.74C398.382 104.321 398.753 106.616 399.002 109.419C399.5 115.017 399.5 122.492 399.5 130C399.5 137.492 399.5 145.017 400.002 150.669C400.253 153.491 400.632 155.884 401.214 157.584C401.506 158.433 401.859 159.146 402.303 159.655C402.755 160.174 403.321 160.5 404 160.5L404 159.5Z" fill="black"/>
<path d="M429.488 177.311C430.27 177.311 430.889 177.492 431.346 177.855C431.803 178.219 432.031 178.721 432.031 179.361C432.031 179.783 431.9 180.168 431.639 180.516C431.377 180.863 430.959 181.18 430.385 181.465C431.08 181.797 431.574 182.146 431.867 182.514C432.16 182.877 432.307 183.299 432.307 183.779C432.307 184.49 432.059 185.059 431.562 185.484C431.066 185.906 430.387 186.117 429.523 186.117C428.609 186.117 427.906 185.918 427.414 185.52C426.922 185.117 426.676 184.549 426.676 183.814C426.676 182.834 427.273 182.07 428.469 181.523C427.93 181.219 427.543 180.891 427.309 180.539C427.074 180.184 426.957 179.787 426.957 179.35C426.957 178.729 427.186 178.234 427.643 177.867C428.104 177.496 428.719 177.311 429.488 177.311ZM427.637 183.838C427.637 184.307 427.799 184.672 428.123 184.934C428.451 185.195 428.91 185.326 429.5 185.326C430.082 185.326 430.535 185.189 430.859 184.916C431.184 184.643 431.346 184.268 431.346 183.791C431.346 183.412 431.193 183.076 430.889 182.783C430.584 182.486 430.053 182.199 429.295 181.922C428.713 182.172 428.291 182.449 428.029 182.754C427.768 183.055 427.637 183.416 427.637 183.838ZM429.477 178.102C428.988 178.102 428.605 178.219 428.328 178.453C428.051 178.688 427.912 179 427.912 179.391C427.912 179.75 428.027 180.059 428.258 180.316C428.488 180.574 428.914 180.832 429.535 181.09C430.094 180.855 430.488 180.604 430.719 180.334C430.953 180.064 431.07 179.75 431.07 179.391C431.07 178.996 430.928 178.684 430.643 178.453C430.361 178.219 429.973 178.102 429.477 178.102Z" fill="black"/>
<path d="M372.482 104H366.852V103.162L369.107 100.895C369.795 100.199 370.248 99.7031 370.467 99.4062C370.686 99.1094 370.85 98.8203 370.959 98.5391C371.068 98.2578 371.123 97.9551 371.123 97.6309C371.123 97.1738 370.984 96.8125 370.707 96.5469C370.43 96.2773 370.045 96.1426 369.553 96.1426C369.197 96.1426 368.859 96.2012 368.539 96.3184C368.223 96.4355 367.869 96.6484 367.479 96.957L366.963 96.2949C367.752 95.6387 368.611 95.3105 369.541 95.3105C370.346 95.3105 370.977 95.5176 371.434 95.9316C371.891 96.3418 372.119 96.8945 372.119 97.5898C372.119 98.1328 371.967 98.6699 371.662 99.2012C371.357 99.7324 370.787 100.404 369.951 101.217L368.076 103.051V103.098H372.482V104ZM379.396 99.7051C379.396 101.186 379.162 102.291 378.693 103.021C378.229 103.752 377.516 104.117 376.555 104.117C375.633 104.117 374.932 103.744 374.451 102.998C373.971 102.248 373.73 101.15 373.73 99.7051C373.73 98.2129 373.963 97.1055 374.428 96.3828C374.893 95.6602 375.602 95.2988 376.555 95.2988C377.484 95.2988 378.189 95.6758 378.67 96.4297C379.154 97.1836 379.396 98.2754 379.396 99.7051ZM374.715 99.7051C374.715 100.951 374.861 101.859 375.154 102.43C375.447 102.996 375.914 103.279 376.555 103.279C377.203 103.279 377.672 102.992 377.961 102.418C378.254 101.84 378.4 100.936 378.4 99.7051C378.4 98.4746 378.254 97.5742 377.961 97.0039C377.672 96.4297 377.203 96.1426 376.555 96.1426C375.914 96.1426 375.447 96.4258 375.154 96.9922C374.861 97.5547 374.715 98.459 374.715 99.7051ZM386.621 102.031H385.35V104H384.418V102.031H380.252V101.182L384.318 95.3867H385.35V101.146H386.621V102.031ZM384.418 101.146V98.2988C384.418 97.7402 384.438 97.1094 384.477 96.4062H384.43C384.242 96.7812 384.066 97.0918 383.902 97.3379L381.225 101.146H384.418ZM390.289 95.3105C391.07 95.3105 391.689 95.4922 392.146 95.8555C392.604 96.2188 392.832 96.7207 392.832 97.3613C392.832 97.7832 392.701 98.168 392.439 98.5156C392.178 98.8633 391.76 99.1797 391.186 99.4648C391.881 99.7969 392.375 100.146 392.668 100.514C392.961 100.877 393.107 101.299 393.107 101.779C393.107 102.49 392.859 103.059 392.363 103.484C391.867 103.906 391.188 104.117 390.324 104.117C389.41 104.117 388.707 103.918 388.215 103.52C387.723 103.117 387.477 102.549 387.477 101.814C387.477 100.834 388.074 100.07 389.27 99.5234C388.73 99.2188 388.344 98.8906 388.109 98.5391C387.875 98.1836 387.758 97.7871 387.758 97.3496C387.758 96.7285 387.986 96.2344 388.443 95.8672C388.904 95.4961 389.52 95.3105 390.289 95.3105ZM388.438 101.838C388.438 102.307 388.6 102.672 388.924 102.934C389.252 103.195 389.711 103.326 390.301 103.326C390.883 103.326 391.336 103.189 391.66 102.916C391.984 102.643 392.146 102.268 392.146 101.791C392.146 101.412 391.994 101.076 391.689 100.783C391.385 100.486 390.854 100.199 390.096 99.9219C389.514 100.172 389.092 100.449 388.83 100.754C388.568 101.055 388.438 101.416 388.438 101.838ZM390.277 96.1016C389.789 96.1016 389.406 96.2188 389.129 96.4531C388.852 96.6875 388.713 97 388.713 97.3906C388.713 97.75 388.828 98.0586 389.059 98.3164C389.289 98.5742 389.715 98.832 390.336 99.0898C390.895 98.8555 391.289 98.6035 391.52 98.334C391.754 98.0645 391.871 97.75 391.871 97.3906C391.871 96.9961 391.729 96.6836 391.443 96.4531C391.162 96.2188 390.773 96.1016 390.277 96.1016Z" fill="black"/>
<path d="M7.96094 34.4492C7.96094 34.9961 7.80664 35.4434 7.49805 35.791C7.19336 36.1387 6.75977 36.3711 6.19727 36.4883V36.5352C6.88477 36.6211 7.39453 36.8398 7.72656 37.1914C8.05859 37.543 8.22461 38.0039 8.22461 38.5742C8.22461 39.3906 7.94141 40.0195 7.375 40.4609C6.80859 40.8984 6.00391 41.1172 4.96094 41.1172C4.50781 41.1172 4.0918 41.082 3.71289 41.0117C3.33789 40.9453 2.97266 40.8262 2.61719 40.6543V39.7285C2.98828 39.9121 3.38281 40.0527 3.80078 40.1504C4.22266 40.2441 4.62109 40.291 4.99609 40.291C6.47656 40.291 7.2168 39.7109 7.2168 38.5508C7.2168 37.5117 6.40039 36.9922 4.76758 36.9922H3.92383V36.1543H4.7793C5.44727 36.1543 5.97656 36.0078 6.36719 35.7148C6.75781 35.418 6.95312 35.0078 6.95312 34.4844C6.95312 34.0664 6.80859 33.7383 6.51953 33.5C6.23438 33.2617 5.8457 33.1426 5.35352 33.1426C4.97852 33.1426 4.625 33.1934 4.29297 33.2949C3.96094 33.3965 3.58203 33.584 3.15625 33.8574L2.66406 33.2012C3.01562 32.9238 3.41992 32.707 3.87695 32.5508C4.33789 32.3906 4.82227 32.3105 5.33008 32.3105C6.16211 32.3105 6.80859 32.502 7.26953 32.8848C7.73047 33.2637 7.96094 33.7852 7.96094 34.4492Z" fill="black"/>
<path d="M14.33 43.0963C14.0747 42.7571 13.8021 42.5067 13.5013 42.3561C13.1912 42.2007 12.8793 42.1658 12.5808 42.2153C12.035 42.3058 11.548 42.6869 11.1962 42.9518C10.7822 43.2633 10.5034 43.4586 10.2493 43.5007C10.1479 43.5175 10.0513 43.5079 9.94027 43.4523C9.8198 43.3919 9.65845 43.2649 9.46272 43.0049L8.66374 43.6062C8.91904 43.9454 9.19167 44.1958 9.49242 44.3464C9.80257 44.5018 10.1145 44.5367 10.413 44.4872C10.9588 44.3967 11.4457 44.0156 11.7976 43.7507C12.2115 43.4392 12.4904 43.2439 12.7444 43.2018C12.8459 43.185 12.9424 43.1946 13.0535 43.2502C13.174 43.3105 13.3353 43.4376 13.531 43.6976L14.33 43.0963ZM8.20356 47.7074C8.00783 47.4473 7.93041 47.2571 7.90576 47.1246C7.88304 47.0025 7.90051 46.9071 7.94477 46.8143C8.05557 46.5818 8.32036 46.3679 8.73433 46.0563C9.08617 45.7915 9.58719 45.429 9.82523 44.9296C9.9554 44.6565 10.0081 44.3471 9.94466 44.006C9.88313 43.6753 9.71802 43.3441 9.46272 43.0049L8.66374 43.6062C8.85946 43.8663 8.93688 44.0565 8.96153 44.1889C8.98425 44.3111 8.96678 44.4065 8.92253 44.4993C8.81173 44.7318 8.54694 44.9457 8.13297 45.2573C7.78113 45.5221 7.28011 45.8846 7.04206 46.384C6.91189 46.6571 6.85918 46.9665 6.92264 47.3076C6.98417 47.6383 7.14928 47.9695 7.40457 48.3087L8.20356 47.7074Z" fill="black"/>
<path d="M278.488 5.31055C279.27 5.31055 279.889 5.49219 280.346 5.85547C280.803 6.21875 281.031 6.7207 281.031 7.36133C281.031 7.7832 280.9 8.16797 280.639 8.51562C280.377 8.86328 279.959 9.17969 279.385 9.46484C280.08 9.79688 280.574 10.1465 280.867 10.5137C281.16 10.877 281.307 11.2988 281.307 11.7793C281.307 12.4902 281.059 13.0586 280.562 13.4844C280.066 13.9062 279.387 14.1172 278.523 14.1172C277.609 14.1172 276.906 13.918 276.414 13.5195C275.922 13.1172 275.676 12.5488 275.676 11.8145C275.676 10.834 276.273 10.0703 277.469 9.52344C276.93 9.21875 276.543 8.89062 276.309 8.53906C276.074 8.18359 275.957 7.78711 275.957 7.34961C275.957 6.72852 276.186 6.23438 276.643 5.86719C277.104 5.49609 277.719 5.31055 278.488 5.31055ZM276.637 11.8379C276.637 12.3066 276.799 12.6719 277.123 12.9336C277.451 13.1953 277.91 13.3262 278.5 13.3262C279.082 13.3262 279.535 13.1895 279.859 12.916C280.184 12.6426 280.346 12.2676 280.346 11.791C280.346 11.4121 280.193 11.0762 279.889 10.7832C279.584 10.4863 279.053 10.1992 278.295 9.92188C277.713 10.1719 277.291 10.4492 277.029 10.7539C276.768 11.0547 276.637 11.416 276.637 11.8379ZM278.477 6.10156C277.988 6.10156 277.605 6.21875 277.328 6.45312C277.051 6.6875 276.912 7 276.912 7.39062C276.912 7.75 277.027 8.05859 277.258 8.31641C277.488 8.57422 277.914 8.83203 278.535 9.08984C279.094 8.85547 279.488 8.60352 279.719 8.33398C279.953 8.06445 280.07 7.75 280.07 7.39062C280.07 6.99609 279.928 6.68359 279.643 6.45312C279.361 6.21875 278.973 6.10156 278.477 6.10156Z" fill="black"/>
<path d="M291.118 14.2389C290.768 13.7735 290.362 13.4693 289.898 13.3347C289.438 13.201 288.979 13.2514 288.551 13.3895C287.726 13.6556 286.883 14.2973 286.137 14.859C285.344 15.4558 284.647 15.9725 284.017 16.1757C283.718 16.2723 283.47 16.2842 283.256 16.2219C283.044 16.1605 282.807 16.0103 282.556 15.6767L281.757 16.278C282.107 16.7434 282.513 17.0476 282.977 17.1822C283.437 17.3159 283.896 17.2655 284.324 17.1274C285.149 16.8613 285.992 16.2196 286.738 15.6579C287.531 15.0612 288.228 14.5445 288.858 14.3412C289.157 14.2446 289.405 14.2327 289.619 14.295C289.831 14.3564 290.068 14.5066 290.319 14.8402L291.118 14.2389ZM278.805 23.5063C278.554 23.1727 278.475 22.9031 278.475 22.683C278.474 22.4594 278.554 22.225 278.73 21.964C279.099 21.4147 279.789 20.8885 280.582 20.2917C281.328 19.73 282.178 19.0979 282.662 18.3788C282.913 18.0057 283.088 17.5785 283.087 17.0992C283.086 16.6165 282.906 16.142 282.556 15.6767L281.757 16.278C282.008 16.6117 282.087 16.8812 282.087 17.1014C282.088 17.3249 282.008 17.5594 281.832 17.8204C281.462 18.3696 280.773 18.8959 279.98 19.4927C279.234 20.0543 278.384 20.6865 277.9 21.4056C277.649 21.7787 277.474 22.2059 277.475 22.6852C277.476 23.1678 277.656 23.6423 278.006 24.1077L278.805 23.5063Z" fill="black"/>
<path d="M144.416 54H138.785V53.1621L141.041 50.8945C141.729 50.1992 142.182 49.7031 142.4 49.4062C142.619 49.1094 142.783 48.8203 142.893 48.5391C143.002 48.2578 143.057 47.9551 143.057 47.6309C143.057 47.1738 142.918 46.8125 142.641 46.5469C142.363 46.2773 141.979 46.1426 141.486 46.1426C141.131 46.1426 140.793 46.2012 140.473 46.3184C140.156 46.4355 139.803 46.6484 139.412 46.957L138.896 46.2949C139.686 45.6387 140.545 45.3105 141.475 45.3105C142.279 45.3105 142.91 45.5176 143.367 45.9316C143.824 46.3418 144.053 46.8945 144.053 47.5898C144.053 48.1328 143.9 48.6699 143.596 49.2012C143.291 49.7324 142.721 50.4043 141.885 51.2168L140.01 53.0508V53.0977H144.416V54ZM148.33 48.7676C149.232 48.7676 149.941 48.9922 150.457 49.4414C150.977 49.8867 151.236 50.498 151.236 51.2754C151.236 52.1621 150.953 52.8574 150.387 53.3613C149.824 53.8652 149.047 54.1172 148.055 54.1172C147.09 54.1172 146.354 53.9629 145.846 53.6543V52.7168C146.119 52.8926 146.459 53.0312 146.865 53.1328C147.271 53.2305 147.672 53.2793 148.066 53.2793C148.754 53.2793 149.287 53.1172 149.666 52.793C150.049 52.4688 150.24 52 150.24 51.3867C150.24 50.1914 149.508 49.5938 148.043 49.5938C147.672 49.5938 147.176 49.6504 146.555 49.7637L146.051 49.4414L146.373 45.4336H150.633V46.3301H147.205L146.988 48.9023C147.438 48.8125 147.885 48.7676 148.33 48.7676ZM152.619 50.3379C152.619 48.6543 152.945 47.3965 153.598 46.5645C154.254 45.7285 155.223 45.3105 156.504 45.3105C156.945 45.3105 157.293 45.3477 157.547 45.4219V46.2598C157.246 46.1621 156.902 46.1133 156.516 46.1133C155.598 46.1133 154.896 46.4004 154.412 46.9746C153.928 47.5449 153.662 48.4434 153.615 49.6699H153.686C154.115 48.998 154.795 48.6621 155.725 48.6621C156.494 48.6621 157.1 48.8945 157.541 49.3594C157.986 49.8242 158.209 50.4551 158.209 51.252C158.209 52.1426 157.965 52.8438 157.477 53.3555C156.992 53.8633 156.336 54.1172 155.508 54.1172C154.621 54.1172 153.918 53.7852 153.398 53.1211C152.879 52.4531 152.619 51.5254 152.619 50.3379ZM155.496 53.291C156.051 53.291 156.48 53.1172 156.785 52.7695C157.094 52.418 157.248 51.9121 157.248 51.252C157.248 50.6855 157.105 50.2402 156.82 49.916C156.535 49.5918 156.109 49.4297 155.543 49.4297C155.191 49.4297 154.869 49.502 154.576 49.6465C154.283 49.791 154.049 49.9902 153.873 50.2441C153.701 50.498 153.615 50.7617 153.615 51.0352C153.615 51.4375 153.693 51.8125 153.85 52.1602C154.006 52.5078 154.227 52.7832 154.512 52.9863C154.801 53.1895 155.129 53.291 155.496 53.291Z" fill="black"/>
<path d="M169.471 53.1885C169.046 52.6236 168.437 52.4325 167.787 52.4818C167.166 52.5289 166.48 52.7934 165.783 53.1568C164.385 53.8859 162.744 55.1229 161.152 56.3212C159.536 57.5376 157.968 58.7154 156.66 59.3978C156.003 59.7402 155.461 59.9306 155.042 59.9624C154.652 59.9919 154.409 59.8855 154.233 59.6515L153.434 60.2528C153.859 60.8177 154.468 61.0087 155.118 60.9595C155.739 60.9124 156.425 60.6479 157.122 60.2845C158.52 59.5554 160.161 58.3184 161.753 57.1201C163.369 55.9037 164.937 54.7259 166.245 54.0435C166.902 53.7011 167.444 53.5106 167.863 53.4789C168.253 53.4494 168.496 53.5557 168.672 53.7898L169.471 53.1885ZM143.805 72.5063C143.629 72.2722 143.594 72.0091 143.73 71.6424C143.877 71.2488 144.21 70.7806 144.72 70.2444C145.738 69.1757 147.304 67.9955 148.92 66.7791C150.512 65.5808 152.155 64.3462 153.242 63.2044C153.784 62.6353 154.229 62.0493 154.446 61.4653C154.673 60.8543 154.658 60.2164 154.233 59.6515L153.434 60.2528C153.61 60.4869 153.645 60.7501 153.508 61.1167C153.362 61.5103 153.029 61.9785 152.518 62.5147C151.5 63.5834 149.935 64.7636 148.319 65.9801C146.727 67.1783 145.084 68.4129 143.996 69.5547C143.454 70.1238 143.01 70.7098 142.793 71.2939C142.566 71.9049 142.581 72.5428 143.006 73.1077L143.805 72.5063Z" fill="black"/>
<path d="M147 77.5238L172.882 58H235V120.476L209.118 140H147V77.5238Z" fill="white"/>
<path d="M147 77.5238L172.882 58H235M147 77.5238H209.118M147 77.5238V140H209.118M235 58L209.118 77.5238M235 58V120.476L209.118 140M209.118 77.5238V140" stroke="#32ACF1" stroke-width="2"/>
<path d="M11 51.4366L16.8889 47L117 47V147.563L111.111 152H11V51.4366Z" fill="white"/>
<path d="M11 51.4366L16.8889 47L117 47M11 51.4366H111.111M11 51.4366V152H111.111M117 47L111.111 51.4366M117 47V147.563L111.111 152M111.111 51.4366V152" stroke="black" stroke-width="2"/>
<path d="M92 131H64V103L68 100H96V128L92 131Z" fill="#8BCDF2"/>
<path d="M64 103V131H92M64 103L68 100H96M64 103H92M92 103V131M92 103L96 100M92 131L96 128V100" stroke="#32ACF1"/>
<path d="M163 129V121H155V129H163Z" fill="#8BCDF2" stroke="#32ACF1"/>
<path d="M73.416 116.09C73.416 119.441 72.1191 121.117 69.5254 121.117C69.0723 121.117 68.7129 121.078 68.4473 121V120.162C68.7598 120.264 69.1152 120.314 69.5137 120.314C70.4512 120.314 71.1582 120.025 71.6348 119.447C72.1152 118.865 72.377 117.975 72.4199 116.775H72.3496C72.1348 117.1 71.8496 117.348 71.4941 117.52C71.1387 117.688 70.7383 117.771 70.293 117.771C69.5352 117.771 68.9336 117.545 68.4883 117.092C68.043 116.639 67.8203 116.006 67.8203 115.193C67.8203 114.303 68.0684 113.6 68.5645 113.084C69.0645 112.568 69.7207 112.311 70.5332 112.311C71.1152 112.311 71.623 112.461 72.0566 112.762C72.4941 113.059 72.8301 113.494 73.0645 114.068C73.2988 114.639 73.416 115.312 73.416 116.09ZM70.5332 113.143C69.9746 113.143 69.543 113.322 69.2383 113.682C68.9336 114.041 68.7812 114.541 68.7812 115.182C68.7812 115.744 68.9219 116.188 69.2031 116.512C69.4844 116.832 69.9121 116.992 70.4863 116.992C70.8418 116.992 71.168 116.92 71.4648 116.775C71.7656 116.631 72.002 116.434 72.1738 116.184C72.3457 115.934 72.4316 115.672 72.4316 115.398C72.4316 114.988 72.3516 114.609 72.1914 114.262C72.0312 113.914 71.8066 113.641 71.5176 113.441C71.2324 113.242 70.9043 113.143 70.5332 113.143ZM79.5742 114.109L80.1367 114.689L78.0742 116.764L80.125 118.826L79.5625 119.406L77.4883 117.35L75.4492 119.406L74.8574 118.826L76.9082 116.764L74.8457 114.701L75.4316 114.109L77.5 116.189L79.5742 114.109ZM87.1504 116.09C87.1504 119.441 85.8535 121.117 83.2598 121.117C82.8066 121.117 82.4473 121.078 82.1816 121V120.162C82.4941 120.264 82.8496 120.314 83.248 120.314C84.1855 120.314 84.8926 120.025 85.3691 119.447C85.8496 118.865 86.1113 117.975 86.1543 116.775H86.084C85.8691 117.1 85.584 117.348 85.2285 117.52C84.873 117.688 84.4727 117.771 84.0273 117.771C83.2695 117.771 82.668 117.545 82.2227 117.092C81.7773 116.639 81.5547 116.006 81.5547 115.193C81.5547 114.303 81.8027 113.6 82.2988 113.084C82.7988 112.568 83.4551 112.311 84.2676 112.311C84.8496 112.311 85.3574 112.461 85.791 112.762C86.2285 113.059 86.5645 113.494 86.7988 114.068C87.0332 114.639 87.1504 115.312 87.1504 116.09ZM84.2676 113.143C83.709 113.143 83.2773 113.322 82.9727 113.682C82.668 114.041 82.5156 114.541 82.5156 115.182C82.5156 115.744 82.6562 116.188 82.9375 116.512C83.2188 116.832 83.6465 116.992 84.2207 116.992C84.5762 116.992 84.9023 116.92 85.1992 116.775C85.5 116.631 85.7363 116.434 85.9082 116.184C86.0801 115.934 86.166 115.672 86.166 115.398C86.166 114.988 86.0859 114.609 85.9258 114.262C85.7656 113.914 85.541 113.641 85.252 113.441C84.9668 113.242 84.6387 113.143 84.2676 113.143Z" fill="black"/>
<line x1="158.881" y1="121.356" x2="95.8814" y2="100.356" stroke="black" stroke-width="0.75" stroke-dasharray="2 3"/>
<line x1="91.9888" y1="130.625" x2="158.989" y2="128.625" stroke="black" stroke-width="0.75" stroke-dasharray="2 3"/>
<path d="M281 27L293 18H326V52L314.056 61H281V27Z" fill="white"/>
<path d="M281 27L293 18H326M281 27H314.056M281 27V61H314.056M326 18L314.056 27M326 18V52L314.056 61M314.056 27V61" stroke="#32ACF1" stroke-width="2"/>
<path d="M281 75L293 66H326V100L314.056 109H281V75Z" fill="white"/>
<path d="M281 75L293 66H326M281 75H314.056M281 75V109H314.056M326 66L314.056 75M326 66V100L314.056 109M314.056 75V109" stroke="#32ACF1" stroke-width="2"/>
<path d="M281 148L293 139H326V173L314.056 182H281V148Z" fill="white"/>
<path d="M281 148L293 139H326M281 148H314.056M281 148V182H314.056M326 139L314.056 148M326 139V173L314.056 182M314.056 148V182" stroke="#32ACF1" stroke-width="2"/>
<circle cx="304" cy="116" r="2" fill="black"/>
<circle cx="304" cy="124" r="2" fill="black"/>
<circle cx="304" cy="132" r="2" fill="black"/>
<line x1="498.785" y1="75.3072" x2="448.785" y2="40.3072" stroke="black" stroke-width="0.75" stroke-dasharray="2 3"/>
<line x1="448.785" y1="159.693" x2="498.785" y2="124.693" stroke="black" stroke-width="0.75" stroke-dasharray="2 3"/>
<line x1="281.21" y1="27.311" x2="235.21" y2="58.311" stroke="black" stroke-width="0.75" stroke-dasharray="2 3"/>
<line x1="209.189" y1="139.676" x2="281.189" y2="181.676" stroke="black" stroke-width="0.75" stroke-dasharray="2 3"/>
<rect x="499" y="75" width="80" height="50" fill="white" stroke="#32ACF1" stroke-width="2"/>
<rect x="619" y="95" width="80" height="10" fill="white" stroke="black" stroke-width="2"/>
<rect x="409" y="40" width="40" height="120" fill="white" stroke="#32ACF1" stroke-width="2"/>
<path d="M356.354 100.354C356.549 100.158 356.549 99.8417 356.354 99.6464L353.172 96.4645C352.976 96.2692 352.66 96.2692 352.464 96.4645C352.269 96.6597 352.269 96.9763 352.464 97.1716L355.293 100L352.464 102.828C352.269 103.024 352.269 103.34 352.464 103.536C352.66 103.731 352.976 103.731 353.172 103.536L356.354 100.354ZM336 100.5H356V99.5H336V100.5Z" fill="black"/>
<path d="M609.354 100.354C609.549 100.158 609.549 99.8417 609.354 99.6464L606.172 96.4645C605.976 96.2692 605.66 96.2692 605.464 96.4645C605.269 96.6597 605.269 96.9763 605.464 97.1716L608.293 100L605.464 102.828C605.269 103.024 605.269 103.34 605.464 103.536C605.66 103.731 605.976 103.731 606.172 103.536L609.354 100.354ZM589 100.5H609V99.5H589V100.5Z" fill="black"/>
<path d="M487 36.9727V36.1699H492.449V36.9727H487ZM487 39.3691V38.5664H492.449V39.3691H487ZM500.402 44.2148H497.477V32.0059H500.402V32.6484H498.146V43.5654H500.402V44.2148ZM504.18 33.3105C504.961 33.3105 505.58 33.4922 506.037 33.8555C506.494 34.2188 506.723 34.7207 506.723 35.3613C506.723 35.7832 506.592 36.168 506.33 36.5156C506.068 36.8633 505.65 37.1797 505.076 37.4648C505.771 37.7969 506.266 38.1465 506.559 38.5137C506.852 38.877 506.998 39.2988 506.998 39.7793C506.998 40.4902 506.75 41.0586 506.254 41.4844C505.758 41.9062 505.078 42.1172 504.215 42.1172C503.301 42.1172 502.598 41.918 502.105 41.5195C501.613 41.1172 501.367 40.5488 501.367 39.8145C501.367 38.834 501.965 38.0703 503.16 37.5234C502.621 37.2188 502.234 36.8906 502 36.5391C501.766 36.1836 501.648 35.7871 501.648 35.3496C501.648 34.7285 501.877 34.2344 502.334 33.8672C502.795 33.4961 503.41 33.3105 504.18 33.3105ZM502.328 39.8379C502.328 40.3066 502.49 40.6719 502.814 40.9336C503.143 41.1953 503.602 41.3262 504.191 41.3262C504.773 41.3262 505.227 41.1895 505.551 40.916C505.875 40.6426 506.037 40.2676 506.037 39.791C506.037 39.4121 505.885 39.0762 505.58 38.7832C505.275 38.4863 504.744 38.1992 503.986 37.9219C503.404 38.1719 502.982 38.4492 502.721 38.7539C502.459 39.0547 502.328 39.416 502.328 39.8379ZM504.168 34.1016C503.68 34.1016 503.297 34.2188 503.02 34.4531C502.742 34.6875 502.604 35 502.604 35.3906C502.604 35.75 502.719 36.0586 502.949 36.3164C503.18 36.5742 503.605 36.832 504.227 37.0898C504.785 36.8555 505.18 36.6035 505.41 36.334C505.645 36.0645 505.762 35.75 505.762 35.3906C505.762 34.9961 505.619 34.6836 505.334 34.4531C505.053 34.2188 504.664 34.1016 504.168 34.1016ZM513.133 35.1094L513.695 35.6895L511.633 37.7637L513.684 39.8262L513.121 40.4062L511.047 38.3496L509.008 40.4062L508.416 39.8262L510.467 37.7637L508.404 35.7012L508.99 35.1094L511.059 37.1895L513.133 35.1094ZM518.682 42H517.732V35.8945C517.732 35.3867 517.748 34.9062 517.779 34.4531C517.697 34.5352 517.605 34.6211 517.504 34.7109C517.402 34.8008 516.938 35.1816 516.109 35.8535L515.594 35.1855L517.861 33.4336H518.682V42ZM522.045 38.3379C522.045 36.6543 522.371 35.3965 523.023 34.5645C523.68 33.7285 524.648 33.3105 525.93 33.3105C526.371 33.3105 526.719 33.3477 526.973 33.4219V34.2598C526.672 34.1621 526.328 34.1133 525.941 34.1133C525.023 34.1133 524.322 34.4004 523.838 34.9746C523.354 35.5449 523.088 36.4434 523.041 37.6699H523.111C523.541 36.998 524.221 36.6621 525.15 36.6621C525.92 36.6621 526.525 36.8945 526.967 37.3594C527.412 37.8242 527.635 38.4551 527.635 39.252C527.635 40.1426 527.391 40.8438 526.902 41.3555C526.418 41.8633 525.762 42.1172 524.934 42.1172C524.047 42.1172 523.344 41.7852 522.824 41.1211C522.305 40.4531 522.045 39.5254 522.045 38.3379ZM524.922 41.291C525.477 41.291 525.906 41.1172 526.211 40.7695C526.52 40.418 526.674 39.9121 526.674 39.252C526.674 38.6855 526.531 38.2402 526.246 37.916C525.961 37.5918 525.535 37.4297 524.969 37.4297C524.617 37.4297 524.295 37.502 524.002 37.6465C523.709 37.791 523.475 37.9902 523.299 38.2441C523.127 38.498 523.041 38.7617 523.041 39.0352C523.041 39.4375 523.119 39.8125 523.275 40.1602C523.432 40.5078 523.652 40.7832 523.938 40.9863C524.227 41.1895 524.555 41.291 524.922 41.291ZM528.575 43.5654H530.831V32.6484H528.575V32.0059H531.501V44.2148H528.575V43.5654Z" fill="black"/>
<path d="M472.549 33.8865C472.641 33.6483 472.668 33.5689 473.779 33.5689V33C473.118 33.0265 473.091 33.0265 472.337 33.0265C471.953 33.0265 470.987 33.0265 470.67 33V33.5689C470.829 33.5689 471.993 33.5689 471.993 33.7541C471.993 33.7674 471.993 33.7939 471.94 33.9129L469.717 39.814L467.349 33.5689H468.606V33C468.182 33.0265 466.952 33.0265 466.449 33.0265C466.039 33.0265 464.756 33.0265 464.438 33V33.5689H465.549L466.092 34.9979L464.279 39.814L461.924 33.5689H463.168V33C462.784 33.0265 461.487 33.0265 461.011 33.0265C460.588 33.0265 459.331 33.0265 459 33V33.5689H460.111L463.26 41.8781C463.34 42.103 463.38 42.1956 463.671 42.1956C463.962 42.1956 464.001 42.103 464.081 41.8913L466.383 35.7917L468.698 41.8913C468.778 42.103 468.817 42.1956 469.109 42.1956C469.36 42.1956 469.426 42.1427 469.519 41.8913L472.549 33.8865Z" fill="black"/>
<path d="M477.148 43.1728C477.148 43.1176 477.104 43.0735 477.038 43.0735C476.938 43.0735 476.927 43.1066 476.872 43.2941C476.585 44.2978 476.133 44.6397 475.769 44.6397C475.637 44.6397 475.482 44.6066 475.482 44.2757C475.482 43.9779 475.615 43.647 475.736 43.3162L476.508 41.2647C476.541 41.1764 476.619 40.9779 476.619 40.7683C476.619 40.3051 476.288 39.886 475.747 39.886C474.732 39.886 474.324 41.4853 474.324 41.5735C474.324 41.6176 474.369 41.6728 474.446 41.6728C474.545 41.6728 474.556 41.6286 474.6 41.4742C474.865 40.5478 475.284 40.1066 475.714 40.1066C475.813 40.1066 476.001 40.1176 476.001 40.4705C476.001 40.7573 475.858 41.1213 475.769 41.3639L474.997 43.4154C474.931 43.5919 474.865 43.7684 474.865 43.9669C474.865 44.4632 475.207 44.8603 475.736 44.8603C476.751 44.8603 477.148 43.25 477.148 43.1728ZM477.06 37.8676C477.06 37.7021 476.927 37.5036 476.685 37.5036C476.431 37.5036 476.144 37.7463 476.144 38.033C476.144 38.3088 476.376 38.397 476.508 38.397C476.806 38.397 477.06 38.1103 477.06 37.8676Z" fill="black"/>
<path d="M481.557 41.2536C481.601 41.0772 481.601 40.9228 481.601 40.8786C481.601 40.2389 481.127 39.886 480.631 39.886C479.517 39.886 478.921 41.4963 478.921 41.5735C478.921 41.6286 478.965 41.6728 479.031 41.6728C479.12 41.6728 479.131 41.6286 479.186 41.5183C479.627 40.4485 480.179 40.1066 480.598 40.1066C480.829 40.1066 480.951 40.2279 480.951 40.6139C480.951 40.8786 480.918 40.9889 480.873 41.1875L479.826 45.3456C479.616 46.1618 479.098 46.7794 478.491 46.7794C478.447 46.7794 478.215 46.7794 478.006 46.6691C478.27 46.614 478.48 46.4044 478.48 46.1397C478.48 45.9632 478.348 45.7868 478.105 45.7868C477.818 45.7868 477.554 46.0294 477.554 46.3603C477.554 46.8125 478.039 47 478.491 47C479.252 47 480.256 46.4375 480.531 45.3345L481.557 41.2536ZM482.009 37.8676C482.009 37.5918 481.778 37.5036 481.645 37.5036C481.348 37.5036 481.094 37.7904 481.094 38.033C481.094 38.1985 481.226 38.397 481.469 38.397C481.723 38.397 482.009 38.1543 482.009 37.8676Z" fill="black"/>
<path d="M186.832 25.9727V25.1699H192.281V25.9727H186.832ZM186.832 28.3691V27.5664H192.281V28.3691H186.832ZM200.234 33.2148H197.309V21.0059H200.234V21.6484H197.979V32.5654H200.234V33.2148ZM206.807 26.0898C206.807 29.4414 205.51 31.1172 202.916 31.1172C202.463 31.1172 202.104 31.0781 201.838 31V30.1621C202.15 30.2637 202.506 30.3145 202.904 30.3145C203.842 30.3145 204.549 30.0254 205.025 29.4473C205.506 28.8652 205.768 27.9746 205.811 26.7754H205.74C205.525 27.0996 205.24 27.3477 204.885 27.5195C204.529 27.6875 204.129 27.7715 203.684 27.7715C202.926 27.7715 202.324 27.5449 201.879 27.0918C201.434 26.6387 201.211 26.0059 201.211 25.1934C201.211 24.3027 201.459 23.5996 201.955 23.084C202.455 22.5684 203.111 22.3105 203.924 22.3105C204.506 22.3105 205.014 22.4609 205.447 22.7617C205.885 23.0586 206.221 23.4941 206.455 24.0684C206.689 24.6387 206.807 25.3125 206.807 26.0898ZM203.924 23.1426C203.365 23.1426 202.934 23.3223 202.629 23.6816C202.324 24.041 202.172 24.541 202.172 25.1816C202.172 25.7441 202.312 26.1875 202.594 26.5117C202.875 26.832 203.303 26.9922 203.877 26.9922C204.232 26.9922 204.559 26.9199 204.855 26.7754C205.156 26.6309 205.393 26.4336 205.564 26.1836C205.736 25.9336 205.822 25.6719 205.822 25.3984C205.822 24.9883 205.742 24.6094 205.582 24.2617C205.422 23.9141 205.197 23.6406 204.908 23.4414C204.623 23.2422 204.295 23.1426 203.924 23.1426ZM212.965 24.1094L213.527 24.6895L211.465 26.7637L213.516 28.8262L212.953 29.4062L210.879 27.3496L208.84 29.4062L208.248 28.8262L210.299 26.7637L208.236 24.7012L208.822 24.1094L210.891 26.1895L212.965 24.1094ZM220.541 26.0898C220.541 29.4414 219.244 31.1172 216.65 31.1172C216.197 31.1172 215.838 31.0781 215.572 31V30.1621C215.885 30.2637 216.24 30.3145 216.639 30.3145C217.576 30.3145 218.283 30.0254 218.76 29.4473C219.24 28.8652 219.502 27.9746 219.545 26.7754H219.475C219.26 27.0996 218.975 27.3477 218.619 27.5195C218.264 27.6875 217.863 27.7715 217.418 27.7715C216.66 27.7715 216.059 27.5449 215.613 27.0918C215.168 26.6387 214.945 26.0059 214.945 25.1934C214.945 24.3027 215.193 23.5996 215.689 23.084C216.189 22.5684 216.846 22.3105 217.658 22.3105C218.24 22.3105 218.748 22.4609 219.182 22.7617C219.619 23.0586 219.955 23.4941 220.189 24.0684C220.424 24.6387 220.541 25.3125 220.541 26.0898ZM217.658 23.1426C217.1 23.1426 216.668 23.3223 216.363 23.6816C216.059 24.041 215.906 24.541 215.906 25.1816C215.906 25.7441 216.047 26.1875 216.328 26.5117C216.609 26.832 217.037 26.9922 217.611 26.9922C217.967 26.9922 218.293 26.9199 218.59 26.7754C218.891 26.6309 219.127 26.4336 219.299 26.1836C219.471 25.9336 219.557 25.6719 219.557 25.3984C219.557 24.9883 219.477 24.6094 219.316 24.2617C219.156 23.9141 218.932 23.6406 218.643 23.4414C218.357 23.2422 218.029 23.1426 217.658 23.1426ZM226.699 24.1094L227.262 24.6895L225.199 26.7637L227.25 28.8262L226.688 29.4062L224.613 27.3496L222.574 29.4062L221.982 28.8262L224.033 26.7637L221.971 24.7012L222.557 24.1094L224.625 26.1895L226.699 24.1094ZM234.275 31H228.645V30.1621L230.9 27.8945C231.588 27.1992 232.041 26.7031 232.26 26.4062C232.479 26.1094 232.643 25.8203 232.752 25.5391C232.861 25.2578 232.916 24.9551 232.916 24.6309C232.916 24.1738 232.777 23.8125 232.5 23.5469C232.223 23.2773 231.838 23.1426 231.346 23.1426C230.99 23.1426 230.652 23.2012 230.332 23.3184C230.016 23.4355 229.662 23.6484 229.271 23.957L228.756 23.2949C229.545 22.6387 230.404 22.3105 231.334 22.3105C232.139 22.3105 232.77 22.5176 233.227 22.9316C233.684 23.3418 233.912 23.8945 233.912 24.5898C233.912 25.1328 233.76 25.6699 233.455 26.2012C233.15 26.7324 232.58 27.4043 231.744 28.2168L229.869 30.0508V30.0977H234.275V31ZM238.189 25.7676C239.092 25.7676 239.801 25.9922 240.316 26.4414C240.836 26.8867 241.096 27.498 241.096 28.2754C241.096 29.1621 240.812 29.8574 240.246 30.3613C239.684 30.8652 238.906 31.1172 237.914 31.1172C236.949 31.1172 236.213 30.9629 235.705 30.6543V29.7168C235.979 29.8926 236.318 30.0312 236.725 30.1328C237.131 30.2305 237.531 30.2793 237.926 30.2793C238.613 30.2793 239.146 30.1172 239.525 29.793C239.908 29.4688 240.1 29 240.1 28.3867C240.1 27.1914 239.367 26.5938 237.902 26.5938C237.531 26.5938 237.035 26.6504 236.414 26.7637L235.91 26.4414L236.232 22.4336H240.492V23.3301H237.064L236.848 25.9023C237.297 25.8125 237.744 25.7676 238.189 25.7676ZM242.479 27.3379C242.479 25.6543 242.805 24.3965 243.457 23.5645C244.113 22.7285 245.082 22.3105 246.363 22.3105C246.805 22.3105 247.152 22.3477 247.406 22.4219V23.2598C247.105 23.1621 246.762 23.1133 246.375 23.1133C245.457 23.1133 244.756 23.4004 244.271 23.9746C243.787 24.5449 243.521 25.4434 243.475 26.6699H243.545C243.975 25.998 244.654 25.6621 245.584 25.6621C246.354 25.6621 246.959 25.8945 247.4 26.3594C247.846 26.8242 248.068 27.4551 248.068 28.252C248.068 29.1426 247.824 29.8438 247.336 30.3555C246.852 30.8633 246.195 31.1172 245.367 31.1172C244.48 31.1172 243.777 30.7852 243.258 30.1211C242.738 29.4531 242.479 28.5254 242.479 27.3379ZM245.355 30.291C245.91 30.291 246.34 30.1172 246.645 29.7695C246.953 29.418 247.107 28.9121 247.107 28.252C247.107 27.6855 246.965 27.2402 246.68 26.916C246.395 26.5918 245.969 26.4297 245.402 26.4297C245.051 26.4297 244.729 26.502 244.436 26.6465C244.143 26.791 243.908 26.9902 243.732 27.2441C243.561 27.498 243.475 27.7617 243.475 28.0352C243.475 28.4375 243.553 28.8125 243.709 29.1602C243.865 29.5078 244.086 29.7832 244.371 29.9863C244.66 30.1895 244.988 30.291 245.355 30.291ZM254.168 24.1094L254.73 24.6895L252.668 26.7637L254.719 28.8262L254.156 29.4062L252.082 27.3496L250.043 29.4062L249.451 28.8262L251.502 26.7637L249.439 24.7012L250.025 24.1094L252.094 26.1895L254.168 24.1094ZM258.949 22.3105C259.73 22.3105 260.35 22.4922 260.807 22.8555C261.264 23.2188 261.492 23.7207 261.492 24.3613C261.492 24.7832 261.361 25.168 261.1 25.5156C260.838 25.8633 260.42 26.1797 259.846 26.4648C260.541 26.7969 261.035 27.1465 261.328 27.5137C261.621 27.877 261.768 28.2988 261.768 28.7793C261.768 29.4902 261.52 30.0586 261.023 30.4844C260.527 30.9062 259.848 31.1172 258.984 31.1172C258.07 31.1172 257.367 30.918 256.875 30.5195C256.383 30.1172 256.137 29.5488 256.137 28.8145C256.137 27.834 256.734 27.0703 257.93 26.5234C257.391 26.2188 257.004 25.8906 256.77 25.5391C256.535 25.1836 256.418 24.7871 256.418 24.3496C256.418 23.7285 256.646 23.2344 257.104 22.8672C257.564 22.4961 258.18 22.3105 258.949 22.3105ZM257.098 28.8379C257.098 29.3066 257.26 29.6719 257.584 29.9336C257.912 30.1953 258.371 30.3262 258.961 30.3262C259.543 30.3262 259.996 30.1895 260.32 29.916C260.645 29.6426 260.807 29.2676 260.807 28.791C260.807 28.4121 260.654 28.0762 260.35 27.7832C260.045 27.4863 259.514 27.1992 258.756 26.9219C258.174 27.1719 257.752 27.4492 257.49 27.7539C257.229 28.0547 257.098 28.416 257.098 28.8379ZM258.938 23.1016C258.449 23.1016 258.066 23.2188 257.789 23.4531C257.512 23.6875 257.373 24 257.373 24.3906C257.373 24.75 257.488 25.0586 257.719 25.3164C257.949 25.5742 258.375 25.832 258.996 26.0898C259.555 25.8555 259.949 25.6035 260.18 25.334C260.414 25.0645 260.531 24.75 260.531 24.3906C260.531 23.9961 260.389 23.6836 260.104 23.4531C259.822 23.2188 259.434 23.1016 258.938 23.1016ZM262.743 32.5654H264.999V21.6484H262.743V21.0059H265.669V33.2148H262.743V32.5654Z" fill="black"/>
<path d="M173.549 22.8865C173.641 22.6483 173.668 22.5689 174.779 22.5689V22C174.118 22.0265 174.091 22.0265 173.337 22.0265C172.953 22.0265 171.987 22.0265 171.67 22V22.5689C171.829 22.5689 172.993 22.5689 172.993 22.7541C172.993 22.7674 172.993 22.7939 172.94 22.9129L170.717 28.814L168.349 22.5689H169.606V22C169.182 22.0265 167.952 22.0265 167.449 22.0265C167.039 22.0265 165.756 22.0265 165.438 22V22.5689H166.549L167.092 23.9979L165.279 28.814L162.924 22.5689H164.168V22C163.784 22.0265 162.487 22.0265 162.011 22.0265C161.588 22.0265 160.331 22.0265 160 22V22.5689H161.111L164.26 30.8781C164.34 31.103 164.38 31.1956 164.671 31.1956C164.962 31.1956 165.001 31.103 165.081 30.8913L167.383 24.7917L169.698 30.8913C169.778 31.103 169.817 31.1956 170.109 31.1956C170.36 31.1956 170.426 31.1427 170.519 30.8913L173.549 22.8865Z" fill="black"/>
<path d="M178.148 32.1728C178.148 32.1176 178.104 32.0735 178.038 32.0735C177.938 32.0735 177.927 32.1066 177.872 32.2941C177.585 33.2978 177.133 33.6397 176.769 33.6397C176.637 33.6397 176.482 33.6066 176.482 33.2757C176.482 32.9779 176.615 32.647 176.736 32.3162L177.508 30.2647C177.541 30.1764 177.619 29.9779 177.619 29.7683C177.619 29.3051 177.288 28.886 176.747 28.886C175.732 28.886 175.324 30.4853 175.324 30.5735C175.324 30.6176 175.369 30.6728 175.446 30.6728C175.545 30.6728 175.556 30.6286 175.6 30.4742C175.865 29.5478 176.284 29.1066 176.714 29.1066C176.813 29.1066 177.001 29.1176 177.001 29.4705C177.001 29.7573 176.858 30.1213 176.769 30.3639L175.997 32.4154C175.931 32.5919 175.865 32.7684 175.865 32.9669C175.865 33.4632 176.207 33.8603 176.736 33.8603C177.751 33.8603 178.148 32.25 178.148 32.1728ZM178.06 26.8676C178.06 26.7021 177.927 26.5036 177.685 26.5036C177.431 26.5036 177.144 26.7463 177.144 27.033C177.144 27.3088 177.376 27.397 177.508 27.397C177.806 27.397 178.06 27.1103 178.06 26.8676Z" fill="black"/>
<path d="M182.557 30.2536C182.601 30.0772 182.601 29.9228 182.601 29.8786C182.601 29.2389 182.127 28.886 181.631 28.886C180.517 28.886 179.921 30.4963 179.921 30.5735C179.921 30.6286 179.965 30.6728 180.031 30.6728C180.12 30.6728 180.131 30.6286 180.186 30.5183C180.627 29.4485 181.179 29.1066 181.598 29.1066C181.829 29.1066 181.951 29.2279 181.951 29.6139C181.951 29.8786 181.918 29.9889 181.873 30.1875L180.826 34.3456C180.616 35.1618 180.098 35.7794 179.491 35.7794C179.447 35.7794 179.215 35.7794 179.006 35.6691C179.27 35.614 179.48 35.4044 179.48 35.1397C179.48 34.9632 179.348 34.7868 179.105 34.7868C178.818 34.7868 178.554 35.0294 178.554 35.3603C178.554 35.8125 179.039 36 179.491 36C180.252 36 181.256 35.4375 181.531 34.3345L182.557 30.2536ZM183.009 26.8676C183.009 26.5918 182.778 26.5036 182.645 26.5036C182.348 26.5036 182.094 26.7904 182.094 27.033C182.094 27.1985 182.226 27.397 182.469 27.397C182.723 27.397 183.009 27.1543 183.009 26.8676Z" fill="black"/>
</svg>
