<svg width="664" height="191" viewBox="0 0 664 191" fill="none" xmlns="http://www.w3.org/2000/svg">
<path d="M556.5 130C556.5 131.512 557.465 132.587 558.92 133.335C560.365 134.078 562.387 134.556 564.746 134.871C569.474 135.501 575.762 135.5 582 135.5C588.262 135.5 594.474 135.501 599.121 136.121C601.449 136.431 603.333 136.891 604.623 137.554C605.903 138.212 606.5 139.012 606.5 140L607.5 140C607.5 138.488 606.535 137.413 605.08 136.665C603.635 135.922 601.613 135.444 599.254 135.129C594.526 134.499 588.238 134.5 582 134.5C575.738 134.5 569.526 134.499 564.879 133.879C562.551 133.569 560.667 133.109 559.377 132.446C558.097 131.788 557.5 130.988 557.5 130L556.5 130ZM656.5 130C656.5 130.988 655.903 131.788 654.623 132.446C653.333 133.109 651.449 133.569 649.121 133.879C644.474 134.499 638.262 134.5 632 134.5C625.762 134.5 619.474 134.499 614.746 135.129C612.387 135.444 610.365 135.922 608.92 136.665C607.465 137.413 606.5 138.488 606.5 140L607.5 140C607.5 139.012 608.097 138.212 609.377 137.554C610.667 136.891 612.551 136.431 614.879 136.121C619.526 135.501 625.738 135.5 632 135.5C638.238 135.5 644.526 135.501 649.254 134.871C651.613 134.556 653.635 134.078 655.08 133.335C656.535 132.587 657.5 131.512 657.5 130L656.5 130Z" fill="black"/>
<path d="M556.5 130C556.5 131.512 557.465 132.587 558.92 133.335C560.365 134.078 562.387 134.556 564.746 134.871C569.474 135.501 575.762 135.5 582 135.5C588.262 135.5 594.474 135.501 599.121 136.121C601.449 136.431 603.333 136.891 604.623 137.554C605.903 138.212 606.5 139.012 606.5 140L607.5 140C607.5 138.488 606.535 137.413 605.08 136.665C603.635 135.922 601.613 135.444 599.254 135.129C594.526 134.499 588.238 134.5 582 134.5C575.738 134.5 569.526 134.499 564.879 133.879C562.551 133.569 560.667 133.109 559.377 132.446C558.097 131.788 557.5 130.988 557.5 130L556.5 130ZM656.5 130C656.5 130.988 655.903 131.788 654.623 132.446C653.333 133.109 651.449 133.569 649.121 133.879C644.474 134.499 638.262 134.5 632 134.5C625.762 134.5 619.474 134.499 614.746 135.129C612.387 135.444 610.365 135.922 608.92 136.665C607.465 137.413 606.5 138.488 606.5 140L607.5 140C607.5 139.012 608.097 138.212 609.377 137.554C610.667 136.891 612.551 136.431 614.879 136.121C619.526 135.501 625.738 135.5 632 135.5C638.238 135.5 644.526 135.501 649.254 134.871C651.613 134.556 653.635 134.078 655.08 133.335C656.535 132.587 657.5 131.512 657.5 130L656.5 130Z" fill="black"/>
<path d="M606.027 146.449C606.027 146.996 605.873 147.443 605.564 147.791C605.26 148.139 604.826 148.371 604.264 148.488V148.535C604.951 148.621 605.461 148.84 605.793 149.191C606.125 149.543 606.291 150.004 606.291 150.574C606.291 151.391 606.008 152.02 605.441 152.461C604.875 152.898 604.07 153.117 603.027 153.117C602.574 153.117 602.158 153.082 601.779 153.012C601.404 152.945 601.039 152.826 600.684 152.654V151.729C601.055 151.912 601.449 152.053 601.867 152.15C602.289 152.244 602.688 152.291 603.062 152.291C604.543 152.291 605.283 151.711 605.283 150.551C605.283 149.512 604.467 148.992 602.834 148.992H601.99V148.154H602.846C603.514 148.154 604.043 148.008 604.434 147.715C604.824 147.418 605.02 147.008 605.02 146.484C605.02 146.066 604.875 145.738 604.586 145.5C604.301 145.262 603.912 145.143 603.42 145.143C603.045 145.143 602.691 145.193 602.359 145.295C602.027 145.396 601.648 145.584 601.223 145.857L600.73 145.201C601.082 144.924 601.486 144.707 601.943 144.551C602.404 144.391 602.889 144.311 603.396 144.311C604.229 144.311 604.875 144.502 605.336 144.885C605.797 145.264 606.027 145.785 606.027 146.449ZM613.217 153H607.586V152.162L609.842 149.895C610.529 149.199 610.982 148.703 611.201 148.406C611.42 148.109 611.584 147.82 611.693 147.539C611.803 147.258 611.857 146.955 611.857 146.631C611.857 146.174 611.719 145.812 611.441 145.547C611.164 145.277 610.779 145.143 610.287 145.143C609.932 145.143 609.594 145.201 609.273 145.318C608.957 145.436 608.604 145.648 608.213 145.957L607.697 145.295C608.486 144.639 609.346 144.311 610.275 144.311C611.08 144.311 611.711 144.518 612.168 144.932C612.625 145.342 612.854 145.895 612.854 146.59C612.854 147.133 612.701 147.67 612.396 148.201C612.092 148.732 611.521 149.404 610.686 150.217L608.811 152.051V152.098H613.217V153Z" fill="black"/>
<path d="M24.252 188V179.434H25.248V188H24.252ZM35.6426 188V183.822C35.6426 183.311 35.5332 182.928 35.3145 182.674C35.0957 182.416 34.7559 182.287 34.2949 182.287C33.6895 182.287 33.2422 182.461 32.9531 182.809C32.6641 183.156 32.5195 183.691 32.5195 184.414V188H31.5469V183.822C31.5469 183.311 31.4375 182.928 31.2188 182.674C31 182.416 30.6582 182.287 30.1934 182.287C29.584 182.287 29.1367 182.471 28.8516 182.838C28.5703 183.201 28.4297 183.799 28.4297 184.631V188H27.457V181.578H28.248L28.4062 182.457H28.4531C28.6367 182.145 28.8945 181.9 29.2266 181.725C29.5625 181.549 29.9375 181.461 30.3516 181.461C31.3555 181.461 32.0117 181.824 32.3203 182.551H32.3672C32.5586 182.215 32.8359 181.949 33.1992 181.754C33.5625 181.559 33.9766 181.461 34.4414 181.461C35.168 181.461 35.7109 181.648 36.0703 182.023C36.4336 182.395 36.6152 182.99 36.6152 183.811V188H35.6426ZM42.5742 188L42.3809 187.086H42.334C42.0137 187.488 41.6934 187.762 41.373 187.906C41.0566 188.047 40.6602 188.117 40.1836 188.117C39.5469 188.117 39.0469 187.953 38.6836 187.625C38.3242 187.297 38.1445 186.83 38.1445 186.225C38.1445 184.928 39.1816 184.248 41.2559 184.186L42.3457 184.15V183.752C42.3457 183.248 42.2363 182.877 42.0176 182.639C41.8027 182.396 41.457 182.275 40.9805 182.275C40.4453 182.275 39.8398 182.439 39.1641 182.768L38.8652 182.023C39.1816 181.852 39.5273 181.717 39.9023 181.619C40.2812 181.521 40.6602 181.473 41.0391 181.473C41.8047 181.473 42.3711 181.643 42.7383 181.982C43.1094 182.322 43.2949 182.867 43.2949 183.617V188H42.5742ZM40.377 187.314C40.9824 187.314 41.457 187.148 41.8008 186.816C42.1484 186.484 42.3223 186.02 42.3223 185.422V184.842L41.3496 184.883C40.5762 184.91 40.0176 185.031 39.6738 185.246C39.334 185.457 39.1641 185.787 39.1641 186.236C39.1641 186.588 39.2695 186.855 39.4805 187.039C39.6953 187.223 39.9941 187.314 40.377 187.314ZM50.5605 181.578V182.193L49.3711 182.334C49.4805 182.471 49.5781 182.65 49.6641 182.873C49.75 183.092 49.793 183.34 49.793 183.617C49.793 184.246 49.5781 184.748 49.1484 185.123C48.7188 185.498 48.1289 185.686 47.3789 185.686C47.1875 185.686 47.0078 185.67 46.8398 185.639C46.4258 185.857 46.2188 186.133 46.2188 186.465C46.2188 186.641 46.291 186.771 46.4355 186.857C46.5801 186.939 46.8281 186.98 47.1797 186.98H48.3164C49.0117 186.98 49.5449 187.127 49.916 187.42C50.291 187.713 50.4785 188.139 50.4785 188.697C50.4785 189.408 50.1934 189.949 49.623 190.32C49.0527 190.695 48.2207 190.883 47.127 190.883C46.2871 190.883 45.6387 190.727 45.1816 190.414C44.7285 190.102 44.502 189.66 44.502 189.09C44.502 188.699 44.627 188.361 44.877 188.076C45.127 187.791 45.4785 187.598 45.9316 187.496C45.7676 187.422 45.6289 187.307 45.5156 187.15C45.4062 186.994 45.3516 186.812 45.3516 186.605C45.3516 186.371 45.4141 186.166 45.5391 185.99C45.6641 185.814 45.8613 185.645 46.1309 185.48C45.7988 185.344 45.5273 185.111 45.3164 184.783C45.1094 184.455 45.0059 184.08 45.0059 183.658C45.0059 182.955 45.2168 182.414 45.6387 182.035C46.0605 181.652 46.6582 181.461 47.4316 181.461C47.7676 181.461 48.0703 181.5 48.3398 181.578H50.5605ZM45.4395 189.078C45.4395 189.426 45.5859 189.689 45.8789 189.869C46.1719 190.049 46.5918 190.139 47.1387 190.139C47.9551 190.139 48.5586 190.016 48.9492 189.77C49.3438 189.527 49.541 189.197 49.541 188.779C49.541 188.432 49.4336 188.189 49.2188 188.053C49.0039 187.92 48.5996 187.854 48.0059 187.854H46.8398C46.3984 187.854 46.0547 187.959 45.8086 188.17C45.5625 188.381 45.4395 188.684 45.4395 189.078ZM45.9668 183.635C45.9668 184.084 46.0938 184.424 46.3477 184.654C46.6016 184.885 46.9551 185 47.4082 185C48.3574 185 48.832 184.539 48.832 183.617C48.832 182.652 48.3516 182.17 47.3906 182.17C46.9336 182.17 46.582 182.293 46.3359 182.539C46.0898 182.785 45.9668 183.15 45.9668 183.635ZM54.5918 188.117C53.6426 188.117 52.8926 187.828 52.3418 187.25C51.7949 186.672 51.5215 185.869 51.5215 184.842C51.5215 183.807 51.7754 182.984 52.2832 182.375C52.7949 181.766 53.4805 181.461 54.3398 181.461C55.1445 181.461 55.7812 181.727 56.25 182.258C56.7188 182.785 56.9531 183.482 56.9531 184.35V184.965H52.5293C52.5488 185.719 52.7383 186.291 53.0977 186.682C53.4609 187.072 53.9707 187.268 54.627 187.268C55.3184 187.268 56.002 187.123 56.6777 186.834V187.701C56.334 187.85 56.0078 187.955 55.6992 188.018C55.3945 188.084 55.0254 188.117 54.5918 188.117ZM54.3281 182.275C53.8125 182.275 53.4004 182.443 53.0918 182.779C52.7871 183.115 52.6074 183.58 52.5527 184.174H55.9102C55.9102 183.561 55.7734 183.092 55.5 182.768C55.2266 182.439 54.8359 182.275 54.3281 182.275ZM62.4316 180.201C61.4902 180.201 60.7461 180.516 60.1992 181.145C59.6562 181.77 59.3848 182.627 59.3848 183.717C59.3848 184.838 59.6465 185.705 60.1699 186.318C60.6973 186.928 61.4473 187.232 62.4199 187.232C63.0176 187.232 63.6992 187.125 64.4648 186.91V187.783C63.8711 188.006 63.1387 188.117 62.2676 188.117C61.0059 188.117 60.0312 187.734 59.3438 186.969C58.6602 186.203 58.3184 185.115 58.3184 183.705C58.3184 182.822 58.4824 182.049 58.8105 181.385C59.1426 180.721 59.6191 180.209 60.2402 179.85C60.8652 179.49 61.5996 179.311 62.4434 179.311C63.3418 179.311 64.127 179.475 64.7988 179.803L64.377 180.658C63.7285 180.354 63.0801 180.201 62.4316 180.201ZM70.1367 188L69.9434 187.086H69.8965C69.5762 187.488 69.2559 187.762 68.9355 187.906C68.6191 188.047 68.2227 188.117 67.7461 188.117C67.1094 188.117 66.6094 187.953 66.2461 187.625C65.8867 187.297 65.707 186.83 65.707 186.225C65.707 184.928 66.7441 184.248 68.8184 184.186L69.9082 184.15V183.752C69.9082 183.248 69.7988 182.877 69.5801 182.639C69.3652 182.396 69.0195 182.275 68.543 182.275C68.0078 182.275 67.4023 182.439 66.7266 182.768L66.4277 182.023C66.7441 181.852 67.0898 181.717 67.4648 181.619C67.8438 181.521 68.2227 181.473 68.6016 181.473C69.3672 181.473 69.9336 181.643 70.3008 181.982C70.6719 182.322 70.8574 182.867 70.8574 183.617V188H70.1367ZM67.9395 187.314C68.5449 187.314 69.0195 187.148 69.3633 186.816C69.7109 186.484 69.8848 186.02 69.8848 185.422V184.842L68.9121 184.883C68.1387 184.91 67.5801 185.031 67.2363 185.246C66.8965 185.457 66.7266 185.787 66.7266 186.236C66.7266 186.588 66.832 186.855 67.043 187.039C67.2578 187.223 67.5566 187.314 67.9395 187.314ZM75.8555 188.117C75.4375 188.117 75.0547 188.041 74.707 187.889C74.3633 187.732 74.0742 187.494 73.8398 187.174H73.7695C73.8164 187.549 73.8398 187.904 73.8398 188.24V190.883H72.8672V181.578H73.6582L73.793 182.457H73.8398C74.0898 182.105 74.3809 181.852 74.7129 181.695C75.0449 181.539 75.4258 181.461 75.8555 181.461C76.707 181.461 77.3633 181.752 77.8242 182.334C78.2891 182.916 78.5215 183.732 78.5215 184.783C78.5215 185.838 78.2852 186.658 77.8125 187.244C77.3438 187.826 76.6914 188.117 75.8555 188.117ZM75.7148 182.287C75.0586 182.287 74.584 182.469 74.291 182.832C73.998 183.195 73.8477 183.773 73.8398 184.566V184.783C73.8398 185.686 73.9902 186.332 74.291 186.723C74.5918 187.109 75.0742 187.303 75.7383 187.303C76.293 187.303 76.7266 187.078 77.0391 186.629C77.3555 186.18 77.5137 185.561 77.5137 184.771C77.5137 183.971 77.3555 183.357 77.0391 182.932C76.7266 182.502 76.2852 182.287 75.7148 182.287ZM84.3691 186.248C84.3691 186.846 84.1465 187.307 83.7012 187.631C83.2559 187.955 82.6309 188.117 81.8262 188.117C80.9746 188.117 80.3105 187.982 79.834 187.713V186.811C80.1426 186.967 80.4727 187.09 80.8242 187.18C81.1797 187.27 81.5215 187.314 81.8496 187.314C82.3574 187.314 82.748 187.234 83.0215 187.074C83.2949 186.91 83.4316 186.662 83.4316 186.33C83.4316 186.08 83.3223 185.867 83.1035 185.691C82.8887 185.512 82.4668 185.301 81.8379 185.059C81.2402 184.836 80.8145 184.643 80.5605 184.479C80.3105 184.311 80.123 184.121 79.998 183.91C79.877 183.699 79.8164 183.447 79.8164 183.154C79.8164 182.631 80.0293 182.219 80.4551 181.918C80.8809 181.613 81.4648 181.461 82.207 181.461C82.8984 181.461 83.5742 181.602 84.2344 181.883L83.8887 182.674C83.2441 182.408 82.6602 182.275 82.1367 182.275C81.6758 182.275 81.3281 182.348 81.0938 182.492C80.8594 182.637 80.7422 182.836 80.7422 183.09C80.7422 183.262 80.7852 183.408 80.8711 183.529C80.9609 183.65 81.1035 183.766 81.2988 183.875C81.4941 183.984 81.8691 184.143 82.4238 184.35C83.1855 184.627 83.6992 184.906 83.9648 185.188C84.2344 185.469 84.3691 185.822 84.3691 186.248Z" fill="black"/>
<path d="M136.672 188H135.676V179.434H140.451V180.318H136.672V183.453H140.223V184.338H136.672V188ZM145.543 180.201C144.602 180.201 143.857 180.516 143.311 181.145C142.768 181.77 142.496 182.627 142.496 183.717C142.496 184.838 142.758 185.705 143.281 186.318C143.809 186.928 144.559 187.232 145.531 187.232C146.129 187.232 146.811 187.125 147.576 186.91V187.783C146.982 188.006 146.25 188.117 145.379 188.117C144.117 188.117 143.143 187.734 142.455 186.969C141.771 186.203 141.43 185.115 141.43 183.705C141.43 182.822 141.594 182.049 141.922 181.385C142.254 180.721 142.73 180.209 143.352 179.85C143.977 179.49 144.711 179.311 145.555 179.311C146.453 179.311 147.238 179.475 147.91 179.803L147.488 180.658C146.84 180.354 146.191 180.201 145.543 180.201ZM155.211 183.365H157.625V184.174H155.211V186.67H154.396V184.174H151.994V183.365H154.396V180.857H155.211V183.365ZM163.543 184.438V188H162.547V179.434H164.896C165.947 179.434 166.723 179.635 167.223 180.037C167.727 180.439 167.979 181.045 167.979 181.854C167.979 182.986 167.404 183.752 166.256 184.15L168.582 188H167.404L165.33 184.438H163.543ZM163.543 183.582H164.908C165.611 183.582 166.127 183.443 166.455 183.166C166.783 182.885 166.947 182.465 166.947 181.906C166.947 181.34 166.779 180.932 166.443 180.682C166.111 180.432 165.576 180.307 164.838 180.307H163.543V183.582ZM172.531 188.117C171.582 188.117 170.832 187.828 170.281 187.25C169.734 186.672 169.461 185.869 169.461 184.842C169.461 183.807 169.715 182.984 170.223 182.375C170.734 181.766 171.42 181.461 172.279 181.461C173.084 181.461 173.721 181.727 174.189 182.258C174.658 182.785 174.893 183.482 174.893 184.35V184.965H170.469C170.488 185.719 170.678 186.291 171.037 186.682C171.4 187.072 171.91 187.268 172.566 187.268C173.258 187.268 173.941 187.123 174.617 186.834V187.701C174.273 187.85 173.947 187.955 173.639 188.018C173.334 188.084 172.965 188.117 172.531 188.117ZM172.268 182.275C171.752 182.275 171.34 182.443 171.031 182.779C170.727 183.115 170.547 183.58 170.492 184.174H173.85C173.85 183.561 173.713 183.092 173.439 182.768C173.166 182.439 172.775 182.275 172.268 182.275ZM176.703 188V179.434H177.699V187.098H181.479V188H176.703ZM189.406 179.434V184.977C189.406 185.953 189.111 186.721 188.521 187.279C187.932 187.838 187.121 188.117 186.09 188.117C185.059 188.117 184.26 187.836 183.693 187.273C183.131 186.711 182.85 185.938 182.85 184.953V179.434H183.846V185.023C183.846 185.738 184.041 186.287 184.432 186.67C184.822 187.053 185.396 187.244 186.154 187.244C186.877 187.244 187.434 187.053 187.824 186.67C188.215 186.283 188.41 185.73 188.41 185.012V179.434H189.406Z" fill="black"/>
<path d="M208.656 184.438V188H207.66V179.434H210.01C211.061 179.434 211.836 179.635 212.336 180.037C212.84 180.439 213.092 181.045 213.092 181.854C213.092 182.986 212.518 183.752 211.369 184.15L213.695 188H212.518L210.443 184.438H208.656ZM208.656 183.582H210.021C210.725 183.582 211.24 183.443 211.568 183.166C211.896 182.885 212.061 182.465 212.061 181.906C212.061 181.34 211.893 180.932 211.557 180.682C211.225 180.432 210.689 180.307 209.951 180.307H208.656V183.582ZM217.645 188.117C216.695 188.117 215.945 187.828 215.395 187.25C214.848 186.672 214.574 185.869 214.574 184.842C214.574 183.807 214.828 182.984 215.336 182.375C215.848 181.766 216.533 181.461 217.393 181.461C218.197 181.461 218.834 181.727 219.303 182.258C219.771 182.785 220.006 183.482 220.006 184.35V184.965H215.582C215.602 185.719 215.791 186.291 216.15 186.682C216.514 187.072 217.023 187.268 217.68 187.268C218.371 187.268 219.055 187.123 219.73 186.834V187.701C219.387 187.85 219.061 187.955 218.752 188.018C218.447 188.084 218.078 188.117 217.645 188.117ZM217.381 182.275C216.865 182.275 216.453 182.443 216.145 182.779C215.84 183.115 215.66 183.58 215.605 184.174H218.963C218.963 183.561 218.826 183.092 218.553 182.768C218.279 182.439 217.889 182.275 217.381 182.275ZM225.812 186.248C225.812 186.846 225.59 187.307 225.145 187.631C224.699 187.955 224.074 188.117 223.27 188.117C222.418 188.117 221.754 187.982 221.277 187.713V186.811C221.586 186.967 221.916 187.09 222.268 187.18C222.623 187.27 222.965 187.314 223.293 187.314C223.801 187.314 224.191 187.234 224.465 187.074C224.738 186.91 224.875 186.662 224.875 186.33C224.875 186.08 224.766 185.867 224.547 185.691C224.332 185.512 223.91 185.301 223.281 185.059C222.684 184.836 222.258 184.643 222.004 184.479C221.754 184.311 221.566 184.121 221.441 183.91C221.32 183.699 221.26 183.447 221.26 183.154C221.26 182.631 221.473 182.219 221.898 181.918C222.324 181.613 222.908 181.461 223.65 181.461C224.342 181.461 225.018 181.602 225.678 181.883L225.332 182.674C224.688 182.408 224.104 182.275 223.58 182.275C223.119 182.275 222.771 182.348 222.537 182.492C222.303 182.637 222.186 182.836 222.186 183.09C222.186 183.262 222.229 183.408 222.314 183.529C222.404 183.65 222.547 183.766 222.742 183.875C222.938 183.984 223.312 184.143 223.867 184.35C224.629 184.627 225.143 184.906 225.408 185.188C225.678 185.469 225.812 185.822 225.812 186.248ZM231.795 188V183.846C231.795 183.322 231.676 182.932 231.438 182.674C231.199 182.416 230.826 182.287 230.318 182.287C229.643 182.287 229.148 182.471 228.836 182.838C228.527 183.205 228.373 183.807 228.373 184.643V188H227.4V178.883H228.373V181.643C228.373 181.975 228.357 182.25 228.326 182.469H228.385C228.576 182.16 228.848 181.918 229.199 181.742C229.555 181.562 229.959 181.473 230.412 181.473C231.197 181.473 231.785 181.66 232.176 182.035C232.57 182.406 232.768 182.998 232.768 183.811V188H231.795ZM238.721 188L238.527 187.086H238.48C238.16 187.488 237.84 187.762 237.52 187.906C237.203 188.047 236.807 188.117 236.33 188.117C235.693 188.117 235.193 187.953 234.83 187.625C234.471 187.297 234.291 186.83 234.291 186.225C234.291 184.928 235.328 184.248 237.402 184.186L238.492 184.15V183.752C238.492 183.248 238.383 182.877 238.164 182.639C237.949 182.396 237.604 182.275 237.127 182.275C236.592 182.275 235.986 182.439 235.311 182.768L235.012 182.023C235.328 181.852 235.674 181.717 236.049 181.619C236.428 181.521 236.807 181.473 237.186 181.473C237.951 181.473 238.518 181.643 238.885 181.982C239.256 182.322 239.441 182.867 239.441 183.617V188H238.721ZM236.523 187.314C237.129 187.314 237.604 187.148 237.947 186.816C238.295 186.484 238.469 186.02 238.469 185.422V184.842L237.496 184.883C236.723 184.91 236.164 185.031 235.82 185.246C235.48 185.457 235.311 185.787 235.311 186.236C235.311 186.588 235.416 186.855 235.627 187.039C235.842 187.223 236.141 187.314 236.523 187.314ZM244.439 188.117C244.021 188.117 243.639 188.041 243.291 187.889C242.947 187.732 242.658 187.494 242.424 187.174H242.354C242.4 187.549 242.424 187.904 242.424 188.24V190.883H241.451V181.578H242.242L242.377 182.457H242.424C242.674 182.105 242.965 181.852 243.297 181.695C243.629 181.539 244.01 181.461 244.439 181.461C245.291 181.461 245.947 181.752 246.408 182.334C246.873 182.916 247.105 183.732 247.105 184.783C247.105 185.838 246.869 186.658 246.396 187.244C245.928 187.826 245.275 188.117 244.439 188.117ZM244.299 182.287C243.643 182.287 243.168 182.469 242.875 182.832C242.582 183.195 242.432 183.773 242.424 184.566V184.783C242.424 185.686 242.574 186.332 242.875 186.723C243.176 187.109 243.658 187.303 244.322 187.303C244.877 187.303 245.311 187.078 245.623 186.629C245.939 186.18 246.098 185.561 246.098 184.771C246.098 183.971 245.939 183.357 245.623 182.932C245.311 182.502 244.869 182.287 244.299 182.287ZM251.523 188.117C250.574 188.117 249.824 187.828 249.273 187.25C248.727 186.672 248.453 185.869 248.453 184.842C248.453 183.807 248.707 182.984 249.215 182.375C249.727 181.766 250.412 181.461 251.271 181.461C252.076 181.461 252.713 181.727 253.182 182.258C253.65 182.785 253.885 183.482 253.885 184.35V184.965H249.461C249.48 185.719 249.67 186.291 250.029 186.682C250.393 187.072 250.902 187.268 251.559 187.268C252.25 187.268 252.934 187.123 253.609 186.834V187.701C253.266 187.85 252.939 187.955 252.631 188.018C252.326 188.084 251.957 188.117 251.523 188.117ZM251.26 182.275C250.744 182.275 250.332 182.443 250.023 182.779C249.719 183.115 249.539 183.58 249.484 184.174H252.842C252.842 183.561 252.705 183.092 252.432 182.768C252.158 182.439 251.768 182.275 251.26 182.275Z" fill="black"/>
<path d="M293.303 180.201C292.361 180.201 291.617 180.516 291.07 181.145C290.527 181.77 290.256 182.627 290.256 183.717C290.256 184.838 290.518 185.705 291.041 186.318C291.568 186.928 292.318 187.232 293.291 187.232C293.889 187.232 294.57 187.125 295.336 186.91V187.783C294.742 188.006 294.01 188.117 293.139 188.117C291.877 188.117 290.902 187.734 290.215 186.969C289.531 186.203 289.189 185.115 289.189 183.705C289.189 182.822 289.354 182.049 289.682 181.385C290.014 180.721 290.49 180.209 291.111 179.85C291.736 179.49 292.471 179.311 293.314 179.311C294.213 179.311 294.998 179.475 295.67 179.803L295.248 180.658C294.6 180.354 293.951 180.201 293.303 180.201ZM302.602 184.783C302.602 185.83 302.338 186.648 301.811 187.238C301.283 187.824 300.555 188.117 299.625 188.117C299.051 188.117 298.541 187.982 298.096 187.713C297.65 187.443 297.307 187.057 297.064 186.553C296.822 186.049 296.701 185.459 296.701 184.783C296.701 183.736 296.963 182.922 297.486 182.34C298.01 181.754 298.736 181.461 299.666 181.461C300.564 181.461 301.277 181.76 301.805 182.357C302.336 182.955 302.602 183.764 302.602 184.783ZM297.709 184.783C297.709 185.604 297.873 186.229 298.201 186.658C298.529 187.088 299.012 187.303 299.648 187.303C300.285 187.303 300.768 187.09 301.096 186.664C301.428 186.234 301.594 185.607 301.594 184.783C301.594 183.967 301.428 183.348 301.096 182.926C300.768 182.5 300.281 182.287 299.637 182.287C299 182.287 298.52 182.496 298.195 182.914C297.871 183.332 297.709 183.955 297.709 184.783ZM308.707 188V183.846C308.707 183.322 308.588 182.932 308.35 182.674C308.111 182.416 307.738 182.287 307.23 182.287C306.559 182.287 306.066 182.469 305.754 182.832C305.441 183.195 305.285 183.795 305.285 184.631V188H304.312V181.578H305.104L305.262 182.457H305.309C305.508 182.141 305.787 181.896 306.146 181.725C306.506 181.549 306.906 181.461 307.348 181.461C308.121 181.461 308.703 181.648 309.094 182.023C309.484 182.395 309.68 182.99 309.68 183.811V188H308.707ZM313.09 188L310.652 181.578H311.695L313.078 185.387C313.391 186.277 313.574 186.855 313.629 187.121H313.676C313.719 186.914 313.854 186.486 314.08 185.838C314.311 185.186 314.824 183.766 315.621 181.578H316.664L314.227 188H313.09ZM320.479 188H319.482V180.318H316.77V179.434H323.191V180.318H320.479V188ZM330.252 183.365H332.666V184.174H330.252V186.67H329.438V184.174H327.035V183.365H329.438V180.857H330.252V183.365ZM338.584 184.438V188H337.588V179.434H339.938C340.988 179.434 341.764 179.635 342.264 180.037C342.768 180.439 343.02 181.045 343.02 181.854C343.02 182.986 342.445 183.752 341.297 184.15L343.623 188H342.445L340.371 184.438H338.584ZM338.584 183.582H339.949C340.652 183.582 341.168 183.443 341.496 183.166C341.824 182.885 341.988 182.465 341.988 181.906C341.988 181.34 341.82 180.932 341.484 180.682C341.152 180.432 340.617 180.307 339.879 180.307H338.584V183.582ZM347.572 188.117C346.623 188.117 345.873 187.828 345.322 187.25C344.775 186.672 344.502 185.869 344.502 184.842C344.502 183.807 344.756 182.984 345.264 182.375C345.775 181.766 346.461 181.461 347.32 181.461C348.125 181.461 348.762 181.727 349.23 182.258C349.699 182.785 349.934 183.482 349.934 184.35V184.965H345.51C345.529 185.719 345.719 186.291 346.078 186.682C346.441 187.072 346.951 187.268 347.607 187.268C348.299 187.268 348.982 187.123 349.658 186.834V187.701C349.314 187.85 348.988 187.955 348.68 188.018C348.375 188.084 348.006 188.117 347.572 188.117ZM347.309 182.275C346.793 182.275 346.381 182.443 346.072 182.779C345.768 183.115 345.588 183.58 345.533 184.174H348.891C348.891 183.561 348.754 183.092 348.48 182.768C348.207 182.439 347.816 182.275 347.309 182.275ZM351.744 188V179.434H352.74V187.098H356.52V188H351.744ZM364.447 179.434V184.977C364.447 185.953 364.152 186.721 363.562 187.279C362.973 187.838 362.162 188.117 361.131 188.117C360.1 188.117 359.301 187.836 358.734 187.273C358.172 186.711 357.891 185.938 357.891 184.953V179.434H358.887V185.023C358.887 185.738 359.082 186.287 359.473 186.67C359.863 187.053 360.438 187.244 361.195 187.244C361.918 187.244 362.475 187.053 362.865 186.67C363.256 186.283 363.451 185.73 363.451 185.012V179.434H364.447Z" fill="black"/>
<path d="M430.303 180.201C429.361 180.201 428.617 180.516 428.07 181.145C427.527 181.77 427.256 182.627 427.256 183.717C427.256 184.838 427.518 185.705 428.041 186.318C428.568 186.928 429.318 187.232 430.291 187.232C430.889 187.232 431.57 187.125 432.336 186.91V187.783C431.742 188.006 431.01 188.117 430.139 188.117C428.877 188.117 427.902 187.734 427.215 186.969C426.531 186.203 426.189 185.115 426.189 183.705C426.189 182.822 426.354 182.049 426.682 181.385C427.014 180.721 427.49 180.209 428.111 179.85C428.736 179.49 429.471 179.311 430.314 179.311C431.213 179.311 431.998 179.475 432.67 179.803L432.248 180.658C431.6 180.354 430.951 180.201 430.303 180.201ZM439.602 184.783C439.602 185.83 439.338 186.648 438.811 187.238C438.283 187.824 437.555 188.117 436.625 188.117C436.051 188.117 435.541 187.982 435.096 187.713C434.65 187.443 434.307 187.057 434.064 186.553C433.822 186.049 433.701 185.459 433.701 184.783C433.701 183.736 433.963 182.922 434.486 182.34C435.01 181.754 435.736 181.461 436.666 181.461C437.564 181.461 438.277 181.76 438.805 182.357C439.336 182.955 439.602 183.764 439.602 184.783ZM434.709 184.783C434.709 185.604 434.873 186.229 435.201 186.658C435.529 187.088 436.012 187.303 436.648 187.303C437.285 187.303 437.768 187.09 438.096 186.664C438.428 186.234 438.594 185.607 438.594 184.783C438.594 183.967 438.428 183.348 438.096 182.926C437.768 182.5 437.281 182.287 436.637 182.287C436 182.287 435.52 182.496 435.195 182.914C434.871 183.332 434.709 183.955 434.709 184.783ZM445.707 188V183.846C445.707 183.322 445.588 182.932 445.35 182.674C445.111 182.416 444.738 182.287 444.23 182.287C443.559 182.287 443.066 182.469 442.754 182.832C442.441 183.195 442.285 183.795 442.285 184.631V188H441.312V181.578H442.104L442.262 182.457H442.309C442.508 182.141 442.787 181.896 443.146 181.725C443.506 181.549 443.906 181.461 444.348 181.461C445.121 181.461 445.703 181.648 446.094 182.023C446.484 182.395 446.68 182.99 446.68 183.811V188H445.707ZM450.09 188L447.652 181.578H448.695L450.078 185.387C450.391 186.277 450.574 186.855 450.629 187.121H450.676C450.719 186.914 450.854 186.486 451.08 185.838C451.311 185.186 451.824 183.766 452.621 181.578H453.664L451.227 188H450.09ZM457.479 188H456.482V180.318H453.77V179.434H460.191V180.318H457.479V188ZM467.252 183.365H469.666V184.174H467.252V186.67H466.438V184.174H464.035V183.365H466.438V180.857H467.252V183.365ZM475.584 184.438V188H474.588V179.434H476.938C477.988 179.434 478.764 179.635 479.264 180.037C479.768 180.439 480.02 181.045 480.02 181.854C480.02 182.986 479.445 183.752 478.297 184.15L480.623 188H479.445L477.371 184.438H475.584ZM475.584 183.582H476.949C477.652 183.582 478.168 183.443 478.496 183.166C478.824 182.885 478.988 182.465 478.988 181.906C478.988 181.34 478.82 180.932 478.484 180.682C478.152 180.432 477.617 180.307 476.879 180.307H475.584V183.582ZM484.572 188.117C483.623 188.117 482.873 187.828 482.322 187.25C481.775 186.672 481.502 185.869 481.502 184.842C481.502 183.807 481.756 182.984 482.264 182.375C482.775 181.766 483.461 181.461 484.32 181.461C485.125 181.461 485.762 181.727 486.23 182.258C486.699 182.785 486.934 183.482 486.934 184.35V184.965H482.51C482.529 185.719 482.719 186.291 483.078 186.682C483.441 187.072 483.951 187.268 484.607 187.268C485.299 187.268 485.982 187.123 486.658 186.834V187.701C486.314 187.85 485.988 187.955 485.68 188.018C485.375 188.084 485.006 188.117 484.572 188.117ZM484.309 182.275C483.793 182.275 483.381 182.443 483.072 182.779C482.768 183.115 482.588 183.58 482.533 184.174H485.891C485.891 183.561 485.754 183.092 485.48 182.768C485.207 182.439 484.816 182.275 484.309 182.275ZM488.744 188V179.434H489.74V187.098H493.52V188H488.744ZM501.447 179.434V184.977C501.447 185.953 501.152 186.721 500.562 187.279C499.973 187.838 499.162 188.117 498.131 188.117C497.1 188.117 496.301 187.836 495.734 187.273C495.172 186.711 494.891 185.938 494.891 184.953V179.434H495.887V185.023C495.887 185.738 496.082 186.287 496.473 186.67C496.863 187.053 497.438 187.244 498.195 187.244C498.918 187.244 499.475 187.053 499.865 186.67C500.256 186.283 500.451 185.73 500.451 185.012V179.434H501.447Z" fill="black"/>
<path d="M572.186 180.201C571.244 180.201 570.5 180.516 569.953 181.145C569.41 181.77 569.139 182.627 569.139 183.717C569.139 184.838 569.4 185.705 569.924 186.318C570.451 186.928 571.201 187.232 572.174 187.232C572.771 187.232 573.453 187.125 574.219 186.91V187.783C573.625 188.006 572.893 188.117 572.021 188.117C570.76 188.117 569.785 187.734 569.098 186.969C568.414 186.203 568.072 185.115 568.072 183.705C568.072 182.822 568.236 182.049 568.564 181.385C568.896 180.721 569.373 180.209 569.994 179.85C570.619 179.49 571.354 179.311 572.197 179.311C573.096 179.311 573.881 179.475 574.553 179.803L574.131 180.658C573.482 180.354 572.834 180.201 572.186 180.201ZM581.484 184.783C581.484 185.83 581.221 186.648 580.693 187.238C580.166 187.824 579.438 188.117 578.508 188.117C577.934 188.117 577.424 187.982 576.979 187.713C576.533 187.443 576.189 187.057 575.947 186.553C575.705 186.049 575.584 185.459 575.584 184.783C575.584 183.736 575.846 182.922 576.369 182.34C576.893 181.754 577.619 181.461 578.549 181.461C579.447 181.461 580.16 181.76 580.688 182.357C581.219 182.955 581.484 183.764 581.484 184.783ZM576.592 184.783C576.592 185.604 576.756 186.229 577.084 186.658C577.412 187.088 577.895 187.303 578.531 187.303C579.168 187.303 579.65 187.09 579.979 186.664C580.311 186.234 580.477 185.607 580.477 184.783C580.477 183.967 580.311 183.348 579.979 182.926C579.65 182.5 579.164 182.287 578.52 182.287C577.883 182.287 577.402 182.496 577.078 182.914C576.754 183.332 576.592 183.955 576.592 184.783ZM587.59 188V183.846C587.59 183.322 587.471 182.932 587.232 182.674C586.994 182.416 586.621 182.287 586.113 182.287C585.441 182.287 584.949 182.469 584.637 182.832C584.324 183.195 584.168 183.795 584.168 184.631V188H583.195V181.578H583.986L584.145 182.457H584.191C584.391 182.141 584.67 181.896 585.029 181.725C585.389 181.549 585.789 181.461 586.23 181.461C587.004 181.461 587.586 181.648 587.977 182.023C588.367 182.395 588.562 182.99 588.562 183.811V188H587.59ZM591.973 188L589.535 181.578H590.578L591.961 185.387C592.273 186.277 592.457 186.855 592.512 187.121H592.559C592.602 186.914 592.736 186.486 592.963 185.838C593.193 185.186 593.707 183.766 594.504 181.578H595.547L593.109 188H591.973ZM602.49 183.365H604.904V184.174H602.49V186.67H601.676V184.174H599.273V183.365H601.676V180.857H602.49V183.365ZM614.66 185.721C614.66 186.475 614.387 187.062 613.84 187.484C613.293 187.906 612.551 188.117 611.613 188.117C610.598 188.117 609.816 187.986 609.27 187.725V186.764C609.621 186.912 610.004 187.029 610.418 187.115C610.832 187.201 611.242 187.244 611.648 187.244C612.312 187.244 612.812 187.119 613.148 186.869C613.484 186.615 613.652 186.264 613.652 185.814C613.652 185.518 613.592 185.275 613.471 185.088C613.354 184.896 613.154 184.721 612.873 184.561C612.596 184.4 612.172 184.219 611.602 184.016C610.805 183.73 610.234 183.393 609.891 183.002C609.551 182.611 609.381 182.102 609.381 181.473C609.381 180.812 609.629 180.287 610.125 179.896C610.621 179.506 611.277 179.311 612.094 179.311C612.945 179.311 613.729 179.467 614.443 179.779L614.133 180.646C613.426 180.35 612.738 180.201 612.07 180.201C611.543 180.201 611.131 180.314 610.834 180.541C610.537 180.768 610.389 181.082 610.389 181.484C610.389 181.781 610.443 182.025 610.553 182.217C610.662 182.404 610.846 182.578 611.104 182.738C611.365 182.895 611.764 183.068 612.299 183.26C613.197 183.58 613.814 183.924 614.15 184.291C614.49 184.658 614.66 185.135 614.66 185.721ZM617.238 188H616.266V181.578H617.238V188ZM616.184 179.838C616.184 179.615 616.238 179.453 616.348 179.352C616.457 179.246 616.594 179.193 616.758 179.193C616.914 179.193 617.049 179.246 617.162 179.352C617.275 179.457 617.332 179.619 617.332 179.838C617.332 180.057 617.275 180.221 617.162 180.33C617.049 180.436 616.914 180.488 616.758 180.488C616.594 180.488 616.457 180.436 616.348 180.33C616.238 180.221 616.184 180.057 616.184 179.838ZM624.557 181.578V182.193L623.367 182.334C623.477 182.471 623.574 182.65 623.66 182.873C623.746 183.092 623.789 183.34 623.789 183.617C623.789 184.246 623.574 184.748 623.145 185.123C622.715 185.498 622.125 185.686 621.375 185.686C621.184 185.686 621.004 185.67 620.836 185.639C620.422 185.857 620.215 186.133 620.215 186.465C620.215 186.641 620.287 186.771 620.432 186.857C620.576 186.939 620.824 186.98 621.176 186.98H622.312C623.008 186.98 623.541 187.127 623.912 187.42C624.287 187.713 624.475 188.139 624.475 188.697C624.475 189.408 624.189 189.949 623.619 190.32C623.049 190.695 622.217 190.883 621.123 190.883C620.283 190.883 619.635 190.727 619.178 190.414C618.725 190.102 618.498 189.66 618.498 189.09C618.498 188.699 618.623 188.361 618.873 188.076C619.123 187.791 619.475 187.598 619.928 187.496C619.764 187.422 619.625 187.307 619.512 187.15C619.402 186.994 619.348 186.812 619.348 186.605C619.348 186.371 619.41 186.166 619.535 185.99C619.66 185.814 619.857 185.645 620.127 185.48C619.795 185.344 619.523 185.111 619.312 184.783C619.105 184.455 619.002 184.08 619.002 183.658C619.002 182.955 619.213 182.414 619.635 182.035C620.057 181.652 620.654 181.461 621.428 181.461C621.764 181.461 622.066 181.5 622.336 181.578H624.557ZM619.436 189.078C619.436 189.426 619.582 189.689 619.875 189.869C620.168 190.049 620.588 190.139 621.135 190.139C621.951 190.139 622.555 190.016 622.945 189.77C623.34 189.527 623.537 189.197 623.537 188.779C623.537 188.432 623.43 188.189 623.215 188.053C623 187.92 622.596 187.854 622.002 187.854H620.836C620.395 187.854 620.051 187.959 619.805 188.17C619.559 188.381 619.436 188.684 619.436 189.078ZM619.963 183.635C619.963 184.084 620.09 184.424 620.344 184.654C620.598 184.885 620.951 185 621.404 185C622.354 185 622.828 184.539 622.828 183.617C622.828 182.652 622.348 182.17 621.387 182.17C620.93 182.17 620.578 182.293 620.332 182.539C620.086 182.785 619.963 183.15 619.963 183.635ZM634.061 188V183.822C634.061 183.311 633.951 182.928 633.732 182.674C633.514 182.416 633.174 182.287 632.713 182.287C632.107 182.287 631.66 182.461 631.371 182.809C631.082 183.156 630.938 183.691 630.938 184.414V188H629.965V183.822C629.965 183.311 629.855 182.928 629.637 182.674C629.418 182.416 629.076 182.287 628.611 182.287C628.002 182.287 627.555 182.471 627.27 182.838C626.988 183.201 626.848 183.799 626.848 184.631V188H625.875V181.578H626.666L626.824 182.457H626.871C627.055 182.145 627.312 181.9 627.645 181.725C627.98 181.549 628.355 181.461 628.77 181.461C629.773 181.461 630.43 181.824 630.738 182.551H630.785C630.977 182.215 631.254 181.949 631.617 181.754C631.98 181.559 632.395 181.461 632.859 181.461C633.586 181.461 634.129 181.648 634.488 182.023C634.852 182.395 635.033 182.99 635.033 183.811V188H634.061ZM642.586 184.783C642.586 185.83 642.322 186.648 641.795 187.238C641.268 187.824 640.539 188.117 639.609 188.117C639.035 188.117 638.525 187.982 638.08 187.713C637.635 187.443 637.291 187.057 637.049 186.553C636.807 186.049 636.686 185.459 636.686 184.783C636.686 183.736 636.947 182.922 637.471 182.34C637.994 181.754 638.721 181.461 639.65 181.461C640.549 181.461 641.262 181.76 641.789 182.357C642.32 182.955 642.586 183.764 642.586 184.783ZM637.693 184.783C637.693 185.604 637.857 186.229 638.186 186.658C638.514 187.088 638.996 187.303 639.633 187.303C640.27 187.303 640.752 187.09 641.08 186.664C641.412 186.234 641.578 185.607 641.578 184.783C641.578 183.967 641.412 183.348 641.08 182.926C640.752 182.5 640.266 182.287 639.621 182.287C638.984 182.287 638.504 182.496 638.18 182.914C637.855 183.332 637.693 183.955 637.693 184.783ZM645.27 188H644.297V181.578H645.27V188ZM644.215 179.838C644.215 179.615 644.27 179.453 644.379 179.352C644.488 179.246 644.625 179.193 644.789 179.193C644.945 179.193 645.08 179.246 645.193 179.352C645.307 179.457 645.363 179.619 645.363 179.838C645.363 180.057 645.307 180.221 645.193 180.33C645.08 180.436 644.945 180.488 644.789 180.488C644.625 180.488 644.488 180.436 644.379 180.33C644.27 180.221 644.215 180.057 644.215 179.838ZM651.703 187.139H651.65C651.201 187.791 650.529 188.117 649.635 188.117C648.795 188.117 648.141 187.83 647.672 187.256C647.207 186.682 646.975 185.865 646.975 184.807C646.975 183.748 647.209 182.926 647.678 182.34C648.146 181.754 648.799 181.461 649.635 181.461C650.506 181.461 651.174 181.777 651.639 182.41H651.715L651.674 181.947L651.65 181.496V178.883H652.623V188H651.832L651.703 187.139ZM649.758 187.303C650.422 187.303 650.902 187.123 651.199 186.764C651.5 186.4 651.65 185.816 651.65 185.012V184.807C651.65 183.896 651.498 183.248 651.193 182.861C650.893 182.471 650.41 182.275 649.746 182.275C649.176 182.275 648.738 182.498 648.434 182.943C648.133 183.385 647.982 184.01 647.982 184.818C647.982 185.639 648.133 186.258 648.434 186.676C648.734 187.094 649.176 187.303 649.758 187.303Z" fill="black"/>
<path d="M282.5 119C282.5 120.402 283.053 121.479 284.013 122.275C284.95 123.053 286.252 123.544 287.739 123.864C290.708 124.502 294.644 124.5 298.5 124.5C302.394 124.5 306.208 124.502 309.051 125.114C310.471 125.419 311.591 125.866 312.349 126.494C313.084 127.104 313.5 127.902 313.5 129L314.5 129C314.5 127.598 313.947 126.521 312.987 125.725C312.05 124.947 310.748 124.456 309.261 124.136C306.292 123.498 302.356 123.5 298.5 123.5C294.606 123.5 290.792 123.498 287.949 122.886C286.529 122.581 285.409 122.134 284.651 121.506C283.916 120.896 283.5 120.098 283.5 119L282.5 119ZM344.5 119C344.5 120.098 344.084 120.896 343.349 121.506C342.591 122.134 341.471 122.581 340.051 122.886C337.208 123.498 333.394 123.5 329.5 123.5C325.644 123.5 321.708 123.498 318.739 124.136C317.252 124.456 315.95 124.947 315.013 125.725C314.053 126.521 313.5 127.598 313.5 129L314.5 129C314.5 127.902 314.916 127.104 315.651 126.494C316.409 125.866 317.529 125.419 318.949 125.114C321.792 124.502 325.606 124.5 329.5 124.5C333.356 124.5 337.292 124.502 340.261 123.864C341.748 123.544 343.05 123.053 343.987 122.275C344.947 121.479 345.5 120.402 345.5 119L344.5 119Z" fill="black"/>
<path d="M313.35 142H307.719V141.162L309.975 138.895C310.662 138.199 311.115 137.703 311.334 137.406C311.553 137.109 311.717 136.82 311.826 136.539C311.936 136.258 311.99 135.955 311.99 135.631C311.99 135.174 311.852 134.812 311.574 134.547C311.297 134.277 310.912 134.143 310.42 134.143C310.064 134.143 309.727 134.201 309.406 134.318C309.09 134.436 308.736 134.648 308.346 134.957L307.83 134.295C308.619 133.639 309.479 133.311 310.408 133.311C311.213 133.311 311.844 133.518 312.301 133.932C312.758 134.342 312.986 134.895 312.986 135.59C312.986 136.133 312.834 136.67 312.529 137.201C312.225 137.732 311.654 138.404 310.818 139.217L308.943 141.051V141.098H313.35V142ZM320.621 140.031H319.35V142H318.418V140.031H314.252V139.182L318.318 133.387H319.35V139.146H320.621V140.031ZM318.418 139.146V136.299C318.418 135.74 318.438 135.109 318.477 134.406H318.43C318.242 134.781 318.066 135.092 317.902 135.338L315.225 139.146H318.418Z" fill="black"/>
<path d="M313.35 142H307.719V141.162L309.975 138.895C310.662 138.199 311.115 137.703 311.334 137.406C311.553 137.109 311.717 136.82 311.826 136.539C311.936 136.258 311.99 135.955 311.99 135.631C311.99 135.174 311.852 134.812 311.574 134.547C311.297 134.277 310.912 134.143 310.42 134.143C310.064 134.143 309.727 134.201 309.406 134.318C309.09 134.436 308.736 134.648 308.346 134.957L307.83 134.295C308.619 133.639 309.479 133.311 310.408 133.311C311.213 133.311 311.844 133.518 312.301 133.932C312.758 134.342 312.986 134.895 312.986 135.59C312.986 136.133 312.834 136.67 312.529 137.201C312.225 137.732 311.654 138.404 310.818 139.217L308.943 141.051V141.098H313.35V142ZM320.621 140.031H319.35V142H318.418V140.031H314.252V139.182L318.318 133.387H319.35V139.146H320.621V140.031ZM318.418 139.146V136.299C318.418 135.74 318.438 135.109 318.477 134.406H318.43C318.242 134.781 318.066 135.092 317.902 135.338L315.225 139.146H318.418Z" fill="black"/>
<path d="M313.35 142H307.719V141.162L309.975 138.895C310.662 138.199 311.115 137.703 311.334 137.406C311.553 137.109 311.717 136.82 311.826 136.539C311.936 136.258 311.99 135.955 311.99 135.631C311.99 135.174 311.852 134.812 311.574 134.547C311.297 134.277 310.912 134.143 310.42 134.143C310.064 134.143 309.727 134.201 309.406 134.318C309.09 134.436 308.736 134.648 308.346 134.957L307.83 134.295C308.619 133.639 309.479 133.311 310.408 133.311C311.213 133.311 311.844 133.518 312.301 133.932C312.758 134.342 312.986 134.895 312.986 135.59C312.986 136.133 312.834 136.67 312.529 137.201C312.225 137.732 311.654 138.404 310.818 139.217L308.943 141.051V141.098H313.35V142ZM320.621 140.031H319.35V142H318.418V140.031H314.252V139.182L318.318 133.387H319.35V139.146H320.621V140.031ZM318.418 139.146V136.299C318.418 135.74 318.438 135.109 318.477 134.406H318.43C318.242 134.781 318.066 135.092 317.902 135.338L315.225 139.146H318.418Z" fill="black"/>
<path d="M207.5 99C207.5 100.09 207.783 100.957 208.319 101.625C208.85 102.288 209.592 102.707 210.424 102.976C212.063 103.505 214.215 103.5 216.25 103.5C218.34 103.5 220.313 103.505 221.768 103.976C222.483 104.207 223.03 104.538 223.401 105C223.767 105.457 224 106.09 224 107L225 107C225 105.91 224.717 105.043 224.181 104.375C223.65 103.712 222.908 103.293 222.076 103.024C220.437 102.495 218.285 102.5 216.25 102.5C214.16 102.5 212.187 102.495 210.732 102.024C210.017 101.793 209.47 101.462 209.099 101C208.733 100.543 208.5 99.9101 208.5 99L207.5 99ZM240.5 99C240.5 99.9101 240.267 100.543 239.901 101C239.53 101.462 238.983 101.793 238.268 102.024C236.813 102.495 234.84 102.5 232.75 102.5C230.715 102.5 228.563 102.495 226.924 103.024C226.092 103.293 225.35 103.712 224.819 104.375C224.283 105.043 224 105.91 224 107L225 107C225 106.09 225.233 105.457 225.599 105C225.97 104.538 226.517 104.207 227.232 103.976C228.687 103.505 230.66 103.5 232.75 103.5C234.785 103.5 236.937 103.505 238.576 102.976C239.408 102.707 240.15 102.288 240.681 101.625C241.217 100.957 241.5 100.09 241.5 99L240.5 99Z" fill="black"/>
<path d="M224.488 111.311C225.27 111.311 225.889 111.492 226.346 111.855C226.803 112.219 227.031 112.721 227.031 113.361C227.031 113.783 226.9 114.168 226.639 114.516C226.377 114.863 225.959 115.18 225.385 115.465C226.08 115.797 226.574 116.146 226.867 116.514C227.16 116.877 227.307 117.299 227.307 117.779C227.307 118.49 227.059 119.059 226.562 119.484C226.066 119.906 225.387 120.117 224.523 120.117C223.609 120.117 222.906 119.918 222.414 119.52C221.922 119.117 221.676 118.549 221.676 117.814C221.676 116.834 222.273 116.07 223.469 115.523C222.93 115.219 222.543 114.891 222.309 114.539C222.074 114.184 221.957 113.787 221.957 113.35C221.957 112.729 222.186 112.234 222.643 111.867C223.104 111.496 223.719 111.311 224.488 111.311ZM222.637 117.838C222.637 118.307 222.799 118.672 223.123 118.934C223.451 119.195 223.91 119.326 224.5 119.326C225.082 119.326 225.535 119.189 225.859 118.916C226.184 118.643 226.346 118.268 226.346 117.791C226.346 117.412 226.193 117.076 225.889 116.783C225.584 116.486 225.053 116.199 224.295 115.922C223.713 116.172 223.291 116.449 223.029 116.754C222.768 117.055 222.637 117.416 222.637 117.838ZM224.477 112.102C223.988 112.102 223.605 112.219 223.328 112.453C223.051 112.688 222.912 113 222.912 113.391C222.912 113.75 223.027 114.059 223.258 114.316C223.488 114.574 223.914 114.832 224.535 115.09C225.094 114.855 225.488 114.604 225.719 114.334C225.953 114.064 226.07 113.75 226.07 113.391C226.07 112.996 225.928 112.684 225.643 112.453C225.361 112.219 224.973 112.102 224.477 112.102Z" fill="black"/>
<path d="M153 25.5C151.694 25.5 150.817 26.4764 150.229 27.819C149.636 29.1749 149.255 31.0717 149.003 33.2874C148.499 37.7281 148.5 43.6355 148.5 49.5C148.5 55.3855 148.499 61.2281 148.003 65.5999C147.755 67.7905 147.386 69.5655 146.854 70.78C146.317 72.0077 145.694 72.5 145 72.5L145 73.5C146.306 73.5 147.183 72.5236 147.771 71.181C148.364 69.8251 148.745 67.9283 148.997 65.7126C149.501 61.2719 149.5 55.3645 149.5 49.5C149.5 43.6145 149.501 37.7719 149.997 33.4001C150.245 31.2095 150.614 29.4345 151.146 28.22C151.683 26.9923 152.306 26.5 153 26.5L153 25.5ZM153 119.5C152.306 119.5 151.683 119.008 151.146 117.78C150.614 116.566 150.245 114.79 149.997 112.6C149.501 108.228 149.5 102.385 149.5 96.5C149.5 90.6355 149.501 84.7281 148.997 80.2874C148.745 78.0717 148.364 76.1749 147.771 74.8191C147.183 73.4764 146.306 72.5 145 72.5L145 73.5C145.694 73.5 146.317 73.9923 146.854 75.22C147.386 76.4345 147.755 78.2095 148.003 80.4001C148.499 84.7719 148.5 90.6145 148.5 96.5C148.5 102.365 148.499 108.272 149.003 112.713C149.255 114.928 149.636 116.825 150.229 118.181C150.817 119.524 151.694 120.5 153 120.5L153 119.5Z" fill="black"/>
<path d="M128.416 77H122.785V76.1621L125.041 73.8945C125.729 73.1992 126.182 72.7031 126.4 72.4062C126.619 72.1094 126.783 71.8203 126.893 71.5391C127.002 71.2578 127.057 70.9551 127.057 70.6309C127.057 70.1738 126.918 69.8125 126.641 69.5469C126.363 69.2773 125.979 69.1426 125.486 69.1426C125.131 69.1426 124.793 69.2012 124.473 69.3184C124.156 69.4355 123.803 69.6484 123.412 69.957L122.896 69.2949C123.686 68.6387 124.545 68.3105 125.475 68.3105C126.279 68.3105 126.91 68.5176 127.367 68.9316C127.824 69.3418 128.053 69.8945 128.053 70.5898C128.053 71.1328 127.9 71.6699 127.596 72.2012C127.291 72.7324 126.721 73.4043 125.885 74.2168L124.01 76.0508V76.0977H128.416V77ZM132.33 71.7676C133.232 71.7676 133.941 71.9922 134.457 72.4414C134.977 72.8867 135.236 73.498 135.236 74.2754C135.236 75.1621 134.953 75.8574 134.387 76.3613C133.824 76.8652 133.047 77.1172 132.055 77.1172C131.09 77.1172 130.354 76.9629 129.846 76.6543V75.7168C130.119 75.8926 130.459 76.0312 130.865 76.1328C131.271 76.2305 131.672 76.2793 132.066 76.2793C132.754 76.2793 133.287 76.1172 133.666 75.793C134.049 75.4688 134.24 75 134.24 74.3867C134.24 73.1914 133.508 72.5938 132.043 72.5938C131.672 72.5938 131.176 72.6504 130.555 72.7637L130.051 72.4414L130.373 68.4336H134.633V69.3301H131.205L130.988 71.9023C131.438 71.8125 131.885 71.7676 132.33 71.7676ZM136.619 73.3379C136.619 71.6543 136.945 70.3965 137.598 69.5645C138.254 68.7285 139.223 68.3105 140.504 68.3105C140.945 68.3105 141.293 68.3477 141.547 68.4219V69.2598C141.246 69.1621 140.902 69.1133 140.516 69.1133C139.598 69.1133 138.896 69.4004 138.412 69.9746C137.928 70.5449 137.662 71.4434 137.615 72.6699H137.686C138.115 71.998 138.795 71.6621 139.725 71.6621C140.494 71.6621 141.1 71.8945 141.541 72.3594C141.986 72.8242 142.209 73.4551 142.209 74.252C142.209 75.1426 141.965 75.8438 141.477 76.3555C140.992 76.8633 140.336 77.1172 139.508 77.1172C138.621 77.1172 137.918 76.7852 137.398 76.1211C136.879 75.4531 136.619 74.5254 136.619 73.3379ZM139.496 76.291C140.051 76.291 140.48 76.1172 140.785 75.7695C141.094 75.418 141.248 74.9121 141.248 74.252C141.248 73.6855 141.105 73.2402 140.82 72.916C140.535 72.5918 140.109 72.4297 139.543 72.4297C139.191 72.4297 138.869 72.502 138.576 72.6465C138.283 72.791 138.049 72.9902 137.873 73.2441C137.701 73.498 137.615 73.7617 137.615 74.0352C137.615 74.4375 137.693 74.8125 137.85 75.1602C138.006 75.5078 138.227 75.7832 138.512 75.9863C138.801 76.1895 139.129 76.291 139.496 76.291Z" fill="black"/>
<path d="M553.961 7.44922C553.961 7.99609 553.807 8.44336 553.498 8.79102C553.193 9.13867 552.76 9.37109 552.197 9.48828V9.53516C552.885 9.62109 553.395 9.83984 553.727 10.1914C554.059 10.543 554.225 11.0039 554.225 11.5742C554.225 12.3906 553.941 13.0195 553.375 13.4609C552.809 13.8984 552.004 14.1172 550.961 14.1172C550.508 14.1172 550.092 14.082 549.713 14.0117C549.338 13.9453 548.973 13.8262 548.617 13.6543V12.7285C548.988 12.9121 549.383 13.0527 549.801 13.1504C550.223 13.2441 550.621 13.291 550.996 13.291C552.477 13.291 553.217 12.7109 553.217 11.5508C553.217 10.5117 552.4 9.99219 550.768 9.99219H549.924V9.1543H550.779C551.447 9.1543 551.977 9.00781 552.367 8.71484C552.758 8.41797 552.953 8.00781 552.953 7.48438C552.953 7.06641 552.809 6.73828 552.52 6.5C552.234 6.26172 551.846 6.14258 551.354 6.14258C550.979 6.14258 550.625 6.19336 550.293 6.29492C549.961 6.39648 549.582 6.58398 549.156 6.85742L548.664 6.20117C549.016 5.92383 549.42 5.70703 549.877 5.55078C550.338 5.39062 550.822 5.31055 551.33 5.31055C552.162 5.31055 552.809 5.50195 553.27 5.88477C553.73 6.26367 553.961 6.78516 553.961 7.44922Z" fill="black"/>
<path d="M560.33 16.0963C560.075 15.7571 559.802 15.5067 559.501 15.3561C559.191 15.2007 558.879 15.1658 558.581 15.2153C558.035 15.3058 557.548 15.6869 557.196 15.9518C556.782 16.2633 556.503 16.4586 556.249 16.5007C556.148 16.5175 556.051 16.5079 555.94 16.4523C555.82 16.3919 555.658 16.2649 555.463 16.0049L554.664 16.6062C554.919 16.9454 555.192 17.1958 555.492 17.3464C555.803 17.5018 556.114 17.5367 556.413 17.4872C556.959 17.3967 557.446 17.0156 557.798 16.7507C558.212 16.4392 558.49 16.2439 558.744 16.2018C558.846 16.185 558.942 16.1946 559.053 16.2502C559.174 16.3105 559.335 16.4376 559.531 16.6976L560.33 16.0963ZM554.204 20.7074C554.008 20.4473 553.93 20.2571 553.906 20.1246C553.883 20.0025 553.901 19.9071 553.945 19.8143C554.056 19.5818 554.32 19.3679 554.734 19.0563C555.086 18.7915 555.587 18.429 555.825 17.9296C555.955 17.6565 556.008 17.3471 555.945 17.006C555.883 16.6753 555.718 16.3441 555.463 16.0049L554.664 16.6062C554.859 16.8663 554.937 17.0565 554.962 17.1889C554.984 17.3111 554.967 17.4065 554.923 17.4993C554.812 17.7318 554.547 17.9457 554.133 18.2573C553.781 18.5221 553.28 18.8846 553.042 19.384C552.912 19.6571 552.859 19.9665 552.923 20.3076C552.984 20.6383 553.149 20.9695 553.405 21.3087L554.204 20.7074Z" fill="black"/>
<path d="M208.688 45.0312H207.416V47H206.484V45.0312H202.318V44.1816L206.385 38.3867H207.416V44.1465H208.688V45.0312ZM206.484 44.1465V41.2988C206.484 40.7402 206.504 40.1094 206.543 39.4062H206.496C206.309 39.7812 206.133 40.0918 205.969 40.3379L203.291 44.1465H206.484Z" fill="black"/>
<path d="M218.118 47.2389C217.768 46.7735 217.362 46.4693 216.898 46.3347C216.438 46.201 215.979 46.2514 215.551 46.3895C214.726 46.6556 213.883 47.2973 213.137 47.859C212.344 48.4558 211.647 48.9725 211.017 49.1757C210.718 49.2723 210.47 49.2842 210.256 49.2219C210.044 49.1605 209.807 49.0103 209.556 48.6767L208.757 49.278C209.107 49.7434 209.513 50.0476 209.977 50.1822C210.437 50.3159 210.896 50.2655 211.324 50.1274C212.149 49.8613 212.992 49.2196 213.738 48.6579C214.531 48.0612 215.228 47.5445 215.858 47.3412C216.157 47.2446 216.405 47.2327 216.619 47.295C216.831 47.3564 217.068 47.5066 217.319 47.8402L218.118 47.2389ZM205.805 56.5063C205.554 56.1727 205.475 55.9031 205.475 55.683C205.474 55.4594 205.554 55.225 205.73 54.964C206.099 54.4147 206.789 53.8885 207.582 53.2917C208.328 52.73 209.178 52.0979 209.662 51.3788C209.913 51.0057 210.088 50.5785 210.087 50.0992C210.086 49.6165 209.906 49.142 209.556 48.6767L208.757 49.278C209.008 49.6117 209.087 49.8812 209.087 50.1014C209.088 50.3249 209.008 50.5594 208.832 50.8204C208.462 51.3696 207.773 51.8959 206.98 52.4927C206.234 53.0543 205.384 53.6865 204.9 54.4056C204.649 54.7787 204.474 55.2059 204.475 55.6852C204.476 56.1678 204.656 56.6423 205.006 57.1077L205.805 56.5063Z" fill="black"/>
<path d="M280.416 28H274.785V27.1621L277.041 24.8945C277.729 24.1992 278.182 23.7031 278.4 23.4062C278.619 23.1094 278.783 22.8203 278.893 22.5391C279.002 22.2578 279.057 21.9551 279.057 21.6309C279.057 21.1738 278.918 20.8125 278.641 20.5469C278.363 20.2773 277.979 20.1426 277.486 20.1426C277.131 20.1426 276.793 20.2012 276.473 20.3184C276.156 20.4355 275.803 20.6484 275.412 20.957L274.896 20.2949C275.686 19.6387 276.545 19.3105 277.475 19.3105C278.279 19.3105 278.91 19.5176 279.367 19.9316C279.824 20.3418 280.053 20.8945 280.053 21.5898C280.053 22.1328 279.9 22.6699 279.596 23.2012C279.291 23.7324 278.721 24.4043 277.885 25.2168L276.01 27.0508V27.0977H280.416V28ZM284.33 22.7676C285.232 22.7676 285.941 22.9922 286.457 23.4414C286.977 23.8867 287.236 24.498 287.236 25.2754C287.236 26.1621 286.953 26.8574 286.387 27.3613C285.824 27.8652 285.047 28.1172 284.055 28.1172C283.09 28.1172 282.354 27.9629 281.846 27.6543V26.7168C282.119 26.8926 282.459 27.0312 282.865 27.1328C283.271 27.2305 283.672 27.2793 284.066 27.2793C284.754 27.2793 285.287 27.1172 285.666 26.793C286.049 26.4688 286.24 26 286.24 25.3867C286.24 24.1914 285.508 23.5938 284.043 23.5938C283.672 23.5938 283.176 23.6504 282.555 23.7637L282.051 23.4414L282.373 19.4336H286.633V20.3301H283.205L282.988 22.9023C283.438 22.8125 283.885 22.7676 284.33 22.7676ZM288.619 24.3379C288.619 22.6543 288.945 21.3965 289.598 20.5645C290.254 19.7285 291.223 19.3105 292.504 19.3105C292.945 19.3105 293.293 19.3477 293.547 19.4219V20.2598C293.246 20.1621 292.902 20.1133 292.516 20.1133C291.598 20.1133 290.896 20.4004 290.412 20.9746C289.928 21.5449 289.662 22.4434 289.615 23.6699H289.686C290.115 22.998 290.795 22.6621 291.725 22.6621C292.494 22.6621 293.1 22.8945 293.541 23.3594C293.986 23.8242 294.209 24.4551 294.209 25.252C294.209 26.1426 293.965 26.8438 293.477 27.3555C292.992 27.8633 292.336 28.1172 291.508 28.1172C290.621 28.1172 289.918 27.7852 289.398 27.1211C288.879 26.4531 288.619 25.5254 288.619 24.3379ZM291.496 27.291C292.051 27.291 292.48 27.1172 292.785 26.7695C293.094 26.418 293.248 25.9121 293.248 25.252C293.248 24.6855 293.105 24.2402 292.82 23.916C292.535 23.5918 292.109 23.4297 291.543 23.4297C291.191 23.4297 290.869 23.502 290.576 23.6465C290.283 23.791 290.049 23.9902 289.873 24.2441C289.701 24.498 289.615 24.7617 289.615 25.0352C289.615 25.4375 289.693 25.8125 289.85 26.1602C290.006 26.5078 290.227 26.7832 290.512 26.9863C290.801 27.1895 291.129 27.291 291.496 27.291Z" fill="black"/>
<path d="M305.471 27.1885C305.046 26.6236 304.437 26.4325 303.787 26.4818C303.166 26.5289 302.48 26.7934 301.783 27.1568C300.385 27.8859 298.744 29.1229 297.152 30.3212C295.536 31.5376 293.968 32.7154 292.66 33.3978C292.003 33.7402 291.461 33.9306 291.042 33.9624C290.652 33.9919 290.409 33.8855 290.233 33.6515L289.434 34.2528C289.859 34.8177 290.468 35.0087 291.118 34.9595C291.739 34.9124 292.425 34.6479 293.122 34.2845C294.52 33.5554 296.161 32.3184 297.753 31.1201C299.369 29.9037 300.937 28.7259 302.245 28.0435C302.902 27.7011 303.444 27.5106 303.863 27.4789C304.253 27.4494 304.496 27.5557 304.672 27.7898L305.471 27.1885ZM279.805 46.5063C279.629 46.2722 279.594 46.0091 279.73 45.6424C279.877 45.2488 280.21 44.7806 280.72 44.2444C281.738 43.1757 283.304 41.9955 284.92 40.7791C286.512 39.5808 288.155 38.3462 289.242 37.2044C289.784 36.6353 290.229 36.0493 290.446 35.4653C290.673 34.8543 290.658 34.2164 290.233 33.6515L289.434 34.2528C289.61 34.4869 289.645 34.7501 289.508 35.1167C289.362 35.5103 289.029 35.9785 288.518 36.5147C287.5 37.5834 285.935 38.7636 284.319 39.9801C282.727 41.1783 281.084 42.4129 279.996 43.5547C279.454 44.1238 279.01 44.7098 278.793 45.2939C278.566 45.9049 278.581 46.5428 279.006 47.1077L279.805 46.5063Z" fill="black"/>
<path d="M398.416 9H392.785V8.16211L395.041 5.89453C395.729 5.19922 396.182 4.70312 396.4 4.40625C396.619 4.10938 396.783 3.82031 396.893 3.53906C397.002 3.25781 397.057 2.95508 397.057 2.63086C397.057 2.17383 396.918 1.8125 396.641 1.54688C396.363 1.27734 395.979 1.14258 395.486 1.14258C395.131 1.14258 394.793 1.20117 394.473 1.31836C394.156 1.43555 393.803 1.64844 393.412 1.95703L392.896 1.29492C393.686 0.638672 394.545 0.310547 395.475 0.310547C396.279 0.310547 396.91 0.517578 397.367 0.931641C397.824 1.3418 398.053 1.89453 398.053 2.58984C398.053 3.13281 397.9 3.66992 397.596 4.20117C397.291 4.73242 396.721 5.4043 395.885 6.2168L394.01 8.05078V8.09766H398.416V9ZM402.33 3.76758C403.232 3.76758 403.941 3.99219 404.457 4.44141C404.977 4.88672 405.236 5.49805 405.236 6.27539C405.236 7.16211 404.953 7.85742 404.387 8.36133C403.824 8.86523 403.047 9.11719 402.055 9.11719C401.09 9.11719 400.354 8.96289 399.846 8.6543V7.7168C400.119 7.89258 400.459 8.03125 400.865 8.13281C401.271 8.23047 401.672 8.2793 402.066 8.2793C402.754 8.2793 403.287 8.11719 403.666 7.79297C404.049 7.46875 404.24 7 404.24 6.38672C404.24 5.19141 403.508 4.59375 402.043 4.59375C401.672 4.59375 401.176 4.65039 400.555 4.76367L400.051 4.44141L400.373 0.433594H404.633V1.33008H401.205L400.988 3.90234C401.438 3.8125 401.885 3.76758 402.33 3.76758ZM406.619 5.33789C406.619 3.6543 406.945 2.39648 407.598 1.56445C408.254 0.728516 409.223 0.310547 410.504 0.310547C410.945 0.310547 411.293 0.347656 411.547 0.421875V1.25977C411.246 1.16211 410.902 1.11328 410.516 1.11328C409.598 1.11328 408.896 1.40039 408.412 1.97461C407.928 2.54492 407.662 3.44336 407.615 4.66992H407.686C408.115 3.99805 408.795 3.66211 409.725 3.66211C410.494 3.66211 411.1 3.89453 411.541 4.35938C411.986 4.82422 412.209 5.45508 412.209 6.25195C412.209 7.14258 411.965 7.84375 411.477 8.35547C410.992 8.86328 410.336 9.11719 409.508 9.11719C408.621 9.11719 407.918 8.78516 407.398 8.12109C406.879 7.45312 406.619 6.52539 406.619 5.33789ZM409.496 8.29102C410.051 8.29102 410.48 8.11719 410.785 7.76953C411.094 7.41797 411.248 6.91211 411.248 6.25195C411.248 5.68555 411.105 5.24023 410.82 4.91602C410.535 4.5918 410.109 4.42969 409.543 4.42969C409.191 4.42969 408.869 4.50195 408.576 4.64648C408.283 4.79102 408.049 4.99023 407.873 5.24414C407.701 5.49805 407.615 5.76172 407.615 6.03516C407.615 6.4375 407.693 6.8125 407.85 7.16016C408.006 7.50781 408.227 7.7832 408.512 7.98633C408.801 8.18945 409.129 8.29102 409.496 8.29102Z" fill="black"/>
<path d="M423.471 8.18846C423.046 7.62356 422.437 7.43254 421.787 7.48178C421.166 7.52885 420.48 7.7934 419.783 8.15679C418.385 8.88591 416.744 10.1229 415.152 11.3212C413.536 12.5376 411.968 13.7154 410.66 14.3978C410.003 14.7402 409.461 14.9306 409.042 14.9624C408.652 14.9919 408.409 14.8855 408.233 14.6515L407.434 15.2528C407.859 15.8177 408.468 16.0087 409.118 15.9595C409.739 15.9124 410.425 15.6479 411.122 15.2845C412.52 14.5554 414.161 13.3184 415.753 12.1201C417.369 10.9037 418.937 9.72591 420.245 9.04347C420.902 8.70108 421.444 8.51064 421.863 8.47892C422.253 8.44937 422.496 8.55574 422.672 8.78982L423.471 8.18846ZM397.805 27.5063C397.629 27.2722 397.594 27.0091 397.73 26.6424C397.877 26.2488 398.21 25.7806 398.72 25.2444C399.738 24.1757 401.304 22.9955 402.92 21.7791C404.512 20.5808 406.155 19.3462 407.242 18.2044C407.784 17.6353 408.229 17.0493 408.446 16.4653C408.673 15.8543 408.658 15.2164 408.233 14.6515L407.434 15.2528C407.61 15.4869 407.645 15.7501 407.508 16.1167C407.362 16.5103 407.029 16.9785 406.518 17.5147C405.5 18.5834 403.935 19.7636 402.319 20.9801C400.727 22.1783 399.084 23.4129 397.996 24.5547C397.454 25.1238 397.01 25.7098 396.793 26.2939C396.566 26.9049 396.581 27.5428 397.006 28.1077L397.805 27.5063Z" fill="black"/>
<path d="M557 24.4366L562.889 20L663 20V120.563L657.111 125H557V24.4366Z" fill="white"/>
<path d="M557 24.4366L562.889 20L663 20M557 24.4366H657.111M557 24.4366V125H657.111M663 20L657.111 24.4366M663 20V120.563L657.111 125M657.111 24.4366V125" stroke="black" stroke-width="2"/>
<path d="M400.5 138C400.5 139.512 401.465 140.587 402.92 141.335C404.365 142.078 406.387 142.556 408.746 142.871C413.474 143.501 419.762 143.5 426 143.5C432.262 143.5 438.474 143.501 443.121 144.121C445.449 144.431 447.333 144.891 448.623 145.554C449.903 146.212 450.5 147.012 450.5 148L451.5 148C451.5 146.488 450.535 145.413 449.08 144.665C447.635 143.922 445.613 143.444 443.254 143.129C438.526 142.499 432.238 142.5 426 142.5C419.738 142.5 413.526 142.499 408.879 141.879C406.551 141.569 404.667 141.109 403.377 140.446C402.097 139.788 401.5 138.988 401.5 138L400.5 138ZM500.5 138C500.5 138.988 499.903 139.788 498.623 140.446C497.333 141.109 495.449 141.569 493.121 141.879C488.474 142.499 482.262 142.5 476 142.5C469.762 142.5 463.474 142.499 458.746 143.129C456.387 143.444 454.365 143.922 452.92 144.665C451.465 145.413 450.5 146.488 450.5 148L451.5 148C451.5 147.012 452.097 146.212 453.377 145.554C454.667 144.891 456.551 144.431 458.879 144.121C463.526 143.501 469.738 143.5 476 143.5C482.238 143.5 488.526 143.501 493.254 142.871C495.613 142.556 497.635 142.078 499.08 141.335C500.535 140.587 501.5 139.512 501.5 138L500.5 138Z" fill="black"/>
<path d="M400.5 138C400.5 139.512 401.465 140.587 402.92 141.335C404.365 142.078 406.387 142.556 408.746 142.871C413.474 143.501 419.762 143.5 426 143.5C432.262 143.5 438.474 143.501 443.121 144.121C445.449 144.431 447.333 144.891 448.623 145.554C449.903 146.212 450.5 147.012 450.5 148L451.5 148C451.5 146.488 450.535 145.413 449.08 144.665C447.635 143.922 445.613 143.444 443.254 143.129C438.526 142.499 432.238 142.5 426 142.5C419.738 142.5 413.526 142.499 408.879 141.879C406.551 141.569 404.667 141.109 403.377 140.446C402.097 139.788 401.5 138.988 401.5 138L400.5 138ZM500.5 138C500.5 138.988 499.903 139.788 498.623 140.446C497.333 141.109 495.449 141.569 493.121 141.879C488.474 142.499 482.262 142.5 476 142.5C469.762 142.5 463.474 142.499 458.746 143.129C456.387 143.444 454.365 143.922 452.92 144.665C451.465 145.413 450.5 146.488 450.5 148L451.5 148C451.5 147.012 452.097 146.212 453.377 145.554C454.667 144.891 456.551 144.431 458.879 144.121C463.526 143.501 469.738 143.5 476 143.5C482.238 143.5 488.526 143.501 493.254 142.871C495.613 142.556 497.635 142.078 499.08 141.335C500.535 140.587 501.5 139.512 501.5 138L500.5 138Z" fill="black"/>
<path d="M450.027 154.449C450.027 154.996 449.873 155.443 449.564 155.791C449.26 156.139 448.826 156.371 448.264 156.488V156.535C448.951 156.621 449.461 156.84 449.793 157.191C450.125 157.543 450.291 158.004 450.291 158.574C450.291 159.391 450.008 160.02 449.441 160.461C448.875 160.898 448.07 161.117 447.027 161.117C446.574 161.117 446.158 161.082 445.779 161.012C445.404 160.945 445.039 160.826 444.684 160.654V159.729C445.055 159.912 445.449 160.053 445.867 160.15C446.289 160.244 446.688 160.291 447.062 160.291C448.543 160.291 449.283 159.711 449.283 158.551C449.283 157.512 448.467 156.992 446.834 156.992H445.99V156.154H446.846C447.514 156.154 448.043 156.008 448.434 155.715C448.824 155.418 449.02 155.008 449.02 154.484C449.02 154.066 448.875 153.738 448.586 153.5C448.301 153.262 447.912 153.143 447.42 153.143C447.045 153.143 446.691 153.193 446.359 153.295C446.027 153.396 445.648 153.584 445.223 153.857L444.73 153.201C445.082 152.924 445.486 152.707 445.943 152.551C446.404 152.391 446.889 152.311 447.396 152.311C448.229 152.311 448.875 152.502 449.336 152.885C449.797 153.264 450.027 153.785 450.027 154.449ZM457.217 161H451.586V160.162L453.842 157.895C454.529 157.199 454.982 156.703 455.201 156.406C455.42 156.109 455.584 155.82 455.693 155.539C455.803 155.258 455.857 154.955 455.857 154.631C455.857 154.174 455.719 153.812 455.441 153.547C455.164 153.277 454.779 153.143 454.287 153.143C453.932 153.143 453.594 153.201 453.273 153.318C452.957 153.436 452.604 153.648 452.213 153.957L451.697 153.295C452.486 152.639 453.346 152.311 454.275 152.311C455.08 152.311 455.711 152.518 456.168 152.932C456.625 153.342 456.854 153.895 456.854 154.59C456.854 155.133 456.701 155.67 456.396 156.201C456.092 156.732 455.521 157.404 454.686 158.217L452.811 160.051V160.098H457.217V161Z" fill="black"/>
<path d="M320 104V76H292V104H320Z" fill="#CEB7FF" stroke="#9462FF"/>
<path d="M301.416 89.0898C301.416 92.4414 300.119 94.1172 297.525 94.1172C297.072 94.1172 296.713 94.0781 296.447 94V93.1621C296.76 93.2637 297.115 93.3145 297.514 93.3145C298.451 93.3145 299.158 93.0254 299.635 92.4473C300.115 91.8652 300.377 90.9746 300.42 89.7754H300.35C300.135 90.0996 299.85 90.3477 299.494 90.5195C299.139 90.6875 298.738 90.7715 298.293 90.7715C297.535 90.7715 296.934 90.5449 296.488 90.0918C296.043 89.6387 295.82 89.0059 295.82 88.1934C295.82 87.3027 296.068 86.5996 296.564 86.084C297.064 85.5684 297.721 85.3105 298.533 85.3105C299.115 85.3105 299.623 85.4609 300.057 85.7617C300.494 86.0586 300.83 86.4941 301.064 87.0684C301.299 87.6387 301.416 88.3125 301.416 89.0898ZM298.533 86.1426C297.975 86.1426 297.543 86.3223 297.238 86.6816C296.934 87.041 296.781 87.541 296.781 88.1816C296.781 88.7441 296.922 89.1875 297.203 89.5117C297.484 89.832 297.912 89.9922 298.486 89.9922C298.842 89.9922 299.168 89.9199 299.465 89.7754C299.766 89.6309 300.002 89.4336 300.174 89.1836C300.346 88.9336 300.432 88.6719 300.432 88.3984C300.432 87.9883 300.352 87.6094 300.191 87.2617C300.031 86.9141 299.807 86.6406 299.518 86.4414C299.232 86.2422 298.904 86.1426 298.533 86.1426ZM307.574 87.1094L308.137 87.6895L306.074 89.7637L308.125 91.8262L307.562 92.4062L305.488 90.3496L303.449 92.4062L302.857 91.8262L304.908 89.7637L302.846 87.7012L303.432 87.1094L305.5 89.1895L307.574 87.1094ZM315.15 89.0898C315.15 92.4414 313.854 94.1172 311.26 94.1172C310.807 94.1172 310.447 94.0781 310.182 94V93.1621C310.494 93.2637 310.85 93.3145 311.248 93.3145C312.186 93.3145 312.893 93.0254 313.369 92.4473C313.85 91.8652 314.111 90.9746 314.154 89.7754H314.084C313.869 90.0996 313.584 90.3477 313.229 90.5195C312.873 90.6875 312.473 90.7715 312.027 90.7715C311.27 90.7715 310.668 90.5449 310.223 90.0918C309.777 89.6387 309.555 89.0059 309.555 88.1934C309.555 87.3027 309.803 86.5996 310.299 86.084C310.799 85.5684 311.455 85.3105 312.268 85.3105C312.85 85.3105 313.357 85.4609 313.791 85.7617C314.229 86.0586 314.564 86.4941 314.799 87.0684C315.033 87.6387 315.15 88.3125 315.15 89.0898ZM312.268 86.1426C311.709 86.1426 311.277 86.3223 310.973 86.6816C310.668 87.041 310.516 87.541 310.516 88.1816C310.516 88.7441 310.656 89.1875 310.938 89.5117C311.219 89.832 311.646 89.9922 312.221 89.9922C312.576 89.9922 312.902 89.9199 313.199 89.7754C313.5 89.6309 313.736 89.4336 313.908 89.1836C314.08 88.9336 314.166 88.6719 314.166 88.3984C314.166 87.9883 314.086 87.6094 313.926 87.2617C313.766 86.9141 313.541 86.6406 313.252 86.4414C312.967 86.2422 312.639 86.1426 312.268 86.1426Z" fill="black"/>
<rect x="168" y="26" width="94" height="10" transform="rotate(90 168 26)" fill="white" stroke="black" stroke-width="2"/>
<path d="M198.354 72.3536C198.549 72.1583 198.549 71.8417 198.354 71.6464L195.172 68.4645C194.976 68.2692 194.66 68.2692 194.464 68.4645C194.269 68.6597 194.269 68.9763 194.464 69.1716L197.293 72L194.464 74.8284C194.269 75.0237 194.269 75.3403 194.464 75.5355C194.66 75.7308 194.976 75.7308 195.172 75.5355L198.354 72.3536ZM178 72.5H198V71.5H178V72.5Z" fill="black"/>
<path d="M235 88H227V80L239 71H247V79L235 88Z" fill="#CEB7FF"/>
<path d="M227 80V88H235M227 80H235M227 80L239 71H247M235 80V88M235 80L247 71M235 88L247 79V71" stroke="#9462FF"/>
<path d="M208 60L220 51H253M208 60H241.056M208 60V94H241.056M253 51L241.056 60M253 51V85L241.056 94M241.056 60V94" stroke="black" stroke-width="2"/>
<line x1="306.969" y1="76.3737" x2="246.969" y2="71.3737" stroke="black" stroke-width="0.75" stroke-dasharray="2 3"/>
<line x1="235.082" y1="87.6342" x2="306.082" y2="103.634" stroke="black" stroke-width="0.75" stroke-dasharray="2 3"/>
<path d="M442 113V85H414V113H442Z" fill="#CEB7FF" stroke="#9462FF"/>
<path d="M423.416 98.0898C423.416 101.441 422.119 103.117 419.525 103.117C419.072 103.117 418.713 103.078 418.447 103V102.162C418.76 102.264 419.115 102.314 419.514 102.314C420.451 102.314 421.158 102.025 421.635 101.447C422.115 100.865 422.377 99.9746 422.42 98.7754H422.35C422.135 99.0996 421.85 99.3477 421.494 99.5195C421.139 99.6875 420.738 99.7715 420.293 99.7715C419.535 99.7715 418.934 99.5449 418.488 99.0918C418.043 98.6387 417.82 98.0059 417.82 97.1934C417.82 96.3027 418.068 95.5996 418.564 95.084C419.064 94.5684 419.721 94.3105 420.533 94.3105C421.115 94.3105 421.623 94.4609 422.057 94.7617C422.494 95.0586 422.83 95.4941 423.064 96.0684C423.299 96.6387 423.416 97.3125 423.416 98.0898ZM420.533 95.1426C419.975 95.1426 419.543 95.3223 419.238 95.6816C418.934 96.041 418.781 96.541 418.781 97.1816C418.781 97.7441 418.922 98.1875 419.203 98.5117C419.484 98.832 419.912 98.9922 420.486 98.9922C420.842 98.9922 421.168 98.9199 421.465 98.7754C421.766 98.6309 422.002 98.4336 422.174 98.1836C422.346 97.9336 422.432 97.6719 422.432 97.3984C422.432 96.9883 422.352 96.6094 422.191 96.2617C422.031 95.9141 421.807 95.6406 421.518 95.4414C421.232 95.2422 420.904 95.1426 420.533 95.1426ZM429.574 96.1094L430.137 96.6895L428.074 98.7637L430.125 100.826L429.562 101.406L427.488 99.3496L425.449 101.406L424.857 100.826L426.908 98.7637L424.846 96.7012L425.432 96.1094L427.5 98.1895L429.574 96.1094ZM437.15 98.0898C437.15 101.441 435.854 103.117 433.26 103.117C432.807 103.117 432.447 103.078 432.182 103V102.162C432.494 102.264 432.85 102.314 433.248 102.314C434.186 102.314 434.893 102.025 435.369 101.447C435.85 100.865 436.111 99.9746 436.154 98.7754H436.084C435.869 99.0996 435.584 99.3477 435.229 99.5195C434.873 99.6875 434.473 99.7715 434.027 99.7715C433.27 99.7715 432.668 99.5449 432.223 99.0918C431.777 98.6387 431.555 98.0059 431.555 97.1934C431.555 96.3027 431.803 95.5996 432.299 95.084C432.799 94.5684 433.455 94.3105 434.268 94.3105C434.85 94.3105 435.357 94.4609 435.791 94.7617C436.229 95.0586 436.564 95.4941 436.799 96.0684C437.033 96.6387 437.15 97.3125 437.15 98.0898ZM434.268 95.1426C433.709 95.1426 433.277 95.3223 432.973 95.6816C432.668 96.041 432.516 96.541 432.516 97.1816C432.516 97.7441 432.656 98.1875 432.938 98.5117C433.219 98.832 433.646 98.9922 434.221 98.9922C434.576 98.9922 434.902 98.9199 435.199 98.7754C435.5 98.6309 435.736 98.4336 435.908 98.1836C436.08 97.9336 436.166 97.6719 436.166 97.3984C436.166 96.9883 436.086 96.6094 435.926 96.2617C435.766 95.9141 435.541 95.6406 435.252 95.4414C434.967 95.2422 434.639 95.1426 434.268 95.1426Z" fill="black"/>
<path d="M339 77H331V69L357 50H365V57L339 77Z" fill="#CEB7FF"/>
<path d="M331 69V77H339M331 69H339M331 69L357 50H365M339 69V77M339 69L365 50M339 77L365 57V50" stroke="#9462FF"/>
<line x1="427.818" y1="85.3278" x2="364.818" y2="50.3278" stroke="black" stroke-width="0.75" stroke-dasharray="2 3"/>
<line x1="339.141" y1="76.6524" x2="428.141" y2="112.652" stroke="black" stroke-width="0.75" stroke-dasharray="2 3"/>
<path d="M486 63H478V55L504 36H512V43L486 63Z" fill="#CEB7FF"/>
<path d="M478 55V63H486M478 55H486M478 55L504 36H512M486 55V63M486 55L512 36M486 63L512 43V36" stroke="#9462FF"/>
<path d="M401 32.4364L426.889 13L527 13M401 32.4364H501.111M401 32.4364V133H501.111M527 13L501.111 32.4364M527 13V114L501.111 133M501.111 32.4364V133" stroke="black" stroke-width="2"/>
<line x1="575.784" y1="81.3068" x2="511.784" y2="36.3068" stroke="black" stroke-width="0.75" stroke-dasharray="2 3"/>
<line x1="486.104" y1="62.6397" x2="576.104" y2="88.6397" stroke="black" stroke-width="0.75" stroke-dasharray="2 3"/>
<path d="M283 51.5238L308.882 32H371M283 51.5238H345.118M283 51.5238V114H345.118M371 32L345.118 51.5238M371 32V94L345.118 114M345.118 51.5238V114" stroke="black" stroke-width="2"/>
<path d="M580 89V81H572V89H580Z" fill="#CEB7FF" stroke="#9462FF"/>
<path d="M27.5 118C27.5 119.161 27.9825 120.052 28.8069 120.705C29.6074 121.338 30.7121 121.733 31.962 121.99C34.4604 122.502 37.7685 122.5 41 122.5C44.2685 122.5 47.4604 122.502 49.837 122.99C51.0246 123.233 51.9512 123.588 52.5726 124.08C53.17 124.552 53.5 125.161 53.5 126L54.5 126C54.5 124.839 54.0175 123.948 53.1931 123.295C52.3926 122.662 51.2879 122.267 50.038 122.01C47.5396 121.498 44.2315 121.5 41 121.5C37.7315 121.5 34.5396 121.498 32.163 121.01C30.9754 120.767 30.0488 120.412 29.4274 119.92C28.83 119.448 28.5 118.839 28.5 118L27.5 118ZM79.5 118C79.5 118.839 79.17 119.448 78.5726 119.92C77.9512 120.412 77.0246 120.767 75.837 121.01C73.4604 121.498 70.2685 121.5 67 121.5C63.7685 121.5 60.4604 121.498 57.962 122.01C56.7121 122.267 55.6074 122.662 54.8069 123.295C53.9825 123.948 53.5 124.839 53.5 126L54.5 126C54.5 125.161 54.83 124.552 55.4274 124.08C56.0488 123.588 56.9754 123.233 58.163 122.99C60.5396 122.502 63.7315 122.5 67 122.5C70.2315 122.5 73.5396 122.502 76.038 121.99C77.2879 121.733 78.3926 121.338 79.1931 120.705C80.0175 120.052 80.5 119.161 80.5 118L79.5 118Z" fill="black"/>
<path d="M23 32.5C21.7377 32.5 20.8503 33.3091 20.2429 34.4901C19.6404 35.6616 19.2565 37.293 19.0044 39.1839C18.499 42.9742 18.5 48.0123 18.5 53C18.5 58.0123 18.499 62.9742 18.0044 66.6839C17.7565 68.543 17.3904 70.0366 16.8679 71.0526C16.3502 72.0591 15.7376 72.5 15 72.5L15 73.5C16.2624 73.5 17.1498 72.6909 17.7571 71.5099C18.3596 70.3384 18.7435 68.707 18.9956 66.8161C19.501 63.0258 19.5 57.9877 19.5 53C19.5 47.9877 19.501 43.0258 19.9956 39.3161C20.2435 37.457 20.6097 35.9634 21.1322 34.9474C21.6498 33.9409 22.2624 33.5 23 33.5L23 32.5ZM23 112.5C22.2624 112.5 21.6498 112.059 21.1321 111.053C20.6096 110.037 20.2435 108.543 19.9956 106.684C19.501 102.974 19.5 98.0123 19.5 93C19.5 88.0123 19.501 82.9742 18.9956 79.1839C18.7435 77.293 18.3596 75.6616 17.7571 74.4901C17.1498 73.3091 16.2624 72.5 15 72.5L15 73.5C15.7376 73.5 16.3502 73.9409 16.8679 74.9474C17.3904 75.9634 17.7565 77.457 18.0044 79.3161C18.499 83.0258 18.5 87.9877 18.5 93C18.5 97.9877 18.499 103.026 19.0044 106.816C19.2565 108.707 19.6404 110.338 20.2429 111.51C20.8502 112.691 21.7376 113.5 23 113.5L23 112.5Z" fill="black"/>
<path d="M51.3223 139H50.373V132.895C50.373 132.387 50.3887 131.906 50.4199 131.453C50.3379 131.535 50.2461 131.621 50.1445 131.711C50.043 131.801 49.5781 132.182 48.75 132.854L48.2344 132.186L50.502 130.434H51.3223V139ZM54.6855 135.338C54.6855 133.654 55.0117 132.396 55.6641 131.564C56.3203 130.729 57.2891 130.311 58.5703 130.311C59.0117 130.311 59.3594 130.348 59.6133 130.422V131.26C59.3125 131.162 58.9688 131.113 58.582 131.113C57.6641 131.113 56.9629 131.4 56.4785 131.975C55.9941 132.545 55.7285 133.443 55.6816 134.67H55.752C56.1816 133.998 56.8613 133.662 57.791 133.662C58.5605 133.662 59.166 133.895 59.6074 134.359C60.0527 134.824 60.2754 135.455 60.2754 136.252C60.2754 137.143 60.0312 137.844 59.543 138.355C59.0586 138.863 58.4023 139.117 57.5742 139.117C56.6875 139.117 55.9844 138.785 55.4648 138.121C54.9453 137.453 54.6855 136.525 54.6855 135.338ZM57.5625 138.291C58.1172 138.291 58.5469 138.117 58.8516 137.77C59.1602 137.418 59.3145 136.912 59.3145 136.252C59.3145 135.686 59.1719 135.24 58.8867 134.916C58.6016 134.592 58.1758 134.43 57.6094 134.43C57.2578 134.43 56.9355 134.502 56.6426 134.646C56.3496 134.791 56.1152 134.99 55.9395 135.244C55.7676 135.498 55.6816 135.762 55.6816 136.035C55.6816 136.438 55.7598 136.812 55.916 137.16C56.0723 137.508 56.293 137.783 56.5781 137.986C56.8672 138.189 57.1953 138.291 57.5625 138.291Z" fill="black"/>
<path d="M3.32227 77H2.37305V70.8945C2.37305 70.3867 2.38867 69.9062 2.41992 69.4531C2.33789 69.5352 2.24609 69.6211 2.14453 69.7109C2.04297 69.8008 1.57812 70.1816 0.75 70.8535L0.234375 70.1855L2.50195 68.4336H3.32227V77ZM12.2637 72.7051C12.2637 74.1855 12.0293 75.291 11.5605 76.0215C11.0957 76.752 10.3828 77.1172 9.42188 77.1172C8.5 77.1172 7.79883 76.7441 7.31836 75.998C6.83789 75.248 6.59766 74.1504 6.59766 72.7051C6.59766 71.2129 6.83008 70.1055 7.29492 69.3828C7.75977 68.6602 8.46875 68.2988 9.42188 68.2988C10.3516 68.2988 11.0566 68.6758 11.5371 69.4297C12.0215 70.1836 12.2637 71.2754 12.2637 72.7051ZM7.58203 72.7051C7.58203 73.9512 7.72852 74.8594 8.02148 75.4297C8.31445 75.9961 8.78125 76.2793 9.42188 76.2793C10.0703 76.2793 10.5391 75.9922 10.8281 75.418C11.1211 74.8398 11.2676 73.9355 11.2676 72.7051C11.2676 71.4746 11.1211 70.5742 10.8281 70.0039C10.5391 69.4297 10.0703 69.1426 9.42188 69.1426C8.78125 69.1426 8.31445 69.4258 8.02148 69.9922C7.72852 70.5547 7.58203 71.459 7.58203 72.7051Z" fill="black"/>
<rect x="28" y="33" width="52" height="80" fill="white" stroke="#32ACF1" stroke-width="2"/>
<line y1="-0.375" x2="116.103" y2="-0.375" transform="matrix(-0.671815 -0.740719 0.799428 -0.600762 158 120)" stroke="black" stroke-width="0.75" stroke-dasharray="2 3"/>
<line y1="-0.375" x2="115.365" y2="-0.375" transform="matrix(0.676117 -0.736794 0.796035 0.605251 80 113)" stroke="black" stroke-width="0.75" stroke-dasharray="2 3"/>
</svg>
