<svg width="700" height="200" viewBox="0 0 700 200" fill="none" xmlns="http://www.w3.org/2000/svg">
<path d="M585.5 136C585.5 137.512 586.465 138.587 587.92 139.335C589.365 140.078 591.387 140.556 593.746 140.871C598.474 141.501 604.762 141.5 611 141.5C617.262 141.5 623.474 141.501 628.121 142.121C630.449 142.431 632.333 142.891 633.623 143.554C634.903 144.212 635.5 145.012 635.5 146L636.5 146C636.5 144.488 635.535 143.413 634.08 142.665C632.635 141.922 630.613 141.444 628.254 141.129C623.526 140.499 617.238 140.5 611 140.5C604.738 140.5 598.526 140.499 593.879 139.879C591.551 139.569 589.667 139.109 588.377 138.446C587.097 137.788 586.5 136.988 586.5 136L585.5 136ZM685.5 136C685.5 136.988 684.903 137.788 683.623 138.446C682.333 139.109 680.449 139.569 678.121 139.879C673.474 140.499 667.262 140.5 661 140.5C654.762 140.5 648.474 140.499 643.746 141.129C641.387 141.444 639.365 141.922 637.92 142.665C636.465 143.413 635.5 144.488 635.5 146L636.5 146C636.5 145.012 637.097 144.212 638.377 143.554C639.667 142.891 641.551 142.431 643.879 142.121C648.526 141.501 654.738 141.5 661 141.5C667.238 141.5 673.526 141.501 678.254 140.871C680.613 140.556 682.635 140.078 684.08 139.335C685.535 138.587 686.5 137.512 686.5 136L685.5 136Z" fill="black"/>
<path d="M585.5 136C585.5 137.512 586.465 138.587 587.92 139.335C589.365 140.078 591.387 140.556 593.746 140.871C598.474 141.501 604.762 141.5 611 141.5C617.262 141.5 623.474 141.501 628.121 142.121C630.449 142.431 632.333 142.891 633.623 143.554C634.903 144.212 635.5 145.012 635.5 146L636.5 146C636.5 144.488 635.535 143.413 634.08 142.665C632.635 141.922 630.613 141.444 628.254 141.129C623.526 140.499 617.238 140.5 611 140.5C604.738 140.5 598.526 140.499 593.879 139.879C591.551 139.569 589.667 139.109 588.377 138.446C587.097 137.788 586.5 136.988 586.5 136L585.5 136ZM685.5 136C685.5 136.988 684.903 137.788 683.623 138.446C682.333 139.109 680.449 139.569 678.121 139.879C673.474 140.499 667.262 140.5 661 140.5C654.762 140.5 648.474 140.499 643.746 141.129C641.387 141.444 639.365 141.922 637.92 142.665C636.465 143.413 635.5 144.488 635.5 146L636.5 146C636.5 145.012 637.097 144.212 638.377 143.554C639.667 142.891 641.551 142.431 643.879 142.121C648.526 141.501 654.738 141.5 661 141.5C667.238 141.5 673.526 141.501 678.254 140.871C680.613 140.556 682.635 140.078 684.08 139.335C685.535 138.587 686.5 137.512 686.5 136L685.5 136Z" fill="black"/>
<path d="M635.027 152.449C635.027 152.996 634.873 153.443 634.564 153.791C634.26 154.139 633.826 154.371 633.264 154.488V154.535C633.951 154.621 634.461 154.84 634.793 155.191C635.125 155.543 635.291 156.004 635.291 156.574C635.291 157.391 635.008 158.02 634.441 158.461C633.875 158.898 633.07 159.117 632.027 159.117C631.574 159.117 631.158 159.082 630.779 159.012C630.404 158.945 630.039 158.826 629.684 158.654V157.729C630.055 157.912 630.449 158.053 630.867 158.15C631.289 158.244 631.688 158.291 632.062 158.291C633.543 158.291 634.283 157.711 634.283 156.551C634.283 155.512 633.467 154.992 631.834 154.992H630.99V154.154H631.846C632.514 154.154 633.043 154.008 633.434 153.715C633.824 153.418 634.02 153.008 634.02 152.484C634.02 152.066 633.875 151.738 633.586 151.5C633.301 151.262 632.912 151.143 632.42 151.143C632.045 151.143 631.691 151.193 631.359 151.295C631.027 151.396 630.648 151.584 630.223 151.857L629.73 151.201C630.082 150.924 630.486 150.707 630.943 150.551C631.404 150.391 631.889 150.311 632.396 150.311C633.229 150.311 633.875 150.502 634.336 150.885C634.797 151.264 635.027 151.785 635.027 152.449ZM642.217 159H636.586V158.162L638.842 155.895C639.529 155.199 639.982 154.703 640.201 154.406C640.42 154.109 640.584 153.82 640.693 153.539C640.803 153.258 640.857 152.955 640.857 152.631C640.857 152.174 640.719 151.812 640.441 151.547C640.164 151.277 639.779 151.143 639.287 151.143C638.932 151.143 638.594 151.201 638.273 151.318C637.957 151.436 637.604 151.648 637.213 151.957L636.697 151.295C637.486 150.639 638.346 150.311 639.275 150.311C640.08 150.311 640.711 150.518 641.168 150.932C641.625 151.342 641.854 151.895 641.854 152.59C641.854 153.133 641.701 153.67 641.396 154.201C641.092 154.732 640.521 155.404 639.686 156.217L637.811 158.051V158.098H642.217V159Z" fill="black"/>
<path d="M58.0254 189.635C58.0254 191.049 57.6406 192.131 56.8711 192.881C56.1055 193.627 55.002 194 53.5605 194H51.1875V185.434H53.8125C55.1445 185.434 56.1797 185.803 56.918 186.541C57.6562 187.279 58.0254 188.311 58.0254 189.635ZM56.9707 189.67C56.9707 188.553 56.6895 187.711 56.127 187.145C55.5684 186.578 54.7363 186.295 53.6309 186.295H52.1836V193.139H53.3965C54.584 193.139 55.4766 192.848 56.0742 192.266C56.6719 191.68 56.9707 190.814 56.9707 189.67ZM60.7676 194H59.7949V187.578H60.7676V194ZM59.7129 185.838C59.7129 185.615 59.7676 185.453 59.877 185.352C59.9863 185.246 60.123 185.193 60.2871 185.193C60.4434 185.193 60.5781 185.246 60.6914 185.352C60.8047 185.457 60.8613 185.619 60.8613 185.838C60.8613 186.057 60.8047 186.221 60.6914 186.33C60.5781 186.436 60.4434 186.488 60.2871 186.488C60.123 186.488 59.9863 186.436 59.877 186.33C59.7676 186.221 59.7129 186.057 59.7129 185.838ZM68.0859 187.578V188.193L66.8965 188.334C67.0059 188.471 67.1035 188.65 67.1895 188.873C67.2754 189.092 67.3184 189.34 67.3184 189.617C67.3184 190.246 67.1035 190.748 66.6738 191.123C66.2441 191.498 65.6543 191.686 64.9043 191.686C64.7129 191.686 64.5332 191.67 64.3652 191.639C63.9512 191.857 63.7441 192.133 63.7441 192.465C63.7441 192.641 63.8164 192.771 63.9609 192.857C64.1055 192.939 64.3535 192.98 64.7051 192.98H65.8418C66.5371 192.98 67.0703 193.127 67.4414 193.42C67.8164 193.713 68.0039 194.139 68.0039 194.697C68.0039 195.408 67.7188 195.949 67.1484 196.32C66.5781 196.695 65.7461 196.883 64.6523 196.883C63.8125 196.883 63.1641 196.727 62.707 196.414C62.2539 196.102 62.0273 195.66 62.0273 195.09C62.0273 194.699 62.1523 194.361 62.4023 194.076C62.6523 193.791 63.0039 193.598 63.457 193.496C63.293 193.422 63.1543 193.307 63.041 193.15C62.9316 192.994 62.877 192.812 62.877 192.605C62.877 192.371 62.9395 192.166 63.0645 191.99C63.1895 191.814 63.3867 191.645 63.6562 191.48C63.3242 191.344 63.0527 191.111 62.8418 190.783C62.6348 190.455 62.5312 190.08 62.5312 189.658C62.5312 188.955 62.7422 188.414 63.1641 188.035C63.5859 187.652 64.1836 187.461 64.957 187.461C65.293 187.461 65.5957 187.5 65.8652 187.578H68.0859ZM62.9648 195.078C62.9648 195.426 63.1113 195.689 63.4043 195.869C63.6973 196.049 64.1172 196.139 64.6641 196.139C65.4805 196.139 66.084 196.016 66.4746 195.77C66.8691 195.527 67.0664 195.197 67.0664 194.779C67.0664 194.432 66.959 194.189 66.7441 194.053C66.5293 193.92 66.125 193.854 65.5312 193.854H64.3652C63.9238 193.854 63.5801 193.959 63.334 194.17C63.0879 194.381 62.9648 194.684 62.9648 195.078ZM63.4922 189.635C63.4922 190.084 63.6191 190.424 63.873 190.654C64.127 190.885 64.4805 191 64.9336 191C65.8828 191 66.3574 190.539 66.3574 189.617C66.3574 188.652 65.877 188.17 64.916 188.17C64.459 188.17 64.1074 188.293 63.8613 188.539C63.6152 188.785 63.4922 189.15 63.4922 189.635ZM70.377 194H69.4043V187.578H70.377V194ZM69.3223 185.838C69.3223 185.615 69.377 185.453 69.4863 185.352C69.5957 185.246 69.7324 185.193 69.8965 185.193C70.0527 185.193 70.1875 185.246 70.3008 185.352C70.4141 185.457 70.4707 185.619 70.4707 185.838C70.4707 186.057 70.4141 186.221 70.3008 186.33C70.1875 186.436 70.0527 186.488 69.8965 186.488C69.7324 186.488 69.5957 186.436 69.4863 186.33C69.377 186.221 69.3223 186.057 69.3223 185.838ZM74.5137 193.314C74.6855 193.314 74.8516 193.303 75.0117 193.279C75.1719 193.252 75.2988 193.225 75.3926 193.197V193.941C75.2871 193.992 75.1309 194.033 74.9238 194.064C74.7207 194.1 74.5371 194.117 74.373 194.117C73.1309 194.117 72.5098 193.463 72.5098 192.154V188.334H71.5898V187.865L72.5098 187.461L72.9199 186.09H73.4824V187.578H75.3457V188.334H73.4824V192.113C73.4824 192.5 73.5742 192.797 73.7578 193.004C73.9414 193.211 74.1934 193.314 74.5137 193.314ZM80.4961 186.201C79.5547 186.201 78.8105 186.516 78.2637 187.145C77.7207 187.77 77.4492 188.627 77.4492 189.717C77.4492 190.838 77.7109 191.705 78.2344 192.318C78.7617 192.928 79.5117 193.232 80.4844 193.232C81.082 193.232 81.7637 193.125 82.5293 192.91V193.783C81.9355 194.006 81.2031 194.117 80.332 194.117C79.0703 194.117 78.0957 193.734 77.4082 192.969C76.7246 192.203 76.3828 191.115 76.3828 189.705C76.3828 188.822 76.5469 188.049 76.875 187.385C77.207 186.721 77.6836 186.209 78.3047 185.85C78.9297 185.49 79.6641 185.311 80.5078 185.311C81.4062 185.311 82.1914 185.475 82.8633 185.803L82.4414 186.658C81.793 186.354 81.1445 186.201 80.4961 186.201ZM88.2012 194L88.0078 193.086H87.9609C87.6406 193.488 87.3203 193.762 87 193.906C86.6836 194.047 86.2871 194.117 85.8105 194.117C85.1738 194.117 84.6738 193.953 84.3105 193.625C83.9512 193.297 83.7715 192.83 83.7715 192.225C83.7715 190.928 84.8086 190.248 86.8828 190.186L87.9727 190.15V189.752C87.9727 189.248 87.8633 188.877 87.6445 188.639C87.4297 188.396 87.084 188.275 86.6074 188.275C86.0723 188.275 85.4668 188.439 84.791 188.768L84.4922 188.023C84.8086 187.852 85.1543 187.717 85.5293 187.619C85.9082 187.521 86.2871 187.473 86.666 187.473C87.4316 187.473 87.998 187.643 88.3652 187.982C88.7363 188.322 88.9219 188.867 88.9219 189.617V194H88.2012ZM86.0039 193.314C86.6094 193.314 87.084 193.148 87.4277 192.816C87.7754 192.484 87.9492 192.02 87.9492 191.422V190.842L86.9766 190.883C86.2031 190.91 85.6445 191.031 85.3008 191.246C84.9609 191.457 84.791 191.787 84.791 192.236C84.791 192.588 84.8965 192.855 85.1074 193.039C85.3223 193.223 85.6211 193.314 86.0039 193.314ZM93.9199 194.117C93.502 194.117 93.1191 194.041 92.7715 193.889C92.4277 193.732 92.1387 193.494 91.9043 193.174H91.834C91.8809 193.549 91.9043 193.904 91.9043 194.24V196.883H90.9316V187.578H91.7227L91.8574 188.457H91.9043C92.1543 188.105 92.4453 187.852 92.7773 187.695C93.1094 187.539 93.4902 187.461 93.9199 187.461C94.7715 187.461 95.4277 187.752 95.8887 188.334C96.3535 188.916 96.5859 189.732 96.5859 190.783C96.5859 191.838 96.3496 192.658 95.877 193.244C95.4082 193.826 94.7559 194.117 93.9199 194.117ZM93.7793 188.287C93.123 188.287 92.6484 188.469 92.3555 188.832C92.0625 189.195 91.9121 189.773 91.9043 190.566V190.783C91.9043 191.686 92.0547 192.332 92.3555 192.723C92.6562 193.109 93.1387 193.303 93.8027 193.303C94.3574 193.303 94.791 193.078 95.1035 192.629C95.4199 192.18 95.5781 191.561 95.5781 190.771C95.5781 189.971 95.4199 189.357 95.1035 188.932C94.791 188.502 94.3496 188.287 93.7793 188.287ZM102.434 192.248C102.434 192.846 102.211 193.307 101.766 193.631C101.32 193.955 100.695 194.117 99.8906 194.117C99.0391 194.117 98.375 193.982 97.8984 193.713V192.811C98.207 192.967 98.5371 193.09 98.8887 193.18C99.2441 193.27 99.5859 193.314 99.9141 193.314C100.422 193.314 100.812 193.234 101.086 193.074C101.359 192.91 101.496 192.662 101.496 192.33C101.496 192.08 101.387 191.867 101.168 191.691C100.953 191.512 100.531 191.301 99.9023 191.059C99.3047 190.836 98.8789 190.643 98.625 190.479C98.375 190.311 98.1875 190.121 98.0625 189.91C97.9414 189.699 97.8809 189.447 97.8809 189.154C97.8809 188.631 98.0938 188.219 98.5195 187.918C98.9453 187.613 99.5293 187.461 100.271 187.461C100.963 187.461 101.639 187.602 102.299 187.883L101.953 188.674C101.309 188.408 100.725 188.275 100.201 188.275C99.7402 188.275 99.3926 188.348 99.1582 188.492C98.9238 188.637 98.8066 188.836 98.8066 189.09C98.8066 189.262 98.8496 189.408 98.9355 189.529C99.0254 189.65 99.168 189.766 99.3633 189.875C99.5586 189.984 99.9336 190.143 100.488 190.35C101.25 190.627 101.764 190.906 102.029 191.188C102.299 191.469 102.434 191.822 102.434 192.248Z" fill="black"/>
<path d="M165.672 194H164.676V185.434H169.451V186.318H165.672V189.453H169.223V190.338H165.672V194ZM174.543 186.201C173.602 186.201 172.857 186.516 172.311 187.145C171.768 187.77 171.496 188.627 171.496 189.717C171.496 190.838 171.758 191.705 172.281 192.318C172.809 192.928 173.559 193.232 174.531 193.232C175.129 193.232 175.811 193.125 176.576 192.91V193.783C175.982 194.006 175.25 194.117 174.379 194.117C173.117 194.117 172.143 193.734 171.455 192.969C170.771 192.203 170.43 191.115 170.43 189.705C170.43 188.822 170.594 188.049 170.922 187.385C171.254 186.721 171.73 186.209 172.352 185.85C172.977 185.49 173.711 185.311 174.555 185.311C175.453 185.311 176.238 185.475 176.91 185.803L176.488 186.658C175.84 186.354 175.191 186.201 174.543 186.201ZM184.211 189.365H186.625V190.174H184.211V192.67H183.396V190.174H180.994V189.365H183.396V186.857H184.211V189.365ZM192.543 190.438V194H191.547V185.434H193.896C194.947 185.434 195.723 185.635 196.223 186.037C196.727 186.439 196.979 187.045 196.979 187.854C196.979 188.986 196.404 189.752 195.256 190.15L197.582 194H196.404L194.33 190.438H192.543ZM192.543 189.582H193.908C194.611 189.582 195.127 189.443 195.455 189.166C195.783 188.885 195.947 188.465 195.947 187.906C195.947 187.34 195.779 186.932 195.443 186.682C195.111 186.432 194.576 186.307 193.838 186.307H192.543V189.582ZM201.531 194.117C200.582 194.117 199.832 193.828 199.281 193.25C198.734 192.672 198.461 191.869 198.461 190.842C198.461 189.807 198.715 188.984 199.223 188.375C199.734 187.766 200.42 187.461 201.279 187.461C202.084 187.461 202.721 187.727 203.189 188.258C203.658 188.785 203.893 189.482 203.893 190.35V190.965H199.469C199.488 191.719 199.678 192.291 200.037 192.682C200.4 193.072 200.91 193.268 201.566 193.268C202.258 193.268 202.941 193.123 203.617 192.834V193.701C203.273 193.85 202.947 193.955 202.639 194.018C202.334 194.084 201.965 194.117 201.531 194.117ZM201.268 188.275C200.752 188.275 200.34 188.443 200.031 188.779C199.727 189.115 199.547 189.58 199.492 190.174H202.85C202.85 189.561 202.713 189.092 202.439 188.768C202.166 188.439 201.775 188.275 201.268 188.275ZM205.703 194V185.434H206.699V193.098H210.479V194H205.703ZM218.406 185.434V190.977C218.406 191.953 218.111 192.721 217.521 193.279C216.932 193.838 216.121 194.117 215.09 194.117C214.059 194.117 213.26 193.836 212.693 193.273C212.131 192.711 211.85 191.938 211.85 190.953V185.434H212.846V191.023C212.846 191.738 213.041 192.287 213.432 192.67C213.822 193.053 214.396 193.244 215.154 193.244C215.877 193.244 216.434 193.053 216.824 192.67C217.215 192.283 217.41 191.73 217.41 191.012V185.434H218.406Z" fill="black"/>
<path d="M237.656 190.438V194H236.66V185.434H239.01C240.061 185.434 240.836 185.635 241.336 186.037C241.84 186.439 242.092 187.045 242.092 187.854C242.092 188.986 241.518 189.752 240.369 190.15L242.695 194H241.518L239.443 190.438H237.656ZM237.656 189.582H239.021C239.725 189.582 240.24 189.443 240.568 189.166C240.896 188.885 241.061 188.465 241.061 187.906C241.061 187.34 240.893 186.932 240.557 186.682C240.225 186.432 239.689 186.307 238.951 186.307H237.656V189.582ZM246.645 194.117C245.695 194.117 244.945 193.828 244.395 193.25C243.848 192.672 243.574 191.869 243.574 190.842C243.574 189.807 243.828 188.984 244.336 188.375C244.848 187.766 245.533 187.461 246.393 187.461C247.197 187.461 247.834 187.727 248.303 188.258C248.771 188.785 249.006 189.482 249.006 190.35V190.965H244.582C244.602 191.719 244.791 192.291 245.15 192.682C245.514 193.072 246.023 193.268 246.68 193.268C247.371 193.268 248.055 193.123 248.73 192.834V193.701C248.387 193.85 248.061 193.955 247.752 194.018C247.447 194.084 247.078 194.117 246.645 194.117ZM246.381 188.275C245.865 188.275 245.453 188.443 245.145 188.779C244.84 189.115 244.66 189.58 244.605 190.174H247.963C247.963 189.561 247.826 189.092 247.553 188.768C247.279 188.439 246.889 188.275 246.381 188.275ZM254.812 192.248C254.812 192.846 254.59 193.307 254.145 193.631C253.699 193.955 253.074 194.117 252.27 194.117C251.418 194.117 250.754 193.982 250.277 193.713V192.811C250.586 192.967 250.916 193.09 251.268 193.18C251.623 193.27 251.965 193.314 252.293 193.314C252.801 193.314 253.191 193.234 253.465 193.074C253.738 192.91 253.875 192.662 253.875 192.33C253.875 192.08 253.766 191.867 253.547 191.691C253.332 191.512 252.91 191.301 252.281 191.059C251.684 190.836 251.258 190.643 251.004 190.479C250.754 190.311 250.566 190.121 250.441 189.91C250.32 189.699 250.26 189.447 250.26 189.154C250.26 188.631 250.473 188.219 250.898 187.918C251.324 187.613 251.908 187.461 252.65 187.461C253.342 187.461 254.018 187.602 254.678 187.883L254.332 188.674C253.688 188.408 253.104 188.275 252.58 188.275C252.119 188.275 251.771 188.348 251.537 188.492C251.303 188.637 251.186 188.836 251.186 189.09C251.186 189.262 251.229 189.408 251.314 189.529C251.404 189.65 251.547 189.766 251.742 189.875C251.938 189.984 252.312 190.143 252.867 190.35C253.629 190.627 254.143 190.906 254.408 191.188C254.678 191.469 254.812 191.822 254.812 192.248ZM260.795 194V189.846C260.795 189.322 260.676 188.932 260.438 188.674C260.199 188.416 259.826 188.287 259.318 188.287C258.643 188.287 258.148 188.471 257.836 188.838C257.527 189.205 257.373 189.807 257.373 190.643V194H256.4V184.883H257.373V187.643C257.373 187.975 257.357 188.25 257.326 188.469H257.385C257.576 188.16 257.848 187.918 258.199 187.742C258.555 187.562 258.959 187.473 259.412 187.473C260.197 187.473 260.785 187.66 261.176 188.035C261.57 188.406 261.768 188.998 261.768 189.811V194H260.795ZM267.721 194L267.527 193.086H267.48C267.16 193.488 266.84 193.762 266.52 193.906C266.203 194.047 265.807 194.117 265.33 194.117C264.693 194.117 264.193 193.953 263.83 193.625C263.471 193.297 263.291 192.83 263.291 192.225C263.291 190.928 264.328 190.248 266.402 190.186L267.492 190.15V189.752C267.492 189.248 267.383 188.877 267.164 188.639C266.949 188.396 266.604 188.275 266.127 188.275C265.592 188.275 264.986 188.439 264.311 188.768L264.012 188.023C264.328 187.852 264.674 187.717 265.049 187.619C265.428 187.521 265.807 187.473 266.186 187.473C266.951 187.473 267.518 187.643 267.885 187.982C268.256 188.322 268.441 188.867 268.441 189.617V194H267.721ZM265.523 193.314C266.129 193.314 266.604 193.148 266.947 192.816C267.295 192.484 267.469 192.02 267.469 191.422V190.842L266.496 190.883C265.723 190.91 265.164 191.031 264.82 191.246C264.48 191.457 264.311 191.787 264.311 192.236C264.311 192.588 264.416 192.855 264.627 193.039C264.842 193.223 265.141 193.314 265.523 193.314ZM273.439 194.117C273.021 194.117 272.639 194.041 272.291 193.889C271.947 193.732 271.658 193.494 271.424 193.174H271.354C271.4 193.549 271.424 193.904 271.424 194.24V196.883H270.451V187.578H271.242L271.377 188.457H271.424C271.674 188.105 271.965 187.852 272.297 187.695C272.629 187.539 273.01 187.461 273.439 187.461C274.291 187.461 274.947 187.752 275.408 188.334C275.873 188.916 276.105 189.732 276.105 190.783C276.105 191.838 275.869 192.658 275.396 193.244C274.928 193.826 274.275 194.117 273.439 194.117ZM273.299 188.287C272.643 188.287 272.168 188.469 271.875 188.832C271.582 189.195 271.432 189.773 271.424 190.566V190.783C271.424 191.686 271.574 192.332 271.875 192.723C272.176 193.109 272.658 193.303 273.322 193.303C273.877 193.303 274.311 193.078 274.623 192.629C274.939 192.18 275.098 191.561 275.098 190.771C275.098 189.971 274.939 189.357 274.623 188.932C274.311 188.502 273.869 188.287 273.299 188.287ZM280.523 194.117C279.574 194.117 278.824 193.828 278.273 193.25C277.727 192.672 277.453 191.869 277.453 190.842C277.453 189.807 277.707 188.984 278.215 188.375C278.727 187.766 279.412 187.461 280.271 187.461C281.076 187.461 281.713 187.727 282.182 188.258C282.65 188.785 282.885 189.482 282.885 190.35V190.965H278.461C278.48 191.719 278.67 192.291 279.029 192.682C279.393 193.072 279.902 193.268 280.559 193.268C281.25 193.268 281.934 193.123 282.609 192.834V193.701C282.266 193.85 281.939 193.955 281.631 194.018C281.326 194.084 280.957 194.117 280.523 194.117ZM280.26 188.275C279.744 188.275 279.332 188.443 279.023 188.779C278.719 189.115 278.539 189.58 278.484 190.174H281.842C281.842 189.561 281.705 189.092 281.432 188.768C281.158 188.439 280.768 188.275 280.26 188.275Z" fill="black"/>
<path d="M322.303 186.201C321.361 186.201 320.617 186.516 320.07 187.145C319.527 187.77 319.256 188.627 319.256 189.717C319.256 190.838 319.518 191.705 320.041 192.318C320.568 192.928 321.318 193.232 322.291 193.232C322.889 193.232 323.57 193.125 324.336 192.91V193.783C323.742 194.006 323.01 194.117 322.139 194.117C320.877 194.117 319.902 193.734 319.215 192.969C318.531 192.203 318.189 191.115 318.189 189.705C318.189 188.822 318.354 188.049 318.682 187.385C319.014 186.721 319.49 186.209 320.111 185.85C320.736 185.49 321.471 185.311 322.314 185.311C323.213 185.311 323.998 185.475 324.67 185.803L324.248 186.658C323.6 186.354 322.951 186.201 322.303 186.201ZM331.602 190.783C331.602 191.83 331.338 192.648 330.811 193.238C330.283 193.824 329.555 194.117 328.625 194.117C328.051 194.117 327.541 193.982 327.096 193.713C326.65 193.443 326.307 193.057 326.064 192.553C325.822 192.049 325.701 191.459 325.701 190.783C325.701 189.736 325.963 188.922 326.486 188.34C327.01 187.754 327.736 187.461 328.666 187.461C329.564 187.461 330.277 187.76 330.805 188.357C331.336 188.955 331.602 189.764 331.602 190.783ZM326.709 190.783C326.709 191.604 326.873 192.229 327.201 192.658C327.529 193.088 328.012 193.303 328.648 193.303C329.285 193.303 329.768 193.09 330.096 192.664C330.428 192.234 330.594 191.607 330.594 190.783C330.594 189.967 330.428 189.348 330.096 188.926C329.768 188.5 329.281 188.287 328.637 188.287C328 188.287 327.52 188.496 327.195 188.914C326.871 189.332 326.709 189.955 326.709 190.783ZM337.707 194V189.846C337.707 189.322 337.588 188.932 337.35 188.674C337.111 188.416 336.738 188.287 336.23 188.287C335.559 188.287 335.066 188.469 334.754 188.832C334.441 189.195 334.285 189.795 334.285 190.631V194H333.312V187.578H334.104L334.262 188.457H334.309C334.508 188.141 334.787 187.896 335.146 187.725C335.506 187.549 335.906 187.461 336.348 187.461C337.121 187.461 337.703 187.648 338.094 188.023C338.484 188.395 338.68 188.99 338.68 189.811V194H337.707ZM342.09 194L339.652 187.578H340.695L342.078 191.387C342.391 192.277 342.574 192.855 342.629 193.121H342.676C342.719 192.914 342.854 192.486 343.08 191.838C343.311 191.186 343.824 189.766 344.621 187.578H345.664L343.227 194H342.09ZM349.479 194H348.482V186.318H345.77V185.434H352.191V186.318H349.479V194ZM359.252 189.365H361.666V190.174H359.252V192.67H358.438V190.174H356.035V189.365H358.438V186.857H359.252V189.365ZM367.584 190.438V194H366.588V185.434H368.938C369.988 185.434 370.764 185.635 371.264 186.037C371.768 186.439 372.02 187.045 372.02 187.854C372.02 188.986 371.445 189.752 370.297 190.15L372.623 194H371.445L369.371 190.438H367.584ZM367.584 189.582H368.949C369.652 189.582 370.168 189.443 370.496 189.166C370.824 188.885 370.988 188.465 370.988 187.906C370.988 187.34 370.82 186.932 370.484 186.682C370.152 186.432 369.617 186.307 368.879 186.307H367.584V189.582ZM376.572 194.117C375.623 194.117 374.873 193.828 374.322 193.25C373.775 192.672 373.502 191.869 373.502 190.842C373.502 189.807 373.756 188.984 374.264 188.375C374.775 187.766 375.461 187.461 376.32 187.461C377.125 187.461 377.762 187.727 378.23 188.258C378.699 188.785 378.934 189.482 378.934 190.35V190.965H374.51C374.529 191.719 374.719 192.291 375.078 192.682C375.441 193.072 375.951 193.268 376.607 193.268C377.299 193.268 377.982 193.123 378.658 192.834V193.701C378.314 193.85 377.988 193.955 377.68 194.018C377.375 194.084 377.006 194.117 376.572 194.117ZM376.309 188.275C375.793 188.275 375.381 188.443 375.072 188.779C374.768 189.115 374.588 189.58 374.533 190.174H377.891C377.891 189.561 377.754 189.092 377.48 188.768C377.207 188.439 376.816 188.275 376.309 188.275ZM380.744 194V185.434H381.74V193.098H385.52V194H380.744ZM393.447 185.434V190.977C393.447 191.953 393.152 192.721 392.562 193.279C391.973 193.838 391.162 194.117 390.131 194.117C389.1 194.117 388.301 193.836 387.734 193.273C387.172 192.711 386.891 191.938 386.891 190.953V185.434H387.887V191.023C387.887 191.738 388.082 192.287 388.473 192.67C388.863 193.053 389.438 193.244 390.195 193.244C390.918 193.244 391.475 193.053 391.865 192.67C392.256 192.283 392.451 191.73 392.451 191.012V185.434H393.447Z" fill="black"/>
<path d="M459.303 186.201C458.361 186.201 457.617 186.516 457.07 187.145C456.527 187.77 456.256 188.627 456.256 189.717C456.256 190.838 456.518 191.705 457.041 192.318C457.568 192.928 458.318 193.232 459.291 193.232C459.889 193.232 460.57 193.125 461.336 192.91V193.783C460.742 194.006 460.01 194.117 459.139 194.117C457.877 194.117 456.902 193.734 456.215 192.969C455.531 192.203 455.189 191.115 455.189 189.705C455.189 188.822 455.354 188.049 455.682 187.385C456.014 186.721 456.49 186.209 457.111 185.85C457.736 185.49 458.471 185.311 459.314 185.311C460.213 185.311 460.998 185.475 461.67 185.803L461.248 186.658C460.6 186.354 459.951 186.201 459.303 186.201ZM468.602 190.783C468.602 191.83 468.338 192.648 467.811 193.238C467.283 193.824 466.555 194.117 465.625 194.117C465.051 194.117 464.541 193.982 464.096 193.713C463.65 193.443 463.307 193.057 463.064 192.553C462.822 192.049 462.701 191.459 462.701 190.783C462.701 189.736 462.963 188.922 463.486 188.34C464.01 187.754 464.736 187.461 465.666 187.461C466.564 187.461 467.277 187.76 467.805 188.357C468.336 188.955 468.602 189.764 468.602 190.783ZM463.709 190.783C463.709 191.604 463.873 192.229 464.201 192.658C464.529 193.088 465.012 193.303 465.648 193.303C466.285 193.303 466.768 193.09 467.096 192.664C467.428 192.234 467.594 191.607 467.594 190.783C467.594 189.967 467.428 189.348 467.096 188.926C466.768 188.5 466.281 188.287 465.637 188.287C465 188.287 464.52 188.496 464.195 188.914C463.871 189.332 463.709 189.955 463.709 190.783ZM474.707 194V189.846C474.707 189.322 474.588 188.932 474.35 188.674C474.111 188.416 473.738 188.287 473.23 188.287C472.559 188.287 472.066 188.469 471.754 188.832C471.441 189.195 471.285 189.795 471.285 190.631V194H470.312V187.578H471.104L471.262 188.457H471.309C471.508 188.141 471.787 187.896 472.146 187.725C472.506 187.549 472.906 187.461 473.348 187.461C474.121 187.461 474.703 187.648 475.094 188.023C475.484 188.395 475.68 188.99 475.68 189.811V194H474.707ZM479.09 194L476.652 187.578H477.695L479.078 191.387C479.391 192.277 479.574 192.855 479.629 193.121H479.676C479.719 192.914 479.854 192.486 480.08 191.838C480.311 191.186 480.824 189.766 481.621 187.578H482.664L480.227 194H479.09ZM486.479 194H485.482V186.318H482.77V185.434H489.191V186.318H486.479V194ZM496.252 189.365H498.666V190.174H496.252V192.67H495.438V190.174H493.035V189.365H495.438V186.857H496.252V189.365ZM504.584 190.438V194H503.588V185.434H505.938C506.988 185.434 507.764 185.635 508.264 186.037C508.768 186.439 509.02 187.045 509.02 187.854C509.02 188.986 508.445 189.752 507.297 190.15L509.623 194H508.445L506.371 190.438H504.584ZM504.584 189.582H505.949C506.652 189.582 507.168 189.443 507.496 189.166C507.824 188.885 507.988 188.465 507.988 187.906C507.988 187.34 507.82 186.932 507.484 186.682C507.152 186.432 506.617 186.307 505.879 186.307H504.584V189.582ZM513.572 194.117C512.623 194.117 511.873 193.828 511.322 193.25C510.775 192.672 510.502 191.869 510.502 190.842C510.502 189.807 510.756 188.984 511.264 188.375C511.775 187.766 512.461 187.461 513.32 187.461C514.125 187.461 514.762 187.727 515.23 188.258C515.699 188.785 515.934 189.482 515.934 190.35V190.965H511.51C511.529 191.719 511.719 192.291 512.078 192.682C512.441 193.072 512.951 193.268 513.607 193.268C514.299 193.268 514.982 193.123 515.658 192.834V193.701C515.314 193.85 514.988 193.955 514.68 194.018C514.375 194.084 514.006 194.117 513.572 194.117ZM513.309 188.275C512.793 188.275 512.381 188.443 512.072 188.779C511.768 189.115 511.588 189.58 511.533 190.174H514.891C514.891 189.561 514.754 189.092 514.48 188.768C514.207 188.439 513.816 188.275 513.309 188.275ZM517.744 194V185.434H518.74V193.098H522.52V194H517.744ZM530.447 185.434V190.977C530.447 191.953 530.152 192.721 529.562 193.279C528.973 193.838 528.162 194.117 527.131 194.117C526.1 194.117 525.301 193.836 524.734 193.273C524.172 192.711 523.891 191.938 523.891 190.953V185.434H524.887V191.023C524.887 191.738 525.082 192.287 525.473 192.67C525.863 193.053 526.438 193.244 527.195 193.244C527.918 193.244 528.475 193.053 528.865 192.67C529.256 192.283 529.451 191.73 529.451 191.012V185.434H530.447Z" fill="black"/>
<path d="M601.186 186.201C600.244 186.201 599.5 186.516 598.953 187.145C598.41 187.77 598.139 188.627 598.139 189.717C598.139 190.838 598.4 191.705 598.924 192.318C599.451 192.928 600.201 193.232 601.174 193.232C601.771 193.232 602.453 193.125 603.219 192.91V193.783C602.625 194.006 601.893 194.117 601.021 194.117C599.76 194.117 598.785 193.734 598.098 192.969C597.414 192.203 597.072 191.115 597.072 189.705C597.072 188.822 597.236 188.049 597.564 187.385C597.896 186.721 598.373 186.209 598.994 185.85C599.619 185.49 600.354 185.311 601.197 185.311C602.096 185.311 602.881 185.475 603.553 185.803L603.131 186.658C602.482 186.354 601.834 186.201 601.186 186.201ZM610.484 190.783C610.484 191.83 610.221 192.648 609.693 193.238C609.166 193.824 608.438 194.117 607.508 194.117C606.934 194.117 606.424 193.982 605.979 193.713C605.533 193.443 605.189 193.057 604.947 192.553C604.705 192.049 604.584 191.459 604.584 190.783C604.584 189.736 604.846 188.922 605.369 188.34C605.893 187.754 606.619 187.461 607.549 187.461C608.447 187.461 609.16 187.76 609.688 188.357C610.219 188.955 610.484 189.764 610.484 190.783ZM605.592 190.783C605.592 191.604 605.756 192.229 606.084 192.658C606.412 193.088 606.895 193.303 607.531 193.303C608.168 193.303 608.65 193.09 608.979 192.664C609.311 192.234 609.477 191.607 609.477 190.783C609.477 189.967 609.311 189.348 608.979 188.926C608.65 188.5 608.164 188.287 607.52 188.287C606.883 188.287 606.402 188.496 606.078 188.914C605.754 189.332 605.592 189.955 605.592 190.783ZM616.59 194V189.846C616.59 189.322 616.471 188.932 616.232 188.674C615.994 188.416 615.621 188.287 615.113 188.287C614.441 188.287 613.949 188.469 613.637 188.832C613.324 189.195 613.168 189.795 613.168 190.631V194H612.195V187.578H612.986L613.145 188.457H613.191C613.391 188.141 613.67 187.896 614.029 187.725C614.389 187.549 614.789 187.461 615.23 187.461C616.004 187.461 616.586 187.648 616.977 188.023C617.367 188.395 617.562 188.99 617.562 189.811V194H616.59ZM620.973 194L618.535 187.578H619.578L620.961 191.387C621.273 192.277 621.457 192.855 621.512 193.121H621.559C621.602 192.914 621.736 192.486 621.963 191.838C622.193 191.186 622.707 189.766 623.504 187.578H624.547L622.109 194H620.973ZM631.49 189.365H633.904V190.174H631.49V192.67H630.676V190.174H628.273V189.365H630.676V186.857H631.49V189.365ZM643.66 191.721C643.66 192.475 643.387 193.062 642.84 193.484C642.293 193.906 641.551 194.117 640.613 194.117C639.598 194.117 638.816 193.986 638.27 193.725V192.764C638.621 192.912 639.004 193.029 639.418 193.115C639.832 193.201 640.242 193.244 640.648 193.244C641.312 193.244 641.812 193.119 642.148 192.869C642.484 192.615 642.652 192.264 642.652 191.814C642.652 191.518 642.592 191.275 642.471 191.088C642.354 190.896 642.154 190.721 641.873 190.561C641.596 190.4 641.172 190.219 640.602 190.016C639.805 189.73 639.234 189.393 638.891 189.002C638.551 188.611 638.381 188.102 638.381 187.473C638.381 186.812 638.629 186.287 639.125 185.896C639.621 185.506 640.277 185.311 641.094 185.311C641.945 185.311 642.729 185.467 643.443 185.779L643.133 186.646C642.426 186.35 641.738 186.201 641.07 186.201C640.543 186.201 640.131 186.314 639.834 186.541C639.537 186.768 639.389 187.082 639.389 187.484C639.389 187.781 639.443 188.025 639.553 188.217C639.662 188.404 639.846 188.578 640.104 188.738C640.365 188.895 640.764 189.068 641.299 189.26C642.197 189.58 642.814 189.924 643.15 190.291C643.49 190.658 643.66 191.135 643.66 191.721ZM646.238 194H645.266V187.578H646.238V194ZM645.184 185.838C645.184 185.615 645.238 185.453 645.348 185.352C645.457 185.246 645.594 185.193 645.758 185.193C645.914 185.193 646.049 185.246 646.162 185.352C646.275 185.457 646.332 185.619 646.332 185.838C646.332 186.057 646.275 186.221 646.162 186.33C646.049 186.436 645.914 186.488 645.758 186.488C645.594 186.488 645.457 186.436 645.348 186.33C645.238 186.221 645.184 186.057 645.184 185.838ZM653.557 187.578V188.193L652.367 188.334C652.477 188.471 652.574 188.65 652.66 188.873C652.746 189.092 652.789 189.34 652.789 189.617C652.789 190.246 652.574 190.748 652.145 191.123C651.715 191.498 651.125 191.686 650.375 191.686C650.184 191.686 650.004 191.67 649.836 191.639C649.422 191.857 649.215 192.133 649.215 192.465C649.215 192.641 649.287 192.771 649.432 192.857C649.576 192.939 649.824 192.98 650.176 192.98H651.312C652.008 192.98 652.541 193.127 652.912 193.42C653.287 193.713 653.475 194.139 653.475 194.697C653.475 195.408 653.189 195.949 652.619 196.32C652.049 196.695 651.217 196.883 650.123 196.883C649.283 196.883 648.635 196.727 648.178 196.414C647.725 196.102 647.498 195.66 647.498 195.09C647.498 194.699 647.623 194.361 647.873 194.076C648.123 193.791 648.475 193.598 648.928 193.496C648.764 193.422 648.625 193.307 648.512 193.15C648.402 192.994 648.348 192.812 648.348 192.605C648.348 192.371 648.41 192.166 648.535 191.99C648.66 191.814 648.857 191.645 649.127 191.48C648.795 191.344 648.523 191.111 648.312 190.783C648.105 190.455 648.002 190.08 648.002 189.658C648.002 188.955 648.213 188.414 648.635 188.035C649.057 187.652 649.654 187.461 650.428 187.461C650.764 187.461 651.066 187.5 651.336 187.578H653.557ZM648.436 195.078C648.436 195.426 648.582 195.689 648.875 195.869C649.168 196.049 649.588 196.139 650.135 196.139C650.951 196.139 651.555 196.016 651.945 195.77C652.34 195.527 652.537 195.197 652.537 194.779C652.537 194.432 652.43 194.189 652.215 194.053C652 193.92 651.596 193.854 651.002 193.854H649.836C649.395 193.854 649.051 193.959 648.805 194.17C648.559 194.381 648.436 194.684 648.436 195.078ZM648.963 189.635C648.963 190.084 649.09 190.424 649.344 190.654C649.598 190.885 649.951 191 650.404 191C651.354 191 651.828 190.539 651.828 189.617C651.828 188.652 651.348 188.17 650.387 188.17C649.93 188.17 649.578 188.293 649.332 188.539C649.086 188.785 648.963 189.15 648.963 189.635ZM663.061 194V189.822C663.061 189.311 662.951 188.928 662.732 188.674C662.514 188.416 662.174 188.287 661.713 188.287C661.107 188.287 660.66 188.461 660.371 188.809C660.082 189.156 659.938 189.691 659.938 190.414V194H658.965V189.822C658.965 189.311 658.855 188.928 658.637 188.674C658.418 188.416 658.076 188.287 657.611 188.287C657.002 188.287 656.555 188.471 656.27 188.838C655.988 189.201 655.848 189.799 655.848 190.631V194H654.875V187.578H655.666L655.824 188.457H655.871C656.055 188.145 656.312 187.9 656.645 187.725C656.98 187.549 657.355 187.461 657.77 187.461C658.773 187.461 659.43 187.824 659.738 188.551H659.785C659.977 188.215 660.254 187.949 660.617 187.754C660.98 187.559 661.395 187.461 661.859 187.461C662.586 187.461 663.129 187.648 663.488 188.023C663.852 188.395 664.033 188.99 664.033 189.811V194H663.061ZM671.586 190.783C671.586 191.83 671.322 192.648 670.795 193.238C670.268 193.824 669.539 194.117 668.609 194.117C668.035 194.117 667.525 193.982 667.08 193.713C666.635 193.443 666.291 193.057 666.049 192.553C665.807 192.049 665.686 191.459 665.686 190.783C665.686 189.736 665.947 188.922 666.471 188.34C666.994 187.754 667.721 187.461 668.65 187.461C669.549 187.461 670.262 187.76 670.789 188.357C671.32 188.955 671.586 189.764 671.586 190.783ZM666.693 190.783C666.693 191.604 666.857 192.229 667.186 192.658C667.514 193.088 667.996 193.303 668.633 193.303C669.27 193.303 669.752 193.09 670.08 192.664C670.412 192.234 670.578 191.607 670.578 190.783C670.578 189.967 670.412 189.348 670.08 188.926C669.752 188.5 669.266 188.287 668.621 188.287C667.984 188.287 667.504 188.496 667.18 188.914C666.855 189.332 666.693 189.955 666.693 190.783ZM674.27 194H673.297V187.578H674.27V194ZM673.215 185.838C673.215 185.615 673.27 185.453 673.379 185.352C673.488 185.246 673.625 185.193 673.789 185.193C673.945 185.193 674.08 185.246 674.193 185.352C674.307 185.457 674.363 185.619 674.363 185.838C674.363 186.057 674.307 186.221 674.193 186.33C674.08 186.436 673.945 186.488 673.789 186.488C673.625 186.488 673.488 186.436 673.379 186.33C673.27 186.221 673.215 186.057 673.215 185.838ZM680.703 193.139H680.65C680.201 193.791 679.529 194.117 678.635 194.117C677.795 194.117 677.141 193.83 676.672 193.256C676.207 192.682 675.975 191.865 675.975 190.807C675.975 189.748 676.209 188.926 676.678 188.34C677.146 187.754 677.799 187.461 678.635 187.461C679.506 187.461 680.174 187.777 680.639 188.41H680.715L680.674 187.947L680.65 187.496V184.883H681.623V194H680.832L680.703 193.139ZM678.758 193.303C679.422 193.303 679.902 193.123 680.199 192.764C680.5 192.4 680.65 191.816 680.65 191.012V190.807C680.65 189.896 680.498 189.248 680.193 188.861C679.893 188.471 679.41 188.275 678.746 188.275C678.176 188.275 677.738 188.498 677.434 188.943C677.133 189.385 676.982 190.01 676.982 190.818C676.982 191.639 677.133 192.258 677.434 192.676C677.734 193.094 678.176 193.303 678.758 193.303Z" fill="black"/>
<path d="M311.5 125C311.5 126.402 312.053 127.479 313.013 128.275C313.95 129.053 315.252 129.544 316.739 129.864C319.708 130.502 323.644 130.5 327.5 130.5C331.394 130.5 335.208 130.502 338.051 131.114C339.471 131.419 340.591 131.866 341.349 132.494C342.084 133.104 342.5 133.902 342.5 135L343.5 135C343.5 133.598 342.947 132.521 341.987 131.725C341.05 130.947 339.748 130.456 338.261 130.136C335.292 129.498 331.356 129.5 327.5 129.5C323.606 129.5 319.792 129.498 316.949 128.886C315.529 128.581 314.409 128.134 313.651 127.506C312.916 126.896 312.5 126.098 312.5 125L311.5 125ZM373.5 125C373.5 126.098 373.084 126.896 372.349 127.506C371.591 128.134 370.471 128.581 369.051 128.886C366.208 129.498 362.394 129.5 358.5 129.5C354.644 129.5 350.708 129.498 347.739 130.136C346.252 130.456 344.95 130.947 344.013 131.725C343.053 132.521 342.5 133.598 342.5 135L343.5 135C343.5 133.902 343.916 133.104 344.651 132.494C345.409 131.866 346.529 131.419 347.949 131.114C350.792 130.502 354.606 130.5 358.5 130.5C362.356 130.5 366.292 130.502 369.261 129.864C370.748 129.544 372.05 129.053 372.987 128.275C373.947 127.479 374.5 126.402 374.5 125L373.5 125Z" fill="black"/>
<path d="M342.35 148H336.719V147.162L338.975 144.895C339.662 144.199 340.115 143.703 340.334 143.406C340.553 143.109 340.717 142.82 340.826 142.539C340.936 142.258 340.99 141.955 340.99 141.631C340.99 141.174 340.852 140.812 340.574 140.547C340.297 140.277 339.912 140.143 339.42 140.143C339.064 140.143 338.727 140.201 338.406 140.318C338.09 140.436 337.736 140.648 337.346 140.957L336.83 140.295C337.619 139.639 338.479 139.311 339.408 139.311C340.213 139.311 340.844 139.518 341.301 139.932C341.758 140.342 341.986 140.895 341.986 141.59C341.986 142.133 341.834 142.67 341.529 143.201C341.225 143.732 340.654 144.404 339.818 145.217L337.943 147.051V147.098H342.35V148ZM349.621 146.031H348.35V148H347.418V146.031H343.252V145.182L347.318 139.387H348.35V145.146H349.621V146.031ZM347.418 145.146V142.299C347.418 141.74 347.438 141.109 347.477 140.406H347.43C347.242 140.781 347.066 141.092 346.902 141.338L344.225 145.146H347.418Z" fill="black"/>
<path d="M342.35 148H336.719V147.162L338.975 144.895C339.662 144.199 340.115 143.703 340.334 143.406C340.553 143.109 340.717 142.82 340.826 142.539C340.936 142.258 340.99 141.955 340.99 141.631C340.99 141.174 340.852 140.812 340.574 140.547C340.297 140.277 339.912 140.143 339.42 140.143C339.064 140.143 338.727 140.201 338.406 140.318C338.09 140.436 337.736 140.648 337.346 140.957L336.83 140.295C337.619 139.639 338.479 139.311 339.408 139.311C340.213 139.311 340.844 139.518 341.301 139.932C341.758 140.342 341.986 140.895 341.986 141.59C341.986 142.133 341.834 142.67 341.529 143.201C341.225 143.732 340.654 144.404 339.818 145.217L337.943 147.051V147.098H342.35V148ZM349.621 146.031H348.35V148H347.418V146.031H343.252V145.182L347.318 139.387H348.35V145.146H349.621V146.031ZM347.418 145.146V142.299C347.418 141.74 347.438 141.109 347.477 140.406H347.43C347.242 140.781 347.066 141.092 346.902 141.338L344.225 145.146H347.418Z" fill="black"/>
<path d="M342.35 148H336.719V147.162L338.975 144.895C339.662 144.199 340.115 143.703 340.334 143.406C340.553 143.109 340.717 142.82 340.826 142.539C340.936 142.258 340.99 141.955 340.99 141.631C340.99 141.174 340.852 140.812 340.574 140.547C340.297 140.277 339.912 140.143 339.42 140.143C339.064 140.143 338.727 140.201 338.406 140.318C338.09 140.436 337.736 140.648 337.346 140.957L336.83 140.295C337.619 139.639 338.479 139.311 339.408 139.311C340.213 139.311 340.844 139.518 341.301 139.932C341.758 140.342 341.986 140.895 341.986 141.59C341.986 142.133 341.834 142.67 341.529 143.201C341.225 143.732 340.654 144.404 339.818 145.217L337.943 147.051V147.098H342.35V148ZM349.621 146.031H348.35V148H347.418V146.031H343.252V145.182L347.318 139.387H348.35V145.146H349.621V146.031ZM347.418 145.146V142.299C347.418 141.74 347.438 141.109 347.477 140.406H347.43C347.242 140.781 347.066 141.092 346.902 141.338L344.225 145.146H347.418Z" fill="black"/>
<path d="M236.5 105C236.5 106.09 236.783 106.957 237.319 107.625C237.85 108.288 238.592 108.707 239.424 108.976C241.063 109.505 243.215 109.5 245.25 109.5C247.34 109.5 249.313 109.505 250.768 109.976C251.483 110.207 252.03 110.538 252.401 111C252.767 111.457 253 112.09 253 113L254 113C254 111.91 253.717 111.043 253.181 110.375C252.65 109.712 251.908 109.293 251.076 109.024C249.437 108.495 247.285 108.5 245.25 108.5C243.16 108.5 241.187 108.495 239.732 108.024C239.017 107.793 238.47 107.462 238.099 107C237.733 106.543 237.5 105.91 237.5 105L236.5 105ZM269.5 105C269.5 105.91 269.267 106.543 268.901 107C268.53 107.462 267.983 107.793 267.268 108.024C265.813 108.495 263.84 108.5 261.75 108.5C259.715 108.5 257.563 108.495 255.924 109.024C255.092 109.293 254.35 109.712 253.819 110.375C253.283 111.043 253 111.91 253 113L254 113C254 112.09 254.233 111.457 254.599 111C254.97 110.538 255.517 110.207 256.232 109.976C257.687 109.505 259.66 109.5 261.75 109.5C263.785 109.5 265.937 109.505 267.576 108.976C268.408 108.707 269.15 108.288 269.681 107.625C270.217 106.957 270.5 106.09 270.5 105L269.5 105Z" fill="black"/>
<path d="M253.488 117.311C254.27 117.311 254.889 117.492 255.346 117.855C255.803 118.219 256.031 118.721 256.031 119.361C256.031 119.783 255.9 120.168 255.639 120.516C255.377 120.863 254.959 121.18 254.385 121.465C255.08 121.797 255.574 122.146 255.867 122.514C256.16 122.877 256.307 123.299 256.307 123.779C256.307 124.49 256.059 125.059 255.562 125.484C255.066 125.906 254.387 126.117 253.523 126.117C252.609 126.117 251.906 125.918 251.414 125.52C250.922 125.117 250.676 124.549 250.676 123.814C250.676 122.834 251.273 122.07 252.469 121.523C251.93 121.219 251.543 120.891 251.309 120.539C251.074 120.184 250.957 119.787 250.957 119.35C250.957 118.729 251.186 118.234 251.643 117.867C252.104 117.496 252.719 117.311 253.488 117.311ZM251.637 123.838C251.637 124.307 251.799 124.672 252.123 124.934C252.451 125.195 252.91 125.326 253.5 125.326C254.082 125.326 254.535 125.189 254.859 124.916C255.184 124.643 255.346 124.268 255.346 123.791C255.346 123.412 255.193 123.076 254.889 122.783C254.584 122.486 254.053 122.199 253.295 121.922C252.713 122.172 252.291 122.449 252.029 122.754C251.768 123.055 251.637 123.416 251.637 123.838ZM253.477 118.102C252.988 118.102 252.605 118.219 252.328 118.453C252.051 118.688 251.912 119 251.912 119.391C251.912 119.75 252.027 120.059 252.258 120.316C252.488 120.574 252.914 120.832 253.535 121.09C254.094 120.855 254.488 120.604 254.719 120.334C254.953 120.064 255.07 119.75 255.07 119.391C255.07 118.996 254.928 118.684 254.643 118.453C254.361 118.219 253.973 118.102 253.477 118.102Z" fill="black"/>
<path d="M35.5 109C35.5 110.262 36.3091 111.15 37.4901 111.757C38.6616 112.36 40.293 112.743 42.1839 112.996C45.9742 113.501 51.0123 113.5 56 113.5C61.0123 113.5 65.9742 113.501 69.6839 113.996C71.543 114.243 73.0366 114.61 74.0526 115.132C75.0591 115.65 75.5 116.262 75.5 117L76.5 117C76.5 115.738 75.6909 114.85 74.5099 114.243C73.3384 113.64 71.707 113.257 69.8161 113.004C66.0258 112.499 60.9877 112.5 56 112.5C50.9877 112.5 46.0258 112.499 42.3161 112.004C40.457 111.757 38.9634 111.39 37.9474 110.868C36.9409 110.35 36.5 109.738 36.5 109L35.5 109ZM115.5 109C115.5 109.738 115.059 110.35 114.053 110.868C113.037 111.39 111.543 111.757 109.684 112.004C105.974 112.499 101.012 112.5 96 112.5C91.0123 112.5 85.9742 112.499 82.1839 113.004C80.293 113.257 78.6616 113.64 77.4901 114.243C76.3091 114.85 75.5 115.738 75.5 117L76.5 117C76.5 116.262 76.9409 115.65 77.9474 115.132C78.9634 114.61 80.457 114.243 82.3161 113.996C86.0258 113.501 90.9877 113.5 96 113.5C100.988 113.5 106.026 113.501 109.816 112.996C111.707 112.743 113.338 112.36 114.51 111.757C115.691 111.15 116.5 110.262 116.5 109L115.5 109Z" fill="black"/>
<path d="M31 53.5C29.8468 53.5 28.9565 53.9604 28.3014 54.7565C27.6651 55.5298 27.2681 56.5969 27.011 57.8019C26.4975 60.2088 26.5 63.3942 26.5 66.5C26.5 69.6442 26.4975 72.7088 26.011 74.9894C25.7681 76.1282 25.4151 77.0142 24.9264 77.6081C24.4565 78.1791 23.8468 78.5 23 78.5L23 79.5C24.1531 79.5 25.0435 79.0396 25.6986 78.2435C26.3349 77.4702 26.7319 76.4031 26.989 75.1981C27.5025 72.7912 27.5 69.6058 27.5 66.5C27.5 63.3558 27.5025 60.2912 27.989 58.0106C28.2319 56.8718 28.5849 55.9858 29.0736 55.3919C29.5435 54.8209 30.1532 54.5 31 54.5L31 53.5ZM31 103.5C30.1531 103.5 29.5435 103.179 29.0736 102.608C28.5849 102.014 28.2319 101.128 27.989 99.9894C27.5024 97.7088 27.5 94.6442 27.5 91.5C27.5 88.3942 27.5024 85.2088 26.989 82.8019C26.7319 81.5969 26.3349 80.5298 25.6986 79.7565C25.0435 78.9604 24.1531 78.5 23 78.5L23 79.5C23.8468 79.5 24.4565 79.8209 24.9264 80.3919C25.4151 80.9858 25.7681 81.8718 26.011 83.0106C26.4975 85.2912 26.5 88.3558 26.5 91.5C26.5 94.6058 26.4975 97.7912 27.011 100.198C27.2681 101.403 27.6651 102.47 28.3014 103.243C28.9565 104.04 29.8468 104.5 31 104.5L31 103.5Z" fill="black"/>
<path d="M73.3223 130H72.373V123.895C72.373 123.387 72.3887 122.906 72.4199 122.453C72.3379 122.535 72.2461 122.621 72.1445 122.711C72.043 122.801 71.5781 123.182 70.75 123.854L70.2344 123.186L72.502 121.434H73.3223V130ZM82.2637 125.705C82.2637 127.186 82.0293 128.291 81.5605 129.021C81.0957 129.752 80.3828 130.117 79.4219 130.117C78.5 130.117 77.7988 129.744 77.3184 128.998C76.8379 128.248 76.5977 127.15 76.5977 125.705C76.5977 124.213 76.8301 123.105 77.2949 122.383C77.7598 121.66 78.4688 121.299 79.4219 121.299C80.3516 121.299 81.0566 121.676 81.5371 122.43C82.0215 123.184 82.2637 124.275 82.2637 125.705ZM77.582 125.705C77.582 126.951 77.7285 127.859 78.0215 128.43C78.3145 128.996 78.7812 129.279 79.4219 129.279C80.0703 129.279 80.5391 128.992 80.8281 128.418C81.1211 127.84 81.2676 126.936 81.2676 125.705C81.2676 124.475 81.1211 123.574 80.8281 123.004C80.5391 122.43 80.0703 122.143 79.4219 122.143C78.7812 122.143 78.3145 122.426 78.0215 122.992C77.7285 123.555 77.582 124.459 77.582 125.705Z" fill="black"/>
<path d="M11.3223 83H10.373V76.8945C10.373 76.3867 10.3887 75.9062 10.4199 75.4531C10.3379 75.5352 10.2461 75.6211 10.1445 75.7109C10.043 75.8008 9.57812 76.1816 8.75 76.8535L8.23438 76.1855L10.502 74.4336H11.3223V83ZM14.6855 79.3379C14.6855 77.6543 15.0117 76.3965 15.6641 75.5645C16.3203 74.7285 17.2891 74.3105 18.5703 74.3105C19.0117 74.3105 19.3594 74.3477 19.6133 74.4219V75.2598C19.3125 75.1621 18.9688 75.1133 18.582 75.1133C17.6641 75.1133 16.9629 75.4004 16.4785 75.9746C15.9941 76.5449 15.7285 77.4434 15.6816 78.6699H15.752C16.1816 77.998 16.8613 77.6621 17.791 77.6621C18.5605 77.6621 19.166 77.8945 19.6074 78.3594C20.0527 78.8242 20.2754 79.4551 20.2754 80.252C20.2754 81.1426 20.0312 81.8438 19.543 82.3555C19.0586 82.8633 18.4023 83.1172 17.5742 83.1172C16.6875 83.1172 15.9844 82.7852 15.4648 82.1211C14.9453 81.4531 14.6855 80.5254 14.6855 79.3379ZM17.5625 82.291C18.1172 82.291 18.5469 82.1172 18.8516 81.7695C19.1602 81.418 19.3145 80.9121 19.3145 80.252C19.3145 79.6855 19.1719 79.2402 18.8867 78.916C18.6016 78.5918 18.1758 78.4297 17.6094 78.4297C17.2578 78.4297 16.9355 78.502 16.6426 78.6465C16.3496 78.791 16.1152 78.9902 15.9395 79.2441C15.7676 79.498 15.6816 79.7617 15.6816 80.0352C15.6816 80.4375 15.7598 80.8125 15.916 81.1602C16.0723 81.5078 16.293 81.7832 16.5781 81.9863C16.8672 82.1895 17.1953 82.291 17.5625 82.291Z" fill="black"/>
<path d="M182 31.5C180.694 31.5 179.817 32.4764 179.229 33.819C178.636 35.1749 178.255 37.0717 178.003 39.2874C177.499 43.7281 177.5 49.6355 177.5 55.5C177.5 61.3855 177.499 67.2281 177.003 71.5999C176.755 73.7905 176.386 75.5655 175.854 76.78C175.317 78.0077 174.694 78.5 174 78.5L174 79.5C175.306 79.5 176.183 78.5236 176.771 77.181C177.364 75.8251 177.745 73.9283 177.997 71.7126C178.501 67.2719 178.5 61.3645 178.5 55.5C178.5 49.6145 178.501 43.7719 178.997 39.4001C179.245 37.2095 179.614 35.4345 180.146 34.22C180.683 32.9923 181.306 32.5 182 32.5L182 31.5ZM182 125.5C181.306 125.5 180.683 125.008 180.146 123.78C179.614 122.566 179.245 120.79 178.997 118.6C178.501 114.228 178.5 108.385 178.5 102.5C178.5 96.6355 178.501 90.7281 177.997 86.2874C177.745 84.0717 177.364 82.1749 176.771 80.8191C176.183 79.4764 175.306 78.5 174 78.5L174 79.5C174.694 79.5 175.317 79.9923 175.854 81.22C176.386 82.4345 176.755 84.2095 177.003 86.4001C177.499 90.7719 177.5 96.6145 177.5 102.5C177.5 108.365 177.499 114.272 178.003 118.713C178.255 120.928 178.636 122.825 179.229 124.181C179.817 125.524 180.694 126.5 182 126.5L182 125.5Z" fill="black"/>
<path d="M157.416 83H151.785V82.1621L154.041 79.8945C154.729 79.1992 155.182 78.7031 155.4 78.4062C155.619 78.1094 155.783 77.8203 155.893 77.5391C156.002 77.2578 156.057 76.9551 156.057 76.6309C156.057 76.1738 155.918 75.8125 155.641 75.5469C155.363 75.2773 154.979 75.1426 154.486 75.1426C154.131 75.1426 153.793 75.2012 153.473 75.3184C153.156 75.4355 152.803 75.6484 152.412 75.957L151.896 75.2949C152.686 74.6387 153.545 74.3105 154.475 74.3105C155.279 74.3105 155.91 74.5176 156.367 74.9316C156.824 75.3418 157.053 75.8945 157.053 76.5898C157.053 77.1328 156.9 77.6699 156.596 78.2012C156.291 78.7324 155.721 79.4043 154.885 80.2168L153.01 82.0508V82.0977H157.416V83ZM161.33 77.7676C162.232 77.7676 162.941 77.9922 163.457 78.4414C163.977 78.8867 164.236 79.498 164.236 80.2754C164.236 81.1621 163.953 81.8574 163.387 82.3613C162.824 82.8652 162.047 83.1172 161.055 83.1172C160.09 83.1172 159.354 82.9629 158.846 82.6543V81.7168C159.119 81.8926 159.459 82.0312 159.865 82.1328C160.271 82.2305 160.672 82.2793 161.066 82.2793C161.754 82.2793 162.287 82.1172 162.666 81.793C163.049 81.4688 163.24 81 163.24 80.3867C163.24 79.1914 162.508 78.5938 161.043 78.5938C160.672 78.5938 160.176 78.6504 159.555 78.7637L159.051 78.4414L159.373 74.4336H163.633V75.3301H160.205L159.988 77.9023C160.438 77.8125 160.885 77.7676 161.33 77.7676ZM165.619 79.3379C165.619 77.6543 165.945 76.3965 166.598 75.5645C167.254 74.7285 168.223 74.3105 169.504 74.3105C169.945 74.3105 170.293 74.3477 170.547 74.4219V75.2598C170.246 75.1621 169.902 75.1133 169.516 75.1133C168.598 75.1133 167.896 75.4004 167.412 75.9746C166.928 76.5449 166.662 77.4434 166.615 78.6699H166.686C167.115 77.998 167.795 77.6621 168.725 77.6621C169.494 77.6621 170.1 77.8945 170.541 78.3594C170.986 78.8242 171.209 79.4551 171.209 80.252C171.209 81.1426 170.965 81.8438 170.477 82.3555C169.992 82.8633 169.336 83.1172 168.508 83.1172C167.621 83.1172 166.918 82.7852 166.398 82.1211C165.879 81.4531 165.619 80.5254 165.619 79.3379ZM168.496 82.291C169.051 82.291 169.48 82.1172 169.785 81.7695C170.094 81.418 170.248 80.9121 170.248 80.252C170.248 79.6855 170.105 79.2402 169.82 78.916C169.535 78.5918 169.109 78.4297 168.543 78.4297C168.191 78.4297 167.869 78.502 167.576 78.6465C167.283 78.791 167.049 78.9902 166.873 79.2441C166.701 79.498 166.615 79.7617 166.615 80.0352C166.615 80.4375 166.693 80.8125 166.85 81.1602C167.006 81.5078 167.227 81.7832 167.512 81.9863C167.801 82.1895 168.129 82.291 168.496 82.291Z" fill="black"/>
<path d="M582.961 13.4492C582.961 13.9961 582.807 14.4434 582.498 14.791C582.193 15.1387 581.76 15.3711 581.197 15.4883V15.5352C581.885 15.6211 582.395 15.8398 582.727 16.1914C583.059 16.543 583.225 17.0039 583.225 17.5742C583.225 18.3906 582.941 19.0195 582.375 19.4609C581.809 19.8984 581.004 20.1172 579.961 20.1172C579.508 20.1172 579.092 20.082 578.713 20.0117C578.338 19.9453 577.973 19.8262 577.617 19.6543V18.7285C577.988 18.9121 578.383 19.0527 578.801 19.1504C579.223 19.2441 579.621 19.291 579.996 19.291C581.477 19.291 582.217 18.7109 582.217 17.5508C582.217 16.5117 581.4 15.9922 579.768 15.9922H578.924V15.1543H579.779C580.447 15.1543 580.977 15.0078 581.367 14.7148C581.758 14.418 581.953 14.0078 581.953 13.4844C581.953 13.0664 581.809 12.7383 581.52 12.5C581.234 12.2617 580.846 12.1426 580.354 12.1426C579.979 12.1426 579.625 12.1934 579.293 12.2949C578.961 12.3965 578.582 12.584 578.156 12.8574L577.664 12.2012C578.016 11.9238 578.42 11.707 578.877 11.5508C579.338 11.3906 579.822 11.3105 580.33 11.3105C581.162 11.3105 581.809 11.502 582.27 11.8848C582.73 12.2637 582.961 12.7852 582.961 13.4492Z" fill="black"/>
<path d="M589.33 22.0963C589.075 21.7571 588.802 21.5067 588.501 21.3561C588.191 21.2007 587.879 21.1658 587.581 21.2153C587.035 21.3058 586.548 21.6869 586.196 21.9518C585.782 22.2633 585.503 22.4586 585.249 22.5007C585.148 22.5175 585.051 22.5079 584.94 22.4523C584.82 22.3919 584.658 22.2649 584.463 22.0049L583.664 22.6062C583.919 22.9454 584.192 23.1958 584.492 23.3464C584.803 23.5018 585.114 23.5367 585.413 23.4872C585.959 23.3967 586.446 23.0156 586.798 22.7507C587.212 22.4392 587.49 22.2439 587.744 22.2018C587.846 22.185 587.942 22.1946 588.053 22.2502C588.174 22.3105 588.335 22.4376 588.531 22.6976L589.33 22.0963ZM583.204 26.7074C583.008 26.4473 582.93 26.2571 582.906 26.1246C582.883 26.0025 582.901 25.9071 582.945 25.8143C583.056 25.5818 583.32 25.3679 583.734 25.0563C584.086 24.7915 584.587 24.429 584.825 23.9296C584.955 23.6565 585.008 23.3471 584.945 23.006C584.883 22.6753 584.718 22.3441 584.463 22.0049L583.664 22.6062C583.859 22.8663 583.937 23.0565 583.962 23.1889C583.984 23.3111 583.967 23.4065 583.923 23.4993C583.812 23.7318 583.547 23.9457 583.133 24.2573C582.781 24.5221 582.28 24.8846 582.042 25.384C581.912 25.6571 581.859 25.9665 581.923 26.3076C581.984 26.6383 582.149 26.9695 582.405 27.3087L583.204 26.7074Z" fill="black"/>
<path d="M237.688 51.0312H236.416V53H235.484V51.0312H231.318V50.1816L235.385 44.3867H236.416V50.1465H237.688V51.0312ZM235.484 50.1465V47.2988C235.484 46.7402 235.504 46.1094 235.543 45.4062H235.496C235.309 45.7812 235.133 46.0918 234.969 46.3379L232.291 50.1465H235.484Z" fill="black"/>
<path d="M247.118 53.2389C246.768 52.7735 246.362 52.4693 245.898 52.3347C245.438 52.201 244.979 52.2514 244.551 52.3895C243.726 52.6556 242.883 53.2973 242.137 53.859C241.344 54.4558 240.647 54.9725 240.017 55.1757C239.718 55.2723 239.47 55.2842 239.256 55.2219C239.044 55.1605 238.807 55.0103 238.556 54.6767L237.757 55.278C238.107 55.7434 238.513 56.0476 238.977 56.1822C239.437 56.3159 239.896 56.2655 240.324 56.1274C241.149 55.8613 241.992 55.2196 242.738 54.6579C243.531 54.0612 244.228 53.5445 244.858 53.3412C245.157 53.2446 245.405 53.2327 245.619 53.295C245.831 53.3564 246.068 53.5066 246.319 53.8402L247.118 53.2389ZM234.805 62.5063C234.554 62.1727 234.475 61.9031 234.475 61.683C234.474 61.4594 234.554 61.225 234.73 60.964C235.099 60.4147 235.789 59.8885 236.582 59.2917C237.328 58.73 238.178 58.0979 238.662 57.3788C238.913 57.0057 239.088 56.5785 239.087 56.0992C239.086 55.6165 238.906 55.142 238.556 54.6767L237.757 55.278C238.008 55.6117 238.087 55.8812 238.087 56.1014C238.088 56.3249 238.008 56.5594 237.832 56.8204C237.462 57.3696 236.773 57.8959 235.98 58.4927C235.234 59.0543 234.384 59.6865 233.9 60.4056C233.649 60.7787 233.474 61.2059 233.475 61.6852C233.476 62.1678 233.656 62.6423 234.006 63.1077L234.805 62.5063Z" fill="black"/>
<path d="M309.416 34H303.785V33.1621L306.041 30.8945C306.729 30.1992 307.182 29.7031 307.4 29.4062C307.619 29.1094 307.783 28.8203 307.893 28.5391C308.002 28.2578 308.057 27.9551 308.057 27.6309C308.057 27.1738 307.918 26.8125 307.641 26.5469C307.363 26.2773 306.979 26.1426 306.486 26.1426C306.131 26.1426 305.793 26.2012 305.473 26.3184C305.156 26.4355 304.803 26.6484 304.412 26.957L303.896 26.2949C304.686 25.6387 305.545 25.3105 306.475 25.3105C307.279 25.3105 307.91 25.5176 308.367 25.9316C308.824 26.3418 309.053 26.8945 309.053 27.5898C309.053 28.1328 308.9 28.6699 308.596 29.2012C308.291 29.7324 307.721 30.4043 306.885 31.2168L305.01 33.0508V33.0977H309.416V34ZM313.33 28.7676C314.232 28.7676 314.941 28.9922 315.457 29.4414C315.977 29.8867 316.236 30.498 316.236 31.2754C316.236 32.1621 315.953 32.8574 315.387 33.3613C314.824 33.8652 314.047 34.1172 313.055 34.1172C312.09 34.1172 311.354 33.9629 310.846 33.6543V32.7168C311.119 32.8926 311.459 33.0312 311.865 33.1328C312.271 33.2305 312.672 33.2793 313.066 33.2793C313.754 33.2793 314.287 33.1172 314.666 32.793C315.049 32.4688 315.24 32 315.24 31.3867C315.24 30.1914 314.508 29.5938 313.043 29.5938C312.672 29.5938 312.176 29.6504 311.555 29.7637L311.051 29.4414L311.373 25.4336H315.633V26.3301H312.205L311.988 28.9023C312.438 28.8125 312.885 28.7676 313.33 28.7676ZM317.619 30.3379C317.619 28.6543 317.945 27.3965 318.598 26.5645C319.254 25.7285 320.223 25.3105 321.504 25.3105C321.945 25.3105 322.293 25.3477 322.547 25.4219V26.2598C322.246 26.1621 321.902 26.1133 321.516 26.1133C320.598 26.1133 319.896 26.4004 319.412 26.9746C318.928 27.5449 318.662 28.4434 318.615 29.6699H318.686C319.115 28.998 319.795 28.6621 320.725 28.6621C321.494 28.6621 322.1 28.8945 322.541 29.3594C322.986 29.8242 323.209 30.4551 323.209 31.252C323.209 32.1426 322.965 32.8438 322.477 33.3555C321.992 33.8633 321.336 34.1172 320.508 34.1172C319.621 34.1172 318.918 33.7852 318.398 33.1211C317.879 32.4531 317.619 31.5254 317.619 30.3379ZM320.496 33.291C321.051 33.291 321.48 33.1172 321.785 32.7695C322.094 32.418 322.248 31.9121 322.248 31.252C322.248 30.6855 322.105 30.2402 321.82 29.916C321.535 29.5918 321.109 29.4297 320.543 29.4297C320.191 29.4297 319.869 29.502 319.576 29.6465C319.283 29.791 319.049 29.9902 318.873 30.2441C318.701 30.498 318.615 30.7617 318.615 31.0352C318.615 31.4375 318.693 31.8125 318.85 32.1602C319.006 32.5078 319.227 32.7832 319.512 32.9863C319.801 33.1895 320.129 33.291 320.496 33.291Z" fill="black"/>
<path d="M334.471 33.1885C334.046 32.6236 333.437 32.4325 332.787 32.4818C332.166 32.5289 331.48 32.7934 330.783 33.1568C329.385 33.8859 327.744 35.1229 326.152 36.3212C324.536 37.5376 322.968 38.7154 321.66 39.3978C321.003 39.7402 320.461 39.9306 320.042 39.9624C319.652 39.9919 319.409 39.8855 319.233 39.6515L318.434 40.2528C318.859 40.8177 319.468 41.0087 320.118 40.9595C320.739 40.9124 321.425 40.6479 322.122 40.2845C323.52 39.5554 325.161 38.3184 326.753 37.1201C328.369 35.9037 329.937 34.7259 331.245 34.0435C331.902 33.7011 332.444 33.5106 332.863 33.4789C333.253 33.4494 333.496 33.5557 333.672 33.7898L334.471 33.1885ZM308.805 52.5063C308.629 52.2722 308.594 52.0091 308.73 51.6424C308.877 51.2488 309.21 50.7806 309.72 50.2444C310.738 49.1757 312.304 47.9955 313.92 46.7791C315.512 45.5808 317.155 44.3462 318.242 43.2044C318.784 42.6353 319.229 42.0493 319.446 41.4653C319.673 40.8543 319.658 40.2164 319.233 39.6515L318.434 40.2528C318.61 40.4869 318.645 40.7501 318.508 41.1167C318.362 41.5103 318.029 41.9785 317.518 42.5147C316.5 43.5834 314.935 44.7636 313.319 45.9801C311.727 47.1783 310.084 48.4129 308.996 49.5547C308.454 50.1238 308.01 50.7098 307.793 51.2939C307.566 51.9049 307.581 52.5428 308.006 53.1077L308.805 52.5063Z" fill="black"/>
<path d="M427.416 15H421.785V14.1621L424.041 11.8945C424.729 11.1992 425.182 10.7031 425.4 10.4062C425.619 10.1094 425.783 9.82031 425.893 9.53906C426.002 9.25781 426.057 8.95508 426.057 8.63086C426.057 8.17383 425.918 7.8125 425.641 7.54688C425.363 7.27734 424.979 7.14258 424.486 7.14258C424.131 7.14258 423.793 7.20117 423.473 7.31836C423.156 7.43555 422.803 7.64844 422.412 7.95703L421.896 7.29492C422.686 6.63867 423.545 6.31055 424.475 6.31055C425.279 6.31055 425.91 6.51758 426.367 6.93164C426.824 7.3418 427.053 7.89453 427.053 8.58984C427.053 9.13281 426.9 9.66992 426.596 10.2012C426.291 10.7324 425.721 11.4043 424.885 12.2168L423.01 14.0508V14.0977H427.416V15ZM431.33 9.76758C432.232 9.76758 432.941 9.99219 433.457 10.4414C433.977 10.8867 434.236 11.498 434.236 12.2754C434.236 13.1621 433.953 13.8574 433.387 14.3613C432.824 14.8652 432.047 15.1172 431.055 15.1172C430.09 15.1172 429.354 14.9629 428.846 14.6543V13.7168C429.119 13.8926 429.459 14.0312 429.865 14.1328C430.271 14.2305 430.672 14.2793 431.066 14.2793C431.754 14.2793 432.287 14.1172 432.666 13.793C433.049 13.4688 433.24 13 433.24 12.3867C433.24 11.1914 432.508 10.5938 431.043 10.5938C430.672 10.5938 430.176 10.6504 429.555 10.7637L429.051 10.4414L429.373 6.43359H433.633V7.33008H430.205L429.988 9.90234C430.438 9.8125 430.885 9.76758 431.33 9.76758ZM435.619 11.3379C435.619 9.6543 435.945 8.39648 436.598 7.56445C437.254 6.72852 438.223 6.31055 439.504 6.31055C439.945 6.31055 440.293 6.34766 440.547 6.42188V7.25977C440.246 7.16211 439.902 7.11328 439.516 7.11328C438.598 7.11328 437.896 7.40039 437.412 7.97461C436.928 8.54492 436.662 9.44336 436.615 10.6699H436.686C437.115 9.99805 437.795 9.66211 438.725 9.66211C439.494 9.66211 440.1 9.89453 440.541 10.3594C440.986 10.8242 441.209 11.4551 441.209 12.252C441.209 13.1426 440.965 13.8438 440.477 14.3555C439.992 14.8633 439.336 15.1172 438.508 15.1172C437.621 15.1172 436.918 14.7852 436.398 14.1211C435.879 13.4531 435.619 12.5254 435.619 11.3379ZM438.496 14.291C439.051 14.291 439.48 14.1172 439.785 13.7695C440.094 13.418 440.248 12.9121 440.248 12.252C440.248 11.6855 440.105 11.2402 439.82 10.916C439.535 10.5918 439.109 10.4297 438.543 10.4297C438.191 10.4297 437.869 10.502 437.576 10.6465C437.283 10.791 437.049 10.9902 436.873 11.2441C436.701 11.498 436.615 11.7617 436.615 12.0352C436.615 12.4375 436.693 12.8125 436.85 13.1602C437.006 13.5078 437.227 13.7832 437.512 13.9863C437.801 14.1895 438.129 14.291 438.496 14.291Z" fill="black"/>
<path d="M452.471 14.1885C452.046 13.6236 451.437 13.4325 450.787 13.4818C450.166 13.5289 449.48 13.7934 448.783 14.1568C447.385 14.8859 445.744 16.1229 444.152 17.3212C442.536 18.5376 440.968 19.7154 439.66 20.3978C439.003 20.7402 438.461 20.9306 438.042 20.9624C437.652 20.9919 437.409 20.8855 437.233 20.6515L436.434 21.2528C436.859 21.8177 437.468 22.0087 438.118 21.9595C438.739 21.9124 439.425 21.6479 440.122 21.2845C441.52 20.5554 443.161 19.3184 444.753 18.1201C446.369 16.9037 447.937 15.7259 449.245 15.0435C449.902 14.7011 450.444 14.5106 450.863 14.4789C451.253 14.4494 451.496 14.5557 451.672 14.7898L452.471 14.1885ZM426.805 33.5063C426.629 33.2722 426.594 33.0091 426.73 32.6424C426.877 32.2488 427.21 31.7806 427.72 31.2444C428.738 30.1757 430.304 28.9955 431.92 27.7791C433.512 26.5808 435.155 25.3462 436.242 24.2044C436.784 23.6353 437.229 23.0493 437.446 22.4653C437.673 21.8543 437.658 21.2164 437.233 20.6515L436.434 21.2528C436.61 21.4869 436.645 21.7501 436.508 22.1167C436.362 22.5103 436.029 22.9785 435.518 23.5147C434.5 24.5834 432.935 25.7636 431.319 26.9801C429.727 28.1783 428.084 29.4129 426.996 30.5547C426.454 31.1238 426.01 31.7098 425.793 32.2939C425.566 32.9049 425.581 33.5428 426.006 34.1077L426.805 33.5063Z" fill="black"/>
<path d="M586 30.4366L591.889 26L692 26V126.563L686.111 131H586V30.4366Z" fill="white"/>
<path d="M586 30.4366L591.889 26L692 26M586 30.4366H686.111M586 30.4366V131H686.111M692 26L686.111 30.4366M692 26V126.563L686.111 131M686.111 30.4366V131" stroke="black" stroke-width="2"/>
<path d="M429.5 144C429.5 145.512 430.465 146.587 431.92 147.335C433.365 148.078 435.387 148.556 437.746 148.871C442.474 149.501 448.762 149.5 455 149.5C461.262 149.5 467.474 149.501 472.121 150.121C474.449 150.431 476.333 150.891 477.623 151.554C478.903 152.212 479.5 153.012 479.5 154L480.5 154C480.5 152.488 479.535 151.413 478.08 150.665C476.635 149.922 474.613 149.444 472.254 149.129C467.526 148.499 461.238 148.5 455 148.5C448.738 148.5 442.526 148.499 437.879 147.879C435.551 147.569 433.667 147.109 432.377 146.446C431.097 145.788 430.5 144.988 430.5 144L429.5 144ZM529.5 144C529.5 144.988 528.903 145.788 527.623 146.446C526.333 147.109 524.449 147.569 522.121 147.879C517.474 148.499 511.262 148.5 505 148.5C498.762 148.5 492.474 148.499 487.746 149.129C485.387 149.444 483.365 149.922 481.92 150.665C480.465 151.413 479.5 152.488 479.5 154L480.5 154C480.5 153.012 481.097 152.212 482.377 151.554C483.667 150.891 485.551 150.431 487.879 150.121C492.526 149.501 498.738 149.5 505 149.5C511.238 149.5 517.526 149.501 522.254 148.871C524.613 148.556 526.635 148.078 528.08 147.335C529.535 146.587 530.5 145.512 530.5 144L529.5 144Z" fill="black"/>
<path d="M429.5 144C429.5 145.512 430.465 146.587 431.92 147.335C433.365 148.078 435.387 148.556 437.746 148.871C442.474 149.501 448.762 149.5 455 149.5C461.262 149.5 467.474 149.501 472.121 150.121C474.449 150.431 476.333 150.891 477.623 151.554C478.903 152.212 479.5 153.012 479.5 154L480.5 154C480.5 152.488 479.535 151.413 478.08 150.665C476.635 149.922 474.613 149.444 472.254 149.129C467.526 148.499 461.238 148.5 455 148.5C448.738 148.5 442.526 148.499 437.879 147.879C435.551 147.569 433.667 147.109 432.377 146.446C431.097 145.788 430.5 144.988 430.5 144L429.5 144ZM529.5 144C529.5 144.988 528.903 145.788 527.623 146.446C526.333 147.109 524.449 147.569 522.121 147.879C517.474 148.499 511.262 148.5 505 148.5C498.762 148.5 492.474 148.499 487.746 149.129C485.387 149.444 483.365 149.922 481.92 150.665C480.465 151.413 479.5 152.488 479.5 154L480.5 154C480.5 153.012 481.097 152.212 482.377 151.554C483.667 150.891 485.551 150.431 487.879 150.121C492.526 149.501 498.738 149.5 505 149.5C511.238 149.5 517.526 149.501 522.254 148.871C524.613 148.556 526.635 148.078 528.08 147.335C529.535 146.587 530.5 145.512 530.5 144L529.5 144Z" fill="black"/>
<path d="M479.027 160.449C479.027 160.996 478.873 161.443 478.564 161.791C478.26 162.139 477.826 162.371 477.264 162.488V162.535C477.951 162.621 478.461 162.84 478.793 163.191C479.125 163.543 479.291 164.004 479.291 164.574C479.291 165.391 479.008 166.02 478.441 166.461C477.875 166.898 477.07 167.117 476.027 167.117C475.574 167.117 475.158 167.082 474.779 167.012C474.404 166.945 474.039 166.826 473.684 166.654V165.729C474.055 165.912 474.449 166.053 474.867 166.15C475.289 166.244 475.688 166.291 476.062 166.291C477.543 166.291 478.283 165.711 478.283 164.551C478.283 163.512 477.467 162.992 475.834 162.992H474.99V162.154H475.846C476.514 162.154 477.043 162.008 477.434 161.715C477.824 161.418 478.02 161.008 478.02 160.484C478.02 160.066 477.875 159.738 477.586 159.5C477.301 159.262 476.912 159.143 476.42 159.143C476.045 159.143 475.691 159.193 475.359 159.295C475.027 159.396 474.648 159.584 474.223 159.857L473.73 159.201C474.082 158.924 474.486 158.707 474.943 158.551C475.404 158.391 475.889 158.311 476.396 158.311C477.229 158.311 477.875 158.502 478.336 158.885C478.797 159.264 479.027 159.785 479.027 160.449ZM486.217 167H480.586V166.162L482.842 163.895C483.529 163.199 483.982 162.703 484.201 162.406C484.42 162.109 484.584 161.82 484.693 161.539C484.803 161.258 484.857 160.955 484.857 160.631C484.857 160.174 484.719 159.812 484.441 159.547C484.164 159.277 483.779 159.143 483.287 159.143C482.932 159.143 482.594 159.201 482.273 159.318C481.957 159.436 481.604 159.648 481.213 159.957L480.697 159.295C481.486 158.639 482.346 158.311 483.275 158.311C484.08 158.311 484.711 158.518 485.168 158.932C485.625 159.342 485.854 159.895 485.854 160.59C485.854 161.133 485.701 161.67 485.396 162.201C485.092 162.732 484.521 163.404 483.686 164.217L481.811 166.051V166.098H486.217V167Z" fill="black"/>
<path d="M349 110V82H321V110H349Z" fill="#8BCDF2" stroke="#32ACF1"/>
<path d="M330.416 95.0898C330.416 98.4414 329.119 100.117 326.525 100.117C326.072 100.117 325.713 100.078 325.447 100V99.1621C325.76 99.2637 326.115 99.3145 326.514 99.3145C327.451 99.3145 328.158 99.0254 328.635 98.4473C329.115 97.8652 329.377 96.9746 329.42 95.7754H329.35C329.135 96.0996 328.85 96.3477 328.494 96.5195C328.139 96.6875 327.738 96.7715 327.293 96.7715C326.535 96.7715 325.934 96.5449 325.488 96.0918C325.043 95.6387 324.82 95.0059 324.82 94.1934C324.82 93.3027 325.068 92.5996 325.564 92.084C326.064 91.5684 326.721 91.3105 327.533 91.3105C328.115 91.3105 328.623 91.4609 329.057 91.7617C329.494 92.0586 329.83 92.4941 330.064 93.0684C330.299 93.6387 330.416 94.3125 330.416 95.0898ZM327.533 92.1426C326.975 92.1426 326.543 92.3223 326.238 92.6816C325.934 93.041 325.781 93.541 325.781 94.1816C325.781 94.7441 325.922 95.1875 326.203 95.5117C326.484 95.832 326.912 95.9922 327.486 95.9922C327.842 95.9922 328.168 95.9199 328.465 95.7754C328.766 95.6309 329.002 95.4336 329.174 95.1836C329.346 94.9336 329.432 94.6719 329.432 94.3984C329.432 93.9883 329.352 93.6094 329.191 93.2617C329.031 92.9141 328.807 92.6406 328.518 92.4414C328.232 92.2422 327.904 92.1426 327.533 92.1426ZM336.574 93.1094L337.137 93.6895L335.074 95.7637L337.125 97.8262L336.562 98.4062L334.488 96.3496L332.449 98.4062L331.857 97.8262L333.908 95.7637L331.846 93.7012L332.432 93.1094L334.5 95.1895L336.574 93.1094ZM344.15 95.0898C344.15 98.4414 342.854 100.117 340.26 100.117C339.807 100.117 339.447 100.078 339.182 100V99.1621C339.494 99.2637 339.85 99.3145 340.248 99.3145C341.186 99.3145 341.893 99.0254 342.369 98.4473C342.85 97.8652 343.111 96.9746 343.154 95.7754H343.084C342.869 96.0996 342.584 96.3477 342.229 96.5195C341.873 96.6875 341.473 96.7715 341.027 96.7715C340.27 96.7715 339.668 96.5449 339.223 96.0918C338.777 95.6387 338.555 95.0059 338.555 94.1934C338.555 93.3027 338.803 92.5996 339.299 92.084C339.799 91.5684 340.455 91.3105 341.268 91.3105C341.85 91.3105 342.357 91.4609 342.791 91.7617C343.229 92.0586 343.564 92.4941 343.799 93.0684C344.033 93.6387 344.15 94.3125 344.15 95.0898ZM341.268 92.1426C340.709 92.1426 340.277 92.3223 339.973 92.6816C339.668 93.041 339.516 93.541 339.516 94.1816C339.516 94.7441 339.656 95.1875 339.938 95.5117C340.219 95.832 340.646 95.9922 341.221 95.9922C341.576 95.9922 341.902 95.9199 342.199 95.7754C342.5 95.6309 342.736 95.4336 342.908 95.1836C343.08 94.9336 343.166 94.6719 343.166 94.3984C343.166 93.9883 343.086 93.6094 342.926 93.2617C342.766 92.9141 342.541 92.6406 342.252 92.4414C341.967 92.2422 341.639 92.1426 341.268 92.1426Z" fill="black"/>
<rect x="36" y="54" width="80" height="50" fill="white" stroke="#32ACF1" stroke-width="2"/>
<rect x="197" y="32" width="94" height="10" transform="rotate(90 197 32)" fill="white" stroke="black" stroke-width="2"/>
<path d="M227.354 78.3536C227.549 78.1583 227.549 77.8417 227.354 77.6464L224.172 74.4645C223.976 74.2692 223.66 74.2692 223.464 74.4645C223.269 74.6597 223.269 74.9763 223.464 75.1716L226.293 78L223.464 80.8284C223.269 81.0237 223.269 81.3403 223.464 81.5355C223.66 81.7308 223.976 81.7308 224.172 81.5355L227.354 78.3536ZM207 78.5H227V77.5H207V78.5Z" fill="black"/>
<path d="M264 94H256V86L268 77H276V85L264 94Z" fill="#8BCDF2"/>
<path d="M256 86V94H264M256 86H264M256 86L268 77H276M264 86V94M264 86L276 77M264 94L276 85V77" stroke="#32ACF1"/>
<path d="M237 66L249 57H282M237 66H270.056M237 66V100H270.056M282 57L270.056 66M282 57V91L270.056 100M270.056 66V100" stroke="black" stroke-width="2"/>
<line x1="186.735" y1="126.265" x2="115.735" y2="55.2652" stroke="black" stroke-width="0.75" stroke-dasharray="2 3"/>
<line x1="335.969" y1="82.3737" x2="275.969" y2="77.3737" stroke="black" stroke-width="0.75" stroke-dasharray="2 3"/>
<line x1="264.082" y1="93.6342" x2="335.082" y2="109.634" stroke="black" stroke-width="0.75" stroke-dasharray="2 3"/>
<path d="M471 119V91H443V119H471Z" fill="#8BCDF2" stroke="#32ACF1"/>
<path d="M452.416 104.09C452.416 107.441 451.119 109.117 448.525 109.117C448.072 109.117 447.713 109.078 447.447 109V108.162C447.76 108.264 448.115 108.314 448.514 108.314C449.451 108.314 450.158 108.025 450.635 107.447C451.115 106.865 451.377 105.975 451.42 104.775H451.35C451.135 105.1 450.85 105.348 450.494 105.52C450.139 105.688 449.738 105.771 449.293 105.771C448.535 105.771 447.934 105.545 447.488 105.092C447.043 104.639 446.82 104.006 446.82 103.193C446.82 102.303 447.068 101.6 447.564 101.084C448.064 100.568 448.721 100.311 449.533 100.311C450.115 100.311 450.623 100.461 451.057 100.762C451.494 101.059 451.83 101.494 452.064 102.068C452.299 102.639 452.416 103.312 452.416 104.09ZM449.533 101.143C448.975 101.143 448.543 101.322 448.238 101.682C447.934 102.041 447.781 102.541 447.781 103.182C447.781 103.744 447.922 104.188 448.203 104.512C448.484 104.832 448.912 104.992 449.486 104.992C449.842 104.992 450.168 104.92 450.465 104.775C450.766 104.631 451.002 104.434 451.174 104.184C451.346 103.934 451.432 103.672 451.432 103.398C451.432 102.988 451.352 102.609 451.191 102.262C451.031 101.914 450.807 101.641 450.518 101.441C450.232 101.242 449.904 101.143 449.533 101.143ZM458.574 102.109L459.137 102.689L457.074 104.764L459.125 106.826L458.562 107.406L456.488 105.35L454.449 107.406L453.857 106.826L455.908 104.764L453.846 102.701L454.432 102.109L456.5 104.189L458.574 102.109ZM466.15 104.09C466.15 107.441 464.854 109.117 462.26 109.117C461.807 109.117 461.447 109.078 461.182 109V108.162C461.494 108.264 461.85 108.314 462.248 108.314C463.186 108.314 463.893 108.025 464.369 107.447C464.85 106.865 465.111 105.975 465.154 104.775H465.084C464.869 105.1 464.584 105.348 464.229 105.52C463.873 105.688 463.473 105.771 463.027 105.771C462.27 105.771 461.668 105.545 461.223 105.092C460.777 104.639 460.555 104.006 460.555 103.193C460.555 102.303 460.803 101.6 461.299 101.084C461.799 100.568 462.455 100.311 463.268 100.311C463.85 100.311 464.357 100.461 464.791 100.762C465.229 101.059 465.564 101.494 465.799 102.068C466.033 102.639 466.15 103.312 466.15 104.09ZM463.268 101.143C462.709 101.143 462.277 101.322 461.973 101.682C461.668 102.041 461.516 102.541 461.516 103.182C461.516 103.744 461.656 104.188 461.938 104.512C462.219 104.832 462.646 104.992 463.221 104.992C463.576 104.992 463.902 104.92 464.199 104.775C464.5 104.631 464.736 104.434 464.908 104.184C465.08 103.934 465.166 103.672 465.166 103.398C465.166 102.988 465.086 102.609 464.926 102.262C464.766 101.914 464.541 101.641 464.252 101.441C463.967 101.242 463.639 101.143 463.268 101.143Z" fill="black"/>
<path d="M368 83H360V75L386 56H394V63L368 83Z" fill="#8BCDF2"/>
<path d="M360 75V83H368M360 75H368M360 75L386 56H394M368 75V83M368 75L394 56M368 83L394 63V56" stroke="#32ACF1"/>
<line x1="456.818" y1="91.3278" x2="393.818" y2="56.3278" stroke="black" stroke-width="0.75" stroke-dasharray="2 3"/>
<line x1="368.141" y1="82.6524" x2="457.141" y2="118.652" stroke="black" stroke-width="0.75" stroke-dasharray="2 3"/>
<path d="M515 69H507V61L533 42H541V49L515 69Z" fill="#8BCDF2"/>
<path d="M507 61V69H515M507 61H515M507 61L533 42H541M515 61V69M515 61L541 42M515 69L541 49V42" stroke="#32ACF1"/>
<path d="M430 38.4364L455.889 19L556 19M430 38.4364H530.111M430 38.4364V139H530.111M556 19L530.111 38.4364M556 19V120L530.111 139M530.111 38.4364V139" stroke="black" stroke-width="2"/>
<line x1="604.784" y1="87.3068" x2="540.784" y2="42.3068" stroke="black" stroke-width="0.75" stroke-dasharray="2 3"/>
<line x1="515.104" y1="68.6397" x2="605.104" y2="94.6397" stroke="black" stroke-width="0.75" stroke-dasharray="2 3"/>
<path d="M312 57.5238L337.882 38H400M312 57.5238H374.118M312 57.5238V120H374.118M400 38L374.118 57.5238M400 38V100L374.118 120M374.118 57.5238V120" stroke="black" stroke-width="2"/>
<line x1="115.735" y1="104.735" x2="186.735" y2="33.7348" stroke="black" stroke-width="0.75" stroke-dasharray="2 3"/>
<path d="M609 95V87H601V95H609Z" fill="#8BCDF2" stroke="#32ACF1"/>
</svg>
