<svg width="673" height="233" viewBox="0 0 673 233" fill="none" xmlns="http://www.w3.org/2000/svg">
<path d="M8.5 152C8.5 153.512 9.4653 154.587 10.9198 155.335C12.3647 156.078 14.3867 156.556 16.7464 156.871C21.4742 157.501 27.7623 157.5 34 157.5C40.2623 157.5 46.4742 157.501 51.1214 158.121C53.4492 158.431 55.3335 158.891 56.6229 159.554C57.9028 160.212 58.5 161.012 58.5 162L59.5 162C59.5 160.488 58.5347 159.413 57.0802 158.665C55.6353 157.922 53.6133 157.444 51.2536 157.129C46.5258 156.499 40.2377 156.5 34 156.5C27.7377 156.5 21.5258 156.499 16.8786 155.879C14.5508 155.569 12.6665 155.109 11.3771 154.446C10.0972 153.788 9.5 152.988 9.5 152L8.5 152ZM108.5 152C108.5 152.988 107.903 153.788 106.623 154.446C105.333 155.109 103.449 155.569 101.121 155.879C96.4742 156.499 90.2623 156.5 84 156.5C77.7623 156.5 71.4742 156.499 66.7464 157.129C64.3867 157.444 62.3647 157.922 60.9198 158.665C59.4653 159.413 58.5 160.488 58.5 162L59.5 162C59.5 161.012 60.0972 160.212 61.3771 159.554C62.6665 158.891 64.5508 158.431 66.8786 158.121C71.5258 157.501 77.7377 157.5 84 157.5C90.2377 157.5 96.5258 157.501 101.254 156.871C103.613 156.556 105.635 156.078 107.08 155.335C108.535 154.587 109.5 153.512 109.5 152L108.5 152Z" fill="black"/>
<path d="M8.5 152C8.5 153.512 9.4653 154.587 10.9198 155.335C12.3647 156.078 14.3867 156.556 16.7464 156.871C21.4742 157.501 27.7623 157.5 34 157.5C40.2623 157.5 46.4742 157.501 51.1214 158.121C53.4492 158.431 55.3335 158.891 56.6229 159.554C57.9028 160.212 58.5 161.012 58.5 162L59.5 162C59.5 160.488 58.5347 159.413 57.0802 158.665C55.6353 157.922 53.6133 157.444 51.2536 157.129C46.5258 156.499 40.2377 156.5 34 156.5C27.7377 156.5 21.5258 156.499 16.8786 155.879C14.5508 155.569 12.6665 155.109 11.3771 154.446C10.0972 153.788 9.5 152.988 9.5 152L8.5 152ZM108.5 152C108.5 152.988 107.903 153.788 106.623 154.446C105.333 155.109 103.449 155.569 101.121 155.879C96.4742 156.499 90.2623 156.5 84 156.5C77.7623 156.5 71.4742 156.499 66.7464 157.129C64.3867 157.444 62.3647 157.922 60.9198 158.665C59.4653 159.413 58.5 160.488 58.5 162L59.5 162C59.5 161.012 60.0972 160.212 61.3771 159.554C62.6665 158.891 64.5508 158.431 66.8786 158.121C71.5258 157.501 77.7377 157.5 84 157.5C90.2377 157.5 96.5258 157.501 101.254 156.871C103.613 156.556 105.635 156.078 107.08 155.335C108.535 154.587 109.5 153.512 109.5 152L108.5 152Z" fill="black"/>
<path d="M58.0273 168.449C58.0273 168.996 57.873 169.443 57.5645 169.791C57.2598 170.139 56.8262 170.371 56.2637 170.488V170.535C56.9512 170.621 57.4609 170.84 57.793 171.191C58.125 171.543 58.291 172.004 58.291 172.574C58.291 173.391 58.0078 174.02 57.4414 174.461C56.875 174.898 56.0703 175.117 55.0273 175.117C54.5742 175.117 54.1582 175.082 53.7793 175.012C53.4043 174.945 53.0391 174.826 52.6836 174.654V173.729C53.0547 173.912 53.4492 174.053 53.8672 174.15C54.2891 174.244 54.6875 174.291 55.0625 174.291C56.543 174.291 57.2832 173.711 57.2832 172.551C57.2832 171.512 56.4668 170.992 54.834 170.992H53.9902V170.154H54.8457C55.5137 170.154 56.043 170.008 56.4336 169.715C56.8242 169.418 57.0195 169.008 57.0195 168.484C57.0195 168.066 56.875 167.738 56.5859 167.5C56.3008 167.262 55.9121 167.143 55.4199 167.143C55.0449 167.143 54.6914 167.193 54.3594 167.295C54.0273 167.396 53.6484 167.584 53.2227 167.857L52.7305 167.201C53.082 166.924 53.4863 166.707 53.9434 166.551C54.4043 166.391 54.8887 166.311 55.3965 166.311C56.2285 166.311 56.875 166.502 57.3359 166.885C57.7969 167.264 58.0273 167.785 58.0273 168.449ZM65.2168 175H59.5859V174.162L61.8418 171.895C62.5293 171.199 62.9824 170.703 63.2012 170.406C63.4199 170.109 63.584 169.82 63.6934 169.539C63.8027 169.258 63.8574 168.955 63.8574 168.631C63.8574 168.174 63.7188 167.812 63.4414 167.547C63.1641 167.277 62.7793 167.143 62.2871 167.143C61.9316 167.143 61.5938 167.201 61.2734 167.318C60.957 167.436 60.6035 167.648 60.2129 167.957L59.6973 167.295C60.4863 166.639 61.3457 166.311 62.2754 166.311C63.0801 166.311 63.7109 166.518 64.168 166.932C64.625 167.342 64.8535 167.895 64.8535 168.59C64.8535 169.133 64.7012 169.67 64.3965 170.201C64.0918 170.732 63.5215 171.404 62.6855 172.217L60.8105 174.051V174.098H65.2168V175Z" fill="black"/>
<path d="M43.4219 230V221.434H44.418V230H43.4219ZM54.8125 230V225.822C54.8125 225.311 54.7031 224.928 54.4844 224.674C54.2656 224.416 53.9258 224.287 53.4648 224.287C52.8594 224.287 52.4121 224.461 52.123 224.809C51.834 225.156 51.6895 225.691 51.6895 226.414V230H50.7168V225.822C50.7168 225.311 50.6074 224.928 50.3887 224.674C50.1699 224.416 49.8281 224.287 49.3633 224.287C48.7539 224.287 48.3066 224.471 48.0215 224.838C47.7402 225.201 47.5996 225.799 47.5996 226.631V230H46.627V223.578H47.418L47.5762 224.457H47.623C47.8066 224.145 48.0645 223.9 48.3965 223.725C48.7324 223.549 49.1074 223.461 49.5215 223.461C50.5254 223.461 51.1816 223.824 51.4902 224.551H51.5371C51.7285 224.215 52.0059 223.949 52.3691 223.754C52.7324 223.559 53.1465 223.461 53.6113 223.461C54.3379 223.461 54.8809 223.648 55.2402 224.023C55.6035 224.395 55.7852 224.99 55.7852 225.811V230H54.8125ZM61.7441 230L61.5508 229.086H61.5039C61.1836 229.488 60.8633 229.762 60.543 229.906C60.2266 230.047 59.8301 230.117 59.3535 230.117C58.7168 230.117 58.2168 229.953 57.8535 229.625C57.4941 229.297 57.3145 228.83 57.3145 228.225C57.3145 226.928 58.3516 226.248 60.4258 226.186L61.5156 226.15V225.752C61.5156 225.248 61.4062 224.877 61.1875 224.639C60.9727 224.396 60.627 224.275 60.1504 224.275C59.6152 224.275 59.0098 224.439 58.334 224.768L58.0352 224.023C58.3516 223.852 58.6973 223.717 59.0723 223.619C59.4512 223.521 59.8301 223.473 60.209 223.473C60.9746 223.473 61.541 223.643 61.9082 223.982C62.2793 224.322 62.4648 224.867 62.4648 225.617V230H61.7441ZM59.5469 229.314C60.1523 229.314 60.627 229.148 60.9707 228.816C61.3184 228.484 61.4922 228.02 61.4922 227.422V226.842L60.5195 226.883C59.7461 226.91 59.1875 227.031 58.8438 227.246C58.5039 227.457 58.334 227.787 58.334 228.236C58.334 228.588 58.4395 228.855 58.6504 229.039C58.8652 229.223 59.1641 229.314 59.5469 229.314ZM69.7305 223.578V224.193L68.541 224.334C68.6504 224.471 68.748 224.65 68.834 224.873C68.9199 225.092 68.9629 225.34 68.9629 225.617C68.9629 226.246 68.748 226.748 68.3184 227.123C67.8887 227.498 67.2988 227.686 66.5488 227.686C66.3574 227.686 66.1777 227.67 66.0098 227.639C65.5957 227.857 65.3887 228.133 65.3887 228.465C65.3887 228.641 65.4609 228.771 65.6055 228.857C65.75 228.939 65.998 228.98 66.3496 228.98H67.4863C68.1816 228.98 68.7148 229.127 69.0859 229.42C69.4609 229.713 69.6484 230.139 69.6484 230.697C69.6484 231.408 69.3633 231.949 68.793 232.32C68.2227 232.695 67.3906 232.883 66.2969 232.883C65.457 232.883 64.8086 232.727 64.3516 232.414C63.8984 232.102 63.6719 231.66 63.6719 231.09C63.6719 230.699 63.7969 230.361 64.0469 230.076C64.2969 229.791 64.6484 229.598 65.1016 229.496C64.9375 229.422 64.7988 229.307 64.6855 229.15C64.5762 228.994 64.5215 228.812 64.5215 228.605C64.5215 228.371 64.584 228.166 64.709 227.99C64.834 227.814 65.0312 227.645 65.3008 227.48C64.9688 227.344 64.6973 227.111 64.4863 226.783C64.2793 226.455 64.1758 226.08 64.1758 225.658C64.1758 224.955 64.3867 224.414 64.8086 224.035C65.2305 223.652 65.8281 223.461 66.6016 223.461C66.9375 223.461 67.2402 223.5 67.5098 223.578H69.7305ZM64.6094 231.078C64.6094 231.426 64.7559 231.689 65.0488 231.869C65.3418 232.049 65.7617 232.139 66.3086 232.139C67.125 232.139 67.7285 232.016 68.1191 231.77C68.5137 231.527 68.7109 231.197 68.7109 230.779C68.7109 230.432 68.6035 230.189 68.3887 230.053C68.1738 229.92 67.7695 229.854 67.1758 229.854H66.0098C65.5684 229.854 65.2246 229.959 64.9785 230.17C64.7324 230.381 64.6094 230.684 64.6094 231.078ZM65.1367 225.635C65.1367 226.084 65.2637 226.424 65.5176 226.654C65.7715 226.885 66.125 227 66.5781 227C67.5273 227 68.002 226.539 68.002 225.617C68.002 224.652 67.5215 224.17 66.5605 224.17C66.1035 224.17 65.752 224.293 65.5059 224.539C65.2598 224.785 65.1367 225.15 65.1367 225.635ZM73.7617 230.117C72.8125 230.117 72.0625 229.828 71.5117 229.25C70.9648 228.672 70.6914 227.869 70.6914 226.842C70.6914 225.807 70.9453 224.984 71.4531 224.375C71.9648 223.766 72.6504 223.461 73.5098 223.461C74.3145 223.461 74.9512 223.727 75.4199 224.258C75.8887 224.785 76.123 225.482 76.123 226.35V226.965H71.6992C71.7188 227.719 71.9082 228.291 72.2676 228.682C72.6309 229.072 73.1406 229.268 73.7969 229.268C74.4883 229.268 75.1719 229.123 75.8477 228.834V229.701C75.5039 229.85 75.1777 229.955 74.8691 230.018C74.5645 230.084 74.1953 230.117 73.7617 230.117ZM73.498 224.275C72.9824 224.275 72.5703 224.443 72.2617 224.779C71.957 225.115 71.7773 225.58 71.7227 226.174H75.0801C75.0801 225.561 74.9434 225.092 74.6699 224.768C74.3965 224.439 74.0059 224.275 73.498 224.275Z" fill="black"/>
<path d="M151.125 222.201C150.184 222.201 149.439 222.516 148.893 223.145C148.35 223.77 148.078 224.627 148.078 225.717C148.078 226.838 148.34 227.705 148.863 228.318C149.391 228.928 150.141 229.232 151.113 229.232C151.711 229.232 152.393 229.125 153.158 228.91V229.783C152.564 230.006 151.832 230.117 150.961 230.117C149.699 230.117 148.725 229.734 148.037 228.969C147.354 228.203 147.012 227.115 147.012 225.705C147.012 224.822 147.176 224.049 147.504 223.385C147.836 222.721 148.312 222.209 148.934 221.85C149.559 221.49 150.293 221.311 151.137 221.311C152.035 221.311 152.82 221.475 153.492 221.803L153.07 222.658C152.422 222.354 151.773 222.201 151.125 222.201ZM160.424 226.783C160.424 227.83 160.16 228.648 159.633 229.238C159.105 229.824 158.377 230.117 157.447 230.117C156.873 230.117 156.363 229.982 155.918 229.713C155.473 229.443 155.129 229.057 154.887 228.553C154.645 228.049 154.523 227.459 154.523 226.783C154.523 225.736 154.785 224.922 155.309 224.34C155.832 223.754 156.559 223.461 157.488 223.461C158.387 223.461 159.1 223.76 159.627 224.357C160.158 224.955 160.424 225.764 160.424 226.783ZM155.531 226.783C155.531 227.604 155.695 228.229 156.023 228.658C156.352 229.088 156.834 229.303 157.471 229.303C158.107 229.303 158.59 229.09 158.918 228.664C159.25 228.234 159.416 227.607 159.416 226.783C159.416 225.967 159.25 225.348 158.918 224.926C158.59 224.5 158.104 224.287 157.459 224.287C156.822 224.287 156.342 224.496 156.018 224.914C155.693 225.332 155.531 225.955 155.531 226.783ZM166.529 230V225.846C166.529 225.322 166.41 224.932 166.172 224.674C165.934 224.416 165.561 224.287 165.053 224.287C164.381 224.287 163.889 224.469 163.576 224.832C163.264 225.195 163.107 225.795 163.107 226.631V230H162.135V223.578H162.926L163.084 224.457H163.131C163.33 224.141 163.609 223.896 163.969 223.725C164.328 223.549 164.729 223.461 165.17 223.461C165.943 223.461 166.525 223.648 166.916 224.023C167.307 224.395 167.502 224.99 167.502 225.811V230H166.529ZM170.912 230L168.475 223.578H169.518L170.9 227.387C171.213 228.277 171.396 228.855 171.451 229.121H171.498C171.541 228.914 171.676 228.486 171.902 227.838C172.133 227.186 172.646 225.766 173.443 223.578H174.486L172.049 230H170.912ZM181.43 225.365H183.844V226.174H181.43V228.67H180.615V226.174H178.213V225.365H180.615V222.857H181.43V225.365ZM189.762 226.438V230H188.766V221.434H191.115C192.166 221.434 192.941 221.635 193.441 222.037C193.945 222.439 194.197 223.045 194.197 223.854C194.197 224.986 193.623 225.752 192.475 226.15L194.801 230H193.623L191.549 226.438H189.762ZM189.762 225.582H191.127C191.83 225.582 192.346 225.443 192.674 225.166C193.002 224.885 193.166 224.465 193.166 223.906C193.166 223.34 192.998 222.932 192.662 222.682C192.33 222.432 191.795 222.307 191.057 222.307H189.762V225.582ZM198.75 230.117C197.801 230.117 197.051 229.828 196.5 229.25C195.953 228.672 195.68 227.869 195.68 226.842C195.68 225.807 195.934 224.984 196.441 224.375C196.953 223.766 197.639 223.461 198.498 223.461C199.303 223.461 199.939 223.727 200.408 224.258C200.877 224.785 201.111 225.482 201.111 226.35V226.965H196.688C196.707 227.719 196.896 228.291 197.256 228.682C197.619 229.072 198.129 229.268 198.785 229.268C199.477 229.268 200.16 229.123 200.836 228.834V229.701C200.492 229.85 200.166 229.955 199.857 230.018C199.553 230.084 199.184 230.117 198.75 230.117ZM198.486 224.275C197.971 224.275 197.559 224.443 197.25 224.779C196.945 225.115 196.766 225.58 196.711 226.174H200.068C200.068 225.561 199.932 225.092 199.658 224.768C199.385 224.439 198.994 224.275 198.486 224.275ZM202.922 230V221.434H203.918V229.098H207.697V230H202.922ZM215.625 221.434V226.977C215.625 227.953 215.33 228.721 214.74 229.279C214.15 229.838 213.34 230.117 212.309 230.117C211.277 230.117 210.479 229.836 209.912 229.273C209.35 228.711 209.068 227.938 209.068 226.953V221.434H210.064V227.023C210.064 227.738 210.26 228.287 210.65 228.67C211.041 229.053 211.615 229.244 212.373 229.244C213.096 229.244 213.652 229.053 214.043 228.67C214.434 228.283 214.629 227.73 214.629 227.012V221.434H215.625Z" fill="black"/>
<path d="M278.072 222.201C277.131 222.201 276.387 222.516 275.84 223.145C275.297 223.77 275.025 224.627 275.025 225.717C275.025 226.838 275.287 227.705 275.811 228.318C276.338 228.928 277.088 229.232 278.061 229.232C278.658 229.232 279.34 229.125 280.105 228.91V229.783C279.512 230.006 278.779 230.117 277.908 230.117C276.646 230.117 275.672 229.734 274.984 228.969C274.301 228.203 273.959 227.115 273.959 225.705C273.959 224.822 274.123 224.049 274.451 223.385C274.783 222.721 275.26 222.209 275.881 221.85C276.506 221.49 277.24 221.311 278.084 221.311C278.982 221.311 279.768 221.475 280.439 221.803L280.018 222.658C279.369 222.354 278.721 222.201 278.072 222.201ZM287.371 226.783C287.371 227.83 287.107 228.648 286.58 229.238C286.053 229.824 285.324 230.117 284.395 230.117C283.82 230.117 283.311 229.982 282.865 229.713C282.42 229.443 282.076 229.057 281.834 228.553C281.592 228.049 281.471 227.459 281.471 226.783C281.471 225.736 281.732 224.922 282.256 224.34C282.779 223.754 283.506 223.461 284.436 223.461C285.334 223.461 286.047 223.76 286.574 224.357C287.105 224.955 287.371 225.764 287.371 226.783ZM282.479 226.783C282.479 227.604 282.643 228.229 282.971 228.658C283.299 229.088 283.781 229.303 284.418 229.303C285.055 229.303 285.537 229.09 285.865 228.664C286.197 228.234 286.363 227.607 286.363 226.783C286.363 225.967 286.197 225.348 285.865 224.926C285.537 224.5 285.051 224.287 284.406 224.287C283.77 224.287 283.289 224.496 282.965 224.914C282.641 225.332 282.479 225.955 282.479 226.783ZM293.477 230V225.846C293.477 225.322 293.357 224.932 293.119 224.674C292.881 224.416 292.508 224.287 292 224.287C291.328 224.287 290.836 224.469 290.523 224.832C290.211 225.195 290.055 225.795 290.055 226.631V230H289.082V223.578H289.873L290.031 224.457H290.078C290.277 224.141 290.557 223.896 290.916 223.725C291.275 223.549 291.676 223.461 292.117 223.461C292.891 223.461 293.473 223.648 293.863 224.023C294.254 224.395 294.449 224.99 294.449 225.811V230H293.477ZM297.859 230L295.422 223.578H296.465L297.848 227.387C298.16 228.277 298.344 228.855 298.398 229.121H298.445C298.488 228.914 298.623 228.486 298.85 227.838C299.08 227.186 299.594 225.766 300.391 223.578H301.434L298.996 230H297.859ZM306.279 222.201C305.338 222.201 304.594 222.516 304.047 223.145C303.504 223.77 303.232 224.627 303.232 225.717C303.232 226.838 303.494 227.705 304.018 228.318C304.545 228.928 305.295 229.232 306.268 229.232C306.865 229.232 307.547 229.125 308.312 228.91V229.783C307.719 230.006 306.986 230.117 306.115 230.117C304.854 230.117 303.879 229.734 303.191 228.969C302.508 228.203 302.166 227.115 302.166 225.705C302.166 224.822 302.33 224.049 302.658 223.385C302.99 222.721 303.467 222.209 304.088 221.85C304.713 221.49 305.447 221.311 306.291 221.311C307.189 221.311 307.975 221.475 308.646 221.803L308.225 222.658C307.576 222.354 306.928 222.201 306.279 222.201ZM313.984 230L313.791 229.086H313.744C313.424 229.488 313.104 229.762 312.783 229.906C312.467 230.047 312.07 230.117 311.594 230.117C310.957 230.117 310.457 229.953 310.094 229.625C309.734 229.297 309.555 228.83 309.555 228.225C309.555 226.928 310.592 226.248 312.666 226.186L313.756 226.15V225.752C313.756 225.248 313.646 224.877 313.428 224.639C313.213 224.396 312.867 224.275 312.391 224.275C311.855 224.275 311.25 224.439 310.574 224.768L310.275 224.023C310.592 223.852 310.938 223.717 311.312 223.619C311.691 223.521 312.07 223.473 312.449 223.473C313.215 223.473 313.781 223.643 314.148 223.982C314.52 224.322 314.705 224.867 314.705 225.617V230H313.984ZM311.787 229.314C312.393 229.314 312.867 229.148 313.211 228.816C313.559 228.484 313.732 228.02 313.732 227.422V226.842L312.76 226.883C311.986 226.91 311.428 227.031 311.084 227.246C310.744 227.457 310.574 227.787 310.574 228.236C310.574 228.588 310.68 228.855 310.891 229.039C311.105 229.223 311.404 229.314 311.787 229.314ZM319.703 230.117C319.285 230.117 318.902 230.041 318.555 229.889C318.211 229.732 317.922 229.494 317.688 229.174H317.617C317.664 229.549 317.688 229.904 317.688 230.24V232.883H316.715V223.578H317.506L317.641 224.457H317.688C317.938 224.105 318.229 223.852 318.561 223.695C318.893 223.539 319.273 223.461 319.703 223.461C320.555 223.461 321.211 223.752 321.672 224.334C322.137 224.916 322.369 225.732 322.369 226.783C322.369 227.838 322.133 228.658 321.66 229.244C321.191 229.826 320.539 230.117 319.703 230.117ZM319.562 224.287C318.906 224.287 318.432 224.469 318.139 224.832C317.846 225.195 317.695 225.773 317.688 226.566V226.783C317.688 227.686 317.838 228.332 318.139 228.723C318.439 229.109 318.922 229.303 319.586 229.303C320.141 229.303 320.574 229.078 320.887 228.629C321.203 228.18 321.361 227.561 321.361 226.771C321.361 225.971 321.203 225.357 320.887 224.932C320.574 224.502 320.133 224.287 319.562 224.287ZM328.217 228.248C328.217 228.846 327.994 229.307 327.549 229.631C327.104 229.955 326.479 230.117 325.674 230.117C324.822 230.117 324.158 229.982 323.682 229.713V228.811C323.99 228.967 324.32 229.09 324.672 229.18C325.027 229.27 325.369 229.314 325.697 229.314C326.205 229.314 326.596 229.234 326.869 229.074C327.143 228.91 327.279 228.662 327.279 228.33C327.279 228.08 327.17 227.867 326.951 227.691C326.736 227.512 326.314 227.301 325.686 227.059C325.088 226.836 324.662 226.643 324.408 226.479C324.158 226.311 323.971 226.121 323.846 225.91C323.725 225.699 323.664 225.447 323.664 225.154C323.664 224.631 323.877 224.219 324.303 223.918C324.729 223.613 325.312 223.461 326.055 223.461C326.746 223.461 327.422 223.602 328.082 223.883L327.736 224.674C327.092 224.408 326.508 224.275 325.984 224.275C325.523 224.275 325.176 224.348 324.941 224.492C324.707 224.637 324.59 224.836 324.59 225.09C324.59 225.262 324.633 225.408 324.719 225.529C324.809 225.65 324.951 225.766 325.146 225.875C325.342 225.984 325.717 226.143 326.271 226.35C327.033 226.627 327.547 226.906 327.812 227.188C328.082 227.469 328.217 227.822 328.217 228.248Z" fill="black"/>
<path d="M404.656 226.438V230H403.66V221.434H406.01C407.061 221.434 407.836 221.635 408.336 222.037C408.84 222.439 409.092 223.045 409.092 223.854C409.092 224.986 408.518 225.752 407.369 226.15L409.695 230H408.518L406.443 226.438H404.656ZM404.656 225.582H406.021C406.725 225.582 407.24 225.443 407.568 225.166C407.896 224.885 408.061 224.465 408.061 223.906C408.061 223.34 407.893 222.932 407.557 222.682C407.225 222.432 406.689 222.307 405.951 222.307H404.656V225.582ZM413.645 230.117C412.695 230.117 411.945 229.828 411.395 229.25C410.848 228.672 410.574 227.869 410.574 226.842C410.574 225.807 410.828 224.984 411.336 224.375C411.848 223.766 412.533 223.461 413.393 223.461C414.197 223.461 414.834 223.727 415.303 224.258C415.771 224.785 416.006 225.482 416.006 226.35V226.965H411.582C411.602 227.719 411.791 228.291 412.15 228.682C412.514 229.072 413.023 229.268 413.68 229.268C414.371 229.268 415.055 229.123 415.73 228.834V229.701C415.387 229.85 415.061 229.955 414.752 230.018C414.447 230.084 414.078 230.117 413.645 230.117ZM413.381 224.275C412.865 224.275 412.453 224.443 412.145 224.779C411.84 225.115 411.66 225.58 411.605 226.174H414.963C414.963 225.561 414.826 225.092 414.553 224.768C414.279 224.439 413.889 224.275 413.381 224.275ZM421.812 228.248C421.812 228.846 421.59 229.307 421.145 229.631C420.699 229.955 420.074 230.117 419.27 230.117C418.418 230.117 417.754 229.982 417.277 229.713V228.811C417.586 228.967 417.916 229.09 418.268 229.18C418.623 229.27 418.965 229.314 419.293 229.314C419.801 229.314 420.191 229.234 420.465 229.074C420.738 228.91 420.875 228.662 420.875 228.33C420.875 228.08 420.766 227.867 420.547 227.691C420.332 227.512 419.91 227.301 419.281 227.059C418.684 226.836 418.258 226.643 418.004 226.479C417.754 226.311 417.566 226.121 417.441 225.91C417.32 225.699 417.26 225.447 417.26 225.154C417.26 224.631 417.473 224.219 417.898 223.918C418.324 223.613 418.908 223.461 419.65 223.461C420.342 223.461 421.018 223.602 421.678 223.883L421.332 224.674C420.688 224.408 420.104 224.275 419.58 224.275C419.119 224.275 418.771 224.348 418.537 224.492C418.303 224.637 418.186 224.836 418.186 225.09C418.186 225.262 418.229 225.408 418.314 225.529C418.404 225.65 418.547 225.766 418.742 225.875C418.938 225.984 419.312 226.143 419.867 226.35C420.629 226.627 421.143 226.906 421.408 227.188C421.678 227.469 421.812 227.822 421.812 228.248ZM427.795 230V225.846C427.795 225.322 427.676 224.932 427.438 224.674C427.199 224.416 426.826 224.287 426.318 224.287C425.643 224.287 425.148 224.471 424.836 224.838C424.527 225.205 424.373 225.807 424.373 226.643V230H423.4V220.883H424.373V223.643C424.373 223.975 424.357 224.25 424.326 224.469H424.385C424.576 224.16 424.848 223.918 425.199 223.742C425.555 223.562 425.959 223.473 426.412 223.473C427.197 223.473 427.785 223.66 428.176 224.035C428.57 224.406 428.768 224.998 428.768 225.811V230H427.795ZM434.721 230L434.527 229.086H434.48C434.16 229.488 433.84 229.762 433.52 229.906C433.203 230.047 432.807 230.117 432.33 230.117C431.693 230.117 431.193 229.953 430.83 229.625C430.471 229.297 430.291 228.83 430.291 228.225C430.291 226.928 431.328 226.248 433.402 226.186L434.492 226.15V225.752C434.492 225.248 434.383 224.877 434.164 224.639C433.949 224.396 433.604 224.275 433.127 224.275C432.592 224.275 431.986 224.439 431.311 224.768L431.012 224.023C431.328 223.852 431.674 223.717 432.049 223.619C432.428 223.521 432.807 223.473 433.186 223.473C433.951 223.473 434.518 223.643 434.885 223.982C435.256 224.322 435.441 224.867 435.441 225.617V230H434.721ZM432.523 229.314C433.129 229.314 433.604 229.148 433.947 228.816C434.295 228.484 434.469 228.02 434.469 227.422V226.842L433.496 226.883C432.723 226.91 432.164 227.031 431.82 227.246C431.48 227.457 431.311 227.787 431.311 228.236C431.311 228.588 431.416 228.855 431.627 229.039C431.842 229.223 432.141 229.314 432.523 229.314ZM440.439 230.117C440.021 230.117 439.639 230.041 439.291 229.889C438.947 229.732 438.658 229.494 438.424 229.174H438.354C438.4 229.549 438.424 229.904 438.424 230.24V232.883H437.451V223.578H438.242L438.377 224.457H438.424C438.674 224.105 438.965 223.852 439.297 223.695C439.629 223.539 440.01 223.461 440.439 223.461C441.291 223.461 441.947 223.752 442.408 224.334C442.873 224.916 443.105 225.732 443.105 226.783C443.105 227.838 442.869 228.658 442.396 229.244C441.928 229.826 441.275 230.117 440.439 230.117ZM440.299 224.287C439.643 224.287 439.168 224.469 438.875 224.832C438.582 225.195 438.432 225.773 438.424 226.566V226.783C438.424 227.686 438.574 228.332 438.875 228.723C439.176 229.109 439.658 229.303 440.322 229.303C440.877 229.303 441.311 229.078 441.623 228.629C441.939 228.18 442.098 227.561 442.098 226.771C442.098 225.971 441.939 225.357 441.623 224.932C441.311 224.502 440.869 224.287 440.299 224.287ZM447.523 230.117C446.574 230.117 445.824 229.828 445.273 229.25C444.727 228.672 444.453 227.869 444.453 226.842C444.453 225.807 444.707 224.984 445.215 224.375C445.727 223.766 446.412 223.461 447.271 223.461C448.076 223.461 448.713 223.727 449.182 224.258C449.65 224.785 449.885 225.482 449.885 226.35V226.965H445.461C445.48 227.719 445.67 228.291 446.029 228.682C446.393 229.072 446.902 229.268 447.559 229.268C448.25 229.268 448.934 229.123 449.609 228.834V229.701C449.266 229.85 448.939 229.955 448.631 230.018C448.326 230.084 447.957 230.117 447.523 230.117ZM447.26 224.275C446.744 224.275 446.332 224.443 446.023 224.779C445.719 225.115 445.539 225.58 445.484 226.174H448.842C448.842 225.561 448.705 225.092 448.432 224.768C448.158 224.439 447.768 224.275 447.26 224.275Z" fill="black"/>
<path d="M507.252 230V221.434H508.248V230H507.252ZM518.643 230V225.822C518.643 225.311 518.533 224.928 518.314 224.674C518.096 224.416 517.756 224.287 517.295 224.287C516.689 224.287 516.242 224.461 515.953 224.809C515.664 225.156 515.52 225.691 515.52 226.414V230H514.547V225.822C514.547 225.311 514.438 224.928 514.219 224.674C514 224.416 513.658 224.287 513.193 224.287C512.584 224.287 512.137 224.471 511.852 224.838C511.57 225.201 511.43 225.799 511.43 226.631V230H510.457V223.578H511.248L511.406 224.457H511.453C511.637 224.145 511.895 223.9 512.227 223.725C512.562 223.549 512.938 223.461 513.352 223.461C514.355 223.461 515.012 223.824 515.32 224.551H515.367C515.559 224.215 515.836 223.949 516.199 223.754C516.562 223.559 516.977 223.461 517.441 223.461C518.168 223.461 518.711 223.648 519.07 224.023C519.434 224.395 519.615 224.99 519.615 225.811V230H518.643ZM525.574 230L525.381 229.086H525.334C525.014 229.488 524.693 229.762 524.373 229.906C524.057 230.047 523.66 230.117 523.184 230.117C522.547 230.117 522.047 229.953 521.684 229.625C521.324 229.297 521.145 228.83 521.145 228.225C521.145 226.928 522.182 226.248 524.256 226.186L525.346 226.15V225.752C525.346 225.248 525.236 224.877 525.018 224.639C524.803 224.396 524.457 224.275 523.98 224.275C523.445 224.275 522.84 224.439 522.164 224.768L521.865 224.023C522.182 223.852 522.527 223.717 522.902 223.619C523.281 223.521 523.66 223.473 524.039 223.473C524.805 223.473 525.371 223.643 525.738 223.982C526.109 224.322 526.295 224.867 526.295 225.617V230H525.574ZM523.377 229.314C523.982 229.314 524.457 229.148 524.801 228.816C525.148 228.484 525.322 228.02 525.322 227.422V226.842L524.35 226.883C523.576 226.91 523.018 227.031 522.674 227.246C522.334 227.457 522.164 227.787 522.164 228.236C522.164 228.588 522.27 228.855 522.48 229.039C522.695 229.223 522.994 229.314 523.377 229.314ZM533.561 223.578V224.193L532.371 224.334C532.48 224.471 532.578 224.65 532.664 224.873C532.75 225.092 532.793 225.34 532.793 225.617C532.793 226.246 532.578 226.748 532.148 227.123C531.719 227.498 531.129 227.686 530.379 227.686C530.188 227.686 530.008 227.67 529.84 227.639C529.426 227.857 529.219 228.133 529.219 228.465C529.219 228.641 529.291 228.771 529.436 228.857C529.58 228.939 529.828 228.98 530.18 228.98H531.316C532.012 228.98 532.545 229.127 532.916 229.42C533.291 229.713 533.479 230.139 533.479 230.697C533.479 231.408 533.193 231.949 532.623 232.32C532.053 232.695 531.221 232.883 530.127 232.883C529.287 232.883 528.639 232.727 528.182 232.414C527.729 232.102 527.502 231.66 527.502 231.09C527.502 230.699 527.627 230.361 527.877 230.076C528.127 229.791 528.479 229.598 528.932 229.496C528.768 229.422 528.629 229.307 528.516 229.15C528.406 228.994 528.352 228.812 528.352 228.605C528.352 228.371 528.414 228.166 528.539 227.99C528.664 227.814 528.861 227.645 529.131 227.48C528.799 227.344 528.527 227.111 528.316 226.783C528.109 226.455 528.006 226.08 528.006 225.658C528.006 224.955 528.217 224.414 528.639 224.035C529.061 223.652 529.658 223.461 530.432 223.461C530.768 223.461 531.07 223.5 531.34 223.578H533.561ZM528.439 231.078C528.439 231.426 528.586 231.689 528.879 231.869C529.172 232.049 529.592 232.139 530.139 232.139C530.955 232.139 531.559 232.016 531.949 231.77C532.344 231.527 532.541 231.197 532.541 230.779C532.541 230.432 532.434 230.189 532.219 230.053C532.004 229.92 531.6 229.854 531.006 229.854H529.84C529.398 229.854 529.055 229.959 528.809 230.17C528.562 230.381 528.439 230.684 528.439 231.078ZM528.967 225.635C528.967 226.084 529.094 226.424 529.348 226.654C529.602 226.885 529.955 227 530.408 227C531.357 227 531.832 226.539 531.832 225.617C531.832 224.652 531.352 224.17 530.391 224.17C529.934 224.17 529.582 224.293 529.336 224.539C529.09 224.785 528.967 225.15 528.967 225.635ZM537.592 230.117C536.643 230.117 535.893 229.828 535.342 229.25C534.795 228.672 534.521 227.869 534.521 226.842C534.521 225.807 534.775 224.984 535.283 224.375C535.795 223.766 536.48 223.461 537.34 223.461C538.145 223.461 538.781 223.727 539.25 224.258C539.719 224.785 539.953 225.482 539.953 226.35V226.965H535.529C535.549 227.719 535.738 228.291 536.098 228.682C536.461 229.072 536.971 229.268 537.627 229.268C538.318 229.268 539.002 229.123 539.678 228.834V229.701C539.334 229.85 539.008 229.955 538.699 230.018C538.395 230.084 538.025 230.117 537.592 230.117ZM537.328 224.275C536.812 224.275 536.4 224.443 536.092 224.779C535.787 225.115 535.607 225.58 535.553 226.174H538.91C538.91 225.561 538.773 225.092 538.5 224.768C538.227 224.439 537.836 224.275 537.328 224.275ZM545.432 222.201C544.49 222.201 543.746 222.516 543.199 223.145C542.656 223.77 542.385 224.627 542.385 225.717C542.385 226.838 542.646 227.705 543.17 228.318C543.697 228.928 544.447 229.232 545.42 229.232C546.018 229.232 546.699 229.125 547.465 228.91V229.783C546.871 230.006 546.139 230.117 545.268 230.117C544.006 230.117 543.031 229.734 542.344 228.969C541.66 228.203 541.318 227.115 541.318 225.705C541.318 224.822 541.482 224.049 541.811 223.385C542.143 222.721 542.619 222.209 543.24 221.85C543.865 221.49 544.6 221.311 545.443 221.311C546.342 221.311 547.127 221.475 547.799 221.803L547.377 222.658C546.729 222.354 546.08 222.201 545.432 222.201ZM553.137 230L552.943 229.086H552.896C552.576 229.488 552.256 229.762 551.936 229.906C551.619 230.047 551.223 230.117 550.746 230.117C550.109 230.117 549.609 229.953 549.246 229.625C548.887 229.297 548.707 228.83 548.707 228.225C548.707 226.928 549.744 226.248 551.818 226.186L552.908 226.15V225.752C552.908 225.248 552.799 224.877 552.58 224.639C552.365 224.396 552.02 224.275 551.543 224.275C551.008 224.275 550.402 224.439 549.727 224.768L549.428 224.023C549.744 223.852 550.09 223.717 550.465 223.619C550.844 223.521 551.223 223.473 551.602 223.473C552.367 223.473 552.934 223.643 553.301 223.982C553.672 224.322 553.857 224.867 553.857 225.617V230H553.137ZM550.939 229.314C551.545 229.314 552.02 229.148 552.363 228.816C552.711 228.484 552.885 228.02 552.885 227.422V226.842L551.912 226.883C551.139 226.91 550.58 227.031 550.236 227.246C549.896 227.457 549.727 227.787 549.727 228.236C549.727 228.588 549.832 228.855 550.043 229.039C550.258 229.223 550.557 229.314 550.939 229.314ZM558.855 230.117C558.438 230.117 558.055 230.041 557.707 229.889C557.363 229.732 557.074 229.494 556.84 229.174H556.77C556.816 229.549 556.84 229.904 556.84 230.24V232.883H555.867V223.578H556.658L556.793 224.457H556.84C557.09 224.105 557.381 223.852 557.713 223.695C558.045 223.539 558.426 223.461 558.855 223.461C559.707 223.461 560.363 223.752 560.824 224.334C561.289 224.916 561.521 225.732 561.521 226.783C561.521 227.838 561.285 228.658 560.812 229.244C560.344 229.826 559.691 230.117 558.855 230.117ZM558.715 224.287C558.059 224.287 557.584 224.469 557.291 224.832C556.998 225.195 556.848 225.773 556.84 226.566V226.783C556.84 227.686 556.99 228.332 557.291 228.723C557.592 229.109 558.074 229.303 558.738 229.303C559.293 229.303 559.727 229.078 560.039 228.629C560.355 228.18 560.514 227.561 560.514 226.771C560.514 225.971 560.355 225.357 560.039 224.932C559.727 224.502 559.285 224.287 558.715 224.287ZM567.369 228.248C567.369 228.846 567.146 229.307 566.701 229.631C566.256 229.955 565.631 230.117 564.826 230.117C563.975 230.117 563.311 229.982 562.834 229.713V228.811C563.143 228.967 563.473 229.09 563.824 229.18C564.18 229.27 564.521 229.314 564.85 229.314C565.357 229.314 565.748 229.234 566.021 229.074C566.295 228.91 566.432 228.662 566.432 228.33C566.432 228.08 566.322 227.867 566.104 227.691C565.889 227.512 565.467 227.301 564.838 227.059C564.24 226.836 563.814 226.643 563.561 226.479C563.311 226.311 563.123 226.121 562.998 225.91C562.877 225.699 562.816 225.447 562.816 225.154C562.816 224.631 563.029 224.219 563.455 223.918C563.881 223.613 564.465 223.461 565.207 223.461C565.898 223.461 566.574 223.602 567.234 223.883L566.889 224.674C566.244 224.408 565.66 224.275 565.137 224.275C564.676 224.275 564.328 224.348 564.094 224.492C563.859 224.637 563.742 224.836 563.742 225.09C563.742 225.262 563.785 225.408 563.871 225.529C563.961 225.65 564.104 225.766 564.299 225.875C564.494 225.984 564.869 226.143 565.424 226.35C566.186 226.627 566.699 226.906 566.965 227.188C567.234 227.469 567.369 227.822 567.369 228.248Z" fill="black"/>
<path d="M605.254 222.201C604.312 222.201 603.568 222.516 603.021 223.145C602.479 223.77 602.207 224.627 602.207 225.717C602.207 226.838 602.469 227.705 602.992 228.318C603.52 228.928 604.27 229.232 605.242 229.232C605.84 229.232 606.521 229.125 607.287 228.91V229.783C606.693 230.006 605.961 230.117 605.09 230.117C603.828 230.117 602.854 229.734 602.166 228.969C601.482 228.203 601.141 227.115 601.141 225.705C601.141 224.822 601.305 224.049 601.633 223.385C601.965 222.721 602.441 222.209 603.062 221.85C603.688 221.49 604.422 221.311 605.266 221.311C606.164 221.311 606.949 221.475 607.621 221.803L607.199 222.658C606.551 222.354 605.902 222.201 605.254 222.201ZM609.982 230H609.01V220.883H609.982V230ZM615.994 230L615.801 229.086H615.754C615.434 229.488 615.113 229.762 614.793 229.906C614.477 230.047 614.08 230.117 613.604 230.117C612.967 230.117 612.467 229.953 612.104 229.625C611.744 229.297 611.564 228.83 611.564 228.225C611.564 226.928 612.602 226.248 614.676 226.186L615.766 226.15V225.752C615.766 225.248 615.656 224.877 615.438 224.639C615.223 224.396 614.877 224.275 614.4 224.275C613.865 224.275 613.26 224.439 612.584 224.768L612.285 224.023C612.602 223.852 612.947 223.717 613.322 223.619C613.701 223.521 614.08 223.473 614.459 223.473C615.225 223.473 615.791 223.643 616.158 223.982C616.529 224.322 616.715 224.867 616.715 225.617V230H615.994ZM613.797 229.314C614.402 229.314 614.877 229.148 615.221 228.816C615.568 228.484 615.742 228.02 615.742 227.422V226.842L614.77 226.883C613.996 226.91 613.438 227.031 613.094 227.246C612.754 227.457 612.584 227.787 612.584 228.236C612.584 228.588 612.689 228.855 612.9 229.039C613.115 229.223 613.414 229.314 613.797 229.314ZM622.867 228.248C622.867 228.846 622.645 229.307 622.199 229.631C621.754 229.955 621.129 230.117 620.324 230.117C619.473 230.117 618.809 229.982 618.332 229.713V228.811C618.641 228.967 618.971 229.09 619.322 229.18C619.678 229.27 620.02 229.314 620.348 229.314C620.855 229.314 621.246 229.234 621.52 229.074C621.793 228.91 621.93 228.662 621.93 228.33C621.93 228.08 621.82 227.867 621.602 227.691C621.387 227.512 620.965 227.301 620.336 227.059C619.738 226.836 619.312 226.643 619.059 226.479C618.809 226.311 618.621 226.121 618.496 225.91C618.375 225.699 618.314 225.447 618.314 225.154C618.314 224.631 618.527 224.219 618.953 223.918C619.379 223.613 619.963 223.461 620.705 223.461C621.396 223.461 622.072 223.602 622.732 223.883L622.387 224.674C621.742 224.408 621.158 224.275 620.635 224.275C620.174 224.275 619.826 224.348 619.592 224.492C619.357 224.637 619.24 224.836 619.24 225.09C619.24 225.262 619.283 225.408 619.369 225.529C619.459 225.65 619.602 225.766 619.797 225.875C619.992 225.984 620.367 226.143 620.922 226.35C621.684 226.627 622.197 226.906 622.463 227.188C622.732 227.469 622.867 227.822 622.867 228.248ZM628.598 228.248C628.598 228.846 628.375 229.307 627.93 229.631C627.484 229.955 626.859 230.117 626.055 230.117C625.203 230.117 624.539 229.982 624.062 229.713V228.811C624.371 228.967 624.701 229.09 625.053 229.18C625.408 229.27 625.75 229.314 626.078 229.314C626.586 229.314 626.977 229.234 627.25 229.074C627.523 228.91 627.66 228.662 627.66 228.33C627.66 228.08 627.551 227.867 627.332 227.691C627.117 227.512 626.695 227.301 626.066 227.059C625.469 226.836 625.043 226.643 624.789 226.479C624.539 226.311 624.352 226.121 624.227 225.91C624.105 225.699 624.045 225.447 624.045 225.154C624.045 224.631 624.258 224.219 624.684 223.918C625.109 223.613 625.693 223.461 626.436 223.461C627.127 223.461 627.803 223.602 628.463 223.883L628.117 224.674C627.473 224.408 626.889 224.275 626.365 224.275C625.904 224.275 625.557 224.348 625.322 224.492C625.088 224.637 624.971 224.836 624.971 225.09C624.971 225.262 625.014 225.408 625.1 225.529C625.189 225.65 625.332 225.766 625.527 225.875C625.723 225.984 626.098 226.143 626.652 226.35C627.414 226.627 627.928 226.906 628.193 227.188C628.463 227.469 628.598 227.822 628.598 228.248ZM631.158 230H630.186V223.578H631.158V230ZM630.104 221.838C630.104 221.615 630.158 221.453 630.268 221.352C630.377 221.246 630.514 221.193 630.678 221.193C630.834 221.193 630.969 221.246 631.082 221.352C631.195 221.457 631.252 221.619 631.252 221.838C631.252 222.057 631.195 222.221 631.082 222.33C630.969 222.436 630.834 222.488 630.678 222.488C630.514 222.488 630.377 222.436 630.268 222.33C630.158 222.221 630.104 222.057 630.104 221.838ZM636.115 224.334H634.48V230H633.508V224.334H632.359V223.895L633.508 223.543V223.186C633.508 221.607 634.197 220.818 635.576 220.818C635.916 220.818 636.314 220.887 636.771 221.023L636.52 221.803C636.145 221.682 635.824 221.621 635.559 221.621C635.191 221.621 634.92 221.744 634.744 221.99C634.568 222.232 634.48 222.623 634.48 223.162V223.578H636.115V224.334ZM638.26 230H637.287V223.578H638.26V230ZM637.205 221.838C637.205 221.615 637.26 221.453 637.369 221.352C637.479 221.246 637.615 221.193 637.779 221.193C637.936 221.193 638.07 221.246 638.184 221.352C638.297 221.457 638.354 221.619 638.354 221.838C638.354 222.057 638.297 222.221 638.184 222.33C638.07 222.436 637.936 222.488 637.779 222.488C637.615 222.488 637.479 222.436 637.369 222.33C637.26 222.221 637.205 222.057 637.205 221.838ZM642.889 230.117C641.959 230.117 641.238 229.832 640.727 229.262C640.219 228.688 639.965 227.877 639.965 226.83C639.965 225.756 640.223 224.926 640.738 224.34C641.258 223.754 641.996 223.461 642.953 223.461C643.262 223.461 643.57 223.494 643.879 223.561C644.188 223.627 644.43 223.705 644.605 223.795L644.307 224.621C644.092 224.535 643.857 224.465 643.604 224.41C643.35 224.352 643.125 224.322 642.93 224.322C641.625 224.322 640.973 225.154 640.973 226.818C640.973 227.607 641.131 228.213 641.447 228.635C641.768 229.057 642.24 229.268 642.865 229.268C643.4 229.268 643.949 229.152 644.512 228.922V229.783C644.082 230.006 643.541 230.117 642.889 230.117ZM649.99 230L649.797 229.086H649.75C649.43 229.488 649.109 229.762 648.789 229.906C648.473 230.047 648.076 230.117 647.6 230.117C646.963 230.117 646.463 229.953 646.1 229.625C645.74 229.297 645.561 228.83 645.561 228.225C645.561 226.928 646.598 226.248 648.672 226.186L649.762 226.15V225.752C649.762 225.248 649.652 224.877 649.434 224.639C649.219 224.396 648.873 224.275 648.396 224.275C647.861 224.275 647.256 224.439 646.58 224.768L646.281 224.023C646.598 223.852 646.943 223.717 647.318 223.619C647.697 223.521 648.076 223.473 648.455 223.473C649.221 223.473 649.787 223.643 650.154 223.982C650.525 224.322 650.711 224.867 650.711 225.617V230H649.99ZM647.793 229.314C648.398 229.314 648.873 229.148 649.217 228.816C649.564 228.484 649.738 228.02 649.738 227.422V226.842L648.766 226.883C647.992 226.91 647.434 227.031 647.09 227.246C646.75 227.457 646.58 227.787 646.58 228.236C646.58 228.588 646.686 228.855 646.896 229.039C647.111 229.223 647.41 229.314 647.793 229.314ZM654.795 229.314C654.967 229.314 655.133 229.303 655.293 229.279C655.453 229.252 655.58 229.225 655.674 229.197V229.941C655.568 229.992 655.412 230.033 655.205 230.064C655.002 230.1 654.818 230.117 654.654 230.117C653.412 230.117 652.791 229.463 652.791 228.154V224.334H651.871V223.865L652.791 223.461L653.201 222.09H653.764V223.578H655.627V224.334H653.764V228.113C653.764 228.5 653.855 228.797 654.039 229.004C654.223 229.211 654.475 229.314 654.795 229.314ZM657.936 230H656.963V223.578H657.936V230ZM656.881 221.838C656.881 221.615 656.936 221.453 657.045 221.352C657.154 221.246 657.291 221.193 657.455 221.193C657.611 221.193 657.746 221.246 657.859 221.352C657.973 221.457 658.029 221.619 658.029 221.838C658.029 222.057 657.973 222.221 657.859 222.33C657.746 222.436 657.611 222.488 657.455 222.488C657.291 222.488 657.154 222.436 657.045 222.33C656.936 222.221 656.881 222.057 656.881 221.838ZM665.541 226.783C665.541 227.83 665.277 228.648 664.75 229.238C664.223 229.824 663.494 230.117 662.564 230.117C661.99 230.117 661.48 229.982 661.035 229.713C660.59 229.443 660.246 229.057 660.004 228.553C659.762 228.049 659.641 227.459 659.641 226.783C659.641 225.736 659.902 224.922 660.426 224.34C660.949 223.754 661.676 223.461 662.605 223.461C663.504 223.461 664.217 223.76 664.744 224.357C665.275 224.955 665.541 225.764 665.541 226.783ZM660.648 226.783C660.648 227.604 660.812 228.229 661.141 228.658C661.469 229.088 661.951 229.303 662.588 229.303C663.225 229.303 663.707 229.09 664.035 228.664C664.367 228.234 664.533 227.607 664.533 226.783C664.533 225.967 664.367 225.348 664.035 224.926C663.707 224.5 663.221 224.287 662.576 224.287C661.939 224.287 661.459 224.496 661.135 224.914C660.811 225.332 660.648 225.955 660.648 226.783ZM671.646 230V225.846C671.646 225.322 671.527 224.932 671.289 224.674C671.051 224.416 670.678 224.287 670.17 224.287C669.498 224.287 669.006 224.469 668.693 224.832C668.381 225.195 668.225 225.795 668.225 226.631V230H667.252V223.578H668.043L668.201 224.457H668.248C668.447 224.141 668.727 223.896 669.086 223.725C669.445 223.549 669.846 223.461 670.287 223.461C671.061 223.461 671.643 223.648 672.033 224.023C672.424 224.395 672.619 224.99 672.619 225.811V230H671.646Z" fill="black"/>
<path d="M274 21.5C273.189 21.5 272.513 21.9006 271.967 22.5481C271.43 23.1852 270.995 24.0857 270.635 25.1726C269.912 27.3497 269.44 30.4252 269.127 34.0665C268.5 41.3584 268.5 51.0705 268.5 60.75C268.5 70.4455 268.5 80.1084 267.877 87.3478C267.565 90.9721 267.1 93.9513 266.416 96.0125C266.074 97.0447 265.688 97.8092 265.268 98.3074C264.857 98.7952 264.439 99 264 99L264 100C264.811 100 265.487 99.5994 266.033 98.9519C266.57 98.3148 267.005 97.4143 267.365 96.3274C268.088 94.1503 268.56 91.0748 268.873 87.4335C269.5 80.1416 269.5 70.4295 269.5 60.75C269.5 51.0545 269.5 41.3916 270.123 34.1522C270.435 30.5279 270.9 27.5487 271.584 25.4875C271.926 24.4553 272.312 23.6908 272.732 23.1926C273.143 22.7048 273.561 22.5 274 22.5L274 21.5ZM274 176.5C273.561 176.5 273.143 176.295 272.732 175.807C272.312 175.309 271.926 174.545 271.584 173.512C270.9 171.451 270.435 168.472 270.123 164.848C269.5 157.608 269.5 147.945 269.5 138.25C269.5 128.57 269.5 118.858 268.873 111.567C268.56 107.925 268.088 104.85 267.365 102.673C267.005 101.586 266.57 100.685 266.033 100.048C265.487 99.4006 264.811 99 264 99L264 100C264.439 100 264.857 100.205 265.268 100.693C265.688 101.191 266.074 101.955 266.416 102.988C267.1 105.049 267.565 108.028 267.877 111.652C268.5 118.892 268.5 128.555 268.5 138.25C268.5 147.93 268.5 157.642 269.127 164.933C269.44 168.575 269.912 171.65 270.635 173.827C270.995 174.914 271.43 175.815 271.967 176.452C272.513 177.099 273.189 177.5 274 177.5L274 176.5Z" fill="black"/>
<path d="M254.027 97.4492C254.027 97.9961 253.873 98.4434 253.564 98.791C253.26 99.1387 252.826 99.3711 252.264 99.4883V99.5352C252.951 99.6211 253.461 99.8398 253.793 100.191C254.125 100.543 254.291 101.004 254.291 101.574C254.291 102.391 254.008 103.02 253.441 103.461C252.875 103.898 252.07 104.117 251.027 104.117C250.574 104.117 250.158 104.082 249.779 104.012C249.404 103.945 249.039 103.826 248.684 103.654V102.729C249.055 102.912 249.449 103.053 249.867 103.15C250.289 103.244 250.688 103.291 251.062 103.291C252.543 103.291 253.283 102.711 253.283 101.551C253.283 100.512 252.467 99.9922 250.834 99.9922H249.99V99.1543H250.846C251.514 99.1543 252.043 99.0078 252.434 98.7148C252.824 98.418 253.02 98.0078 253.02 97.4844C253.02 97.0664 252.875 96.7383 252.586 96.5C252.301 96.2617 251.912 96.1426 251.42 96.1426C251.045 96.1426 250.691 96.1934 250.359 96.2949C250.027 96.3965 249.648 96.584 249.223 96.8574L248.73 96.2012C249.082 95.9238 249.486 95.707 249.943 95.5508C250.404 95.3906 250.889 95.3105 251.396 95.3105C252.229 95.3105 252.875 95.502 253.336 95.8848C253.797 96.2637 254.027 96.7852 254.027 97.4492ZM261.217 104H255.586V103.162L257.842 100.895C258.529 100.199 258.982 99.7031 259.201 99.4062C259.42 99.1094 259.584 98.8203 259.693 98.5391C259.803 98.2578 259.857 97.9551 259.857 97.6309C259.857 97.1738 259.719 96.8125 259.441 96.5469C259.164 96.2773 258.779 96.1426 258.287 96.1426C257.932 96.1426 257.594 96.2012 257.273 96.3184C256.957 96.4355 256.604 96.6484 256.213 96.957L255.697 96.2949C256.486 95.6387 257.346 95.3105 258.275 95.3105C259.08 95.3105 259.711 95.5176 260.168 95.9316C260.625 96.3418 260.854 96.8945 260.854 97.5898C260.854 98.1328 260.701 98.6699 260.396 99.2012C260.092 99.7324 259.521 100.404 258.686 101.217L256.811 103.051V103.098H261.217V104Z" fill="black"/>
<path d="M144.5 140C144.5 141.402 145.053 142.479 146.013 143.275C146.95 144.053 148.252 144.544 149.739 144.864C152.708 145.502 156.644 145.5 160.5 145.5C164.394 145.5 168.208 145.502 171.051 146.114C172.471 146.419 173.591 146.866 174.349 147.494C175.084 148.104 175.5 148.902 175.5 150L176.5 150C176.5 148.598 175.947 147.521 174.987 146.725C174.05 145.947 172.748 145.456 171.261 145.136C168.292 144.498 164.356 144.5 160.5 144.5C156.606 144.5 152.792 144.498 149.949 143.886C148.529 143.581 147.409 143.134 146.651 142.506C145.916 141.896 145.5 141.098 145.5 140L144.5 140ZM206.5 140C206.5 141.098 206.084 141.896 205.349 142.506C204.591 143.134 203.471 143.581 202.051 143.886C199.208 144.498 195.394 144.5 191.5 144.5C187.644 144.5 183.708 144.498 180.739 145.136C179.252 145.456 177.95 145.947 177.013 146.725C176.053 147.521 175.5 148.598 175.5 150L176.5 150C176.5 148.902 176.916 148.104 177.651 147.494C178.409 146.866 179.529 146.419 180.949 146.114C183.792 145.502 187.606 145.5 191.5 145.5C195.356 145.5 199.292 145.502 202.261 144.864C203.748 144.544 205.05 144.053 205.987 143.275C206.947 142.479 207.5 141.402 207.5 140L206.5 140Z" fill="black"/>
<path d="M175.35 163H169.719V162.162L171.975 159.895C172.662 159.199 173.115 158.703 173.334 158.406C173.553 158.109 173.717 157.82 173.826 157.539C173.936 157.258 173.99 156.955 173.99 156.631C173.99 156.174 173.852 155.812 173.574 155.547C173.297 155.277 172.912 155.143 172.42 155.143C172.064 155.143 171.727 155.201 171.406 155.318C171.09 155.436 170.736 155.648 170.346 155.957L169.83 155.295C170.619 154.639 171.479 154.311 172.408 154.311C173.213 154.311 173.844 154.518 174.301 154.932C174.758 155.342 174.986 155.895 174.986 156.59C174.986 157.133 174.834 157.67 174.529 158.201C174.225 158.732 173.654 159.404 172.818 160.217L170.943 162.051V162.098H175.35V163ZM182.621 161.031H181.35V163H180.418V161.031H176.252V160.182L180.318 154.387H181.35V160.146H182.621V161.031ZM180.418 160.146V157.299C180.418 156.74 180.438 156.109 180.477 155.406H180.43C180.242 155.781 180.066 156.092 179.902 156.338L177.225 160.146H180.418Z" fill="black"/>
<path d="M175.35 163H169.719V162.162L171.975 159.895C172.662 159.199 173.115 158.703 173.334 158.406C173.553 158.109 173.717 157.82 173.826 157.539C173.936 157.258 173.99 156.955 173.99 156.631C173.99 156.174 173.852 155.812 173.574 155.547C173.297 155.277 172.912 155.143 172.42 155.143C172.064 155.143 171.727 155.201 171.406 155.318C171.09 155.436 170.736 155.648 170.346 155.957L169.83 155.295C170.619 154.639 171.479 154.311 172.408 154.311C173.213 154.311 173.844 154.518 174.301 154.932C174.758 155.342 174.986 155.895 174.986 156.59C174.986 157.133 174.834 157.67 174.529 158.201C174.225 158.732 173.654 159.404 172.818 160.217L170.943 162.051V162.098H175.35V163ZM182.621 161.031H181.35V163H180.418V161.031H176.252V160.182L180.318 154.387H181.35V160.146H182.621V161.031ZM180.418 160.146V157.299C180.418 156.74 180.438 156.109 180.477 155.406H180.43C180.242 155.781 180.066 156.092 179.902 156.338L177.225 160.146H180.418Z" fill="black"/>
<path d="M175.35 163H169.719V162.162L171.975 159.895C172.662 159.199 173.115 158.703 173.334 158.406C173.553 158.109 173.717 157.82 173.826 157.539C173.936 157.258 173.99 156.955 173.99 156.631C173.99 156.174 173.852 155.812 173.574 155.547C173.297 155.277 172.912 155.143 172.42 155.143C172.064 155.143 171.727 155.201 171.406 155.318C171.09 155.436 170.736 155.648 170.346 155.957L169.83 155.295C170.619 154.639 171.479 154.311 172.408 154.311C173.213 154.311 173.844 154.518 174.301 154.932C174.758 155.342 174.986 155.895 174.986 156.59C174.986 157.133 174.834 157.67 174.529 158.201C174.225 158.732 173.654 159.404 172.818 160.217L170.943 162.051V162.098H175.35V163ZM182.621 161.031H181.35V163H180.418V161.031H176.252V160.182L180.318 154.387H181.35V160.146H182.621V161.031ZM180.418 160.146V157.299C180.418 156.74 180.438 156.109 180.477 155.406H180.43C180.242 155.781 180.066 156.092 179.902 156.338L177.225 160.146H180.418Z" fill="black"/>
<path d="M278.5 182C278.5 183.09 278.783 183.957 279.319 184.625C279.85 185.288 280.592 185.707 281.424 185.976C283.063 186.505 285.215 186.5 287.25 186.5C289.34 186.5 291.313 186.505 292.768 186.976C293.483 187.207 294.03 187.538 294.401 188C294.767 188.457 295 189.09 295 190L296 190C296 188.91 295.717 188.043 295.181 187.375C294.65 186.712 293.908 186.293 293.076 186.024C291.437 185.495 289.285 185.5 287.25 185.5C285.16 185.5 283.187 185.495 281.732 185.024C281.017 184.793 280.47 184.462 280.099 184C279.733 183.543 279.5 182.91 279.5 182L278.5 182ZM311.5 182C311.5 182.91 311.267 183.543 310.901 184C310.53 184.462 309.983 184.793 309.268 185.024C307.813 185.495 305.84 185.5 303.75 185.5C301.715 185.5 299.563 185.495 297.924 186.024C297.092 186.293 296.35 186.712 295.819 187.375C295.283 188.043 295 188.91 295 190L296 190C296 189.09 296.233 188.457 296.599 188C296.97 187.538 297.517 187.207 298.232 186.976C299.687 186.505 301.66 186.5 303.75 186.5C305.785 186.5 307.937 186.505 309.576 185.976C310.408 185.707 311.15 185.288 311.681 184.625C312.217 183.957 312.5 183.09 312.5 182L311.5 182Z" fill="black"/>
<path d="M295.488 194.311C296.27 194.311 296.889 194.492 297.346 194.855C297.803 195.219 298.031 195.721 298.031 196.361C298.031 196.783 297.9 197.168 297.639 197.516C297.377 197.863 296.959 198.18 296.385 198.465C297.08 198.797 297.574 199.146 297.867 199.514C298.16 199.877 298.307 200.299 298.307 200.779C298.307 201.49 298.059 202.059 297.562 202.484C297.066 202.906 296.387 203.117 295.523 203.117C294.609 203.117 293.906 202.918 293.414 202.52C292.922 202.117 292.676 201.549 292.676 200.814C292.676 199.834 293.273 199.07 294.469 198.523C293.93 198.219 293.543 197.891 293.309 197.539C293.074 197.184 292.957 196.787 292.957 196.35C292.957 195.729 293.186 195.234 293.643 194.867C294.104 194.496 294.719 194.311 295.488 194.311ZM293.637 200.838C293.637 201.307 293.799 201.672 294.123 201.934C294.451 202.195 294.91 202.326 295.5 202.326C296.082 202.326 296.535 202.189 296.859 201.916C297.184 201.643 297.346 201.268 297.346 200.791C297.346 200.412 297.193 200.076 296.889 199.783C296.584 199.486 296.053 199.199 295.295 198.922C294.713 199.172 294.291 199.449 294.029 199.754C293.768 200.055 293.637 200.416 293.637 200.838ZM295.477 195.102C294.988 195.102 294.605 195.219 294.328 195.453C294.051 195.688 293.912 196 293.912 196.391C293.912 196.75 294.027 197.059 294.258 197.316C294.488 197.574 294.914 197.832 295.535 198.09C296.094 197.855 296.488 197.604 296.719 197.334C296.953 197.064 297.07 196.75 297.07 196.391C297.07 195.996 296.928 195.684 296.643 195.453C296.361 195.219 295.973 195.102 295.477 195.102Z" fill="black"/>
<path d="M406.5 160C406.5 161.115 406.853 161.995 407.501 162.661C408.135 163.313 409.013 163.721 409.996 163.983C411.948 164.504 414.523 164.5 417 164.5C419.523 164.5 421.948 164.504 423.746 164.983C424.638 165.221 425.323 165.563 425.782 166.036C426.228 166.495 426.5 167.115 426.5 168L427.5 168C427.5 166.885 427.147 166.005 426.499 165.339C425.865 164.687 424.987 164.279 424.004 164.017C422.052 163.496 419.477 163.5 417 163.5C414.477 163.5 412.052 163.496 410.254 163.017C409.362 162.779 408.677 162.437 408.218 161.964C407.772 161.505 407.5 160.885 407.5 160L406.5 160ZM446.5 160C446.5 160.885 446.228 161.505 445.782 161.964C445.323 162.437 444.638 162.779 443.746 163.017C441.948 163.496 439.523 163.5 437 163.5C434.523 163.5 431.948 163.496 429.996 164.017C429.013 164.279 428.135 164.687 427.501 165.339C426.853 166.005 426.5 166.885 426.5 168L427.5 168C427.5 167.115 427.772 166.495 428.218 166.036C428.677 165.563 429.362 165.221 430.254 164.983C432.052 164.504 434.477 164.5 437 164.5C439.477 164.5 442.052 164.504 444.004 163.983C444.987 163.721 445.865 163.313 446.499 162.661C447.147 161.995 447.5 161.115 447.5 160L446.5 160Z" fill="black"/>
<path d="M402 34.5C401.321 34.5 400.755 34.8259 400.303 35.3454C399.859 35.8542 399.506 36.5672 399.215 37.416C398.632 39.116 398.253 41.5094 398.002 44.3307C397.5 49.9828 397.5 57.5082 397.5 65C397.5 72.5082 397.5 79.9828 397.002 85.5807C396.753 88.3844 396.382 90.6785 395.84 92.2597C395.568 93.0516 395.266 93.6276 394.943 93.9977C394.63 94.3572 394.321 94.5 394 94.5L394 95.5C394.679 95.5 395.245 95.174 395.697 94.6546C396.14 94.1458 396.494 93.4328 396.785 92.584C397.368 90.884 397.747 88.4906 397.998 85.6693C398.5 80.0172 398.5 72.4918 398.5 65C398.5 57.4918 398.5 50.0172 398.998 44.4193C399.247 41.6156 399.618 39.3215 400.16 37.7403C400.432 36.9484 400.734 36.3724 401.057 36.0023C401.37 35.6428 401.679 35.5 402 35.5L402 34.5ZM402 154.5C401.679 154.5 401.37 154.357 401.057 153.998C400.734 153.628 400.432 153.052 400.16 152.26C399.618 150.679 399.247 148.384 398.998 145.581C398.5 139.983 398.5 132.508 398.5 125C398.5 117.508 398.5 109.983 397.998 104.331C397.747 101.509 397.368 99.116 396.785 97.416C396.494 96.5672 396.14 95.8542 395.697 95.3454C395.245 94.8259 394.679 94.5 394 94.5L394 95.5C394.321 95.5 394.63 95.6428 394.943 96.0022C395.266 96.3724 395.568 96.9484 395.84 97.7403C396.382 99.3215 396.753 101.616 397.002 104.419C397.5 110.017 397.5 117.492 397.5 125C397.5 132.492 397.5 140.017 398.002 145.669C398.253 148.491 398.632 150.884 399.214 152.584C399.506 153.433 399.859 154.146 400.303 154.655C400.755 155.174 401.321 155.5 402 155.5L402 154.5Z" fill="black"/>
<path d="M427.488 172.311C428.27 172.311 428.889 172.492 429.346 172.855C429.803 173.219 430.031 173.721 430.031 174.361C430.031 174.783 429.9 175.168 429.639 175.516C429.377 175.863 428.959 176.18 428.385 176.465C429.08 176.797 429.574 177.146 429.867 177.514C430.16 177.877 430.307 178.299 430.307 178.779C430.307 179.49 430.059 180.059 429.562 180.484C429.066 180.906 428.387 181.117 427.523 181.117C426.609 181.117 425.906 180.918 425.414 180.52C424.922 180.117 424.676 179.549 424.676 178.814C424.676 177.834 425.273 177.07 426.469 176.523C425.93 176.219 425.543 175.891 425.309 175.539C425.074 175.184 424.957 174.787 424.957 174.35C424.957 173.729 425.186 173.234 425.643 172.867C426.104 172.496 426.719 172.311 427.488 172.311ZM425.637 178.838C425.637 179.307 425.799 179.672 426.123 179.934C426.451 180.195 426.91 180.326 427.5 180.326C428.082 180.326 428.535 180.189 428.859 179.916C429.184 179.643 429.346 179.268 429.346 178.791C429.346 178.412 429.193 178.076 428.889 177.783C428.584 177.486 428.053 177.199 427.295 176.922C426.713 177.172 426.291 177.449 426.029 177.754C425.768 178.055 425.637 178.416 425.637 178.838ZM427.477 173.102C426.988 173.102 426.605 173.219 426.328 173.453C426.051 173.688 425.912 174 425.912 174.391C425.912 174.75 426.027 175.059 426.258 175.316C426.488 175.574 426.914 175.832 427.535 176.09C428.094 175.855 428.488 175.604 428.719 175.334C428.953 175.064 429.07 174.75 429.07 174.391C429.07 173.996 428.928 173.684 428.643 173.453C428.361 173.219 427.973 173.102 427.477 173.102Z" fill="black"/>
<path d="M370.482 99H364.852V98.1621L367.107 95.8945C367.795 95.1992 368.248 94.7031 368.467 94.4062C368.686 94.1094 368.85 93.8203 368.959 93.5391C369.068 93.2578 369.123 92.9551 369.123 92.6309C369.123 92.1738 368.984 91.8125 368.707 91.5469C368.43 91.2773 368.045 91.1426 367.553 91.1426C367.197 91.1426 366.859 91.2012 366.539 91.3184C366.223 91.4355 365.869 91.6484 365.479 91.957L364.963 91.2949C365.752 90.6387 366.611 90.3105 367.541 90.3105C368.346 90.3105 368.977 90.5176 369.434 90.9316C369.891 91.3418 370.119 91.8945 370.119 92.5898C370.119 93.1328 369.967 93.6699 369.662 94.2012C369.357 94.7324 368.787 95.4043 367.951 96.2168L366.076 98.0508V98.0977H370.482V99ZM377.396 94.7051C377.396 96.1855 377.162 97.291 376.693 98.0215C376.229 98.752 375.516 99.1172 374.555 99.1172C373.633 99.1172 372.932 98.7441 372.451 97.998C371.971 97.248 371.73 96.1504 371.73 94.7051C371.73 93.2129 371.963 92.1055 372.428 91.3828C372.893 90.6602 373.602 90.2988 374.555 90.2988C375.484 90.2988 376.189 90.6758 376.67 91.4297C377.154 92.1836 377.396 93.2754 377.396 94.7051ZM372.715 94.7051C372.715 95.9512 372.861 96.8594 373.154 97.4297C373.447 97.9961 373.914 98.2793 374.555 98.2793C375.203 98.2793 375.672 97.9922 375.961 97.418C376.254 96.8398 376.4 95.9355 376.4 94.7051C376.4 93.4746 376.254 92.5742 375.961 92.0039C375.672 91.4297 375.203 91.1426 374.555 91.1426C373.914 91.1426 373.447 91.4258 373.154 91.9922C372.861 92.5547 372.715 93.459 372.715 94.7051ZM384.621 97.0312H383.35V99H382.418V97.0312H378.252V96.1816L382.318 90.3867H383.35V96.1465H384.621V97.0312ZM382.418 96.1465V93.2988C382.418 92.7402 382.438 92.1094 382.477 91.4062H382.43C382.242 91.7812 382.066 92.0918 381.902 92.3379L379.225 96.1465H382.418ZM388.289 90.3105C389.07 90.3105 389.689 90.4922 390.146 90.8555C390.604 91.2188 390.832 91.7207 390.832 92.3613C390.832 92.7832 390.701 93.168 390.439 93.5156C390.178 93.8633 389.76 94.1797 389.186 94.4648C389.881 94.7969 390.375 95.1465 390.668 95.5137C390.961 95.877 391.107 96.2988 391.107 96.7793C391.107 97.4902 390.859 98.0586 390.363 98.4844C389.867 98.9062 389.188 99.1172 388.324 99.1172C387.41 99.1172 386.707 98.918 386.215 98.5195C385.723 98.1172 385.477 97.5488 385.477 96.8145C385.477 95.834 386.074 95.0703 387.27 94.5234C386.73 94.2188 386.344 93.8906 386.109 93.5391C385.875 93.1836 385.758 92.7871 385.758 92.3496C385.758 91.7285 385.986 91.2344 386.443 90.8672C386.904 90.4961 387.52 90.3105 388.289 90.3105ZM386.438 96.8379C386.438 97.3066 386.6 97.6719 386.924 97.9336C387.252 98.1953 387.711 98.3262 388.301 98.3262C388.883 98.3262 389.336 98.1895 389.66 97.916C389.984 97.6426 390.146 97.2676 390.146 96.791C390.146 96.4121 389.994 96.0762 389.689 95.7832C389.385 95.4863 388.854 95.1992 388.096 94.9219C387.514 95.1719 387.092 95.4492 386.83 95.7539C386.568 96.0547 386.438 96.416 386.438 96.8379ZM388.277 91.1016C387.789 91.1016 387.406 91.2188 387.129 91.4531C386.852 91.6875 386.713 92 386.713 92.3906C386.713 92.75 386.828 93.0586 387.059 93.3164C387.289 93.5742 387.715 93.832 388.336 94.0898C388.895 93.8555 389.289 93.6035 389.52 93.334C389.754 93.0645 389.871 92.75 389.871 92.3906C389.871 91.9961 389.729 91.6836 389.443 91.4531C389.162 91.2188 388.773 91.1016 388.277 91.1016Z" fill="black"/>
<path d="M5.96094 29.4492C5.96094 29.9961 5.80664 30.4434 5.49805 30.791C5.19336 31.1387 4.75977 31.3711 4.19727 31.4883V31.5352C4.88477 31.6211 5.39453 31.8398 5.72656 32.1914C6.05859 32.543 6.22461 33.0039 6.22461 33.5742C6.22461 34.3906 5.94141 35.0195 5.375 35.4609C4.80859 35.8984 4.00391 36.1172 2.96094 36.1172C2.50781 36.1172 2.0918 36.082 1.71289 36.0117C1.33789 35.9453 0.972656 35.8262 0.617188 35.6543V34.7285C0.988281 34.9121 1.38281 35.0527 1.80078 35.1504C2.22266 35.2441 2.62109 35.291 2.99609 35.291C4.47656 35.291 5.2168 34.7109 5.2168 33.5508C5.2168 32.5117 4.40039 31.9922 2.76758 31.9922H1.92383V31.1543H2.7793C3.44727 31.1543 3.97656 31.0078 4.36719 30.7148C4.75781 30.418 4.95312 30.0078 4.95312 29.4844C4.95312 29.0664 4.80859 28.7383 4.51953 28.5C4.23438 28.2617 3.8457 28.1426 3.35352 28.1426C2.97852 28.1426 2.625 28.1934 2.29297 28.2949C1.96094 28.3965 1.58203 28.584 1.15625 28.8574L0.664062 28.2012C1.01562 27.9238 1.41992 27.707 1.87695 27.5508C2.33789 27.3906 2.82227 27.3105 3.33008 27.3105C4.16211 27.3105 4.80859 27.502 5.26953 27.8848C5.73047 28.2637 5.96094 28.7852 5.96094 29.4492Z" fill="black"/>
<path d="M12.33 38.0963C12.0747 37.7571 11.8021 37.5067 11.5013 37.3561C11.1912 37.2007 10.8793 37.1658 10.5808 37.2153C10.035 37.3058 9.54805 37.6869 9.1962 37.9518C8.78224 38.2633 8.50338 38.4586 8.24932 38.5007C8.14785 38.5175 8.05133 38.5079 7.94027 38.4523C7.8198 38.3919 7.65845 38.2649 7.46272 38.0049L6.66374 38.6062C6.91904 38.9454 7.19167 39.1958 7.49242 39.3464C7.80257 39.5018 8.1145 39.5367 8.41296 39.4872C8.95877 39.3967 9.44572 39.0156 9.79756 38.7507C10.2115 38.4392 10.4904 38.2439 10.7444 38.2018C10.8459 38.185 10.9424 38.1946 11.0535 38.2502C11.174 38.3105 11.3353 38.4376 11.531 38.6976L12.33 38.0963ZM6.20356 42.7074C6.00783 42.4473 5.93041 42.2571 5.90576 42.1246C5.88304 42.0025 5.90051 41.9071 5.94477 41.8143C6.05557 41.5818 6.32036 41.3679 6.73433 41.0563C7.08617 40.7915 7.58719 40.429 7.82523 39.9296C7.9554 39.6565 8.00811 39.3471 7.94466 39.006C7.88313 38.6753 7.71802 38.3441 7.46272 38.0049L6.66374 38.6062C6.85946 38.8663 6.93688 39.0565 6.96153 39.1889C6.98425 39.3111 6.96678 39.4065 6.92253 39.4993C6.81173 39.7318 6.54694 39.9457 6.13297 40.2573C5.78113 40.5221 5.28011 40.8846 5.04206 41.384C4.91189 41.6571 4.85918 41.9665 4.92264 42.3076C4.98417 42.6383 5.14928 42.9695 5.40457 43.3087L6.20356 42.7074Z" fill="black"/>
<path d="M276.488 0.310547C277.27 0.310547 277.889 0.492188 278.346 0.855469C278.803 1.21875 279.031 1.7207 279.031 2.36133C279.031 2.7832 278.9 3.16797 278.639 3.51562C278.377 3.86328 277.959 4.17969 277.385 4.46484C278.08 4.79688 278.574 5.14648 278.867 5.51367C279.16 5.87695 279.307 6.29883 279.307 6.7793C279.307 7.49023 279.059 8.05859 278.562 8.48438C278.066 8.90625 277.387 9.11719 276.523 9.11719C275.609 9.11719 274.906 8.91797 274.414 8.51953C273.922 8.11719 273.676 7.54883 273.676 6.81445C273.676 5.83398 274.273 5.07031 275.469 4.52344C274.93 4.21875 274.543 3.89062 274.309 3.53906C274.074 3.18359 273.957 2.78711 273.957 2.34961C273.957 1.72852 274.186 1.23438 274.643 0.867188C275.104 0.496094 275.719 0.310547 276.488 0.310547ZM274.637 6.83789C274.637 7.30664 274.799 7.67188 275.123 7.93359C275.451 8.19531 275.91 8.32617 276.5 8.32617C277.082 8.32617 277.535 8.18945 277.859 7.91602C278.184 7.64258 278.346 7.26758 278.346 6.79102C278.346 6.41211 278.193 6.07617 277.889 5.7832C277.584 5.48633 277.053 5.19922 276.295 4.92188C275.713 5.17188 275.291 5.44922 275.029 5.75391C274.768 6.05469 274.637 6.41602 274.637 6.83789ZM276.477 1.10156C275.988 1.10156 275.605 1.21875 275.328 1.45312C275.051 1.6875 274.912 2 274.912 2.39062C274.912 2.75 275.027 3.05859 275.258 3.31641C275.488 3.57422 275.914 3.83203 276.535 4.08984C277.094 3.85547 277.488 3.60352 277.719 3.33398C277.953 3.06445 278.07 2.75 278.07 2.39062C278.07 1.99609 277.928 1.68359 277.643 1.45312C277.361 1.21875 276.973 1.10156 276.477 1.10156Z" fill="black"/>
<path d="M289.118 9.23888C288.768 8.77355 288.362 8.46929 287.898 8.33468C287.438 8.201 286.979 8.25143 286.551 8.3895C285.726 8.65559 284.883 9.29732 284.137 9.85896C283.344 10.4558 282.647 10.9725 282.017 11.1757C281.718 11.2723 281.47 11.2842 281.256 11.2219C281.044 11.1605 280.807 11.0103 280.556 10.6767L279.757 11.278C280.107 11.7434 280.513 12.0476 280.977 12.1822C281.437 12.3159 281.896 12.2655 282.324 12.1274C283.149 11.8613 283.992 11.2196 284.738 10.6579C285.531 10.0612 286.228 9.54445 286.858 9.34121C287.157 9.24461 287.405 9.23266 287.619 9.295C287.831 9.35641 288.068 9.50658 288.319 9.84023L289.118 9.23888ZM276.805 18.5063C276.554 18.1727 276.475 17.9031 276.475 17.683C276.474 17.4594 276.554 17.225 276.73 16.964C277.099 16.4147 277.789 15.8885 278.582 15.2917C279.328 14.73 280.178 14.0979 280.662 13.3788C280.913 13.0057 281.088 12.5785 281.087 12.0992C281.086 11.6165 280.906 11.142 280.556 10.6767L279.757 11.278C280.008 11.6117 280.087 11.8812 280.087 12.1014C280.088 12.3249 280.008 12.5594 279.832 12.8204C279.462 13.3696 278.773 13.8959 277.98 14.4927C277.234 15.0543 276.384 15.6865 275.9 16.4056C275.649 16.7787 275.474 17.2059 275.475 17.6852C275.476 18.1678 275.656 18.6423 276.006 19.1077L276.805 18.5063Z" fill="black"/>
<path d="M142.416 49H136.785V48.1621L139.041 45.8945C139.729 45.1992 140.182 44.7031 140.4 44.4062C140.619 44.1094 140.783 43.8203 140.893 43.5391C141.002 43.2578 141.057 42.9551 141.057 42.6309C141.057 42.1738 140.918 41.8125 140.641 41.5469C140.363 41.2773 139.979 41.1426 139.486 41.1426C139.131 41.1426 138.793 41.2012 138.473 41.3184C138.156 41.4355 137.803 41.6484 137.412 41.957L136.896 41.2949C137.686 40.6387 138.545 40.3105 139.475 40.3105C140.279 40.3105 140.91 40.5176 141.367 40.9316C141.824 41.3418 142.053 41.8945 142.053 42.5898C142.053 43.1328 141.9 43.6699 141.596 44.2012C141.291 44.7324 140.721 45.4043 139.885 46.2168L138.01 48.0508V48.0977H142.416V49ZM146.33 43.7676C147.232 43.7676 147.941 43.9922 148.457 44.4414C148.977 44.8867 149.236 45.498 149.236 46.2754C149.236 47.1621 148.953 47.8574 148.387 48.3613C147.824 48.8652 147.047 49.1172 146.055 49.1172C145.09 49.1172 144.354 48.9629 143.846 48.6543V47.7168C144.119 47.8926 144.459 48.0312 144.865 48.1328C145.271 48.2305 145.672 48.2793 146.066 48.2793C146.754 48.2793 147.287 48.1172 147.666 47.793C148.049 47.4688 148.24 47 148.24 46.3867C148.24 45.1914 147.508 44.5938 146.043 44.5938C145.672 44.5938 145.176 44.6504 144.555 44.7637L144.051 44.4414L144.373 40.4336H148.633V41.3301H145.205L144.988 43.9023C145.438 43.8125 145.885 43.7676 146.33 43.7676ZM150.619 45.3379C150.619 43.6543 150.945 42.3965 151.598 41.5645C152.254 40.7285 153.223 40.3105 154.504 40.3105C154.945 40.3105 155.293 40.3477 155.547 40.4219V41.2598C155.246 41.1621 154.902 41.1133 154.516 41.1133C153.598 41.1133 152.896 41.4004 152.412 41.9746C151.928 42.5449 151.662 43.4434 151.615 44.6699H151.686C152.115 43.998 152.795 43.6621 153.725 43.6621C154.494 43.6621 155.1 43.8945 155.541 44.3594C155.986 44.8242 156.209 45.4551 156.209 46.252C156.209 47.1426 155.965 47.8438 155.477 48.3555C154.992 48.8633 154.336 49.1172 153.508 49.1172C152.621 49.1172 151.918 48.7852 151.398 48.1211C150.879 47.4531 150.619 46.5254 150.619 45.3379ZM153.496 48.291C154.051 48.291 154.48 48.1172 154.785 47.7695C155.094 47.418 155.248 46.9121 155.248 46.252C155.248 45.6855 155.105 45.2402 154.82 44.916C154.535 44.5918 154.109 44.4297 153.543 44.4297C153.191 44.4297 152.869 44.502 152.576 44.6465C152.283 44.791 152.049 44.9902 151.873 45.2441C151.701 45.498 151.615 45.7617 151.615 46.0352C151.615 46.4375 151.693 46.8125 151.85 47.1602C152.006 47.5078 152.227 47.7832 152.512 47.9863C152.801 48.1895 153.129 48.291 153.496 48.291Z" fill="black"/>
<path d="M167.471 48.1885C167.046 47.6236 166.437 47.4325 165.787 47.4818C165.166 47.5289 164.48 47.7934 163.783 48.1568C162.385 48.8859 160.744 50.1229 159.152 51.3212C157.536 52.5376 155.968 53.7154 154.66 54.3978C154.003 54.7402 153.461 54.9306 153.042 54.9624C152.652 54.9919 152.409 54.8855 152.233 54.6515L151.434 55.2528C151.859 55.8177 152.468 56.0087 153.118 55.9595C153.739 55.9124 154.425 55.6479 155.122 55.2845C156.52 54.5554 158.161 53.3184 159.753 52.1201C161.369 50.9037 162.937 49.7259 164.245 49.0435C164.902 48.7011 165.444 48.5106 165.863 48.4789C166.253 48.4494 166.496 48.5557 166.672 48.7898L167.471 48.1885ZM141.805 67.5063C141.629 67.2722 141.594 67.0091 141.73 66.6424C141.877 66.2488 142.21 65.7806 142.72 65.2444C143.738 64.1757 145.304 62.9955 146.92 61.7791C148.512 60.5808 150.155 59.3462 151.242 58.2044C151.784 57.6353 152.229 57.0493 152.446 56.4653C152.673 55.8543 152.658 55.2164 152.233 54.6515L151.434 55.2528C151.61 55.4869 151.645 55.7501 151.508 56.1167C151.362 56.5103 151.029 56.9785 150.518 57.5147C149.5 58.5834 147.935 59.7636 146.319 60.9801C144.727 62.1783 143.084 63.4129 141.996 64.5547C141.454 65.1238 141.01 65.7098 140.793 66.2939C140.566 66.9049 140.581 67.5428 141.006 68.1077L141.805 67.5063Z" fill="black"/>
<path d="M145 72.5238L170.882 53H233V115.476L207.118 135H145V72.5238Z" fill="white"/>
<path d="M145 72.5238L170.882 53H233M145 72.5238H207.118M145 72.5238V135H207.118M233 53L207.118 72.5238M233 53V115.476L207.118 135M207.118 72.5238V135" stroke="#6EDB9A" stroke-width="2"/>
<path d="M9 46.4366L14.8889 42L115 42V142.563L109.111 147H9V46.4366Z" fill="white"/>
<path d="M9 46.4366L14.8889 42L115 42M9 46.4366H109.111M9 46.4366V147H109.111M115 42L109.111 46.4366M115 42V142.563L109.111 147M109.111 46.4366V147" stroke="black" stroke-width="2"/>
<path d="M90 126H62V98L66 95H94V123L90 126Z" fill="#CEB7FF"/>
<path d="M62 98V126H90M62 98L66 95H94M62 98H90M90 98V126M90 98L94 95M90 126L94 123V95" stroke="#9462FF"/>
<path d="M161 124V116H153V124H161Z" fill="#CEB7FF" stroke="#9462FF"/>
<path d="M71.416 111.09C71.416 114.441 70.1191 116.117 67.5254 116.117C67.0723 116.117 66.7129 116.078 66.4473 116V115.162C66.7598 115.264 67.1152 115.314 67.5137 115.314C68.4512 115.314 69.1582 115.025 69.6348 114.447C70.1152 113.865 70.377 112.975 70.4199 111.775H70.3496C70.1348 112.1 69.8496 112.348 69.4941 112.52C69.1387 112.688 68.7383 112.771 68.293 112.771C67.5352 112.771 66.9336 112.545 66.4883 112.092C66.043 111.639 65.8203 111.006 65.8203 110.193C65.8203 109.303 66.0684 108.6 66.5645 108.084C67.0645 107.568 67.7207 107.311 68.5332 107.311C69.1152 107.311 69.623 107.461 70.0566 107.762C70.4941 108.059 70.8301 108.494 71.0645 109.068C71.2988 109.639 71.416 110.312 71.416 111.09ZM68.5332 108.143C67.9746 108.143 67.543 108.322 67.2383 108.682C66.9336 109.041 66.7812 109.541 66.7812 110.182C66.7812 110.744 66.9219 111.188 67.2031 111.512C67.4844 111.832 67.9121 111.992 68.4863 111.992C68.8418 111.992 69.168 111.92 69.4648 111.775C69.7656 111.631 70.002 111.434 70.1738 111.184C70.3457 110.934 70.4316 110.672 70.4316 110.398C70.4316 109.988 70.3516 109.609 70.1914 109.262C70.0312 108.914 69.8066 108.641 69.5176 108.441C69.2324 108.242 68.9043 108.143 68.5332 108.143ZM77.5742 109.109L78.1367 109.689L76.0742 111.764L78.125 113.826L77.5625 114.406L75.4883 112.35L73.4492 114.406L72.8574 113.826L74.9082 111.764L72.8457 109.701L73.4316 109.109L75.5 111.189L77.5742 109.109ZM85.1504 111.09C85.1504 114.441 83.8535 116.117 81.2598 116.117C80.8066 116.117 80.4473 116.078 80.1816 116V115.162C80.4941 115.264 80.8496 115.314 81.248 115.314C82.1855 115.314 82.8926 115.025 83.3691 114.447C83.8496 113.865 84.1113 112.975 84.1543 111.775H84.084C83.8691 112.1 83.584 112.348 83.2285 112.52C82.873 112.688 82.4727 112.771 82.0273 112.771C81.2695 112.771 80.668 112.545 80.2227 112.092C79.7773 111.639 79.5547 111.006 79.5547 110.193C79.5547 109.303 79.8027 108.6 80.2988 108.084C80.7988 107.568 81.4551 107.311 82.2676 107.311C82.8496 107.311 83.3574 107.461 83.791 107.762C84.2285 108.059 84.5645 108.494 84.7988 109.068C85.0332 109.639 85.1504 110.312 85.1504 111.09ZM82.2676 108.143C81.709 108.143 81.2773 108.322 80.9727 108.682C80.668 109.041 80.5156 109.541 80.5156 110.182C80.5156 110.744 80.6562 111.188 80.9375 111.512C81.2188 111.832 81.6465 111.992 82.2207 111.992C82.5762 111.992 82.9023 111.92 83.1992 111.775C83.5 111.631 83.7363 111.434 83.9082 111.184C84.0801 110.934 84.166 110.672 84.166 110.398C84.166 109.988 84.0859 109.609 83.9258 109.262C83.7656 108.914 83.541 108.641 83.252 108.441C82.9668 108.242 82.6387 108.143 82.2676 108.143Z" fill="black"/>
<line x1="156.881" y1="116.356" x2="93.8814" y2="95.3558" stroke="black" stroke-width="0.75" stroke-dasharray="2 3"/>
<line x1="89.9888" y1="125.625" x2="156.989" y2="123.625" stroke="black" stroke-width="0.75" stroke-dasharray="2 3"/>
<path d="M279 22L291 13H324V47L312.056 56H279V22Z" fill="white"/>
<path d="M279 22L291 13H324M279 22H312.056M279 22V56H312.056M324 13L312.056 22M324 13V47L312.056 56M312.056 22V56" stroke="#6EDB9A" stroke-width="2"/>
<path d="M279 70L291 61H324V95L312.056 104H279V70Z" fill="white"/>
<path d="M279 70L291 61H324M279 70H312.056M279 70V104H312.056M324 61L312.056 70M324 61V95L312.056 104M312.056 70V104" stroke="#6EDB9A" stroke-width="2"/>
<path d="M279 143L291 134H324V168L312.056 177H279V143Z" fill="white"/>
<path d="M279 143L291 134H324M279 143H312.056M279 143V177H312.056M324 134L312.056 143M324 134V168L312.056 177M312.056 143V177" stroke="#6EDB9A" stroke-width="2"/>
<circle cx="302" cy="111" r="2" fill="black"/>
<circle cx="302" cy="119" r="2" fill="black"/>
<circle cx="302" cy="127" r="2" fill="black"/>
<line x1="279.21" y1="22.311" x2="233.21" y2="53.311" stroke="black" stroke-width="0.75" stroke-dasharray="2 3"/>
<line x1="207.189" y1="134.676" x2="279.189" y2="176.676" stroke="black" stroke-width="0.75" stroke-dasharray="2 3"/>
<rect x="407" y="35" width="40" height="120" fill="white" stroke="#32ACF1" stroke-width="2"/>
<path d="M354.354 95.3536C354.549 95.1583 354.549 94.8417 354.354 94.6464L351.172 91.4645C350.976 91.2692 350.66 91.2692 350.464 91.4645C350.269 91.6597 350.269 91.9763 350.464 92.1716L353.293 95L350.464 97.8284C350.269 98.0237 350.269 98.3403 350.464 98.5355C350.66 98.7308 350.976 98.7308 351.172 98.5355L354.354 95.3536ZM334 95.5H354V94.5H334V95.5Z" fill="black"/>
<path d="M485 28.9727V28.1699H490.449V28.9727H485ZM485 31.3691V30.5664H490.449V31.3691H485ZM498.402 36.2148H495.477V24.0059H498.402V24.6484H496.146V35.5654H498.402V36.2148ZM502.18 25.3105C502.961 25.3105 503.58 25.4922 504.037 25.8555C504.494 26.2188 504.723 26.7207 504.723 27.3613C504.723 27.7832 504.592 28.168 504.33 28.5156C504.068 28.8633 503.65 29.1797 503.076 29.4648C503.771 29.7969 504.266 30.1465 504.559 30.5137C504.852 30.877 504.998 31.2988 504.998 31.7793C504.998 32.4902 504.75 33.0586 504.254 33.4844C503.758 33.9062 503.078 34.1172 502.215 34.1172C501.301 34.1172 500.598 33.918 500.105 33.5195C499.613 33.1172 499.367 32.5488 499.367 31.8145C499.367 30.834 499.965 30.0703 501.16 29.5234C500.621 29.2188 500.234 28.8906 500 28.5391C499.766 28.1836 499.648 27.7871 499.648 27.3496C499.648 26.7285 499.877 26.2344 500.334 25.8672C500.795 25.4961 501.41 25.3105 502.18 25.3105ZM500.328 31.8379C500.328 32.3066 500.49 32.6719 500.814 32.9336C501.143 33.1953 501.602 33.3262 502.191 33.3262C502.773 33.3262 503.227 33.1895 503.551 32.916C503.875 32.6426 504.037 32.2676 504.037 31.791C504.037 31.4121 503.885 31.0762 503.58 30.7832C503.275 30.4863 502.744 30.1992 501.986 29.9219C501.404 30.1719 500.982 30.4492 500.721 30.7539C500.459 31.0547 500.328 31.416 500.328 31.8379ZM502.168 26.1016C501.68 26.1016 501.297 26.2188 501.02 26.4531C500.742 26.6875 500.604 27 500.604 27.3906C500.604 27.75 500.719 28.0586 500.949 28.3164C501.18 28.5742 501.605 28.832 502.227 29.0898C502.785 28.8555 503.18 28.6035 503.41 28.334C503.645 28.0645 503.762 27.75 503.762 27.3906C503.762 26.9961 503.619 26.6836 503.334 26.4531C503.053 26.2188 502.664 26.1016 502.168 26.1016ZM511.133 27.1094L511.695 27.6895L509.633 29.7637L511.684 31.8262L511.121 32.4062L509.047 30.3496L507.008 32.4062L506.416 31.8262L508.467 29.7637L506.404 27.7012L506.99 27.1094L509.059 29.1895L511.133 27.1094ZM516.682 34H515.732V27.8945C515.732 27.3867 515.748 26.9062 515.779 26.4531C515.697 26.5352 515.605 26.6211 515.504 26.7109C515.402 26.8008 514.938 27.1816 514.109 27.8535L513.594 27.1855L515.861 25.4336H516.682V34ZM520.045 30.3379C520.045 28.6543 520.371 27.3965 521.023 26.5645C521.68 25.7285 522.648 25.3105 523.93 25.3105C524.371 25.3105 524.719 25.3477 524.973 25.4219V26.2598C524.672 26.1621 524.328 26.1133 523.941 26.1133C523.023 26.1133 522.322 26.4004 521.838 26.9746C521.354 27.5449 521.088 28.4434 521.041 29.6699H521.111C521.541 28.998 522.221 28.6621 523.15 28.6621C523.92 28.6621 524.525 28.8945 524.967 29.3594C525.412 29.8242 525.635 30.4551 525.635 31.252C525.635 32.1426 525.391 32.8438 524.902 33.3555C524.418 33.8633 523.762 34.1172 522.934 34.1172C522.047 34.1172 521.344 33.7852 520.824 33.1211C520.305 32.4531 520.045 31.5254 520.045 30.3379ZM522.922 33.291C523.477 33.291 523.906 33.1172 524.211 32.7695C524.52 32.418 524.674 31.9121 524.674 31.252C524.674 30.6855 524.531 30.2402 524.246 29.916C523.961 29.5918 523.535 29.4297 522.969 29.4297C522.617 29.4297 522.295 29.502 522.002 29.6465C521.709 29.791 521.475 29.9902 521.299 30.2441C521.127 30.498 521.041 30.7617 521.041 31.0352C521.041 31.4375 521.119 31.8125 521.275 32.1602C521.432 32.5078 521.652 32.7832 521.938 32.9863C522.227 33.1895 522.555 33.291 522.922 33.291ZM526.575 35.5654H528.831V24.6484H526.575V24.0059H529.501V36.2148H526.575V35.5654Z" fill="black"/>
<path d="M470.549 25.8865C470.641 25.6483 470.668 25.5689 471.779 25.5689V25C471.118 25.0265 471.091 25.0265 470.337 25.0265C469.953 25.0265 468.987 25.0265 468.67 25V25.5689C468.829 25.5689 469.993 25.5689 469.993 25.7541C469.993 25.7674 469.993 25.7939 469.94 25.9129L467.717 31.814L465.349 25.5689H466.606V25C466.182 25.0265 464.952 25.0265 464.449 25.0265C464.039 25.0265 462.756 25.0265 462.438 25V25.5689H463.549L464.092 26.9979L462.279 31.814L459.924 25.5689H461.168V25C460.784 25.0265 459.487 25.0265 459.011 25.0265C458.588 25.0265 457.331 25.0265 457 25V25.5689H458.111L461.26 33.8781C461.34 34.103 461.38 34.1956 461.671 34.1956C461.962 34.1956 462.001 34.103 462.081 33.8913L464.383 27.7917L466.698 33.8913C466.778 34.103 466.817 34.1956 467.109 34.1956C467.36 34.1956 467.426 34.1427 467.519 33.8913L470.549 25.8865Z" fill="black"/>
<path d="M475.148 35.1728C475.148 35.1176 475.104 35.0735 475.038 35.0735C474.938 35.0735 474.927 35.1066 474.872 35.2941C474.585 36.2978 474.133 36.6397 473.769 36.6397C473.637 36.6397 473.482 36.6066 473.482 36.2757C473.482 35.9779 473.615 35.647 473.736 35.3162L474.508 33.2647C474.541 33.1764 474.619 32.9779 474.619 32.7683C474.619 32.3051 474.288 31.886 473.747 31.886C472.732 31.886 472.324 33.4853 472.324 33.5735C472.324 33.6176 472.369 33.6728 472.446 33.6728C472.545 33.6728 472.556 33.6286 472.6 33.4742C472.865 32.5478 473.284 32.1066 473.714 32.1066C473.813 32.1066 474.001 32.1176 474.001 32.4705C474.001 32.7573 473.858 33.1213 473.769 33.3639L472.997 35.4154C472.931 35.5919 472.865 35.7684 472.865 35.9669C472.865 36.4632 473.207 36.8603 473.736 36.8603C474.751 36.8603 475.148 35.25 475.148 35.1728ZM475.06 29.8676C475.06 29.7021 474.927 29.5036 474.685 29.5036C474.431 29.5036 474.144 29.7463 474.144 30.033C474.144 30.3088 474.376 30.397 474.508 30.397C474.806 30.397 475.06 30.1103 475.06 29.8676Z" fill="black"/>
<path d="M479.557 33.2536C479.601 33.0772 479.601 32.9228 479.601 32.8786C479.601 32.2389 479.127 31.886 478.631 31.886C477.517 31.886 476.921 33.4963 476.921 33.5735C476.921 33.6286 476.965 33.6728 477.031 33.6728C477.12 33.6728 477.131 33.6286 477.186 33.5183C477.627 32.4485 478.179 32.1066 478.598 32.1066C478.829 32.1066 478.951 32.2279 478.951 32.6139C478.951 32.8786 478.918 32.9889 478.873 33.1875L477.826 37.3456C477.616 38.1618 477.098 38.7794 476.491 38.7794C476.447 38.7794 476.215 38.7794 476.006 38.6691C476.27 38.614 476.48 38.4044 476.48 38.1397C476.48 37.9632 476.348 37.7868 476.105 37.7868C475.818 37.7868 475.554 38.0294 475.554 38.3603C475.554 38.8125 476.039 39 476.491 39C477.252 39 478.256 38.4375 478.531 37.3345L479.557 33.2536ZM480.009 29.8676C480.009 29.5918 479.778 29.5036 479.645 29.5036C479.348 29.5036 479.094 29.7904 479.094 30.033C479.094 30.1985 479.226 30.397 479.469 30.397C479.723 30.397 480.009 30.1543 480.009 29.8676Z" fill="black"/>
<path d="M184.832 20.9727V20.1699H190.281V20.9727H184.832ZM184.832 23.3691V22.5664H190.281V23.3691H184.832ZM198.234 28.2148H195.309V16.0059H198.234V16.6484H195.979V27.5654H198.234V28.2148ZM204.807 21.0898C204.807 24.4414 203.51 26.1172 200.916 26.1172C200.463 26.1172 200.104 26.0781 199.838 26V25.1621C200.15 25.2637 200.506 25.3145 200.904 25.3145C201.842 25.3145 202.549 25.0254 203.025 24.4473C203.506 23.8652 203.768 22.9746 203.811 21.7754H203.74C203.525 22.0996 203.24 22.3477 202.885 22.5195C202.529 22.6875 202.129 22.7715 201.684 22.7715C200.926 22.7715 200.324 22.5449 199.879 22.0918C199.434 21.6387 199.211 21.0059 199.211 20.1934C199.211 19.3027 199.459 18.5996 199.955 18.084C200.455 17.5684 201.111 17.3105 201.924 17.3105C202.506 17.3105 203.014 17.4609 203.447 17.7617C203.885 18.0586 204.221 18.4941 204.455 19.0684C204.689 19.6387 204.807 20.3125 204.807 21.0898ZM201.924 18.1426C201.365 18.1426 200.934 18.3223 200.629 18.6816C200.324 19.041 200.172 19.541 200.172 20.1816C200.172 20.7441 200.312 21.1875 200.594 21.5117C200.875 21.832 201.303 21.9922 201.877 21.9922C202.232 21.9922 202.559 21.9199 202.855 21.7754C203.156 21.6309 203.393 21.4336 203.564 21.1836C203.736 20.9336 203.822 20.6719 203.822 20.3984C203.822 19.9883 203.742 19.6094 203.582 19.2617C203.422 18.9141 203.197 18.6406 202.908 18.4414C202.623 18.2422 202.295 18.1426 201.924 18.1426ZM210.965 19.1094L211.527 19.6895L209.465 21.7637L211.516 23.8262L210.953 24.4062L208.879 22.3496L206.84 24.4062L206.248 23.8262L208.299 21.7637L206.236 19.7012L206.822 19.1094L208.891 21.1895L210.965 19.1094ZM218.541 21.0898C218.541 24.4414 217.244 26.1172 214.65 26.1172C214.197 26.1172 213.838 26.0781 213.572 26V25.1621C213.885 25.2637 214.24 25.3145 214.639 25.3145C215.576 25.3145 216.283 25.0254 216.76 24.4473C217.24 23.8652 217.502 22.9746 217.545 21.7754H217.475C217.26 22.0996 216.975 22.3477 216.619 22.5195C216.264 22.6875 215.863 22.7715 215.418 22.7715C214.66 22.7715 214.059 22.5449 213.613 22.0918C213.168 21.6387 212.945 21.0059 212.945 20.1934C212.945 19.3027 213.193 18.5996 213.689 18.084C214.189 17.5684 214.846 17.3105 215.658 17.3105C216.24 17.3105 216.748 17.4609 217.182 17.7617C217.619 18.0586 217.955 18.4941 218.189 19.0684C218.424 19.6387 218.541 20.3125 218.541 21.0898ZM215.658 18.1426C215.1 18.1426 214.668 18.3223 214.363 18.6816C214.059 19.041 213.906 19.541 213.906 20.1816C213.906 20.7441 214.047 21.1875 214.328 21.5117C214.609 21.832 215.037 21.9922 215.611 21.9922C215.967 21.9922 216.293 21.9199 216.59 21.7754C216.891 21.6309 217.127 21.4336 217.299 21.1836C217.471 20.9336 217.557 20.6719 217.557 20.3984C217.557 19.9883 217.477 19.6094 217.316 19.2617C217.156 18.9141 216.932 18.6406 216.643 18.4414C216.357 18.2422 216.029 18.1426 215.658 18.1426ZM224.699 19.1094L225.262 19.6895L223.199 21.7637L225.25 23.8262L224.688 24.4062L222.613 22.3496L220.574 24.4062L219.982 23.8262L222.033 21.7637L219.971 19.7012L220.557 19.1094L222.625 21.1895L224.699 19.1094ZM232.275 26H226.645V25.1621L228.9 22.8945C229.588 22.1992 230.041 21.7031 230.26 21.4062C230.479 21.1094 230.643 20.8203 230.752 20.5391C230.861 20.2578 230.916 19.9551 230.916 19.6309C230.916 19.1738 230.777 18.8125 230.5 18.5469C230.223 18.2773 229.838 18.1426 229.346 18.1426C228.99 18.1426 228.652 18.2012 228.332 18.3184C228.016 18.4355 227.662 18.6484 227.271 18.957L226.756 18.2949C227.545 17.6387 228.404 17.3105 229.334 17.3105C230.139 17.3105 230.77 17.5176 231.227 17.9316C231.684 18.3418 231.912 18.8945 231.912 19.5898C231.912 20.1328 231.76 20.6699 231.455 21.2012C231.15 21.7324 230.58 22.4043 229.744 23.2168L227.869 25.0508V25.0977H232.275V26ZM236.189 20.7676C237.092 20.7676 237.801 20.9922 238.316 21.4414C238.836 21.8867 239.096 22.498 239.096 23.2754C239.096 24.1621 238.812 24.8574 238.246 25.3613C237.684 25.8652 236.906 26.1172 235.914 26.1172C234.949 26.1172 234.213 25.9629 233.705 25.6543V24.7168C233.979 24.8926 234.318 25.0312 234.725 25.1328C235.131 25.2305 235.531 25.2793 235.926 25.2793C236.613 25.2793 237.146 25.1172 237.525 24.793C237.908 24.4688 238.1 24 238.1 23.3867C238.1 22.1914 237.367 21.5938 235.902 21.5938C235.531 21.5938 235.035 21.6504 234.414 21.7637L233.91 21.4414L234.232 17.4336H238.492V18.3301H235.064L234.848 20.9023C235.297 20.8125 235.744 20.7676 236.189 20.7676ZM240.479 22.3379C240.479 20.6543 240.805 19.3965 241.457 18.5645C242.113 17.7285 243.082 17.3105 244.363 17.3105C244.805 17.3105 245.152 17.3477 245.406 17.4219V18.2598C245.105 18.1621 244.762 18.1133 244.375 18.1133C243.457 18.1133 242.756 18.4004 242.271 18.9746C241.787 19.5449 241.521 20.4434 241.475 21.6699H241.545C241.975 20.998 242.654 20.6621 243.584 20.6621C244.354 20.6621 244.959 20.8945 245.4 21.3594C245.846 21.8242 246.068 22.4551 246.068 23.252C246.068 24.1426 245.824 24.8438 245.336 25.3555C244.852 25.8633 244.195 26.1172 243.367 26.1172C242.48 26.1172 241.777 25.7852 241.258 25.1211C240.738 24.4531 240.479 23.5254 240.479 22.3379ZM243.355 25.291C243.91 25.291 244.34 25.1172 244.645 24.7695C244.953 24.418 245.107 23.9121 245.107 23.252C245.107 22.6855 244.965 22.2402 244.68 21.916C244.395 21.5918 243.969 21.4297 243.402 21.4297C243.051 21.4297 242.729 21.502 242.436 21.6465C242.143 21.791 241.908 21.9902 241.732 22.2441C241.561 22.498 241.475 22.7617 241.475 23.0352C241.475 23.4375 241.553 23.8125 241.709 24.1602C241.865 24.5078 242.086 24.7832 242.371 24.9863C242.66 25.1895 242.988 25.291 243.355 25.291ZM252.168 19.1094L252.73 19.6895L250.668 21.7637L252.719 23.8262L252.156 24.4062L250.082 22.3496L248.043 24.4062L247.451 23.8262L249.502 21.7637L247.439 19.7012L248.025 19.1094L250.094 21.1895L252.168 19.1094ZM256.949 17.3105C257.73 17.3105 258.35 17.4922 258.807 17.8555C259.264 18.2188 259.492 18.7207 259.492 19.3613C259.492 19.7832 259.361 20.168 259.1 20.5156C258.838 20.8633 258.42 21.1797 257.846 21.4648C258.541 21.7969 259.035 22.1465 259.328 22.5137C259.621 22.877 259.768 23.2988 259.768 23.7793C259.768 24.4902 259.52 25.0586 259.023 25.4844C258.527 25.9062 257.848 26.1172 256.984 26.1172C256.07 26.1172 255.367 25.918 254.875 25.5195C254.383 25.1172 254.137 24.5488 254.137 23.8145C254.137 22.834 254.734 22.0703 255.93 21.5234C255.391 21.2188 255.004 20.8906 254.77 20.5391C254.535 20.1836 254.418 19.7871 254.418 19.3496C254.418 18.7285 254.646 18.2344 255.104 17.8672C255.564 17.4961 256.18 17.3105 256.949 17.3105ZM255.098 23.8379C255.098 24.3066 255.26 24.6719 255.584 24.9336C255.912 25.1953 256.371 25.3262 256.961 25.3262C257.543 25.3262 257.996 25.1895 258.32 24.916C258.645 24.6426 258.807 24.2676 258.807 23.791C258.807 23.4121 258.654 23.0762 258.35 22.7832C258.045 22.4863 257.514 22.1992 256.756 21.9219C256.174 22.1719 255.752 22.4492 255.49 22.7539C255.229 23.0547 255.098 23.416 255.098 23.8379ZM256.938 18.1016C256.449 18.1016 256.066 18.2188 255.789 18.4531C255.512 18.6875 255.373 19 255.373 19.3906C255.373 19.75 255.488 20.0586 255.719 20.3164C255.949 20.5742 256.375 20.832 256.996 21.0898C257.555 20.8555 257.949 20.6035 258.18 20.334C258.414 20.0645 258.531 19.75 258.531 19.3906C258.531 18.9961 258.389 18.6836 258.104 18.4531C257.822 18.2188 257.434 18.1016 256.938 18.1016ZM260.743 27.5654H262.999V16.6484H260.743V16.0059H263.669V28.2148H260.743V27.5654Z" fill="black"/>
<path d="M171.549 17.8865C171.641 17.6483 171.668 17.5689 172.779 17.5689V17C172.118 17.0265 172.091 17.0265 171.337 17.0265C170.953 17.0265 169.987 17.0265 169.67 17V17.5689C169.829 17.5689 170.993 17.5689 170.993 17.7541C170.993 17.7674 170.993 17.7939 170.94 17.9129L168.717 23.814L166.349 17.5689H167.606V17C167.182 17.0265 165.952 17.0265 165.449 17.0265C165.039 17.0265 163.756 17.0265 163.438 17V17.5689H164.549L165.092 18.9979L163.279 23.814L160.924 17.5689H162.168V17C161.784 17.0265 160.487 17.0265 160.011 17.0265C159.588 17.0265 158.331 17.0265 158 17V17.5689H159.111L162.26 25.8781C162.34 26.103 162.38 26.1956 162.671 26.1956C162.962 26.1956 163.001 26.103 163.081 25.8913L165.383 19.7917L167.698 25.8913C167.778 26.103 167.817 26.1956 168.109 26.1956C168.36 26.1956 168.426 26.1427 168.519 25.8913L171.549 17.8865Z" fill="black"/>
<path d="M176.148 27.1728C176.148 27.1176 176.104 27.0735 176.038 27.0735C175.938 27.0735 175.927 27.1066 175.872 27.2941C175.585 28.2978 175.133 28.6397 174.769 28.6397C174.637 28.6397 174.482 28.6066 174.482 28.2757C174.482 27.9779 174.615 27.647 174.736 27.3162L175.508 25.2647C175.541 25.1764 175.619 24.9779 175.619 24.7683C175.619 24.3051 175.288 23.886 174.747 23.886C173.732 23.886 173.324 25.4853 173.324 25.5735C173.324 25.6176 173.369 25.6728 173.446 25.6728C173.545 25.6728 173.556 25.6286 173.6 25.4742C173.865 24.5478 174.284 24.1066 174.714 24.1066C174.813 24.1066 175.001 24.1176 175.001 24.4705C175.001 24.7573 174.858 25.1213 174.769 25.3639L173.997 27.4154C173.931 27.5919 173.865 27.7684 173.865 27.9669C173.865 28.4632 174.207 28.8603 174.736 28.8603C175.751 28.8603 176.148 27.25 176.148 27.1728ZM176.06 21.8676C176.06 21.7021 175.927 21.5036 175.685 21.5036C175.431 21.5036 175.144 21.7463 175.144 22.033C175.144 22.3088 175.376 22.397 175.508 22.397C175.806 22.397 176.06 22.1103 176.06 21.8676Z" fill="black"/>
<path d="M180.557 25.2536C180.601 25.0772 180.601 24.9228 180.601 24.8786C180.601 24.2389 180.127 23.886 179.631 23.886C178.517 23.886 177.921 25.4963 177.921 25.5735C177.921 25.6286 177.965 25.6728 178.031 25.6728C178.12 25.6728 178.131 25.6286 178.186 25.5183C178.627 24.4485 179.179 24.1066 179.598 24.1066C179.829 24.1066 179.951 24.2279 179.951 24.6139C179.951 24.8786 179.918 24.9889 179.873 25.1875L178.826 29.3456C178.616 30.1618 178.098 30.7794 177.491 30.7794C177.447 30.7794 177.215 30.7794 177.006 30.6691C177.27 30.614 177.48 30.4044 177.48 30.1397C177.48 29.9632 177.348 29.7868 177.105 29.7868C176.818 29.7868 176.554 30.0294 176.554 30.3603C176.554 30.8125 177.039 31 177.491 31C178.252 31 179.256 30.4375 179.531 29.3345L180.557 25.2536ZM181.009 21.8676C181.009 21.5918 180.778 21.5036 180.645 21.5036C180.348 21.5036 180.094 21.7904 180.094 22.033C180.094 22.1985 180.226 22.397 180.469 22.397C180.723 22.397 181.009 22.1543 181.009 21.8676Z" fill="black"/>
<path d="M510.5 140C510.5 141.161 510.983 142.052 511.807 142.705C512.607 143.338 513.712 143.733 514.962 143.99C517.46 144.502 520.768 144.5 524 144.5C527.268 144.5 530.46 144.502 532.837 144.99C534.025 145.233 534.951 145.588 535.573 146.08C536.17 146.552 536.5 147.161 536.5 148L537.5 148C537.5 146.839 537.017 145.948 536.193 145.295C535.393 144.662 534.288 144.267 533.038 144.01C530.54 143.498 527.232 143.5 524 143.5C520.732 143.5 517.54 143.498 515.163 143.01C513.975 142.767 513.049 142.412 512.427 141.92C511.83 141.448 511.5 140.839 511.5 140L510.5 140ZM562.5 140C562.5 140.839 562.17 141.448 561.573 141.92C560.951 142.412 560.025 142.767 558.837 143.01C556.46 143.498 553.268 143.5 550 143.5C546.768 143.5 543.46 143.498 540.962 144.01C539.712 144.267 538.607 144.662 537.807 145.295C536.983 145.948 536.5 146.839 536.5 148L537.5 148C537.5 147.161 537.83 146.552 538.427 146.08C539.049 145.588 539.975 145.233 541.163 144.99C543.54 144.502 546.732 144.5 550 144.5C553.232 144.5 556.54 144.502 559.038 143.99C560.288 143.733 561.393 143.338 562.193 142.705C563.017 142.052 563.5 141.161 563.5 140L562.5 140Z" fill="black"/>
<path d="M506 54.5C504.738 54.5 503.85 55.3091 503.243 56.4901C502.64 57.6616 502.257 59.293 502.004 61.1839C501.499 64.9742 501.5 70.0123 501.5 75C501.5 80.0123 501.499 84.9742 501.004 88.6839C500.757 90.543 500.39 92.0366 499.868 93.0526C499.35 94.0591 498.738 94.5 498 94.5L498 95.5C499.262 95.5 500.15 94.6909 500.757 93.5099C501.36 92.3384 501.743 90.707 501.996 88.8161C502.501 85.0258 502.5 79.9877 502.5 75C502.5 69.9877 502.501 65.0258 502.996 61.3161C503.243 59.457 503.61 57.9634 504.132 56.9474C504.65 55.9409 505.262 55.5 506 55.5L506 54.5ZM506 134.5C505.262 134.5 504.65 134.059 504.132 133.053C503.61 132.037 503.243 130.543 502.996 128.684C502.501 124.974 502.5 120.012 502.5 115C502.5 110.012 502.501 104.974 501.996 101.184C501.743 99.293 501.36 97.6616 500.757 96.4901C500.15 95.3091 499.262 94.5 498 94.5L498 95.5C498.738 95.5 499.35 95.9409 499.868 96.9474C500.39 97.9634 500.757 99.457 501.004 101.316C501.499 105.026 501.5 109.988 501.5 115C501.5 119.988 501.499 125.026 502.004 128.816C502.257 130.707 502.64 132.338 503.243 133.51C503.85 134.691 504.738 135.5 506 135.5L506 134.5Z" fill="black"/>
<path d="M534.322 161H533.373V154.895C533.373 154.387 533.389 153.906 533.42 153.453C533.338 153.535 533.246 153.621 533.145 153.711C533.043 153.801 532.578 154.182 531.75 154.854L531.234 154.186L533.502 152.434H534.322V161ZM537.686 157.338C537.686 155.654 538.012 154.396 538.664 153.564C539.32 152.729 540.289 152.311 541.57 152.311C542.012 152.311 542.359 152.348 542.613 152.422V153.26C542.312 153.162 541.969 153.113 541.582 153.113C540.664 153.113 539.963 153.4 539.479 153.975C538.994 154.545 538.729 155.443 538.682 156.67H538.752C539.182 155.998 539.861 155.662 540.791 155.662C541.561 155.662 542.166 155.895 542.607 156.359C543.053 156.824 543.275 157.455 543.275 158.252C543.275 159.143 543.031 159.844 542.543 160.355C542.059 160.863 541.402 161.117 540.574 161.117C539.688 161.117 538.984 160.785 538.465 160.121C537.945 159.453 537.686 158.525 537.686 157.338ZM540.562 160.291C541.117 160.291 541.547 160.117 541.852 159.77C542.16 159.418 542.314 158.912 542.314 158.252C542.314 157.686 542.172 157.24 541.887 156.916C541.602 156.592 541.176 156.43 540.609 156.43C540.258 156.43 539.936 156.502 539.643 156.646C539.35 156.791 539.115 156.99 538.939 157.244C538.768 157.498 538.682 157.762 538.682 158.035C538.682 158.438 538.76 158.812 538.916 159.16C539.072 159.508 539.293 159.783 539.578 159.986C539.867 160.189 540.195 160.291 540.562 160.291Z" fill="black"/>
<path d="M486.322 99H485.373V92.8945C485.373 92.3867 485.389 91.9062 485.42 91.4531C485.338 91.5352 485.246 91.6211 485.145 91.7109C485.043 91.8008 484.578 92.1816 483.75 92.8535L483.234 92.1855L485.502 90.4336H486.322V99ZM495.264 94.7051C495.264 96.1855 495.029 97.291 494.561 98.0215C494.096 98.752 493.383 99.1172 492.422 99.1172C491.5 99.1172 490.799 98.7441 490.318 97.998C489.838 97.248 489.598 96.1504 489.598 94.7051C489.598 93.2129 489.83 92.1055 490.295 91.3828C490.76 90.6602 491.469 90.2988 492.422 90.2988C493.352 90.2988 494.057 90.6758 494.537 91.4297C495.021 92.1836 495.264 93.2754 495.264 94.7051ZM490.582 94.7051C490.582 95.9512 490.729 96.8594 491.021 97.4297C491.314 97.9961 491.781 98.2793 492.422 98.2793C493.07 98.2793 493.539 97.9922 493.828 97.418C494.121 96.8398 494.268 95.9355 494.268 94.7051C494.268 93.4746 494.121 92.5742 493.828 92.0039C493.539 91.4297 493.07 91.1426 492.422 91.1426C491.781 91.1426 491.314 91.4258 491.021 91.9922C490.729 92.5547 490.582 93.459 490.582 94.7051Z" fill="black"/>
<path d="M627 54.5C625.738 54.5 624.85 55.3091 624.243 56.4901C623.64 57.6616 623.257 59.293 623.004 61.1839C622.499 64.9742 622.5 70.0123 622.5 75C622.5 80.0123 622.499 84.9742 622.004 88.6839C621.757 90.543 621.39 92.0366 620.868 93.0526C620.35 94.0591 619.738 94.5 619 94.5L619 95.5C620.262 95.5 621.15 94.6909 621.757 93.5099C622.36 92.3384 622.743 90.707 622.996 88.8161C623.501 85.0258 623.5 79.9877 623.5 75C623.5 69.9877 623.501 65.0258 623.996 61.3161C624.243 59.457 624.61 57.9634 625.132 56.9474C625.65 55.9409 626.262 55.5 627 55.5L627 54.5ZM627 134.5C626.262 134.5 625.65 134.059 625.132 133.053C624.61 132.037 624.243 130.543 623.996 128.684C623.501 124.974 623.5 120.012 623.5 115C623.5 110.012 623.501 104.974 622.996 101.184C622.743 99.293 622.36 97.6616 621.757 96.4901C621.15 95.3091 620.262 94.5 619 94.5L619 95.5C619.738 95.5 620.35 95.9409 620.868 96.9474C621.39 97.9634 621.757 99.457 622.004 101.316C622.499 105.026 622.5 109.988 622.5 115C622.5 119.988 622.499 125.026 623.004 128.816C623.257 130.707 623.64 132.338 624.243 133.51C624.85 134.691 625.738 135.5 627 135.5L627 134.5Z" fill="black"/>
<path d="M607.322 99H606.373V92.8945C606.373 92.3867 606.389 91.9062 606.42 91.4531C606.338 91.5352 606.246 91.6211 606.145 91.7109C606.043 91.8008 605.578 92.1816 604.75 92.8535L604.234 92.1855L606.502 90.4336H607.322V99ZM616.264 94.7051C616.264 96.1855 616.029 97.291 615.561 98.0215C615.096 98.752 614.383 99.1172 613.422 99.1172C612.5 99.1172 611.799 98.7441 611.318 97.998C610.838 97.248 610.598 96.1504 610.598 94.7051C610.598 93.2129 610.83 92.1055 611.295 91.3828C611.76 90.6602 612.469 90.2988 613.422 90.2988C614.352 90.2988 615.057 90.6758 615.537 91.4297C616.021 92.1836 616.264 93.2754 616.264 94.7051ZM611.582 94.7051C611.582 95.9512 611.729 96.8594 612.021 97.4297C612.314 97.9961 612.781 98.2793 613.422 98.2793C614.07 98.2793 614.539 97.9922 614.828 97.418C615.121 96.8398 615.268 95.9355 615.268 94.7051C615.268 93.4746 615.121 92.5742 614.828 92.0039C614.539 91.4297 614.07 91.1426 613.422 91.1426C612.781 91.1426 612.314 91.4258 612.021 91.9922C611.729 92.5547 611.582 93.459 611.582 94.7051Z" fill="black"/>
<rect x="511" y="55" width="52" height="80" fill="white" stroke="#32ACF1" stroke-width="2"/>
<rect x="632" y="55" width="10" height="80" fill="white" stroke="black" stroke-width="2"/>
<path d="M593.354 95.3536C593.549 95.1583 593.549 94.8417 593.354 94.6464L590.172 91.4645C589.976 91.2692 589.66 91.2692 589.464 91.4645C589.269 91.6597 589.269 91.9763 589.464 92.1716L592.293 95L589.464 97.8284C589.269 98.0237 589.269 98.3403 589.464 98.5355C589.66 98.7308 589.976 98.7308 590.172 98.5355L593.354 95.3536ZM573 95.5H593V94.5H573V95.5Z" fill="black"/>
<line x1="510.888" y1="55.3579" x2="446.888" y2="35.3579" stroke="black" stroke-width="0.75" stroke-dasharray="2 3"/>
<line x1="446.888" y1="154.642" x2="510.888" y2="134.642" stroke="black" stroke-width="0.75" stroke-dasharray="2 3"/>
</svg>
