<svg width="698" height="233" viewBox="0 0 698 233" fill="none" xmlns="http://www.w3.org/2000/svg">
<path d="M8.5 152C8.5 153.512 9.4653 154.587 10.9198 155.335C12.3647 156.078 14.3867 156.556 16.7464 156.871C21.4742 157.501 27.7623 157.5 34 157.5C40.2623 157.5 46.4742 157.501 51.1214 158.121C53.4492 158.431 55.3335 158.891 56.6229 159.554C57.9028 160.212 58.5 161.012 58.5 162L59.5 162C59.5 160.488 58.5347 159.413 57.0802 158.665C55.6353 157.922 53.6133 157.444 51.2536 157.129C46.5258 156.499 40.2377 156.5 34 156.5C27.7377 156.5 21.5258 156.499 16.8786 155.879C14.5508 155.569 12.6665 155.109 11.3771 154.446C10.0972 153.788 9.5 152.988 9.5 152L8.5 152ZM108.5 152C108.5 152.988 107.903 153.788 106.623 154.446C105.333 155.109 103.449 155.569 101.121 155.879C96.4742 156.499 90.2623 156.5 84 156.5C77.7623 156.5 71.4742 156.499 66.7464 157.129C64.3867 157.444 62.3647 157.922 60.9198 158.665C59.4653 159.413 58.5 160.488 58.5 162L59.5 162C59.5 161.012 60.0972 160.212 61.3771 159.554C62.6665 158.891 64.5508 158.431 66.8786 158.121C71.5258 157.501 77.7377 157.5 84 157.5C90.2377 157.5 96.5258 157.501 101.254 156.871C103.613 156.556 105.635 156.078 107.08 155.335C108.535 154.587 109.5 153.512 109.5 152L108.5 152Z" fill="black"/>
<path d="M8.5 152C8.5 153.512 9.4653 154.587 10.9198 155.335C12.3647 156.078 14.3867 156.556 16.7464 156.871C21.4742 157.501 27.7623 157.5 34 157.5C40.2623 157.5 46.4742 157.501 51.1214 158.121C53.4492 158.431 55.3335 158.891 56.6229 159.554C57.9028 160.212 58.5 161.012 58.5 162L59.5 162C59.5 160.488 58.5347 159.413 57.0802 158.665C55.6353 157.922 53.6133 157.444 51.2536 157.129C46.5258 156.499 40.2377 156.5 34 156.5C27.7377 156.5 21.5258 156.499 16.8786 155.879C14.5508 155.569 12.6665 155.109 11.3771 154.446C10.0972 153.788 9.5 152.988 9.5 152L8.5 152ZM108.5 152C108.5 152.988 107.903 153.788 106.623 154.446C105.333 155.109 103.449 155.569 101.121 155.879C96.4742 156.499 90.2623 156.5 84 156.5C77.7623 156.5 71.4742 156.499 66.7464 157.129C64.3867 157.444 62.3647 157.922 60.9198 158.665C59.4653 159.413 58.5 160.488 58.5 162L59.5 162C59.5 161.012 60.0972 160.212 61.3771 159.554C62.6665 158.891 64.5508 158.431 66.8786 158.121C71.5258 157.501 77.7377 157.5 84 157.5C90.2377 157.5 96.5258 157.501 101.254 156.871C103.613 156.556 105.635 156.078 107.08 155.335C108.535 154.587 109.5 153.512 109.5 152L108.5 152Z" fill="black"/>
<path d="M58.0273 168.449C58.0273 168.996 57.873 169.443 57.5645 169.791C57.2598 170.139 56.8262 170.371 56.2637 170.488V170.535C56.9512 170.621 57.4609 170.84 57.793 171.191C58.125 171.543 58.291 172.004 58.291 172.574C58.291 173.391 58.0078 174.02 57.4414 174.461C56.875 174.898 56.0703 175.117 55.0273 175.117C54.5742 175.117 54.1582 175.082 53.7793 175.012C53.4043 174.945 53.0391 174.826 52.6836 174.654V173.729C53.0547 173.912 53.4492 174.053 53.8672 174.15C54.2891 174.244 54.6875 174.291 55.0625 174.291C56.543 174.291 57.2832 173.711 57.2832 172.551C57.2832 171.512 56.4668 170.992 54.834 170.992H53.9902V170.154H54.8457C55.5137 170.154 56.043 170.008 56.4336 169.715C56.8242 169.418 57.0195 169.008 57.0195 168.484C57.0195 168.066 56.875 167.738 56.5859 167.5C56.3008 167.262 55.9121 167.143 55.4199 167.143C55.0449 167.143 54.6914 167.193 54.3594 167.295C54.0273 167.396 53.6484 167.584 53.2227 167.857L52.7305 167.201C53.082 166.924 53.4863 166.707 53.9434 166.551C54.4043 166.391 54.8887 166.311 55.3965 166.311C56.2285 166.311 56.875 166.502 57.3359 166.885C57.7969 167.264 58.0273 167.785 58.0273 168.449ZM65.2168 175H59.5859V174.162L61.8418 171.895C62.5293 171.199 62.9824 170.703 63.2012 170.406C63.4199 170.109 63.584 169.82 63.6934 169.539C63.8027 169.258 63.8574 168.955 63.8574 168.631C63.8574 168.174 63.7188 167.812 63.4414 167.547C63.1641 167.277 62.7793 167.143 62.2871 167.143C61.9316 167.143 61.5938 167.201 61.2734 167.318C60.957 167.436 60.6035 167.648 60.2129 167.957L59.6973 167.295C60.4863 166.639 61.3457 166.311 62.2754 166.311C63.0801 166.311 63.7109 166.518 64.168 166.932C64.625 167.342 64.8535 167.895 64.8535 168.59C64.8535 169.133 64.7012 169.67 64.3965 170.201C64.0918 170.732 63.5215 171.404 62.6855 172.217L60.8105 174.051V174.098H65.2168V175Z" fill="black"/>
<path d="M43.4219 230V221.434H44.418V230H43.4219ZM54.8125 230V225.822C54.8125 225.311 54.7031 224.928 54.4844 224.674C54.2656 224.416 53.9258 224.287 53.4648 224.287C52.8594 224.287 52.4121 224.461 52.123 224.809C51.834 225.156 51.6895 225.691 51.6895 226.414V230H50.7168V225.822C50.7168 225.311 50.6074 224.928 50.3887 224.674C50.1699 224.416 49.8281 224.287 49.3633 224.287C48.7539 224.287 48.3066 224.471 48.0215 224.838C47.7402 225.201 47.5996 225.799 47.5996 226.631V230H46.627V223.578H47.418L47.5762 224.457H47.623C47.8066 224.145 48.0645 223.9 48.3965 223.725C48.7324 223.549 49.1074 223.461 49.5215 223.461C50.5254 223.461 51.1816 223.824 51.4902 224.551H51.5371C51.7285 224.215 52.0059 223.949 52.3691 223.754C52.7324 223.559 53.1465 223.461 53.6113 223.461C54.3379 223.461 54.8809 223.648 55.2402 224.023C55.6035 224.395 55.7852 224.99 55.7852 225.811V230H54.8125ZM61.7441 230L61.5508 229.086H61.5039C61.1836 229.488 60.8633 229.762 60.543 229.906C60.2266 230.047 59.8301 230.117 59.3535 230.117C58.7168 230.117 58.2168 229.953 57.8535 229.625C57.4941 229.297 57.3145 228.83 57.3145 228.225C57.3145 226.928 58.3516 226.248 60.4258 226.186L61.5156 226.15V225.752C61.5156 225.248 61.4062 224.877 61.1875 224.639C60.9727 224.396 60.627 224.275 60.1504 224.275C59.6152 224.275 59.0098 224.439 58.334 224.768L58.0352 224.023C58.3516 223.852 58.6973 223.717 59.0723 223.619C59.4512 223.521 59.8301 223.473 60.209 223.473C60.9746 223.473 61.541 223.643 61.9082 223.982C62.2793 224.322 62.4648 224.867 62.4648 225.617V230H61.7441ZM59.5469 229.314C60.1523 229.314 60.627 229.148 60.9707 228.816C61.3184 228.484 61.4922 228.02 61.4922 227.422V226.842L60.5195 226.883C59.7461 226.91 59.1875 227.031 58.8438 227.246C58.5039 227.457 58.334 227.787 58.334 228.236C58.334 228.588 58.4395 228.855 58.6504 229.039C58.8652 229.223 59.1641 229.314 59.5469 229.314ZM69.7305 223.578V224.193L68.541 224.334C68.6504 224.471 68.748 224.65 68.834 224.873C68.9199 225.092 68.9629 225.34 68.9629 225.617C68.9629 226.246 68.748 226.748 68.3184 227.123C67.8887 227.498 67.2988 227.686 66.5488 227.686C66.3574 227.686 66.1777 227.67 66.0098 227.639C65.5957 227.857 65.3887 228.133 65.3887 228.465C65.3887 228.641 65.4609 228.771 65.6055 228.857C65.75 228.939 65.998 228.98 66.3496 228.98H67.4863C68.1816 228.98 68.7148 229.127 69.0859 229.42C69.4609 229.713 69.6484 230.139 69.6484 230.697C69.6484 231.408 69.3633 231.949 68.793 232.32C68.2227 232.695 67.3906 232.883 66.2969 232.883C65.457 232.883 64.8086 232.727 64.3516 232.414C63.8984 232.102 63.6719 231.66 63.6719 231.09C63.6719 230.699 63.7969 230.361 64.0469 230.076C64.2969 229.791 64.6484 229.598 65.1016 229.496C64.9375 229.422 64.7988 229.307 64.6855 229.15C64.5762 228.994 64.5215 228.812 64.5215 228.605C64.5215 228.371 64.584 228.166 64.709 227.99C64.834 227.814 65.0312 227.645 65.3008 227.48C64.9688 227.344 64.6973 227.111 64.4863 226.783C64.2793 226.455 64.1758 226.08 64.1758 225.658C64.1758 224.955 64.3867 224.414 64.8086 224.035C65.2305 223.652 65.8281 223.461 66.6016 223.461C66.9375 223.461 67.2402 223.5 67.5098 223.578H69.7305ZM64.6094 231.078C64.6094 231.426 64.7559 231.689 65.0488 231.869C65.3418 232.049 65.7617 232.139 66.3086 232.139C67.125 232.139 67.7285 232.016 68.1191 231.77C68.5137 231.527 68.7109 231.197 68.7109 230.779C68.7109 230.432 68.6035 230.189 68.3887 230.053C68.1738 229.92 67.7695 229.854 67.1758 229.854H66.0098C65.5684 229.854 65.2246 229.959 64.9785 230.17C64.7324 230.381 64.6094 230.684 64.6094 231.078ZM65.1367 225.635C65.1367 226.084 65.2637 226.424 65.5176 226.654C65.7715 226.885 66.125 227 66.5781 227C67.5273 227 68.002 226.539 68.002 225.617C68.002 224.652 67.5215 224.17 66.5605 224.17C66.1035 224.17 65.752 224.293 65.5059 224.539C65.2598 224.785 65.1367 225.15 65.1367 225.635ZM73.7617 230.117C72.8125 230.117 72.0625 229.828 71.5117 229.25C70.9648 228.672 70.6914 227.869 70.6914 226.842C70.6914 225.807 70.9453 224.984 71.4531 224.375C71.9648 223.766 72.6504 223.461 73.5098 223.461C74.3145 223.461 74.9512 223.727 75.4199 224.258C75.8887 224.785 76.123 225.482 76.123 226.35V226.965H71.6992C71.7188 227.719 71.9082 228.291 72.2676 228.682C72.6309 229.072 73.1406 229.268 73.7969 229.268C74.4883 229.268 75.1719 229.123 75.8477 228.834V229.701C75.5039 229.85 75.1777 229.955 74.8691 230.018C74.5645 230.084 74.1953 230.117 73.7617 230.117ZM73.498 224.275C72.9824 224.275 72.5703 224.443 72.2617 224.779C71.957 225.115 71.7773 225.58 71.7227 226.174H75.0801C75.0801 225.561 74.9434 225.092 74.6699 224.768C74.3965 224.439 74.0059 224.275 73.498 224.275Z" fill="black"/>
<path d="M151.125 222.201C150.184 222.201 149.439 222.516 148.893 223.145C148.35 223.77 148.078 224.627 148.078 225.717C148.078 226.838 148.34 227.705 148.863 228.318C149.391 228.928 150.141 229.232 151.113 229.232C151.711 229.232 152.393 229.125 153.158 228.91V229.783C152.564 230.006 151.832 230.117 150.961 230.117C149.699 230.117 148.725 229.734 148.037 228.969C147.354 228.203 147.012 227.115 147.012 225.705C147.012 224.822 147.176 224.049 147.504 223.385C147.836 222.721 148.312 222.209 148.934 221.85C149.559 221.49 150.293 221.311 151.137 221.311C152.035 221.311 152.82 221.475 153.492 221.803L153.07 222.658C152.422 222.354 151.773 222.201 151.125 222.201ZM160.424 226.783C160.424 227.83 160.16 228.648 159.633 229.238C159.105 229.824 158.377 230.117 157.447 230.117C156.873 230.117 156.363 229.982 155.918 229.713C155.473 229.443 155.129 229.057 154.887 228.553C154.645 228.049 154.523 227.459 154.523 226.783C154.523 225.736 154.785 224.922 155.309 224.34C155.832 223.754 156.559 223.461 157.488 223.461C158.387 223.461 159.1 223.76 159.627 224.357C160.158 224.955 160.424 225.764 160.424 226.783ZM155.531 226.783C155.531 227.604 155.695 228.229 156.023 228.658C156.352 229.088 156.834 229.303 157.471 229.303C158.107 229.303 158.59 229.09 158.918 228.664C159.25 228.234 159.416 227.607 159.416 226.783C159.416 225.967 159.25 225.348 158.918 224.926C158.59 224.5 158.104 224.287 157.459 224.287C156.822 224.287 156.342 224.496 156.018 224.914C155.693 225.332 155.531 225.955 155.531 226.783ZM166.529 230V225.846C166.529 225.322 166.41 224.932 166.172 224.674C165.934 224.416 165.561 224.287 165.053 224.287C164.381 224.287 163.889 224.469 163.576 224.832C163.264 225.195 163.107 225.795 163.107 226.631V230H162.135V223.578H162.926L163.084 224.457H163.131C163.33 224.141 163.609 223.896 163.969 223.725C164.328 223.549 164.729 223.461 165.17 223.461C165.943 223.461 166.525 223.648 166.916 224.023C167.307 224.395 167.502 224.99 167.502 225.811V230H166.529ZM170.912 230L168.475 223.578H169.518L170.9 227.387C171.213 228.277 171.396 228.855 171.451 229.121H171.498C171.541 228.914 171.676 228.486 171.902 227.838C172.133 227.186 172.646 225.766 173.443 223.578H174.486L172.049 230H170.912ZM181.43 225.365H183.844V226.174H181.43V228.67H180.615V226.174H178.213V225.365H180.615V222.857H181.43V225.365ZM189.762 226.438V230H188.766V221.434H191.115C192.166 221.434 192.941 221.635 193.441 222.037C193.945 222.439 194.197 223.045 194.197 223.854C194.197 224.986 193.623 225.752 192.475 226.15L194.801 230H193.623L191.549 226.438H189.762ZM189.762 225.582H191.127C191.83 225.582 192.346 225.443 192.674 225.166C193.002 224.885 193.166 224.465 193.166 223.906C193.166 223.34 192.998 222.932 192.662 222.682C192.33 222.432 191.795 222.307 191.057 222.307H189.762V225.582ZM198.75 230.117C197.801 230.117 197.051 229.828 196.5 229.25C195.953 228.672 195.68 227.869 195.68 226.842C195.68 225.807 195.934 224.984 196.441 224.375C196.953 223.766 197.639 223.461 198.498 223.461C199.303 223.461 199.939 223.727 200.408 224.258C200.877 224.785 201.111 225.482 201.111 226.35V226.965H196.688C196.707 227.719 196.896 228.291 197.256 228.682C197.619 229.072 198.129 229.268 198.785 229.268C199.477 229.268 200.16 229.123 200.836 228.834V229.701C200.492 229.85 200.166 229.955 199.857 230.018C199.553 230.084 199.184 230.117 198.75 230.117ZM198.486 224.275C197.971 224.275 197.559 224.443 197.25 224.779C196.945 225.115 196.766 225.58 196.711 226.174H200.068C200.068 225.561 199.932 225.092 199.658 224.768C199.385 224.439 198.994 224.275 198.486 224.275ZM202.922 230V221.434H203.918V229.098H207.697V230H202.922ZM215.625 221.434V226.977C215.625 227.953 215.33 228.721 214.74 229.279C214.15 229.838 213.34 230.117 212.309 230.117C211.277 230.117 210.479 229.836 209.912 229.273C209.35 228.711 209.068 227.938 209.068 226.953V221.434H210.064V227.023C210.064 227.738 210.26 228.287 210.65 228.67C211.041 229.053 211.615 229.244 212.373 229.244C213.096 229.244 213.652 229.053 214.043 228.67C214.434 228.283 214.629 227.73 214.629 227.012V221.434H215.625Z" fill="black"/>
<path d="M278.072 222.201C277.131 222.201 276.387 222.516 275.84 223.145C275.297 223.77 275.025 224.627 275.025 225.717C275.025 226.838 275.287 227.705 275.811 228.318C276.338 228.928 277.088 229.232 278.061 229.232C278.658 229.232 279.34 229.125 280.105 228.91V229.783C279.512 230.006 278.779 230.117 277.908 230.117C276.646 230.117 275.672 229.734 274.984 228.969C274.301 228.203 273.959 227.115 273.959 225.705C273.959 224.822 274.123 224.049 274.451 223.385C274.783 222.721 275.26 222.209 275.881 221.85C276.506 221.49 277.24 221.311 278.084 221.311C278.982 221.311 279.768 221.475 280.439 221.803L280.018 222.658C279.369 222.354 278.721 222.201 278.072 222.201ZM287.371 226.783C287.371 227.83 287.107 228.648 286.58 229.238C286.053 229.824 285.324 230.117 284.395 230.117C283.82 230.117 283.311 229.982 282.865 229.713C282.42 229.443 282.076 229.057 281.834 228.553C281.592 228.049 281.471 227.459 281.471 226.783C281.471 225.736 281.732 224.922 282.256 224.34C282.779 223.754 283.506 223.461 284.436 223.461C285.334 223.461 286.047 223.76 286.574 224.357C287.105 224.955 287.371 225.764 287.371 226.783ZM282.479 226.783C282.479 227.604 282.643 228.229 282.971 228.658C283.299 229.088 283.781 229.303 284.418 229.303C285.055 229.303 285.537 229.09 285.865 228.664C286.197 228.234 286.363 227.607 286.363 226.783C286.363 225.967 286.197 225.348 285.865 224.926C285.537 224.5 285.051 224.287 284.406 224.287C283.77 224.287 283.289 224.496 282.965 224.914C282.641 225.332 282.479 225.955 282.479 226.783ZM293.477 230V225.846C293.477 225.322 293.357 224.932 293.119 224.674C292.881 224.416 292.508 224.287 292 224.287C291.328 224.287 290.836 224.469 290.523 224.832C290.211 225.195 290.055 225.795 290.055 226.631V230H289.082V223.578H289.873L290.031 224.457H290.078C290.277 224.141 290.557 223.896 290.916 223.725C291.275 223.549 291.676 223.461 292.117 223.461C292.891 223.461 293.473 223.648 293.863 224.023C294.254 224.395 294.449 224.99 294.449 225.811V230H293.477ZM297.859 230L295.422 223.578H296.465L297.848 227.387C298.16 228.277 298.344 228.855 298.398 229.121H298.445C298.488 228.914 298.623 228.486 298.85 227.838C299.08 227.186 299.594 225.766 300.391 223.578H301.434L298.996 230H297.859ZM306.279 222.201C305.338 222.201 304.594 222.516 304.047 223.145C303.504 223.77 303.232 224.627 303.232 225.717C303.232 226.838 303.494 227.705 304.018 228.318C304.545 228.928 305.295 229.232 306.268 229.232C306.865 229.232 307.547 229.125 308.312 228.91V229.783C307.719 230.006 306.986 230.117 306.115 230.117C304.854 230.117 303.879 229.734 303.191 228.969C302.508 228.203 302.166 227.115 302.166 225.705C302.166 224.822 302.33 224.049 302.658 223.385C302.99 222.721 303.467 222.209 304.088 221.85C304.713 221.49 305.447 221.311 306.291 221.311C307.189 221.311 307.975 221.475 308.646 221.803L308.225 222.658C307.576 222.354 306.928 222.201 306.279 222.201ZM313.984 230L313.791 229.086H313.744C313.424 229.488 313.104 229.762 312.783 229.906C312.467 230.047 312.07 230.117 311.594 230.117C310.957 230.117 310.457 229.953 310.094 229.625C309.734 229.297 309.555 228.83 309.555 228.225C309.555 226.928 310.592 226.248 312.666 226.186L313.756 226.15V225.752C313.756 225.248 313.646 224.877 313.428 224.639C313.213 224.396 312.867 224.275 312.391 224.275C311.855 224.275 311.25 224.439 310.574 224.768L310.275 224.023C310.592 223.852 310.938 223.717 311.312 223.619C311.691 223.521 312.07 223.473 312.449 223.473C313.215 223.473 313.781 223.643 314.148 223.982C314.52 224.322 314.705 224.867 314.705 225.617V230H313.984ZM311.787 229.314C312.393 229.314 312.867 229.148 313.211 228.816C313.559 228.484 313.732 228.02 313.732 227.422V226.842L312.76 226.883C311.986 226.91 311.428 227.031 311.084 227.246C310.744 227.457 310.574 227.787 310.574 228.236C310.574 228.588 310.68 228.855 310.891 229.039C311.105 229.223 311.404 229.314 311.787 229.314ZM319.703 230.117C319.285 230.117 318.902 230.041 318.555 229.889C318.211 229.732 317.922 229.494 317.688 229.174H317.617C317.664 229.549 317.688 229.904 317.688 230.24V232.883H316.715V223.578H317.506L317.641 224.457H317.688C317.938 224.105 318.229 223.852 318.561 223.695C318.893 223.539 319.273 223.461 319.703 223.461C320.555 223.461 321.211 223.752 321.672 224.334C322.137 224.916 322.369 225.732 322.369 226.783C322.369 227.838 322.133 228.658 321.66 229.244C321.191 229.826 320.539 230.117 319.703 230.117ZM319.562 224.287C318.906 224.287 318.432 224.469 318.139 224.832C317.846 225.195 317.695 225.773 317.688 226.566V226.783C317.688 227.686 317.838 228.332 318.139 228.723C318.439 229.109 318.922 229.303 319.586 229.303C320.141 229.303 320.574 229.078 320.887 228.629C321.203 228.18 321.361 227.561 321.361 226.771C321.361 225.971 321.203 225.357 320.887 224.932C320.574 224.502 320.133 224.287 319.562 224.287ZM328.217 228.248C328.217 228.846 327.994 229.307 327.549 229.631C327.104 229.955 326.479 230.117 325.674 230.117C324.822 230.117 324.158 229.982 323.682 229.713V228.811C323.99 228.967 324.32 229.09 324.672 229.18C325.027 229.27 325.369 229.314 325.697 229.314C326.205 229.314 326.596 229.234 326.869 229.074C327.143 228.91 327.279 228.662 327.279 228.33C327.279 228.08 327.17 227.867 326.951 227.691C326.736 227.512 326.314 227.301 325.686 227.059C325.088 226.836 324.662 226.643 324.408 226.479C324.158 226.311 323.971 226.121 323.846 225.91C323.725 225.699 323.664 225.447 323.664 225.154C323.664 224.631 323.877 224.219 324.303 223.918C324.729 223.613 325.312 223.461 326.055 223.461C326.746 223.461 327.422 223.602 328.082 223.883L327.736 224.674C327.092 224.408 326.508 224.275 325.984 224.275C325.523 224.275 325.176 224.348 324.941 224.492C324.707 224.637 324.59 224.836 324.59 225.09C324.59 225.262 324.633 225.408 324.719 225.529C324.809 225.65 324.951 225.766 325.146 225.875C325.342 225.984 325.717 226.143 326.271 226.35C327.033 226.627 327.547 226.906 327.812 227.188C328.082 227.469 328.217 227.822 328.217 228.248Z" fill="black"/>
<path d="M404.656 226.438V230H403.66V221.434H406.01C407.061 221.434 407.836 221.635 408.336 222.037C408.84 222.439 409.092 223.045 409.092 223.854C409.092 224.986 408.518 225.752 407.369 226.15L409.695 230H408.518L406.443 226.438H404.656ZM404.656 225.582H406.021C406.725 225.582 407.24 225.443 407.568 225.166C407.896 224.885 408.061 224.465 408.061 223.906C408.061 223.34 407.893 222.932 407.557 222.682C407.225 222.432 406.689 222.307 405.951 222.307H404.656V225.582ZM413.645 230.117C412.695 230.117 411.945 229.828 411.395 229.25C410.848 228.672 410.574 227.869 410.574 226.842C410.574 225.807 410.828 224.984 411.336 224.375C411.848 223.766 412.533 223.461 413.393 223.461C414.197 223.461 414.834 223.727 415.303 224.258C415.771 224.785 416.006 225.482 416.006 226.35V226.965H411.582C411.602 227.719 411.791 228.291 412.15 228.682C412.514 229.072 413.023 229.268 413.68 229.268C414.371 229.268 415.055 229.123 415.73 228.834V229.701C415.387 229.85 415.061 229.955 414.752 230.018C414.447 230.084 414.078 230.117 413.645 230.117ZM413.381 224.275C412.865 224.275 412.453 224.443 412.145 224.779C411.84 225.115 411.66 225.58 411.605 226.174H414.963C414.963 225.561 414.826 225.092 414.553 224.768C414.279 224.439 413.889 224.275 413.381 224.275ZM421.812 228.248C421.812 228.846 421.59 229.307 421.145 229.631C420.699 229.955 420.074 230.117 419.27 230.117C418.418 230.117 417.754 229.982 417.277 229.713V228.811C417.586 228.967 417.916 229.09 418.268 229.18C418.623 229.27 418.965 229.314 419.293 229.314C419.801 229.314 420.191 229.234 420.465 229.074C420.738 228.91 420.875 228.662 420.875 228.33C420.875 228.08 420.766 227.867 420.547 227.691C420.332 227.512 419.91 227.301 419.281 227.059C418.684 226.836 418.258 226.643 418.004 226.479C417.754 226.311 417.566 226.121 417.441 225.91C417.32 225.699 417.26 225.447 417.26 225.154C417.26 224.631 417.473 224.219 417.898 223.918C418.324 223.613 418.908 223.461 419.65 223.461C420.342 223.461 421.018 223.602 421.678 223.883L421.332 224.674C420.688 224.408 420.104 224.275 419.58 224.275C419.119 224.275 418.771 224.348 418.537 224.492C418.303 224.637 418.186 224.836 418.186 225.09C418.186 225.262 418.229 225.408 418.314 225.529C418.404 225.65 418.547 225.766 418.742 225.875C418.938 225.984 419.312 226.143 419.867 226.35C420.629 226.627 421.143 226.906 421.408 227.188C421.678 227.469 421.812 227.822 421.812 228.248ZM427.795 230V225.846C427.795 225.322 427.676 224.932 427.438 224.674C427.199 224.416 426.826 224.287 426.318 224.287C425.643 224.287 425.148 224.471 424.836 224.838C424.527 225.205 424.373 225.807 424.373 226.643V230H423.4V220.883H424.373V223.643C424.373 223.975 424.357 224.25 424.326 224.469H424.385C424.576 224.16 424.848 223.918 425.199 223.742C425.555 223.562 425.959 223.473 426.412 223.473C427.197 223.473 427.785 223.66 428.176 224.035C428.57 224.406 428.768 224.998 428.768 225.811V230H427.795ZM434.721 230L434.527 229.086H434.48C434.16 229.488 433.84 229.762 433.52 229.906C433.203 230.047 432.807 230.117 432.33 230.117C431.693 230.117 431.193 229.953 430.83 229.625C430.471 229.297 430.291 228.83 430.291 228.225C430.291 226.928 431.328 226.248 433.402 226.186L434.492 226.15V225.752C434.492 225.248 434.383 224.877 434.164 224.639C433.949 224.396 433.604 224.275 433.127 224.275C432.592 224.275 431.986 224.439 431.311 224.768L431.012 224.023C431.328 223.852 431.674 223.717 432.049 223.619C432.428 223.521 432.807 223.473 433.186 223.473C433.951 223.473 434.518 223.643 434.885 223.982C435.256 224.322 435.441 224.867 435.441 225.617V230H434.721ZM432.523 229.314C433.129 229.314 433.604 229.148 433.947 228.816C434.295 228.484 434.469 228.02 434.469 227.422V226.842L433.496 226.883C432.723 226.91 432.164 227.031 431.82 227.246C431.48 227.457 431.311 227.787 431.311 228.236C431.311 228.588 431.416 228.855 431.627 229.039C431.842 229.223 432.141 229.314 432.523 229.314ZM440.439 230.117C440.021 230.117 439.639 230.041 439.291 229.889C438.947 229.732 438.658 229.494 438.424 229.174H438.354C438.4 229.549 438.424 229.904 438.424 230.24V232.883H437.451V223.578H438.242L438.377 224.457H438.424C438.674 224.105 438.965 223.852 439.297 223.695C439.629 223.539 440.01 223.461 440.439 223.461C441.291 223.461 441.947 223.752 442.408 224.334C442.873 224.916 443.105 225.732 443.105 226.783C443.105 227.838 442.869 228.658 442.396 229.244C441.928 229.826 441.275 230.117 440.439 230.117ZM440.299 224.287C439.643 224.287 439.168 224.469 438.875 224.832C438.582 225.195 438.432 225.773 438.424 226.566V226.783C438.424 227.686 438.574 228.332 438.875 228.723C439.176 229.109 439.658 229.303 440.322 229.303C440.877 229.303 441.311 229.078 441.623 228.629C441.939 228.18 442.098 227.561 442.098 226.771C442.098 225.971 441.939 225.357 441.623 224.932C441.311 224.502 440.869 224.287 440.299 224.287ZM447.523 230.117C446.574 230.117 445.824 229.828 445.273 229.25C444.727 228.672 444.453 227.869 444.453 226.842C444.453 225.807 444.707 224.984 445.215 224.375C445.727 223.766 446.412 223.461 447.271 223.461C448.076 223.461 448.713 223.727 449.182 224.258C449.65 224.785 449.885 225.482 449.885 226.35V226.965H445.461C445.48 227.719 445.67 228.291 446.029 228.682C446.393 229.072 446.902 229.268 447.559 229.268C448.25 229.268 448.934 229.123 449.609 228.834V229.701C449.266 229.85 448.939 229.955 448.631 230.018C448.326 230.084 447.957 230.117 447.523 230.117ZM447.26 224.275C446.744 224.275 446.332 224.443 446.023 224.779C445.719 225.115 445.539 225.58 445.484 226.174H448.842C448.842 225.561 448.705 225.092 448.432 224.768C448.158 224.439 447.768 224.275 447.26 224.275Z" fill="black"/>
<path d="M519.025 225.635C519.025 227.049 518.641 228.131 517.871 228.881C517.105 229.627 516.002 230 514.561 230H512.188V221.434H514.812C516.145 221.434 517.18 221.803 517.918 222.541C518.656 223.279 519.025 224.311 519.025 225.635ZM517.971 225.67C517.971 224.553 517.689 223.711 517.127 223.145C516.568 222.578 515.736 222.295 514.631 222.295H513.184V229.139H514.396C515.584 229.139 516.477 228.848 517.074 228.266C517.672 227.68 517.971 226.814 517.971 225.67ZM521.768 230H520.795V223.578H521.768V230ZM520.713 221.838C520.713 221.615 520.768 221.453 520.877 221.352C520.986 221.246 521.123 221.193 521.287 221.193C521.443 221.193 521.578 221.246 521.691 221.352C521.805 221.457 521.861 221.619 521.861 221.838C521.861 222.057 521.805 222.221 521.691 222.33C521.578 222.436 521.443 222.488 521.287 222.488C521.123 222.488 520.986 222.436 520.877 222.33C520.768 222.221 520.713 222.057 520.713 221.838ZM529.086 223.578V224.193L527.896 224.334C528.006 224.471 528.104 224.65 528.189 224.873C528.275 225.092 528.318 225.34 528.318 225.617C528.318 226.246 528.104 226.748 527.674 227.123C527.244 227.498 526.654 227.686 525.904 227.686C525.713 227.686 525.533 227.67 525.365 227.639C524.951 227.857 524.744 228.133 524.744 228.465C524.744 228.641 524.816 228.771 524.961 228.857C525.105 228.939 525.354 228.98 525.705 228.98H526.842C527.537 228.98 528.07 229.127 528.441 229.42C528.816 229.713 529.004 230.139 529.004 230.697C529.004 231.408 528.719 231.949 528.148 232.32C527.578 232.695 526.746 232.883 525.652 232.883C524.812 232.883 524.164 232.727 523.707 232.414C523.254 232.102 523.027 231.66 523.027 231.09C523.027 230.699 523.152 230.361 523.402 230.076C523.652 229.791 524.004 229.598 524.457 229.496C524.293 229.422 524.154 229.307 524.041 229.15C523.932 228.994 523.877 228.812 523.877 228.605C523.877 228.371 523.939 228.166 524.064 227.99C524.189 227.814 524.387 227.645 524.656 227.48C524.324 227.344 524.053 227.111 523.842 226.783C523.635 226.455 523.531 226.08 523.531 225.658C523.531 224.955 523.742 224.414 524.164 224.035C524.586 223.652 525.184 223.461 525.957 223.461C526.293 223.461 526.596 223.5 526.865 223.578H529.086ZM523.965 231.078C523.965 231.426 524.111 231.689 524.404 231.869C524.697 232.049 525.117 232.139 525.664 232.139C526.48 232.139 527.084 232.016 527.475 231.77C527.869 231.527 528.066 231.197 528.066 230.779C528.066 230.432 527.959 230.189 527.744 230.053C527.529 229.92 527.125 229.854 526.531 229.854H525.365C524.924 229.854 524.58 229.959 524.334 230.17C524.088 230.381 523.965 230.684 523.965 231.078ZM524.492 225.635C524.492 226.084 524.619 226.424 524.873 226.654C525.127 226.885 525.48 227 525.934 227C526.883 227 527.357 226.539 527.357 225.617C527.357 224.652 526.877 224.17 525.916 224.17C525.459 224.17 525.107 224.293 524.861 224.539C524.615 224.785 524.492 225.15 524.492 225.635ZM531.377 230H530.404V223.578H531.377V230ZM530.322 221.838C530.322 221.615 530.377 221.453 530.486 221.352C530.596 221.246 530.732 221.193 530.896 221.193C531.053 221.193 531.188 221.246 531.301 221.352C531.414 221.457 531.471 221.619 531.471 221.838C531.471 222.057 531.414 222.221 531.301 222.33C531.188 222.436 531.053 222.488 530.896 222.488C530.732 222.488 530.596 222.436 530.486 222.33C530.377 222.221 530.322 222.057 530.322 221.838ZM535.514 229.314C535.686 229.314 535.852 229.303 536.012 229.279C536.172 229.252 536.299 229.225 536.393 229.197V229.941C536.287 229.992 536.131 230.033 535.924 230.064C535.721 230.1 535.537 230.117 535.373 230.117C534.131 230.117 533.51 229.463 533.51 228.154V224.334H532.59V223.865L533.51 223.461L533.92 222.09H534.482V223.578H536.346V224.334H534.482V228.113C534.482 228.5 534.574 228.797 534.758 229.004C534.941 229.211 535.193 229.314 535.514 229.314ZM541.496 222.201C540.555 222.201 539.811 222.516 539.264 223.145C538.721 223.77 538.449 224.627 538.449 225.717C538.449 226.838 538.711 227.705 539.234 228.318C539.762 228.928 540.512 229.232 541.484 229.232C542.082 229.232 542.764 229.125 543.529 228.91V229.783C542.936 230.006 542.203 230.117 541.332 230.117C540.07 230.117 539.096 229.734 538.408 228.969C537.725 228.203 537.383 227.115 537.383 225.705C537.383 224.822 537.547 224.049 537.875 223.385C538.207 222.721 538.684 222.209 539.305 221.85C539.93 221.49 540.664 221.311 541.508 221.311C542.406 221.311 543.191 221.475 543.863 221.803L543.441 222.658C542.793 222.354 542.145 222.201 541.496 222.201ZM549.201 230L549.008 229.086H548.961C548.641 229.488 548.32 229.762 548 229.906C547.684 230.047 547.287 230.117 546.811 230.117C546.174 230.117 545.674 229.953 545.311 229.625C544.951 229.297 544.771 228.83 544.771 228.225C544.771 226.928 545.809 226.248 547.883 226.186L548.973 226.15V225.752C548.973 225.248 548.863 224.877 548.645 224.639C548.43 224.396 548.084 224.275 547.607 224.275C547.072 224.275 546.467 224.439 545.791 224.768L545.492 224.023C545.809 223.852 546.154 223.717 546.529 223.619C546.908 223.521 547.287 223.473 547.666 223.473C548.432 223.473 548.998 223.643 549.365 223.982C549.736 224.322 549.922 224.867 549.922 225.617V230H549.201ZM547.004 229.314C547.609 229.314 548.084 229.148 548.428 228.816C548.775 228.484 548.949 228.02 548.949 227.422V226.842L547.977 226.883C547.203 226.91 546.645 227.031 546.301 227.246C545.961 227.457 545.791 227.787 545.791 228.236C545.791 228.588 545.896 228.855 546.107 229.039C546.322 229.223 546.621 229.314 547.004 229.314ZM554.92 230.117C554.502 230.117 554.119 230.041 553.771 229.889C553.428 229.732 553.139 229.494 552.904 229.174H552.834C552.881 229.549 552.904 229.904 552.904 230.24V232.883H551.932V223.578H552.723L552.857 224.457H552.904C553.154 224.105 553.445 223.852 553.777 223.695C554.109 223.539 554.49 223.461 554.92 223.461C555.771 223.461 556.428 223.752 556.889 224.334C557.354 224.916 557.586 225.732 557.586 226.783C557.586 227.838 557.35 228.658 556.877 229.244C556.408 229.826 555.756 230.117 554.92 230.117ZM554.779 224.287C554.123 224.287 553.648 224.469 553.355 224.832C553.062 225.195 552.912 225.773 552.904 226.566V226.783C552.904 227.686 553.055 228.332 553.355 228.723C553.656 229.109 554.139 229.303 554.803 229.303C555.357 229.303 555.791 229.078 556.104 228.629C556.42 228.18 556.578 227.561 556.578 226.771C556.578 225.971 556.42 225.357 556.104 224.932C555.791 224.502 555.35 224.287 554.779 224.287ZM563.434 228.248C563.434 228.846 563.211 229.307 562.766 229.631C562.32 229.955 561.695 230.117 560.891 230.117C560.039 230.117 559.375 229.982 558.898 229.713V228.811C559.207 228.967 559.537 229.09 559.889 229.18C560.244 229.27 560.586 229.314 560.914 229.314C561.422 229.314 561.812 229.234 562.086 229.074C562.359 228.91 562.496 228.662 562.496 228.33C562.496 228.08 562.387 227.867 562.168 227.691C561.953 227.512 561.531 227.301 560.902 227.059C560.305 226.836 559.879 226.643 559.625 226.479C559.375 226.311 559.188 226.121 559.062 225.91C558.941 225.699 558.881 225.447 558.881 225.154C558.881 224.631 559.094 224.219 559.52 223.918C559.945 223.613 560.529 223.461 561.271 223.461C561.963 223.461 562.639 223.602 563.299 223.883L562.953 224.674C562.309 224.408 561.725 224.275 561.201 224.275C560.74 224.275 560.393 224.348 560.158 224.492C559.924 224.637 559.807 224.836 559.807 225.09C559.807 225.262 559.85 225.408 559.936 225.529C560.025 225.65 560.168 225.766 560.363 225.875C560.559 225.984 560.934 226.143 561.488 226.35C562.25 226.627 562.764 226.906 563.029 227.188C563.299 227.469 563.434 227.822 563.434 228.248Z" fill="black"/>
<path d="M625.254 222.201C624.312 222.201 623.568 222.516 623.021 223.145C622.479 223.77 622.207 224.627 622.207 225.717C622.207 226.838 622.469 227.705 622.992 228.318C623.52 228.928 624.27 229.232 625.242 229.232C625.84 229.232 626.521 229.125 627.287 228.91V229.783C626.693 230.006 625.961 230.117 625.09 230.117C623.828 230.117 622.854 229.734 622.166 228.969C621.482 228.203 621.141 227.115 621.141 225.705C621.141 224.822 621.305 224.049 621.633 223.385C621.965 222.721 622.441 222.209 623.062 221.85C623.688 221.49 624.422 221.311 625.266 221.311C626.164 221.311 626.949 221.475 627.621 221.803L627.199 222.658C626.551 222.354 625.902 222.201 625.254 222.201ZM629.982 230H629.01V220.883H629.982V230ZM635.994 230L635.801 229.086H635.754C635.434 229.488 635.113 229.762 634.793 229.906C634.477 230.047 634.08 230.117 633.604 230.117C632.967 230.117 632.467 229.953 632.104 229.625C631.744 229.297 631.564 228.83 631.564 228.225C631.564 226.928 632.602 226.248 634.676 226.186L635.766 226.15V225.752C635.766 225.248 635.656 224.877 635.438 224.639C635.223 224.396 634.877 224.275 634.4 224.275C633.865 224.275 633.26 224.439 632.584 224.768L632.285 224.023C632.602 223.852 632.947 223.717 633.322 223.619C633.701 223.521 634.08 223.473 634.459 223.473C635.225 223.473 635.791 223.643 636.158 223.982C636.529 224.322 636.715 224.867 636.715 225.617V230H635.994ZM633.797 229.314C634.402 229.314 634.877 229.148 635.221 228.816C635.568 228.484 635.742 228.02 635.742 227.422V226.842L634.77 226.883C633.996 226.91 633.438 227.031 633.094 227.246C632.754 227.457 632.584 227.787 632.584 228.236C632.584 228.588 632.689 228.855 632.9 229.039C633.115 229.223 633.414 229.314 633.797 229.314ZM642.867 228.248C642.867 228.846 642.645 229.307 642.199 229.631C641.754 229.955 641.129 230.117 640.324 230.117C639.473 230.117 638.809 229.982 638.332 229.713V228.811C638.641 228.967 638.971 229.09 639.322 229.18C639.678 229.27 640.02 229.314 640.348 229.314C640.855 229.314 641.246 229.234 641.52 229.074C641.793 228.91 641.93 228.662 641.93 228.33C641.93 228.08 641.82 227.867 641.602 227.691C641.387 227.512 640.965 227.301 640.336 227.059C639.738 226.836 639.312 226.643 639.059 226.479C638.809 226.311 638.621 226.121 638.496 225.91C638.375 225.699 638.314 225.447 638.314 225.154C638.314 224.631 638.527 224.219 638.953 223.918C639.379 223.613 639.963 223.461 640.705 223.461C641.396 223.461 642.072 223.602 642.732 223.883L642.387 224.674C641.742 224.408 641.158 224.275 640.635 224.275C640.174 224.275 639.826 224.348 639.592 224.492C639.357 224.637 639.24 224.836 639.24 225.09C639.24 225.262 639.283 225.408 639.369 225.529C639.459 225.65 639.602 225.766 639.797 225.875C639.992 225.984 640.367 226.143 640.922 226.35C641.684 226.627 642.197 226.906 642.463 227.188C642.732 227.469 642.867 227.822 642.867 228.248ZM648.598 228.248C648.598 228.846 648.375 229.307 647.93 229.631C647.484 229.955 646.859 230.117 646.055 230.117C645.203 230.117 644.539 229.982 644.062 229.713V228.811C644.371 228.967 644.701 229.09 645.053 229.18C645.408 229.27 645.75 229.314 646.078 229.314C646.586 229.314 646.977 229.234 647.25 229.074C647.523 228.91 647.66 228.662 647.66 228.33C647.66 228.08 647.551 227.867 647.332 227.691C647.117 227.512 646.695 227.301 646.066 227.059C645.469 226.836 645.043 226.643 644.789 226.479C644.539 226.311 644.352 226.121 644.227 225.91C644.105 225.699 644.045 225.447 644.045 225.154C644.045 224.631 644.258 224.219 644.684 223.918C645.109 223.613 645.693 223.461 646.436 223.461C647.127 223.461 647.803 223.602 648.463 223.883L648.117 224.674C647.473 224.408 646.889 224.275 646.365 224.275C645.904 224.275 645.557 224.348 645.322 224.492C645.088 224.637 644.971 224.836 644.971 225.09C644.971 225.262 645.014 225.408 645.1 225.529C645.189 225.65 645.332 225.766 645.527 225.875C645.723 225.984 646.098 226.143 646.652 226.35C647.414 226.627 647.928 226.906 648.193 227.188C648.463 227.469 648.598 227.822 648.598 228.248ZM651.158 230H650.186V223.578H651.158V230ZM650.104 221.838C650.104 221.615 650.158 221.453 650.268 221.352C650.377 221.246 650.514 221.193 650.678 221.193C650.834 221.193 650.969 221.246 651.082 221.352C651.195 221.457 651.252 221.619 651.252 221.838C651.252 222.057 651.195 222.221 651.082 222.33C650.969 222.436 650.834 222.488 650.678 222.488C650.514 222.488 650.377 222.436 650.268 222.33C650.158 222.221 650.104 222.057 650.104 221.838ZM656.115 224.334H654.48V230H653.508V224.334H652.359V223.895L653.508 223.543V223.186C653.508 221.607 654.197 220.818 655.576 220.818C655.916 220.818 656.314 220.887 656.771 221.023L656.52 221.803C656.145 221.682 655.824 221.621 655.559 221.621C655.191 221.621 654.92 221.744 654.744 221.99C654.568 222.232 654.48 222.623 654.48 223.162V223.578H656.115V224.334ZM658.26 230H657.287V223.578H658.26V230ZM657.205 221.838C657.205 221.615 657.26 221.453 657.369 221.352C657.479 221.246 657.615 221.193 657.779 221.193C657.936 221.193 658.07 221.246 658.184 221.352C658.297 221.457 658.354 221.619 658.354 221.838C658.354 222.057 658.297 222.221 658.184 222.33C658.07 222.436 657.936 222.488 657.779 222.488C657.615 222.488 657.479 222.436 657.369 222.33C657.26 222.221 657.205 222.057 657.205 221.838ZM662.889 230.117C661.959 230.117 661.238 229.832 660.727 229.262C660.219 228.688 659.965 227.877 659.965 226.83C659.965 225.756 660.223 224.926 660.738 224.34C661.258 223.754 661.996 223.461 662.953 223.461C663.262 223.461 663.57 223.494 663.879 223.561C664.188 223.627 664.43 223.705 664.605 223.795L664.307 224.621C664.092 224.535 663.857 224.465 663.604 224.41C663.35 224.352 663.125 224.322 662.93 224.322C661.625 224.322 660.973 225.154 660.973 226.818C660.973 227.607 661.131 228.213 661.447 228.635C661.768 229.057 662.24 229.268 662.865 229.268C663.4 229.268 663.949 229.152 664.512 228.922V229.783C664.082 230.006 663.541 230.117 662.889 230.117ZM669.99 230L669.797 229.086H669.75C669.43 229.488 669.109 229.762 668.789 229.906C668.473 230.047 668.076 230.117 667.6 230.117C666.963 230.117 666.463 229.953 666.1 229.625C665.74 229.297 665.561 228.83 665.561 228.225C665.561 226.928 666.598 226.248 668.672 226.186L669.762 226.15V225.752C669.762 225.248 669.652 224.877 669.434 224.639C669.219 224.396 668.873 224.275 668.396 224.275C667.861 224.275 667.256 224.439 666.58 224.768L666.281 224.023C666.598 223.852 666.943 223.717 667.318 223.619C667.697 223.521 668.076 223.473 668.455 223.473C669.221 223.473 669.787 223.643 670.154 223.982C670.525 224.322 670.711 224.867 670.711 225.617V230H669.99ZM667.793 229.314C668.398 229.314 668.873 229.148 669.217 228.816C669.564 228.484 669.738 228.02 669.738 227.422V226.842L668.766 226.883C667.992 226.91 667.434 227.031 667.09 227.246C666.75 227.457 666.58 227.787 666.58 228.236C666.58 228.588 666.686 228.855 666.896 229.039C667.111 229.223 667.41 229.314 667.793 229.314ZM674.795 229.314C674.967 229.314 675.133 229.303 675.293 229.279C675.453 229.252 675.58 229.225 675.674 229.197V229.941C675.568 229.992 675.412 230.033 675.205 230.064C675.002 230.1 674.818 230.117 674.654 230.117C673.412 230.117 672.791 229.463 672.791 228.154V224.334H671.871V223.865L672.791 223.461L673.201 222.09H673.764V223.578H675.627V224.334H673.764V228.113C673.764 228.5 673.855 228.797 674.039 229.004C674.223 229.211 674.475 229.314 674.795 229.314ZM677.936 230H676.963V223.578H677.936V230ZM676.881 221.838C676.881 221.615 676.936 221.453 677.045 221.352C677.154 221.246 677.291 221.193 677.455 221.193C677.611 221.193 677.746 221.246 677.859 221.352C677.973 221.457 678.029 221.619 678.029 221.838C678.029 222.057 677.973 222.221 677.859 222.33C677.746 222.436 677.611 222.488 677.455 222.488C677.291 222.488 677.154 222.436 677.045 222.33C676.936 222.221 676.881 222.057 676.881 221.838ZM685.541 226.783C685.541 227.83 685.277 228.648 684.75 229.238C684.223 229.824 683.494 230.117 682.564 230.117C681.99 230.117 681.48 229.982 681.035 229.713C680.59 229.443 680.246 229.057 680.004 228.553C679.762 228.049 679.641 227.459 679.641 226.783C679.641 225.736 679.902 224.922 680.426 224.34C680.949 223.754 681.676 223.461 682.605 223.461C683.504 223.461 684.217 223.76 684.744 224.357C685.275 224.955 685.541 225.764 685.541 226.783ZM680.648 226.783C680.648 227.604 680.812 228.229 681.141 228.658C681.469 229.088 681.951 229.303 682.588 229.303C683.225 229.303 683.707 229.09 684.035 228.664C684.367 228.234 684.533 227.607 684.533 226.783C684.533 225.967 684.367 225.348 684.035 224.926C683.707 224.5 683.221 224.287 682.576 224.287C681.939 224.287 681.459 224.496 681.135 224.914C680.811 225.332 680.648 225.955 680.648 226.783ZM691.646 230V225.846C691.646 225.322 691.527 224.932 691.289 224.674C691.051 224.416 690.678 224.287 690.17 224.287C689.498 224.287 689.006 224.469 688.693 224.832C688.381 225.195 688.225 225.795 688.225 226.631V230H687.252V223.578H688.043L688.201 224.457H688.248C688.447 224.141 688.727 223.896 689.086 223.725C689.445 223.549 689.846 223.461 690.287 223.461C691.061 223.461 691.643 223.648 692.033 224.023C692.424 224.395 692.619 224.99 692.619 225.811V230H691.646Z" fill="black"/>
<path d="M274 21.5C273.189 21.5 272.513 21.9006 271.967 22.5481C271.43 23.1852 270.995 24.0857 270.635 25.1726C269.912 27.3497 269.44 30.4252 269.127 34.0665C268.5 41.3584 268.5 51.0705 268.5 60.75C268.5 70.4455 268.5 80.1084 267.877 87.3478C267.565 90.9721 267.1 93.9513 266.416 96.0125C266.074 97.0447 265.688 97.8092 265.268 98.3074C264.857 98.7952 264.439 99 264 99L264 100C264.811 100 265.487 99.5994 266.033 98.9519C266.57 98.3148 267.005 97.4143 267.365 96.3274C268.088 94.1503 268.56 91.0748 268.873 87.4335C269.5 80.1416 269.5 70.4295 269.5 60.75C269.5 51.0545 269.5 41.3916 270.123 34.1522C270.435 30.5279 270.9 27.5487 271.584 25.4875C271.926 24.4553 272.312 23.6908 272.732 23.1926C273.143 22.7048 273.561 22.5 274 22.5L274 21.5ZM274 176.5C273.561 176.5 273.143 176.295 272.732 175.807C272.312 175.309 271.926 174.545 271.584 173.512C270.9 171.451 270.435 168.472 270.123 164.848C269.5 157.608 269.5 147.945 269.5 138.25C269.5 128.57 269.5 118.858 268.873 111.567C268.56 107.925 268.088 104.85 267.365 102.673C267.005 101.586 266.57 100.685 266.033 100.048C265.487 99.4006 264.811 99 264 99L264 100C264.439 100 264.857 100.205 265.268 100.693C265.688 101.191 266.074 101.955 266.416 102.988C267.1 105.049 267.565 108.028 267.877 111.652C268.5 118.892 268.5 128.555 268.5 138.25C268.5 147.93 268.5 157.642 269.127 164.933C269.44 168.575 269.912 171.65 270.635 173.827C270.995 174.914 271.43 175.815 271.967 176.452C272.513 177.099 273.189 177.5 274 177.5L274 176.5Z" fill="black"/>
<path d="M254.027 97.4492C254.027 97.9961 253.873 98.4434 253.564 98.791C253.26 99.1387 252.826 99.3711 252.264 99.4883V99.5352C252.951 99.6211 253.461 99.8398 253.793 100.191C254.125 100.543 254.291 101.004 254.291 101.574C254.291 102.391 254.008 103.02 253.441 103.461C252.875 103.898 252.07 104.117 251.027 104.117C250.574 104.117 250.158 104.082 249.779 104.012C249.404 103.945 249.039 103.826 248.684 103.654V102.729C249.055 102.912 249.449 103.053 249.867 103.15C250.289 103.244 250.688 103.291 251.062 103.291C252.543 103.291 253.283 102.711 253.283 101.551C253.283 100.512 252.467 99.9922 250.834 99.9922H249.99V99.1543H250.846C251.514 99.1543 252.043 99.0078 252.434 98.7148C252.824 98.418 253.02 98.0078 253.02 97.4844C253.02 97.0664 252.875 96.7383 252.586 96.5C252.301 96.2617 251.912 96.1426 251.42 96.1426C251.045 96.1426 250.691 96.1934 250.359 96.2949C250.027 96.3965 249.648 96.584 249.223 96.8574L248.73 96.2012C249.082 95.9238 249.486 95.707 249.943 95.5508C250.404 95.3906 250.889 95.3105 251.396 95.3105C252.229 95.3105 252.875 95.502 253.336 95.8848C253.797 96.2637 254.027 96.7852 254.027 97.4492ZM261.217 104H255.586V103.162L257.842 100.895C258.529 100.199 258.982 99.7031 259.201 99.4062C259.42 99.1094 259.584 98.8203 259.693 98.5391C259.803 98.2578 259.857 97.9551 259.857 97.6309C259.857 97.1738 259.719 96.8125 259.441 96.5469C259.164 96.2773 258.779 96.1426 258.287 96.1426C257.932 96.1426 257.594 96.2012 257.273 96.3184C256.957 96.4355 256.604 96.6484 256.213 96.957L255.697 96.2949C256.486 95.6387 257.346 95.3105 258.275 95.3105C259.08 95.3105 259.711 95.5176 260.168 95.9316C260.625 96.3418 260.854 96.8945 260.854 97.5898C260.854 98.1328 260.701 98.6699 260.396 99.2012C260.092 99.7324 259.521 100.404 258.686 101.217L256.811 103.051V103.098H261.217V104Z" fill="black"/>
<path d="M144.5 140C144.5 141.402 145.053 142.479 146.013 143.275C146.95 144.053 148.252 144.544 149.739 144.864C152.708 145.502 156.644 145.5 160.5 145.5C164.394 145.5 168.208 145.502 171.051 146.114C172.471 146.419 173.591 146.866 174.349 147.494C175.084 148.104 175.5 148.902 175.5 150L176.5 150C176.5 148.598 175.947 147.521 174.987 146.725C174.05 145.947 172.748 145.456 171.261 145.136C168.292 144.498 164.356 144.5 160.5 144.5C156.606 144.5 152.792 144.498 149.949 143.886C148.529 143.581 147.409 143.134 146.651 142.506C145.916 141.896 145.5 141.098 145.5 140L144.5 140ZM206.5 140C206.5 141.098 206.084 141.896 205.349 142.506C204.591 143.134 203.471 143.581 202.051 143.886C199.208 144.498 195.394 144.5 191.5 144.5C187.644 144.5 183.708 144.498 180.739 145.136C179.252 145.456 177.95 145.947 177.013 146.725C176.053 147.521 175.5 148.598 175.5 150L176.5 150C176.5 148.902 176.916 148.104 177.651 147.494C178.409 146.866 179.529 146.419 180.949 146.114C183.792 145.502 187.606 145.5 191.5 145.5C195.356 145.5 199.292 145.502 202.261 144.864C203.748 144.544 205.05 144.053 205.987 143.275C206.947 142.479 207.5 141.402 207.5 140L206.5 140Z" fill="black"/>
<path d="M175.35 163H169.719V162.162L171.975 159.895C172.662 159.199 173.115 158.703 173.334 158.406C173.553 158.109 173.717 157.82 173.826 157.539C173.936 157.258 173.99 156.955 173.99 156.631C173.99 156.174 173.852 155.812 173.574 155.547C173.297 155.277 172.912 155.143 172.42 155.143C172.064 155.143 171.727 155.201 171.406 155.318C171.09 155.436 170.736 155.648 170.346 155.957L169.83 155.295C170.619 154.639 171.479 154.311 172.408 154.311C173.213 154.311 173.844 154.518 174.301 154.932C174.758 155.342 174.986 155.895 174.986 156.59C174.986 157.133 174.834 157.67 174.529 158.201C174.225 158.732 173.654 159.404 172.818 160.217L170.943 162.051V162.098H175.35V163ZM182.621 161.031H181.35V163H180.418V161.031H176.252V160.182L180.318 154.387H181.35V160.146H182.621V161.031ZM180.418 160.146V157.299C180.418 156.74 180.438 156.109 180.477 155.406H180.43C180.242 155.781 180.066 156.092 179.902 156.338L177.225 160.146H180.418Z" fill="black"/>
<path d="M175.35 163H169.719V162.162L171.975 159.895C172.662 159.199 173.115 158.703 173.334 158.406C173.553 158.109 173.717 157.82 173.826 157.539C173.936 157.258 173.99 156.955 173.99 156.631C173.99 156.174 173.852 155.812 173.574 155.547C173.297 155.277 172.912 155.143 172.42 155.143C172.064 155.143 171.727 155.201 171.406 155.318C171.09 155.436 170.736 155.648 170.346 155.957L169.83 155.295C170.619 154.639 171.479 154.311 172.408 154.311C173.213 154.311 173.844 154.518 174.301 154.932C174.758 155.342 174.986 155.895 174.986 156.59C174.986 157.133 174.834 157.67 174.529 158.201C174.225 158.732 173.654 159.404 172.818 160.217L170.943 162.051V162.098H175.35V163ZM182.621 161.031H181.35V163H180.418V161.031H176.252V160.182L180.318 154.387H181.35V160.146H182.621V161.031ZM180.418 160.146V157.299C180.418 156.74 180.438 156.109 180.477 155.406H180.43C180.242 155.781 180.066 156.092 179.902 156.338L177.225 160.146H180.418Z" fill="black"/>
<path d="M175.35 163H169.719V162.162L171.975 159.895C172.662 159.199 173.115 158.703 173.334 158.406C173.553 158.109 173.717 157.82 173.826 157.539C173.936 157.258 173.99 156.955 173.99 156.631C173.99 156.174 173.852 155.812 173.574 155.547C173.297 155.277 172.912 155.143 172.42 155.143C172.064 155.143 171.727 155.201 171.406 155.318C171.09 155.436 170.736 155.648 170.346 155.957L169.83 155.295C170.619 154.639 171.479 154.311 172.408 154.311C173.213 154.311 173.844 154.518 174.301 154.932C174.758 155.342 174.986 155.895 174.986 156.59C174.986 157.133 174.834 157.67 174.529 158.201C174.225 158.732 173.654 159.404 172.818 160.217L170.943 162.051V162.098H175.35V163ZM182.621 161.031H181.35V163H180.418V161.031H176.252V160.182L180.318 154.387H181.35V160.146H182.621V161.031ZM180.418 160.146V157.299C180.418 156.74 180.438 156.109 180.477 155.406H180.43C180.242 155.781 180.066 156.092 179.902 156.338L177.225 160.146H180.418Z" fill="black"/>
<path d="M278.5 182C278.5 183.09 278.783 183.957 279.319 184.625C279.85 185.288 280.592 185.707 281.424 185.976C283.063 186.505 285.215 186.5 287.25 186.5C289.34 186.5 291.313 186.505 292.768 186.976C293.483 187.207 294.03 187.538 294.401 188C294.767 188.457 295 189.09 295 190L296 190C296 188.91 295.717 188.043 295.181 187.375C294.65 186.712 293.908 186.293 293.076 186.024C291.437 185.495 289.285 185.5 287.25 185.5C285.16 185.5 283.187 185.495 281.732 185.024C281.017 184.793 280.47 184.462 280.099 184C279.733 183.543 279.5 182.91 279.5 182L278.5 182ZM311.5 182C311.5 182.91 311.267 183.543 310.901 184C310.53 184.462 309.983 184.793 309.268 185.024C307.813 185.495 305.84 185.5 303.75 185.5C301.715 185.5 299.563 185.495 297.924 186.024C297.092 186.293 296.35 186.712 295.819 187.375C295.283 188.043 295 188.91 295 190L296 190C296 189.09 296.233 188.457 296.599 188C296.97 187.538 297.517 187.207 298.232 186.976C299.687 186.505 301.66 186.5 303.75 186.5C305.785 186.5 307.937 186.505 309.576 185.976C310.408 185.707 311.15 185.288 311.681 184.625C312.217 183.957 312.5 183.09 312.5 182L311.5 182Z" fill="black"/>
<path d="M295.488 194.311C296.27 194.311 296.889 194.492 297.346 194.855C297.803 195.219 298.031 195.721 298.031 196.361C298.031 196.783 297.9 197.168 297.639 197.516C297.377 197.863 296.959 198.18 296.385 198.465C297.08 198.797 297.574 199.146 297.867 199.514C298.16 199.877 298.307 200.299 298.307 200.779C298.307 201.49 298.059 202.059 297.562 202.484C297.066 202.906 296.387 203.117 295.523 203.117C294.609 203.117 293.906 202.918 293.414 202.52C292.922 202.117 292.676 201.549 292.676 200.814C292.676 199.834 293.273 199.07 294.469 198.523C293.93 198.219 293.543 197.891 293.309 197.539C293.074 197.184 292.957 196.787 292.957 196.35C292.957 195.729 293.186 195.234 293.643 194.867C294.104 194.496 294.719 194.311 295.488 194.311ZM293.637 200.838C293.637 201.307 293.799 201.672 294.123 201.934C294.451 202.195 294.91 202.326 295.5 202.326C296.082 202.326 296.535 202.189 296.859 201.916C297.184 201.643 297.346 201.268 297.346 200.791C297.346 200.412 297.193 200.076 296.889 199.783C296.584 199.486 296.053 199.199 295.295 198.922C294.713 199.172 294.291 199.449 294.029 199.754C293.768 200.055 293.637 200.416 293.637 200.838ZM295.477 195.102C294.988 195.102 294.605 195.219 294.328 195.453C294.051 195.688 293.912 196 293.912 196.391C293.912 196.75 294.027 197.059 294.258 197.316C294.488 197.574 294.914 197.832 295.535 198.09C296.094 197.855 296.488 197.604 296.719 197.334C296.953 197.064 297.07 196.75 297.07 196.391C297.07 195.996 296.928 195.684 296.643 195.453C296.361 195.219 295.973 195.102 295.477 195.102Z" fill="black"/>
<path d="M496.5 125C496.5 126.262 497.309 127.15 498.49 127.757C499.662 128.36 501.293 128.743 503.184 128.996C506.974 129.501 512.012 129.5 517 129.5C522.012 129.5 526.974 129.501 530.684 129.996C532.543 130.243 534.037 130.61 535.053 131.132C536.059 131.65 536.5 132.262 536.5 133L537.5 133C537.5 131.738 536.691 130.85 535.51 130.243C534.338 129.64 532.707 129.257 530.816 129.004C527.026 128.499 521.988 128.5 517 128.5C511.988 128.5 507.026 128.499 503.316 128.004C501.457 127.757 499.963 127.39 498.947 126.868C497.941 126.35 497.5 125.738 497.5 125L496.5 125ZM576.5 125C576.5 125.738 576.059 126.35 575.053 126.868C574.037 127.39 572.543 127.757 570.684 128.004C566.974 128.499 562.012 128.5 557 128.5C552.012 128.5 546.974 128.499 543.184 129.004C541.293 129.257 539.662 129.64 538.49 130.243C537.309 130.85 536.5 131.738 536.5 133L537.5 133C537.5 132.262 537.941 131.65 538.947 131.132C539.963 130.61 541.457 130.243 543.316 129.996C547.026 129.501 551.988 129.5 557 129.5C561.988 129.5 567.026 129.501 570.816 128.996C572.707 128.743 574.338 128.36 575.51 127.757C576.691 127.15 577.5 126.262 577.5 125L576.5 125Z" fill="black"/>
<path d="M492 69.5C490.847 69.5 489.957 69.9604 489.301 70.7565C488.665 71.5298 488.268 72.5969 488.011 73.8019C487.498 76.2088 487.5 79.3942 487.5 82.5C487.5 85.6442 487.498 88.7088 487.011 90.9894C486.768 92.1282 486.415 93.0142 485.926 93.6081C485.457 94.1791 484.847 94.5 484 94.5L484 95.5C485.153 95.5 486.043 95.0396 486.699 94.2435C487.335 93.4702 487.732 92.4031 487.989 91.1981C488.502 88.7912 488.5 85.6058 488.5 82.5C488.5 79.3558 488.502 76.2912 488.989 74.0106C489.232 72.8718 489.585 71.9858 490.074 71.3919C490.543 70.8209 491.153 70.5 492 70.5L492 69.5ZM492 119.5C491.153 119.5 490.543 119.179 490.074 118.608C489.585 118.014 489.232 117.128 488.989 115.989C488.502 113.709 488.5 110.644 488.5 107.5C488.5 104.394 488.502 101.209 487.989 98.8019C487.732 97.5969 487.335 96.5298 486.699 95.7565C486.043 94.9604 485.153 94.5 484 94.5L484 95.5C484.847 95.5 485.457 95.8209 485.926 96.3919C486.415 96.9858 486.768 97.8718 487.011 99.0106C487.498 101.291 487.5 104.356 487.5 107.5C487.5 110.606 487.498 113.791 488.011 116.198C488.268 117.403 488.665 118.47 489.301 119.243C489.957 120.04 490.847 120.5 492 120.5L492 119.5Z" fill="black"/>
<path d="M534.322 146H533.373V139.895C533.373 139.387 533.389 138.906 533.42 138.453C533.338 138.535 533.246 138.621 533.145 138.711C533.043 138.801 532.578 139.182 531.75 139.854L531.234 139.186L533.502 137.434H534.322V146ZM543.264 141.705C543.264 143.186 543.029 144.291 542.561 145.021C542.096 145.752 541.383 146.117 540.422 146.117C539.5 146.117 538.799 145.744 538.318 144.998C537.838 144.248 537.598 143.15 537.598 141.705C537.598 140.213 537.83 139.105 538.295 138.383C538.76 137.66 539.469 137.299 540.422 137.299C541.352 137.299 542.057 137.676 542.537 138.43C543.021 139.184 543.264 140.275 543.264 141.705ZM538.582 141.705C538.582 142.951 538.729 143.859 539.021 144.43C539.314 144.996 539.781 145.279 540.422 145.279C541.07 145.279 541.539 144.992 541.828 144.418C542.121 143.84 542.268 142.936 542.268 141.705C542.268 140.475 542.121 139.574 541.828 139.004C541.539 138.43 541.07 138.143 540.422 138.143C539.781 138.143 539.314 138.426 539.021 138.992C538.729 139.555 538.582 140.459 538.582 141.705Z" fill="black"/>
<path d="M616.5 105C616.5 106.262 617.309 107.15 618.49 107.757C619.662 108.36 621.293 108.743 623.184 108.996C626.974 109.501 632.012 109.5 637 109.5C642.012 109.5 646.974 109.501 650.684 109.996C652.543 110.243 654.037 110.61 655.053 111.132C656.059 111.65 656.5 112.262 656.5 113L657.5 113C657.5 111.738 656.691 110.85 655.51 110.243C654.338 109.64 652.707 109.257 650.816 109.004C647.026 108.499 641.988 108.5 637 108.5C631.988 108.5 627.026 108.499 623.316 108.004C621.457 107.757 619.963 107.39 618.947 106.868C617.941 106.35 617.5 105.738 617.5 105L616.5 105ZM696.5 105C696.5 105.738 696.059 106.35 695.053 106.868C694.037 107.39 692.543 107.757 690.684 108.004C686.974 108.499 682.012 108.5 677 108.5C672.012 108.5 666.974 108.499 663.184 109.004C661.293 109.257 659.662 109.64 658.49 110.243C657.309 110.85 656.5 111.738 656.5 113L657.5 113C657.5 112.262 657.941 111.65 658.947 111.132C659.963 110.61 661.457 110.243 663.316 109.996C667.026 109.501 671.988 109.5 677 109.5C681.988 109.5 687.026 109.501 690.816 108.996C692.707 108.743 694.338 108.36 695.51 107.757C696.691 107.15 697.5 106.262 697.5 105L696.5 105Z" fill="black"/>
<path d="M654.322 126H653.373V119.895C653.373 119.387 653.389 118.906 653.42 118.453C653.338 118.535 653.246 118.621 653.145 118.711C653.043 118.801 652.578 119.182 651.75 119.854L651.234 119.186L653.502 117.434H654.322V126ZM663.264 121.705C663.264 123.186 663.029 124.291 662.561 125.021C662.096 125.752 661.383 126.117 660.422 126.117C659.5 126.117 658.799 125.744 658.318 124.998C657.838 124.248 657.598 123.15 657.598 121.705C657.598 120.213 657.83 119.105 658.295 118.383C658.76 117.66 659.469 117.299 660.422 117.299C661.352 117.299 662.057 117.676 662.537 118.43C663.021 119.184 663.264 120.275 663.264 121.705ZM658.582 121.705C658.582 122.951 658.729 123.859 659.021 124.43C659.314 124.996 659.781 125.279 660.422 125.279C661.07 125.279 661.539 124.992 661.828 124.418C662.121 123.84 662.268 122.936 662.268 121.705C662.268 120.475 662.121 119.574 661.828 119.004C661.539 118.43 661.07 118.143 660.422 118.143C659.781 118.143 659.314 118.426 659.021 118.992C658.729 119.555 658.582 120.459 658.582 121.705Z" fill="black"/>
<path d="M472.322 99H471.373V92.8945C471.373 92.3867 471.389 91.9062 471.42 91.4531C471.338 91.5352 471.246 91.6211 471.145 91.7109C471.043 91.8008 470.578 92.1816 469.75 92.8535L469.234 92.1855L471.502 90.4336H472.322V99ZM475.686 95.3379C475.686 93.6543 476.012 92.3965 476.664 91.5645C477.32 90.7285 478.289 90.3105 479.57 90.3105C480.012 90.3105 480.359 90.3477 480.613 90.4219V91.2598C480.312 91.1621 479.969 91.1133 479.582 91.1133C478.664 91.1133 477.963 91.4004 477.479 91.9746C476.994 92.5449 476.729 93.4434 476.682 94.6699H476.752C477.182 93.998 477.861 93.6621 478.791 93.6621C479.561 93.6621 480.166 93.8945 480.607 94.3594C481.053 94.8242 481.275 95.4551 481.275 96.252C481.275 97.1426 481.031 97.8438 480.543 98.3555C480.059 98.8633 479.402 99.1172 478.574 99.1172C477.688 99.1172 476.984 98.7852 476.465 98.1211C475.945 97.4531 475.686 96.5254 475.686 95.3379ZM478.562 98.291C479.117 98.291 479.547 98.1172 479.852 97.7695C480.16 97.418 480.314 96.9121 480.314 96.252C480.314 95.6855 480.172 95.2402 479.887 94.916C479.602 94.5918 479.176 94.4297 478.609 94.4297C478.258 94.4297 477.936 94.502 477.643 94.6465C477.35 94.791 477.115 94.9902 476.939 95.2441C476.768 95.498 476.682 95.7617 476.682 96.0352C476.682 96.4375 476.76 96.8125 476.916 97.1602C477.072 97.5078 477.293 97.7832 477.578 97.9863C477.867 98.1895 478.195 98.291 478.562 98.291Z" fill="black"/>
<path d="M406.5 160C406.5 161.115 406.853 161.995 407.501 162.661C408.135 163.313 409.013 163.721 409.996 163.983C411.948 164.504 414.523 164.5 417 164.5C419.523 164.5 421.948 164.504 423.746 164.983C424.638 165.221 425.323 165.563 425.782 166.036C426.228 166.495 426.5 167.115 426.5 168L427.5 168C427.5 166.885 427.147 166.005 426.499 165.339C425.865 164.687 424.987 164.279 424.004 164.017C422.052 163.496 419.477 163.5 417 163.5C414.477 163.5 412.052 163.496 410.254 163.017C409.362 162.779 408.677 162.437 408.218 161.964C407.772 161.505 407.5 160.885 407.5 160L406.5 160ZM446.5 160C446.5 160.885 446.228 161.505 445.782 161.964C445.323 162.437 444.638 162.779 443.746 163.017C441.948 163.496 439.523 163.5 437 163.5C434.523 163.5 431.948 163.496 429.996 164.017C429.013 164.279 428.135 164.687 427.501 165.339C426.853 166.005 426.5 166.885 426.5 168L427.5 168C427.5 167.115 427.772 166.495 428.218 166.036C428.677 165.563 429.362 165.221 430.254 164.983C432.052 164.504 434.477 164.5 437 164.5C439.477 164.5 442.052 164.504 444.004 163.983C444.987 163.721 445.865 163.313 446.499 162.661C447.147 161.995 447.5 161.115 447.5 160L446.5 160Z" fill="black"/>
<path d="M402 34.5C401.321 34.5 400.755 34.8259 400.303 35.3454C399.859 35.8542 399.506 36.5672 399.215 37.416C398.632 39.116 398.253 41.5094 398.002 44.3307C397.5 49.9828 397.5 57.5082 397.5 65C397.5 72.5082 397.5 79.9828 397.002 85.5807C396.753 88.3844 396.382 90.6785 395.84 92.2597C395.568 93.0516 395.266 93.6276 394.943 93.9977C394.63 94.3572 394.321 94.5 394 94.5L394 95.5C394.679 95.5 395.245 95.174 395.697 94.6546C396.14 94.1458 396.494 93.4328 396.785 92.584C397.368 90.884 397.747 88.4906 397.998 85.6693C398.5 80.0172 398.5 72.4918 398.5 65C398.5 57.4918 398.5 50.0172 398.998 44.4193C399.247 41.6156 399.618 39.3215 400.16 37.7403C400.432 36.9484 400.734 36.3724 401.057 36.0023C401.37 35.6428 401.679 35.5 402 35.5L402 34.5ZM402 154.5C401.679 154.5 401.37 154.357 401.057 153.998C400.734 153.628 400.432 153.052 400.16 152.26C399.618 150.679 399.247 148.384 398.998 145.581C398.5 139.983 398.5 132.508 398.5 125C398.5 117.508 398.5 109.983 397.998 104.331C397.747 101.509 397.368 99.116 396.785 97.416C396.494 96.5672 396.14 95.8542 395.697 95.3454C395.245 94.8259 394.679 94.5 394 94.5L394 95.5C394.321 95.5 394.63 95.6428 394.943 96.0022C395.266 96.3724 395.568 96.9484 395.84 97.7403C396.382 99.3215 396.753 101.616 397.002 104.419C397.5 110.017 397.5 117.492 397.5 125C397.5 132.492 397.5 140.017 398.002 145.669C398.253 148.491 398.632 150.884 399.214 152.584C399.506 153.433 399.859 154.146 400.303 154.655C400.755 155.174 401.321 155.5 402 155.5L402 154.5Z" fill="black"/>
<path d="M427.488 172.311C428.27 172.311 428.889 172.492 429.346 172.855C429.803 173.219 430.031 173.721 430.031 174.361C430.031 174.783 429.9 175.168 429.639 175.516C429.377 175.863 428.959 176.18 428.385 176.465C429.08 176.797 429.574 177.146 429.867 177.514C430.16 177.877 430.307 178.299 430.307 178.779C430.307 179.49 430.059 180.059 429.562 180.484C429.066 180.906 428.387 181.117 427.523 181.117C426.609 181.117 425.906 180.918 425.414 180.52C424.922 180.117 424.676 179.549 424.676 178.814C424.676 177.834 425.273 177.07 426.469 176.523C425.93 176.219 425.543 175.891 425.309 175.539C425.074 175.184 424.957 174.787 424.957 174.35C424.957 173.729 425.186 173.234 425.643 172.867C426.104 172.496 426.719 172.311 427.488 172.311ZM425.637 178.838C425.637 179.307 425.799 179.672 426.123 179.934C426.451 180.195 426.91 180.326 427.5 180.326C428.082 180.326 428.535 180.189 428.859 179.916C429.184 179.643 429.346 179.268 429.346 178.791C429.346 178.412 429.193 178.076 428.889 177.783C428.584 177.486 428.053 177.199 427.295 176.922C426.713 177.172 426.291 177.449 426.029 177.754C425.768 178.055 425.637 178.416 425.637 178.838ZM427.477 173.102C426.988 173.102 426.605 173.219 426.328 173.453C426.051 173.688 425.912 174 425.912 174.391C425.912 174.75 426.027 175.059 426.258 175.316C426.488 175.574 426.914 175.832 427.535 176.09C428.094 175.855 428.488 175.604 428.719 175.334C428.953 175.064 429.07 174.75 429.07 174.391C429.07 173.996 428.928 173.684 428.643 173.453C428.361 173.219 427.973 173.102 427.477 173.102Z" fill="black"/>
<path d="M370.482 99H364.852V98.1621L367.107 95.8945C367.795 95.1992 368.248 94.7031 368.467 94.4062C368.686 94.1094 368.85 93.8203 368.959 93.5391C369.068 93.2578 369.123 92.9551 369.123 92.6309C369.123 92.1738 368.984 91.8125 368.707 91.5469C368.43 91.2773 368.045 91.1426 367.553 91.1426C367.197 91.1426 366.859 91.2012 366.539 91.3184C366.223 91.4355 365.869 91.6484 365.479 91.957L364.963 91.2949C365.752 90.6387 366.611 90.3105 367.541 90.3105C368.346 90.3105 368.977 90.5176 369.434 90.9316C369.891 91.3418 370.119 91.8945 370.119 92.5898C370.119 93.1328 369.967 93.6699 369.662 94.2012C369.357 94.7324 368.787 95.4043 367.951 96.2168L366.076 98.0508V98.0977H370.482V99ZM377.396 94.7051C377.396 96.1855 377.162 97.291 376.693 98.0215C376.229 98.752 375.516 99.1172 374.555 99.1172C373.633 99.1172 372.932 98.7441 372.451 97.998C371.971 97.248 371.73 96.1504 371.73 94.7051C371.73 93.2129 371.963 92.1055 372.428 91.3828C372.893 90.6602 373.602 90.2988 374.555 90.2988C375.484 90.2988 376.189 90.6758 376.67 91.4297C377.154 92.1836 377.396 93.2754 377.396 94.7051ZM372.715 94.7051C372.715 95.9512 372.861 96.8594 373.154 97.4297C373.447 97.9961 373.914 98.2793 374.555 98.2793C375.203 98.2793 375.672 97.9922 375.961 97.418C376.254 96.8398 376.4 95.9355 376.4 94.7051C376.4 93.4746 376.254 92.5742 375.961 92.0039C375.672 91.4297 375.203 91.1426 374.555 91.1426C373.914 91.1426 373.447 91.4258 373.154 91.9922C372.861 92.5547 372.715 93.459 372.715 94.7051ZM384.621 97.0312H383.35V99H382.418V97.0312H378.252V96.1816L382.318 90.3867H383.35V96.1465H384.621V97.0312ZM382.418 96.1465V93.2988C382.418 92.7402 382.438 92.1094 382.477 91.4062H382.43C382.242 91.7812 382.066 92.0918 381.902 92.3379L379.225 96.1465H382.418ZM388.289 90.3105C389.07 90.3105 389.689 90.4922 390.146 90.8555C390.604 91.2188 390.832 91.7207 390.832 92.3613C390.832 92.7832 390.701 93.168 390.439 93.5156C390.178 93.8633 389.76 94.1797 389.186 94.4648C389.881 94.7969 390.375 95.1465 390.668 95.5137C390.961 95.877 391.107 96.2988 391.107 96.7793C391.107 97.4902 390.859 98.0586 390.363 98.4844C389.867 98.9062 389.188 99.1172 388.324 99.1172C387.41 99.1172 386.707 98.918 386.215 98.5195C385.723 98.1172 385.477 97.5488 385.477 96.8145C385.477 95.834 386.074 95.0703 387.27 94.5234C386.73 94.2188 386.344 93.8906 386.109 93.5391C385.875 93.1836 385.758 92.7871 385.758 92.3496C385.758 91.7285 385.986 91.2344 386.443 90.8672C386.904 90.4961 387.52 90.3105 388.289 90.3105ZM386.438 96.8379C386.438 97.3066 386.6 97.6719 386.924 97.9336C387.252 98.1953 387.711 98.3262 388.301 98.3262C388.883 98.3262 389.336 98.1895 389.66 97.916C389.984 97.6426 390.146 97.2676 390.146 96.791C390.146 96.4121 389.994 96.0762 389.689 95.7832C389.385 95.4863 388.854 95.1992 388.096 94.9219C387.514 95.1719 387.092 95.4492 386.83 95.7539C386.568 96.0547 386.438 96.416 386.438 96.8379ZM388.277 91.1016C387.789 91.1016 387.406 91.2188 387.129 91.4531C386.852 91.6875 386.713 92 386.713 92.3906C386.713 92.75 386.828 93.0586 387.059 93.3164C387.289 93.5742 387.715 93.832 388.336 94.0898C388.895 93.8555 389.289 93.6035 389.52 93.334C389.754 93.0645 389.871 92.75 389.871 92.3906C389.871 91.9961 389.729 91.6836 389.443 91.4531C389.162 91.2188 388.773 91.1016 388.277 91.1016Z" fill="black"/>
<path d="M5.96094 29.4492C5.96094 29.9961 5.80664 30.4434 5.49805 30.791C5.19336 31.1387 4.75977 31.3711 4.19727 31.4883V31.5352C4.88477 31.6211 5.39453 31.8398 5.72656 32.1914C6.05859 32.543 6.22461 33.0039 6.22461 33.5742C6.22461 34.3906 5.94141 35.0195 5.375 35.4609C4.80859 35.8984 4.00391 36.1172 2.96094 36.1172C2.50781 36.1172 2.0918 36.082 1.71289 36.0117C1.33789 35.9453 0.972656 35.8262 0.617188 35.6543V34.7285C0.988281 34.9121 1.38281 35.0527 1.80078 35.1504C2.22266 35.2441 2.62109 35.291 2.99609 35.291C4.47656 35.291 5.2168 34.7109 5.2168 33.5508C5.2168 32.5117 4.40039 31.9922 2.76758 31.9922H1.92383V31.1543H2.7793C3.44727 31.1543 3.97656 31.0078 4.36719 30.7148C4.75781 30.418 4.95312 30.0078 4.95312 29.4844C4.95312 29.0664 4.80859 28.7383 4.51953 28.5C4.23438 28.2617 3.8457 28.1426 3.35352 28.1426C2.97852 28.1426 2.625 28.1934 2.29297 28.2949C1.96094 28.3965 1.58203 28.584 1.15625 28.8574L0.664062 28.2012C1.01562 27.9238 1.41992 27.707 1.87695 27.5508C2.33789 27.3906 2.82227 27.3105 3.33008 27.3105C4.16211 27.3105 4.80859 27.502 5.26953 27.8848C5.73047 28.2637 5.96094 28.7852 5.96094 29.4492Z" fill="black"/>
<path d="M12.33 38.0963C12.0747 37.7571 11.8021 37.5067 11.5013 37.3561C11.1912 37.2007 10.8793 37.1658 10.5808 37.2153C10.035 37.3058 9.54805 37.6869 9.1962 37.9518C8.78224 38.2633 8.50338 38.4586 8.24932 38.5007C8.14785 38.5175 8.05133 38.5079 7.94027 38.4523C7.8198 38.3919 7.65845 38.2649 7.46272 38.0049L6.66374 38.6062C6.91904 38.9454 7.19167 39.1958 7.49242 39.3464C7.80257 39.5018 8.1145 39.5367 8.41296 39.4872C8.95877 39.3967 9.44572 39.0156 9.79756 38.7507C10.2115 38.4392 10.4904 38.2439 10.7444 38.2018C10.8459 38.185 10.9424 38.1946 11.0535 38.2502C11.174 38.3105 11.3353 38.4376 11.531 38.6976L12.33 38.0963ZM6.20356 42.7074C6.00783 42.4473 5.93041 42.2571 5.90576 42.1246C5.88304 42.0025 5.90051 41.9071 5.94477 41.8143C6.05557 41.5818 6.32036 41.3679 6.73433 41.0563C7.08617 40.7915 7.58719 40.429 7.82523 39.9296C7.9554 39.6565 8.00811 39.3471 7.94466 39.006C7.88313 38.6753 7.71802 38.3441 7.46272 38.0049L6.66374 38.6062C6.85946 38.8663 6.93688 39.0565 6.96153 39.1889C6.98425 39.3111 6.96678 39.4065 6.92253 39.4993C6.81173 39.7318 6.54694 39.9457 6.13297 40.2573C5.78113 40.5221 5.28011 40.8846 5.04206 41.384C4.91189 41.6571 4.85918 41.9665 4.92264 42.3076C4.98417 42.6383 5.14928 42.9695 5.40457 43.3087L6.20356 42.7074Z" fill="black"/>
<path d="M276.488 0.310547C277.27 0.310547 277.889 0.492188 278.346 0.855469C278.803 1.21875 279.031 1.7207 279.031 2.36133C279.031 2.7832 278.9 3.16797 278.639 3.51562C278.377 3.86328 277.959 4.17969 277.385 4.46484C278.08 4.79688 278.574 5.14648 278.867 5.51367C279.16 5.87695 279.307 6.29883 279.307 6.7793C279.307 7.49023 279.059 8.05859 278.562 8.48438C278.066 8.90625 277.387 9.11719 276.523 9.11719C275.609 9.11719 274.906 8.91797 274.414 8.51953C273.922 8.11719 273.676 7.54883 273.676 6.81445C273.676 5.83398 274.273 5.07031 275.469 4.52344C274.93 4.21875 274.543 3.89062 274.309 3.53906C274.074 3.18359 273.957 2.78711 273.957 2.34961C273.957 1.72852 274.186 1.23438 274.643 0.867188C275.104 0.496094 275.719 0.310547 276.488 0.310547ZM274.637 6.83789C274.637 7.30664 274.799 7.67188 275.123 7.93359C275.451 8.19531 275.91 8.32617 276.5 8.32617C277.082 8.32617 277.535 8.18945 277.859 7.91602C278.184 7.64258 278.346 7.26758 278.346 6.79102C278.346 6.41211 278.193 6.07617 277.889 5.7832C277.584 5.48633 277.053 5.19922 276.295 4.92188C275.713 5.17188 275.291 5.44922 275.029 5.75391C274.768 6.05469 274.637 6.41602 274.637 6.83789ZM276.477 1.10156C275.988 1.10156 275.605 1.21875 275.328 1.45312C275.051 1.6875 274.912 2 274.912 2.39062C274.912 2.75 275.027 3.05859 275.258 3.31641C275.488 3.57422 275.914 3.83203 276.535 4.08984C277.094 3.85547 277.488 3.60352 277.719 3.33398C277.953 3.06445 278.07 2.75 278.07 2.39062C278.07 1.99609 277.928 1.68359 277.643 1.45312C277.361 1.21875 276.973 1.10156 276.477 1.10156Z" fill="black"/>
<path d="M289.118 9.23889C288.768 8.77356 288.362 8.4693 287.898 8.33469C287.438 8.20101 286.979 8.25145 286.551 8.38951C285.726 8.65561 284.883 9.29734 284.137 9.85898C283.344 10.4558 282.647 10.9725 282.017 11.1757C281.718 11.2723 281.47 11.2843 281.256 11.2219C281.044 11.1605 280.807 11.0103 280.556 10.6767L279.757 11.278C280.107 11.7434 280.513 12.0476 280.977 12.1822C281.437 12.3159 281.896 12.2655 282.324 12.1274C283.149 11.8613 283.992 11.2196 284.738 10.658C285.531 10.0612 286.228 9.54447 286.858 9.34123C287.157 9.24463 287.405 9.23267 287.619 9.29501C287.831 9.35642 288.068 9.5066 288.319 9.84025L289.118 9.23889ZM276.805 18.5063C276.554 18.1727 276.475 17.9032 276.475 17.683C276.474 17.4594 276.554 17.225 276.73 16.964C277.099 16.4147 277.789 15.8885 278.582 15.2917C279.328 14.73 280.178 14.0979 280.662 13.3788C280.913 13.0057 281.088 12.5785 281.087 12.0992C281.086 11.6165 280.906 11.142 280.556 10.6767L279.757 11.278C280.008 11.6117 280.087 11.8812 280.087 12.1014C280.088 12.3249 280.008 12.5594 279.832 12.8204C279.462 13.3697 278.773 13.8959 277.98 14.4927C277.234 15.0543 276.384 15.6865 275.9 16.4056C275.649 16.7787 275.474 17.2059 275.475 17.6852C275.476 18.1679 275.656 18.6424 276.006 19.1077L276.805 18.5063Z" fill="black"/>
<path d="M142.416 49H136.785V48.1621L139.041 45.8945C139.729 45.1992 140.182 44.7031 140.4 44.4062C140.619 44.1094 140.783 43.8203 140.893 43.5391C141.002 43.2578 141.057 42.9551 141.057 42.6309C141.057 42.1738 140.918 41.8125 140.641 41.5469C140.363 41.2773 139.979 41.1426 139.486 41.1426C139.131 41.1426 138.793 41.2012 138.473 41.3184C138.156 41.4355 137.803 41.6484 137.412 41.957L136.896 41.2949C137.686 40.6387 138.545 40.3105 139.475 40.3105C140.279 40.3105 140.91 40.5176 141.367 40.9316C141.824 41.3418 142.053 41.8945 142.053 42.5898C142.053 43.1328 141.9 43.6699 141.596 44.2012C141.291 44.7324 140.721 45.4043 139.885 46.2168L138.01 48.0508V48.0977H142.416V49ZM146.33 43.7676C147.232 43.7676 147.941 43.9922 148.457 44.4414C148.977 44.8867 149.236 45.498 149.236 46.2754C149.236 47.1621 148.953 47.8574 148.387 48.3613C147.824 48.8652 147.047 49.1172 146.055 49.1172C145.09 49.1172 144.354 48.9629 143.846 48.6543V47.7168C144.119 47.8926 144.459 48.0312 144.865 48.1328C145.271 48.2305 145.672 48.2793 146.066 48.2793C146.754 48.2793 147.287 48.1172 147.666 47.793C148.049 47.4688 148.24 47 148.24 46.3867C148.24 45.1914 147.508 44.5938 146.043 44.5938C145.672 44.5938 145.176 44.6504 144.555 44.7637L144.051 44.4414L144.373 40.4336H148.633V41.3301H145.205L144.988 43.9023C145.438 43.8125 145.885 43.7676 146.33 43.7676ZM150.619 45.3379C150.619 43.6543 150.945 42.3965 151.598 41.5645C152.254 40.7285 153.223 40.3105 154.504 40.3105C154.945 40.3105 155.293 40.3477 155.547 40.4219V41.2598C155.246 41.1621 154.902 41.1133 154.516 41.1133C153.598 41.1133 152.896 41.4004 152.412 41.9746C151.928 42.5449 151.662 43.4434 151.615 44.6699H151.686C152.115 43.998 152.795 43.6621 153.725 43.6621C154.494 43.6621 155.1 43.8945 155.541 44.3594C155.986 44.8242 156.209 45.4551 156.209 46.252C156.209 47.1426 155.965 47.8438 155.477 48.3555C154.992 48.8633 154.336 49.1172 153.508 49.1172C152.621 49.1172 151.918 48.7852 151.398 48.1211C150.879 47.4531 150.619 46.5254 150.619 45.3379ZM153.496 48.291C154.051 48.291 154.48 48.1172 154.785 47.7695C155.094 47.418 155.248 46.9121 155.248 46.252C155.248 45.6855 155.105 45.2402 154.82 44.916C154.535 44.5918 154.109 44.4297 153.543 44.4297C153.191 44.4297 152.869 44.502 152.576 44.6465C152.283 44.791 152.049 44.9902 151.873 45.2441C151.701 45.498 151.615 45.7617 151.615 46.0352C151.615 46.4375 151.693 46.8125 151.85 47.1602C152.006 47.5078 152.227 47.7832 152.512 47.9863C152.801 48.1895 153.129 48.291 153.496 48.291Z" fill="black"/>
<path d="M167.471 48.1885C167.046 47.6236 166.437 47.4326 165.787 47.4818C165.166 47.5289 164.48 47.7934 163.783 48.1568C162.385 48.8859 160.744 50.1229 159.152 51.3212C157.536 52.5376 155.968 53.7154 154.66 54.3978C154.003 54.7402 153.461 54.9307 153.042 54.9624C152.652 54.9919 152.409 54.8856 152.233 54.6515L151.434 55.2528C151.859 55.8177 152.468 56.0088 153.118 55.9595C153.739 55.9124 154.425 55.6479 155.122 55.2845C156.52 54.5554 158.161 53.3184 159.753 52.1201C161.369 50.9037 162.937 49.7259 164.245 49.0435C164.902 48.7011 165.444 48.5107 165.863 48.4789C166.253 48.4494 166.496 48.5558 166.672 48.7898L167.471 48.1885ZM141.805 67.5063C141.629 67.2723 141.594 67.0091 141.73 66.6424C141.877 66.2489 142.21 65.7806 142.72 65.2444C143.738 64.1757 145.304 62.9956 146.92 61.7791C148.512 60.5808 150.155 59.3463 151.242 58.2044C151.784 57.6354 152.229 57.0494 152.446 56.4653C152.673 55.8543 152.658 55.2164 152.233 54.6515L151.434 55.2528C151.61 55.4869 151.645 55.7501 151.508 56.1167C151.362 56.5103 151.029 56.9785 150.518 57.5147C149.5 58.5835 147.935 59.7636 146.319 60.9801C144.727 62.1784 143.084 63.4129 141.996 64.5547C141.454 65.1238 141.01 65.7098 140.793 66.2939C140.566 66.9049 140.581 67.5428 141.006 68.1077L141.805 67.5063Z" fill="black"/>
<path d="M145 72.5238L170.882 53H233V115.476L207.118 135H145V72.5238Z" fill="white"/>
<path d="M145 72.5238L170.882 53H233M145 72.5238H207.118M145 72.5238V135H207.118M233 53L207.118 72.5238M233 53V115.476L207.118 135M207.118 72.5238V135" stroke="#32ACF1" stroke-width="2"/>
<path d="M9 46.4366L14.8889 42L115 42V142.563L109.111 147H9V46.4366Z" fill="white"/>
<path d="M9 46.4366L14.8889 42L115 42M9 46.4366H109.111M9 46.4366V147H109.111M115 42L109.111 46.4366M115 42V142.563L109.111 147M109.111 46.4366V147" stroke="black" stroke-width="2"/>
<path d="M90 126H62V98L66 95H94V123L90 126Z" fill="#8BCDF2"/>
<path d="M62 98V126H90M62 98L66 95H94M62 98H90M90 98V126M90 98L94 95M90 126L94 123V95" stroke="#32ACF1"/>
<path d="M153.5 116.5H160.5V123.5H153.5V116.5Z" fill="#8BCDF2" stroke="#32ACF1"/>
<path d="M72.416 111.09C72.416 114.441 71.1191 116.117 68.5254 116.117C68.0723 116.117 67.7129 116.078 67.4473 116V115.162C67.7598 115.264 68.1152 115.314 68.5137 115.314C69.4512 115.314 70.1582 115.025 70.6348 114.447C71.1152 113.865 71.377 112.975 71.4199 111.775H71.3496C71.1348 112.1 70.8496 112.348 70.4941 112.52C70.1387 112.688 69.7383 112.771 69.293 112.771C68.5352 112.771 67.9336 112.545 67.4883 112.092C67.043 111.639 66.8203 111.006 66.8203 110.193C66.8203 109.303 67.0684 108.6 67.5645 108.084C68.0645 107.568 68.7207 107.311 69.5332 107.311C70.1152 107.311 70.623 107.461 71.0566 107.762C71.4941 108.059 71.8301 108.494 72.0645 109.068C72.2988 109.639 72.416 110.312 72.416 111.09ZM69.5332 108.143C68.9746 108.143 68.543 108.322 68.2383 108.682C67.9336 109.041 67.7812 109.541 67.7812 110.182C67.7812 110.744 67.9219 111.188 68.2031 111.512C68.4844 111.832 68.9121 111.992 69.4863 111.992C69.8418 111.992 70.168 111.92 70.4648 111.775C70.7656 111.631 71.002 111.434 71.1738 111.184C71.3457 110.934 71.4316 110.672 71.4316 110.398C71.4316 109.988 71.3516 109.609 71.1914 109.262C71.0312 108.914 70.8066 108.641 70.5176 108.441C70.2324 108.242 69.9043 108.143 69.5332 108.143ZM78.5742 109.109L79.1367 109.689L77.0742 111.764L79.125 113.826L78.5625 114.406L76.4883 112.35L74.4492 114.406L73.8574 113.826L75.9082 111.764L73.8457 109.701L74.4316 109.109L76.5 111.189L78.5742 109.109ZM86.1504 111.09C86.1504 114.441 84.8535 116.117 82.2598 116.117C81.8066 116.117 81.4473 116.078 81.1816 116V115.162C81.4941 115.264 81.8496 115.314 82.248 115.314C83.1855 115.314 83.8926 115.025 84.3691 114.447C84.8496 113.865 85.1113 112.975 85.1543 111.775H85.084C84.8691 112.1 84.584 112.348 84.2285 112.52C83.873 112.688 83.4727 112.771 83.0273 112.771C82.2695 112.771 81.668 112.545 81.2227 112.092C80.7773 111.639 80.5547 111.006 80.5547 110.193C80.5547 109.303 80.8027 108.6 81.2988 108.084C81.7988 107.568 82.4551 107.311 83.2676 107.311C83.8496 107.311 84.3574 107.461 84.791 107.762C85.2285 108.059 85.5645 108.494 85.7988 109.068C86.0332 109.639 86.1504 110.312 86.1504 111.09ZM83.2676 108.143C82.709 108.143 82.2773 108.322 81.9727 108.682C81.668 109.041 81.5156 109.541 81.5156 110.182C81.5156 110.744 81.6562 111.188 81.9375 111.512C82.2188 111.832 82.6465 111.992 83.2207 111.992C83.5762 111.992 83.9023 111.92 84.1992 111.775C84.5 111.631 84.7363 111.434 84.9082 111.184C85.0801 110.934 85.166 110.672 85.166 110.398C85.166 109.988 85.0859 109.609 84.9258 109.262C84.7656 108.914 84.541 108.641 84.252 108.441C83.9668 108.242 83.6387 108.143 83.2676 108.143Z" fill="black"/>
<line x1="156.881" y1="116.356" x2="93.8814" y2="95.3558" stroke="black" stroke-width="0.75" stroke-dasharray="2 3"/>
<line x1="89.9888" y1="125.625" x2="156.989" y2="123.625" stroke="black" stroke-width="0.75" stroke-dasharray="2 3"/>
<path d="M279 22L291 13H324V47L312.056 56H279V22Z" fill="white"/>
<path d="M279 22L291 13H324M279 22H312.056M279 22V56H312.056M324 13L312.056 22M324 13V47L312.056 56M312.056 22V56" stroke="#32ACF1" stroke-width="2"/>
<path d="M279 70L291 61H324V95L312.056 104H279V70Z" fill="white"/>
<path d="M279 70L291 61H324M279 70H312.056M279 70V104H312.056M324 61L312.056 70M324 61V95L312.056 104M312.056 70V104" stroke="#32ACF1" stroke-width="2"/>
<path d="M279 143L291 134H324V168L312.056 177H279V143Z" fill="white"/>
<path d="M279 143L291 134H324M279 143H312.056M279 143V177H312.056M324 134L312.056 143M324 134V168L312.056 177M312.056 143V177" stroke="#32ACF1" stroke-width="2"/>
<circle cx="302" cy="111" r="2" fill="black"/>
<circle cx="302" cy="119" r="2" fill="black"/>
<circle cx="302" cy="127" r="2" fill="black"/>
<line x1="496.785" y1="70.3072" x2="446.785" y2="35.3072" stroke="black" stroke-width="0.75" stroke-dasharray="2 3"/>
<line x1="446.785" y1="154.693" x2="496.785" y2="119.693" stroke="black" stroke-width="0.75" stroke-dasharray="2 3"/>
<line x1="279.21" y1="22.311" x2="233.21" y2="53.311" stroke="black" stroke-width="0.75" stroke-dasharray="2 3"/>
<line x1="207.189" y1="134.676" x2="279.189" y2="176.676" stroke="black" stroke-width="0.75" stroke-dasharray="2 3"/>
<rect x="497" y="70" width="80" height="50" fill="white" stroke="#32ACF1" stroke-width="2"/>
<rect x="617" y="90" width="80" height="10" fill="white" stroke="black" stroke-width="2"/>
<rect x="407" y="35" width="40" height="120" fill="white" stroke="#32ACF1" stroke-width="2"/>
<path d="M354.354 95.3536C354.549 95.1583 354.549 94.8417 354.354 94.6464L351.172 91.4645C350.976 91.2692 350.66 91.2692 350.464 91.4645C350.269 91.6597 350.269 91.9763 350.464 92.1716L353.293 95L350.464 97.8284C350.269 98.0237 350.269 98.3403 350.464 98.5355C350.66 98.7308 350.976 98.7308 351.172 98.5355L354.354 95.3536ZM334 95.5H354V94.5H334V95.5Z" fill="black"/>
<path d="M607.354 95.3536C607.549 95.1583 607.549 94.8417 607.354 94.6464L604.172 91.4645C603.976 91.2692 603.66 91.2692 603.464 91.4645C603.269 91.6597 603.269 91.9763 603.464 92.1716L606.293 95L603.464 97.8284C603.269 98.0237 603.269 98.3403 603.464 98.5355C603.66 98.7308 603.976 98.7308 604.172 98.5355L607.354 95.3536ZM587 95.5H607V94.5H587V95.5Z" fill="black"/>
<path d="M485 31.9727V31.1699H490.449V31.9727H485ZM485 34.3691V33.5664H490.449V34.3691H485ZM498.402 39.2148H495.477V27.0059H498.402V27.6484H496.146V38.5654H498.402V39.2148ZM502.18 28.3105C502.961 28.3105 503.58 28.4922 504.037 28.8555C504.494 29.2188 504.723 29.7207 504.723 30.3613C504.723 30.7832 504.592 31.168 504.33 31.5156C504.068 31.8633 503.65 32.1797 503.076 32.4648C503.771 32.7969 504.266 33.1465 504.559 33.5137C504.852 33.877 504.998 34.2988 504.998 34.7793C504.998 35.4902 504.75 36.0586 504.254 36.4844C503.758 36.9062 503.078 37.1172 502.215 37.1172C501.301 37.1172 500.598 36.918 500.105 36.5195C499.613 36.1172 499.367 35.5488 499.367 34.8145C499.367 33.834 499.965 33.0703 501.16 32.5234C500.621 32.2188 500.234 31.8906 500 31.5391C499.766 31.1836 499.648 30.7871 499.648 30.3496C499.648 29.7285 499.877 29.2344 500.334 28.8672C500.795 28.4961 501.41 28.3105 502.18 28.3105ZM500.328 34.8379C500.328 35.3066 500.49 35.6719 500.814 35.9336C501.143 36.1953 501.602 36.3262 502.191 36.3262C502.773 36.3262 503.227 36.1895 503.551 35.916C503.875 35.6426 504.037 35.2676 504.037 34.791C504.037 34.4121 503.885 34.0762 503.58 33.7832C503.275 33.4863 502.744 33.1992 501.986 32.9219C501.404 33.1719 500.982 33.4492 500.721 33.7539C500.459 34.0547 500.328 34.416 500.328 34.8379ZM502.168 29.1016C501.68 29.1016 501.297 29.2188 501.02 29.4531C500.742 29.6875 500.604 30 500.604 30.3906C500.604 30.75 500.719 31.0586 500.949 31.3164C501.18 31.5742 501.605 31.832 502.227 32.0898C502.785 31.8555 503.18 31.6035 503.41 31.334C503.645 31.0645 503.762 30.75 503.762 30.3906C503.762 29.9961 503.619 29.6836 503.334 29.4531C503.053 29.2188 502.664 29.1016 502.168 29.1016ZM511.133 30.1094L511.695 30.6895L509.633 32.7637L511.684 34.8262L511.121 35.4062L509.047 33.3496L507.008 35.4062L506.416 34.8262L508.467 32.7637L506.404 30.7012L506.99 30.1094L509.059 32.1895L511.133 30.1094ZM516.682 37H515.732V30.8945C515.732 30.3867 515.748 29.9062 515.779 29.4531C515.697 29.5352 515.605 29.6211 515.504 29.7109C515.402 29.8008 514.938 30.1816 514.109 30.8535L513.594 30.1855L515.861 28.4336H516.682V37ZM520.045 33.3379C520.045 31.6543 520.371 30.3965 521.023 29.5645C521.68 28.7285 522.648 28.3105 523.93 28.3105C524.371 28.3105 524.719 28.3477 524.973 28.4219V29.2598C524.672 29.1621 524.328 29.1133 523.941 29.1133C523.023 29.1133 522.322 29.4004 521.838 29.9746C521.354 30.5449 521.088 31.4434 521.041 32.6699H521.111C521.541 31.998 522.221 31.6621 523.15 31.6621C523.92 31.6621 524.525 31.8945 524.967 32.3594C525.412 32.8242 525.635 33.4551 525.635 34.252C525.635 35.1426 525.391 35.8438 524.902 36.3555C524.418 36.8633 523.762 37.1172 522.934 37.1172C522.047 37.1172 521.344 36.7852 520.824 36.1211C520.305 35.4531 520.045 34.5254 520.045 33.3379ZM522.922 36.291C523.477 36.291 523.906 36.1172 524.211 35.7695C524.52 35.418 524.674 34.9121 524.674 34.252C524.674 33.6855 524.531 33.2402 524.246 32.916C523.961 32.5918 523.535 32.4297 522.969 32.4297C522.617 32.4297 522.295 32.502 522.002 32.6465C521.709 32.791 521.475 32.9902 521.299 33.2441C521.127 33.498 521.041 33.7617 521.041 34.0352C521.041 34.4375 521.119 34.8125 521.275 35.1602C521.432 35.5078 521.652 35.7832 521.938 35.9863C522.227 36.1895 522.555 36.291 522.922 36.291ZM526.575 38.5654H528.831V27.6484H526.575V27.0059H529.501V39.2148H526.575V38.5654Z" fill="black"/>
<path d="M470.549 28.8865C470.641 28.6483 470.668 28.5689 471.779 28.5689V28C471.118 28.0265 471.091 28.0265 470.337 28.0265C469.953 28.0265 468.987 28.0265 468.67 28V28.5689C468.829 28.5689 469.993 28.5689 469.993 28.7541C469.993 28.7674 469.993 28.7939 469.94 28.9129L467.717 34.814L465.349 28.5689H466.606V28C466.182 28.0265 464.952 28.0265 464.449 28.0265C464.039 28.0265 462.756 28.0265 462.438 28V28.5689H463.549L464.092 29.9979L462.279 34.814L459.924 28.5689H461.168V28C460.784 28.0265 459.487 28.0265 459.011 28.0265C458.588 28.0265 457.331 28.0265 457 28V28.5689H458.111L461.26 36.8781C461.34 37.103 461.38 37.1956 461.671 37.1956C461.962 37.1956 462.001 37.103 462.081 36.8913L464.383 30.7917L466.698 36.8913C466.778 37.103 466.817 37.1956 467.109 37.1956C467.36 37.1956 467.426 37.1427 467.519 36.8913L470.549 28.8865Z" fill="black"/>
<path d="M475.148 38.1728C475.148 38.1176 475.104 38.0735 475.038 38.0735C474.938 38.0735 474.927 38.1066 474.872 38.2941C474.585 39.2978 474.133 39.6397 473.769 39.6397C473.637 39.6397 473.482 39.6066 473.482 39.2757C473.482 38.9779 473.615 38.647 473.736 38.3162L474.508 36.2647C474.541 36.1764 474.619 35.9779 474.619 35.7683C474.619 35.3051 474.288 34.886 473.747 34.886C472.732 34.886 472.324 36.4853 472.324 36.5735C472.324 36.6176 472.369 36.6728 472.446 36.6728C472.545 36.6728 472.556 36.6286 472.6 36.4742C472.865 35.5478 473.284 35.1066 473.714 35.1066C473.813 35.1066 474.001 35.1176 474.001 35.4705C474.001 35.7573 473.858 36.1213 473.769 36.3639L472.997 38.4154C472.931 38.5919 472.865 38.7684 472.865 38.9669C472.865 39.4632 473.207 39.8603 473.736 39.8603C474.751 39.8603 475.148 38.25 475.148 38.1728ZM475.06 32.8676C475.06 32.7021 474.927 32.5036 474.685 32.5036C474.431 32.5036 474.144 32.7463 474.144 33.033C474.144 33.3088 474.376 33.397 474.508 33.397C474.806 33.397 475.06 33.1103 475.06 32.8676Z" fill="black"/>
<path d="M479.557 36.2536C479.601 36.0772 479.601 35.9228 479.601 35.8786C479.601 35.2389 479.127 34.886 478.631 34.886C477.517 34.886 476.921 36.4963 476.921 36.5735C476.921 36.6286 476.965 36.6728 477.031 36.6728C477.12 36.6728 477.131 36.6286 477.186 36.5183C477.627 35.4485 478.179 35.1066 478.598 35.1066C478.829 35.1066 478.951 35.2279 478.951 35.6139C478.951 35.8786 478.918 35.9889 478.873 36.1875L477.826 40.3456C477.616 41.1618 477.098 41.7794 476.491 41.7794C476.447 41.7794 476.215 41.7794 476.006 41.6691C476.27 41.614 476.48 41.4044 476.48 41.1397C476.48 40.9632 476.348 40.7868 476.105 40.7868C475.818 40.7868 475.554 41.0294 475.554 41.3603C475.554 41.8125 476.039 42 476.491 42C477.252 42 478.256 41.4375 478.531 40.3345L479.557 36.2536ZM480.009 32.8676C480.009 32.5918 479.778 32.5036 479.645 32.5036C479.348 32.5036 479.094 32.7904 479.094 33.033C479.094 33.1985 479.226 33.397 479.469 33.397C479.723 33.397 480.009 33.1543 480.009 32.8676Z" fill="black"/>
<path d="M184.832 20.9727V20.1699H190.281V20.9727H184.832ZM184.832 23.3691V22.5664H190.281V23.3691H184.832ZM198.234 28.2148H195.309V16.0059H198.234V16.6484H195.979V27.5654H198.234V28.2148ZM204.807 21.0898C204.807 24.4414 203.51 26.1172 200.916 26.1172C200.463 26.1172 200.104 26.0781 199.838 26V25.1621C200.15 25.2637 200.506 25.3145 200.904 25.3145C201.842 25.3145 202.549 25.0254 203.025 24.4473C203.506 23.8652 203.768 22.9746 203.811 21.7754H203.74C203.525 22.0996 203.24 22.3477 202.885 22.5195C202.529 22.6875 202.129 22.7715 201.684 22.7715C200.926 22.7715 200.324 22.5449 199.879 22.0918C199.434 21.6387 199.211 21.0059 199.211 20.1934C199.211 19.3027 199.459 18.5996 199.955 18.084C200.455 17.5684 201.111 17.3105 201.924 17.3105C202.506 17.3105 203.014 17.4609 203.447 17.7617C203.885 18.0586 204.221 18.4941 204.455 19.0684C204.689 19.6387 204.807 20.3125 204.807 21.0898ZM201.924 18.1426C201.365 18.1426 200.934 18.3223 200.629 18.6816C200.324 19.041 200.172 19.541 200.172 20.1816C200.172 20.7441 200.312 21.1875 200.594 21.5117C200.875 21.832 201.303 21.9922 201.877 21.9922C202.232 21.9922 202.559 21.9199 202.855 21.7754C203.156 21.6309 203.393 21.4336 203.564 21.1836C203.736 20.9336 203.822 20.6719 203.822 20.3984C203.822 19.9883 203.742 19.6094 203.582 19.2617C203.422 18.9141 203.197 18.6406 202.908 18.4414C202.623 18.2422 202.295 18.1426 201.924 18.1426ZM210.965 19.1094L211.527 19.6895L209.465 21.7637L211.516 23.8262L210.953 24.4062L208.879 22.3496L206.84 24.4062L206.248 23.8262L208.299 21.7637L206.236 19.7012L206.822 19.1094L208.891 21.1895L210.965 19.1094ZM218.541 21.0898C218.541 24.4414 217.244 26.1172 214.65 26.1172C214.197 26.1172 213.838 26.0781 213.572 26V25.1621C213.885 25.2637 214.24 25.3145 214.639 25.3145C215.576 25.3145 216.283 25.0254 216.76 24.4473C217.24 23.8652 217.502 22.9746 217.545 21.7754H217.475C217.26 22.0996 216.975 22.3477 216.619 22.5195C216.264 22.6875 215.863 22.7715 215.418 22.7715C214.66 22.7715 214.059 22.5449 213.613 22.0918C213.168 21.6387 212.945 21.0059 212.945 20.1934C212.945 19.3027 213.193 18.5996 213.689 18.084C214.189 17.5684 214.846 17.3105 215.658 17.3105C216.24 17.3105 216.748 17.4609 217.182 17.7617C217.619 18.0586 217.955 18.4941 218.189 19.0684C218.424 19.6387 218.541 20.3125 218.541 21.0898ZM215.658 18.1426C215.1 18.1426 214.668 18.3223 214.363 18.6816C214.059 19.041 213.906 19.541 213.906 20.1816C213.906 20.7441 214.047 21.1875 214.328 21.5117C214.609 21.832 215.037 21.9922 215.611 21.9922C215.967 21.9922 216.293 21.9199 216.59 21.7754C216.891 21.6309 217.127 21.4336 217.299 21.1836C217.471 20.9336 217.557 20.6719 217.557 20.3984C217.557 19.9883 217.477 19.6094 217.316 19.2617C217.156 18.9141 216.932 18.6406 216.643 18.4414C216.357 18.2422 216.029 18.1426 215.658 18.1426ZM224.699 19.1094L225.262 19.6895L223.199 21.7637L225.25 23.8262L224.688 24.4062L222.613 22.3496L220.574 24.4062L219.982 23.8262L222.033 21.7637L219.971 19.7012L220.557 19.1094L222.625 21.1895L224.699 19.1094ZM232.275 26H226.645V25.1621L228.9 22.8945C229.588 22.1992 230.041 21.7031 230.26 21.4062C230.479 21.1094 230.643 20.8203 230.752 20.5391C230.861 20.2578 230.916 19.9551 230.916 19.6309C230.916 19.1738 230.777 18.8125 230.5 18.5469C230.223 18.2773 229.838 18.1426 229.346 18.1426C228.99 18.1426 228.652 18.2012 228.332 18.3184C228.016 18.4355 227.662 18.6484 227.271 18.957L226.756 18.2949C227.545 17.6387 228.404 17.3105 229.334 17.3105C230.139 17.3105 230.77 17.5176 231.227 17.9316C231.684 18.3418 231.912 18.8945 231.912 19.5898C231.912 20.1328 231.76 20.6699 231.455 21.2012C231.15 21.7324 230.58 22.4043 229.744 23.2168L227.869 25.0508V25.0977H232.275V26ZM236.189 20.7676C237.092 20.7676 237.801 20.9922 238.316 21.4414C238.836 21.8867 239.096 22.498 239.096 23.2754C239.096 24.1621 238.812 24.8574 238.246 25.3613C237.684 25.8652 236.906 26.1172 235.914 26.1172C234.949 26.1172 234.213 25.9629 233.705 25.6543V24.7168C233.979 24.8926 234.318 25.0312 234.725 25.1328C235.131 25.2305 235.531 25.2793 235.926 25.2793C236.613 25.2793 237.146 25.1172 237.525 24.793C237.908 24.4688 238.1 24 238.1 23.3867C238.1 22.1914 237.367 21.5938 235.902 21.5938C235.531 21.5938 235.035 21.6504 234.414 21.7637L233.91 21.4414L234.232 17.4336H238.492V18.3301H235.064L234.848 20.9023C235.297 20.8125 235.744 20.7676 236.189 20.7676ZM240.479 22.3379C240.479 20.6543 240.805 19.3965 241.457 18.5645C242.113 17.7285 243.082 17.3105 244.363 17.3105C244.805 17.3105 245.152 17.3477 245.406 17.4219V18.2598C245.105 18.1621 244.762 18.1133 244.375 18.1133C243.457 18.1133 242.756 18.4004 242.271 18.9746C241.787 19.5449 241.521 20.4434 241.475 21.6699H241.545C241.975 20.998 242.654 20.6621 243.584 20.6621C244.354 20.6621 244.959 20.8945 245.4 21.3594C245.846 21.8242 246.068 22.4551 246.068 23.252C246.068 24.1426 245.824 24.8438 245.336 25.3555C244.852 25.8633 244.195 26.1172 243.367 26.1172C242.48 26.1172 241.777 25.7852 241.258 25.1211C240.738 24.4531 240.479 23.5254 240.479 22.3379ZM243.355 25.291C243.91 25.291 244.34 25.1172 244.645 24.7695C244.953 24.418 245.107 23.9121 245.107 23.252C245.107 22.6855 244.965 22.2402 244.68 21.916C244.395 21.5918 243.969 21.4297 243.402 21.4297C243.051 21.4297 242.729 21.502 242.436 21.6465C242.143 21.791 241.908 21.9902 241.732 22.2441C241.561 22.498 241.475 22.7617 241.475 23.0352C241.475 23.4375 241.553 23.8125 241.709 24.1602C241.865 24.5078 242.086 24.7832 242.371 24.9863C242.66 25.1895 242.988 25.291 243.355 25.291ZM252.168 19.1094L252.73 19.6895L250.668 21.7637L252.719 23.8262L252.156 24.4062L250.082 22.3496L248.043 24.4062L247.451 23.8262L249.502 21.7637L247.439 19.7012L248.025 19.1094L250.094 21.1895L252.168 19.1094ZM256.949 17.3105C257.73 17.3105 258.35 17.4922 258.807 17.8555C259.264 18.2188 259.492 18.7207 259.492 19.3613C259.492 19.7832 259.361 20.168 259.1 20.5156C258.838 20.8633 258.42 21.1797 257.846 21.4648C258.541 21.7969 259.035 22.1465 259.328 22.5137C259.621 22.877 259.768 23.2988 259.768 23.7793C259.768 24.4902 259.52 25.0586 259.023 25.4844C258.527 25.9062 257.848 26.1172 256.984 26.1172C256.07 26.1172 255.367 25.918 254.875 25.5195C254.383 25.1172 254.137 24.5488 254.137 23.8145C254.137 22.834 254.734 22.0703 255.93 21.5234C255.391 21.2188 255.004 20.8906 254.77 20.5391C254.535 20.1836 254.418 19.7871 254.418 19.3496C254.418 18.7285 254.646 18.2344 255.104 17.8672C255.564 17.4961 256.18 17.3105 256.949 17.3105ZM255.098 23.8379C255.098 24.3066 255.26 24.6719 255.584 24.9336C255.912 25.1953 256.371 25.3262 256.961 25.3262C257.543 25.3262 257.996 25.1895 258.32 24.916C258.645 24.6426 258.807 24.2676 258.807 23.791C258.807 23.4121 258.654 23.0762 258.35 22.7832C258.045 22.4863 257.514 22.1992 256.756 21.9219C256.174 22.1719 255.752 22.4492 255.49 22.7539C255.229 23.0547 255.098 23.416 255.098 23.8379ZM256.938 18.1016C256.449 18.1016 256.066 18.2188 255.789 18.4531C255.512 18.6875 255.373 19 255.373 19.3906C255.373 19.75 255.488 20.0586 255.719 20.3164C255.949 20.5742 256.375 20.832 256.996 21.0898C257.555 20.8555 257.949 20.6035 258.18 20.334C258.414 20.0645 258.531 19.75 258.531 19.3906C258.531 18.9961 258.389 18.6836 258.104 18.4531C257.822 18.2188 257.434 18.1016 256.938 18.1016ZM260.743 27.5654H262.999V16.6484H260.743V16.0059H263.669V28.2148H260.743V27.5654Z" fill="black"/>
<path d="M171.549 17.8865C171.641 17.6483 171.668 17.5689 172.779 17.5689V17C172.118 17.0265 172.091 17.0265 171.337 17.0265C170.953 17.0265 169.987 17.0265 169.67 17V17.5689C169.829 17.5689 170.993 17.5689 170.993 17.7541C170.993 17.7674 170.993 17.7939 170.94 17.9129L168.717 23.814L166.349 17.5689H167.606V17C167.182 17.0265 165.952 17.0265 165.449 17.0265C165.039 17.0265 163.756 17.0265 163.438 17V17.5689H164.549L165.092 18.9979L163.279 23.814L160.924 17.5689H162.168V17C161.784 17.0265 160.487 17.0265 160.011 17.0265C159.588 17.0265 158.331 17.0265 158 17V17.5689H159.111L162.26 25.8781C162.34 26.103 162.38 26.1956 162.671 26.1956C162.962 26.1956 163.001 26.103 163.081 25.8913L165.383 19.7917L167.698 25.8913C167.778 26.103 167.817 26.1956 168.109 26.1956C168.36 26.1956 168.426 26.1427 168.519 25.8913L171.549 17.8865Z" fill="black"/>
<path d="M176.148 27.1728C176.148 27.1176 176.104 27.0735 176.038 27.0735C175.938 27.0735 175.927 27.1066 175.872 27.2941C175.585 28.2978 175.133 28.6397 174.769 28.6397C174.637 28.6397 174.482 28.6066 174.482 28.2757C174.482 27.9779 174.615 27.647 174.736 27.3162L175.508 25.2647C175.541 25.1764 175.619 24.9779 175.619 24.7683C175.619 24.3051 175.288 23.886 174.747 23.886C173.732 23.886 173.324 25.4853 173.324 25.5735C173.324 25.6176 173.369 25.6728 173.446 25.6728C173.545 25.6728 173.556 25.6286 173.6 25.4742C173.865 24.5478 174.284 24.1066 174.714 24.1066C174.813 24.1066 175.001 24.1176 175.001 24.4705C175.001 24.7573 174.858 25.1213 174.769 25.3639L173.997 27.4154C173.931 27.5919 173.865 27.7684 173.865 27.9669C173.865 28.4632 174.207 28.8603 174.736 28.8603C175.751 28.8603 176.148 27.25 176.148 27.1728ZM176.06 21.8676C176.06 21.7021 175.927 21.5036 175.685 21.5036C175.431 21.5036 175.144 21.7463 175.144 22.033C175.144 22.3088 175.376 22.397 175.508 22.397C175.806 22.397 176.06 22.1103 176.06 21.8676Z" fill="black"/>
<path d="M180.557 25.2536C180.601 25.0772 180.601 24.9228 180.601 24.8786C180.601 24.2389 180.127 23.886 179.631 23.886C178.517 23.886 177.921 25.4963 177.921 25.5735C177.921 25.6286 177.965 25.6728 178.031 25.6728C178.12 25.6728 178.131 25.6286 178.186 25.5183C178.627 24.4485 179.179 24.1066 179.598 24.1066C179.829 24.1066 179.951 24.2279 179.951 24.6139C179.951 24.8786 179.918 24.9889 179.873 25.1875L178.826 29.3456C178.616 30.1618 178.098 30.7794 177.491 30.7794C177.447 30.7794 177.215 30.7794 177.006 30.6691C177.27 30.614 177.48 30.4044 177.48 30.1397C177.48 29.9632 177.348 29.7868 177.105 29.7868C176.818 29.7868 176.554 30.0294 176.554 30.3603C176.554 30.8125 177.039 31 177.491 31C178.252 31 179.256 30.4375 179.531 29.3345L180.557 25.2536ZM181.009 21.8676C181.009 21.5918 180.778 21.5036 180.645 21.5036C180.348 21.5036 180.094 21.7904 180.094 22.033C180.094 22.1985 180.226 22.397 180.469 22.397C180.723 22.397 181.009 22.1543 181.009 21.8676Z" fill="black"/>
</svg>
