<svg width="900" height="350" viewBox="0 0 900 350" fill="none" xmlns="http://www.w3.org/2000/svg">
<path d="M68 35.5C66.836 35.5 65.8825 36.1905 65.1143 37.2918C64.3487 38.3895 63.7152 39.9623 63.1819 41.9047C62.1136 45.7962 61.408 51.3251 60.9388 57.9176C59.9997 71.1112 60 88.6941 60 106.25C60 123.819 59.9997 141.361 59.0638 154.511C58.5955 161.091 57.8948 166.538 56.8538 170.331C56.3323 172.23 55.7354 173.676 55.0655 174.636C54.3981 175.593 53.711 176 53 176L53 177C54.164 177 55.1175 176.309 55.8857 175.208C56.6513 174.111 57.2848 172.538 57.8181 170.595C58.8864 166.704 59.592 161.175 60.0612 154.582C61.0003 141.389 61 123.806 61 106.25C61 88.6809 61.0003 71.1388 61.9362 57.9886C62.4045 51.4093 63.1052 45.9617 64.1462 42.1695C64.6677 40.2701 65.2646 38.8244 65.9345 37.8639C66.6019 36.9072 67.289 36.5 68 36.5V35.5ZM68 316.5C67.289 316.5 66.6019 316.093 65.9345 315.136C65.2646 314.176 64.6677 312.73 64.1462 310.831C63.1052 307.038 62.4045 301.591 61.9362 295.011C61.0003 281.861 61 264.319 61 246.75C61 229.194 61.0003 211.611 60.0612 198.418C59.592 191.825 58.8864 186.296 57.8181 182.405C57.2848 180.462 56.6513 178.889 55.8857 177.792C55.1175 176.69 54.164 176 53 176L53 177C53.711 177 54.3981 177.407 55.0655 178.364C55.7354 179.324 56.3323 180.77 56.8538 182.669C57.8948 186.462 58.5955 191.909 59.0638 198.489C59.9997 211.639 60 229.181 60 246.75C60 264.306 59.9997 281.889 60.9388 295.082C61.408 301.675 62.1136 307.204 63.1819 311.095C63.7152 313.038 64.3487 314.611 65.1143 315.708C65.8825 316.81 66.836 317.5 68 317.5V316.5Z" fill="black"/>
<path d="M48 179.477C48 179.394 47.9219 179.328 47.8047 179.328C47.6289 179.328 47.6094 179.378 47.5117 179.658C47.0039 181.159 46.2031 181.67 45.5586 181.67C45.3242 181.67 45.0508 181.621 45.0508 181.126C45.0508 180.681 45.2852 180.186 45.5 179.691L46.8672 176.624C46.9258 176.492 47.0625 176.195 47.0625 175.882C47.0625 175.189 46.4766 174.562 45.5195 174.562C43.7227 174.562 43 176.954 43 177.085C43 177.151 43.0781 177.234 43.2148 177.234C43.3906 177.234 43.4102 177.168 43.4883 176.937C43.957 175.552 44.6992 174.892 45.4609 174.892C45.6367 174.892 45.9687 174.909 45.9687 175.436C45.9687 175.865 45.7148 176.409 45.5586 176.772L44.1914 179.84C44.0742 180.103 43.957 180.367 43.957 180.664C43.957 181.406 44.5625 182 45.5 182C47.2969 182 48 179.592 48 179.477ZM47.8437 171.544C47.8437 171.297 47.6094 171 47.1797 171C46.7305 171 46.2227 171.363 46.2227 171.792C46.2227 172.204 46.6328 172.336 46.8672 172.336C47.3945 172.336 47.8437 171.907 47.8437 171.544Z" fill="black"/>
<path d="M102.483 9.7816C102 9.14064 101.34 8.87178 100.603 8.8822C99.8974 8.89218 99.1281 9.15576 98.35 9.5393C96.7926 10.307 94.9936 11.6635 93.25 12.9758C91.479 14.3087 89.7636 15.5974 88.3092 16.3143C87.5814 16.673 86.9705 16.8616 86.4844 16.8684C86.0296 16.8749 85.687 16.7253 85.4177 16.3676L84.6187 16.9689C85.1012 17.6099 85.7617 17.8788 86.4985 17.8683C87.204 17.8584 87.9733 17.5948 88.7513 17.2112C90.3088 16.4436 92.1078 15.0871 93.8514 13.7748C95.6224 12.4418 97.3378 11.1531 98.7922 10.4362C99.52 10.0775 100.131 9.88898 100.617 9.8821C101.072 9.87567 101.414 10.0252 101.684 10.383L102.483 9.7816ZM74.3664 30.9434C74.0971 30.5856 74.0482 30.215 74.1802 29.7798C74.3214 29.3145 74.6716 28.7796 75.2178 28.1796C76.3091 26.9804 78.0222 25.6886 79.7932 24.3557C81.5368 23.0434 83.3382 21.69 84.5069 20.4058C85.0908 19.7643 85.557 19.098 85.7618 18.4228C85.9757 17.7177 85.9002 17.0086 85.4177 16.3676L84.6187 16.9689C84.888 17.3267 84.9369 17.6973 84.8049 18.1325C84.6637 18.5978 84.3135 19.1327 83.7673 19.7328C82.676 20.9319 80.9628 22.2237 79.1919 23.5567C77.4483 24.869 75.6469 26.2223 74.4782 27.5065C73.8943 28.148 73.4281 28.8143 73.2233 29.4895C73.0094 30.1947 73.0849 30.9038 73.5674 31.5447L74.3664 30.9434Z" fill="black"/>
<path d="M82.0391 12.5562C82.0391 12.4886 81.9851 12.4346 81.904 12.4346C81.7824 12.4346 81.7689 12.4751 81.7014 12.7048C81.3501 13.9343 80.7962 14.3531 80.3503 14.3531C80.1882 14.3531 79.999 14.3126 79.999 13.9073C79.999 13.5425 80.1611 13.1372 80.3098 12.7318L81.2555 10.2188C81.296 10.1107 81.3906 9.86755 81.3906 9.61084C81.3906 9.04339 80.9853 8.52998 80.3233 8.52998C79.0803 8.52998 78.5804 10.489 78.5804 10.5971C78.5804 10.6512 78.6344 10.7187 78.729 10.7187C78.8506 10.7187 78.8641 10.6647 78.9182 10.4755C79.2424 9.34063 79.7558 8.8002 80.2827 8.8002C80.4043 8.8002 80.634 8.8137 80.634 9.24605C80.634 9.59733 80.4584 10.0432 80.3503 10.3404L79.4045 12.8534C79.3235 13.0696 79.2424 13.2858 79.2424 13.529C79.2424 14.137 79.6612 14.6233 80.3098 14.6233C81.5528 14.6233 82.0391 12.6508 82.0391 12.5562ZM81.9311 6.05751C81.9311 5.85481 81.7689 5.61163 81.4717 5.61163C81.1609 5.61163 80.8097 5.90889 80.8097 6.26015C80.8097 6.59794 81.0934 6.70603 81.2555 6.70603C81.6203 6.70603 81.9311 6.35477 81.9311 6.05751Z" fill="black"/>
<path d="M77.5042 0.405208C77.5204 0.340344 77.5528 0.243112 77.5528 0.162097C77.5528 9.74355e-09 77.3907 0 77.3583 0C77.3421 0 76.548 0.064799 76.4669 0.0810152C76.1913 0.0972314 75.9482 0.129665 75.6565 0.145881C75.2513 0.178248 75.1379 0.194464 75.1379 0.486225C75.1379 0.648321 75.2675 0.648321 75.4944 0.648321C76.2886 0.648321 76.3048 0.794201 76.3048 0.956232C76.3048 1.05346 76.2724 1.18313 76.2562 1.23178L75.2675 5.17025C75.0892 4.74885 74.6516 4.10054 73.8088 4.10054C71.9773 4.10054 70 6.46688 70 8.86562C70 10.4702 70.94 11.4102 72.0422 11.4102C72.9336 11.4102 73.6954 10.7133 74.1492 10.1784C74.3113 11.1347 75.073 11.4102 75.5593 11.4102C76.0455 11.4102 76.4344 11.1185 76.7262 10.535C76.9855 9.98395 77.2124 8.99528 77.2124 8.93045C77.2124 8.84941 77.1476 8.78458 77.0504 8.78458C76.9045 8.78458 76.8883 8.86562 76.8234 9.10874C76.5803 10.065 76.2724 11.0861 75.6079 11.0861C75.1379 11.0861 75.1054 10.6647 75.1054 10.3405C75.1054 10.2757 75.1054 9.93533 75.2189 9.48151L77.5042 0.405208ZM74.2302 9.31943C74.1492 9.59497 74.1492 9.62738 73.9223 9.93533C73.5657 10.3891 72.8526 11.0861 72.0908 11.0861C71.4263 11.0861 71.0535 10.4864 71.0535 9.53013C71.0535 8.63871 71.5559 6.82344 71.8639 6.14272C72.4149 5.00818 73.1767 4.42473 73.8088 4.42473C74.8785 4.42473 75.0892 5.75374 75.0892 5.8834C75.0892 5.8996 75.0406 6.1103 75.0244 6.14272L74.2302 9.31943Z" fill="black"/>
<path d="M124.041 336.13V336.827C125.045 336.827 125.159 336.827 125.159 337.459V340.635C125.159 341.867 124.43 342.856 123.165 342.856C121.95 342.856 121.885 342.451 121.885 341.559V336L119 336.13V336.827C120.005 336.827 120.118 336.827 120.118 337.459V341.3C120.118 342.921 121.204 343.391 122.938 343.391C123.327 343.391 124.527 343.391 125.224 342.078H125.24V343.391L128.044 343.293V342.597C127.039 342.597 126.926 342.597 126.926 341.964V336L124.041 336.13Z" fill="black"/>
<path d="M132.235 344.636C132.235 344.569 132.181 344.515 132.1 344.515C131.978 344.515 131.965 344.555 131.897 344.785C131.546 346.014 130.992 346.433 130.546 346.433C130.384 346.433 130.195 346.393 130.195 345.987C130.195 345.623 130.357 345.217 130.505 344.812L131.451 342.299C131.492 342.191 131.586 341.948 131.586 341.691C131.586 341.124 131.181 340.61 130.519 340.61C129.276 340.61 128.776 342.569 128.776 342.677C128.776 342.731 128.83 342.799 128.925 342.799C129.046 342.799 129.06 342.745 129.114 342.556C129.438 341.421 129.951 340.88 130.478 340.88C130.6 340.88 130.83 340.894 130.83 341.326C130.83 341.677 130.654 342.123 130.546 342.421L129.6 344.934C129.519 345.15 129.438 345.366 129.438 345.609C129.438 346.217 129.857 346.703 130.505 346.703C131.748 346.703 132.235 344.731 132.235 344.636ZM132.127 338.138C132.127 337.935 131.965 337.692 131.667 337.692C131.357 337.692 131.005 337.989 131.005 338.34C131.005 338.678 131.289 338.786 131.451 338.786C131.816 338.786 132.127 338.435 132.127 338.138Z" fill="black"/>
<circle cx="126" cy="205" r="2" fill="black"/>
<circle cx="126" cy="213" r="2" fill="black"/>
<circle cx="126" cy="221" r="2" fill="black"/>
<path d="M78 36.1905L106.235 15H174V82.8095L145.765 104H78V36.1905Z" fill="white"/>
<path d="M78 36.1905L106.235 15H174M78 36.1905H145.765M78 36.1905V104H145.765M174 15L145.765 36.1905M174 15V82.8095L145.765 104M145.765 36.1905V104" stroke="black" stroke-width="2"/>
<path d="M78 130.19L106.235 109H174V176.81L145.765 198H78V130.19Z" fill="white"/>
<path d="M78 130.19L106.235 109H174M78 130.19H145.765M78 130.19V198H145.765M174 109L145.765 130.19M174 109V176.81L145.765 198M145.765 130.19V198" stroke="black" stroke-width="2"/>
<path d="M78 249.19L106.235 228H174V295.81L145.765 317H78V249.19Z" fill="white"/>
<path d="M78 249.19L106.235 228H174M78 249.19H145.765M78 249.19V317H145.765M174 228L145.765 249.19M174 228V295.81L145.765 317M145.765 249.19V317" stroke="black" stroke-width="2"/>
<path d="M348.307 11.2922C347.647 10.4161 346.685 10.1399 345.615 10.2501C344.569 10.3577 343.372 10.8332 342.104 11.5095C339.563 12.8652 336.547 15.1368 333.577 17.3719C330.585 19.6242 327.639 21.8401 325.182 23.151C323.95 23.8079 322.89 24.2104 322.039 24.298C321.214 24.3829 320.641 24.1713 320.248 23.6492L319.449 24.2506C320.109 25.1267 321.071 25.4029 322.142 25.2927C323.187 25.1851 324.385 24.7096 325.652 24.0333C328.193 22.6776 331.209 20.406 334.179 18.1709C337.171 15.9186 340.118 13.7027 342.575 12.3918C343.806 11.7349 344.866 11.3324 345.717 11.2448C346.542 11.1599 347.115 11.3715 347.508 11.8936L348.307 11.2922ZM300.609 47.192C300.216 46.6699 300.171 46.0612 300.481 45.2916C300.801 44.4982 301.481 43.5908 302.453 42.5894C304.393 40.5912 307.337 38.3732 310.33 36.1208C313.3 33.8857 316.317 31.6162 318.323 29.5497C319.324 28.5187 320.112 27.4995 320.505 26.5247C320.907 25.5263 320.908 24.5254 320.248 23.6492L319.449 24.2506C319.842 24.7727 319.887 25.3814 319.577 26.1511C319.258 26.9444 318.577 27.8519 317.605 28.8532C315.666 30.8514 312.721 33.0695 309.729 35.3218C306.759 37.557 303.741 39.8264 301.735 41.8929C300.735 42.9239 299.946 43.9431 299.554 44.9179C299.151 45.9164 299.151 46.9173 299.81 47.7934L300.609 47.192Z" fill="black"/>
<path d="M315.944 17.2053C315.998 16.9891 315.998 16.8 315.998 16.746C315.998 15.9623 315.417 15.53 314.809 15.53C313.445 15.53 312.715 17.5026 312.715 17.5971C312.715 17.6647 312.769 17.7187 312.85 17.7187C312.958 17.7187 312.972 17.6647 313.04 17.5296C313.58 16.219 314.255 15.8002 314.769 15.8002C315.053 15.8002 315.201 15.9488 315.201 16.4217C315.201 16.746 315.161 16.8811 315.107 17.1243L313.823 22.2178C313.566 23.2176 312.931 23.9742 312.188 23.9742C312.134 23.9742 311.851 23.9742 311.594 23.8391C311.918 23.7716 312.175 23.5149 312.175 23.1906C312.175 22.9744 312.013 22.7583 311.715 22.7583C311.364 22.7583 311.04 23.0555 311.04 23.4608C311.04 24.0148 311.634 24.2444 312.188 24.2444C313.121 24.2444 314.35 23.5554 314.688 22.2043L315.944 17.2053ZM316.498 13.0575C316.498 12.7197 316.215 12.6116 316.052 12.6116C315.688 12.6116 315.377 12.9629 315.377 13.2602C315.377 13.4629 315.539 13.706 315.836 13.706C316.147 13.706 316.498 13.4088 316.498 13.0575Z" fill="black"/>
<path d="M310.504 7.40521C310.52 7.34034 310.553 7.24311 310.553 7.1621C310.553 7 310.391 7 310.358 7C310.342 7 309.548 7.0648 309.467 7.08102C309.191 7.09723 308.948 7.12966 308.656 7.14588C308.251 7.17825 308.138 7.19446 308.138 7.48622C308.138 7.64832 308.268 7.64832 308.494 7.64832C309.289 7.64832 309.305 7.7942 309.305 7.95623C309.305 8.05346 309.272 8.18313 309.256 8.23178L308.268 12.1703C308.089 11.7489 307.652 11.1005 306.809 11.1005C304.977 11.1005 303 13.4669 303 15.8656C303 17.4702 303.94 18.4102 305.042 18.4102C305.934 18.4102 306.695 17.7133 307.149 17.1784C307.311 18.1347 308.073 18.4102 308.559 18.4102C309.045 18.4102 309.434 18.1185 309.726 17.535C309.986 16.984 310.212 15.9953 310.212 15.9304C310.212 15.8494 310.148 15.7846 310.05 15.7846C309.905 15.7846 309.888 15.8656 309.823 16.1087C309.58 17.065 309.272 18.0861 308.608 18.0861C308.138 18.0861 308.105 17.6647 308.105 17.3405C308.105 17.2757 308.105 16.9353 308.219 16.4815L310.504 7.40521ZM307.23 16.3194C307.149 16.595 307.149 16.6274 306.922 16.9353C306.566 17.3891 305.853 18.0861 305.091 18.0861C304.426 18.0861 304.054 17.4864 304.054 16.5301C304.054 15.6387 304.556 13.8234 304.864 13.1427C305.415 12.0082 306.177 11.4247 306.809 11.4247C307.879 11.4247 308.089 12.7537 308.089 12.8834C308.089 12.8996 308.041 13.1103 308.024 13.1427L307.23 16.3194Z" fill="black"/>
<path d="M289.354 59.3536C289.549 59.1583 289.549 58.8417 289.354 58.6464L286.172 55.4645C285.976 55.2692 285.66 55.2692 285.464 55.4645C285.269 55.6597 285.269 55.9763 285.464 56.1716L288.293 59L285.464 61.8284C285.269 62.0237 285.269 62.3403 285.464 62.5355C285.66 62.7308 285.976 62.7308 286.172 62.5355L289.354 59.3536ZM189 59.5H289V58.5H189V59.5Z" fill="black"/>
<path d="M289.354 153.354C289.549 153.158 289.549 152.842 289.354 152.646L286.172 149.464C285.976 149.269 285.66 149.269 285.464 149.464C285.269 149.66 285.269 149.976 285.464 150.172L288.293 153L285.464 155.828C285.269 156.024 285.269 156.34 285.464 156.536C285.66 156.731 285.976 156.731 286.172 156.536L289.354 153.354ZM189 153.5H289V152.5H189V153.5Z" fill="black"/>
<path d="M289.354 272.354C289.549 272.158 289.549 271.842 289.354 271.646L286.172 268.464C285.976 268.269 285.66 268.269 285.464 268.464C285.269 268.66 285.269 268.976 285.464 269.172L288.293 272L285.464 274.828C285.269 275.024 285.269 275.34 285.464 275.536C285.66 275.731 285.976 275.731 286.172 275.536L289.354 272.354ZM189 272.5H289V271.5H189V272.5Z" fill="black"/>
<path d="M241.51 252.08C241.623 251.79 241.655 251.693 243.01 251.693V251C242.203 251.032 242.171 251.032 241.252 251.032C240.784 251.032 239.608 251.032 239.221 251V251.693C239.414 251.693 240.833 251.693 240.833 251.919C240.833 251.935 240.833 251.967 240.768 252.112L238.06 259.303L235.174 251.693H236.705V251C236.189 251.032 234.69 251.032 234.077 251.032C233.577 251.032 232.014 251.032 231.627 251V251.693H232.981L233.642 253.435L231.433 259.303L228.563 251.693H230.079V251C229.611 251.032 228.031 251.032 227.451 251.032C226.935 251.032 225.403 251.032 225 251V251.693H226.354L230.192 261.819C230.288 262.093 230.337 262.206 230.691 262.206C231.046 262.206 231.095 262.093 231.191 261.835L233.997 254.402L236.818 261.835C236.915 262.093 236.963 262.206 237.318 262.206C237.624 262.206 237.705 262.141 237.818 261.835L241.51 252.08Z" fill="black"/>
<path d="M247.115 263.396C247.115 263.329 247.061 263.275 246.98 263.275C246.859 263.275 246.846 263.316 246.779 263.544C246.429 264.767 245.878 265.184 245.434 265.184C245.273 265.184 245.085 265.143 245.085 264.74C245.085 264.377 245.246 263.974 245.394 263.571L246.335 261.071C246.375 260.964 246.469 260.722 246.469 260.466C246.469 259.902 246.066 259.391 245.408 259.391C244.171 259.391 243.674 261.34 243.674 261.447C243.674 261.501 243.728 261.568 243.822 261.568C243.943 261.568 243.956 261.515 244.01 261.326C244.332 260.197 244.843 259.66 245.367 259.66C245.488 259.66 245.717 259.673 245.717 260.103C245.717 260.453 245.542 260.896 245.434 261.192L244.494 263.692C244.413 263.907 244.332 264.122 244.332 264.364C244.332 264.969 244.749 265.453 245.394 265.453C246.631 265.453 247.115 263.49 247.115 263.396ZM247.007 256.932C247.007 256.73 246.846 256.488 246.55 256.488C246.241 256.488 245.891 256.784 245.891 257.133C245.891 257.469 246.174 257.577 246.335 257.577C246.698 257.577 247.007 257.227 247.007 256.932Z" fill="black"/>
<path d="M252.488 261.058C252.541 260.843 252.541 260.654 252.541 260.601C252.541 259.821 251.963 259.391 251.359 259.391C250.001 259.391 249.275 261.353 249.275 261.447C249.275 261.515 249.329 261.568 249.41 261.568C249.517 261.568 249.531 261.515 249.598 261.38C250.136 260.077 250.808 259.66 251.318 259.66C251.601 259.66 251.748 259.808 251.748 260.278C251.748 260.601 251.708 260.735 251.654 260.977L250.378 266.044C250.122 267.039 249.49 267.791 248.751 267.791C248.698 267.791 248.415 267.791 248.16 267.657C248.482 267.59 248.738 267.334 248.738 267.012C248.738 266.797 248.577 266.582 248.281 266.582C247.931 266.582 247.609 266.877 247.609 267.28C247.609 267.832 248.2 268.06 248.751 268.06C249.679 268.06 250.902 267.375 251.238 266.031L252.488 261.058ZM253.039 256.932C253.039 256.595 252.756 256.488 252.595 256.488C252.232 256.488 251.923 256.837 251.923 257.133C251.923 257.335 252.084 257.577 252.38 257.577C252.689 257.577 253.039 257.281 253.039 256.932Z" fill="black"/>
<path d="M240.51 133.08C240.623 132.79 240.655 132.693 242.01 132.693V132C241.203 132.032 241.171 132.032 240.252 132.032C239.784 132.032 238.608 132.032 238.221 132V132.693C238.414 132.693 239.833 132.693 239.833 132.919C239.833 132.935 239.833 132.967 239.768 133.112L237.06 140.303L234.174 132.693H235.705V132C235.189 132.032 233.69 132.032 233.077 132.032C232.577 132.032 231.014 132.032 230.627 132V132.693H231.981L232.642 134.435L230.433 140.303L227.563 132.693H229.079V132C228.611 132.032 227.031 132.032 226.451 132.032C225.935 132.032 224.403 132.032 224 132V132.693H225.354L229.192 142.819C229.288 143.093 229.337 143.206 229.691 143.206C230.046 143.206 230.095 143.093 230.191 142.835L232.997 135.402L235.818 142.835C235.915 143.093 235.963 143.206 236.318 143.206C236.624 143.206 236.705 143.141 236.818 142.835L240.51 133.08Z" fill="black"/>
<path d="M247.915 144.235H247.674C247.539 145.189 247.432 145.351 247.378 145.431C247.311 145.539 246.343 145.539 246.155 145.539H243.574C244.058 145.015 244.999 144.06 246.141 142.958C246.961 142.179 247.915 141.265 247.915 139.934C247.915 138.348 246.652 137.434 245.241 137.434C243.762 137.434 242.862 138.738 242.862 139.948C242.862 140.472 243.252 140.539 243.413 140.539C243.547 140.539 243.951 140.458 243.951 139.988C243.951 139.571 243.601 139.45 243.413 139.45C243.332 139.45 243.252 139.464 243.198 139.491C243.453 138.348 244.233 137.784 245.053 137.784C246.222 137.784 246.988 138.711 246.988 139.934C246.988 141.103 246.303 142.111 245.537 142.985L242.862 146.009V146.318H247.593L247.915 144.235Z" fill="black"/>
<path d="M253.156 142.058C253.21 141.843 253.21 141.654 253.21 141.601C253.21 140.821 252.632 140.391 252.027 140.391C250.669 140.391 249.944 142.353 249.944 142.447C249.944 142.515 249.997 142.568 250.078 142.568C250.186 142.568 250.199 142.515 250.266 142.38C250.804 141.077 251.476 140.66 251.987 140.66C252.269 140.66 252.417 140.808 252.417 141.278C252.417 141.601 252.376 141.735 252.323 141.977L251.046 147.044C250.79 148.039 250.159 148.791 249.42 148.791C249.366 148.791 249.084 148.791 248.828 148.657C249.151 148.59 249.406 148.334 249.406 148.012C249.406 147.797 249.245 147.582 248.949 147.582C248.6 147.582 248.277 147.877 248.277 148.28C248.277 148.832 248.868 149.06 249.42 149.06C250.347 149.06 251.57 148.375 251.906 147.031L253.156 142.058ZM253.707 137.931C253.707 137.595 253.425 137.488 253.263 137.488C252.901 137.488 252.591 137.837 252.591 138.133C252.591 138.335 252.753 138.577 253.048 138.577C253.358 138.577 253.707 138.281 253.707 137.931Z" fill="black"/>
<path d="M240.51 39.0802C240.623 38.79 240.655 38.6933 242.01 38.6933V38C241.203 38.0323 241.171 38.0323 240.252 38.0323C239.784 38.0323 238.608 38.0323 238.221 38V38.6933C238.414 38.6933 239.833 38.6933 239.833 38.919C239.833 38.9351 239.833 38.9674 239.768 39.1125L237.06 46.3034L234.174 38.6933H235.705V38C235.189 38.0323 233.69 38.0323 233.077 38.0323C232.577 38.0323 231.014 38.0323 230.627 38V38.6933H231.981L232.642 40.4346L230.433 46.3034L227.563 38.6933H229.079V38C228.611 38.0323 227.031 38.0323 226.451 38.0323C225.935 38.0323 224.403 38.0323 224 38V38.6933H225.354L229.192 48.8186C229.288 49.0927 229.337 49.2055 229.691 49.2055C230.046 49.2055 230.095 49.0927 230.191 48.8347L232.997 41.4019L235.818 48.8347C235.915 49.0927 235.963 49.2055 236.318 49.2055C236.624 49.2055 236.705 49.141 236.818 48.8347L240.51 39.0802Z" fill="black"/>
<path d="M245.886 43.7299C245.886 43.4476 245.873 43.4342 245.684 43.4342C245.16 44.0659 244.367 44.2675 243.615 44.2944C243.574 44.2944 243.507 44.2944 243.494 44.3213C243.48 44.3481 243.48 44.3751 243.48 44.6573C243.897 44.6573 244.596 44.5766 245.133 44.2541V51.3371C245.133 51.8075 245.106 51.9688 243.951 51.9688H243.547V52.3182C244.193 52.3048 244.865 52.2913 245.51 52.2913C246.155 52.2913 246.827 52.3048 247.472 52.3182V51.9688H247.069C245.913 51.9688 245.886 51.8209 245.886 51.3371V43.7299Z" fill="black"/>
<path d="M253.156 48.0576C253.21 47.8426 253.21 47.6544 253.21 47.6007C253.21 46.8211 252.632 46.391 252.027 46.391C250.669 46.391 249.944 48.3533 249.944 48.4474C249.944 48.5146 249.997 48.5684 250.078 48.5684C250.186 48.5684 250.199 48.5146 250.266 48.3802C250.804 47.0765 251.476 46.6599 251.987 46.6599C252.269 46.6599 252.417 46.8077 252.417 47.2781C252.417 47.6007 252.376 47.7351 252.323 47.977L251.046 53.044C250.79 54.0385 250.159 54.7912 249.42 54.7912C249.366 54.7912 249.084 54.7912 248.828 54.6568C249.151 54.5896 249.406 54.3342 249.406 54.0117C249.406 53.7966 249.245 53.5816 248.949 53.5816C248.6 53.5816 248.277 53.8772 248.277 54.2805C248.277 54.8315 248.868 55.06 249.42 55.06C250.347 55.06 251.57 54.3745 251.906 53.0305L253.156 48.0576ZM253.707 43.9315C253.707 43.5955 253.425 43.4879 253.263 43.4879C252.901 43.4879 252.591 43.8374 252.591 44.1331C252.591 44.3347 252.753 44.5766 253.048 44.5766C253.358 44.5766 253.707 44.2809 253.707 43.9315Z" fill="black"/>
<path d="M345.571 329.956L349.979 331.95L350.174 331.593L345.587 329L341 331.593L341.178 331.95L345.571 329.956Z" fill="black"/>
<path d="M346.24 334.12V334.817C347.244 334.817 347.358 334.817 347.358 335.449V338.626C347.358 339.857 346.629 340.846 345.364 340.846C344.149 340.846 344.084 340.441 344.084 339.549V333.99L341.199 334.12V334.817C342.204 334.817 342.317 334.817 342.317 335.449V339.29C342.317 340.911 343.403 341.381 345.138 341.381C345.526 341.381 346.726 341.381 347.423 340.068H347.439V341.381L350.243 341.284V340.587C349.238 340.587 349.125 340.587 349.125 339.955V333.99L346.24 334.12Z" fill="black"/>
<path d="M355.339 341.551C355.393 341.335 355.393 341.146 355.393 341.092C355.393 340.308 354.812 339.876 354.204 339.876C352.84 339.876 352.11 341.848 352.11 341.943C352.11 342.011 352.164 342.065 352.245 342.065C352.353 342.065 352.367 342.011 352.434 341.875C352.975 340.565 353.65 340.146 354.164 340.146C354.447 340.146 354.596 340.295 354.596 340.768C354.596 341.092 354.555 341.227 354.501 341.47L353.218 346.564C352.961 347.563 352.326 348.32 351.583 348.32C351.529 348.32 351.245 348.32 350.989 348.185C351.313 348.117 351.57 347.861 351.57 347.536C351.57 347.32 351.407 347.104 351.11 347.104C350.759 347.104 350.435 347.401 350.435 347.807C350.435 348.361 351.029 348.59 351.583 348.59C352.515 348.59 353.745 347.901 354.083 346.55L355.339 341.551ZM355.893 337.403C355.893 337.066 355.609 336.958 355.447 336.958C355.082 336.958 354.772 337.309 354.772 337.606C354.772 337.809 354.934 338.052 355.231 338.052C355.542 338.052 355.893 337.755 355.893 337.403Z" fill="black"/>
<path d="M358.971 336.187C358.971 335.944 358.971 335.701 358.701 335.701C358.431 335.701 358.431 335.944 358.431 336.187V348.725C358.431 348.969 358.431 349.212 358.701 349.212C358.971 349.212 358.971 348.969 358.971 348.725V336.187Z" fill="black"/>
<path d="M364.386 343.902C364.386 343.835 364.331 343.78 364.25 343.78C364.129 343.78 364.115 343.821 364.048 344.051C363.696 345.28 363.143 345.699 362.697 345.699C362.535 345.699 362.345 345.658 362.345 345.253C362.345 344.888 362.508 344.483 362.656 344.078L363.602 341.565C363.642 341.457 363.737 341.213 363.737 340.957C363.737 340.389 363.332 339.876 362.67 339.876C361.427 339.876 360.927 341.835 360.927 341.943C360.927 341.997 360.981 342.065 361.075 342.065C361.197 342.065 361.21 342.011 361.265 341.821C361.589 340.686 362.102 340.146 362.629 340.146C362.751 340.146 362.98 340.16 362.98 340.592C362.98 340.943 362.805 341.389 362.697 341.686L361.751 344.199C361.67 344.415 361.589 344.632 361.589 344.875C361.589 345.483 362.008 345.969 362.656 345.969C363.899 345.969 364.386 343.997 364.386 343.902ZM364.277 337.403C364.277 337.201 364.115 336.958 363.818 336.958C363.507 336.958 363.156 337.255 363.156 337.606C363.156 337.944 363.44 338.052 363.602 338.052C363.967 338.052 364.277 337.701 364.277 337.403Z" fill="black"/>
<circle cx="353" cy="205" r="2" fill="black"/>
<circle cx="353" cy="213" r="2" fill="black"/>
<circle cx="353" cy="221" r="2" fill="black"/>
<path d="M354 102H304V52L352 16H402V66L354 102Z" fill="white"/>
<path d="M304 52H354M304 52V102H354M304 52L352 16H402M354 52V102M354 52L402 16M354 102L402 66V16" stroke="black" stroke-width="2"/>
<path d="M354 196H304V146L352 110H402V160L354 196Z" fill="white"/>
<path d="M304 146H354M304 146V196H354M304 146L352 110H402M354 146V196M354 146L402 110M354 196L402 160V110" stroke="black" stroke-width="2"/>
<path d="M354 315H304V265L352 229H402V279L354 315Z" fill="white"/>
<path d="M304 265H354M304 265V315H354M304 265L352 229H402M354 265V315M354 265L402 229M354 315L402 279V229" stroke="black" stroke-width="2"/>
<path d="M517.114 121.487C517.383 121.424 517.55 121.155 517.487 120.886L516.459 116.505C516.396 116.236 516.127 116.069 515.858 116.132C515.589 116.195 515.422 116.464 515.486 116.733L516.399 120.627L512.505 121.541C512.236 121.604 512.069 121.873 512.132 122.142C512.195 122.411 512.464 122.578 512.733 122.514L517.114 121.487ZM416.737 59.425L516.737 121.425L517.263 120.575L417.263 58.575L416.737 59.425Z" fill="black"/>
<path d="M517.313 164.39C517.528 164.217 517.563 163.903 517.39 163.687L514.575 160.176C514.402 159.961 514.088 159.926 513.872 160.099C513.657 160.272 513.622 160.587 513.795 160.802L516.297 163.923L513.176 166.425C512.961 166.598 512.926 166.912 513.099 167.128C513.272 167.343 513.587 167.378 513.802 167.205L517.313 164.39ZM416.945 153.497L516.945 164.497L517.055 163.503L417.055 152.503L416.945 153.497Z" fill="black"/>
<path d="M517.489 207.104C517.546 206.834 517.374 206.568 517.104 206.511L512.702 205.577C512.432 205.52 512.166 205.692 512.109 205.962C512.052 206.233 512.224 206.498 512.494 206.555L516.407 207.385L515.577 211.298C515.52 211.568 515.692 211.834 515.962 211.891C516.233 211.948 516.498 211.776 516.555 211.506L517.489 207.104ZM417.272 272.419L517.272 207.419L516.727 206.581L416.728 271.581L417.272 272.419Z" fill="black"/>
<path d="M472.628 230.295C472.628 230.228 472.574 230.173 472.493 230.173C472.371 230.173 472.358 230.214 472.29 230.444C471.939 231.673 471.385 232.092 470.939 232.092C470.777 232.092 470.588 232.051 470.588 231.646C470.588 231.281 470.75 230.876 470.899 230.471L471.845 227.958C471.885 227.85 471.98 227.606 471.98 227.35C471.98 226.782 471.574 226.269 470.912 226.269C469.669 226.269 469.169 228.228 469.169 228.336C469.169 228.39 469.223 228.458 469.318 228.458C469.44 228.458 469.453 228.404 469.507 228.214C469.831 227.08 470.345 226.539 470.872 226.539C470.993 226.539 471.223 226.553 471.223 226.985C471.223 227.336 471.047 227.782 470.939 228.079L469.994 230.592C469.912 230.808 469.831 231.025 469.831 231.268C469.831 231.876 470.25 232.362 470.899 232.362C472.142 232.362 472.628 230.39 472.628 230.295ZM472.52 223.796C472.52 223.594 472.358 223.351 472.061 223.351C471.75 223.351 471.399 223.648 471.399 223.999C471.399 224.337 471.682 224.445 471.845 224.445C472.209 224.445 472.52 224.094 472.52 223.796Z" fill="black"/>
<path d="M467.689 223.054C467.381 223.054 467.235 223.054 467.008 223.248C466.911 223.329 466.733 223.572 466.733 223.831C466.733 224.156 466.976 224.35 467.284 224.35C467.673 224.35 468.11 224.026 468.11 223.378C468.11 222.6 467.365 222 466.246 222C464.123 222 462 224.318 462 226.619C462 228.029 462.875 229.31 464.528 229.31C466.733 229.31 468.127 227.592 468.127 227.381C468.127 227.284 468.029 227.203 467.964 227.203C467.916 227.203 467.9 227.219 467.754 227.365C466.716 228.742 465.177 228.986 464.561 228.986C463.442 228.986 463.086 228.013 463.086 227.203C463.086 226.635 463.361 225.063 463.945 223.961C464.366 223.199 465.242 222.324 466.263 222.324C466.473 222.324 467.365 222.357 467.689 223.054Z" fill="black"/>
<path d="M466.689 145.054C466.381 145.054 466.235 145.054 466.008 145.248C465.911 145.329 465.733 145.572 465.733 145.831C465.733 146.156 465.976 146.35 466.284 146.35C466.673 146.35 467.11 146.026 467.11 145.378C467.11 144.6 466.365 144 465.246 144C463.123 144 461 146.318 461 148.619C461 150.029 461.875 151.31 463.528 151.31C465.733 151.31 467.127 149.592 467.127 149.381C467.127 149.284 467.029 149.203 466.964 149.203C466.916 149.203 466.9 149.219 466.754 149.365C465.716 150.742 464.177 150.986 463.561 150.986C462.442 150.986 462.086 150.013 462.086 149.203C462.086 148.635 462.361 147.063 462.945 145.961C463.366 145.199 464.242 144.324 465.263 144.324C465.473 144.324 466.365 144.357 466.689 145.054Z" fill="black"/>
<path d="M472.79 152.18H472.547C472.412 153.139 472.304 153.301 472.25 153.382C472.182 153.491 471.209 153.491 471.02 153.491H468.426C468.913 152.964 469.858 152.004 471.007 150.897C471.831 150.113 472.79 149.194 472.79 147.857C472.79 146.262 471.52 145.344 470.102 145.344C468.615 145.344 467.71 146.654 467.71 147.87C467.71 148.397 468.102 148.465 468.264 148.465C468.399 148.465 468.805 148.384 468.805 147.911C468.805 147.492 468.453 147.37 468.264 147.37C468.183 147.37 468.102 147.384 468.048 147.411C468.305 146.262 469.088 145.695 469.912 145.695C471.088 145.695 471.858 146.627 471.858 147.857C471.858 149.032 471.169 150.045 470.399 150.924L467.71 153.963V154.274H472.466L472.79 152.18Z" fill="black"/>
<path d="M466.689 76.0535C466.381 76.0535 466.235 76.0535 466.008 76.248C465.911 76.329 465.733 76.5722 465.733 76.8315C465.733 77.1556 465.976 77.3501 466.284 77.3501C466.673 77.3501 467.11 77.026 467.11 76.3777C467.11 75.5997 466.365 75 465.246 75C463.123 75 461 77.3177 461 79.6192C461 81.0293 461.875 82.3097 463.528 82.3097C465.733 82.3097 467.127 80.5917 467.127 80.381C467.127 80.2837 467.029 80.2027 466.964 80.2027C466.916 80.2027 466.9 80.2189 466.754 80.3648C465.716 81.7424 464.177 81.9855 463.561 81.9855C462.442 81.9855 462.086 81.0131 462.086 80.2027C462.086 79.6354 462.361 78.0633 462.945 76.9611C463.366 76.1994 464.242 75.3242 465.263 75.3242C465.473 75.3242 466.365 75.3566 466.689 76.0535Z" fill="black"/>
<path d="M470.75 76.6408C470.75 76.3571 470.737 76.3436 470.547 76.3436C470.021 76.9786 469.223 77.1812 468.467 77.2083C468.426 77.2083 468.359 77.2083 468.345 77.2353C468.332 77.2623 468.332 77.2894 468.332 77.5731C468.751 77.5731 469.453 77.492 469.993 77.1677V84.2879C469.993 84.7608 469.966 84.9229 468.805 84.9229H468.399V85.2742C469.048 85.2607 469.723 85.2472 470.372 85.2472C471.02 85.2472 471.696 85.2607 472.344 85.2742V84.9229H471.939C470.777 84.9229 470.75 84.7743 470.75 84.2879V76.6408Z" fill="black"/>
<path d="M580.494 336.421C580.494 336.113 580.494 336 580.251 336C580.154 336 580.122 336 579.879 336.146C579.814 336.194 579.635 336.308 579.554 336.357C579.101 336.097 578.501 336 577.917 336C577.431 336 575 336 575 338.107C575 339.809 577.01 340.165 577.512 340.246C577.95 340.327 578.485 340.425 578.549 340.425C579.198 340.571 579.846 340.976 579.846 341.656C579.846 342.904 578.371 342.904 578.031 342.904C577.204 342.904 576.183 342.645 575.729 341.073C575.632 340.749 575.616 340.733 575.34 340.733C575 340.733 575 340.781 575 341.154V343.018C575 343.326 575 343.439 575.243 343.439C575.357 343.439 575.389 343.439 575.713 343.18L576.135 342.872C576.864 343.439 577.739 343.439 578.031 343.439C578.922 343.439 580.948 343.245 580.948 341.089C580.948 340.311 580.527 339.776 580.203 339.485C579.538 338.934 578.987 338.836 578.112 338.674C577.075 338.496 576.102 338.318 576.102 337.54C576.102 336.486 577.545 336.486 577.885 336.486C579.684 336.486 579.781 337.621 579.814 338.026C579.83 338.237 579.96 338.237 580.154 338.237C580.494 338.237 580.494 338.188 580.494 337.815V336.421Z" fill="black"/>
<path d="M586.278 342.334C586.332 342.118 586.332 341.929 586.332 341.875C586.332 341.091 585.751 340.659 585.143 340.659C583.779 340.659 583.049 342.631 583.049 342.726C583.049 342.793 583.103 342.847 583.184 342.847C583.292 342.847 583.306 342.793 583.373 342.658C583.914 341.348 584.589 340.929 585.103 340.929C585.386 340.929 585.535 341.078 585.535 341.55C585.535 341.875 585.495 342.01 585.441 342.253L584.157 347.347C583.9 348.346 583.265 349.103 582.522 349.103C582.468 349.103 582.184 349.103 581.928 348.968C582.252 348.9 582.509 348.644 582.509 348.319C582.509 348.103 582.347 347.887 582.049 347.887C581.698 347.887 581.374 348.184 581.374 348.59C581.374 349.143 581.968 349.373 582.522 349.373C583.454 349.373 584.684 348.684 585.022 347.333L586.278 342.334ZM586.832 338.186C586.832 337.848 586.548 337.74 586.386 337.74C586.021 337.74 585.711 338.092 585.711 338.389C585.711 338.592 585.873 338.835 586.17 338.835C586.481 338.835 586.832 338.538 586.832 338.186Z" fill="black"/>
<path d="M582 207H532V157L580 121H630V171L582 207Z" fill="white"/>
<path d="M532 157H582M532 157V207H582M532 157L580 121H630M582 157V207M582 157L630 121M582 207L630 171V121" stroke="black" stroke-width="2"/>
<path d="M745.354 159.354C745.549 159.158 745.549 158.842 745.354 158.646L742.172 155.464C741.976 155.269 741.66 155.269 741.464 155.464C741.269 155.66 741.269 155.976 741.464 156.172L744.293 159L741.464 161.828C741.269 162.024 741.269 162.34 741.464 162.536C741.66 162.731 741.976 162.731 742.172 162.536L745.354 159.354ZM645 159.5H745V158.5H645V159.5Z" fill="black"/>
<path d="M678.603 145.409C678.603 145.117 678.587 145.101 678.49 145.101C678.425 145.101 678.409 145.117 678.214 145.36C678.165 145.425 678.02 145.587 677.971 145.652C677.452 145.101 676.723 145.084 676.447 145.084C674.648 145.084 674 146.024 674 146.964C674 148.423 675.653 148.763 676.123 148.861C677.144 149.071 677.501 149.136 677.841 149.428C678.052 149.623 678.409 149.979 678.409 150.563C678.409 151.243 678.02 152.118 676.528 152.118C675.118 152.118 674.616 151.049 674.324 149.623C674.276 149.396 674.276 149.379 674.146 149.379C674.016 149.379 674 149.396 674 149.72V152.054C674 152.345 674.016 152.362 674.113 152.362C674.194 152.362 674.211 152.345 674.292 152.216C674.389 152.07 674.632 151.681 674.729 151.519C675.053 151.956 675.621 152.378 676.528 152.378C678.133 152.378 678.992 151.503 678.992 150.238C678.992 149.412 678.554 148.974 678.344 148.78C677.857 148.277 677.29 148.164 676.609 148.034C675.718 147.84 674.583 147.613 674.583 146.624C674.583 146.203 674.81 145.311 676.447 145.311C678.182 145.311 678.279 146.932 678.311 147.451C678.327 147.532 678.409 147.548 678.457 147.548C678.603 147.548 678.603 147.499 678.603 147.224V145.409Z" fill="black"/>
<path d="M686.059 145.149H685.799L685.313 146.754C684.94 145.895 684.26 145.149 683.174 145.149C681.521 145.149 679.932 146.624 679.932 148.764C679.932 150.887 681.423 152.378 683.044 152.378C684.292 152.378 684.989 151.422 685.2 151.065V154.29C685.2 154.906 685.135 154.987 684.098 154.987V155.409C684.487 155.376 685.2 155.376 685.621 155.376C686.043 155.376 686.772 155.376 687.161 155.409V154.987C686.124 154.987 686.059 154.922 686.059 154.29V145.149ZM685.232 150.028C685.232 150.725 684.649 151.373 684.6 151.422C684.098 151.989 683.514 152.119 683.125 152.119C681.91 152.119 680.97 150.579 680.97 148.78C680.97 146.883 682.039 145.441 683.287 145.441C684.584 145.441 685.232 146.916 685.232 147.759V150.028Z" fill="black"/>
<path d="M691.99 145.327V145.749C692.946 145.749 693.092 145.846 693.092 146.624V149.574C693.092 150.935 692.362 152.119 691.163 152.119C689.834 152.119 689.721 151.324 689.721 150.482V145.149L687.759 145.327V145.749C688.408 145.749 688.845 145.749 688.862 146.397V149.509C688.862 150.595 688.862 151.292 689.283 151.746C689.494 151.956 689.899 152.378 691.066 152.378C692.443 152.378 692.978 151.211 693.108 150.871H693.124V152.378L695.053 152.248V151.827C694.097 151.827 693.951 151.73 693.951 150.952V145.149L691.99 145.327Z" fill="black"/>
<path d="M701.308 148.05C701.308 146.981 701.308 146.413 700.628 145.781C700.028 145.246 699.331 145.084 698.78 145.084C697.499 145.084 696.576 146.089 696.576 147.159C696.576 147.759 697.062 147.791 697.159 147.791C697.37 147.791 697.743 147.661 697.743 147.208C697.743 146.802 697.435 146.624 697.159 146.624C697.094 146.624 697.013 146.64 696.965 146.656C697.305 145.635 698.18 145.344 698.747 145.344C699.558 145.344 700.449 146.057 700.449 147.418V148.131C699.493 148.164 698.342 148.293 697.435 148.78C696.414 149.347 696.122 150.157 696.122 150.773C696.122 152.021 697.581 152.378 698.44 152.378C699.331 152.378 700.158 151.875 700.514 150.952C700.547 151.665 701 152.313 701.713 152.313C702.054 152.313 702.913 152.086 702.913 150.806V149.898H702.621V150.822C702.621 151.811 702.183 151.94 701.973 151.94C701.308 151.94 701.308 151.097 701.308 150.384V148.05ZM700.449 149.995C700.449 151.405 699.444 152.118 698.553 152.118C697.743 152.118 697.11 151.519 697.11 150.773C697.11 150.287 697.321 149.428 698.261 148.909C699.039 148.472 699.931 148.407 700.449 148.375V149.995Z" fill="black"/>
<path d="M707.887 145.409C707.887 145.117 707.871 145.101 707.774 145.101C707.709 145.101 707.693 145.117 707.498 145.36C707.45 145.425 707.304 145.587 707.255 145.652C706.737 145.101 706.007 145.084 705.732 145.084C703.933 145.084 703.284 146.024 703.284 146.964C703.284 148.423 704.938 148.763 705.408 148.861C706.429 149.071 706.785 149.136 707.126 149.428C707.336 149.623 707.693 149.979 707.693 150.563C707.693 151.243 707.304 152.118 705.813 152.118C704.403 152.118 703.9 151.049 703.609 149.623C703.56 149.396 703.56 149.379 703.43 149.379C703.301 149.379 703.284 149.396 703.284 149.72V152.054C703.284 152.345 703.301 152.362 703.398 152.362C703.479 152.362 703.495 152.345 703.576 152.216C703.673 152.07 703.917 151.681 704.014 151.519C704.338 151.956 704.905 152.378 705.813 152.378C707.417 152.378 708.276 151.503 708.276 150.238C708.276 149.412 707.839 148.974 707.628 148.78C707.142 148.277 706.575 148.164 705.894 148.034C705.002 147.84 703.868 147.613 703.868 146.624C703.868 146.203 704.095 145.311 705.732 145.311C707.466 145.311 707.563 146.932 707.596 147.451C707.612 147.532 707.693 147.548 707.742 147.548C707.887 147.548 707.887 147.499 707.887 147.224V145.409Z" fill="black"/>
<path d="M715.408 147.321C715.408 146.494 715.246 145.149 713.333 145.149C712.004 145.149 711.356 146.219 711.162 146.754H711.145V141L709.217 141.178V141.6C710.173 141.6 710.319 141.697 710.319 142.475V151.13C710.319 151.746 710.254 151.827 709.217 151.827V152.248C709.606 152.216 710.319 152.216 710.74 152.216C711.162 152.216 711.891 152.216 712.28 152.248V151.827C711.243 151.827 711.178 151.762 711.178 151.13V148.018C711.178 146.527 712.085 145.409 713.22 145.409C714.419 145.409 714.549 146.478 714.549 147.256V151.13C714.549 151.746 714.484 151.827 713.447 151.827V152.248C713.836 152.216 714.549 152.216 714.97 152.216C715.392 152.216 716.121 152.216 716.51 152.248V151.827C715.473 151.827 715.408 151.762 715.408 151.13V147.321Z" fill="black"/>
<path d="M809.634 337.07C809.747 336.827 809.812 336.697 810.833 336.697V336C810.25 336.032 810.217 336.032 809.553 336.032C809.115 336.032 809.083 336.032 808.159 336V336.697C808.597 336.697 808.953 336.778 808.953 336.891C808.953 336.908 808.953 336.924 808.872 337.086L806.976 341.251L804.885 336.697H805.776V336C805.404 336.032 804.269 336.032 803.831 336.032C803.361 336.032 802.421 336.032 802 336V336.697H803.021L805.874 342.888C806.02 343.196 806.052 343.277 806.425 343.277C806.684 343.277 806.814 343.245 806.96 342.921L809.634 337.07Z" fill="black"/>
<path d="M815.927 342.188C815.981 341.972 815.981 341.783 815.981 341.729C815.981 340.945 815.4 340.513 814.792 340.513C813.428 340.513 812.698 342.485 812.698 342.58C812.698 342.648 812.752 342.702 812.833 342.702C812.941 342.702 812.955 342.648 813.022 342.512C813.563 341.202 814.238 340.783 814.752 340.783C815.035 340.783 815.184 340.932 815.184 341.405C815.184 341.729 815.143 341.864 815.089 342.107L813.806 347.201C813.549 348.201 812.914 348.957 812.171 348.957C812.117 348.957 811.833 348.957 811.577 348.822C811.901 348.754 812.158 348.498 812.158 348.174C812.158 347.957 811.995 347.741 811.698 347.741C811.347 347.741 811.023 348.038 811.023 348.444C811.023 348.998 811.617 349.227 812.171 349.227C813.103 349.227 814.333 348.538 814.671 347.187L815.927 342.188ZM816.481 338.04C816.481 337.703 816.197 337.595 816.035 337.595C815.67 337.595 815.36 337.946 815.36 338.243C815.36 338.446 815.522 338.689 815.819 338.689C816.13 338.689 816.481 338.392 816.481 338.04Z" fill="black"/>
<path d="M810 207H760V157L808 121H858V171L810 207Z" fill="white"/>
<path d="M760 157H810M760 157V207H810M760 157L808 121H858M810 157V207M810 157L858 121M810 207L858 171V121" stroke="black" stroke-width="2"/>
</svg>
