<svg width="685" height="191" viewBox="0 0 685 191" fill="none" xmlns="http://www.w3.org/2000/svg">
<path d="M577.5 130C577.5 131.512 578.465 132.587 579.92 133.335C581.365 134.078 583.387 134.556 585.746 134.871C590.474 135.501 596.762 135.5 603 135.5C609.262 135.5 615.474 135.501 620.121 136.121C622.449 136.431 624.333 136.891 625.623 137.554C626.903 138.212 627.5 139.012 627.5 140L628.5 140C628.5 138.488 627.535 137.413 626.08 136.665C624.635 135.922 622.613 135.444 620.254 135.129C615.526 134.499 609.238 134.5 603 134.5C596.738 134.5 590.526 134.499 585.879 133.879C583.551 133.569 581.667 133.109 580.377 132.446C579.097 131.788 578.5 130.988 578.5 130L577.5 130ZM677.5 130C677.5 130.988 676.903 131.788 675.623 132.446C674.333 133.109 672.449 133.569 670.121 133.879C665.474 134.499 659.262 134.5 653 134.5C646.762 134.5 640.474 134.499 635.746 135.129C633.387 135.444 631.365 135.922 629.92 136.665C628.465 137.413 627.5 138.488 627.5 140L628.5 140C628.5 139.012 629.097 138.212 630.377 137.554C631.667 136.891 633.551 136.431 635.879 136.121C640.526 135.501 646.738 135.5 653 135.5C659.238 135.5 665.526 135.501 670.254 134.871C672.613 134.556 674.635 134.078 676.08 133.335C677.535 132.587 678.5 131.512 678.5 130L677.5 130Z" fill="black"/>
<path d="M577.5 130C577.5 131.512 578.465 132.587 579.92 133.335C581.365 134.078 583.387 134.556 585.746 134.871C590.474 135.501 596.762 135.5 603 135.5C609.262 135.5 615.474 135.501 620.121 136.121C622.449 136.431 624.333 136.891 625.623 137.554C626.903 138.212 627.5 139.012 627.5 140L628.5 140C628.5 138.488 627.535 137.413 626.08 136.665C624.635 135.922 622.613 135.444 620.254 135.129C615.526 134.499 609.238 134.5 603 134.5C596.738 134.5 590.526 134.499 585.879 133.879C583.551 133.569 581.667 133.109 580.377 132.446C579.097 131.788 578.5 130.988 578.5 130L577.5 130ZM677.5 130C677.5 130.988 676.903 131.788 675.623 132.446C674.333 133.109 672.449 133.569 670.121 133.879C665.474 134.499 659.262 134.5 653 134.5C646.762 134.5 640.474 134.499 635.746 135.129C633.387 135.444 631.365 135.922 629.92 136.665C628.465 137.413 627.5 138.488 627.5 140L628.5 140C628.5 139.012 629.097 138.212 630.377 137.554C631.667 136.891 633.551 136.431 635.879 136.121C640.526 135.501 646.738 135.5 653 135.5C659.238 135.5 665.526 135.501 670.254 134.871C672.613 134.556 674.635 134.078 676.08 133.335C677.535 132.587 678.5 131.512 678.5 130L677.5 130Z" fill="black"/>
<path d="M627.027 146.449C627.027 146.996 626.873 147.443 626.564 147.791C626.26 148.139 625.826 148.371 625.264 148.488V148.535C625.951 148.621 626.461 148.84 626.793 149.191C627.125 149.543 627.291 150.004 627.291 150.574C627.291 151.391 627.008 152.02 626.441 152.461C625.875 152.898 625.07 153.117 624.027 153.117C623.574 153.117 623.158 153.082 622.779 153.012C622.404 152.945 622.039 152.826 621.684 152.654V151.729C622.055 151.912 622.449 152.053 622.867 152.15C623.289 152.244 623.688 152.291 624.062 152.291C625.543 152.291 626.283 151.711 626.283 150.551C626.283 149.512 625.467 148.992 623.834 148.992H622.99V148.154H623.846C624.514 148.154 625.043 148.008 625.434 147.715C625.824 147.418 626.02 147.008 626.02 146.484C626.02 146.066 625.875 145.738 625.586 145.5C625.301 145.262 624.912 145.143 624.42 145.143C624.045 145.143 623.691 145.193 623.359 145.295C623.027 145.396 622.648 145.584 622.223 145.857L621.73 145.201C622.082 144.924 622.486 144.707 622.943 144.551C623.404 144.391 623.889 144.311 624.396 144.311C625.229 144.311 625.875 144.502 626.336 144.885C626.797 145.264 627.027 145.785 627.027 146.449ZM634.217 153H628.586V152.162L630.842 149.895C631.529 149.199 631.982 148.703 632.201 148.406C632.42 148.109 632.584 147.82 632.693 147.539C632.803 147.258 632.857 146.955 632.857 146.631C632.857 146.174 632.719 145.812 632.441 145.547C632.164 145.277 631.779 145.143 631.287 145.143C630.932 145.143 630.594 145.201 630.273 145.318C629.957 145.436 629.604 145.648 629.213 145.957L628.697 145.295C629.486 144.639 630.346 144.311 631.275 144.311C632.08 144.311 632.711 144.518 633.168 144.932C633.625 145.342 633.854 145.895 633.854 146.59C633.854 147.133 633.701 147.67 633.396 148.201C633.092 148.732 632.521 149.404 631.686 150.217L629.811 152.051V152.098H634.217V153Z" fill="black"/>
<path d="M38.252 188V179.434H39.248V188H38.252ZM49.6426 188V183.822C49.6426 183.311 49.5332 182.928 49.3145 182.674C49.0957 182.416 48.7559 182.287 48.2949 182.287C47.6895 182.287 47.2422 182.461 46.9531 182.809C46.6641 183.156 46.5195 183.691 46.5195 184.414V188H45.5469V183.822C45.5469 183.311 45.4375 182.928 45.2188 182.674C45 182.416 44.6582 182.287 44.1934 182.287C43.584 182.287 43.1367 182.471 42.8516 182.838C42.5703 183.201 42.4297 183.799 42.4297 184.631V188H41.457V181.578H42.248L42.4062 182.457H42.4531C42.6367 182.145 42.8945 181.9 43.2266 181.725C43.5625 181.549 43.9375 181.461 44.3516 181.461C45.3555 181.461 46.0117 181.824 46.3203 182.551H46.3672C46.5586 182.215 46.8359 181.949 47.1992 181.754C47.5625 181.559 47.9766 181.461 48.4414 181.461C49.168 181.461 49.7109 181.648 50.0703 182.023C50.4336 182.395 50.6152 182.99 50.6152 183.811V188H49.6426ZM56.5742 188L56.3809 187.086H56.334C56.0137 187.488 55.6934 187.762 55.373 187.906C55.0566 188.047 54.6602 188.117 54.1836 188.117C53.5469 188.117 53.0469 187.953 52.6836 187.625C52.3242 187.297 52.1445 186.83 52.1445 186.225C52.1445 184.928 53.1816 184.248 55.2559 184.186L56.3457 184.15V183.752C56.3457 183.248 56.2363 182.877 56.0176 182.639C55.8027 182.396 55.457 182.275 54.9805 182.275C54.4453 182.275 53.8398 182.439 53.1641 182.768L52.8652 182.023C53.1816 181.852 53.5273 181.717 53.9023 181.619C54.2812 181.521 54.6602 181.473 55.0391 181.473C55.8047 181.473 56.3711 181.643 56.7383 181.982C57.1094 182.322 57.2949 182.867 57.2949 183.617V188H56.5742ZM54.377 187.314C54.9824 187.314 55.457 187.148 55.8008 186.816C56.1484 186.484 56.3223 186.02 56.3223 185.422V184.842L55.3496 184.883C54.5762 184.91 54.0176 185.031 53.6738 185.246C53.334 185.457 53.1641 185.787 53.1641 186.236C53.1641 186.588 53.2695 186.855 53.4805 187.039C53.6953 187.223 53.9941 187.314 54.377 187.314ZM64.5605 181.578V182.193L63.3711 182.334C63.4805 182.471 63.5781 182.65 63.6641 182.873C63.75 183.092 63.793 183.34 63.793 183.617C63.793 184.246 63.5781 184.748 63.1484 185.123C62.7188 185.498 62.1289 185.686 61.3789 185.686C61.1875 185.686 61.0078 185.67 60.8398 185.639C60.4258 185.857 60.2188 186.133 60.2188 186.465C60.2188 186.641 60.291 186.771 60.4355 186.857C60.5801 186.939 60.8281 186.98 61.1797 186.98H62.3164C63.0117 186.98 63.5449 187.127 63.916 187.42C64.291 187.713 64.4785 188.139 64.4785 188.697C64.4785 189.408 64.1934 189.949 63.623 190.32C63.0527 190.695 62.2207 190.883 61.127 190.883C60.2871 190.883 59.6387 190.727 59.1816 190.414C58.7285 190.102 58.502 189.66 58.502 189.09C58.502 188.699 58.627 188.361 58.877 188.076C59.127 187.791 59.4785 187.598 59.9316 187.496C59.7676 187.422 59.6289 187.307 59.5156 187.15C59.4062 186.994 59.3516 186.812 59.3516 186.605C59.3516 186.371 59.4141 186.166 59.5391 185.99C59.6641 185.814 59.8613 185.645 60.1309 185.48C59.7988 185.344 59.5273 185.111 59.3164 184.783C59.1094 184.455 59.0059 184.08 59.0059 183.658C59.0059 182.955 59.2168 182.414 59.6387 182.035C60.0605 181.652 60.6582 181.461 61.4316 181.461C61.7676 181.461 62.0703 181.5 62.3398 181.578H64.5605ZM59.4395 189.078C59.4395 189.426 59.5859 189.689 59.8789 189.869C60.1719 190.049 60.5918 190.139 61.1387 190.139C61.9551 190.139 62.5586 190.016 62.9492 189.77C63.3438 189.527 63.541 189.197 63.541 188.779C63.541 188.432 63.4336 188.189 63.2188 188.053C63.0039 187.92 62.5996 187.854 62.0059 187.854H60.8398C60.3984 187.854 60.0547 187.959 59.8086 188.17C59.5625 188.381 59.4395 188.684 59.4395 189.078ZM59.9668 183.635C59.9668 184.084 60.0938 184.424 60.3477 184.654C60.6016 184.885 60.9551 185 61.4082 185C62.3574 185 62.832 184.539 62.832 183.617C62.832 182.652 62.3516 182.17 61.3906 182.17C60.9336 182.17 60.582 182.293 60.3359 182.539C60.0898 182.785 59.9668 183.15 59.9668 183.635ZM68.5918 188.117C67.6426 188.117 66.8926 187.828 66.3418 187.25C65.7949 186.672 65.5215 185.869 65.5215 184.842C65.5215 183.807 65.7754 182.984 66.2832 182.375C66.7949 181.766 67.4805 181.461 68.3398 181.461C69.1445 181.461 69.7812 181.727 70.25 182.258C70.7188 182.785 70.9531 183.482 70.9531 184.35V184.965H66.5293C66.5488 185.719 66.7383 186.291 67.0977 186.682C67.4609 187.072 67.9707 187.268 68.627 187.268C69.3184 187.268 70.002 187.123 70.6777 186.834V187.701C70.334 187.85 70.0078 187.955 69.6992 188.018C69.3945 188.084 69.0254 188.117 68.5918 188.117ZM68.3281 182.275C67.8125 182.275 67.4004 182.443 67.0918 182.779C66.7871 183.115 66.6074 183.58 66.5527 184.174H69.9102C69.9102 183.561 69.7734 183.092 69.5 182.768C69.2266 182.439 68.8359 182.275 68.3281 182.275ZM76.4316 180.201C75.4902 180.201 74.7461 180.516 74.1992 181.145C73.6562 181.77 73.3848 182.627 73.3848 183.717C73.3848 184.838 73.6465 185.705 74.1699 186.318C74.6973 186.928 75.4473 187.232 76.4199 187.232C77.0176 187.232 77.6992 187.125 78.4648 186.91V187.783C77.8711 188.006 77.1387 188.117 76.2676 188.117C75.0059 188.117 74.0312 187.734 73.3438 186.969C72.6602 186.203 72.3184 185.115 72.3184 183.705C72.3184 182.822 72.4824 182.049 72.8105 181.385C73.1426 180.721 73.6191 180.209 74.2402 179.85C74.8652 179.49 75.5996 179.311 76.4434 179.311C77.3418 179.311 78.127 179.475 78.7988 179.803L78.377 180.658C77.7285 180.354 77.0801 180.201 76.4316 180.201ZM84.1367 188L83.9434 187.086H83.8965C83.5762 187.488 83.2559 187.762 82.9355 187.906C82.6191 188.047 82.2227 188.117 81.7461 188.117C81.1094 188.117 80.6094 187.953 80.2461 187.625C79.8867 187.297 79.707 186.83 79.707 186.225C79.707 184.928 80.7441 184.248 82.8184 184.186L83.9082 184.15V183.752C83.9082 183.248 83.7988 182.877 83.5801 182.639C83.3652 182.396 83.0195 182.275 82.543 182.275C82.0078 182.275 81.4023 182.439 80.7266 182.768L80.4277 182.023C80.7441 181.852 81.0898 181.717 81.4648 181.619C81.8438 181.521 82.2227 181.473 82.6016 181.473C83.3672 181.473 83.9336 181.643 84.3008 181.982C84.6719 182.322 84.8574 182.867 84.8574 183.617V188H84.1367ZM81.9395 187.314C82.5449 187.314 83.0195 187.148 83.3633 186.816C83.7109 186.484 83.8848 186.02 83.8848 185.422V184.842L82.9121 184.883C82.1387 184.91 81.5801 185.031 81.2363 185.246C80.8965 185.457 80.7266 185.787 80.7266 186.236C80.7266 186.588 80.832 186.855 81.043 187.039C81.2578 187.223 81.5566 187.314 81.9395 187.314ZM89.8555 188.117C89.4375 188.117 89.0547 188.041 88.707 187.889C88.3633 187.732 88.0742 187.494 87.8398 187.174H87.7695C87.8164 187.549 87.8398 187.904 87.8398 188.24V190.883H86.8672V181.578H87.6582L87.793 182.457H87.8398C88.0898 182.105 88.3809 181.852 88.7129 181.695C89.0449 181.539 89.4258 181.461 89.8555 181.461C90.707 181.461 91.3633 181.752 91.8242 182.334C92.2891 182.916 92.5215 183.732 92.5215 184.783C92.5215 185.838 92.2852 186.658 91.8125 187.244C91.3438 187.826 90.6914 188.117 89.8555 188.117ZM89.7148 182.287C89.0586 182.287 88.584 182.469 88.291 182.832C87.998 183.195 87.8477 183.773 87.8398 184.566V184.783C87.8398 185.686 87.9902 186.332 88.291 186.723C88.5918 187.109 89.0742 187.303 89.7383 187.303C90.293 187.303 90.7266 187.078 91.0391 186.629C91.3555 186.18 91.5137 185.561 91.5137 184.771C91.5137 183.971 91.3555 183.357 91.0391 182.932C90.7266 182.502 90.2852 182.287 89.7148 182.287ZM98.3691 186.248C98.3691 186.846 98.1465 187.307 97.7012 187.631C97.2559 187.955 96.6309 188.117 95.8262 188.117C94.9746 188.117 94.3105 187.982 93.834 187.713V186.811C94.1426 186.967 94.4727 187.09 94.8242 187.18C95.1797 187.27 95.5215 187.314 95.8496 187.314C96.3574 187.314 96.748 187.234 97.0215 187.074C97.2949 186.91 97.4316 186.662 97.4316 186.33C97.4316 186.08 97.3223 185.867 97.1035 185.691C96.8887 185.512 96.4668 185.301 95.8379 185.059C95.2402 184.836 94.8145 184.643 94.5605 184.479C94.3105 184.311 94.123 184.121 93.998 183.91C93.877 183.699 93.8164 183.447 93.8164 183.154C93.8164 182.631 94.0293 182.219 94.4551 181.918C94.8809 181.613 95.4648 181.461 96.207 181.461C96.8984 181.461 97.5742 181.602 98.2344 181.883L97.8887 182.674C97.2441 182.408 96.6602 182.275 96.1367 182.275C95.6758 182.275 95.3281 182.348 95.0938 182.492C94.8594 182.637 94.7422 182.836 94.7422 183.09C94.7422 183.262 94.7852 183.408 94.8711 183.529C94.9609 183.65 95.1035 183.766 95.2988 183.875C95.4941 183.984 95.8691 184.143 96.4238 184.35C97.1855 184.627 97.6992 184.906 97.9648 185.188C98.2344 185.469 98.3691 185.822 98.3691 186.248Z" fill="black"/>
<path d="M157.672 188H156.676V179.434H161.451V180.318H157.672V183.453H161.223V184.338H157.672V188ZM166.543 180.201C165.602 180.201 164.857 180.516 164.311 181.145C163.768 181.77 163.496 182.627 163.496 183.717C163.496 184.838 163.758 185.705 164.281 186.318C164.809 186.928 165.559 187.232 166.531 187.232C167.129 187.232 167.811 187.125 168.576 186.91V187.783C167.982 188.006 167.25 188.117 166.379 188.117C165.117 188.117 164.143 187.734 163.455 186.969C162.771 186.203 162.43 185.115 162.43 183.705C162.43 182.822 162.594 182.049 162.922 181.385C163.254 180.721 163.73 180.209 164.352 179.85C164.977 179.49 165.711 179.311 166.555 179.311C167.453 179.311 168.238 179.475 168.91 179.803L168.488 180.658C167.84 180.354 167.191 180.201 166.543 180.201ZM176.211 183.365H178.625V184.174H176.211V186.67H175.396V184.174H172.994V183.365H175.396V180.857H176.211V183.365ZM184.543 184.438V188H183.547V179.434H185.896C186.947 179.434 187.723 179.635 188.223 180.037C188.727 180.439 188.979 181.045 188.979 181.854C188.979 182.986 188.404 183.752 187.256 184.15L189.582 188H188.404L186.33 184.438H184.543ZM184.543 183.582H185.908C186.611 183.582 187.127 183.443 187.455 183.166C187.783 182.885 187.947 182.465 187.947 181.906C187.947 181.34 187.779 180.932 187.443 180.682C187.111 180.432 186.576 180.307 185.838 180.307H184.543V183.582ZM193.531 188.117C192.582 188.117 191.832 187.828 191.281 187.25C190.734 186.672 190.461 185.869 190.461 184.842C190.461 183.807 190.715 182.984 191.223 182.375C191.734 181.766 192.42 181.461 193.279 181.461C194.084 181.461 194.721 181.727 195.189 182.258C195.658 182.785 195.893 183.482 195.893 184.35V184.965H191.469C191.488 185.719 191.678 186.291 192.037 186.682C192.4 187.072 192.91 187.268 193.566 187.268C194.258 187.268 194.941 187.123 195.617 186.834V187.701C195.273 187.85 194.947 187.955 194.639 188.018C194.334 188.084 193.965 188.117 193.531 188.117ZM193.268 182.275C192.752 182.275 192.34 182.443 192.031 182.779C191.727 183.115 191.547 183.58 191.492 184.174H194.85C194.85 183.561 194.713 183.092 194.439 182.768C194.166 182.439 193.775 182.275 193.268 182.275ZM197.703 188V179.434H198.699V187.098H202.479V188H197.703ZM210.406 179.434V184.977C210.406 185.953 210.111 186.721 209.521 187.279C208.932 187.838 208.121 188.117 207.09 188.117C206.059 188.117 205.26 187.836 204.693 187.273C204.131 186.711 203.85 185.938 203.85 184.953V179.434H204.846V185.023C204.846 185.738 205.041 186.287 205.432 186.67C205.822 187.053 206.396 187.244 207.154 187.244C207.877 187.244 208.434 187.053 208.824 186.67C209.215 186.283 209.41 185.73 209.41 185.012V179.434H210.406Z" fill="black"/>
<path d="M229.656 184.438V188H228.66V179.434H231.01C232.061 179.434 232.836 179.635 233.336 180.037C233.84 180.439 234.092 181.045 234.092 181.854C234.092 182.986 233.518 183.752 232.369 184.15L234.695 188H233.518L231.443 184.438H229.656ZM229.656 183.582H231.021C231.725 183.582 232.24 183.443 232.568 183.166C232.896 182.885 233.061 182.465 233.061 181.906C233.061 181.34 232.893 180.932 232.557 180.682C232.225 180.432 231.689 180.307 230.951 180.307H229.656V183.582ZM238.645 188.117C237.695 188.117 236.945 187.828 236.395 187.25C235.848 186.672 235.574 185.869 235.574 184.842C235.574 183.807 235.828 182.984 236.336 182.375C236.848 181.766 237.533 181.461 238.393 181.461C239.197 181.461 239.834 181.727 240.303 182.258C240.771 182.785 241.006 183.482 241.006 184.35V184.965H236.582C236.602 185.719 236.791 186.291 237.15 186.682C237.514 187.072 238.023 187.268 238.68 187.268C239.371 187.268 240.055 187.123 240.73 186.834V187.701C240.387 187.85 240.061 187.955 239.752 188.018C239.447 188.084 239.078 188.117 238.645 188.117ZM238.381 182.275C237.865 182.275 237.453 182.443 237.145 182.779C236.84 183.115 236.66 183.58 236.605 184.174H239.963C239.963 183.561 239.826 183.092 239.553 182.768C239.279 182.439 238.889 182.275 238.381 182.275ZM246.812 186.248C246.812 186.846 246.59 187.307 246.145 187.631C245.699 187.955 245.074 188.117 244.27 188.117C243.418 188.117 242.754 187.982 242.277 187.713V186.811C242.586 186.967 242.916 187.09 243.268 187.18C243.623 187.27 243.965 187.314 244.293 187.314C244.801 187.314 245.191 187.234 245.465 187.074C245.738 186.91 245.875 186.662 245.875 186.33C245.875 186.08 245.766 185.867 245.547 185.691C245.332 185.512 244.91 185.301 244.281 185.059C243.684 184.836 243.258 184.643 243.004 184.479C242.754 184.311 242.566 184.121 242.441 183.91C242.32 183.699 242.26 183.447 242.26 183.154C242.26 182.631 242.473 182.219 242.898 181.918C243.324 181.613 243.908 181.461 244.65 181.461C245.342 181.461 246.018 181.602 246.678 181.883L246.332 182.674C245.688 182.408 245.104 182.275 244.58 182.275C244.119 182.275 243.771 182.348 243.537 182.492C243.303 182.637 243.186 182.836 243.186 183.09C243.186 183.262 243.229 183.408 243.314 183.529C243.404 183.65 243.547 183.766 243.742 183.875C243.938 183.984 244.312 184.143 244.867 184.35C245.629 184.627 246.143 184.906 246.408 185.188C246.678 185.469 246.812 185.822 246.812 186.248ZM252.795 188V183.846C252.795 183.322 252.676 182.932 252.438 182.674C252.199 182.416 251.826 182.287 251.318 182.287C250.643 182.287 250.148 182.471 249.836 182.838C249.527 183.205 249.373 183.807 249.373 184.643V188H248.4V178.883H249.373V181.643C249.373 181.975 249.357 182.25 249.326 182.469H249.385C249.576 182.16 249.848 181.918 250.199 181.742C250.555 181.562 250.959 181.473 251.412 181.473C252.197 181.473 252.785 181.66 253.176 182.035C253.57 182.406 253.768 182.998 253.768 183.811V188H252.795ZM259.721 188L259.527 187.086H259.48C259.16 187.488 258.84 187.762 258.52 187.906C258.203 188.047 257.807 188.117 257.33 188.117C256.693 188.117 256.193 187.953 255.83 187.625C255.471 187.297 255.291 186.83 255.291 186.225C255.291 184.928 256.328 184.248 258.402 184.186L259.492 184.15V183.752C259.492 183.248 259.383 182.877 259.164 182.639C258.949 182.396 258.604 182.275 258.127 182.275C257.592 182.275 256.986 182.439 256.311 182.768L256.012 182.023C256.328 181.852 256.674 181.717 257.049 181.619C257.428 181.521 257.807 181.473 258.186 181.473C258.951 181.473 259.518 181.643 259.885 181.982C260.256 182.322 260.441 182.867 260.441 183.617V188H259.721ZM257.523 187.314C258.129 187.314 258.604 187.148 258.947 186.816C259.295 186.484 259.469 186.02 259.469 185.422V184.842L258.496 184.883C257.723 184.91 257.164 185.031 256.82 185.246C256.48 185.457 256.311 185.787 256.311 186.236C256.311 186.588 256.416 186.855 256.627 187.039C256.842 187.223 257.141 187.314 257.523 187.314ZM265.439 188.117C265.021 188.117 264.639 188.041 264.291 187.889C263.947 187.732 263.658 187.494 263.424 187.174H263.354C263.4 187.549 263.424 187.904 263.424 188.24V190.883H262.451V181.578H263.242L263.377 182.457H263.424C263.674 182.105 263.965 181.852 264.297 181.695C264.629 181.539 265.01 181.461 265.439 181.461C266.291 181.461 266.947 181.752 267.408 182.334C267.873 182.916 268.105 183.732 268.105 184.783C268.105 185.838 267.869 186.658 267.396 187.244C266.928 187.826 266.275 188.117 265.439 188.117ZM265.299 182.287C264.643 182.287 264.168 182.469 263.875 182.832C263.582 183.195 263.432 183.773 263.424 184.566V184.783C263.424 185.686 263.574 186.332 263.875 186.723C264.176 187.109 264.658 187.303 265.322 187.303C265.877 187.303 266.311 187.078 266.623 186.629C266.939 186.18 267.098 185.561 267.098 184.771C267.098 183.971 266.939 183.357 266.623 182.932C266.311 182.502 265.869 182.287 265.299 182.287ZM272.523 188.117C271.574 188.117 270.824 187.828 270.273 187.25C269.727 186.672 269.453 185.869 269.453 184.842C269.453 183.807 269.707 182.984 270.215 182.375C270.727 181.766 271.412 181.461 272.271 181.461C273.076 181.461 273.713 181.727 274.182 182.258C274.65 182.785 274.885 183.482 274.885 184.35V184.965H270.461C270.48 185.719 270.67 186.291 271.029 186.682C271.393 187.072 271.902 187.268 272.559 187.268C273.25 187.268 273.934 187.123 274.609 186.834V187.701C274.266 187.85 273.939 187.955 273.631 188.018C273.326 188.084 272.957 188.117 272.523 188.117ZM272.26 182.275C271.744 182.275 271.332 182.443 271.023 182.779C270.719 183.115 270.539 183.58 270.484 184.174H273.842C273.842 183.561 273.705 183.092 273.432 182.768C273.158 182.439 272.768 182.275 272.26 182.275Z" fill="black"/>
<path d="M314.303 180.201C313.361 180.201 312.617 180.516 312.07 181.145C311.527 181.77 311.256 182.627 311.256 183.717C311.256 184.838 311.518 185.705 312.041 186.318C312.568 186.928 313.318 187.232 314.291 187.232C314.889 187.232 315.57 187.125 316.336 186.91V187.783C315.742 188.006 315.01 188.117 314.139 188.117C312.877 188.117 311.902 187.734 311.215 186.969C310.531 186.203 310.189 185.115 310.189 183.705C310.189 182.822 310.354 182.049 310.682 181.385C311.014 180.721 311.49 180.209 312.111 179.85C312.736 179.49 313.471 179.311 314.314 179.311C315.213 179.311 315.998 179.475 316.67 179.803L316.248 180.658C315.6 180.354 314.951 180.201 314.303 180.201ZM323.602 184.783C323.602 185.83 323.338 186.648 322.811 187.238C322.283 187.824 321.555 188.117 320.625 188.117C320.051 188.117 319.541 187.982 319.096 187.713C318.65 187.443 318.307 187.057 318.064 186.553C317.822 186.049 317.701 185.459 317.701 184.783C317.701 183.736 317.963 182.922 318.486 182.34C319.01 181.754 319.736 181.461 320.666 181.461C321.564 181.461 322.277 181.76 322.805 182.357C323.336 182.955 323.602 183.764 323.602 184.783ZM318.709 184.783C318.709 185.604 318.873 186.229 319.201 186.658C319.529 187.088 320.012 187.303 320.648 187.303C321.285 187.303 321.768 187.09 322.096 186.664C322.428 186.234 322.594 185.607 322.594 184.783C322.594 183.967 322.428 183.348 322.096 182.926C321.768 182.5 321.281 182.287 320.637 182.287C320 182.287 319.52 182.496 319.195 182.914C318.871 183.332 318.709 183.955 318.709 184.783ZM329.707 188V183.846C329.707 183.322 329.588 182.932 329.35 182.674C329.111 182.416 328.738 182.287 328.23 182.287C327.559 182.287 327.066 182.469 326.754 182.832C326.441 183.195 326.285 183.795 326.285 184.631V188H325.312V181.578H326.104L326.262 182.457H326.309C326.508 182.141 326.787 181.896 327.146 181.725C327.506 181.549 327.906 181.461 328.348 181.461C329.121 181.461 329.703 181.648 330.094 182.023C330.484 182.395 330.68 182.99 330.68 183.811V188H329.707ZM334.09 188L331.652 181.578H332.695L334.078 185.387C334.391 186.277 334.574 186.855 334.629 187.121H334.676C334.719 186.914 334.854 186.486 335.08 185.838C335.311 185.186 335.824 183.766 336.621 181.578H337.664L335.227 188H334.09ZM341.479 188H340.482V180.318H337.77V179.434H344.191V180.318H341.479V188ZM351.252 183.365H353.666V184.174H351.252V186.67H350.438V184.174H348.035V183.365H350.438V180.857H351.252V183.365ZM359.584 184.438V188H358.588V179.434H360.938C361.988 179.434 362.764 179.635 363.264 180.037C363.768 180.439 364.02 181.045 364.02 181.854C364.02 182.986 363.445 183.752 362.297 184.15L364.623 188H363.445L361.371 184.438H359.584ZM359.584 183.582H360.949C361.652 183.582 362.168 183.443 362.496 183.166C362.824 182.885 362.988 182.465 362.988 181.906C362.988 181.34 362.82 180.932 362.484 180.682C362.152 180.432 361.617 180.307 360.879 180.307H359.584V183.582ZM368.572 188.117C367.623 188.117 366.873 187.828 366.322 187.25C365.775 186.672 365.502 185.869 365.502 184.842C365.502 183.807 365.756 182.984 366.264 182.375C366.775 181.766 367.461 181.461 368.32 181.461C369.125 181.461 369.762 181.727 370.23 182.258C370.699 182.785 370.934 183.482 370.934 184.35V184.965H366.51C366.529 185.719 366.719 186.291 367.078 186.682C367.441 187.072 367.951 187.268 368.607 187.268C369.299 187.268 369.982 187.123 370.658 186.834V187.701C370.314 187.85 369.988 187.955 369.68 188.018C369.375 188.084 369.006 188.117 368.572 188.117ZM368.309 182.275C367.793 182.275 367.381 182.443 367.072 182.779C366.768 183.115 366.588 183.58 366.533 184.174H369.891C369.891 183.561 369.754 183.092 369.48 182.768C369.207 182.439 368.816 182.275 368.309 182.275ZM372.744 188V179.434H373.74V187.098H377.52V188H372.744ZM385.447 179.434V184.977C385.447 185.953 385.152 186.721 384.562 187.279C383.973 187.838 383.162 188.117 382.131 188.117C381.1 188.117 380.301 187.836 379.734 187.273C379.172 186.711 378.891 185.938 378.891 184.953V179.434H379.887V185.023C379.887 185.738 380.082 186.287 380.473 186.67C380.863 187.053 381.438 187.244 382.195 187.244C382.918 187.244 383.475 187.053 383.865 186.67C384.256 186.283 384.451 185.73 384.451 185.012V179.434H385.447Z" fill="black"/>
<path d="M451.303 180.201C450.361 180.201 449.617 180.516 449.07 181.145C448.527 181.77 448.256 182.627 448.256 183.717C448.256 184.838 448.518 185.705 449.041 186.318C449.568 186.928 450.318 187.232 451.291 187.232C451.889 187.232 452.57 187.125 453.336 186.91V187.783C452.742 188.006 452.01 188.117 451.139 188.117C449.877 188.117 448.902 187.734 448.215 186.969C447.531 186.203 447.189 185.115 447.189 183.705C447.189 182.822 447.354 182.049 447.682 181.385C448.014 180.721 448.49 180.209 449.111 179.85C449.736 179.49 450.471 179.311 451.314 179.311C452.213 179.311 452.998 179.475 453.67 179.803L453.248 180.658C452.6 180.354 451.951 180.201 451.303 180.201ZM460.602 184.783C460.602 185.83 460.338 186.648 459.811 187.238C459.283 187.824 458.555 188.117 457.625 188.117C457.051 188.117 456.541 187.982 456.096 187.713C455.65 187.443 455.307 187.057 455.064 186.553C454.822 186.049 454.701 185.459 454.701 184.783C454.701 183.736 454.963 182.922 455.486 182.34C456.01 181.754 456.736 181.461 457.666 181.461C458.564 181.461 459.277 181.76 459.805 182.357C460.336 182.955 460.602 183.764 460.602 184.783ZM455.709 184.783C455.709 185.604 455.873 186.229 456.201 186.658C456.529 187.088 457.012 187.303 457.648 187.303C458.285 187.303 458.768 187.09 459.096 186.664C459.428 186.234 459.594 185.607 459.594 184.783C459.594 183.967 459.428 183.348 459.096 182.926C458.768 182.5 458.281 182.287 457.637 182.287C457 182.287 456.52 182.496 456.195 182.914C455.871 183.332 455.709 183.955 455.709 184.783ZM466.707 188V183.846C466.707 183.322 466.588 182.932 466.35 182.674C466.111 182.416 465.738 182.287 465.23 182.287C464.559 182.287 464.066 182.469 463.754 182.832C463.441 183.195 463.285 183.795 463.285 184.631V188H462.312V181.578H463.104L463.262 182.457H463.309C463.508 182.141 463.787 181.896 464.146 181.725C464.506 181.549 464.906 181.461 465.348 181.461C466.121 181.461 466.703 181.648 467.094 182.023C467.484 182.395 467.68 182.99 467.68 183.811V188H466.707ZM471.09 188L468.652 181.578H469.695L471.078 185.387C471.391 186.277 471.574 186.855 471.629 187.121H471.676C471.719 186.914 471.854 186.486 472.08 185.838C472.311 185.186 472.824 183.766 473.621 181.578H474.664L472.227 188H471.09ZM478.479 188H477.482V180.318H474.77V179.434H481.191V180.318H478.479V188ZM488.252 183.365H490.666V184.174H488.252V186.67H487.438V184.174H485.035V183.365H487.438V180.857H488.252V183.365ZM496.584 184.438V188H495.588V179.434H497.938C498.988 179.434 499.764 179.635 500.264 180.037C500.768 180.439 501.02 181.045 501.02 181.854C501.02 182.986 500.445 183.752 499.297 184.15L501.623 188H500.445L498.371 184.438H496.584ZM496.584 183.582H497.949C498.652 183.582 499.168 183.443 499.496 183.166C499.824 182.885 499.988 182.465 499.988 181.906C499.988 181.34 499.82 180.932 499.484 180.682C499.152 180.432 498.617 180.307 497.879 180.307H496.584V183.582ZM505.572 188.117C504.623 188.117 503.873 187.828 503.322 187.25C502.775 186.672 502.502 185.869 502.502 184.842C502.502 183.807 502.756 182.984 503.264 182.375C503.775 181.766 504.461 181.461 505.32 181.461C506.125 181.461 506.762 181.727 507.23 182.258C507.699 182.785 507.934 183.482 507.934 184.35V184.965H503.51C503.529 185.719 503.719 186.291 504.078 186.682C504.441 187.072 504.951 187.268 505.607 187.268C506.299 187.268 506.982 187.123 507.658 186.834V187.701C507.314 187.85 506.988 187.955 506.68 188.018C506.375 188.084 506.006 188.117 505.572 188.117ZM505.309 182.275C504.793 182.275 504.381 182.443 504.072 182.779C503.768 183.115 503.588 183.58 503.533 184.174H506.891C506.891 183.561 506.754 183.092 506.48 182.768C506.207 182.439 505.816 182.275 505.309 182.275ZM509.744 188V179.434H510.74V187.098H514.52V188H509.744ZM522.447 179.434V184.977C522.447 185.953 522.152 186.721 521.562 187.279C520.973 187.838 520.162 188.117 519.131 188.117C518.1 188.117 517.301 187.836 516.734 187.273C516.172 186.711 515.891 185.938 515.891 184.953V179.434H516.887V185.023C516.887 185.738 517.082 186.287 517.473 186.67C517.863 187.053 518.438 187.244 519.195 187.244C519.918 187.244 520.475 187.053 520.865 186.67C521.256 186.283 521.451 185.73 521.451 185.012V179.434H522.447Z" fill="black"/>
<path d="M593.186 180.201C592.244 180.201 591.5 180.516 590.953 181.145C590.41 181.77 590.139 182.627 590.139 183.717C590.139 184.838 590.4 185.705 590.924 186.318C591.451 186.928 592.201 187.232 593.174 187.232C593.771 187.232 594.453 187.125 595.219 186.91V187.783C594.625 188.006 593.893 188.117 593.021 188.117C591.76 188.117 590.785 187.734 590.098 186.969C589.414 186.203 589.072 185.115 589.072 183.705C589.072 182.822 589.236 182.049 589.564 181.385C589.896 180.721 590.373 180.209 590.994 179.85C591.619 179.49 592.354 179.311 593.197 179.311C594.096 179.311 594.881 179.475 595.553 179.803L595.131 180.658C594.482 180.354 593.834 180.201 593.186 180.201ZM602.484 184.783C602.484 185.83 602.221 186.648 601.693 187.238C601.166 187.824 600.438 188.117 599.508 188.117C598.934 188.117 598.424 187.982 597.979 187.713C597.533 187.443 597.189 187.057 596.947 186.553C596.705 186.049 596.584 185.459 596.584 184.783C596.584 183.736 596.846 182.922 597.369 182.34C597.893 181.754 598.619 181.461 599.549 181.461C600.447 181.461 601.16 181.76 601.688 182.357C602.219 182.955 602.484 183.764 602.484 184.783ZM597.592 184.783C597.592 185.604 597.756 186.229 598.084 186.658C598.412 187.088 598.895 187.303 599.531 187.303C600.168 187.303 600.65 187.09 600.979 186.664C601.311 186.234 601.477 185.607 601.477 184.783C601.477 183.967 601.311 183.348 600.979 182.926C600.65 182.5 600.164 182.287 599.52 182.287C598.883 182.287 598.402 182.496 598.078 182.914C597.754 183.332 597.592 183.955 597.592 184.783ZM608.59 188V183.846C608.59 183.322 608.471 182.932 608.232 182.674C607.994 182.416 607.621 182.287 607.113 182.287C606.441 182.287 605.949 182.469 605.637 182.832C605.324 183.195 605.168 183.795 605.168 184.631V188H604.195V181.578H604.986L605.145 182.457H605.191C605.391 182.141 605.67 181.896 606.029 181.725C606.389 181.549 606.789 181.461 607.23 181.461C608.004 181.461 608.586 181.648 608.977 182.023C609.367 182.395 609.562 182.99 609.562 183.811V188H608.59ZM612.973 188L610.535 181.578H611.578L612.961 185.387C613.273 186.277 613.457 186.855 613.512 187.121H613.559C613.602 186.914 613.736 186.486 613.963 185.838C614.193 185.186 614.707 183.766 615.504 181.578H616.547L614.109 188H612.973ZM623.49 183.365H625.904V184.174H623.49V186.67H622.676V184.174H620.273V183.365H622.676V180.857H623.49V183.365ZM635.66 185.721C635.66 186.475 635.387 187.062 634.84 187.484C634.293 187.906 633.551 188.117 632.613 188.117C631.598 188.117 630.816 187.986 630.27 187.725V186.764C630.621 186.912 631.004 187.029 631.418 187.115C631.832 187.201 632.242 187.244 632.648 187.244C633.312 187.244 633.812 187.119 634.148 186.869C634.484 186.615 634.652 186.264 634.652 185.814C634.652 185.518 634.592 185.275 634.471 185.088C634.354 184.896 634.154 184.721 633.873 184.561C633.596 184.4 633.172 184.219 632.602 184.016C631.805 183.73 631.234 183.393 630.891 183.002C630.551 182.611 630.381 182.102 630.381 181.473C630.381 180.812 630.629 180.287 631.125 179.896C631.621 179.506 632.277 179.311 633.094 179.311C633.945 179.311 634.729 179.467 635.443 179.779L635.133 180.646C634.426 180.35 633.738 180.201 633.07 180.201C632.543 180.201 632.131 180.314 631.834 180.541C631.537 180.768 631.389 181.082 631.389 181.484C631.389 181.781 631.443 182.025 631.553 182.217C631.662 182.404 631.846 182.578 632.104 182.738C632.365 182.895 632.764 183.068 633.299 183.26C634.197 183.58 634.814 183.924 635.15 184.291C635.49 184.658 635.66 185.135 635.66 185.721ZM638.238 188H637.266V181.578H638.238V188ZM637.184 179.838C637.184 179.615 637.238 179.453 637.348 179.352C637.457 179.246 637.594 179.193 637.758 179.193C637.914 179.193 638.049 179.246 638.162 179.352C638.275 179.457 638.332 179.619 638.332 179.838C638.332 180.057 638.275 180.221 638.162 180.33C638.049 180.436 637.914 180.488 637.758 180.488C637.594 180.488 637.457 180.436 637.348 180.33C637.238 180.221 637.184 180.057 637.184 179.838ZM645.557 181.578V182.193L644.367 182.334C644.477 182.471 644.574 182.65 644.66 182.873C644.746 183.092 644.789 183.34 644.789 183.617C644.789 184.246 644.574 184.748 644.145 185.123C643.715 185.498 643.125 185.686 642.375 185.686C642.184 185.686 642.004 185.67 641.836 185.639C641.422 185.857 641.215 186.133 641.215 186.465C641.215 186.641 641.287 186.771 641.432 186.857C641.576 186.939 641.824 186.98 642.176 186.98H643.312C644.008 186.98 644.541 187.127 644.912 187.42C645.287 187.713 645.475 188.139 645.475 188.697C645.475 189.408 645.189 189.949 644.619 190.32C644.049 190.695 643.217 190.883 642.123 190.883C641.283 190.883 640.635 190.727 640.178 190.414C639.725 190.102 639.498 189.66 639.498 189.09C639.498 188.699 639.623 188.361 639.873 188.076C640.123 187.791 640.475 187.598 640.928 187.496C640.764 187.422 640.625 187.307 640.512 187.15C640.402 186.994 640.348 186.812 640.348 186.605C640.348 186.371 640.41 186.166 640.535 185.99C640.66 185.814 640.857 185.645 641.127 185.48C640.795 185.344 640.523 185.111 640.312 184.783C640.105 184.455 640.002 184.08 640.002 183.658C640.002 182.955 640.213 182.414 640.635 182.035C641.057 181.652 641.654 181.461 642.428 181.461C642.764 181.461 643.066 181.5 643.336 181.578H645.557ZM640.436 189.078C640.436 189.426 640.582 189.689 640.875 189.869C641.168 190.049 641.588 190.139 642.135 190.139C642.951 190.139 643.555 190.016 643.945 189.77C644.34 189.527 644.537 189.197 644.537 188.779C644.537 188.432 644.43 188.189 644.215 188.053C644 187.92 643.596 187.854 643.002 187.854H641.836C641.395 187.854 641.051 187.959 640.805 188.17C640.559 188.381 640.436 188.684 640.436 189.078ZM640.963 183.635C640.963 184.084 641.09 184.424 641.344 184.654C641.598 184.885 641.951 185 642.404 185C643.354 185 643.828 184.539 643.828 183.617C643.828 182.652 643.348 182.17 642.387 182.17C641.93 182.17 641.578 182.293 641.332 182.539C641.086 182.785 640.963 183.15 640.963 183.635ZM655.061 188V183.822C655.061 183.311 654.951 182.928 654.732 182.674C654.514 182.416 654.174 182.287 653.713 182.287C653.107 182.287 652.66 182.461 652.371 182.809C652.082 183.156 651.938 183.691 651.938 184.414V188H650.965V183.822C650.965 183.311 650.855 182.928 650.637 182.674C650.418 182.416 650.076 182.287 649.611 182.287C649.002 182.287 648.555 182.471 648.27 182.838C647.988 183.201 647.848 183.799 647.848 184.631V188H646.875V181.578H647.666L647.824 182.457H647.871C648.055 182.145 648.312 181.9 648.645 181.725C648.98 181.549 649.355 181.461 649.77 181.461C650.773 181.461 651.43 181.824 651.738 182.551H651.785C651.977 182.215 652.254 181.949 652.617 181.754C652.98 181.559 653.395 181.461 653.859 181.461C654.586 181.461 655.129 181.648 655.488 182.023C655.852 182.395 656.033 182.99 656.033 183.811V188H655.061ZM663.586 184.783C663.586 185.83 663.322 186.648 662.795 187.238C662.268 187.824 661.539 188.117 660.609 188.117C660.035 188.117 659.525 187.982 659.08 187.713C658.635 187.443 658.291 187.057 658.049 186.553C657.807 186.049 657.686 185.459 657.686 184.783C657.686 183.736 657.947 182.922 658.471 182.34C658.994 181.754 659.721 181.461 660.65 181.461C661.549 181.461 662.262 181.76 662.789 182.357C663.32 182.955 663.586 183.764 663.586 184.783ZM658.693 184.783C658.693 185.604 658.857 186.229 659.186 186.658C659.514 187.088 659.996 187.303 660.633 187.303C661.27 187.303 661.752 187.09 662.08 186.664C662.412 186.234 662.578 185.607 662.578 184.783C662.578 183.967 662.412 183.348 662.08 182.926C661.752 182.5 661.266 182.287 660.621 182.287C659.984 182.287 659.504 182.496 659.18 182.914C658.855 183.332 658.693 183.955 658.693 184.783ZM666.27 188H665.297V181.578H666.27V188ZM665.215 179.838C665.215 179.615 665.27 179.453 665.379 179.352C665.488 179.246 665.625 179.193 665.789 179.193C665.945 179.193 666.08 179.246 666.193 179.352C666.307 179.457 666.363 179.619 666.363 179.838C666.363 180.057 666.307 180.221 666.193 180.33C666.08 180.436 665.945 180.488 665.789 180.488C665.625 180.488 665.488 180.436 665.379 180.33C665.27 180.221 665.215 180.057 665.215 179.838ZM672.703 187.139H672.65C672.201 187.791 671.529 188.117 670.635 188.117C669.795 188.117 669.141 187.83 668.672 187.256C668.207 186.682 667.975 185.865 667.975 184.807C667.975 183.748 668.209 182.926 668.678 182.34C669.146 181.754 669.799 181.461 670.635 181.461C671.506 181.461 672.174 181.777 672.639 182.41H672.715L672.674 181.947L672.65 181.496V178.883H673.623V188H672.832L672.703 187.139ZM670.758 187.303C671.422 187.303 671.902 187.123 672.199 186.764C672.5 186.4 672.65 185.816 672.65 185.012V184.807C672.65 183.896 672.498 183.248 672.193 182.861C671.893 182.471 671.41 182.275 670.746 182.275C670.176 182.275 669.738 182.498 669.434 182.943C669.133 183.385 668.982 184.01 668.982 184.818C668.982 185.639 669.133 186.258 669.434 186.676C669.734 187.094 670.176 187.303 670.758 187.303Z" fill="black"/>
<path d="M303.5 119C303.5 120.402 304.053 121.479 305.013 122.275C305.95 123.053 307.252 123.544 308.739 123.864C311.708 124.502 315.644 124.5 319.5 124.5C323.394 124.5 327.208 124.502 330.051 125.114C331.471 125.419 332.591 125.866 333.349 126.494C334.084 127.104 334.5 127.902 334.5 129L335.5 129C335.5 127.598 334.947 126.521 333.987 125.725C333.05 124.947 331.748 124.456 330.261 124.136C327.292 123.498 323.356 123.5 319.5 123.5C315.606 123.5 311.792 123.498 308.949 122.886C307.529 122.581 306.409 122.134 305.651 121.506C304.916 120.896 304.5 120.098 304.5 119L303.5 119ZM365.5 119C365.5 120.098 365.084 120.896 364.349 121.506C363.591 122.134 362.471 122.581 361.051 122.886C358.208 123.498 354.394 123.5 350.5 123.5C346.644 123.5 342.708 123.498 339.739 124.136C338.252 124.456 336.95 124.947 336.013 125.725C335.053 126.521 334.5 127.598 334.5 129L335.5 129C335.5 127.902 335.916 127.104 336.651 126.494C337.409 125.866 338.529 125.419 339.949 125.114C342.792 124.502 346.606 124.5 350.5 124.5C354.356 124.5 358.292 124.502 361.261 123.864C362.748 123.544 364.05 123.053 364.987 122.275C365.947 121.479 366.5 120.402 366.5 119L365.5 119Z" fill="black"/>
<path d="M334.35 142H328.719V141.162L330.975 138.895C331.662 138.199 332.115 137.703 332.334 137.406C332.553 137.109 332.717 136.82 332.826 136.539C332.936 136.258 332.99 135.955 332.99 135.631C332.99 135.174 332.852 134.812 332.574 134.547C332.297 134.277 331.912 134.143 331.42 134.143C331.064 134.143 330.727 134.201 330.406 134.318C330.09 134.436 329.736 134.648 329.346 134.957L328.83 134.295C329.619 133.639 330.479 133.311 331.408 133.311C332.213 133.311 332.844 133.518 333.301 133.932C333.758 134.342 333.986 134.895 333.986 135.59C333.986 136.133 333.834 136.67 333.529 137.201C333.225 137.732 332.654 138.404 331.818 139.217L329.943 141.051V141.098H334.35V142ZM341.621 140.031H340.35V142H339.418V140.031H335.252V139.182L339.318 133.387H340.35V139.146H341.621V140.031ZM339.418 139.146V136.299C339.418 135.74 339.438 135.109 339.477 134.406H339.43C339.242 134.781 339.066 135.092 338.902 135.338L336.225 139.146H339.418Z" fill="black"/>
<path d="M334.35 142H328.719V141.162L330.975 138.895C331.662 138.199 332.115 137.703 332.334 137.406C332.553 137.109 332.717 136.82 332.826 136.539C332.936 136.258 332.99 135.955 332.99 135.631C332.99 135.174 332.852 134.812 332.574 134.547C332.297 134.277 331.912 134.143 331.42 134.143C331.064 134.143 330.727 134.201 330.406 134.318C330.09 134.436 329.736 134.648 329.346 134.957L328.83 134.295C329.619 133.639 330.479 133.311 331.408 133.311C332.213 133.311 332.844 133.518 333.301 133.932C333.758 134.342 333.986 134.895 333.986 135.59C333.986 136.133 333.834 136.67 333.529 137.201C333.225 137.732 332.654 138.404 331.818 139.217L329.943 141.051V141.098H334.35V142ZM341.621 140.031H340.35V142H339.418V140.031H335.252V139.182L339.318 133.387H340.35V139.146H341.621V140.031ZM339.418 139.146V136.299C339.418 135.74 339.438 135.109 339.477 134.406H339.43C339.242 134.781 339.066 135.092 338.902 135.338L336.225 139.146H339.418Z" fill="black"/>
<path d="M334.35 142H328.719V141.162L330.975 138.895C331.662 138.199 332.115 137.703 332.334 137.406C332.553 137.109 332.717 136.82 332.826 136.539C332.936 136.258 332.99 135.955 332.99 135.631C332.99 135.174 332.852 134.812 332.574 134.547C332.297 134.277 331.912 134.143 331.42 134.143C331.064 134.143 330.727 134.201 330.406 134.318C330.09 134.436 329.736 134.648 329.346 134.957L328.83 134.295C329.619 133.639 330.479 133.311 331.408 133.311C332.213 133.311 332.844 133.518 333.301 133.932C333.758 134.342 333.986 134.895 333.986 135.59C333.986 136.133 333.834 136.67 333.529 137.201C333.225 137.732 332.654 138.404 331.818 139.217L329.943 141.051V141.098H334.35V142ZM341.621 140.031H340.35V142H339.418V140.031H335.252V139.182L339.318 133.387H340.35V139.146H341.621V140.031ZM339.418 139.146V136.299C339.418 135.74 339.438 135.109 339.477 134.406H339.43C339.242 134.781 339.066 135.092 338.902 135.338L336.225 139.146H339.418Z" fill="black"/>
<path d="M228.5 99C228.5 100.09 228.783 100.957 229.319 101.625C229.85 102.288 230.592 102.707 231.424 102.976C233.063 103.505 235.215 103.5 237.25 103.5C239.34 103.5 241.313 103.505 242.768 103.976C243.483 104.207 244.03 104.538 244.401 105C244.767 105.457 245 106.09 245 107L246 107C246 105.91 245.717 105.043 245.181 104.375C244.65 103.712 243.908 103.293 243.076 103.024C241.437 102.495 239.285 102.5 237.25 102.5C235.16 102.5 233.187 102.495 231.732 102.024C231.017 101.793 230.47 101.462 230.099 101C229.733 100.543 229.5 99.9101 229.5 99L228.5 99ZM261.5 99C261.5 99.9101 261.267 100.543 260.901 101C260.53 101.462 259.983 101.793 259.268 102.024C257.813 102.495 255.84 102.5 253.75 102.5C251.715 102.5 249.563 102.495 247.924 103.024C247.092 103.293 246.35 103.712 245.819 104.375C245.283 105.043 245 105.91 245 107L246 107C246 106.09 246.233 105.457 246.599 105C246.97 104.538 247.517 104.207 248.232 103.976C249.687 103.505 251.66 103.5 253.75 103.5C255.785 103.5 257.937 103.505 259.576 102.976C260.408 102.707 261.15 102.288 261.681 101.625C262.217 100.957 262.5 100.09 262.5 99L261.5 99Z" fill="black"/>
<path d="M245.488 111.311C246.27 111.311 246.889 111.492 247.346 111.855C247.803 112.219 248.031 112.721 248.031 113.361C248.031 113.783 247.9 114.168 247.639 114.516C247.377 114.863 246.959 115.18 246.385 115.465C247.08 115.797 247.574 116.146 247.867 116.514C248.16 116.877 248.307 117.299 248.307 117.779C248.307 118.49 248.059 119.059 247.562 119.484C247.066 119.906 246.387 120.117 245.523 120.117C244.609 120.117 243.906 119.918 243.414 119.52C242.922 119.117 242.676 118.549 242.676 117.814C242.676 116.834 243.273 116.07 244.469 115.523C243.93 115.219 243.543 114.891 243.309 114.539C243.074 114.184 242.957 113.787 242.957 113.35C242.957 112.729 243.186 112.234 243.643 111.867C244.104 111.496 244.719 111.311 245.488 111.311ZM243.637 117.838C243.637 118.307 243.799 118.672 244.123 118.934C244.451 119.195 244.91 119.326 245.5 119.326C246.082 119.326 246.535 119.189 246.859 118.916C247.184 118.643 247.346 118.268 247.346 117.791C247.346 117.412 247.193 117.076 246.889 116.783C246.584 116.486 246.053 116.199 245.295 115.922C244.713 116.172 244.291 116.449 244.029 116.754C243.768 117.055 243.637 117.416 243.637 117.838ZM245.477 112.102C244.988 112.102 244.605 112.219 244.328 112.453C244.051 112.688 243.912 113 243.912 113.391C243.912 113.75 244.027 114.059 244.258 114.316C244.488 114.574 244.914 114.832 245.535 115.09C246.094 114.855 246.488 114.604 246.719 114.334C246.953 114.064 247.07 113.75 247.07 113.391C247.07 112.996 246.928 112.684 246.643 112.453C246.361 112.219 245.973 112.102 245.477 112.102Z" fill="black"/>
<path d="M27.5 103C27.5 104.262 28.3091 105.15 29.4901 105.757C30.6616 106.36 32.293 106.743 34.1839 106.996C37.9742 107.501 43.0123 107.5 48 107.5C53.0123 107.5 57.9742 107.501 61.6839 107.996C63.543 108.243 65.0366 108.61 66.0526 109.132C67.0591 109.65 67.5 110.262 67.5 111L68.5 111C68.5 109.738 67.6909 108.85 66.5099 108.243C65.3384 107.64 63.707 107.257 61.8161 107.004C58.0258 106.499 52.9877 106.5 48 106.5C42.9877 106.5 38.0258 106.499 34.3161 106.004C32.457 105.757 30.9634 105.39 29.9474 104.868C28.9409 104.35 28.5 103.738 28.5 103L27.5 103ZM107.5 103C107.5 103.738 107.059 104.35 106.053 104.868C105.037 105.39 103.543 105.757 101.684 106.004C97.9742 106.499 93.0123 106.5 88 106.5C83.0123 106.5 77.9742 106.499 74.1839 107.004C72.293 107.257 70.6616 107.64 69.4901 108.243C68.3091 108.85 67.5 109.738 67.5 111L68.5 111C68.5 110.262 68.9409 109.65 69.9474 109.132C70.9634 108.61 72.457 108.243 74.3161 107.996C78.0258 107.501 82.9877 107.5 88 107.5C92.9877 107.5 98.0258 107.501 101.816 106.996C103.707 106.743 105.338 106.36 106.51 105.757C107.691 105.15 108.5 104.262 108.5 103L107.5 103Z" fill="black"/>
<path d="M23 47.5C21.8468 47.5 20.9565 47.9604 20.3014 48.7565C19.6651 49.5298 19.2681 50.5969 19.011 51.8019C18.4975 54.2088 18.5 57.3942 18.5 60.5C18.5 63.6442 18.4975 66.7088 18.011 68.9894C17.7681 70.1282 17.4151 71.0142 16.9264 71.6081C16.4565 72.1791 15.8468 72.5 15 72.5L15 73.5C16.1531 73.5 17.0435 73.0396 17.6986 72.2435C18.3349 71.4702 18.7319 70.4031 18.989 69.1981C19.5025 66.7912 19.5 63.6058 19.5 60.5C19.5 57.3558 19.5025 54.2912 19.989 52.0106C20.2319 50.8718 20.5849 49.9858 21.0736 49.3919C21.5435 48.8209 22.1532 48.5 23 48.5L23 47.5ZM23 97.5C22.1531 97.5 21.5435 97.1791 21.0736 96.6081C20.5849 96.0142 20.2319 95.1282 19.989 93.9894C19.5024 91.7088 19.5 88.6442 19.5 85.5C19.5 82.3942 19.5024 79.2088 18.989 76.8019C18.7319 75.5969 18.3349 74.5298 17.6986 73.7565C17.0435 72.9604 16.1531 72.5 15 72.5L15 73.5C15.8468 73.5 16.4565 73.8209 16.9264 74.3919C17.4151 74.9858 17.7681 75.8718 18.011 77.0106C18.4975 79.2912 18.5 82.3558 18.5 85.5C18.5 88.6058 18.4975 91.7912 19.011 94.1981C19.2681 95.4031 19.6651 96.4702 20.3014 97.2435C20.9565 98.0396 21.8468 98.5 23 98.5L23 97.5Z" fill="black"/>
<path d="M65.3223 124H64.373V117.895C64.373 117.387 64.3887 116.906 64.4199 116.453C64.3379 116.535 64.2461 116.621 64.1445 116.711C64.043 116.801 63.5781 117.182 62.75 117.854L62.2344 117.186L64.502 115.434H65.3223V124ZM74.2637 119.705C74.2637 121.186 74.0293 122.291 73.5605 123.021C73.0957 123.752 72.3828 124.117 71.4219 124.117C70.5 124.117 69.7988 123.744 69.3184 122.998C68.8379 122.248 68.5977 121.15 68.5977 119.705C68.5977 118.213 68.8301 117.105 69.2949 116.383C69.7598 115.66 70.4688 115.299 71.4219 115.299C72.3516 115.299 73.0566 115.676 73.5371 116.43C74.0215 117.184 74.2637 118.275 74.2637 119.705ZM69.582 119.705C69.582 120.951 69.7285 121.859 70.0215 122.43C70.3145 122.996 70.7812 123.279 71.4219 123.279C72.0703 123.279 72.5391 122.992 72.8281 122.418C73.1211 121.84 73.2676 120.936 73.2676 119.705C73.2676 118.475 73.1211 117.574 72.8281 117.004C72.5391 116.43 72.0703 116.143 71.4219 116.143C70.7812 116.143 70.3145 116.426 70.0215 116.992C69.7285 117.555 69.582 118.459 69.582 119.705Z" fill="black"/>
<path d="M3.32227 77H2.37305V70.8945C2.37305 70.3867 2.38867 69.9062 2.41992 69.4531C2.33789 69.5352 2.24609 69.6211 2.14453 69.7109C2.04297 69.8008 1.57812 70.1816 0.75 70.8535L0.234375 70.1855L2.50195 68.4336H3.32227V77ZM6.68555 73.3379C6.68555 71.6543 7.01172 70.3965 7.66406 69.5645C8.32031 68.7285 9.28906 68.3105 10.5703 68.3105C11.0117 68.3105 11.3594 68.3477 11.6133 68.4219V69.2598C11.3125 69.1621 10.9688 69.1133 10.582 69.1133C9.66406 69.1133 8.96289 69.4004 8.47852 69.9746C7.99414 70.5449 7.72852 71.4434 7.68164 72.6699H7.75195C8.18164 71.998 8.86133 71.6621 9.79102 71.6621C10.5605 71.6621 11.166 71.8945 11.6074 72.3594C12.0527 72.8242 12.2754 73.4551 12.2754 74.252C12.2754 75.1426 12.0312 75.8438 11.543 76.3555C11.0586 76.8633 10.4023 77.1172 9.57422 77.1172C8.6875 77.1172 7.98438 76.7852 7.46484 76.1211C6.94531 75.4531 6.68555 74.5254 6.68555 73.3379ZM9.5625 76.291C10.1172 76.291 10.5469 76.1172 10.8516 75.7695C11.1602 75.418 11.3145 74.9121 11.3145 74.252C11.3145 73.6855 11.1719 73.2402 10.8867 72.916C10.6016 72.5918 10.1758 72.4297 9.60938 72.4297C9.25781 72.4297 8.93555 72.502 8.64258 72.6465C8.34961 72.791 8.11523 72.9902 7.93945 73.2441C7.76758 73.498 7.68164 73.7617 7.68164 74.0352C7.68164 74.4375 7.75977 74.8125 7.91602 75.1602C8.07227 75.5078 8.29297 75.7832 8.57812 75.9863C8.86719 76.1895 9.19531 76.291 9.5625 76.291Z" fill="black"/>
<path d="M174 25.5C172.694 25.5 171.817 26.4764 171.229 27.819C170.636 29.1749 170.255 31.0717 170.003 33.2874C169.499 37.7281 169.5 43.6355 169.5 49.5C169.5 55.3855 169.499 61.2281 169.003 65.5999C168.755 67.7905 168.386 69.5655 167.854 70.78C167.317 72.0077 166.694 72.5 166 72.5L166 73.5C167.306 73.5 168.183 72.5236 168.771 71.181C169.364 69.8251 169.745 67.9283 169.997 65.7126C170.501 61.2719 170.5 55.3645 170.5 49.5C170.5 43.6145 170.501 37.7719 170.997 33.4001C171.245 31.2095 171.614 29.4345 172.146 28.22C172.683 26.9923 173.306 26.5 174 26.5L174 25.5ZM174 119.5C173.306 119.5 172.683 119.008 172.146 117.78C171.614 116.566 171.245 114.79 170.997 112.6C170.501 108.228 170.5 102.385 170.5 96.5C170.5 90.6355 170.501 84.7281 169.997 80.2874C169.745 78.0717 169.364 76.1749 168.771 74.8191C168.183 73.4764 167.306 72.5 166 72.5L166 73.5C166.694 73.5 167.317 73.9923 167.854 75.22C168.386 76.4345 168.755 78.2095 169.003 80.4001C169.499 84.7719 169.5 90.6145 169.5 96.5C169.5 102.365 169.499 108.272 170.003 112.713C170.255 114.928 170.636 116.825 171.229 118.181C171.817 119.524 172.694 120.5 174 120.5L174 119.5Z" fill="black"/>
<path d="M149.416 77H143.785V76.1621L146.041 73.8945C146.729 73.1992 147.182 72.7031 147.4 72.4062C147.619 72.1094 147.783 71.8203 147.893 71.5391C148.002 71.2578 148.057 70.9551 148.057 70.6309C148.057 70.1738 147.918 69.8125 147.641 69.5469C147.363 69.2773 146.979 69.1426 146.486 69.1426C146.131 69.1426 145.793 69.2012 145.473 69.3184C145.156 69.4355 144.803 69.6484 144.412 69.957L143.896 69.2949C144.686 68.6387 145.545 68.3105 146.475 68.3105C147.279 68.3105 147.91 68.5176 148.367 68.9316C148.824 69.3418 149.053 69.8945 149.053 70.5898C149.053 71.1328 148.9 71.6699 148.596 72.2012C148.291 72.7324 147.721 73.4043 146.885 74.2168L145.01 76.0508V76.0977H149.416V77ZM153.33 71.7676C154.232 71.7676 154.941 71.9922 155.457 72.4414C155.977 72.8867 156.236 73.498 156.236 74.2754C156.236 75.1621 155.953 75.8574 155.387 76.3613C154.824 76.8652 154.047 77.1172 153.055 77.1172C152.09 77.1172 151.354 76.9629 150.846 76.6543V75.7168C151.119 75.8926 151.459 76.0312 151.865 76.1328C152.271 76.2305 152.672 76.2793 153.066 76.2793C153.754 76.2793 154.287 76.1172 154.666 75.793C155.049 75.4688 155.24 75 155.24 74.3867C155.24 73.1914 154.508 72.5938 153.043 72.5938C152.672 72.5938 152.176 72.6504 151.555 72.7637L151.051 72.4414L151.373 68.4336H155.633V69.3301H152.205L151.988 71.9023C152.438 71.8125 152.885 71.7676 153.33 71.7676ZM157.619 73.3379C157.619 71.6543 157.945 70.3965 158.598 69.5645C159.254 68.7285 160.223 68.3105 161.504 68.3105C161.945 68.3105 162.293 68.3477 162.547 68.4219V69.2598C162.246 69.1621 161.902 69.1133 161.516 69.1133C160.598 69.1133 159.896 69.4004 159.412 69.9746C158.928 70.5449 158.662 71.4434 158.615 72.6699H158.686C159.115 71.998 159.795 71.6621 160.725 71.6621C161.494 71.6621 162.1 71.8945 162.541 72.3594C162.986 72.8242 163.209 73.4551 163.209 74.252C163.209 75.1426 162.965 75.8438 162.477 76.3555C161.992 76.8633 161.336 77.1172 160.508 77.1172C159.621 77.1172 158.918 76.7852 158.398 76.1211C157.879 75.4531 157.619 74.5254 157.619 73.3379ZM160.496 76.291C161.051 76.291 161.48 76.1172 161.785 75.7695C162.094 75.418 162.248 74.9121 162.248 74.252C162.248 73.6855 162.105 73.2402 161.82 72.916C161.535 72.5918 161.109 72.4297 160.543 72.4297C160.191 72.4297 159.869 72.502 159.576 72.6465C159.283 72.791 159.049 72.9902 158.873 73.2441C158.701 73.498 158.615 73.7617 158.615 74.0352C158.615 74.4375 158.693 74.8125 158.85 75.1602C159.006 75.5078 159.227 75.7832 159.512 75.9863C159.801 76.1895 160.129 76.291 160.496 76.291Z" fill="black"/>
<path d="M574.961 7.44922C574.961 7.99609 574.807 8.44336 574.498 8.79102C574.193 9.13867 573.76 9.37109 573.197 9.48828V9.53516C573.885 9.62109 574.395 9.83984 574.727 10.1914C575.059 10.543 575.225 11.0039 575.225 11.5742C575.225 12.3906 574.941 13.0195 574.375 13.4609C573.809 13.8984 573.004 14.1172 571.961 14.1172C571.508 14.1172 571.092 14.082 570.713 14.0117C570.338 13.9453 569.973 13.8262 569.617 13.6543V12.7285C569.988 12.9121 570.383 13.0527 570.801 13.1504C571.223 13.2441 571.621 13.291 571.996 13.291C573.477 13.291 574.217 12.7109 574.217 11.5508C574.217 10.5117 573.4 9.99219 571.768 9.99219H570.924V9.1543H571.779C572.447 9.1543 572.977 9.00781 573.367 8.71484C573.758 8.41797 573.953 8.00781 573.953 7.48438C573.953 7.06641 573.809 6.73828 573.52 6.5C573.234 6.26172 572.846 6.14258 572.354 6.14258C571.979 6.14258 571.625 6.19336 571.293 6.29492C570.961 6.39648 570.582 6.58398 570.156 6.85742L569.664 6.20117C570.016 5.92383 570.42 5.70703 570.877 5.55078C571.338 5.39062 571.822 5.31055 572.33 5.31055C573.162 5.31055 573.809 5.50195 574.27 5.88477C574.73 6.26367 574.961 6.78516 574.961 7.44922Z" fill="black"/>
<path d="M581.33 16.0963C581.075 15.7571 580.802 15.5067 580.501 15.3561C580.191 15.2007 579.879 15.1658 579.581 15.2153C579.035 15.3058 578.548 15.6869 578.196 15.9518C577.782 16.2633 577.503 16.4586 577.249 16.5007C577.148 16.5175 577.051 16.5079 576.94 16.4523C576.82 16.3919 576.658 16.2649 576.463 16.0049L575.664 16.6062C575.919 16.9454 576.192 17.1958 576.492 17.3464C576.803 17.5018 577.114 17.5367 577.413 17.4872C577.959 17.3967 578.446 17.0156 578.798 16.7507C579.212 16.4392 579.49 16.2439 579.744 16.2018C579.846 16.185 579.942 16.1946 580.053 16.2502C580.174 16.3105 580.335 16.4376 580.531 16.6976L581.33 16.0963ZM575.204 20.7074C575.008 20.4473 574.93 20.2571 574.906 20.1246C574.883 20.0025 574.901 19.9071 574.945 19.8143C575.056 19.5818 575.32 19.3679 575.734 19.0563C576.086 18.7915 576.587 18.429 576.825 17.9296C576.955 17.6565 577.008 17.3471 576.945 17.006C576.883 16.6753 576.718 16.3441 576.463 16.0049L575.664 16.6062C575.859 16.8663 575.937 17.0565 575.962 17.1889C575.984 17.3111 575.967 17.4065 575.923 17.4993C575.812 17.7318 575.547 17.9457 575.133 18.2573C574.781 18.5221 574.28 18.8846 574.042 19.384C573.912 19.6571 573.859 19.9665 573.923 20.3076C573.984 20.6383 574.149 20.9695 574.405 21.3087L575.204 20.7074Z" fill="black"/>
<path d="M229.688 45.0312H228.416V47H227.484V45.0312H223.318V44.1816L227.385 38.3867H228.416V44.1465H229.688V45.0312ZM227.484 44.1465V41.2988C227.484 40.7402 227.504 40.1094 227.543 39.4062H227.496C227.309 39.7812 227.133 40.0918 226.969 40.3379L224.291 44.1465H227.484Z" fill="black"/>
<path d="M239.118 47.2389C238.768 46.7735 238.362 46.4693 237.898 46.3347C237.438 46.201 236.979 46.2514 236.551 46.3895C235.726 46.6556 234.883 47.2973 234.137 47.859C233.344 48.4558 232.647 48.9725 232.017 49.1757C231.718 49.2723 231.47 49.2842 231.256 49.2219C231.044 49.1605 230.807 49.0103 230.556 48.6767L229.757 49.278C230.107 49.7434 230.513 50.0476 230.977 50.1822C231.437 50.3159 231.896 50.2655 232.324 50.1274C233.149 49.8613 233.992 49.2196 234.738 48.6579C235.531 48.0612 236.228 47.5445 236.858 47.3412C237.157 47.2446 237.405 47.2327 237.619 47.295C237.831 47.3564 238.068 47.5066 238.319 47.8402L239.118 47.2389ZM226.805 56.5063C226.554 56.1727 226.475 55.9031 226.475 55.683C226.474 55.4594 226.554 55.225 226.73 54.964C227.099 54.4147 227.789 53.8885 228.582 53.2917C229.328 52.73 230.178 52.0979 230.662 51.3788C230.913 51.0057 231.088 50.5785 231.087 50.0992C231.086 49.6165 230.906 49.142 230.556 48.6767L229.757 49.278C230.008 49.6117 230.087 49.8812 230.087 50.1014C230.088 50.3249 230.008 50.5594 229.832 50.8204C229.462 51.3696 228.773 51.8959 227.98 52.4927C227.234 53.0543 226.384 53.6865 225.9 54.4056C225.649 54.7787 225.474 55.2059 225.475 55.6852C225.476 56.1678 225.656 56.6423 226.006 57.1077L226.805 56.5063Z" fill="black"/>
<path d="M301.416 28H295.785V27.1621L298.041 24.8945C298.729 24.1992 299.182 23.7031 299.4 23.4062C299.619 23.1094 299.783 22.8203 299.893 22.5391C300.002 22.2578 300.057 21.9551 300.057 21.6309C300.057 21.1738 299.918 20.8125 299.641 20.5469C299.363 20.2773 298.979 20.1426 298.486 20.1426C298.131 20.1426 297.793 20.2012 297.473 20.3184C297.156 20.4355 296.803 20.6484 296.412 20.957L295.896 20.2949C296.686 19.6387 297.545 19.3105 298.475 19.3105C299.279 19.3105 299.91 19.5176 300.367 19.9316C300.824 20.3418 301.053 20.8945 301.053 21.5898C301.053 22.1328 300.9 22.6699 300.596 23.2012C300.291 23.7324 299.721 24.4043 298.885 25.2168L297.01 27.0508V27.0977H301.416V28ZM305.33 22.7676C306.232 22.7676 306.941 22.9922 307.457 23.4414C307.977 23.8867 308.236 24.498 308.236 25.2754C308.236 26.1621 307.953 26.8574 307.387 27.3613C306.824 27.8652 306.047 28.1172 305.055 28.1172C304.09 28.1172 303.354 27.9629 302.846 27.6543V26.7168C303.119 26.8926 303.459 27.0312 303.865 27.1328C304.271 27.2305 304.672 27.2793 305.066 27.2793C305.754 27.2793 306.287 27.1172 306.666 26.793C307.049 26.4688 307.24 26 307.24 25.3867C307.24 24.1914 306.508 23.5938 305.043 23.5938C304.672 23.5938 304.176 23.6504 303.555 23.7637L303.051 23.4414L303.373 19.4336H307.633V20.3301H304.205L303.988 22.9023C304.438 22.8125 304.885 22.7676 305.33 22.7676ZM309.619 24.3379C309.619 22.6543 309.945 21.3965 310.598 20.5645C311.254 19.7285 312.223 19.3105 313.504 19.3105C313.945 19.3105 314.293 19.3477 314.547 19.4219V20.2598C314.246 20.1621 313.902 20.1133 313.516 20.1133C312.598 20.1133 311.896 20.4004 311.412 20.9746C310.928 21.5449 310.662 22.4434 310.615 23.6699H310.686C311.115 22.998 311.795 22.6621 312.725 22.6621C313.494 22.6621 314.1 22.8945 314.541 23.3594C314.986 23.8242 315.209 24.4551 315.209 25.252C315.209 26.1426 314.965 26.8438 314.477 27.3555C313.992 27.8633 313.336 28.1172 312.508 28.1172C311.621 28.1172 310.918 27.7852 310.398 27.1211C309.879 26.4531 309.619 25.5254 309.619 24.3379ZM312.496 27.291C313.051 27.291 313.48 27.1172 313.785 26.7695C314.094 26.418 314.248 25.9121 314.248 25.252C314.248 24.6855 314.105 24.2402 313.82 23.916C313.535 23.5918 313.109 23.4297 312.543 23.4297C312.191 23.4297 311.869 23.502 311.576 23.6465C311.283 23.791 311.049 23.9902 310.873 24.2441C310.701 24.498 310.615 24.7617 310.615 25.0352C310.615 25.4375 310.693 25.8125 310.85 26.1602C311.006 26.5078 311.227 26.7832 311.512 26.9863C311.801 27.1895 312.129 27.291 312.496 27.291Z" fill="black"/>
<path d="M326.471 27.1885C326.046 26.6236 325.437 26.4325 324.787 26.4818C324.166 26.5289 323.48 26.7934 322.783 27.1568C321.385 27.8859 319.744 29.1229 318.152 30.3212C316.536 31.5376 314.968 32.7154 313.66 33.3978C313.003 33.7402 312.461 33.9306 312.042 33.9624C311.652 33.9919 311.409 33.8855 311.233 33.6515L310.434 34.2528C310.859 34.8177 311.468 35.0087 312.118 34.9595C312.739 34.9124 313.425 34.6479 314.122 34.2845C315.52 33.5554 317.161 32.3184 318.753 31.1201C320.369 29.9037 321.937 28.7259 323.245 28.0435C323.902 27.7011 324.444 27.5106 324.863 27.4789C325.253 27.4494 325.496 27.5557 325.672 27.7898L326.471 27.1885ZM300.805 46.5063C300.629 46.2722 300.594 46.0091 300.73 45.6424C300.877 45.2488 301.21 44.7806 301.72 44.2444C302.738 43.1757 304.304 41.9955 305.92 40.7791C307.512 39.5808 309.155 38.3462 310.242 37.2044C310.784 36.6353 311.229 36.0493 311.446 35.4653C311.673 34.8543 311.658 34.2164 311.233 33.6515L310.434 34.2528C310.61 34.4869 310.645 34.7501 310.508 35.1167C310.362 35.5103 310.029 35.9785 309.518 36.5147C308.5 37.5834 306.935 38.7636 305.319 39.9801C303.727 41.1783 302.084 42.4129 300.996 43.5547C300.454 44.1238 300.01 44.7098 299.793 45.2939C299.566 45.9049 299.581 46.5428 300.006 47.1077L300.805 46.5063Z" fill="black"/>
<path d="M419.416 9H413.785V8.16211L416.041 5.89453C416.729 5.19922 417.182 4.70312 417.4 4.40625C417.619 4.10938 417.783 3.82031 417.893 3.53906C418.002 3.25781 418.057 2.95508 418.057 2.63086C418.057 2.17383 417.918 1.8125 417.641 1.54688C417.363 1.27734 416.979 1.14258 416.486 1.14258C416.131 1.14258 415.793 1.20117 415.473 1.31836C415.156 1.43555 414.803 1.64844 414.412 1.95703L413.896 1.29492C414.686 0.638672 415.545 0.310547 416.475 0.310547C417.279 0.310547 417.91 0.517578 418.367 0.931641C418.824 1.3418 419.053 1.89453 419.053 2.58984C419.053 3.13281 418.9 3.66992 418.596 4.20117C418.291 4.73242 417.721 5.4043 416.885 6.2168L415.01 8.05078V8.09766H419.416V9ZM423.33 3.76758C424.232 3.76758 424.941 3.99219 425.457 4.44141C425.977 4.88672 426.236 5.49805 426.236 6.27539C426.236 7.16211 425.953 7.85742 425.387 8.36133C424.824 8.86523 424.047 9.11719 423.055 9.11719C422.09 9.11719 421.354 8.96289 420.846 8.6543V7.7168C421.119 7.89258 421.459 8.03125 421.865 8.13281C422.271 8.23047 422.672 8.2793 423.066 8.2793C423.754 8.2793 424.287 8.11719 424.666 7.79297C425.049 7.46875 425.24 7 425.24 6.38672C425.24 5.19141 424.508 4.59375 423.043 4.59375C422.672 4.59375 422.176 4.65039 421.555 4.76367L421.051 4.44141L421.373 0.433594H425.633V1.33008H422.205L421.988 3.90234C422.438 3.8125 422.885 3.76758 423.33 3.76758ZM427.619 5.33789C427.619 3.6543 427.945 2.39648 428.598 1.56445C429.254 0.728516 430.223 0.310547 431.504 0.310547C431.945 0.310547 432.293 0.347656 432.547 0.421875V1.25977C432.246 1.16211 431.902 1.11328 431.516 1.11328C430.598 1.11328 429.896 1.40039 429.412 1.97461C428.928 2.54492 428.662 3.44336 428.615 4.66992H428.686C429.115 3.99805 429.795 3.66211 430.725 3.66211C431.494 3.66211 432.1 3.89453 432.541 4.35938C432.986 4.82422 433.209 5.45508 433.209 6.25195C433.209 7.14258 432.965 7.84375 432.477 8.35547C431.992 8.86328 431.336 9.11719 430.508 9.11719C429.621 9.11719 428.918 8.78516 428.398 8.12109C427.879 7.45312 427.619 6.52539 427.619 5.33789ZM430.496 8.29102C431.051 8.29102 431.48 8.11719 431.785 7.76953C432.094 7.41797 432.248 6.91211 432.248 6.25195C432.248 5.68555 432.105 5.24023 431.82 4.91602C431.535 4.5918 431.109 4.42969 430.543 4.42969C430.191 4.42969 429.869 4.50195 429.576 4.64648C429.283 4.79102 429.049 4.99023 428.873 5.24414C428.701 5.49805 428.615 5.76172 428.615 6.03516C428.615 6.4375 428.693 6.8125 428.85 7.16016C429.006 7.50781 429.227 7.7832 429.512 7.98633C429.801 8.18945 430.129 8.29102 430.496 8.29102Z" fill="black"/>
<path d="M444.471 8.18846C444.046 7.62356 443.437 7.43254 442.787 7.48178C442.166 7.52885 441.48 7.7934 440.783 8.15679C439.385 8.88591 437.744 10.1229 436.152 11.3212C434.536 12.5376 432.968 13.7154 431.66 14.3978C431.003 14.7402 430.461 14.9306 430.042 14.9624C429.652 14.9919 429.409 14.8855 429.233 14.6515L428.434 15.2528C428.859 15.8177 429.468 16.0087 430.118 15.9595C430.739 15.9124 431.425 15.6479 432.122 15.2845C433.52 14.5554 435.161 13.3184 436.753 12.1201C438.369 10.9037 439.937 9.72591 441.245 9.04347C441.902 8.70108 442.444 8.51064 442.863 8.47892C443.253 8.44937 443.496 8.55574 443.672 8.78982L444.471 8.18846ZM418.805 27.5063C418.629 27.2722 418.594 27.0091 418.73 26.6424C418.877 26.2488 419.21 25.7806 419.72 25.2444C420.738 24.1757 422.304 22.9955 423.92 21.7791C425.512 20.5808 427.155 19.3462 428.242 18.2044C428.784 17.6353 429.229 17.0493 429.446 16.4653C429.673 15.8543 429.658 15.2164 429.233 14.6515L428.434 15.2528C428.61 15.4869 428.645 15.7501 428.508 16.1167C428.362 16.5103 428.029 16.9785 427.518 17.5147C426.5 18.5834 424.935 19.7636 423.319 20.9801C421.727 22.1783 420.084 23.4129 418.996 24.5547C418.454 25.1238 418.01 25.7098 417.793 26.2939C417.566 26.9049 417.581 27.5428 418.006 28.1077L418.805 27.5063Z" fill="black"/>
<path d="M578 24.4366L583.889 20L684 20V120.563L678.111 125H578V24.4366Z" fill="white"/>
<path d="M578 24.4366L583.889 20L684 20M578 24.4366H678.111M578 24.4366V125H678.111M684 20L678.111 24.4366M684 20V120.563L678.111 125M678.111 24.4366V125" stroke="black" stroke-width="2"/>
<path d="M421.5 138C421.5 139.512 422.465 140.587 423.92 141.335C425.365 142.078 427.387 142.556 429.746 142.871C434.474 143.501 440.762 143.5 447 143.5C453.262 143.5 459.474 143.501 464.121 144.121C466.449 144.431 468.333 144.891 469.623 145.554C470.903 146.212 471.5 147.012 471.5 148L472.5 148C472.5 146.488 471.535 145.413 470.08 144.665C468.635 143.922 466.613 143.444 464.254 143.129C459.526 142.499 453.238 142.5 447 142.5C440.738 142.5 434.526 142.499 429.879 141.879C427.551 141.569 425.667 141.109 424.377 140.446C423.097 139.788 422.5 138.988 422.5 138L421.5 138ZM521.5 138C521.5 138.988 520.903 139.788 519.623 140.446C518.333 141.109 516.449 141.569 514.121 141.879C509.474 142.499 503.262 142.5 497 142.5C490.762 142.5 484.474 142.499 479.746 143.129C477.387 143.444 475.365 143.922 473.92 144.665C472.465 145.413 471.5 146.488 471.5 148L472.5 148C472.5 147.012 473.097 146.212 474.377 145.554C475.667 144.891 477.551 144.431 479.879 144.121C484.526 143.501 490.738 143.5 497 143.5C503.238 143.5 509.526 143.501 514.254 142.871C516.613 142.556 518.635 142.078 520.08 141.335C521.535 140.587 522.5 139.512 522.5 138L521.5 138Z" fill="black"/>
<path d="M421.5 138C421.5 139.512 422.465 140.587 423.92 141.335C425.365 142.078 427.387 142.556 429.746 142.871C434.474 143.501 440.762 143.5 447 143.5C453.262 143.5 459.474 143.501 464.121 144.121C466.449 144.431 468.333 144.891 469.623 145.554C470.903 146.212 471.5 147.012 471.5 148L472.5 148C472.5 146.488 471.535 145.413 470.08 144.665C468.635 143.922 466.613 143.444 464.254 143.129C459.526 142.499 453.238 142.5 447 142.5C440.738 142.5 434.526 142.499 429.879 141.879C427.551 141.569 425.667 141.109 424.377 140.446C423.097 139.788 422.5 138.988 422.5 138L421.5 138ZM521.5 138C521.5 138.988 520.903 139.788 519.623 140.446C518.333 141.109 516.449 141.569 514.121 141.879C509.474 142.499 503.262 142.5 497 142.5C490.762 142.5 484.474 142.499 479.746 143.129C477.387 143.444 475.365 143.922 473.92 144.665C472.465 145.413 471.5 146.488 471.5 148L472.5 148C472.5 147.012 473.097 146.212 474.377 145.554C475.667 144.891 477.551 144.431 479.879 144.121C484.526 143.501 490.738 143.5 497 143.5C503.238 143.5 509.526 143.501 514.254 142.871C516.613 142.556 518.635 142.078 520.08 141.335C521.535 140.587 522.5 139.512 522.5 138L521.5 138Z" fill="black"/>
<path d="M471.027 154.449C471.027 154.996 470.873 155.443 470.564 155.791C470.26 156.139 469.826 156.371 469.264 156.488V156.535C469.951 156.621 470.461 156.84 470.793 157.191C471.125 157.543 471.291 158.004 471.291 158.574C471.291 159.391 471.008 160.02 470.441 160.461C469.875 160.898 469.07 161.117 468.027 161.117C467.574 161.117 467.158 161.082 466.779 161.012C466.404 160.945 466.039 160.826 465.684 160.654V159.729C466.055 159.912 466.449 160.053 466.867 160.15C467.289 160.244 467.688 160.291 468.062 160.291C469.543 160.291 470.283 159.711 470.283 158.551C470.283 157.512 469.467 156.992 467.834 156.992H466.99V156.154H467.846C468.514 156.154 469.043 156.008 469.434 155.715C469.824 155.418 470.02 155.008 470.02 154.484C470.02 154.066 469.875 153.738 469.586 153.5C469.301 153.262 468.912 153.143 468.42 153.143C468.045 153.143 467.691 153.193 467.359 153.295C467.027 153.396 466.648 153.584 466.223 153.857L465.73 153.201C466.082 152.924 466.486 152.707 466.943 152.551C467.404 152.391 467.889 152.311 468.396 152.311C469.229 152.311 469.875 152.502 470.336 152.885C470.797 153.264 471.027 153.785 471.027 154.449ZM478.217 161H472.586V160.162L474.842 157.895C475.529 157.199 475.982 156.703 476.201 156.406C476.42 156.109 476.584 155.82 476.693 155.539C476.803 155.258 476.857 154.955 476.857 154.631C476.857 154.174 476.719 153.812 476.441 153.547C476.164 153.277 475.779 153.143 475.287 153.143C474.932 153.143 474.594 153.201 474.273 153.318C473.957 153.436 473.604 153.648 473.213 153.957L472.697 153.295C473.486 152.639 474.346 152.311 475.275 152.311C476.08 152.311 476.711 152.518 477.168 152.932C477.625 153.342 477.854 153.895 477.854 154.59C477.854 155.133 477.701 155.67 477.396 156.201C477.092 156.732 476.521 157.404 475.686 158.217L473.811 160.051V160.098H478.217V161Z" fill="black"/>
<path d="M341 104V76H313V104H341Z" fill="#CEB7FF" stroke="#9462FF"/>
<path d="M322.416 89.0898C322.416 92.4414 321.119 94.1172 318.525 94.1172C318.072 94.1172 317.713 94.0781 317.447 94V93.1621C317.76 93.2637 318.115 93.3145 318.514 93.3145C319.451 93.3145 320.158 93.0254 320.635 92.4473C321.115 91.8652 321.377 90.9746 321.42 89.7754H321.35C321.135 90.0996 320.85 90.3477 320.494 90.5195C320.139 90.6875 319.738 90.7715 319.293 90.7715C318.535 90.7715 317.934 90.5449 317.488 90.0918C317.043 89.6387 316.82 89.0059 316.82 88.1934C316.82 87.3027 317.068 86.5996 317.564 86.084C318.064 85.5684 318.721 85.3105 319.533 85.3105C320.115 85.3105 320.623 85.4609 321.057 85.7617C321.494 86.0586 321.83 86.4941 322.064 87.0684C322.299 87.6387 322.416 88.3125 322.416 89.0898ZM319.533 86.1426C318.975 86.1426 318.543 86.3223 318.238 86.6816C317.934 87.041 317.781 87.541 317.781 88.1816C317.781 88.7441 317.922 89.1875 318.203 89.5117C318.484 89.832 318.912 89.9922 319.486 89.9922C319.842 89.9922 320.168 89.9199 320.465 89.7754C320.766 89.6309 321.002 89.4336 321.174 89.1836C321.346 88.9336 321.432 88.6719 321.432 88.3984C321.432 87.9883 321.352 87.6094 321.191 87.2617C321.031 86.9141 320.807 86.6406 320.518 86.4414C320.232 86.2422 319.904 86.1426 319.533 86.1426ZM328.574 87.1094L329.137 87.6895L327.074 89.7637L329.125 91.8262L328.562 92.4062L326.488 90.3496L324.449 92.4062L323.857 91.8262L325.908 89.7637L323.846 87.7012L324.432 87.1094L326.5 89.1895L328.574 87.1094ZM336.15 89.0898C336.15 92.4414 334.854 94.1172 332.26 94.1172C331.807 94.1172 331.447 94.0781 331.182 94V93.1621C331.494 93.2637 331.85 93.3145 332.248 93.3145C333.186 93.3145 333.893 93.0254 334.369 92.4473C334.85 91.8652 335.111 90.9746 335.154 89.7754H335.084C334.869 90.0996 334.584 90.3477 334.229 90.5195C333.873 90.6875 333.473 90.7715 333.027 90.7715C332.27 90.7715 331.668 90.5449 331.223 90.0918C330.777 89.6387 330.555 89.0059 330.555 88.1934C330.555 87.3027 330.803 86.5996 331.299 86.084C331.799 85.5684 332.455 85.3105 333.268 85.3105C333.85 85.3105 334.357 85.4609 334.791 85.7617C335.229 86.0586 335.564 86.4941 335.799 87.0684C336.033 87.6387 336.15 88.3125 336.15 89.0898ZM333.268 86.1426C332.709 86.1426 332.277 86.3223 331.973 86.6816C331.668 87.041 331.516 87.541 331.516 88.1816C331.516 88.7441 331.656 89.1875 331.938 89.5117C332.219 89.832 332.646 89.9922 333.221 89.9922C333.576 89.9922 333.902 89.9199 334.199 89.7754C334.5 89.6309 334.736 89.4336 334.908 89.1836C335.08 88.9336 335.166 88.6719 335.166 88.3984C335.166 87.9883 335.086 87.6094 334.926 87.2617C334.766 86.9141 334.541 86.6406 334.252 86.4414C333.967 86.2422 333.639 86.1426 333.268 86.1426Z" fill="black"/>
<rect x="28" y="48" width="80" height="50" fill="white" stroke="#32ACF1" stroke-width="2"/>
<rect x="189" y="26" width="94" height="10" transform="rotate(90 189 26)" fill="white" stroke="black" stroke-width="2"/>
<path d="M219.354 72.3536C219.549 72.1583 219.549 71.8417 219.354 71.6464L216.172 68.4645C215.976 68.2692 215.66 68.2692 215.464 68.4645C215.269 68.6597 215.269 68.9763 215.464 69.1716L218.293 72L215.464 74.8284C215.269 75.0237 215.269 75.3403 215.464 75.5355C215.66 75.7308 215.976 75.7308 216.172 75.5355L219.354 72.3536ZM199 72.5H219V71.5H199V72.5Z" fill="black"/>
<path d="M256 88H248V80L260 71H268V79L256 88Z" fill="#CEB7FF"/>
<path d="M248 80V88H256M248 80H256M248 80L260 71H268M256 80V88M256 80L268 71M256 88L268 79V71" stroke="#9462FF"/>
<path d="M229 60L241 51H274M229 60H262.056M229 60V94H262.056M274 51L262.056 60M274 51V85L262.056 94M262.056 60V94" stroke="black" stroke-width="2"/>
<line x1="178.735" y1="120.265" x2="107.735" y2="49.2652" stroke="black" stroke-width="0.75" stroke-dasharray="2 3"/>
<line x1="327.969" y1="76.3737" x2="267.969" y2="71.3737" stroke="black" stroke-width="0.75" stroke-dasharray="2 3"/>
<line x1="256.082" y1="87.6342" x2="327.082" y2="103.634" stroke="black" stroke-width="0.75" stroke-dasharray="2 3"/>
<path d="M463 113V85H435V113H463Z" fill="#CEB7FF" stroke="#9462FF"/>
<path d="M444.416 98.0898C444.416 101.441 443.119 103.117 440.525 103.117C440.072 103.117 439.713 103.078 439.447 103V102.162C439.76 102.264 440.115 102.314 440.514 102.314C441.451 102.314 442.158 102.025 442.635 101.447C443.115 100.865 443.377 99.9746 443.42 98.7754H443.35C443.135 99.0996 442.85 99.3477 442.494 99.5195C442.139 99.6875 441.738 99.7715 441.293 99.7715C440.535 99.7715 439.934 99.5449 439.488 99.0918C439.043 98.6387 438.82 98.0059 438.82 97.1934C438.82 96.3027 439.068 95.5996 439.564 95.084C440.064 94.5684 440.721 94.3105 441.533 94.3105C442.115 94.3105 442.623 94.4609 443.057 94.7617C443.494 95.0586 443.83 95.4941 444.064 96.0684C444.299 96.6387 444.416 97.3125 444.416 98.0898ZM441.533 95.1426C440.975 95.1426 440.543 95.3223 440.238 95.6816C439.934 96.041 439.781 96.541 439.781 97.1816C439.781 97.7441 439.922 98.1875 440.203 98.5117C440.484 98.832 440.912 98.9922 441.486 98.9922C441.842 98.9922 442.168 98.9199 442.465 98.7754C442.766 98.6309 443.002 98.4336 443.174 98.1836C443.346 97.9336 443.432 97.6719 443.432 97.3984C443.432 96.9883 443.352 96.6094 443.191 96.2617C443.031 95.9141 442.807 95.6406 442.518 95.4414C442.232 95.2422 441.904 95.1426 441.533 95.1426ZM450.574 96.1094L451.137 96.6895L449.074 98.7637L451.125 100.826L450.562 101.406L448.488 99.3496L446.449 101.406L445.857 100.826L447.908 98.7637L445.846 96.7012L446.432 96.1094L448.5 98.1895L450.574 96.1094ZM458.15 98.0898C458.15 101.441 456.854 103.117 454.26 103.117C453.807 103.117 453.447 103.078 453.182 103V102.162C453.494 102.264 453.85 102.314 454.248 102.314C455.186 102.314 455.893 102.025 456.369 101.447C456.85 100.865 457.111 99.9746 457.154 98.7754H457.084C456.869 99.0996 456.584 99.3477 456.229 99.5195C455.873 99.6875 455.473 99.7715 455.027 99.7715C454.27 99.7715 453.668 99.5449 453.223 99.0918C452.777 98.6387 452.555 98.0059 452.555 97.1934C452.555 96.3027 452.803 95.5996 453.299 95.084C453.799 94.5684 454.455 94.3105 455.268 94.3105C455.85 94.3105 456.357 94.4609 456.791 94.7617C457.229 95.0586 457.564 95.4941 457.799 96.0684C458.033 96.6387 458.15 97.3125 458.15 98.0898ZM455.268 95.1426C454.709 95.1426 454.277 95.3223 453.973 95.6816C453.668 96.041 453.516 96.541 453.516 97.1816C453.516 97.7441 453.656 98.1875 453.938 98.5117C454.219 98.832 454.646 98.9922 455.221 98.9922C455.576 98.9922 455.902 98.9199 456.199 98.7754C456.5 98.6309 456.736 98.4336 456.908 98.1836C457.08 97.9336 457.166 97.6719 457.166 97.3984C457.166 96.9883 457.086 96.6094 456.926 96.2617C456.766 95.9141 456.541 95.6406 456.252 95.4414C455.967 95.2422 455.639 95.1426 455.268 95.1426Z" fill="black"/>
<path d="M360 77H352V69L378 50H386V57L360 77Z" fill="#CEB7FF"/>
<path d="M352 69V77H360M352 69H360M352 69L378 50H386M360 69V77M360 69L386 50M360 77L386 57V50" stroke="#9462FF"/>
<line x1="448.818" y1="85.3278" x2="385.818" y2="50.3278" stroke="black" stroke-width="0.75" stroke-dasharray="2 3"/>
<line x1="360.141" y1="76.6524" x2="449.141" y2="112.652" stroke="black" stroke-width="0.75" stroke-dasharray="2 3"/>
<path d="M507 63H499V55L525 36H533V43L507 63Z" fill="#CEB7FF"/>
<path d="M499 55V63H507M499 55H507M499 55L525 36H533M507 55V63M507 55L533 36M507 63L533 43V36" stroke="#9462FF"/>
<path d="M422 32.4364L447.889 13L548 13M422 32.4364H522.111M422 32.4364V133H522.111M548 13L522.111 32.4364M548 13V114L522.111 133M522.111 32.4364V133" stroke="black" stroke-width="2"/>
<line x1="596.784" y1="81.3068" x2="532.784" y2="36.3068" stroke="black" stroke-width="0.75" stroke-dasharray="2 3"/>
<line x1="507.104" y1="62.6397" x2="597.104" y2="88.6397" stroke="black" stroke-width="0.75" stroke-dasharray="2 3"/>
<path d="M304 51.5238L329.882 32H392M304 51.5238H366.118M304 51.5238V114H366.118M392 32L366.118 51.5238M392 32V94L366.118 114M366.118 51.5238V114" stroke="black" stroke-width="2"/>
<line x1="107.735" y1="98.7348" x2="178.735" y2="27.7348" stroke="black" stroke-width="0.75" stroke-dasharray="2 3"/>
<path d="M601 89V81H593V89H601Z" fill="#CEB7FF" stroke="#9462FF"/>
</svg>
