<svg width="816" height="351" viewBox="0 0 816 351" fill="none" xmlns="http://www.w3.org/2000/svg">
<path d="M25 35.5C23.836 35.5 22.8825 36.1905 22.1143 37.2918C21.3487 38.3895 20.7152 39.9623 20.1819 41.9047C19.1136 45.7962 18.408 51.3251 17.9388 57.9176C16.9997 71.1112 17 88.6941 17 106.25C17 123.819 16.9997 141.361 16.0638 154.511C15.5955 161.091 14.8948 166.538 13.8538 170.331C13.3323 172.23 12.7354 173.676 12.0655 174.636C11.3981 175.593 10.711 176 10 176L10 177C11.164 177 12.1175 176.31 12.8857 175.208C13.6513 174.111 14.2848 172.538 14.8181 170.595C15.8864 166.704 16.592 161.175 17.0612 154.582C18.0003 141.389 18 123.806 18 106.25C18 88.6809 18.0003 71.1388 18.9362 57.9886C19.4045 51.4093 20.1052 45.9617 21.1462 42.1695C21.6677 40.2701 22.2646 38.8244 22.9345 37.8639C23.6019 36.9072 24.289 36.5 25 36.5V35.5ZM25 316.5C24.289 316.5 23.6019 316.093 22.9345 315.136C22.2646 314.176 21.6677 312.73 21.1462 310.831C20.1052 307.038 19.4045 301.591 18.9362 295.011C18.0003 281.861 18 264.319 18 246.75C18 229.194 18.0003 211.611 17.0612 198.418C16.592 191.825 15.8864 186.296 14.8181 182.405C14.2848 180.462 13.6513 178.889 12.8857 177.792C12.1175 176.69 11.164 176 10 176L10 177C10.711 177 11.3981 177.407 12.0655 178.364C12.7354 179.324 13.3323 180.77 13.8538 182.669C14.8948 186.462 15.5955 191.909 16.0638 198.489C16.9997 211.639 17 229.181 17 246.75C17 264.306 16.9997 281.889 17.9388 295.082C18.408 301.675 19.1136 307.204 20.1819 311.095C20.7152 313.038 21.3487 314.611 22.1143 315.708C22.8825 316.809 23.836 317.5 25 317.5V316.5Z" fill="black"/>
<path d="M5 179.477C5 179.394 4.92187 179.328 4.80469 179.328C4.6289 179.328 4.60938 179.378 4.51172 179.658C4.00391 181.159 3.20313 181.67 2.55859 181.67C2.32422 181.67 2.05078 181.621 2.05078 181.126C2.05078 180.681 2.28516 180.186 2.5 179.691L3.86719 176.624C3.92578 176.492 4.0625 176.195 4.0625 175.882C4.0625 175.189 3.47656 174.562 2.51953 174.562C0.722655 174.562 0 176.954 0 177.085C0 177.151 0.0781256 177.234 0.214844 177.234C0.390624 177.234 0.410158 177.168 0.488284 176.937C0.957034 175.552 1.69921 174.892 2.46094 174.892C2.63672 174.892 2.96875 174.909 2.96875 175.436C2.96875 175.865 2.71484 176.409 2.55859 176.772L1.19141 179.84C1.07422 180.103 0.957034 180.367 0.957034 180.664C0.957034 181.406 1.5625 182 2.5 182C4.29687 182 5 179.592 5 179.477ZM4.84375 171.544C4.84375 171.297 4.60938 171 4.17969 171C3.73047 171 3.22265 171.363 3.22265 171.792C3.22265 172.204 3.63281 172.336 3.86719 172.336C4.39453 172.336 4.84375 171.907 4.84375 171.544Z" fill="black"/>
<path d="M59.4827 9.7816C59.0002 9.14064 58.3397 8.87178 57.6029 8.8822C56.8974 8.89218 56.1281 9.15576 55.35 9.5393C53.7926 10.307 51.9936 11.6635 50.25 12.9758C48.479 14.3087 46.7636 15.5974 45.3092 16.3143C44.5814 16.673 43.9705 16.8616 43.4844 16.8684C43.0296 16.8749 42.687 16.7253 42.4177 16.3676L41.6187 16.9689C42.1012 17.6099 42.7617 17.8788 43.4985 17.8683C44.204 17.8584 44.9733 17.5948 45.7513 17.2112C47.3088 16.4436 49.1078 15.0871 50.8514 13.7748C52.6224 12.4418 54.3378 11.1531 55.7922 10.4362C56.52 10.0775 57.1309 9.88898 57.617 9.8821C58.0718 9.87567 58.4144 10.0252 58.6837 10.383L59.4827 9.7816ZM31.3664 30.9434C31.0971 30.5856 31.0482 30.215 31.1802 29.7798C31.3214 29.3145 31.6716 28.7796 32.2178 28.1796C33.3091 26.9804 35.0223 25.6886 36.7932 24.3557C38.5368 23.0434 40.3382 21.69 41.5069 20.4058C42.0908 19.7643 42.557 19.098 42.7618 18.4228C42.9757 17.7177 42.9002 17.0086 42.4177 16.3676L41.6187 16.9689C41.888 17.3267 41.9369 17.6973 41.8049 18.1325C41.6637 18.5978 41.3135 19.1327 40.7673 19.7328C39.676 20.9319 37.9628 22.2237 36.1919 23.5567C34.4483 24.869 32.6469 26.2223 31.4782 27.5065C30.8943 28.148 30.4281 28.8143 30.2233 29.4895C30.0094 30.1947 30.0849 30.9038 30.5674 31.5447L31.3664 30.9434Z" fill="black"/>
<path d="M39.0391 12.5562C39.0391 12.4886 38.9851 12.4346 38.904 12.4346C38.7824 12.4346 38.7689 12.4751 38.7014 12.7048C38.3501 13.9343 37.7962 14.3531 37.3503 14.3531C37.1882 14.3531 36.999 14.3126 36.999 13.9073C36.999 13.5425 37.1611 13.1372 37.3098 12.7318L38.2555 10.2188C38.296 10.1107 38.3906 9.86755 38.3906 9.61084C38.3906 9.04339 37.9853 8.52998 37.3233 8.52998C36.0803 8.52998 35.5804 10.489 35.5804 10.5971C35.5804 10.6512 35.6344 10.7187 35.729 10.7187C35.8506 10.7187 35.8641 10.6647 35.9182 10.4755C36.2424 9.34063 36.7558 8.8002 37.2827 8.8002C37.4043 8.8002 37.634 8.8137 37.634 9.24605C37.634 9.59733 37.4584 10.0432 37.3503 10.3404L36.4045 12.8534C36.3235 13.0696 36.2424 13.2858 36.2424 13.529C36.2424 14.137 36.6612 14.6233 37.3098 14.6233C38.5528 14.6233 39.0391 12.6508 39.0391 12.5562ZM38.9311 6.05751C38.9311 5.85481 38.7689 5.61163 38.4717 5.61163C38.1609 5.61163 37.8097 5.90889 37.8097 6.26015C37.8097 6.59794 38.0934 6.70603 38.2555 6.70603C38.6203 6.70603 38.9311 6.35477 38.9311 6.05751Z" fill="black"/>
<path d="M34.5042 0.405208C34.5204 0.340344 34.5528 0.243112 34.5528 0.162097C34.5528 9.74355e-09 34.3907 0 34.3583 0C34.3421 0 33.548 0.064799 33.4669 0.0810152C33.1913 0.0972314 32.9482 0.129665 32.6565 0.145881C32.2513 0.178248 32.1379 0.194464 32.1379 0.486225C32.1379 0.648321 32.2675 0.648321 32.4944 0.648321C33.2886 0.648321 33.3048 0.794201 33.3048 0.956232C33.3048 1.05346 33.2724 1.18313 33.2562 1.23178L32.2675 5.17025C32.0892 4.74885 31.6516 4.10054 30.8088 4.10054C28.9773 4.10054 27 6.46688 27 8.86562C27 10.4702 27.94 11.4102 29.0422 11.4102C29.9336 11.4102 30.6954 10.7133 31.1492 10.1784C31.3113 11.1347 32.073 11.4102 32.5593 11.4102C33.0455 11.4102 33.4344 11.1185 33.7262 10.535C33.9855 9.98395 34.2124 8.99528 34.2124 8.93045C34.2124 8.84941 34.1476 8.78458 34.0504 8.78458C33.9045 8.78458 33.8883 8.86562 33.8234 9.10874C33.5803 10.065 33.2724 11.0861 32.6079 11.0861C32.1379 11.0861 32.1054 10.6647 32.1054 10.3405C32.1054 10.2757 32.1054 9.93533 32.2189 9.48151L34.5042 0.405208ZM31.2302 9.31943C31.1492 9.59497 31.1492 9.62738 30.9223 9.93533C30.5657 10.3891 29.8526 11.0861 29.0908 11.0861C28.4263 11.0861 28.0535 10.4864 28.0535 9.53013C28.0535 8.63871 28.5559 6.82344 28.8639 6.14272C29.4149 5.00818 30.1767 4.42473 30.8088 4.42473C31.8785 4.42473 32.0892 5.75374 32.0892 5.8834C32.0892 5.8996 32.0406 6.1103 32.0244 6.14272L31.2302 9.31943Z" fill="black"/>
<path d="M81.0406 337.13V337.827C82.0455 337.827 82.1589 337.827 82.1589 338.459V341.635C82.1589 342.867 81.4296 343.856 80.1654 343.856C78.9498 343.856 78.885 343.451 78.885 342.559V337L76 337.13V337.827C77.0049 337.827 77.1183 337.827 77.1183 338.459V342.3C77.1183 343.921 78.2043 344.391 79.9385 344.391C80.3275 344.391 81.5268 344.391 82.2238 343.078H82.24V344.391L85.0439 344.293V343.597C84.039 343.597 83.9256 343.597 83.9256 342.964V337L81.0406 337.13Z" fill="black"/>
<path d="M89.2348 345.636C89.2348 345.569 89.1807 345.515 89.0997 345.515C88.9781 345.515 88.9646 345.555 88.897 345.785C88.5457 347.014 87.9918 347.433 87.5459 347.433C87.3838 347.433 87.1947 347.393 87.1947 346.987C87.1947 346.623 87.3568 346.217 87.5054 345.812L88.4512 343.299C88.4917 343.191 88.5863 342.948 88.5863 342.691C88.5863 342.124 88.181 341.61 87.5189 341.61C86.2759 341.61 85.776 343.569 85.776 343.677C85.776 343.731 85.8301 343.799 85.9247 343.799C86.0462 343.799 86.0598 343.745 86.1138 343.556C86.4381 342.421 86.9515 341.88 87.4784 341.88C87.6 341.88 87.8297 341.894 87.8297 342.326C87.8297 342.677 87.654 343.123 87.5459 343.421L86.6002 345.934C86.5191 346.15 86.4381 346.366 86.4381 346.609C86.4381 347.217 86.8569 347.703 87.5054 347.703C88.7484 347.703 89.2348 345.731 89.2348 345.636ZM89.1267 339.138C89.1267 338.935 88.9646 338.692 88.6673 338.692C88.3566 338.692 88.0053 338.989 88.0053 339.34C88.0053 339.678 88.289 339.786 88.4512 339.786C88.816 339.786 89.1267 339.435 89.1267 339.138Z" fill="black"/>
<circle cx="83" cy="205" r="2" fill="black"/>
<circle cx="83" cy="213" r="2" fill="black"/>
<circle cx="83" cy="221" r="2" fill="black"/>
<path d="M35 36.1905L63.2353 15H131V82.8095L102.765 104H35V36.1905Z" fill="white"/>
<path d="M35 36.1905L63.2353 15H131M35 36.1905H102.765M35 36.1905V104H102.765M131 15L102.765 36.1905M131 15V82.8095L102.765 104M102.765 36.1905V104" stroke="black" stroke-width="2"/>
<path d="M35 130.19L63.2353 109H131V176.81L102.765 198H35V130.19Z" fill="white"/>
<path d="M35 130.19L63.2353 109H131M35 130.19H102.765M35 130.19V198H102.765M131 109L102.765 130.19M131 109V176.81L102.765 198M102.765 130.19V198" stroke="black" stroke-width="2"/>
<path d="M35 249.19L63.2353 228H131V295.81L102.765 317H35V249.19Z" fill="white"/>
<path d="M35 249.19L63.2353 228H131M35 249.19H102.765M35 249.19V317H102.765M131 228L102.765 249.19M131 228V295.81L102.765 317M102.765 249.19V317" stroke="black" stroke-width="2"/>
<path d="M305.307 11.2922C304.647 10.4161 303.685 10.1399 302.615 10.2501C301.569 10.3577 300.372 10.8332 299.104 11.5095C296.563 12.8652 293.547 15.1368 290.577 17.3719C287.585 19.6242 284.639 21.8401 282.182 23.151C280.95 23.8079 279.89 24.2104 279.039 24.298C278.214 24.3829 277.641 24.1713 277.248 23.6492L276.449 24.2506C277.109 25.1267 278.071 25.4029 279.142 25.2927C280.187 25.1851 281.385 24.7096 282.652 24.0333C285.193 22.6776 288.209 20.406 291.179 18.1709C294.171 15.9186 297.118 13.7027 299.575 12.3918C300.806 11.7349 301.866 11.3324 302.717 11.2448C303.542 11.1599 304.115 11.3715 304.508 11.8936L305.307 11.2922ZM257.609 47.192C257.216 46.6699 257.171 46.0612 257.481 45.2916C257.801 44.4982 258.481 43.5908 259.453 42.5894C261.393 40.5912 264.337 38.3732 267.33 36.1208C270.3 33.8857 273.317 31.6162 275.323 29.5497C276.324 28.5187 277.112 27.4995 277.505 26.5247C277.907 25.5263 277.908 24.5254 277.248 23.6492L276.449 24.2506C276.842 24.7727 276.887 25.3814 276.577 26.1511C276.258 26.9444 275.577 27.8519 274.605 28.8532C272.666 30.8514 269.721 33.0695 266.729 35.3218C263.759 37.557 260.741 39.8264 258.735 41.8929C257.735 42.9239 256.946 43.9431 256.554 44.9179C256.151 45.9164 256.151 46.9173 256.81 47.7934L257.609 47.192Z" fill="black"/>
<path d="M272.944 17.2053C272.998 16.9891 272.998 16.8 272.998 16.746C272.998 15.9623 272.417 15.53 271.809 15.53C270.445 15.53 269.715 17.5026 269.715 17.5971C269.715 17.6647 269.769 17.7187 269.85 17.7187C269.958 17.7187 269.972 17.6647 270.04 17.5296C270.58 16.219 271.256 15.8002 271.769 15.8002C272.053 15.8002 272.201 15.9488 272.201 16.4217C272.201 16.746 272.161 16.8811 272.107 17.1243L270.823 22.2178C270.566 23.2176 269.931 23.9742 269.188 23.9742C269.134 23.9742 268.851 23.9742 268.594 23.8391C268.918 23.7716 269.175 23.5149 269.175 23.1906C269.175 22.9744 269.013 22.7583 268.715 22.7583C268.364 22.7583 268.04 23.0555 268.04 23.4608C268.04 24.0148 268.634 24.2444 269.188 24.2444C270.121 24.2444 271.35 23.5554 271.688 22.2043L272.944 17.2053ZM273.498 13.0575C273.498 12.7197 273.215 12.6116 273.052 12.6116C272.688 12.6116 272.377 12.9629 272.377 13.2602C272.377 13.4629 272.539 13.706 272.836 13.706C273.147 13.706 273.498 13.4088 273.498 13.0575Z" fill="black"/>
<path d="M267.504 7.40521C267.52 7.34034 267.553 7.24311 267.553 7.1621C267.553 7 267.391 7 267.358 7C267.342 7 266.548 7.0648 266.467 7.08102C266.191 7.09723 265.948 7.12966 265.656 7.14588C265.251 7.17825 265.138 7.19446 265.138 7.48622C265.138 7.64832 265.268 7.64832 265.494 7.64832C266.289 7.64832 266.305 7.7942 266.305 7.95623C266.305 8.05346 266.272 8.18313 266.256 8.23178L265.268 12.1703C265.089 11.7489 264.652 11.1005 263.809 11.1005C261.977 11.1005 260 13.4669 260 15.8656C260 17.4702 260.94 18.4102 262.042 18.4102C262.934 18.4102 263.695 17.7133 264.149 17.1784C264.311 18.1347 265.073 18.4102 265.559 18.4102C266.045 18.4102 266.434 18.1185 266.726 17.535C266.986 16.984 267.212 15.9953 267.212 15.9304C267.212 15.8494 267.148 15.7846 267.05 15.7846C266.905 15.7846 266.888 15.8656 266.823 16.1087C266.58 17.065 266.272 18.0861 265.608 18.0861C265.138 18.0861 265.105 17.6647 265.105 17.3405C265.105 17.2757 265.105 16.9353 265.219 16.4815L267.504 7.40521ZM264.23 16.3194C264.149 16.595 264.149 16.6274 263.922 16.9353C263.566 17.3891 262.853 18.0861 262.091 18.0861C261.426 18.0861 261.054 17.4864 261.054 16.5301C261.054 15.6387 261.556 13.8234 261.864 13.1427C262.415 12.0082 263.177 11.4247 263.809 11.4247C264.879 11.4247 265.089 12.7537 265.089 12.8834C265.089 12.8996 265.041 13.1103 265.024 13.1427L264.23 16.3194Z" fill="black"/>
<path d="M246.354 59.3536C246.549 59.1583 246.549 58.8417 246.354 58.6464L243.172 55.4645C242.976 55.2692 242.66 55.2692 242.464 55.4645C242.269 55.6597 242.269 55.9763 242.464 56.1716L245.293 59L242.464 61.8284C242.269 62.0237 242.269 62.3403 242.464 62.5355C242.66 62.7308 242.976 62.7308 243.172 62.5355L246.354 59.3536ZM146 59.5H246V58.5H146V59.5Z" fill="black"/>
<path d="M246.354 153.354C246.549 153.158 246.549 152.842 246.354 152.646L243.172 149.464C242.976 149.269 242.66 149.269 242.464 149.464C242.269 149.66 242.269 149.976 242.464 150.172L245.293 153L242.464 155.828C242.269 156.024 242.269 156.34 242.464 156.536C242.66 156.731 242.976 156.731 243.172 156.536L246.354 153.354ZM146 153.5H246V152.5H146V153.5Z" fill="black"/>
<path d="M246.354 272.354C246.549 272.158 246.549 271.842 246.354 271.646L243.172 268.464C242.976 268.269 242.66 268.269 242.464 268.464C242.269 268.66 242.269 268.976 242.464 269.172L245.293 272L242.464 274.828C242.269 275.024 242.269 275.34 242.464 275.536C242.66 275.731 242.976 275.731 243.172 275.536L246.354 272.354ZM146 272.5H246V271.5H146V272.5Z" fill="black"/>
<path d="M198.51 252.08C198.623 251.79 198.655 251.693 200.01 251.693V251C199.203 251.032 199.171 251.032 198.252 251.032C197.784 251.032 196.608 251.032 196.221 251V251.693C196.414 251.693 197.833 251.693 197.833 251.919C197.833 251.935 197.833 251.967 197.768 252.112L195.06 259.303L192.174 251.693H193.705V251C193.189 251.032 191.69 251.032 191.077 251.032C190.577 251.032 189.014 251.032 188.627 251V251.693H189.981L190.642 253.435L188.433 259.303L185.563 251.693H187.079V251C186.611 251.032 185.031 251.032 184.451 251.032C183.935 251.032 182.403 251.032 182 251V251.693H183.354L187.192 261.819C187.288 262.093 187.337 262.206 187.691 262.206C188.046 262.206 188.095 262.093 188.191 261.835L190.997 254.402L193.818 261.835C193.915 262.093 193.963 262.206 194.318 262.206C194.624 262.206 194.705 262.141 194.818 261.835L198.51 252.08Z" fill="black"/>
<path d="M204.115 263.396C204.115 263.329 204.061 263.275 203.98 263.275C203.859 263.275 203.846 263.316 203.779 263.544C203.429 264.767 202.878 265.184 202.434 265.184C202.273 265.184 202.085 265.143 202.085 264.74C202.085 264.377 202.246 263.974 202.394 263.571L203.335 261.071C203.375 260.964 203.469 260.722 203.469 260.466C203.469 259.902 203.066 259.391 202.408 259.391C201.171 259.391 200.674 261.34 200.674 261.447C200.674 261.501 200.728 261.568 200.822 261.568C200.943 261.568 200.956 261.515 201.01 261.326C201.332 260.197 201.843 259.66 202.367 259.66C202.488 259.66 202.717 259.673 202.717 260.103C202.717 260.453 202.542 260.896 202.434 261.192L201.494 263.692C201.413 263.907 201.332 264.122 201.332 264.364C201.332 264.969 201.749 265.453 202.394 265.453C203.631 265.453 204.115 263.49 204.115 263.396ZM204.007 256.932C204.007 256.73 203.846 256.488 203.55 256.488C203.241 256.488 202.891 256.784 202.891 257.133C202.891 257.469 203.174 257.577 203.335 257.577C203.698 257.577 204.007 257.227 204.007 256.932Z" fill="black"/>
<path d="M209.488 261.058C209.541 260.843 209.541 260.654 209.541 260.601C209.541 259.821 208.963 259.391 208.359 259.391C207.001 259.391 206.275 261.353 206.275 261.447C206.275 261.515 206.329 261.568 206.41 261.568C206.517 261.568 206.531 261.515 206.598 261.38C207.136 260.077 207.808 259.66 208.318 259.66C208.601 259.66 208.748 259.808 208.748 260.278C208.748 260.601 208.708 260.735 208.654 260.977L207.378 266.044C207.122 267.039 206.49 267.791 205.751 267.791C205.698 267.791 205.415 267.791 205.16 267.657C205.482 267.59 205.738 267.334 205.738 267.012C205.738 266.797 205.577 266.582 205.281 266.582C204.931 266.582 204.609 266.877 204.609 267.28C204.609 267.832 205.2 268.06 205.751 268.06C206.679 268.06 207.902 267.375 208.238 266.031L209.488 261.058ZM210.039 256.932C210.039 256.595 209.756 256.488 209.595 256.488C209.232 256.488 208.923 256.837 208.923 257.133C208.923 257.335 209.084 257.577 209.38 257.577C209.689 257.577 210.039 257.281 210.039 256.932Z" fill="black"/>
<path d="M197.51 133.08C197.623 132.79 197.655 132.693 199.01 132.693V132C198.203 132.032 198.171 132.032 197.252 132.032C196.784 132.032 195.608 132.032 195.221 132V132.693C195.414 132.693 196.833 132.693 196.833 132.919C196.833 132.935 196.833 132.967 196.768 133.112L194.06 140.303L191.174 132.693H192.705V132C192.189 132.032 190.69 132.032 190.077 132.032C189.577 132.032 188.014 132.032 187.627 132V132.693H188.981L189.642 134.435L187.433 140.303L184.563 132.693H186.079V132C185.611 132.032 184.031 132.032 183.451 132.032C182.935 132.032 181.403 132.032 181 132V132.693H182.354L186.192 142.819C186.288 143.093 186.337 143.206 186.691 143.206C187.046 143.206 187.095 143.093 187.191 142.835L189.997 135.402L192.818 142.835C192.915 143.093 192.963 143.206 193.318 143.206C193.624 143.206 193.705 143.141 193.818 142.835L197.51 133.08Z" fill="black"/>
<path d="M204.915 144.235H204.674C204.539 145.189 204.432 145.351 204.378 145.431C204.311 145.539 203.343 145.539 203.155 145.539H200.574C201.058 145.015 201.999 144.06 203.141 142.958C203.961 142.179 204.915 141.265 204.915 139.934C204.915 138.348 203.652 137.434 202.241 137.434C200.762 137.434 199.862 138.738 199.862 139.948C199.862 140.472 200.252 140.539 200.413 140.539C200.547 140.539 200.951 140.458 200.951 139.988C200.951 139.571 200.601 139.45 200.413 139.45C200.332 139.45 200.252 139.464 200.198 139.491C200.453 138.348 201.233 137.784 202.053 137.784C203.222 137.784 203.988 138.711 203.988 139.934C203.988 141.103 203.303 142.111 202.537 142.985L199.862 146.009V146.318H204.593L204.915 144.235Z" fill="black"/>
<path d="M210.156 142.058C210.21 141.843 210.21 141.654 210.21 141.601C210.21 140.821 209.632 140.391 209.027 140.391C207.669 140.391 206.944 142.353 206.944 142.447C206.944 142.515 206.997 142.568 207.078 142.568C207.186 142.568 207.199 142.515 207.266 142.38C207.804 141.077 208.476 140.66 208.987 140.66C209.269 140.66 209.417 140.808 209.417 141.278C209.417 141.601 209.376 141.735 209.323 141.977L208.046 147.044C207.79 148.039 207.159 148.791 206.42 148.791C206.366 148.791 206.084 148.791 205.828 148.657C206.151 148.59 206.406 148.334 206.406 148.012C206.406 147.797 206.245 147.582 205.949 147.582C205.6 147.582 205.277 147.877 205.277 148.28C205.277 148.832 205.868 149.06 206.42 149.06C207.347 149.06 208.57 148.375 208.906 147.031L210.156 142.058ZM210.707 137.932C210.707 137.595 210.425 137.488 210.263 137.488C209.901 137.488 209.591 137.837 209.591 138.133C209.591 138.335 209.753 138.577 210.048 138.577C210.358 138.577 210.707 138.281 210.707 137.932Z" fill="black"/>
<path d="M197.51 39.0802C197.623 38.79 197.655 38.6933 199.01 38.6933V38C198.203 38.0323 198.171 38.0323 197.252 38.0323C196.784 38.0323 195.608 38.0323 195.221 38V38.6933C195.414 38.6933 196.833 38.6933 196.833 38.919C196.833 38.9351 196.833 38.9674 196.768 39.1125L194.06 46.3034L191.174 38.6933H192.705V38C192.189 38.0323 190.69 38.0323 190.077 38.0323C189.577 38.0323 188.014 38.0323 187.627 38V38.6933H188.981L189.642 40.4346L187.433 46.3034L184.563 38.6933H186.079V38C185.611 38.0323 184.031 38.0323 183.451 38.0323C182.935 38.0323 181.403 38.0323 181 38V38.6933H182.354L186.192 48.8186C186.288 49.0927 186.337 49.2055 186.691 49.2055C187.046 49.2055 187.095 49.0927 187.191 48.8347L189.997 41.4019L192.818 48.8347C192.915 49.0927 192.963 49.2055 193.318 49.2055C193.624 49.2055 193.705 49.141 193.818 48.8347L197.51 39.0802Z" fill="black"/>
<path d="M202.886 43.7299C202.886 43.4476 202.873 43.4342 202.684 43.4342C202.16 44.0659 201.367 44.2675 200.615 44.2944C200.574 44.2944 200.507 44.2944 200.494 44.3213C200.48 44.3482 200.48 44.3751 200.48 44.6573C200.897 44.6573 201.596 44.5767 202.133 44.2541V51.3371C202.133 51.8075 202.106 51.9688 200.951 51.9688H200.547V52.3182C201.193 52.3048 201.865 52.2913 202.51 52.2913C203.155 52.2913 203.827 52.3048 204.472 52.3182V51.9688H204.069C202.913 51.9688 202.886 51.8209 202.886 51.3371V43.7299Z" fill="black"/>
<path d="M210.156 48.0576C210.21 47.8426 210.21 47.6544 210.21 47.6007C210.21 46.8212 209.632 46.3911 209.027 46.3911C207.669 46.3911 206.944 48.3533 206.944 48.4474C206.944 48.5146 206.997 48.5684 207.078 48.5684C207.186 48.5684 207.199 48.5146 207.266 48.3802C207.804 47.0765 208.476 46.6599 208.987 46.6599C209.269 46.6599 209.417 46.8077 209.417 47.2781C209.417 47.6007 209.376 47.7351 209.323 47.977L208.046 53.044C207.79 54.0385 207.159 54.7912 206.42 54.7912C206.366 54.7912 206.084 54.7912 205.828 54.6568C206.151 54.5896 206.406 54.3342 206.406 54.0117C206.406 53.7966 206.245 53.5816 205.949 53.5816C205.6 53.5816 205.277 53.8773 205.277 54.2805C205.277 54.8315 205.868 55.06 206.42 55.06C207.347 55.06 208.57 54.3746 208.906 53.0305L210.156 48.0576ZM210.707 43.9315C210.707 43.5955 210.425 43.488 210.263 43.488C209.901 43.488 209.591 43.8374 209.591 44.1331C209.591 44.3347 209.753 44.5766 210.048 44.5766C210.358 44.5766 210.707 44.2809 210.707 43.9315Z" fill="black"/>
<path d="M302.571 330.956L306.979 332.95L307.174 332.593L302.587 330L298 332.593L298.178 332.95L302.571 330.956Z" fill="black"/>
<path d="M303.24 335.12V335.817C304.244 335.817 304.358 335.817 304.358 336.449V339.626C304.358 340.857 303.629 341.846 302.364 341.846C301.149 341.846 301.084 341.441 301.084 340.549V334.99L298.199 335.12V335.817C299.204 335.817 299.317 335.817 299.317 336.449V340.29C299.317 341.911 300.403 342.381 302.138 342.381C302.526 342.381 303.726 342.381 304.423 341.068H304.439V342.381L307.243 342.284V341.587C306.238 341.587 306.125 341.587 306.125 340.955V334.99L303.24 335.12Z" fill="black"/>
<path d="M312.339 342.551C312.393 342.335 312.393 342.146 312.393 342.092C312.393 341.308 311.812 340.876 311.204 340.876C309.84 340.876 309.11 342.848 309.11 342.943C309.11 343.011 309.164 343.065 309.245 343.065C309.353 343.065 309.367 343.011 309.434 342.875C309.975 341.565 310.65 341.146 311.164 341.146C311.447 341.146 311.596 341.295 311.596 341.768C311.596 342.092 311.555 342.227 311.501 342.47L310.218 347.564C309.961 348.563 309.326 349.32 308.583 349.32C308.529 349.32 308.245 349.32 307.989 349.185C308.313 349.117 308.57 348.861 308.57 348.536C308.57 348.32 308.407 348.104 308.11 348.104C307.759 348.104 307.435 348.401 307.435 348.807C307.435 349.361 308.029 349.59 308.583 349.59C309.515 349.59 310.745 348.901 311.083 347.55L312.339 342.551ZM312.893 338.403C312.893 338.066 312.609 337.958 312.447 337.958C312.082 337.958 311.772 338.309 311.772 338.606C311.772 338.809 311.934 339.052 312.231 339.052C312.542 339.052 312.893 338.755 312.893 338.403Z" fill="black"/>
<path d="M315.971 337.187C315.971 336.944 315.971 336.701 315.701 336.701C315.431 336.701 315.431 336.944 315.431 337.187V349.725C315.431 349.969 315.431 350.212 315.701 350.212C315.971 350.212 315.971 349.969 315.971 349.725V337.187Z" fill="black"/>
<path d="M321.386 344.902C321.386 344.835 321.331 344.78 321.25 344.78C321.129 344.78 321.115 344.821 321.048 345.051C320.696 346.28 320.143 346.699 319.697 346.699C319.535 346.699 319.345 346.658 319.345 346.253C319.345 345.888 319.508 345.483 319.656 345.078L320.602 342.565C320.642 342.457 320.737 342.213 320.737 341.957C320.737 341.389 320.332 340.876 319.67 340.876C318.427 340.876 317.927 342.835 317.927 342.943C317.927 342.997 317.981 343.065 318.075 343.065C318.197 343.065 318.211 343.011 318.265 342.821C318.589 341.687 319.102 341.146 319.629 341.146C319.751 341.146 319.98 341.16 319.98 341.592C319.98 341.943 319.805 342.389 319.697 342.686L318.751 345.199C318.67 345.415 318.589 345.632 318.589 345.875C318.589 346.483 319.008 346.969 319.656 346.969C320.899 346.969 321.386 344.997 321.386 344.902ZM321.277 338.403C321.277 338.201 321.115 337.958 320.818 337.958C320.507 337.958 320.156 338.255 320.156 338.606C320.156 338.944 320.44 339.052 320.602 339.052C320.967 339.052 321.277 338.701 321.277 338.403Z" fill="black"/>
<circle cx="310" cy="205" r="2" fill="black"/>
<circle cx="310" cy="213" r="2" fill="black"/>
<circle cx="310" cy="221" r="2" fill="black"/>
<path d="M311 102H261V52L309 16H359V66L311 102Z" fill="white"/>
<path d="M261 52H311M261 52V102H311M261 52L309 16H359M311 52V102M311 52L359 16M311 102L359 66V16" stroke="black" stroke-width="2"/>
<path d="M311 196H261V146L309 110H359V160L311 196Z" fill="white"/>
<path d="M261 146H311M261 146V196H311M261 146L309 110H359M311 146V196M311 146L359 110M311 196L359 160V110" stroke="black" stroke-width="2"/>
<path d="M311 315H261V265L309 229H359V279L311 315Z" fill="white"/>
<path d="M261 265H311M261 265V315H311M261 265L309 229H359M311 265V315M311 265L359 229M311 315L359 279V229" stroke="black" stroke-width="2"/>
<path d="M474.114 121.487C474.383 121.424 474.55 121.155 474.487 120.886L473.459 116.505C473.396 116.236 473.127 116.069 472.858 116.132C472.589 116.195 472.422 116.464 472.486 116.733L473.399 120.627L469.505 121.541C469.236 121.604 469.069 121.873 469.132 122.142C469.195 122.411 469.464 122.578 469.733 122.514L474.114 121.487ZM373.737 59.425L473.737 121.425L474.263 120.575L374.263 58.575L373.737 59.425Z" fill="black"/>
<path d="M474.313 164.39C474.528 164.217 474.563 163.903 474.39 163.687L471.575 160.176C471.402 159.961 471.088 159.926 470.872 160.099C470.657 160.272 470.622 160.587 470.795 160.802L473.297 163.923L470.176 166.425C469.961 166.598 469.926 166.912 470.099 167.128C470.272 167.343 470.587 167.378 470.802 167.205L474.313 164.39ZM373.945 153.497L473.945 164.497L474.055 163.503L374.055 152.503L373.945 153.497Z" fill="black"/>
<path d="M474.489 207.104C474.546 206.834 474.374 206.568 474.104 206.511L469.702 205.577C469.432 205.52 469.166 205.692 469.109 205.962C469.052 206.233 469.224 206.498 469.494 206.555L473.407 207.385L472.577 211.298C472.52 211.568 472.692 211.834 472.962 211.891C473.233 211.948 473.498 211.776 473.555 211.506L474.489 207.104ZM374.272 272.419L474.272 207.419L473.727 206.581L373.728 271.581L374.272 272.419Z" fill="black"/>
<path d="M429.628 230.295C429.628 230.228 429.574 230.174 429.493 230.174C429.371 230.174 429.358 230.214 429.29 230.444C428.939 231.673 428.385 232.092 427.939 232.092C427.777 232.092 427.588 232.052 427.588 231.646C427.588 231.281 427.75 230.876 427.899 230.471L428.844 227.958C428.885 227.85 428.98 227.606 428.98 227.35C428.98 226.782 428.574 226.269 427.912 226.269C426.669 226.269 426.169 228.228 426.169 228.336C426.169 228.39 426.223 228.458 426.318 228.458C426.44 228.458 426.453 228.404 426.507 228.214C426.831 227.08 427.345 226.539 427.872 226.539C427.993 226.539 428.223 226.553 428.223 226.985C428.223 227.336 428.047 227.782 427.939 228.079L426.994 230.592C426.912 230.809 426.831 231.025 426.831 231.268C426.831 231.876 427.25 232.362 427.899 232.362C429.142 232.362 429.628 230.39 429.628 230.295ZM429.52 223.796C429.52 223.594 429.358 223.351 429.061 223.351C428.75 223.351 428.399 223.648 428.399 223.999C428.399 224.337 428.682 224.445 428.844 224.445C429.209 224.445 429.52 224.094 429.52 223.796Z" fill="black"/>
<path d="M424.689 223.054C424.381 223.054 424.235 223.054 424.008 223.248C423.911 223.329 423.733 223.572 423.733 223.831C423.733 224.156 423.976 224.35 424.284 224.35C424.673 224.35 425.11 224.026 425.11 223.378C425.11 222.6 424.365 222 423.246 222C421.123 222 419 224.318 419 226.619C419 228.029 419.875 229.31 421.528 229.31C423.733 229.31 425.127 227.592 425.127 227.381C425.127 227.284 425.029 227.203 424.964 227.203C424.916 227.203 424.9 227.219 424.754 227.365C423.716 228.742 422.177 228.986 421.561 228.986C420.442 228.986 420.086 228.013 420.086 227.203C420.086 226.635 420.361 225.063 420.945 223.961C421.366 223.199 422.242 222.324 423.263 222.324C423.473 222.324 424.365 222.357 424.689 223.054Z" fill="black"/>
<path d="M423.689 145.054C423.381 145.054 423.235 145.054 423.008 145.248C422.911 145.329 422.733 145.572 422.733 145.831C422.733 146.156 422.976 146.35 423.284 146.35C423.673 146.35 424.11 146.026 424.11 145.378C424.11 144.6 423.365 144 422.246 144C420.123 144 418 146.318 418 148.619C418 150.029 418.875 151.31 420.528 151.31C422.733 151.31 424.127 149.592 424.127 149.381C424.127 149.284 424.029 149.203 423.964 149.203C423.916 149.203 423.9 149.219 423.754 149.365C422.716 150.742 421.177 150.986 420.561 150.986C419.442 150.986 419.086 150.013 419.086 149.203C419.086 148.635 419.361 147.063 419.945 145.961C420.366 145.199 421.242 144.324 422.263 144.324C422.473 144.324 423.365 144.357 423.689 145.054Z" fill="black"/>
<path d="M429.79 152.18H429.547C429.412 153.139 429.304 153.301 429.25 153.382C429.182 153.491 428.209 153.491 428.02 153.491H425.426C425.913 152.964 426.858 152.004 428.007 150.897C428.831 150.113 429.79 149.194 429.79 147.857C429.79 146.262 428.52 145.344 427.102 145.344C425.615 145.344 424.71 146.654 424.71 147.87C424.71 148.397 425.102 148.465 425.264 148.465C425.399 148.465 425.805 148.384 425.805 147.911C425.805 147.492 425.453 147.37 425.264 147.37C425.183 147.37 425.102 147.384 425.048 147.411C425.305 146.262 426.088 145.695 426.912 145.695C428.088 145.695 428.858 146.627 428.858 147.857C428.858 149.032 428.169 150.045 427.399 150.924L424.71 153.963V154.274H429.466L429.79 152.18Z" fill="black"/>
<path d="M423.689 76.0535C423.381 76.0535 423.235 76.0535 423.008 76.248C422.911 76.329 422.733 76.5722 422.733 76.8315C422.733 77.1556 422.976 77.3501 423.284 77.3501C423.673 77.3501 424.11 77.026 424.11 76.3777C424.11 75.5997 423.365 75 422.246 75C420.123 75 418 77.3177 418 79.6192C418 81.0293 418.875 82.3097 420.528 82.3097C422.733 82.3097 424.127 80.5917 424.127 80.381C424.127 80.2837 424.029 80.2027 423.964 80.2027C423.916 80.2027 423.9 80.2189 423.754 80.3648C422.716 81.7424 421.177 81.9855 420.561 81.9855C419.442 81.9855 419.086 81.0131 419.086 80.2027C419.086 79.6354 419.361 78.0633 419.945 76.9611C420.366 76.1994 421.242 75.3242 422.263 75.3242C422.473 75.3242 423.365 75.3566 423.689 76.0535Z" fill="black"/>
<path d="M427.75 76.6408C427.75 76.3571 427.737 76.3436 427.547 76.3436C427.021 76.9786 426.223 77.1812 425.467 77.2083C425.426 77.2083 425.359 77.2083 425.345 77.2353C425.332 77.2623 425.332 77.2894 425.332 77.5731C425.75 77.5731 426.453 77.492 426.993 77.1677V84.2879C426.993 84.7608 426.966 84.9229 425.805 84.9229H425.399V85.2742C426.048 85.2607 426.723 85.2472 427.372 85.2472C428.02 85.2472 428.696 85.2607 429.344 85.2742V84.9229H428.939C427.777 84.9229 427.75 84.7743 427.75 84.2879V76.6408Z" fill="black"/>
<path d="M537.494 337.421C537.494 337.113 537.494 337 537.251 337C537.154 337 537.122 337 536.879 337.146C536.814 337.194 536.635 337.308 536.554 337.357C536.101 337.097 535.501 337 534.917 337C534.431 337 532 337 532 339.107C532 340.809 534.01 341.165 534.512 341.246C534.95 341.327 535.485 341.425 535.549 341.425C536.198 341.571 536.846 341.976 536.846 342.656C536.846 343.904 535.371 343.904 535.031 343.904C534.204 343.904 533.183 343.645 532.729 342.073C532.632 341.749 532.616 341.733 532.34 341.733C532 341.733 532 341.781 532 342.154V344.018C532 344.326 532 344.439 532.243 344.439C532.357 344.439 532.389 344.439 532.713 344.18L533.135 343.872C533.864 344.439 534.739 344.439 535.031 344.439C535.922 344.439 537.948 344.245 537.948 342.089C537.948 341.311 537.527 340.776 537.203 340.485C536.538 339.934 535.987 339.836 535.112 339.674C534.075 339.496 533.102 339.318 533.102 338.54C533.102 337.486 534.545 337.486 534.885 337.486C536.684 337.486 536.781 338.621 536.814 339.026C536.83 339.237 536.96 339.237 537.154 339.237C537.494 339.237 537.494 339.188 537.494 338.815V337.421Z" fill="black"/>
<path d="M543.278 343.334C543.332 343.118 543.332 342.929 543.332 342.875C543.332 342.091 542.751 341.659 542.143 341.659C540.779 341.659 540.049 343.631 540.049 343.726C540.049 343.793 540.103 343.847 540.184 343.847C540.292 343.847 540.306 343.793 540.373 343.658C540.914 342.348 541.589 341.929 542.103 341.929C542.387 341.929 542.535 342.078 542.535 342.55C542.535 342.875 542.495 343.01 542.441 343.253L541.157 348.347C540.9 349.346 540.265 350.103 539.522 350.103C539.468 350.103 539.184 350.103 538.928 349.968C539.252 349.9 539.509 349.644 539.509 349.319C539.509 349.103 539.347 348.887 539.049 348.887C538.698 348.887 538.374 349.184 538.374 349.59C538.374 350.143 538.968 350.373 539.522 350.373C540.454 350.373 541.684 349.684 542.022 348.333L543.278 343.334ZM543.832 339.186C543.832 338.848 543.548 338.74 543.386 338.74C543.022 338.74 542.711 339.092 542.711 339.389C542.711 339.592 542.873 339.835 543.17 339.835C543.481 339.835 543.832 339.538 543.832 339.186Z" fill="black"/>
<path d="M539 207H489V157L537 121H587V171L539 207Z" fill="white"/>
<path d="M489 157H539M489 157V207H539M489 157L537 121H587M539 157V207M539 157L587 121M539 207L587 171V121" stroke="black" stroke-width="2"/>
<path d="M702.354 159.354C702.549 159.158 702.549 158.842 702.354 158.646L699.172 155.464C698.976 155.269 698.66 155.269 698.464 155.464C698.269 155.66 698.269 155.976 698.464 156.172L701.293 159L698.464 161.828C698.269 162.024 698.269 162.34 698.464 162.536C698.66 162.731 698.976 162.731 699.172 162.536L702.354 159.354ZM602 159.5H702V158.5H602V159.5Z" fill="black"/>
<path d="M635.603 145.409C635.603 145.117 635.587 145.101 635.49 145.101C635.425 145.101 635.409 145.117 635.214 145.36C635.165 145.425 635.02 145.587 634.971 145.652C634.452 145.101 633.723 145.084 633.447 145.084C631.648 145.084 631 146.024 631 146.964C631 148.423 632.653 148.763 633.123 148.861C634.144 149.071 634.501 149.136 634.841 149.428C635.052 149.623 635.409 149.979 635.409 150.563C635.409 151.243 635.02 152.118 633.528 152.118C632.118 152.118 631.616 151.049 631.324 149.623C631.276 149.396 631.276 149.379 631.146 149.379C631.016 149.379 631 149.396 631 149.72V152.054C631 152.345 631.016 152.362 631.113 152.362C631.194 152.362 631.211 152.345 631.292 152.216C631.389 152.07 631.632 151.681 631.729 151.519C632.053 151.956 632.621 152.378 633.528 152.378C635.133 152.378 635.992 151.503 635.992 150.238C635.992 149.412 635.554 148.974 635.344 148.78C634.857 148.277 634.29 148.164 633.609 148.034C632.718 147.84 631.583 147.613 631.583 146.624C631.583 146.203 631.81 145.311 633.447 145.311C635.182 145.311 635.279 146.932 635.311 147.451C635.327 147.532 635.409 147.548 635.457 147.548C635.603 147.548 635.603 147.499 635.603 147.224V145.409Z" fill="black"/>
<path d="M643.059 145.149H642.799L642.313 146.754C641.94 145.895 641.26 145.149 640.174 145.149C638.521 145.149 636.932 146.624 636.932 148.763C636.932 150.887 638.423 152.378 640.044 152.378C641.292 152.378 641.989 151.422 642.2 151.065V154.29C642.2 154.906 642.135 154.987 641.098 154.987V155.409C641.487 155.376 642.2 155.376 642.621 155.376C643.043 155.376 643.772 155.376 644.161 155.409V154.987C643.124 154.987 643.059 154.922 643.059 154.29V145.149ZM642.232 150.028C642.232 150.725 641.649 151.373 641.6 151.422C641.098 151.989 640.514 152.118 640.125 152.118C638.91 152.118 637.97 150.579 637.97 148.78C637.97 146.883 639.039 145.441 640.287 145.441C641.584 145.441 642.232 146.916 642.232 147.759V150.028Z" fill="black"/>
<path d="M648.99 145.327V145.749C649.946 145.749 650.092 145.846 650.092 146.624V149.574C650.092 150.935 649.362 152.118 648.163 152.118C646.834 152.118 646.721 151.324 646.721 150.482V145.149L644.759 145.327V145.749C645.408 145.749 645.845 145.749 645.862 146.397V149.509C645.862 150.595 645.862 151.292 646.283 151.746C646.494 151.956 646.899 152.378 648.066 152.378C649.443 152.378 649.978 151.211 650.108 150.87H650.124V152.378L652.053 152.248V151.827C651.097 151.827 650.951 151.73 650.951 150.952V145.149L648.99 145.327Z" fill="black"/>
<path d="M658.308 148.05C658.308 146.981 658.308 146.413 657.628 145.781C657.028 145.246 656.331 145.084 655.78 145.084C654.5 145.084 653.576 146.089 653.576 147.159C653.576 147.759 654.062 147.791 654.159 147.791C654.37 147.791 654.743 147.661 654.743 147.208C654.743 146.802 654.435 146.624 654.159 146.624C654.094 146.624 654.013 146.64 653.965 146.656C654.305 145.635 655.18 145.344 655.748 145.344C656.558 145.344 657.449 146.057 657.449 147.418V148.131C656.493 148.164 655.342 148.293 654.435 148.78C653.414 149.347 653.122 150.157 653.122 150.773C653.122 152.021 654.581 152.378 655.44 152.378C656.331 152.378 657.158 151.875 657.514 150.952C657.547 151.665 658 152.313 658.714 152.313C659.054 152.313 659.913 152.086 659.913 150.806V149.898H659.621V150.822C659.621 151.811 659.184 151.94 658.973 151.94C658.308 151.94 658.308 151.097 658.308 150.384V148.05ZM657.449 149.995C657.449 151.405 656.444 152.118 655.553 152.118C654.743 152.118 654.111 151.519 654.111 150.773C654.111 150.287 654.321 149.428 655.261 148.909C656.039 148.472 656.931 148.407 657.449 148.375V149.995Z" fill="black"/>
<path d="M664.887 145.409C664.887 145.117 664.871 145.101 664.774 145.101C664.709 145.101 664.693 145.117 664.498 145.36C664.45 145.425 664.304 145.587 664.255 145.652C663.737 145.101 663.007 145.084 662.732 145.084C660.933 145.084 660.284 146.024 660.284 146.964C660.284 148.423 661.938 148.763 662.408 148.861C663.429 149.071 663.785 149.136 664.126 149.428C664.336 149.623 664.693 149.979 664.693 150.563C664.693 151.243 664.304 152.118 662.813 152.118C661.403 152.118 660.9 151.049 660.609 149.623C660.56 149.396 660.56 149.379 660.43 149.379C660.301 149.379 660.284 149.396 660.284 149.72V152.054C660.284 152.345 660.301 152.362 660.398 152.362C660.479 152.362 660.495 152.345 660.576 152.216C660.673 152.07 660.917 151.681 661.014 151.519C661.338 151.956 661.905 152.378 662.813 152.378C664.417 152.378 665.276 151.503 665.276 150.238C665.276 149.412 664.839 148.974 664.628 148.78C664.142 148.277 663.575 148.164 662.894 148.034C662.002 147.84 660.868 147.613 660.868 146.624C660.868 146.203 661.095 145.311 662.732 145.311C664.466 145.311 664.563 146.932 664.596 147.451C664.612 147.532 664.693 147.548 664.742 147.548C664.887 147.548 664.887 147.499 664.887 147.224V145.409Z" fill="black"/>
<path d="M672.408 147.321C672.408 146.494 672.246 145.149 670.333 145.149C669.004 145.149 668.356 146.219 668.162 146.754H668.145V141L666.217 141.178V141.6C667.173 141.6 667.319 141.697 667.319 142.475V151.13C667.319 151.746 667.254 151.827 666.217 151.827V152.248C666.606 152.216 667.319 152.216 667.74 152.216C668.162 152.216 668.891 152.216 669.28 152.248V151.827C668.243 151.827 668.178 151.762 668.178 151.13V148.018C668.178 146.527 669.085 145.409 670.22 145.409C671.419 145.409 671.549 146.478 671.549 147.256V151.13C671.549 151.746 671.484 151.827 670.447 151.827V152.248C670.836 152.216 671.549 152.216 671.97 152.216C672.392 152.216 673.121 152.216 673.51 152.248V151.827C672.473 151.827 672.408 151.762 672.408 151.13V147.321Z" fill="black"/>
<path d="M766.634 338.07C766.747 337.827 766.812 337.697 767.833 337.697V337C767.25 337.032 767.217 337.032 766.553 337.032C766.115 337.032 766.083 337.032 765.159 337V337.697C765.597 337.697 765.953 337.778 765.953 337.891C765.953 337.908 765.953 337.924 765.872 338.086L763.976 342.251L761.885 337.697H762.776V337C762.404 337.032 761.269 337.032 760.831 337.032C760.361 337.032 759.421 337.032 759 337V337.697H760.021L762.874 343.888C763.02 344.196 763.052 344.277 763.425 344.277C763.684 344.277 763.814 344.245 763.96 343.921L766.634 338.07Z" fill="black"/>
<path d="M772.927 343.188C772.981 342.972 772.981 342.783 772.981 342.729C772.981 341.945 772.4 341.513 771.792 341.513C770.428 341.513 769.698 343.485 769.698 343.58C769.698 343.648 769.752 343.702 769.833 343.702C769.941 343.702 769.955 343.648 770.022 343.512C770.563 342.202 771.238 341.783 771.752 341.783C772.035 341.783 772.184 341.932 772.184 342.405C772.184 342.729 772.144 342.864 772.09 343.107L770.806 348.201C770.549 349.201 769.914 349.957 769.171 349.957C769.117 349.957 768.833 349.957 768.577 349.822C768.901 349.754 769.158 349.498 769.158 349.174C769.158 348.957 768.996 348.741 768.698 348.741C768.347 348.741 768.023 349.038 768.023 349.444C768.023 349.998 768.617 350.227 769.171 350.227C770.103 350.227 771.333 349.538 771.671 348.187L772.927 343.188ZM773.481 339.04C773.481 338.703 773.197 338.595 773.035 338.595C772.67 338.595 772.36 338.946 772.36 339.243C772.36 339.446 772.522 339.689 772.819 339.689C773.13 339.689 773.481 339.392 773.481 339.04Z" fill="black"/>
<path d="M767 207H717V157L765 121H815V171L767 207Z" fill="white"/>
<path d="M717 157H767M717 157V207H767M717 157L765 121H815M767 157V207M767 157L815 121M767 207L815 171V121" stroke="black" stroke-width="2"/>
</svg>
