<svg width="491" height="255" viewBox="0 0 491 255" fill="none" xmlns="http://www.w3.org/2000/svg">
<path d="M383.5 166C383.5 167.512 384.465 168.587 385.92 169.335C387.365 170.078 389.387 170.556 391.746 170.871C396.474 171.501 402.762 171.5 409 171.5C415.262 171.5 421.474 171.501 426.121 172.121C428.449 172.431 430.333 172.891 431.623 173.554C432.903 174.212 433.5 175.012 433.5 176L434.5 176C434.5 174.488 433.535 173.413 432.08 172.665C430.635 171.922 428.613 171.444 426.254 171.129C421.526 170.499 415.238 170.5 409 170.5C402.738 170.5 396.526 170.499 391.879 169.879C389.551 169.569 387.667 169.109 386.377 168.446C385.097 167.788 384.5 166.988 384.5 166L383.5 166ZM483.5 166C483.5 166.988 482.903 167.788 481.623 168.446C480.333 169.109 478.449 169.569 476.121 169.879C471.474 170.499 465.262 170.5 459 170.5C452.762 170.5 446.474 170.499 441.746 171.129C439.387 171.444 437.365 171.922 435.92 172.665C434.465 173.413 433.5 174.488 433.5 176L434.5 176C434.5 175.012 435.097 174.212 436.377 173.554C437.667 172.891 439.551 172.431 441.879 172.121C446.526 171.501 452.738 171.5 459 171.5C465.238 171.5 471.526 171.501 476.254 170.871C478.613 170.556 480.635 170.078 482.08 169.335C483.535 168.587 484.5 167.512 484.5 166L483.5 166Z" fill="black"/>
<path d="M383.5 166C383.5 167.512 384.465 168.587 385.92 169.335C387.365 170.078 389.387 170.556 391.746 170.871C396.474 171.501 402.762 171.5 409 171.5C415.262 171.5 421.474 171.501 426.121 172.121C428.449 172.431 430.333 172.891 431.623 173.554C432.903 174.212 433.5 175.012 433.5 176L434.5 176C434.5 174.488 433.535 173.413 432.08 172.665C430.635 171.922 428.613 171.444 426.254 171.129C421.526 170.499 415.238 170.5 409 170.5C402.738 170.5 396.526 170.499 391.879 169.879C389.551 169.569 387.667 169.109 386.377 168.446C385.097 167.788 384.5 166.988 384.5 166L383.5 166ZM483.5 166C483.5 166.988 482.903 167.788 481.623 168.446C480.333 169.109 478.449 169.569 476.121 169.879C471.474 170.499 465.262 170.5 459 170.5C452.762 170.5 446.474 170.499 441.746 171.129C439.387 171.444 437.365 171.922 435.92 172.665C434.465 173.413 433.5 174.488 433.5 176L434.5 176C434.5 175.012 435.097 174.212 436.377 173.554C437.667 172.891 439.551 172.431 441.879 172.121C446.526 171.501 452.738 171.5 459 171.5C465.238 171.5 471.526 171.501 476.254 170.871C478.613 170.556 480.635 170.078 482.08 169.335C483.535 168.587 484.5 167.512 484.5 166L483.5 166Z" fill="black"/>
<path d="M433.027 182.449C433.027 182.996 432.873 183.443 432.564 183.791C432.26 184.139 431.826 184.371 431.264 184.488V184.535C431.951 184.621 432.461 184.84 432.793 185.191C433.125 185.543 433.291 186.004 433.291 186.574C433.291 187.391 433.008 188.02 432.441 188.461C431.875 188.898 431.07 189.117 430.027 189.117C429.574 189.117 429.158 189.082 428.779 189.012C428.404 188.945 428.039 188.826 427.684 188.654V187.729C428.055 187.912 428.449 188.053 428.867 188.15C429.289 188.244 429.688 188.291 430.062 188.291C431.543 188.291 432.283 187.711 432.283 186.551C432.283 185.512 431.467 184.992 429.834 184.992H428.99V184.154H429.846C430.514 184.154 431.043 184.008 431.434 183.715C431.824 183.418 432.02 183.008 432.02 182.484C432.02 182.066 431.875 181.738 431.586 181.5C431.301 181.262 430.912 181.143 430.42 181.143C430.045 181.143 429.691 181.193 429.359 181.295C429.027 181.396 428.648 181.584 428.223 181.857L427.73 181.201C428.082 180.924 428.486 180.707 428.943 180.551C429.404 180.391 429.889 180.311 430.396 180.311C431.229 180.311 431.875 180.502 432.336 180.885C432.797 181.264 433.027 181.785 433.027 182.449ZM440.217 189H434.586V188.162L436.842 185.895C437.529 185.199 437.982 184.703 438.201 184.406C438.42 184.109 438.584 183.82 438.693 183.539C438.803 183.258 438.857 182.955 438.857 182.631C438.857 182.174 438.719 181.812 438.441 181.547C438.164 181.277 437.779 181.143 437.287 181.143C436.932 181.143 436.594 181.201 436.273 181.318C435.957 181.436 435.604 181.648 435.213 181.957L434.697 181.295C435.486 180.639 436.346 180.311 437.275 180.311C438.08 180.311 438.711 180.518 439.168 180.932C439.625 181.342 439.854 181.895 439.854 182.59C439.854 183.133 439.701 183.67 439.396 184.201C439.092 184.732 438.521 185.404 437.686 186.217L435.811 188.051V188.098H440.217V189Z" fill="black"/>
<path d="M136.672 252H135.676V243.434H140.451V244.318H136.672V247.453H140.223V248.338H136.672V252ZM145.543 244.201C144.602 244.201 143.857 244.516 143.311 245.145C142.768 245.77 142.496 246.627 142.496 247.717C142.496 248.838 142.758 249.705 143.281 250.318C143.809 250.928 144.559 251.232 145.531 251.232C146.129 251.232 146.811 251.125 147.576 250.91V251.783C146.982 252.006 146.25 252.117 145.379 252.117C144.117 252.117 143.143 251.734 142.455 250.969C141.771 250.203 141.43 249.115 141.43 247.705C141.43 246.822 141.594 246.049 141.922 245.385C142.254 244.721 142.73 244.209 143.352 243.85C143.977 243.49 144.711 243.311 145.555 243.311C146.453 243.311 147.238 243.475 147.91 243.803L147.488 244.658C146.84 244.354 146.191 244.201 145.543 244.201ZM155.211 247.365H157.625V248.174H155.211V250.67H154.396V248.174H151.994V247.365H154.396V244.857H155.211V247.365ZM163.543 248.438V252H162.547V243.434H164.896C165.947 243.434 166.723 243.635 167.223 244.037C167.727 244.439 167.979 245.045 167.979 245.854C167.979 246.986 167.404 247.752 166.256 248.15L168.582 252H167.404L165.33 248.438H163.543ZM163.543 247.582H164.908C165.611 247.582 166.127 247.443 166.455 247.166C166.783 246.885 166.947 246.465 166.947 245.906C166.947 245.34 166.779 244.932 166.443 244.682C166.111 244.432 165.576 244.307 164.838 244.307H163.543V247.582ZM172.531 252.117C171.582 252.117 170.832 251.828 170.281 251.25C169.734 250.672 169.461 249.869 169.461 248.842C169.461 247.807 169.715 246.984 170.223 246.375C170.734 245.766 171.42 245.461 172.279 245.461C173.084 245.461 173.721 245.727 174.189 246.258C174.658 246.785 174.893 247.482 174.893 248.35V248.965H170.469C170.488 249.719 170.678 250.291 171.037 250.682C171.4 251.072 171.91 251.268 172.566 251.268C173.258 251.268 173.941 251.123 174.617 250.834V251.701C174.273 251.85 173.947 251.955 173.639 252.018C173.334 252.084 172.965 252.117 172.531 252.117ZM172.268 246.275C171.752 246.275 171.34 246.443 171.031 246.779C170.727 247.115 170.547 247.58 170.492 248.174H173.85C173.85 247.561 173.713 247.092 173.439 246.768C173.166 246.439 172.775 246.275 172.268 246.275ZM176.703 252V243.434H177.699V251.098H181.479V252H176.703ZM189.406 243.434V248.977C189.406 249.953 189.111 250.721 188.521 251.279C187.932 251.838 187.121 252.117 186.09 252.117C185.059 252.117 184.26 251.836 183.693 251.273C183.131 250.711 182.85 249.938 182.85 248.953V243.434H183.846V249.023C183.846 249.738 184.041 250.287 184.432 250.67C184.822 251.053 185.396 251.244 186.154 251.244C186.877 251.244 187.434 251.053 187.824 250.67C188.215 250.283 188.41 249.73 188.41 249.012V243.434H189.406Z" fill="black"/>
<path d="M224.672 252H223.676V243.434H228.451V244.318H224.672V247.453H228.223V248.338H224.672V252ZM233.543 244.201C232.602 244.201 231.857 244.516 231.311 245.145C230.768 245.77 230.496 246.627 230.496 247.717C230.496 248.838 230.758 249.705 231.281 250.318C231.809 250.928 232.559 251.232 233.531 251.232C234.129 251.232 234.811 251.125 235.576 250.91V251.783C234.982 252.006 234.25 252.117 233.379 252.117C232.117 252.117 231.143 251.734 230.455 250.969C229.771 250.203 229.43 249.115 229.43 247.705C229.43 246.822 229.594 246.049 229.922 245.385C230.254 244.721 230.73 244.209 231.352 243.85C231.977 243.49 232.711 243.311 233.555 243.311C234.453 243.311 235.238 243.475 235.91 243.803L235.488 244.658C234.84 244.354 234.191 244.201 233.543 244.201ZM243.211 247.365H245.625V248.174H243.211V250.67H242.396V248.174H239.994V247.365H242.396V244.857H243.211V247.365ZM251.543 248.438V252H250.547V243.434H252.896C253.947 243.434 254.723 243.635 255.223 244.037C255.727 244.439 255.979 245.045 255.979 245.854C255.979 246.986 255.404 247.752 254.256 248.15L256.582 252H255.404L253.33 248.438H251.543ZM251.543 247.582H252.908C253.611 247.582 254.127 247.443 254.455 247.166C254.783 246.885 254.947 246.465 254.947 245.906C254.947 245.34 254.779 244.932 254.443 244.682C254.111 244.432 253.576 244.307 252.838 244.307H251.543V247.582ZM260.531 252.117C259.582 252.117 258.832 251.828 258.281 251.25C257.734 250.672 257.461 249.869 257.461 248.842C257.461 247.807 257.715 246.984 258.223 246.375C258.734 245.766 259.42 245.461 260.279 245.461C261.084 245.461 261.721 245.727 262.189 246.258C262.658 246.785 262.893 247.482 262.893 248.35V248.965H258.469C258.488 249.719 258.678 250.291 259.037 250.682C259.4 251.072 259.91 251.268 260.566 251.268C261.258 251.268 261.941 251.123 262.617 250.834V251.701C262.273 251.85 261.947 251.955 261.639 252.018C261.334 252.084 260.965 252.117 260.531 252.117ZM260.268 246.275C259.752 246.275 259.34 246.443 259.031 246.779C258.727 247.115 258.547 247.58 258.492 248.174H261.85C261.85 247.561 261.713 247.092 261.439 246.768C261.166 246.439 260.775 246.275 260.268 246.275ZM264.703 252V243.434H265.699V251.098H269.479V252H264.703ZM277.406 243.434V248.977C277.406 249.953 277.111 250.721 276.521 251.279C275.932 251.838 275.121 252.117 274.09 252.117C273.059 252.117 272.26 251.836 271.693 251.273C271.131 250.711 270.85 249.938 270.85 248.953V243.434H271.846V249.023C271.846 249.738 272.041 250.287 272.432 250.67C272.822 251.053 273.396 251.244 274.154 251.244C274.877 251.244 275.434 251.053 275.824 250.67C276.215 250.283 276.41 249.73 276.41 249.012V243.434H277.406Z" fill="black"/>
<path d="M304.232 252H303.236V243.434H308.012V244.318H304.232V247.453H307.783V248.338H304.232V252ZM313.104 244.201C312.162 244.201 311.418 244.516 310.871 245.145C310.328 245.77 310.057 246.627 310.057 247.717C310.057 248.838 310.318 249.705 310.842 250.318C311.369 250.928 312.119 251.232 313.092 251.232C313.689 251.232 314.371 251.125 315.137 250.91V251.783C314.543 252.006 313.811 252.117 312.939 252.117C311.678 252.117 310.703 251.734 310.016 250.969C309.332 250.203 308.99 249.115 308.99 247.705C308.99 246.822 309.154 246.049 309.482 245.385C309.814 244.721 310.291 244.209 310.912 243.85C311.537 243.49 312.271 243.311 313.115 243.311C314.014 243.311 314.799 243.475 315.471 243.803L315.049 244.658C314.4 244.354 313.752 244.201 313.104 244.201ZM322.771 247.365H325.186V248.174H322.771V250.67H321.957V248.174H319.555V247.365H321.957V244.857H322.771V247.365ZM334.941 249.721C334.941 250.475 334.668 251.062 334.121 251.484C333.574 251.906 332.832 252.117 331.895 252.117C330.879 252.117 330.098 251.986 329.551 251.725V250.764C329.902 250.912 330.285 251.029 330.699 251.115C331.113 251.201 331.523 251.244 331.93 251.244C332.594 251.244 333.094 251.119 333.43 250.869C333.766 250.615 333.934 250.264 333.934 249.814C333.934 249.518 333.873 249.275 333.752 249.088C333.635 248.896 333.436 248.721 333.154 248.561C332.877 248.4 332.453 248.219 331.883 248.016C331.086 247.73 330.516 247.393 330.172 247.002C329.832 246.611 329.662 246.102 329.662 245.473C329.662 244.812 329.91 244.287 330.406 243.896C330.902 243.506 331.559 243.311 332.375 243.311C333.227 243.311 334.01 243.467 334.725 243.779L334.414 244.646C333.707 244.35 333.02 244.201 332.352 244.201C331.824 244.201 331.412 244.314 331.115 244.541C330.818 244.768 330.67 245.082 330.67 245.484C330.67 245.781 330.725 246.025 330.834 246.217C330.943 246.404 331.127 246.578 331.385 246.738C331.646 246.895 332.045 247.068 332.58 247.26C333.479 247.58 334.096 247.924 334.432 248.291C334.771 248.658 334.941 249.135 334.941 249.721ZM337.52 252H336.547V245.578H337.52V252ZM336.465 243.838C336.465 243.615 336.52 243.453 336.629 243.352C336.738 243.246 336.875 243.193 337.039 243.193C337.195 243.193 337.33 243.246 337.443 243.352C337.557 243.457 337.613 243.619 337.613 243.838C337.613 244.057 337.557 244.221 337.443 244.33C337.33 244.436 337.195 244.488 337.039 244.488C336.875 244.488 336.738 244.436 336.629 244.33C336.52 244.221 336.465 244.057 336.465 243.838ZM344.838 245.578V246.193L343.648 246.334C343.758 246.471 343.855 246.65 343.941 246.873C344.027 247.092 344.07 247.34 344.07 247.617C344.07 248.246 343.855 248.748 343.426 249.123C342.996 249.498 342.406 249.686 341.656 249.686C341.465 249.686 341.285 249.67 341.117 249.639C340.703 249.857 340.496 250.133 340.496 250.465C340.496 250.641 340.568 250.771 340.713 250.857C340.857 250.939 341.105 250.98 341.457 250.98H342.594C343.289 250.98 343.822 251.127 344.193 251.42C344.568 251.713 344.756 252.139 344.756 252.697C344.756 253.408 344.471 253.949 343.9 254.32C343.33 254.695 342.498 254.883 341.404 254.883C340.564 254.883 339.916 254.727 339.459 254.414C339.006 254.102 338.779 253.66 338.779 253.09C338.779 252.699 338.904 252.361 339.154 252.076C339.404 251.791 339.756 251.598 340.209 251.496C340.045 251.422 339.906 251.307 339.793 251.15C339.684 250.994 339.629 250.812 339.629 250.605C339.629 250.371 339.691 250.166 339.816 249.99C339.941 249.814 340.139 249.645 340.408 249.48C340.076 249.344 339.805 249.111 339.594 248.783C339.387 248.455 339.283 248.08 339.283 247.658C339.283 246.955 339.494 246.414 339.916 246.035C340.338 245.652 340.936 245.461 341.709 245.461C342.045 245.461 342.348 245.5 342.617 245.578H344.838ZM339.717 253.078C339.717 253.426 339.863 253.689 340.156 253.869C340.449 254.049 340.869 254.139 341.416 254.139C342.232 254.139 342.836 254.016 343.227 253.77C343.621 253.527 343.818 253.197 343.818 252.779C343.818 252.432 343.711 252.189 343.496 252.053C343.281 251.92 342.877 251.854 342.283 251.854H341.117C340.676 251.854 340.332 251.959 340.086 252.17C339.84 252.381 339.717 252.684 339.717 253.078ZM340.244 247.635C340.244 248.084 340.371 248.424 340.625 248.654C340.879 248.885 341.232 249 341.686 249C342.635 249 343.109 248.539 343.109 247.617C343.109 246.652 342.629 246.17 341.668 246.17C341.211 246.17 340.859 246.293 340.613 246.539C340.367 246.785 340.244 247.15 340.244 247.635ZM354.342 252V247.822C354.342 247.311 354.232 246.928 354.014 246.674C353.795 246.416 353.455 246.287 352.994 246.287C352.389 246.287 351.941 246.461 351.652 246.809C351.363 247.156 351.219 247.691 351.219 248.414V252H350.246V247.822C350.246 247.311 350.137 246.928 349.918 246.674C349.699 246.416 349.357 246.287 348.893 246.287C348.283 246.287 347.836 246.471 347.551 246.838C347.27 247.201 347.129 247.799 347.129 248.631V252H346.156V245.578H346.947L347.105 246.457H347.152C347.336 246.145 347.594 245.9 347.926 245.725C348.262 245.549 348.637 245.461 349.051 245.461C350.055 245.461 350.711 245.824 351.02 246.551H351.066C351.258 246.215 351.535 245.949 351.898 245.754C352.262 245.559 352.676 245.461 353.141 245.461C353.867 245.461 354.41 245.648 354.77 246.023C355.133 246.395 355.314 246.99 355.314 247.811V252H354.342ZM362.867 248.783C362.867 249.83 362.604 250.648 362.076 251.238C361.549 251.824 360.82 252.117 359.891 252.117C359.316 252.117 358.807 251.982 358.361 251.713C357.916 251.443 357.572 251.057 357.33 250.553C357.088 250.049 356.967 249.459 356.967 248.783C356.967 247.736 357.229 246.922 357.752 246.34C358.275 245.754 359.002 245.461 359.932 245.461C360.83 245.461 361.543 245.76 362.07 246.357C362.602 246.955 362.867 247.764 362.867 248.783ZM357.975 248.783C357.975 249.604 358.139 250.229 358.467 250.658C358.795 251.088 359.277 251.303 359.914 251.303C360.551 251.303 361.033 251.09 361.361 250.664C361.693 250.234 361.859 249.607 361.859 248.783C361.859 247.967 361.693 247.348 361.361 246.926C361.033 246.5 360.547 246.287 359.902 246.287C359.266 246.287 358.785 246.496 358.461 246.914C358.137 247.332 357.975 247.955 357.975 248.783ZM365.551 252H364.578V245.578H365.551V252ZM364.496 243.838C364.496 243.615 364.551 243.453 364.66 243.352C364.77 243.246 364.906 243.193 365.07 243.193C365.227 243.193 365.361 243.246 365.475 243.352C365.588 243.457 365.645 243.619 365.645 243.838C365.645 244.057 365.588 244.221 365.475 244.33C365.361 244.436 365.227 244.488 365.07 244.488C364.906 244.488 364.77 244.436 364.66 244.33C364.551 244.221 364.496 244.057 364.496 243.838ZM371.984 251.139H371.932C371.482 251.791 370.811 252.117 369.916 252.117C369.076 252.117 368.422 251.83 367.953 251.256C367.488 250.682 367.256 249.865 367.256 248.807C367.256 247.748 367.49 246.926 367.959 246.34C368.428 245.754 369.08 245.461 369.916 245.461C370.787 245.461 371.455 245.777 371.92 246.41H371.996L371.955 245.947L371.932 245.496V242.883H372.904V252H372.113L371.984 251.139ZM370.039 251.303C370.703 251.303 371.184 251.123 371.48 250.764C371.781 250.4 371.932 249.816 371.932 249.012V248.807C371.932 247.896 371.779 247.248 371.475 246.861C371.174 246.471 370.691 246.275 370.027 246.275C369.457 246.275 369.02 246.498 368.715 246.943C368.414 247.385 368.264 248.01 368.264 248.818C368.264 249.639 368.414 250.258 368.715 250.676C369.016 251.094 369.457 251.303 370.039 251.303Z" fill="black"/>
<path d="M414.656 248.438V252H413.66V243.434H416.01C417.061 243.434 417.836 243.635 418.336 244.037C418.84 244.439 419.092 245.045 419.092 245.854C419.092 246.986 418.518 247.752 417.369 248.15L419.695 252H418.518L416.443 248.438H414.656ZM414.656 247.582H416.021C416.725 247.582 417.24 247.443 417.568 247.166C417.896 246.885 418.061 246.465 418.061 245.906C418.061 245.34 417.893 244.932 417.557 244.682C417.225 244.432 416.689 244.307 415.951 244.307H414.656V247.582ZM423.645 252.117C422.695 252.117 421.945 251.828 421.395 251.25C420.848 250.672 420.574 249.869 420.574 248.842C420.574 247.807 420.828 246.984 421.336 246.375C421.848 245.766 422.533 245.461 423.393 245.461C424.197 245.461 424.834 245.727 425.303 246.258C425.771 246.785 426.006 247.482 426.006 248.35V248.965H421.582C421.602 249.719 421.791 250.291 422.15 250.682C422.514 251.072 423.023 251.268 423.68 251.268C424.371 251.268 425.055 251.123 425.73 250.834V251.701C425.387 251.85 425.061 251.955 424.752 252.018C424.447 252.084 424.078 252.117 423.645 252.117ZM423.381 246.275C422.865 246.275 422.453 246.443 422.145 246.779C421.84 247.115 421.66 247.58 421.605 248.174H424.963C424.963 247.561 424.826 247.092 424.553 246.768C424.279 246.439 423.889 246.275 423.381 246.275ZM431.812 250.248C431.812 250.846 431.59 251.307 431.145 251.631C430.699 251.955 430.074 252.117 429.27 252.117C428.418 252.117 427.754 251.982 427.277 251.713V250.811C427.586 250.967 427.916 251.09 428.268 251.18C428.623 251.27 428.965 251.314 429.293 251.314C429.801 251.314 430.191 251.234 430.465 251.074C430.738 250.91 430.875 250.662 430.875 250.33C430.875 250.08 430.766 249.867 430.547 249.691C430.332 249.512 429.91 249.301 429.281 249.059C428.684 248.836 428.258 248.643 428.004 248.479C427.754 248.311 427.566 248.121 427.441 247.91C427.32 247.699 427.26 247.447 427.26 247.154C427.26 246.631 427.473 246.219 427.898 245.918C428.324 245.613 428.908 245.461 429.65 245.461C430.342 245.461 431.018 245.602 431.678 245.883L431.332 246.674C430.688 246.408 430.104 246.275 429.58 246.275C429.119 246.275 428.771 246.348 428.537 246.492C428.303 246.637 428.186 246.836 428.186 247.09C428.186 247.262 428.229 247.408 428.314 247.529C428.404 247.65 428.547 247.766 428.742 247.875C428.938 247.984 429.312 248.143 429.867 248.35C430.629 248.627 431.143 248.906 431.408 249.188C431.678 249.469 431.812 249.822 431.812 250.248ZM437.795 252V247.846C437.795 247.322 437.676 246.932 437.438 246.674C437.199 246.416 436.826 246.287 436.318 246.287C435.643 246.287 435.148 246.471 434.836 246.838C434.527 247.205 434.373 247.807 434.373 248.643V252H433.4V242.883H434.373V245.643C434.373 245.975 434.357 246.25 434.326 246.469H434.385C434.576 246.16 434.848 245.918 435.199 245.742C435.555 245.562 435.959 245.473 436.412 245.473C437.197 245.473 437.785 245.66 438.176 246.035C438.57 246.406 438.768 246.998 438.768 247.811V252H437.795ZM444.721 252L444.527 251.086H444.48C444.16 251.488 443.84 251.762 443.52 251.906C443.203 252.047 442.807 252.117 442.33 252.117C441.693 252.117 441.193 251.953 440.83 251.625C440.471 251.297 440.291 250.83 440.291 250.225C440.291 248.928 441.328 248.248 443.402 248.186L444.492 248.15V247.752C444.492 247.248 444.383 246.877 444.164 246.639C443.949 246.396 443.604 246.275 443.127 246.275C442.592 246.275 441.986 246.439 441.311 246.768L441.012 246.023C441.328 245.852 441.674 245.717 442.049 245.619C442.428 245.521 442.807 245.473 443.186 245.473C443.951 245.473 444.518 245.643 444.885 245.982C445.256 246.322 445.441 246.867 445.441 247.617V252H444.721ZM442.523 251.314C443.129 251.314 443.604 251.148 443.947 250.816C444.295 250.484 444.469 250.02 444.469 249.422V248.842L443.496 248.883C442.723 248.91 442.164 249.031 441.82 249.246C441.48 249.457 441.311 249.787 441.311 250.236C441.311 250.588 441.416 250.855 441.627 251.039C441.842 251.223 442.141 251.314 442.523 251.314ZM450.439 252.117C450.021 252.117 449.639 252.041 449.291 251.889C448.947 251.732 448.658 251.494 448.424 251.174H448.354C448.4 251.549 448.424 251.904 448.424 252.24V254.883H447.451V245.578H448.242L448.377 246.457H448.424C448.674 246.105 448.965 245.852 449.297 245.695C449.629 245.539 450.01 245.461 450.439 245.461C451.291 245.461 451.947 245.752 452.408 246.334C452.873 246.916 453.105 247.732 453.105 248.783C453.105 249.838 452.869 250.658 452.396 251.244C451.928 251.826 451.275 252.117 450.439 252.117ZM450.299 246.287C449.643 246.287 449.168 246.469 448.875 246.832C448.582 247.195 448.432 247.773 448.424 248.566V248.783C448.424 249.686 448.574 250.332 448.875 250.723C449.176 251.109 449.658 251.303 450.322 251.303C450.877 251.303 451.311 251.078 451.623 250.629C451.939 250.18 452.098 249.561 452.098 248.771C452.098 247.971 451.939 247.357 451.623 246.932C451.311 246.502 450.869 246.287 450.299 246.287ZM457.523 252.117C456.574 252.117 455.824 251.828 455.273 251.25C454.727 250.672 454.453 249.869 454.453 248.842C454.453 247.807 454.707 246.984 455.215 246.375C455.727 245.766 456.412 245.461 457.271 245.461C458.076 245.461 458.713 245.727 459.182 246.258C459.65 246.785 459.885 247.482 459.885 248.35V248.965H455.461C455.48 249.719 455.67 250.291 456.029 250.682C456.393 251.072 456.902 251.268 457.559 251.268C458.25 251.268 458.934 251.123 459.609 250.834V251.701C459.266 251.85 458.939 251.955 458.631 252.018C458.326 252.084 457.957 252.117 457.523 252.117ZM457.26 246.275C456.744 246.275 456.332 246.443 456.023 246.779C455.719 247.115 455.539 247.58 455.484 248.174H458.842C458.842 247.561 458.705 247.092 458.432 246.768C458.158 246.439 457.768 246.275 457.26 246.275Z" fill="black"/>
<path d="M153 67.5C151.694 67.5 150.817 68.4764 150.229 69.819C149.636 71.1749 149.255 73.0717 149.003 75.2874C148.499 79.7281 148.5 85.6355 148.5 91.5C148.5 97.3855 148.499 103.228 148.003 107.6C147.755 109.79 147.386 111.566 146.854 112.78C146.317 114.008 145.694 114.5 145 114.5L145 115.5C146.306 115.5 147.183 114.524 147.771 113.181C148.364 111.825 148.745 109.928 148.997 107.713C149.501 103.272 149.5 97.3645 149.5 91.5C149.5 85.6145 149.501 79.7719 149.997 75.4001C150.245 73.2095 150.614 71.4345 151.146 70.22C151.683 68.9923 152.306 68.5 153 68.5L153 67.5ZM153 161.5C152.306 161.5 151.683 161.008 151.146 159.78C150.614 158.566 150.245 156.79 149.997 154.6C149.501 150.228 149.5 144.385 149.5 138.5C149.5 132.635 149.501 126.728 148.997 122.287C148.745 120.072 148.364 118.175 147.771 116.819C147.183 115.476 146.306 114.5 145 114.5L145 115.5C145.694 115.5 146.317 115.992 146.854 117.22C147.386 118.434 147.755 120.21 148.003 122.4C148.499 126.772 148.5 132.615 148.5 138.5C148.5 144.365 148.499 150.272 149.003 154.713C149.255 156.928 149.636 158.825 150.229 160.181C150.817 161.524 151.694 162.5 153 162.5L153 161.5Z" fill="black"/>
<path d="M125.463 113.768C126.365 113.768 127.074 113.992 127.59 114.441C128.109 114.887 128.369 115.498 128.369 116.275C128.369 117.162 128.086 117.857 127.52 118.361C126.957 118.865 126.18 119.117 125.188 119.117C124.223 119.117 123.486 118.963 122.979 118.654V117.717C123.252 117.893 123.592 118.031 123.998 118.133C124.404 118.23 124.805 118.279 125.199 118.279C125.887 118.279 126.42 118.117 126.799 117.793C127.182 117.469 127.373 117 127.373 116.387C127.373 115.191 126.641 114.594 125.176 114.594C124.805 114.594 124.309 114.65 123.688 114.764L123.184 114.441L123.506 110.434H127.766V111.33H124.338L124.121 113.902C124.57 113.812 125.018 113.768 125.463 113.768ZM133.256 119H132.307V112.895C132.307 112.387 132.322 111.906 132.354 111.453C132.271 111.535 132.18 111.621 132.078 111.711C131.977 111.801 131.512 112.182 130.684 112.854L130.168 112.186L132.436 110.434H133.256V119ZM142.15 119H136.52V118.162L138.775 115.895C139.463 115.199 139.916 114.703 140.135 114.406C140.354 114.109 140.518 113.82 140.627 113.539C140.736 113.258 140.791 112.955 140.791 112.631C140.791 112.174 140.652 111.812 140.375 111.547C140.098 111.277 139.713 111.143 139.221 111.143C138.865 111.143 138.527 111.201 138.207 111.318C137.891 111.436 137.537 111.648 137.146 111.957L136.631 111.295C137.42 110.639 138.279 110.311 139.209 110.311C140.014 110.311 140.645 110.518 141.102 110.932C141.559 111.342 141.787 111.895 141.787 112.59C141.787 113.133 141.635 113.67 141.33 114.201C141.025 114.732 140.455 115.404 139.619 116.217L137.744 118.051V118.098H142.15V119Z" fill="black"/>
<path d="M241 33.5C240.255 33.5 239.685 33.9798 239.26 34.6386C238.833 35.2992 238.489 36.2305 238.203 37.3574C237.629 39.6186 237.251 42.8205 237.001 46.6234C236.5 54.2373 236.5 64.3811 236.5 74.5C236.5 84.6311 236.5 94.7373 236.001 102.311C235.751 106.102 235.379 109.228 234.828 111.396C234.552 112.484 234.24 113.293 233.9 113.819C233.56 114.347 233.255 114.5 233 114.5L233 115.5C233.745 115.5 234.315 115.02 234.74 114.361C235.167 113.701 235.511 112.769 235.797 111.643C236.371 109.381 236.749 106.179 236.999 102.377C237.5 94.7627 237.5 84.6189 237.5 74.5C237.5 64.3689 237.5 54.2627 237.999 46.6891C238.249 42.8982 238.621 39.772 239.172 37.6035C239.448 36.5156 239.76 35.7067 240.1 35.1808C240.44 34.653 240.745 34.5 241 34.5L241 33.5ZM241 195.5C240.745 195.5 240.44 195.347 240.1 194.819C239.76 194.293 239.448 193.484 239.172 192.396C238.621 190.228 238.249 187.102 237.999 183.311C237.5 175.737 237.5 165.631 237.5 155.5C237.5 145.381 237.5 135.237 236.999 127.623C236.749 123.821 236.371 120.619 235.797 118.357C235.511 117.231 235.167 116.299 234.74 115.639C234.315 114.98 233.745 114.5 233 114.5L233 115.5C233.255 115.5 233.56 115.653 233.9 116.181C234.24 116.707 234.552 117.516 234.828 118.604C235.379 120.772 235.751 123.898 236.001 127.689C236.5 135.263 236.5 145.369 236.5 155.5C236.5 165.619 236.5 175.763 237.001 183.377C237.251 187.179 237.629 190.381 238.203 192.643C238.489 193.769 238.833 194.701 239.26 195.361C239.685 196.02 240.255 196.5 241 196.5L241 195.5Z" fill="black"/>
<path d="M207.455 119H206.506V112.895C206.506 112.387 206.521 111.906 206.553 111.453C206.471 111.535 206.379 111.621 206.277 111.711C206.176 111.801 205.711 112.182 204.883 112.854L204.367 112.186L206.635 110.434H207.455V119ZM216.396 114.705C216.396 116.186 216.162 117.291 215.693 118.021C215.229 118.752 214.516 119.117 213.555 119.117C212.633 119.117 211.932 118.744 211.451 117.998C210.971 117.248 210.73 116.15 210.73 114.705C210.73 113.213 210.963 112.105 211.428 111.383C211.893 110.66 212.602 110.299 213.555 110.299C214.484 110.299 215.189 110.676 215.67 111.43C216.154 112.184 216.396 113.275 216.396 114.705ZM211.715 114.705C211.715 115.951 211.861 116.859 212.154 117.43C212.447 117.996 212.914 118.279 213.555 118.279C214.203 118.279 214.672 117.992 214.961 117.418C215.254 116.84 215.4 115.936 215.4 114.705C215.4 113.475 215.254 112.574 214.961 112.004C214.672 111.43 214.203 111.143 213.555 111.143C212.914 111.143 212.447 111.426 212.154 111.992C211.861 112.555 211.715 113.459 211.715 114.705ZM223.217 119H217.586V118.162L219.842 115.895C220.529 115.199 220.982 114.703 221.201 114.406C221.42 114.109 221.584 113.82 221.693 113.539C221.803 113.258 221.857 112.955 221.857 112.631C221.857 112.174 221.719 111.812 221.441 111.547C221.164 111.277 220.779 111.143 220.287 111.143C219.932 111.143 219.594 111.201 219.273 111.318C218.957 111.436 218.604 111.648 218.213 111.957L217.697 111.295C218.486 110.639 219.346 110.311 220.275 110.311C221.08 110.311 221.711 110.518 222.168 110.932C222.625 111.342 222.854 111.895 222.854 112.59C222.854 113.133 222.701 113.67 222.396 114.201C222.092 114.732 221.521 115.404 220.686 116.217L218.811 118.051V118.098H223.217V119ZM230.488 117.031H229.217V119H228.285V117.031H224.119V116.182L228.186 110.387H229.217V116.146H230.488V117.031ZM228.285 116.146V113.299C228.285 112.74 228.305 112.109 228.344 111.406H228.297C228.109 111.781 227.934 112.092 227.77 112.338L225.092 116.146H228.285Z" fill="black"/>
<path d="M329 0.500001C328.586 0.500001 328.232 0.688884 327.946 0.970218C327.665 1.24534 327.43 1.62587 327.225 2.07189C326.816 2.96472 326.479 4.23871 326.195 5.80965C325.627 8.9609 325.251 13.4414 325.001 18.7891C324.5 29.491 324.5 43.7544 324.5 58C324.5 72.2544 324.5 86.491 324.001 97.1641C323.751 102.504 323.377 106.93 322.82 110.013C322.541 111.559 322.222 112.734 321.866 113.511C321.687 113.9 321.513 114.16 321.354 114.316C321.201 114.466 321.086 114.5 321 114.5L321 115.5C321.414 115.5 321.768 115.311 322.054 115.03C322.335 114.755 322.57 114.374 322.775 113.928C323.184 113.035 323.521 111.761 323.805 110.19C324.373 107.039 324.749 102.559 324.999 97.2109C325.5 86.509 325.5 72.2456 325.5 58C325.5 43.7456 325.5 29.509 325.999 18.8359C326.249 13.4961 326.623 9.07035 327.18 5.98723C327.459 4.44098 327.778 3.26576 328.134 2.48866C328.313 2.09972 328.487 1.84012 328.646 1.68384C328.799 1.53377 328.914 1.5 329 1.5L329 0.500001ZM329 228.5C328.914 228.5 328.799 228.466 328.646 228.316C328.487 228.16 328.313 227.9 328.134 227.511C327.778 226.734 327.459 225.559 327.18 224.013C326.623 220.93 326.249 216.504 325.999 211.164C325.5 200.491 325.5 186.254 325.5 172C325.5 157.754 325.5 143.491 324.999 132.789C324.749 127.441 324.373 122.961 323.805 119.81C323.521 118.239 323.184 116.965 322.775 116.072C322.57 115.626 322.335 115.245 322.054 114.97C321.768 114.689 321.414 114.5 321 114.5L321 115.5C321.086 115.5 321.201 115.534 321.354 115.684C321.513 115.84 321.687 116.1 321.866 116.489C322.222 117.266 322.541 118.441 322.82 119.987C323.377 123.07 323.751 127.496 324.001 132.836C324.5 143.509 324.5 157.746 324.5 172C324.5 186.246 324.5 200.509 325.001 211.211C325.251 216.559 325.627 221.039 326.195 224.19C326.479 225.761 326.816 227.035 327.225 227.928C327.43 228.374 327.665 228.755 327.946 229.03C328.232 229.311 328.586 229.5 329 229.5L329 228.5Z" fill="black"/>
<path d="M297.16 112.449C297.16 112.996 297.006 113.443 296.697 113.791C296.393 114.139 295.959 114.371 295.396 114.488V114.535C296.084 114.621 296.594 114.84 296.926 115.191C297.258 115.543 297.424 116.004 297.424 116.574C297.424 117.391 297.141 118.02 296.574 118.461C296.008 118.898 295.203 119.117 294.16 119.117C293.707 119.117 293.291 119.082 292.912 119.012C292.537 118.945 292.172 118.826 291.816 118.654V117.729C292.188 117.912 292.582 118.053 293 118.15C293.422 118.244 293.82 118.291 294.195 118.291C295.676 118.291 296.416 117.711 296.416 116.551C296.416 115.512 295.6 114.992 293.967 114.992H293.123V114.154H293.979C294.646 114.154 295.176 114.008 295.566 113.715C295.957 113.418 296.152 113.008 296.152 112.484C296.152 112.066 296.008 111.738 295.719 111.5C295.434 111.262 295.045 111.143 294.553 111.143C294.178 111.143 293.824 111.193 293.492 111.295C293.16 111.396 292.781 111.584 292.355 111.857L291.863 111.201C292.215 110.924 292.619 110.707 293.076 110.551C293.537 110.391 294.021 110.311 294.529 110.311C295.361 110.311 296.008 110.502 296.469 110.885C296.93 111.264 297.16 111.785 297.16 112.449ZM304.396 114.705C304.396 116.186 304.162 117.291 303.693 118.021C303.229 118.752 302.516 119.117 301.555 119.117C300.633 119.117 299.932 118.744 299.451 117.998C298.971 117.248 298.73 116.15 298.73 114.705C298.73 113.213 298.963 112.105 299.428 111.383C299.893 110.66 300.602 110.299 301.555 110.299C302.484 110.299 303.189 110.676 303.67 111.43C304.154 112.184 304.396 113.275 304.396 114.705ZM299.715 114.705C299.715 115.951 299.861 116.859 300.154 117.43C300.447 117.996 300.914 118.279 301.555 118.279C302.203 118.279 302.672 117.992 302.961 117.418C303.254 116.84 303.4 115.936 303.4 114.705C303.4 113.475 303.254 112.574 302.961 112.004C302.672 111.43 302.203 111.143 301.555 111.143C300.914 111.143 300.447 111.426 300.154 111.992C299.861 112.555 299.715 113.459 299.715 114.705ZM306.67 119L310.221 111.33H305.551V110.434H311.252V111.213L307.748 119H306.67ZM318.084 119H312.453V118.162L314.709 115.895C315.396 115.199 315.85 114.703 316.068 114.406C316.287 114.109 316.451 113.82 316.561 113.539C316.67 113.258 316.725 112.955 316.725 112.631C316.725 112.174 316.586 111.812 316.309 111.547C316.031 111.277 315.646 111.143 315.154 111.143C314.799 111.143 314.461 111.201 314.141 111.318C313.824 111.436 313.471 111.648 313.08 111.957L312.564 111.295C313.354 110.639 314.213 110.311 315.143 110.311C315.947 110.311 316.578 110.518 317.035 110.932C317.492 111.342 317.721 111.895 317.721 112.59C317.721 113.133 317.568 113.67 317.264 114.201C316.959 114.732 316.389 115.404 315.553 116.217L313.678 118.051V118.098H318.084V119Z" fill="black"/>
<path d="M380.961 43.4492C380.961 43.9961 380.807 44.4434 380.498 44.791C380.193 45.1387 379.76 45.3711 379.197 45.4883V45.5352C379.885 45.6211 380.395 45.8398 380.727 46.1914C381.059 46.543 381.225 47.0039 381.225 47.5742C381.225 48.3906 380.941 49.0195 380.375 49.4609C379.809 49.8984 379.004 50.1172 377.961 50.1172C377.508 50.1172 377.092 50.082 376.713 50.0117C376.338 49.9453 375.973 49.8262 375.617 49.6543V48.7285C375.988 48.9121 376.383 49.0527 376.801 49.1504C377.223 49.2441 377.621 49.291 377.996 49.291C379.477 49.291 380.217 48.7109 380.217 47.5508C380.217 46.5117 379.4 45.9922 377.768 45.9922H376.924V45.1543H377.779C378.447 45.1543 378.977 45.0078 379.367 44.7148C379.758 44.418 379.953 44.0078 379.953 43.4844C379.953 43.0664 379.809 42.7383 379.52 42.5C379.234 42.2617 378.846 42.1426 378.354 42.1426C377.979 42.1426 377.625 42.1934 377.293 42.2949C376.961 42.3965 376.582 42.584 376.156 42.8574L375.664 42.2012C376.016 41.9238 376.42 41.707 376.877 41.5508C377.338 41.3906 377.822 41.3105 378.33 41.3105C379.162 41.3105 379.809 41.502 380.27 41.8848C380.73 42.2637 380.961 42.7852 380.961 43.4492Z" fill="black"/>
<path d="M387.33 52.0963C387.075 51.7571 386.802 51.5067 386.501 51.3561C386.191 51.2007 385.879 51.1658 385.581 51.2153C385.035 51.3058 384.548 51.6869 384.196 51.9518C383.782 52.2633 383.503 52.4586 383.249 52.5007C383.148 52.5175 383.051 52.5079 382.94 52.4523C382.82 52.3919 382.658 52.2649 382.463 52.0049L381.664 52.6062C381.919 52.9454 382.192 53.1958 382.492 53.3464C382.803 53.5018 383.114 53.5367 383.413 53.4872C383.959 53.3967 384.446 53.0156 384.798 52.7507C385.212 52.4392 385.49 52.2439 385.744 52.2018C385.846 52.185 385.942 52.1946 386.053 52.2502C386.174 52.3105 386.335 52.4376 386.531 52.6976L387.33 52.0963ZM381.204 56.7074C381.008 56.4473 380.93 56.2571 380.906 56.1246C380.883 56.0025 380.901 55.9071 380.945 55.8143C381.056 55.5818 381.32 55.3679 381.734 55.0563C382.086 54.7915 382.587 54.429 382.825 53.9296C382.955 53.6565 383.008 53.3471 382.945 53.006C382.883 52.6753 382.718 52.3441 382.463 52.0049L381.664 52.6062C381.859 52.8663 381.937 53.0565 381.962 53.1889C381.984 53.3111 381.967 53.4065 381.923 53.4993C381.812 53.7318 381.547 53.9457 381.133 54.2573C380.781 54.5221 380.28 54.8846 380.042 55.384C379.912 55.6571 379.859 55.9665 379.923 56.3076C379.984 56.6383 380.149 56.9695 380.405 57.3087L381.204 56.7074Z" fill="black"/>
<path d="M384 60.4366L389.889 56L490 56V156.563L484.111 161H384V60.4366Z" fill="white"/>
<path d="M384 60.4366L389.889 56L490 56M384 60.4366H484.111M384 60.4366V161H484.111M490 56L484.111 60.4366M490 56V156.563L484.111 161M484.111 60.4366V161" stroke="black" stroke-width="2"/>
<line x1="245.68" y1="195.196" x2="167.68" y2="68.1963" stroke="black" stroke-width="0.75" stroke-dasharray="2 3"/>
<line x1="167.68" y1="161.804" x2="245.68" y2="34.8037" stroke="black" stroke-width="0.75" stroke-dasharray="2 3"/>
<line x1="333.652" y1="228.141" x2="255.652" y2="35.1405" stroke="black" stroke-width="0.75" stroke-dasharray="2 3"/>
<line x1="255.652" y1="195.86" x2="333.652" y2="1.86012" stroke="black" stroke-width="0.75" stroke-dasharray="2 3"/>
<rect x="168" y="68" width="94" height="10" transform="rotate(90 168 68)" fill="white" stroke="black" stroke-width="2"/>
<rect x="256" y="34" width="162" height="9.99999" transform="rotate(90 256 34)" fill="white" stroke="black" stroke-width="2"/>
<rect x="344" y="1" width="228" height="9.99999" transform="rotate(90 344 1)" fill="white" stroke="black" stroke-width="2"/>
<path d="M374.354 115.354C374.549 115.158 374.549 114.842 374.354 114.646L371.172 111.464C370.976 111.269 370.66 111.269 370.464 111.464C370.269 111.66 370.269 111.976 370.464 112.172L373.293 115L370.464 117.828C370.269 118.024 370.269 118.34 370.464 118.536C370.66 118.731 370.976 118.731 371.172 118.536L374.354 115.354ZM354 115.5H374V114.5H354V115.5Z" fill="black"/>
<path d="M24.252 252V243.434H25.248V252H24.252ZM35.6426 252V247.822C35.6426 247.311 35.5332 246.928 35.3145 246.674C35.0957 246.416 34.7559 246.287 34.2949 246.287C33.6895 246.287 33.2422 246.461 32.9531 246.809C32.6641 247.156 32.5195 247.691 32.5195 248.414V252H31.5469V247.822C31.5469 247.311 31.4375 246.928 31.2188 246.674C31 246.416 30.6582 246.287 30.1934 246.287C29.584 246.287 29.1367 246.471 28.8516 246.838C28.5703 247.201 28.4297 247.799 28.4297 248.631V252H27.457V245.578H28.248L28.4062 246.457H28.4531C28.6367 246.145 28.8945 245.9 29.2266 245.725C29.5625 245.549 29.9375 245.461 30.3516 245.461C31.3555 245.461 32.0117 245.824 32.3203 246.551H32.3672C32.5586 246.215 32.8359 245.949 33.1992 245.754C33.5625 245.559 33.9766 245.461 34.4414 245.461C35.168 245.461 35.7109 245.648 36.0703 246.023C36.4336 246.395 36.6152 246.99 36.6152 247.811V252H35.6426ZM42.5742 252L42.3809 251.086H42.334C42.0137 251.488 41.6934 251.762 41.373 251.906C41.0566 252.047 40.6602 252.117 40.1836 252.117C39.5469 252.117 39.0469 251.953 38.6836 251.625C38.3242 251.297 38.1445 250.83 38.1445 250.225C38.1445 248.928 39.1816 248.248 41.2559 248.186L42.3457 248.15V247.752C42.3457 247.248 42.2363 246.877 42.0176 246.639C41.8027 246.396 41.457 246.275 40.9805 246.275C40.4453 246.275 39.8398 246.439 39.1641 246.768L38.8652 246.023C39.1816 245.852 39.5273 245.717 39.9023 245.619C40.2812 245.521 40.6602 245.473 41.0391 245.473C41.8047 245.473 42.3711 245.643 42.7383 245.982C43.1094 246.322 43.2949 246.867 43.2949 247.617V252H42.5742ZM40.377 251.314C40.9824 251.314 41.457 251.148 41.8008 250.816C42.1484 250.484 42.3223 250.02 42.3223 249.422V248.842L41.3496 248.883C40.5762 248.91 40.0176 249.031 39.6738 249.246C39.334 249.457 39.1641 249.787 39.1641 250.236C39.1641 250.588 39.2695 250.855 39.4805 251.039C39.6953 251.223 39.9941 251.314 40.377 251.314ZM50.5605 245.578V246.193L49.3711 246.334C49.4805 246.471 49.5781 246.65 49.6641 246.873C49.75 247.092 49.793 247.34 49.793 247.617C49.793 248.246 49.5781 248.748 49.1484 249.123C48.7188 249.498 48.1289 249.686 47.3789 249.686C47.1875 249.686 47.0078 249.67 46.8398 249.639C46.4258 249.857 46.2188 250.133 46.2188 250.465C46.2188 250.641 46.291 250.771 46.4355 250.857C46.5801 250.939 46.8281 250.98 47.1797 250.98H48.3164C49.0117 250.98 49.5449 251.127 49.916 251.42C50.291 251.713 50.4785 252.139 50.4785 252.697C50.4785 253.408 50.1934 253.949 49.623 254.32C49.0527 254.695 48.2207 254.883 47.127 254.883C46.2871 254.883 45.6387 254.727 45.1816 254.414C44.7285 254.102 44.502 253.66 44.502 253.09C44.502 252.699 44.627 252.361 44.877 252.076C45.127 251.791 45.4785 251.598 45.9316 251.496C45.7676 251.422 45.6289 251.307 45.5156 251.15C45.4062 250.994 45.3516 250.812 45.3516 250.605C45.3516 250.371 45.4141 250.166 45.5391 249.99C45.6641 249.814 45.8613 249.645 46.1309 249.48C45.7988 249.344 45.5273 249.111 45.3164 248.783C45.1094 248.455 45.0059 248.08 45.0059 247.658C45.0059 246.955 45.2168 246.414 45.6387 246.035C46.0605 245.652 46.6582 245.461 47.4316 245.461C47.7676 245.461 48.0703 245.5 48.3398 245.578H50.5605ZM45.4395 253.078C45.4395 253.426 45.5859 253.689 45.8789 253.869C46.1719 254.049 46.5918 254.139 47.1387 254.139C47.9551 254.139 48.5586 254.016 48.9492 253.77C49.3438 253.527 49.541 253.197 49.541 252.779C49.541 252.432 49.4336 252.189 49.2188 252.053C49.0039 251.92 48.5996 251.854 48.0059 251.854H46.8398C46.3984 251.854 46.0547 251.959 45.8086 252.17C45.5625 252.381 45.4395 252.684 45.4395 253.078ZM45.9668 247.635C45.9668 248.084 46.0938 248.424 46.3477 248.654C46.6016 248.885 46.9551 249 47.4082 249C48.3574 249 48.832 248.539 48.832 247.617C48.832 246.652 48.3516 246.17 47.3906 246.17C46.9336 246.17 46.582 246.293 46.3359 246.539C46.0898 246.785 45.9668 247.15 45.9668 247.635ZM54.5918 252.117C53.6426 252.117 52.8926 251.828 52.3418 251.25C51.7949 250.672 51.5215 249.869 51.5215 248.842C51.5215 247.807 51.7754 246.984 52.2832 246.375C52.7949 245.766 53.4805 245.461 54.3398 245.461C55.1445 245.461 55.7812 245.727 56.25 246.258C56.7188 246.785 56.9531 247.482 56.9531 248.35V248.965H52.5293C52.5488 249.719 52.7383 250.291 53.0977 250.682C53.4609 251.072 53.9707 251.268 54.627 251.268C55.3184 251.268 56.002 251.123 56.6777 250.834V251.701C56.334 251.85 56.0078 251.955 55.6992 252.018C55.3945 252.084 55.0254 252.117 54.5918 252.117ZM54.3281 246.275C53.8125 246.275 53.4004 246.443 53.0918 246.779C52.7871 247.115 52.6074 247.58 52.5527 248.174H55.9102C55.9102 247.561 55.7734 247.092 55.5 246.768C55.2266 246.439 54.8359 246.275 54.3281 246.275ZM62.4316 244.201C61.4902 244.201 60.7461 244.516 60.1992 245.145C59.6562 245.77 59.3848 246.627 59.3848 247.717C59.3848 248.838 59.6465 249.705 60.1699 250.318C60.6973 250.928 61.4473 251.232 62.4199 251.232C63.0176 251.232 63.6992 251.125 64.4648 250.91V251.783C63.8711 252.006 63.1387 252.117 62.2676 252.117C61.0059 252.117 60.0312 251.734 59.3438 250.969C58.6602 250.203 58.3184 249.115 58.3184 247.705C58.3184 246.822 58.4824 246.049 58.8105 245.385C59.1426 244.721 59.6191 244.209 60.2402 243.85C60.8652 243.49 61.5996 243.311 62.4434 243.311C63.3418 243.311 64.127 243.475 64.7988 243.803L64.377 244.658C63.7285 244.354 63.0801 244.201 62.4316 244.201ZM70.1367 252L69.9434 251.086H69.8965C69.5762 251.488 69.2559 251.762 68.9355 251.906C68.6191 252.047 68.2227 252.117 67.7461 252.117C67.1094 252.117 66.6094 251.953 66.2461 251.625C65.8867 251.297 65.707 250.83 65.707 250.225C65.707 248.928 66.7441 248.248 68.8184 248.186L69.9082 248.15V247.752C69.9082 247.248 69.7988 246.877 69.5801 246.639C69.3652 246.396 69.0195 246.275 68.543 246.275C68.0078 246.275 67.4023 246.439 66.7266 246.768L66.4277 246.023C66.7441 245.852 67.0898 245.717 67.4648 245.619C67.8438 245.521 68.2227 245.473 68.6016 245.473C69.3672 245.473 69.9336 245.643 70.3008 245.982C70.6719 246.322 70.8574 246.867 70.8574 247.617V252H70.1367ZM67.9395 251.314C68.5449 251.314 69.0195 251.148 69.3633 250.816C69.7109 250.484 69.8848 250.02 69.8848 249.422V248.842L68.9121 248.883C68.1387 248.91 67.5801 249.031 67.2363 249.246C66.8965 249.457 66.7266 249.787 66.7266 250.236C66.7266 250.588 66.832 250.855 67.043 251.039C67.2578 251.223 67.5566 251.314 67.9395 251.314ZM75.8555 252.117C75.4375 252.117 75.0547 252.041 74.707 251.889C74.3633 251.732 74.0742 251.494 73.8398 251.174H73.7695C73.8164 251.549 73.8398 251.904 73.8398 252.24V254.883H72.8672V245.578H73.6582L73.793 246.457H73.8398C74.0898 246.105 74.3809 245.852 74.7129 245.695C75.0449 245.539 75.4258 245.461 75.8555 245.461C76.707 245.461 77.3633 245.752 77.8242 246.334C78.2891 246.916 78.5215 247.732 78.5215 248.783C78.5215 249.838 78.2852 250.658 77.8125 251.244C77.3438 251.826 76.6914 252.117 75.8555 252.117ZM75.7148 246.287C75.0586 246.287 74.584 246.469 74.291 246.832C73.998 247.195 73.8477 247.773 73.8398 248.566V248.783C73.8398 249.686 73.9902 250.332 74.291 250.723C74.5918 251.109 75.0742 251.303 75.7383 251.303C76.293 251.303 76.7266 251.078 77.0391 250.629C77.3555 250.18 77.5137 249.561 77.5137 248.771C77.5137 247.971 77.3555 247.357 77.0391 246.932C76.7266 246.502 76.2852 246.287 75.7148 246.287ZM84.3691 250.248C84.3691 250.846 84.1465 251.307 83.7012 251.631C83.2559 251.955 82.6309 252.117 81.8262 252.117C80.9746 252.117 80.3105 251.982 79.834 251.713V250.811C80.1426 250.967 80.4727 251.09 80.8242 251.18C81.1797 251.27 81.5215 251.314 81.8496 251.314C82.3574 251.314 82.748 251.234 83.0215 251.074C83.2949 250.91 83.4316 250.662 83.4316 250.33C83.4316 250.08 83.3223 249.867 83.1035 249.691C82.8887 249.512 82.4668 249.301 81.8379 249.059C81.2402 248.836 80.8145 248.643 80.5605 248.479C80.3105 248.311 80.123 248.121 79.998 247.91C79.877 247.699 79.8164 247.447 79.8164 247.154C79.8164 246.631 80.0293 246.219 80.4551 245.918C80.8809 245.613 81.4648 245.461 82.207 245.461C82.8984 245.461 83.5742 245.602 84.2344 245.883L83.8887 246.674C83.2441 246.408 82.6602 246.275 82.1367 246.275C81.6758 246.275 81.3281 246.348 81.0938 246.492C80.8594 246.637 80.7422 246.836 80.7422 247.09C80.7422 247.262 80.7852 247.408 80.8711 247.529C80.9609 247.65 81.1035 247.766 81.2988 247.875C81.4941 247.984 81.8691 248.143 82.4238 248.35C83.1855 248.627 83.6992 248.906 83.9648 249.188C84.2344 249.469 84.3691 249.822 84.3691 250.248Z" fill="black"/>
<path d="M27.5 160C27.5 161.161 27.9825 162.052 28.8069 162.705C29.6074 163.338 30.7121 163.733 31.962 163.99C34.4604 164.502 37.7685 164.5 41 164.5C44.2685 164.5 47.4604 164.502 49.837 164.99C51.0246 165.233 51.9512 165.588 52.5726 166.08C53.17 166.552 53.5 167.161 53.5 168L54.5 168C54.5 166.839 54.0175 165.948 53.1931 165.295C52.3926 164.662 51.2879 164.267 50.038 164.01C47.5396 163.498 44.2315 163.5 41 163.5C37.7315 163.5 34.5396 163.498 32.163 163.01C30.9754 162.767 30.0488 162.412 29.4274 161.92C28.83 161.448 28.5 160.839 28.5 160L27.5 160ZM79.5 160C79.5 160.839 79.17 161.448 78.5726 161.92C77.9512 162.412 77.0246 162.767 75.837 163.01C73.4604 163.498 70.2685 163.5 67 163.5C63.7685 163.5 60.4604 163.498 57.962 164.01C56.7121 164.267 55.6074 164.662 54.8069 165.295C53.9825 165.948 53.5 166.839 53.5 168L54.5 168C54.5 167.161 54.83 166.552 55.4274 166.08C56.0488 165.588 56.9754 165.233 58.163 164.99C60.5396 164.502 63.7315 164.5 67 164.5C70.2315 164.5 73.5396 164.502 76.038 163.99C77.2879 163.733 78.3926 163.338 79.1931 162.705C80.0175 162.052 80.5 161.161 80.5 160L79.5 160Z" fill="black"/>
<path d="M23 74.5C21.7377 74.5 20.8503 75.3091 20.2429 76.4901C19.6404 77.6616 19.2565 79.293 19.0044 81.1839C18.499 84.9742 18.5 90.0123 18.5 95C18.5 100.012 18.499 104.974 18.0044 108.684C17.7565 110.543 17.3904 112.037 16.8679 113.053C16.3502 114.059 15.7376 114.5 15 114.5L15 115.5C16.2624 115.5 17.1498 114.691 17.7571 113.51C18.3596 112.338 18.7435 110.707 18.9956 108.816C19.501 105.026 19.5 99.9877 19.5 95C19.5 89.9877 19.501 85.0258 19.9956 81.3161C20.2435 79.457 20.6097 77.9634 21.1322 76.9474C21.6498 75.9409 22.2624 75.5 23 75.5L23 74.5ZM23 154.5C22.2624 154.5 21.6498 154.059 21.1321 153.053C20.6096 152.037 20.2435 150.543 19.9956 148.684C19.501 144.974 19.5 140.012 19.5 135C19.5 130.012 19.501 124.974 18.9956 121.184C18.7435 119.293 18.3596 117.662 17.7571 116.49C17.1498 115.309 16.2624 114.5 15 114.5L15 115.5C15.7376 115.5 16.3502 115.941 16.8679 116.947C17.3904 117.963 17.7565 119.457 18.0044 121.316C18.499 125.026 18.5 129.988 18.5 135C18.5 139.988 18.499 145.026 19.0044 148.816C19.2565 150.707 19.6404 152.338 20.2429 153.51C20.8502 154.691 21.7376 155.5 23 155.5L23 154.5Z" fill="black"/>
<path d="M51.3223 181H50.373V174.895C50.373 174.387 50.3887 173.906 50.4199 173.453C50.3379 173.535 50.2461 173.621 50.1445 173.711C50.043 173.801 49.5781 174.182 48.75 174.854L48.2344 174.186L50.502 172.434H51.3223V181ZM54.6855 177.338C54.6855 175.654 55.0117 174.396 55.6641 173.564C56.3203 172.729 57.2891 172.311 58.5703 172.311C59.0117 172.311 59.3594 172.348 59.6133 172.422V173.26C59.3125 173.162 58.9688 173.113 58.582 173.113C57.6641 173.113 56.9629 173.4 56.4785 173.975C55.9941 174.545 55.7285 175.443 55.6816 176.67H55.752C56.1816 175.998 56.8613 175.662 57.791 175.662C58.5605 175.662 59.166 175.895 59.6074 176.359C60.0527 176.824 60.2754 177.455 60.2754 178.252C60.2754 179.143 60.0312 179.844 59.543 180.355C59.0586 180.863 58.4023 181.117 57.5742 181.117C56.6875 181.117 55.9844 180.785 55.4648 180.121C54.9453 179.453 54.6855 178.525 54.6855 177.338ZM57.5625 180.291C58.1172 180.291 58.5469 180.117 58.8516 179.77C59.1602 179.418 59.3145 178.912 59.3145 178.252C59.3145 177.686 59.1719 177.24 58.8867 176.916C58.6016 176.592 58.1758 176.43 57.6094 176.43C57.2578 176.43 56.9355 176.502 56.6426 176.646C56.3496 176.791 56.1152 176.99 55.9395 177.244C55.7676 177.498 55.6816 177.762 55.6816 178.035C55.6816 178.438 55.7598 178.812 55.916 179.16C56.0723 179.508 56.293 179.783 56.5781 179.986C56.8672 180.189 57.1953 180.291 57.5625 180.291Z" fill="black"/>
<path d="M3.32227 119H2.37305V112.895C2.37305 112.387 2.38867 111.906 2.41992 111.453C2.33789 111.535 2.24609 111.621 2.14453 111.711C2.04297 111.801 1.57812 112.182 0.75 112.854L0.234375 112.186L2.50195 110.434H3.32227V119ZM12.2637 114.705C12.2637 116.186 12.0293 117.291 11.5605 118.021C11.0957 118.752 10.3828 119.117 9.42188 119.117C8.5 119.117 7.79883 118.744 7.31836 117.998C6.83789 117.248 6.59766 116.15 6.59766 114.705C6.59766 113.213 6.83008 112.105 7.29492 111.383C7.75977 110.66 8.46875 110.299 9.42188 110.299C10.3516 110.299 11.0566 110.676 11.5371 111.43C12.0215 112.184 12.2637 113.275 12.2637 114.705ZM7.58203 114.705C7.58203 115.951 7.72852 116.859 8.02148 117.43C8.31445 117.996 8.78125 118.279 9.42188 118.279C10.0703 118.279 10.5391 117.992 10.8281 117.418C11.1211 116.84 11.2676 115.936 11.2676 114.705C11.2676 113.475 11.1211 112.574 10.8281 112.004C10.5391 111.43 10.0703 111.143 9.42188 111.143C8.78125 111.143 8.31445 111.426 8.02148 111.992C7.72852 112.555 7.58203 113.459 7.58203 114.705Z" fill="black"/>
<rect x="28" y="75" width="52" height="80" fill="white" stroke="#32ACF1" stroke-width="2"/>
<line x1="157.722" y1="161.252" x2="79.7222" y2="75.2519" stroke="black" stroke-width="0.75" stroke-dasharray="2 3"/>
<line x1="79.7222" y1="154.748" x2="157.722" y2="68.7481" stroke="black" stroke-width="0.75" stroke-dasharray="2 3"/>
</svg>
