<svg width="700" height="260" viewBox="0 0 700 260" fill="none" xmlns="http://www.w3.org/2000/svg">
<path d="M499.5 167C499.5 168.512 500.465 169.587 501.92 170.335C503.365 171.078 505.387 171.556 507.746 171.871C512.474 172.501 518.762 172.5 525 172.5C531.262 172.5 537.474 172.501 542.121 173.121C544.449 173.431 546.333 173.891 547.623 174.554C548.903 175.212 549.5 176.012 549.5 177L550.5 177C550.5 175.488 549.535 174.413 548.08 173.665C546.635 172.922 544.613 172.444 542.254 172.129C537.526 171.499 531.238 171.5 525 171.5C518.738 171.5 512.526 171.499 507.879 170.879C505.551 170.569 503.667 170.109 502.377 169.446C501.097 168.788 500.5 167.988 500.5 167L499.5 167ZM599.5 167C599.5 167.988 598.903 168.788 597.623 169.446C596.333 170.109 594.449 170.569 592.121 170.879C587.474 171.499 581.262 171.5 575 171.5C568.762 171.5 562.474 171.499 557.746 172.129C555.387 172.444 553.365 172.922 551.92 173.665C550.465 174.413 549.5 175.488 549.5 177L550.5 177C550.5 176.012 551.097 175.212 552.377 174.554C553.667 173.891 555.551 173.431 557.879 173.121C562.526 172.501 568.738 172.5 575 172.5C581.238 172.5 587.526 172.501 592.254 171.871C594.613 171.556 596.635 171.078 598.08 170.335C599.535 169.587 600.5 168.512 600.5 167L599.5 167Z" fill="black"/>
<path d="M499.5 167C499.5 168.512 500.465 169.587 501.92 170.335C503.365 171.078 505.387 171.556 507.746 171.871C512.474 172.501 518.762 172.5 525 172.5C531.262 172.5 537.474 172.501 542.121 173.121C544.449 173.431 546.333 173.891 547.623 174.554C548.903 175.212 549.5 176.012 549.5 177L550.5 177C550.5 175.488 549.535 174.413 548.08 173.665C546.635 172.922 544.613 172.444 542.254 172.129C537.526 171.499 531.238 171.5 525 171.5C518.738 171.5 512.526 171.499 507.879 170.879C505.551 170.569 503.667 170.109 502.377 169.446C501.097 168.788 500.5 167.988 500.5 167L499.5 167ZM599.5 167C599.5 167.988 598.903 168.788 597.623 169.446C596.333 170.109 594.449 170.569 592.121 170.879C587.474 171.499 581.262 171.5 575 171.5C568.762 171.5 562.474 171.499 557.746 172.129C555.387 172.444 553.365 172.922 551.92 173.665C550.465 174.413 549.5 175.488 549.5 177L550.5 177C550.5 176.012 551.097 175.212 552.377 174.554C553.667 173.891 555.551 173.431 557.879 173.121C562.526 172.501 568.738 172.5 575 172.5C581.238 172.5 587.526 172.501 592.254 171.871C594.613 171.556 596.635 171.078 598.08 170.335C599.535 169.587 600.5 168.512 600.5 167L599.5 167Z" fill="black"/>
<path d="M549.027 183.449C549.027 183.996 548.873 184.443 548.564 184.791C548.26 185.139 547.826 185.371 547.264 185.488V185.535C547.951 185.621 548.461 185.84 548.793 186.191C549.125 186.543 549.291 187.004 549.291 187.574C549.291 188.391 549.008 189.02 548.441 189.461C547.875 189.898 547.07 190.117 546.027 190.117C545.574 190.117 545.158 190.082 544.779 190.012C544.404 189.945 544.039 189.826 543.684 189.654V188.729C544.055 188.912 544.449 189.053 544.867 189.15C545.289 189.244 545.688 189.291 546.062 189.291C547.543 189.291 548.283 188.711 548.283 187.551C548.283 186.512 547.467 185.992 545.834 185.992H544.99V185.154H545.846C546.514 185.154 547.043 185.008 547.434 184.715C547.824 184.418 548.02 184.008 548.02 183.484C548.02 183.066 547.875 182.738 547.586 182.5C547.301 182.262 546.912 182.143 546.42 182.143C546.045 182.143 545.691 182.193 545.359 182.295C545.027 182.396 544.648 182.584 544.223 182.857L543.73 182.201C544.082 181.924 544.486 181.707 544.943 181.551C545.404 181.391 545.889 181.311 546.396 181.311C547.229 181.311 547.875 181.502 548.336 181.885C548.797 182.264 549.027 182.785 549.027 183.449ZM556.217 190H550.586V189.162L552.842 186.895C553.529 186.199 553.982 185.703 554.201 185.406C554.42 185.109 554.584 184.82 554.693 184.539C554.803 184.258 554.857 183.955 554.857 183.631C554.857 183.174 554.719 182.812 554.441 182.547C554.164 182.277 553.779 182.143 553.287 182.143C552.932 182.143 552.594 182.201 552.273 182.318C551.957 182.436 551.604 182.648 551.213 182.957L550.697 182.295C551.486 181.639 552.346 181.311 553.275 181.311C554.08 181.311 554.711 181.518 555.168 181.932C555.625 182.342 555.854 182.895 555.854 183.59C555.854 184.133 555.701 184.67 555.396 185.201C555.092 185.732 554.521 186.404 553.686 187.217L551.811 189.051V189.098H556.217V190Z" fill="black"/>
<path d="M145.025 248.635C145.025 250.049 144.641 251.131 143.871 251.881C143.105 252.627 142.002 253 140.561 253H138.188V244.434H140.812C142.145 244.434 143.18 244.803 143.918 245.541C144.656 246.279 145.025 247.311 145.025 248.635ZM143.971 248.67C143.971 247.553 143.689 246.711 143.127 246.145C142.568 245.578 141.736 245.295 140.631 245.295H139.184V252.139H140.396C141.584 252.139 142.477 251.848 143.074 251.266C143.672 250.68 143.971 249.814 143.971 248.67ZM147.768 253H146.795V246.578H147.768V253ZM146.713 244.838C146.713 244.615 146.768 244.453 146.877 244.352C146.986 244.246 147.123 244.193 147.287 244.193C147.443 244.193 147.578 244.246 147.691 244.352C147.805 244.457 147.861 244.619 147.861 244.838C147.861 245.057 147.805 245.221 147.691 245.33C147.578 245.436 147.443 245.488 147.287 245.488C147.123 245.488 146.986 245.436 146.877 245.33C146.768 245.221 146.713 245.057 146.713 244.838ZM155.086 246.578V247.193L153.896 247.334C154.006 247.471 154.104 247.65 154.189 247.873C154.275 248.092 154.318 248.34 154.318 248.617C154.318 249.246 154.104 249.748 153.674 250.123C153.244 250.498 152.654 250.686 151.904 250.686C151.713 250.686 151.533 250.67 151.365 250.639C150.951 250.857 150.744 251.133 150.744 251.465C150.744 251.641 150.816 251.771 150.961 251.857C151.105 251.939 151.354 251.98 151.705 251.98H152.842C153.537 251.98 154.07 252.127 154.441 252.42C154.816 252.713 155.004 253.139 155.004 253.697C155.004 254.408 154.719 254.949 154.148 255.32C153.578 255.695 152.746 255.883 151.652 255.883C150.812 255.883 150.164 255.727 149.707 255.414C149.254 255.102 149.027 254.66 149.027 254.09C149.027 253.699 149.152 253.361 149.402 253.076C149.652 252.791 150.004 252.598 150.457 252.496C150.293 252.422 150.154 252.307 150.041 252.15C149.932 251.994 149.877 251.812 149.877 251.605C149.877 251.371 149.939 251.166 150.064 250.99C150.189 250.814 150.387 250.645 150.656 250.48C150.324 250.344 150.053 250.111 149.842 249.783C149.635 249.455 149.531 249.08 149.531 248.658C149.531 247.955 149.742 247.414 150.164 247.035C150.586 246.652 151.184 246.461 151.957 246.461C152.293 246.461 152.596 246.5 152.865 246.578H155.086ZM149.965 254.078C149.965 254.426 150.111 254.689 150.404 254.869C150.697 255.049 151.117 255.139 151.664 255.139C152.48 255.139 153.084 255.016 153.475 254.77C153.869 254.527 154.066 254.197 154.066 253.779C154.066 253.432 153.959 253.189 153.744 253.053C153.529 252.92 153.125 252.854 152.531 252.854H151.365C150.924 252.854 150.58 252.959 150.334 253.17C150.088 253.381 149.965 253.684 149.965 254.078ZM150.492 248.635C150.492 249.084 150.619 249.424 150.873 249.654C151.127 249.885 151.48 250 151.934 250C152.883 250 153.357 249.539 153.357 248.617C153.357 247.652 152.877 247.17 151.916 247.17C151.459 247.17 151.107 247.293 150.861 247.539C150.615 247.785 150.492 248.15 150.492 248.635ZM157.377 253H156.404V246.578H157.377V253ZM156.322 244.838C156.322 244.615 156.377 244.453 156.486 244.352C156.596 244.246 156.732 244.193 156.896 244.193C157.053 244.193 157.188 244.246 157.301 244.352C157.414 244.457 157.471 244.619 157.471 244.838C157.471 245.057 157.414 245.221 157.301 245.33C157.188 245.436 157.053 245.488 156.896 245.488C156.732 245.488 156.596 245.436 156.486 245.33C156.377 245.221 156.322 245.057 156.322 244.838ZM161.514 252.314C161.686 252.314 161.852 252.303 162.012 252.279C162.172 252.252 162.299 252.225 162.393 252.197V252.941C162.287 252.992 162.131 253.033 161.924 253.064C161.721 253.1 161.537 253.117 161.373 253.117C160.131 253.117 159.51 252.463 159.51 251.154V247.334H158.59V246.865L159.51 246.461L159.92 245.09H160.482V246.578H162.346V247.334H160.482V251.113C160.482 251.5 160.574 251.797 160.758 252.004C160.941 252.211 161.193 252.314 161.514 252.314ZM167.496 245.201C166.555 245.201 165.811 245.516 165.264 246.145C164.721 246.77 164.449 247.627 164.449 248.717C164.449 249.838 164.711 250.705 165.234 251.318C165.762 251.928 166.512 252.232 167.484 252.232C168.082 252.232 168.764 252.125 169.529 251.91V252.783C168.936 253.006 168.203 253.117 167.332 253.117C166.07 253.117 165.096 252.734 164.408 251.969C163.725 251.203 163.383 250.115 163.383 248.705C163.383 247.822 163.547 247.049 163.875 246.385C164.207 245.721 164.684 245.209 165.305 244.85C165.93 244.49 166.664 244.311 167.508 244.311C168.406 244.311 169.191 244.475 169.863 244.803L169.441 245.658C168.793 245.354 168.145 245.201 167.496 245.201ZM175.201 253L175.008 252.086H174.961C174.641 252.488 174.32 252.762 174 252.906C173.684 253.047 173.287 253.117 172.811 253.117C172.174 253.117 171.674 252.953 171.311 252.625C170.951 252.297 170.771 251.83 170.771 251.225C170.771 249.928 171.809 249.248 173.883 249.186L174.973 249.15V248.752C174.973 248.248 174.863 247.877 174.645 247.639C174.43 247.396 174.084 247.275 173.607 247.275C173.072 247.275 172.467 247.439 171.791 247.768L171.492 247.023C171.809 246.852 172.154 246.717 172.529 246.619C172.908 246.521 173.287 246.473 173.666 246.473C174.432 246.473 174.998 246.643 175.365 246.982C175.736 247.322 175.922 247.867 175.922 248.617V253H175.201ZM173.004 252.314C173.609 252.314 174.084 252.148 174.428 251.816C174.775 251.484 174.949 251.02 174.949 250.422V249.842L173.977 249.883C173.203 249.91 172.645 250.031 172.301 250.246C171.961 250.457 171.791 250.787 171.791 251.236C171.791 251.588 171.896 251.855 172.107 252.039C172.322 252.223 172.621 252.314 173.004 252.314ZM180.92 253.117C180.502 253.117 180.119 253.041 179.771 252.889C179.428 252.732 179.139 252.494 178.904 252.174H178.834C178.881 252.549 178.904 252.904 178.904 253.24V255.883H177.932V246.578H178.723L178.857 247.457H178.904C179.154 247.105 179.445 246.852 179.777 246.695C180.109 246.539 180.49 246.461 180.92 246.461C181.771 246.461 182.428 246.752 182.889 247.334C183.354 247.916 183.586 248.732 183.586 249.783C183.586 250.838 183.35 251.658 182.877 252.244C182.408 252.826 181.756 253.117 180.92 253.117ZM180.779 247.287C180.123 247.287 179.648 247.469 179.355 247.832C179.062 248.195 178.912 248.773 178.904 249.566V249.783C178.904 250.686 179.055 251.332 179.355 251.723C179.656 252.109 180.139 252.303 180.803 252.303C181.357 252.303 181.791 252.078 182.104 251.629C182.42 251.18 182.578 250.561 182.578 249.771C182.578 248.971 182.42 248.357 182.104 247.932C181.791 247.502 181.35 247.287 180.779 247.287ZM189.434 251.248C189.434 251.846 189.211 252.307 188.766 252.631C188.32 252.955 187.695 253.117 186.891 253.117C186.039 253.117 185.375 252.982 184.898 252.713V251.811C185.207 251.967 185.537 252.09 185.889 252.18C186.244 252.27 186.586 252.314 186.914 252.314C187.422 252.314 187.812 252.234 188.086 252.074C188.359 251.91 188.496 251.662 188.496 251.33C188.496 251.08 188.387 250.867 188.168 250.691C187.953 250.512 187.531 250.301 186.902 250.059C186.305 249.836 185.879 249.643 185.625 249.479C185.375 249.311 185.188 249.121 185.062 248.91C184.941 248.699 184.881 248.447 184.881 248.154C184.881 247.631 185.094 247.219 185.52 246.918C185.945 246.613 186.529 246.461 187.271 246.461C187.963 246.461 188.639 246.602 189.299 246.883L188.953 247.674C188.309 247.408 187.725 247.275 187.201 247.275C186.74 247.275 186.393 247.348 186.158 247.492C185.924 247.637 185.807 247.836 185.807 248.09C185.807 248.262 185.85 248.408 185.936 248.529C186.025 248.65 186.168 248.766 186.363 248.875C186.559 248.984 186.934 249.143 187.488 249.35C188.25 249.627 188.764 249.906 189.029 250.188C189.299 250.469 189.434 250.822 189.434 251.248Z" fill="black"/>
<path d="M252.672 253H251.676V244.434H256.451V245.318H252.672V248.453H256.223V249.338H252.672V253ZM261.543 245.201C260.602 245.201 259.857 245.516 259.311 246.145C258.768 246.77 258.496 247.627 258.496 248.717C258.496 249.838 258.758 250.705 259.281 251.318C259.809 251.928 260.559 252.232 261.531 252.232C262.129 252.232 262.811 252.125 263.576 251.91V252.783C262.982 253.006 262.25 253.117 261.379 253.117C260.117 253.117 259.143 252.734 258.455 251.969C257.771 251.203 257.43 250.115 257.43 248.705C257.43 247.822 257.594 247.049 257.922 246.385C258.254 245.721 258.73 245.209 259.352 244.85C259.977 244.49 260.711 244.311 261.555 244.311C262.453 244.311 263.238 244.475 263.91 244.803L263.488 245.658C262.84 245.354 262.191 245.201 261.543 245.201ZM271.211 248.365H273.625V249.174H271.211V251.67H270.396V249.174H267.994V248.365H270.396V245.857H271.211V248.365ZM279.543 249.438V253H278.547V244.434H280.896C281.947 244.434 282.723 244.635 283.223 245.037C283.727 245.439 283.979 246.045 283.979 246.854C283.979 247.986 283.404 248.752 282.256 249.15L284.582 253H283.404L281.33 249.438H279.543ZM279.543 248.582H280.908C281.611 248.582 282.127 248.443 282.455 248.166C282.783 247.885 282.947 247.465 282.947 246.906C282.947 246.34 282.779 245.932 282.443 245.682C282.111 245.432 281.576 245.307 280.838 245.307H279.543V248.582ZM288.531 253.117C287.582 253.117 286.832 252.828 286.281 252.25C285.734 251.672 285.461 250.869 285.461 249.842C285.461 248.807 285.715 247.984 286.223 247.375C286.734 246.766 287.42 246.461 288.279 246.461C289.084 246.461 289.721 246.727 290.189 247.258C290.658 247.785 290.893 248.482 290.893 249.35V249.965H286.469C286.488 250.719 286.678 251.291 287.037 251.682C287.4 252.072 287.91 252.268 288.566 252.268C289.258 252.268 289.941 252.123 290.617 251.834V252.701C290.273 252.85 289.947 252.955 289.639 253.018C289.334 253.084 288.965 253.117 288.531 253.117ZM288.268 247.275C287.752 247.275 287.34 247.443 287.031 247.779C286.727 248.115 286.547 248.58 286.492 249.174H289.85C289.85 248.561 289.713 248.092 289.439 247.768C289.166 247.439 288.775 247.275 288.268 247.275ZM292.703 253V244.434H293.699V252.098H297.479V253H292.703ZM305.406 244.434V249.977C305.406 250.953 305.111 251.721 304.521 252.279C303.932 252.838 303.121 253.117 302.09 253.117C301.059 253.117 300.26 252.836 299.693 252.273C299.131 251.711 298.85 250.938 298.85 249.953V244.434H299.846V250.023C299.846 250.738 300.041 251.287 300.432 251.67C300.822 252.053 301.396 252.244 302.154 252.244C302.877 252.244 303.434 252.053 303.824 251.67C304.215 251.283 304.41 250.73 304.41 250.012V244.434H305.406Z" fill="black"/>
<path d="M340.672 253H339.676V244.434H344.451V245.318H340.672V248.453H344.223V249.338H340.672V253ZM349.543 245.201C348.602 245.201 347.857 245.516 347.311 246.145C346.768 246.77 346.496 247.627 346.496 248.717C346.496 249.838 346.758 250.705 347.281 251.318C347.809 251.928 348.559 252.232 349.531 252.232C350.129 252.232 350.811 252.125 351.576 251.91V252.783C350.982 253.006 350.25 253.117 349.379 253.117C348.117 253.117 347.143 252.734 346.455 251.969C345.771 251.203 345.43 250.115 345.43 248.705C345.43 247.822 345.594 247.049 345.922 246.385C346.254 245.721 346.73 245.209 347.352 244.85C347.977 244.49 348.711 244.311 349.555 244.311C350.453 244.311 351.238 244.475 351.91 244.803L351.488 245.658C350.84 245.354 350.191 245.201 349.543 245.201ZM359.211 248.365H361.625V249.174H359.211V251.67H358.396V249.174H355.994V248.365H358.396V245.857H359.211V248.365ZM367.543 249.438V253H366.547V244.434H368.896C369.947 244.434 370.723 244.635 371.223 245.037C371.727 245.439 371.979 246.045 371.979 246.854C371.979 247.986 371.404 248.752 370.256 249.15L372.582 253H371.404L369.33 249.438H367.543ZM367.543 248.582H368.908C369.611 248.582 370.127 248.443 370.455 248.166C370.783 247.885 370.947 247.465 370.947 246.906C370.947 246.34 370.779 245.932 370.443 245.682C370.111 245.432 369.576 245.307 368.838 245.307H367.543V248.582ZM376.531 253.117C375.582 253.117 374.832 252.828 374.281 252.25C373.734 251.672 373.461 250.869 373.461 249.842C373.461 248.807 373.715 247.984 374.223 247.375C374.734 246.766 375.42 246.461 376.279 246.461C377.084 246.461 377.721 246.727 378.189 247.258C378.658 247.785 378.893 248.482 378.893 249.35V249.965H374.469C374.488 250.719 374.678 251.291 375.037 251.682C375.4 252.072 375.91 252.268 376.566 252.268C377.258 252.268 377.941 252.123 378.617 251.834V252.701C378.273 252.85 377.947 252.955 377.639 253.018C377.334 253.084 376.965 253.117 376.531 253.117ZM376.268 247.275C375.752 247.275 375.34 247.443 375.031 247.779C374.727 248.115 374.547 248.58 374.492 249.174H377.85C377.85 248.561 377.713 248.092 377.439 247.768C377.166 247.439 376.775 247.275 376.268 247.275ZM380.703 253V244.434H381.699V252.098H385.479V253H380.703ZM393.406 244.434V249.977C393.406 250.953 393.111 251.721 392.521 252.279C391.932 252.838 391.121 253.117 390.09 253.117C389.059 253.117 388.26 252.836 387.693 252.273C387.131 251.711 386.85 250.938 386.85 249.953V244.434H387.846V250.023C387.846 250.738 388.041 251.287 388.432 251.67C388.822 252.053 389.396 252.244 390.154 252.244C390.877 252.244 391.434 252.053 391.824 251.67C392.215 251.283 392.41 250.73 392.41 250.012V244.434H393.406Z" fill="black"/>
<path d="M428.672 253H427.676V244.434H432.451V245.318H428.672V248.453H432.223V249.338H428.672V253ZM437.543 245.201C436.602 245.201 435.857 245.516 435.311 246.145C434.768 246.77 434.496 247.627 434.496 248.717C434.496 249.838 434.758 250.705 435.281 251.318C435.809 251.928 436.559 252.232 437.531 252.232C438.129 252.232 438.811 252.125 439.576 251.91V252.783C438.982 253.006 438.25 253.117 437.379 253.117C436.117 253.117 435.143 252.734 434.455 251.969C433.771 251.203 433.43 250.115 433.43 248.705C433.43 247.822 433.594 247.049 433.922 246.385C434.254 245.721 434.73 245.209 435.352 244.85C435.977 244.49 436.711 244.311 437.555 244.311C438.453 244.311 439.238 244.475 439.91 244.803L439.488 245.658C438.84 245.354 438.191 245.201 437.543 245.201ZM447.211 248.365H449.625V249.174H447.211V251.67H446.396V249.174H443.994V248.365H446.396V245.857H447.211V248.365ZM455.543 249.438V253H454.547V244.434H456.896C457.947 244.434 458.723 244.635 459.223 245.037C459.727 245.439 459.979 246.045 459.979 246.854C459.979 247.986 459.404 248.752 458.256 249.15L460.582 253H459.404L457.33 249.438H455.543ZM455.543 248.582H456.908C457.611 248.582 458.127 248.443 458.455 248.166C458.783 247.885 458.947 247.465 458.947 246.906C458.947 246.34 458.779 245.932 458.443 245.682C458.111 245.432 457.576 245.307 456.838 245.307H455.543V248.582ZM464.531 253.117C463.582 253.117 462.832 252.828 462.281 252.25C461.734 251.672 461.461 250.869 461.461 249.842C461.461 248.807 461.715 247.984 462.223 247.375C462.734 246.766 463.42 246.461 464.279 246.461C465.084 246.461 465.721 246.727 466.189 247.258C466.658 247.785 466.893 248.482 466.893 249.35V249.965H462.469C462.488 250.719 462.678 251.291 463.037 251.682C463.4 252.072 463.91 252.268 464.566 252.268C465.258 252.268 465.941 252.123 466.617 251.834V252.701C466.273 252.85 465.947 252.955 465.639 253.018C465.334 253.084 464.965 253.117 464.531 253.117ZM464.268 247.275C463.752 247.275 463.34 247.443 463.031 247.779C462.727 248.115 462.547 248.58 462.492 249.174H465.85C465.85 248.561 465.713 248.092 465.439 247.768C465.166 247.439 464.775 247.275 464.268 247.275ZM468.703 253V244.434H469.699V252.098H473.479V253H468.703ZM481.406 244.434V249.977C481.406 250.953 481.111 251.721 480.521 252.279C479.932 252.838 479.121 253.117 478.09 253.117C477.059 253.117 476.26 252.836 475.693 252.273C475.131 251.711 474.85 250.938 474.85 249.953V244.434H475.846V250.023C475.846 250.738 476.041 251.287 476.432 251.67C476.822 252.053 477.396 252.244 478.154 252.244C478.877 252.244 479.434 252.053 479.824 251.67C480.215 251.283 480.41 250.73 480.41 250.012V244.434H481.406Z" fill="black"/>
<path d="M530.656 249.438V253H529.66V244.434H532.01C533.061 244.434 533.836 244.635 534.336 245.037C534.84 245.439 535.092 246.045 535.092 246.854C535.092 247.986 534.518 248.752 533.369 249.15L535.695 253H534.518L532.443 249.438H530.656ZM530.656 248.582H532.021C532.725 248.582 533.24 248.443 533.568 248.166C533.896 247.885 534.061 247.465 534.061 246.906C534.061 246.34 533.893 245.932 533.557 245.682C533.225 245.432 532.689 245.307 531.951 245.307H530.656V248.582ZM539.645 253.117C538.695 253.117 537.945 252.828 537.395 252.25C536.848 251.672 536.574 250.869 536.574 249.842C536.574 248.807 536.828 247.984 537.336 247.375C537.848 246.766 538.533 246.461 539.393 246.461C540.197 246.461 540.834 246.727 541.303 247.258C541.771 247.785 542.006 248.482 542.006 249.35V249.965H537.582C537.602 250.719 537.791 251.291 538.15 251.682C538.514 252.072 539.023 252.268 539.68 252.268C540.371 252.268 541.055 252.123 541.73 251.834V252.701C541.387 252.85 541.061 252.955 540.752 253.018C540.447 253.084 540.078 253.117 539.645 253.117ZM539.381 247.275C538.865 247.275 538.453 247.443 538.145 247.779C537.84 248.115 537.66 248.58 537.605 249.174H540.963C540.963 248.561 540.826 248.092 540.553 247.768C540.279 247.439 539.889 247.275 539.381 247.275ZM547.812 251.248C547.812 251.846 547.59 252.307 547.145 252.631C546.699 252.955 546.074 253.117 545.27 253.117C544.418 253.117 543.754 252.982 543.277 252.713V251.811C543.586 251.967 543.916 252.09 544.268 252.18C544.623 252.27 544.965 252.314 545.293 252.314C545.801 252.314 546.191 252.234 546.465 252.074C546.738 251.91 546.875 251.662 546.875 251.33C546.875 251.08 546.766 250.867 546.547 250.691C546.332 250.512 545.91 250.301 545.281 250.059C544.684 249.836 544.258 249.643 544.004 249.479C543.754 249.311 543.566 249.121 543.441 248.91C543.32 248.699 543.26 248.447 543.26 248.154C543.26 247.631 543.473 247.219 543.898 246.918C544.324 246.613 544.908 246.461 545.65 246.461C546.342 246.461 547.018 246.602 547.678 246.883L547.332 247.674C546.688 247.408 546.104 247.275 545.58 247.275C545.119 247.275 544.771 247.348 544.537 247.492C544.303 247.637 544.186 247.836 544.186 248.09C544.186 248.262 544.229 248.408 544.314 248.529C544.404 248.65 544.547 248.766 544.742 248.875C544.938 248.984 545.312 249.143 545.867 249.35C546.629 249.627 547.143 249.906 547.408 250.188C547.678 250.469 547.812 250.822 547.812 251.248ZM553.795 253V248.846C553.795 248.322 553.676 247.932 553.438 247.674C553.199 247.416 552.826 247.287 552.318 247.287C551.643 247.287 551.148 247.471 550.836 247.838C550.527 248.205 550.373 248.807 550.373 249.643V253H549.4V243.883H550.373V246.643C550.373 246.975 550.357 247.25 550.326 247.469H550.385C550.576 247.16 550.848 246.918 551.199 246.742C551.555 246.562 551.959 246.473 552.412 246.473C553.197 246.473 553.785 246.66 554.176 247.035C554.57 247.406 554.768 247.998 554.768 248.811V253H553.795ZM560.721 253L560.527 252.086H560.48C560.16 252.488 559.84 252.762 559.52 252.906C559.203 253.047 558.807 253.117 558.33 253.117C557.693 253.117 557.193 252.953 556.83 252.625C556.471 252.297 556.291 251.83 556.291 251.225C556.291 249.928 557.328 249.248 559.402 249.186L560.492 249.15V248.752C560.492 248.248 560.383 247.877 560.164 247.639C559.949 247.396 559.604 247.275 559.127 247.275C558.592 247.275 557.986 247.439 557.311 247.768L557.012 247.023C557.328 246.852 557.674 246.717 558.049 246.619C558.428 246.521 558.807 246.473 559.186 246.473C559.951 246.473 560.518 246.643 560.885 246.982C561.256 247.322 561.441 247.867 561.441 248.617V253H560.721ZM558.523 252.314C559.129 252.314 559.604 252.148 559.947 251.816C560.295 251.484 560.469 251.02 560.469 250.422V249.842L559.496 249.883C558.723 249.91 558.164 250.031 557.82 250.246C557.48 250.457 557.311 250.787 557.311 251.236C557.311 251.588 557.416 251.855 557.627 252.039C557.842 252.223 558.141 252.314 558.523 252.314ZM566.439 253.117C566.021 253.117 565.639 253.041 565.291 252.889C564.947 252.732 564.658 252.494 564.424 252.174H564.354C564.4 252.549 564.424 252.904 564.424 253.24V255.883H563.451V246.578H564.242L564.377 247.457H564.424C564.674 247.105 564.965 246.852 565.297 246.695C565.629 246.539 566.01 246.461 566.439 246.461C567.291 246.461 567.947 246.752 568.408 247.334C568.873 247.916 569.105 248.732 569.105 249.783C569.105 250.838 568.869 251.658 568.396 252.244C567.928 252.826 567.275 253.117 566.439 253.117ZM566.299 247.287C565.643 247.287 565.168 247.469 564.875 247.832C564.582 248.195 564.432 248.773 564.424 249.566V249.783C564.424 250.686 564.574 251.332 564.875 251.723C565.176 252.109 565.658 252.303 566.322 252.303C566.877 252.303 567.311 252.078 567.623 251.629C567.939 251.18 568.098 250.561 568.098 249.771C568.098 248.971 567.939 248.357 567.623 247.932C567.311 247.502 566.869 247.287 566.299 247.287ZM573.523 253.117C572.574 253.117 571.824 252.828 571.273 252.25C570.727 251.672 570.453 250.869 570.453 249.842C570.453 248.807 570.707 247.984 571.215 247.375C571.727 246.766 572.412 246.461 573.271 246.461C574.076 246.461 574.713 246.727 575.182 247.258C575.65 247.785 575.885 248.482 575.885 249.35V249.965H571.461C571.48 250.719 571.67 251.291 572.029 251.682C572.393 252.072 572.902 252.268 573.559 252.268C574.25 252.268 574.934 252.123 575.609 251.834V252.701C575.266 252.85 574.939 252.955 574.631 253.018C574.326 253.084 573.957 253.117 573.523 253.117ZM573.26 247.275C572.744 247.275 572.332 247.443 572.023 247.779C571.719 248.115 571.539 248.58 571.484 249.174H574.842C574.842 248.561 574.705 248.092 574.432 247.768C574.158 247.439 573.768 247.275 573.26 247.275Z" fill="black"/>
<path d="M122.5 146C122.5 147.262 123.309 148.15 124.49 148.757C125.662 149.36 127.293 149.743 129.184 149.996C132.974 150.501 138.012 150.5 143 150.5C148.012 150.5 152.974 150.501 156.684 150.996C158.543 151.243 160.037 151.61 161.053 152.132C162.059 152.65 162.5 153.262 162.5 154L163.5 154C163.5 152.738 162.691 151.85 161.51 151.243C160.338 150.64 158.707 150.257 156.816 150.004C153.026 149.499 147.988 149.5 143 149.5C137.988 149.5 133.026 149.499 129.316 149.004C127.457 148.757 125.963 148.39 124.947 147.868C123.941 147.35 123.5 146.738 123.5 146L122.5 146ZM202.5 146C202.5 146.738 202.059 147.35 201.053 147.868C200.037 148.39 198.543 148.757 196.684 149.004C192.974 149.499 188.012 149.5 183 149.5C178.012 149.5 172.974 149.499 169.184 150.004C167.293 150.257 165.662 150.64 164.49 151.243C163.309 151.85 162.5 152.738 162.5 154L163.5 154C163.5 153.262 163.941 152.65 164.947 152.132C165.963 151.61 167.457 151.243 169.316 150.996C173.026 150.501 177.988 150.5 183 150.5C187.988 150.5 193.026 150.501 196.816 149.996C198.707 149.743 200.338 149.36 201.51 148.757C202.691 148.15 203.5 147.262 203.5 146L202.5 146Z" fill="black"/>
<path d="M118 90.5C116.847 90.5 115.957 90.9604 115.301 91.7565C114.665 92.5298 114.268 93.5969 114.011 94.8019C113.498 97.2088 113.5 100.394 113.5 103.5C113.5 106.644 113.498 109.709 113.011 111.989C112.768 113.128 112.415 114.014 111.926 114.608C111.457 115.179 110.847 115.5 110 115.5L110 116.5C111.153 116.5 112.043 116.04 112.699 115.243C113.335 114.47 113.732 113.403 113.989 112.198C114.502 109.791 114.5 106.606 114.5 103.5C114.5 100.356 114.502 97.2912 114.989 95.0106C115.232 93.8718 115.585 92.9858 116.074 92.3919C116.543 91.8209 117.153 91.5 118 91.5L118 90.5ZM118 140.5C117.153 140.5 116.543 140.179 116.074 139.608C115.585 139.014 115.232 138.128 114.989 136.989C114.502 134.709 114.5 131.644 114.5 128.5C114.5 125.394 114.502 122.209 113.989 119.802C113.732 118.597 113.335 117.53 112.699 116.757C112.043 115.96 111.153 115.5 110 115.5L110 116.5C110.847 116.5 111.457 116.821 111.926 117.392C112.415 117.986 112.768 118.872 113.011 120.011C113.498 122.291 113.5 125.356 113.5 128.5C113.5 131.606 113.498 134.791 114.011 137.198C114.268 138.403 114.665 139.47 115.301 140.243C115.957 141.04 116.847 141.5 118 141.5L118 140.5Z" fill="black"/>
<path d="M160.322 167H159.373V160.895C159.373 160.387 159.389 159.906 159.42 159.453C159.338 159.535 159.246 159.621 159.145 159.711C159.043 159.801 158.578 160.182 157.75 160.854L157.234 160.186L159.502 158.434H160.322V167ZM169.264 162.705C169.264 164.186 169.029 165.291 168.561 166.021C168.096 166.752 167.383 167.117 166.422 167.117C165.5 167.117 164.799 166.744 164.318 165.998C163.838 165.248 163.598 164.15 163.598 162.705C163.598 161.213 163.83 160.105 164.295 159.383C164.76 158.66 165.469 158.299 166.422 158.299C167.352 158.299 168.057 158.676 168.537 159.43C169.021 160.184 169.264 161.275 169.264 162.705ZM164.582 162.705C164.582 163.951 164.729 164.859 165.021 165.43C165.314 165.996 165.781 166.279 166.422 166.279C167.07 166.279 167.539 165.992 167.828 165.418C168.121 164.84 168.268 163.936 168.268 162.705C168.268 161.475 168.121 160.574 167.828 160.004C167.539 159.43 167.07 159.143 166.422 159.143C165.781 159.143 165.314 159.426 165.021 159.992C164.729 160.555 164.582 161.459 164.582 162.705Z" fill="black"/>
<path d="M98.3223 120H97.373V113.895C97.373 113.387 97.3887 112.906 97.4199 112.453C97.3379 112.535 97.2461 112.621 97.1445 112.711C97.043 112.801 96.5781 113.182 95.75 113.854L95.2344 113.186L97.502 111.434H98.3223V120ZM101.686 116.338C101.686 114.654 102.012 113.396 102.664 112.564C103.32 111.729 104.289 111.311 105.57 111.311C106.012 111.311 106.359 111.348 106.613 111.422V112.26C106.312 112.162 105.969 112.113 105.582 112.113C104.664 112.113 103.963 112.4 103.479 112.975C102.994 113.545 102.729 114.443 102.682 115.67H102.752C103.182 114.998 103.861 114.662 104.791 114.662C105.561 114.662 106.166 114.895 106.607 115.359C107.053 115.824 107.275 116.455 107.275 117.252C107.275 118.143 107.031 118.844 106.543 119.355C106.059 119.863 105.402 120.117 104.574 120.117C103.688 120.117 102.984 119.785 102.465 119.121C101.945 118.453 101.686 117.525 101.686 116.338ZM104.562 119.291C105.117 119.291 105.547 119.117 105.852 118.77C106.16 118.418 106.314 117.912 106.314 117.252C106.314 116.686 106.172 116.24 105.887 115.916C105.602 115.592 105.176 115.43 104.609 115.43C104.258 115.43 103.936 115.502 103.643 115.646C103.35 115.791 103.115 115.99 102.939 116.244C102.768 116.498 102.682 116.762 102.682 117.035C102.682 117.438 102.76 117.812 102.916 118.16C103.072 118.508 103.293 118.783 103.578 118.986C103.867 119.189 104.195 119.291 104.562 119.291Z" fill="black"/>
<path d="M269 68.5C267.694 68.5 266.817 69.4764 266.229 70.819C265.636 72.1749 265.255 74.0717 265.003 76.2874C264.499 80.7281 264.5 86.6355 264.5 92.5C264.5 98.3855 264.499 104.228 264.003 108.6C263.755 110.79 263.386 112.566 262.854 113.78C262.317 115.008 261.694 115.5 261 115.5L261 116.5C262.306 116.5 263.183 115.524 263.771 114.181C264.364 112.825 264.745 110.928 264.997 108.713C265.501 104.272 265.5 98.3645 265.5 92.5C265.5 86.6145 265.501 80.7719 265.997 76.4001C266.245 74.2095 266.614 72.4345 267.146 71.22C267.683 69.9923 268.306 69.5 269 69.5L269 68.5ZM269 162.5C268.306 162.5 267.683 162.008 267.146 160.78C266.614 159.566 266.245 157.79 265.997 155.6C265.501 151.228 265.5 145.385 265.5 139.5C265.5 133.635 265.501 127.728 264.997 123.287C264.745 121.072 264.364 119.175 263.771 117.819C263.183 116.476 262.306 115.5 261 115.5L261 116.5C261.694 116.5 262.317 116.992 262.854 118.22C263.386 119.434 263.755 121.21 264.003 123.4C264.499 127.772 264.5 133.615 264.5 139.5C264.5 145.365 264.499 151.272 265.003 155.713C265.255 157.928 265.636 159.825 266.229 161.181C266.817 162.524 267.694 163.5 269 163.5L269 162.5Z" fill="black"/>
<path d="M241.463 114.768C242.365 114.768 243.074 114.992 243.59 115.441C244.109 115.887 244.369 116.498 244.369 117.275C244.369 118.162 244.086 118.857 243.52 119.361C242.957 119.865 242.18 120.117 241.188 120.117C240.223 120.117 239.486 119.963 238.979 119.654V118.717C239.252 118.893 239.592 119.031 239.998 119.133C240.404 119.23 240.805 119.279 241.199 119.279C241.887 119.279 242.42 119.117 242.799 118.793C243.182 118.469 243.373 118 243.373 117.387C243.373 116.191 242.641 115.594 241.176 115.594C240.805 115.594 240.309 115.65 239.688 115.764L239.184 115.441L239.506 111.434H243.766V112.33H240.338L240.121 114.902C240.57 114.812 241.018 114.768 241.463 114.768ZM249.256 120H248.307V113.895C248.307 113.387 248.322 112.906 248.354 112.453C248.271 112.535 248.18 112.621 248.078 112.711C247.977 112.801 247.512 113.182 246.684 113.854L246.168 113.186L248.436 111.434H249.256V120ZM258.15 120H252.52V119.162L254.775 116.895C255.463 116.199 255.916 115.703 256.135 115.406C256.354 115.109 256.518 114.82 256.627 114.539C256.736 114.258 256.791 113.955 256.791 113.631C256.791 113.174 256.652 112.812 256.375 112.547C256.098 112.277 255.713 112.143 255.221 112.143C254.865 112.143 254.527 112.201 254.207 112.318C253.891 112.436 253.537 112.648 253.146 112.957L252.631 112.295C253.42 111.639 254.279 111.311 255.209 111.311C256.014 111.311 256.645 111.518 257.102 111.932C257.559 112.342 257.787 112.895 257.787 113.59C257.787 114.133 257.635 114.67 257.33 115.201C257.025 115.732 256.455 116.404 255.619 117.217L253.744 119.051V119.098H258.15V120Z" fill="black"/>
<path d="M357 34.5C356.255 34.5 355.685 34.9798 355.26 35.6386C354.833 36.2992 354.489 37.2305 354.203 38.3574C353.629 40.6186 353.251 43.8205 353.001 47.6234C352.5 55.2373 352.5 65.3811 352.5 75.5C352.5 85.6311 352.5 95.7373 352.001 103.311C351.751 107.102 351.379 110.228 350.828 112.396C350.552 113.484 350.24 114.293 349.9 114.819C349.56 115.347 349.255 115.5 349 115.5L349 116.5C349.745 116.5 350.315 116.02 350.74 115.361C351.167 114.701 351.511 113.769 351.797 112.643C352.371 110.381 352.749 107.179 352.999 103.377C353.5 95.7627 353.5 85.6189 353.5 75.5C353.5 65.3689 353.5 55.2627 353.999 47.6891C354.249 43.8982 354.621 40.772 355.172 38.6035C355.448 37.5156 355.76 36.7067 356.1 36.1808C356.44 35.653 356.745 35.5 357 35.5L357 34.5ZM357 196.5C356.745 196.5 356.44 196.347 356.1 195.819C355.76 195.293 355.448 194.484 355.172 193.396C354.621 191.228 354.249 188.102 353.999 184.311C353.5 176.737 353.5 166.631 353.5 156.5C353.5 146.381 353.5 136.237 352.999 128.623C352.749 124.821 352.371 121.619 351.797 119.357C351.511 118.231 351.167 117.299 350.74 116.639C350.315 115.98 349.745 115.5 349 115.5L349 116.5C349.255 116.5 349.56 116.653 349.9 117.181C350.24 117.707 350.552 118.516 350.828 119.604C351.379 121.772 351.751 124.898 352.001 128.689C352.5 136.263 352.5 146.369 352.5 156.5C352.5 166.619 352.5 176.763 353.001 184.377C353.251 188.179 353.629 191.381 354.203 193.643C354.489 194.769 354.833 195.701 355.26 196.361C355.685 197.02 356.255 197.5 357 197.5L357 196.5Z" fill="black"/>
<path d="M323.455 120H322.506V113.895C322.506 113.387 322.521 112.906 322.553 112.453C322.471 112.535 322.379 112.621 322.277 112.711C322.176 112.801 321.711 113.182 320.883 113.854L320.367 113.186L322.635 111.434H323.455V120ZM332.396 115.705C332.396 117.186 332.162 118.291 331.693 119.021C331.229 119.752 330.516 120.117 329.555 120.117C328.633 120.117 327.932 119.744 327.451 118.998C326.971 118.248 326.73 117.15 326.73 115.705C326.73 114.213 326.963 113.105 327.428 112.383C327.893 111.66 328.602 111.299 329.555 111.299C330.484 111.299 331.189 111.676 331.67 112.43C332.154 113.184 332.396 114.275 332.396 115.705ZM327.715 115.705C327.715 116.951 327.861 117.859 328.154 118.43C328.447 118.996 328.914 119.279 329.555 119.279C330.203 119.279 330.672 118.992 330.961 118.418C331.254 117.84 331.4 116.936 331.4 115.705C331.4 114.475 331.254 113.574 330.961 113.004C330.672 112.43 330.203 112.143 329.555 112.143C328.914 112.143 328.447 112.426 328.154 112.992C327.861 113.555 327.715 114.459 327.715 115.705ZM339.217 120H333.586V119.162L335.842 116.895C336.529 116.199 336.982 115.703 337.201 115.406C337.42 115.109 337.584 114.82 337.693 114.539C337.803 114.258 337.857 113.955 337.857 113.631C337.857 113.174 337.719 112.812 337.441 112.547C337.164 112.277 336.779 112.143 336.287 112.143C335.932 112.143 335.594 112.201 335.273 112.318C334.957 112.436 334.604 112.648 334.213 112.957L333.697 112.295C334.486 111.639 335.346 111.311 336.275 111.311C337.08 111.311 337.711 111.518 338.168 111.932C338.625 112.342 338.854 112.895 338.854 113.59C338.854 114.133 338.701 114.67 338.396 115.201C338.092 115.732 337.521 116.404 336.686 117.217L334.811 119.051V119.098H339.217V120ZM346.488 118.031H345.217V120H344.285V118.031H340.119V117.182L344.186 111.387H345.217V117.146H346.488V118.031ZM344.285 117.146V114.299C344.285 113.74 344.305 113.109 344.344 112.406H344.297C344.109 112.781 343.934 113.092 343.77 113.338L341.092 117.146H344.285Z" fill="black"/>
<path d="M445 1.5C444.586 1.5 444.232 1.68888 443.946 1.97022C443.665 2.24534 443.43 2.62587 443.225 3.07189C442.816 3.96472 442.479 5.23871 442.195 6.80965C441.627 9.9609 441.251 14.4414 441.001 19.7891C440.5 30.491 440.5 44.7544 440.5 59C440.5 73.2544 440.5 87.491 440.001 98.1641C439.751 103.504 439.377 107.93 438.82 111.013C438.541 112.559 438.222 113.734 437.866 114.511C437.687 114.9 437.513 115.16 437.354 115.316C437.201 115.466 437.086 115.5 437 115.5L437 116.5C437.414 116.5 437.768 116.311 438.054 116.03C438.335 115.755 438.57 115.374 438.775 114.928C439.184 114.035 439.521 112.761 439.805 111.19C440.373 108.039 440.749 103.559 440.999 98.2109C441.5 87.509 441.5 73.2456 441.5 59C441.5 44.7456 441.5 30.509 441.999 19.8359C442.249 14.4961 442.623 10.0703 443.18 6.98723C443.459 5.44098 443.778 4.26576 444.134 3.48866C444.313 3.09972 444.487 2.84012 444.646 2.68384C444.799 2.53377 444.914 2.5 445 2.5L445 1.5ZM445 229.5C444.914 229.5 444.799 229.466 444.646 229.316C444.487 229.16 444.313 228.9 444.134 228.511C443.778 227.734 443.459 226.559 443.18 225.013C442.623 221.93 442.249 217.504 441.999 212.164C441.5 201.491 441.5 187.254 441.5 173C441.5 158.754 441.5 144.491 440.999 133.789C440.749 128.441 440.373 123.961 439.805 120.81C439.521 119.239 439.184 117.965 438.775 117.072C438.57 116.626 438.335 116.245 438.054 115.97C437.768 115.689 437.414 115.5 437 115.5L437 116.5C437.086 116.5 437.201 116.534 437.354 116.684C437.513 116.84 437.687 117.1 437.866 117.489C438.222 118.266 438.541 119.441 438.82 120.987C439.377 124.07 439.751 128.496 440.001 133.836C440.5 144.509 440.5 158.746 440.5 173C440.5 187.246 440.5 201.509 441.001 212.211C441.251 217.559 441.627 222.039 442.195 225.19C442.479 226.761 442.816 228.035 443.225 228.928C443.43 229.374 443.665 229.755 443.946 230.03C444.232 230.311 444.586 230.5 445 230.5L445 229.5Z" fill="black"/>
<path d="M413.16 113.449C413.16 113.996 413.006 114.443 412.697 114.791C412.393 115.139 411.959 115.371 411.396 115.488V115.535C412.084 115.621 412.594 115.84 412.926 116.191C413.258 116.543 413.424 117.004 413.424 117.574C413.424 118.391 413.141 119.02 412.574 119.461C412.008 119.898 411.203 120.117 410.16 120.117C409.707 120.117 409.291 120.082 408.912 120.012C408.537 119.945 408.172 119.826 407.816 119.654V118.729C408.188 118.912 408.582 119.053 409 119.15C409.422 119.244 409.82 119.291 410.195 119.291C411.676 119.291 412.416 118.711 412.416 117.551C412.416 116.512 411.6 115.992 409.967 115.992H409.123V115.154H409.979C410.646 115.154 411.176 115.008 411.566 114.715C411.957 114.418 412.152 114.008 412.152 113.484C412.152 113.066 412.008 112.738 411.719 112.5C411.434 112.262 411.045 112.143 410.553 112.143C410.178 112.143 409.824 112.193 409.492 112.295C409.16 112.396 408.781 112.584 408.355 112.857L407.863 112.201C408.215 111.924 408.619 111.707 409.076 111.551C409.537 111.391 410.021 111.311 410.529 111.311C411.361 111.311 412.008 111.502 412.469 111.885C412.93 112.264 413.16 112.785 413.16 113.449ZM420.396 115.705C420.396 117.186 420.162 118.291 419.693 119.021C419.229 119.752 418.516 120.117 417.555 120.117C416.633 120.117 415.932 119.744 415.451 118.998C414.971 118.248 414.73 117.15 414.73 115.705C414.73 114.213 414.963 113.105 415.428 112.383C415.893 111.66 416.602 111.299 417.555 111.299C418.484 111.299 419.189 111.676 419.67 112.43C420.154 113.184 420.396 114.275 420.396 115.705ZM415.715 115.705C415.715 116.951 415.861 117.859 416.154 118.43C416.447 118.996 416.914 119.279 417.555 119.279C418.203 119.279 418.672 118.992 418.961 118.418C419.254 117.84 419.4 116.936 419.4 115.705C419.4 114.475 419.254 113.574 418.961 113.004C418.672 112.43 418.203 112.143 417.555 112.143C416.914 112.143 416.447 112.426 416.154 112.992C415.861 113.555 415.715 114.459 415.715 115.705ZM422.67 120L426.221 112.33H421.551V111.434H427.252V112.213L423.748 120H422.67ZM434.084 120H428.453V119.162L430.709 116.895C431.396 116.199 431.85 115.703 432.068 115.406C432.287 115.109 432.451 114.82 432.561 114.539C432.67 114.258 432.725 113.955 432.725 113.631C432.725 113.174 432.586 112.812 432.309 112.547C432.031 112.277 431.646 112.143 431.154 112.143C430.799 112.143 430.461 112.201 430.141 112.318C429.824 112.436 429.471 112.648 429.08 112.957L428.564 112.295C429.354 111.639 430.213 111.311 431.143 111.311C431.947 111.311 432.578 111.518 433.035 111.932C433.492 112.342 433.721 112.895 433.721 113.59C433.721 114.133 433.568 114.67 433.264 115.201C432.959 115.732 432.389 116.404 431.553 117.217L429.678 119.051V119.098H434.084V120Z" fill="black"/>
<path d="M496.961 44.4492C496.961 44.9961 496.807 45.4434 496.498 45.791C496.193 46.1387 495.76 46.3711 495.197 46.4883V46.5352C495.885 46.6211 496.395 46.8398 496.727 47.1914C497.059 47.543 497.225 48.0039 497.225 48.5742C497.225 49.3906 496.941 50.0195 496.375 50.4609C495.809 50.8984 495.004 51.1172 493.961 51.1172C493.508 51.1172 493.092 51.082 492.713 51.0117C492.338 50.9453 491.973 50.8262 491.617 50.6543V49.7285C491.988 49.9121 492.383 50.0527 492.801 50.1504C493.223 50.2441 493.621 50.291 493.996 50.291C495.477 50.291 496.217 49.7109 496.217 48.5508C496.217 47.5117 495.4 46.9922 493.768 46.9922H492.924V46.1543H493.779C494.447 46.1543 494.977 46.0078 495.367 45.7148C495.758 45.418 495.953 45.0078 495.953 44.4844C495.953 44.0664 495.809 43.7383 495.52 43.5C495.234 43.2617 494.846 43.1426 494.354 43.1426C493.979 43.1426 493.625 43.1934 493.293 43.2949C492.961 43.3965 492.582 43.584 492.156 43.8574L491.664 43.2012C492.016 42.9238 492.42 42.707 492.877 42.5508C493.338 42.3906 493.822 42.3105 494.33 42.3105C495.162 42.3105 495.809 42.502 496.27 42.8848C496.73 43.2637 496.961 43.7852 496.961 44.4492Z" fill="black"/>
<path d="M503.33 53.0963C503.075 52.7571 502.802 52.5067 502.501 52.3561C502.191 52.2007 501.879 52.1658 501.581 52.2153C501.035 52.3058 500.548 52.6869 500.196 52.9518C499.782 53.2633 499.503 53.4586 499.249 53.5007C499.148 53.5175 499.051 53.5079 498.94 53.4523C498.82 53.3919 498.658 53.2649 498.463 53.0049L497.664 53.6062C497.919 53.9454 498.192 54.1958 498.492 54.3464C498.803 54.5018 499.114 54.5367 499.413 54.4872C499.959 54.3967 500.446 54.0156 500.798 53.7507C501.212 53.4392 501.49 53.2439 501.744 53.2018C501.846 53.185 501.942 53.1946 502.053 53.2502C502.174 53.3105 502.335 53.4376 502.531 53.6976L503.33 53.0963ZM497.204 57.7074C497.008 57.4473 496.93 57.2571 496.906 57.1246C496.883 57.0025 496.901 56.9071 496.945 56.8143C497.056 56.5818 497.32 56.3679 497.734 56.0563C498.086 55.7915 498.587 55.429 498.825 54.9296C498.955 54.6565 499.008 54.3471 498.945 54.006C498.883 53.6753 498.718 53.3441 498.463 53.0049L497.664 53.6062C497.859 53.8663 497.937 54.0565 497.962 54.1889C497.984 54.3111 497.967 54.4065 497.923 54.4993C497.812 54.7318 497.547 54.9457 497.133 55.2573C496.781 55.5221 496.28 55.8846 496.042 56.384C495.912 56.6571 495.859 56.9665 495.923 57.3076C495.984 57.6383 496.149 57.9695 496.405 58.3087L497.204 57.7074Z" fill="black"/>
<path d="M500 61.4366L505.889 57L606 57V157.563L600.111 162H500V61.4366Z" fill="white"/>
<path d="M500 61.4366L505.889 57L606 57M500 61.4366H600.111M500 61.4366V162H600.111M606 57L600.111 61.4366M606 57V157.563L600.111 162M600.111 61.4366V162" stroke="black" stroke-width="2"/>
<line x1="273.735" y1="162.265" x2="202.735" y2="91.2652" stroke="black" stroke-width="0.75" stroke-dasharray="2 3"/>
<line x1="202.735" y1="140.735" x2="273.735" y2="69.7348" stroke="black" stroke-width="0.75" stroke-dasharray="2 3"/>
<line x1="361.68" y1="196.196" x2="283.68" y2="69.1963" stroke="black" stroke-width="0.75" stroke-dasharray="2 3"/>
<line x1="283.68" y1="162.804" x2="361.68" y2="35.8037" stroke="black" stroke-width="0.75" stroke-dasharray="2 3"/>
<line x1="449.652" y1="229.141" x2="371.652" y2="36.1405" stroke="black" stroke-width="0.75" stroke-dasharray="2 3"/>
<line x1="371.652" y1="196.86" x2="449.652" y2="2.86012" stroke="black" stroke-width="0.75" stroke-dasharray="2 3"/>
<rect x="123" y="91" width="80" height="50" fill="white" stroke="#32ACF1" stroke-width="2"/>
<rect x="284" y="69" width="94" height="10" transform="rotate(90 284 69)" fill="white" stroke="black" stroke-width="2"/>
<rect x="372" y="35" width="162" height="9.99999" transform="rotate(90 372 35)" fill="white" stroke="black" stroke-width="2"/>
<rect x="460" y="2" width="228" height="9.99999" transform="rotate(90 460 2)" fill="white" stroke="black" stroke-width="2"/>
<path d="M490.354 116.354C490.549 116.158 490.549 115.842 490.354 115.646L487.172 112.464C486.976 112.269 486.66 112.269 486.464 112.464C486.269 112.66 486.269 112.976 486.464 113.172L489.293 116L486.464 118.828C486.269 119.024 486.269 119.34 486.464 119.536C486.66 119.731 486.976 119.731 487.172 119.536L490.354 116.354ZM470 116.5H490V115.5H470V116.5Z" fill="black"/>
</svg>
