<svg width="512" height="255" viewBox="0 0 512 255" fill="none" xmlns="http://www.w3.org/2000/svg">
<path d="M404.5 166C404.5 167.512 405.465 168.587 406.92 169.335C408.365 170.078 410.387 170.556 412.746 170.871C417.474 171.501 423.762 171.5 430 171.5C436.262 171.5 442.474 171.501 447.121 172.121C449.449 172.431 451.333 172.891 452.623 173.554C453.903 174.212 454.5 175.012 454.5 176L455.5 176C455.5 174.488 454.535 173.413 453.08 172.665C451.635 171.922 449.613 171.444 447.254 171.129C442.526 170.499 436.238 170.5 430 170.5C423.738 170.5 417.526 170.499 412.879 169.879C410.551 169.569 408.667 169.109 407.377 168.446C406.097 167.788 405.5 166.988 405.5 166L404.5 166ZM504.5 166C504.5 166.988 503.903 167.788 502.623 168.446C501.333 169.109 499.449 169.569 497.121 169.879C492.474 170.499 486.262 170.5 480 170.5C473.762 170.5 467.474 170.499 462.746 171.129C460.387 171.444 458.365 171.922 456.92 172.665C455.465 173.413 454.5 174.488 454.5 176L455.5 176C455.5 175.012 456.097 174.212 457.377 173.554C458.667 172.891 460.551 172.431 462.879 172.121C467.526 171.501 473.738 171.5 480 171.5C486.238 171.5 492.526 171.501 497.254 170.871C499.613 170.556 501.635 170.078 503.08 169.335C504.535 168.587 505.5 167.512 505.5 166L504.5 166Z" fill="black"/>
<path d="M404.5 166C404.5 167.512 405.465 168.587 406.92 169.335C408.365 170.078 410.387 170.556 412.746 170.871C417.474 171.501 423.762 171.5 430 171.5C436.262 171.5 442.474 171.501 447.121 172.121C449.449 172.431 451.333 172.891 452.623 173.554C453.903 174.212 454.5 175.012 454.5 176L455.5 176C455.5 174.488 454.535 173.413 453.08 172.665C451.635 171.922 449.613 171.444 447.254 171.129C442.526 170.499 436.238 170.5 430 170.5C423.738 170.5 417.526 170.499 412.879 169.879C410.551 169.569 408.667 169.109 407.377 168.446C406.097 167.788 405.5 166.988 405.5 166L404.5 166ZM504.5 166C504.5 166.988 503.903 167.788 502.623 168.446C501.333 169.109 499.449 169.569 497.121 169.879C492.474 170.499 486.262 170.5 480 170.5C473.762 170.5 467.474 170.499 462.746 171.129C460.387 171.444 458.365 171.922 456.92 172.665C455.465 173.413 454.5 174.488 454.5 176L455.5 176C455.5 175.012 456.097 174.212 457.377 173.554C458.667 172.891 460.551 172.431 462.879 172.121C467.526 171.501 473.738 171.5 480 171.5C486.238 171.5 492.526 171.501 497.254 170.871C499.613 170.556 501.635 170.078 503.08 169.335C504.535 168.587 505.5 167.512 505.5 166L504.5 166Z" fill="black"/>
<path d="M454.027 182.449C454.027 182.996 453.873 183.443 453.564 183.791C453.26 184.139 452.826 184.371 452.264 184.488V184.535C452.951 184.621 453.461 184.84 453.793 185.191C454.125 185.543 454.291 186.004 454.291 186.574C454.291 187.391 454.008 188.02 453.441 188.461C452.875 188.898 452.07 189.117 451.027 189.117C450.574 189.117 450.158 189.082 449.779 189.012C449.404 188.945 449.039 188.826 448.684 188.654V187.729C449.055 187.912 449.449 188.053 449.867 188.15C450.289 188.244 450.688 188.291 451.062 188.291C452.543 188.291 453.283 187.711 453.283 186.551C453.283 185.512 452.467 184.992 450.834 184.992H449.99V184.154H450.846C451.514 184.154 452.043 184.008 452.434 183.715C452.824 183.418 453.02 183.008 453.02 182.484C453.02 182.066 452.875 181.738 452.586 181.5C452.301 181.262 451.912 181.143 451.42 181.143C451.045 181.143 450.691 181.193 450.359 181.295C450.027 181.396 449.648 181.584 449.223 181.857L448.73 181.201C449.082 180.924 449.486 180.707 449.943 180.551C450.404 180.391 450.889 180.311 451.396 180.311C452.229 180.311 452.875 180.502 453.336 180.885C453.797 181.264 454.027 181.785 454.027 182.449ZM461.217 189H455.586V188.162L457.842 185.895C458.529 185.199 458.982 184.703 459.201 184.406C459.42 184.109 459.584 183.82 459.693 183.539C459.803 183.258 459.857 182.955 459.857 182.631C459.857 182.174 459.719 181.812 459.441 181.547C459.164 181.277 458.779 181.143 458.287 181.143C457.932 181.143 457.594 181.201 457.273 181.318C456.957 181.436 456.604 181.648 456.213 181.957L455.697 181.295C456.486 180.639 457.346 180.311 458.275 180.311C459.08 180.311 459.711 180.518 460.168 180.932C460.625 181.342 460.854 181.895 460.854 182.59C460.854 183.133 460.701 183.67 460.396 184.201C460.092 184.732 459.521 185.404 458.686 186.217L456.811 188.051V188.098H461.217V189Z" fill="black"/>
<path d="M38.252 252V243.434H39.248V252H38.252ZM49.6426 252V247.822C49.6426 247.311 49.5332 246.928 49.3145 246.674C49.0957 246.416 48.7559 246.287 48.2949 246.287C47.6895 246.287 47.2422 246.461 46.9531 246.809C46.6641 247.156 46.5195 247.691 46.5195 248.414V252H45.5469V247.822C45.5469 247.311 45.4375 246.928 45.2188 246.674C45 246.416 44.6582 246.287 44.1934 246.287C43.584 246.287 43.1367 246.471 42.8516 246.838C42.5703 247.201 42.4297 247.799 42.4297 248.631V252H41.457V245.578H42.248L42.4062 246.457H42.4531C42.6367 246.145 42.8945 245.9 43.2266 245.725C43.5625 245.549 43.9375 245.461 44.3516 245.461C45.3555 245.461 46.0117 245.824 46.3203 246.551H46.3672C46.5586 246.215 46.8359 245.949 47.1992 245.754C47.5625 245.559 47.9766 245.461 48.4414 245.461C49.168 245.461 49.7109 245.648 50.0703 246.023C50.4336 246.395 50.6152 246.99 50.6152 247.811V252H49.6426ZM56.5742 252L56.3809 251.086H56.334C56.0137 251.488 55.6934 251.762 55.373 251.906C55.0566 252.047 54.6602 252.117 54.1836 252.117C53.5469 252.117 53.0469 251.953 52.6836 251.625C52.3242 251.297 52.1445 250.83 52.1445 250.225C52.1445 248.928 53.1816 248.248 55.2559 248.186L56.3457 248.15V247.752C56.3457 247.248 56.2363 246.877 56.0176 246.639C55.8027 246.396 55.457 246.275 54.9805 246.275C54.4453 246.275 53.8398 246.439 53.1641 246.768L52.8652 246.023C53.1816 245.852 53.5273 245.717 53.9023 245.619C54.2812 245.521 54.6602 245.473 55.0391 245.473C55.8047 245.473 56.3711 245.643 56.7383 245.982C57.1094 246.322 57.2949 246.867 57.2949 247.617V252H56.5742ZM54.377 251.314C54.9824 251.314 55.457 251.148 55.8008 250.816C56.1484 250.484 56.3223 250.02 56.3223 249.422V248.842L55.3496 248.883C54.5762 248.91 54.0176 249.031 53.6738 249.246C53.334 249.457 53.1641 249.787 53.1641 250.236C53.1641 250.588 53.2695 250.855 53.4805 251.039C53.6953 251.223 53.9941 251.314 54.377 251.314ZM64.5605 245.578V246.193L63.3711 246.334C63.4805 246.471 63.5781 246.65 63.6641 246.873C63.75 247.092 63.793 247.34 63.793 247.617C63.793 248.246 63.5781 248.748 63.1484 249.123C62.7188 249.498 62.1289 249.686 61.3789 249.686C61.1875 249.686 61.0078 249.67 60.8398 249.639C60.4258 249.857 60.2188 250.133 60.2188 250.465C60.2188 250.641 60.291 250.771 60.4355 250.857C60.5801 250.939 60.8281 250.98 61.1797 250.98H62.3164C63.0117 250.98 63.5449 251.127 63.916 251.42C64.291 251.713 64.4785 252.139 64.4785 252.697C64.4785 253.408 64.1934 253.949 63.623 254.32C63.0527 254.695 62.2207 254.883 61.127 254.883C60.2871 254.883 59.6387 254.727 59.1816 254.414C58.7285 254.102 58.502 253.66 58.502 253.09C58.502 252.699 58.627 252.361 58.877 252.076C59.127 251.791 59.4785 251.598 59.9316 251.496C59.7676 251.422 59.6289 251.307 59.5156 251.15C59.4062 250.994 59.3516 250.812 59.3516 250.605C59.3516 250.371 59.4141 250.166 59.5391 249.99C59.6641 249.814 59.8613 249.645 60.1309 249.48C59.7988 249.344 59.5273 249.111 59.3164 248.783C59.1094 248.455 59.0059 248.08 59.0059 247.658C59.0059 246.955 59.2168 246.414 59.6387 246.035C60.0605 245.652 60.6582 245.461 61.4316 245.461C61.7676 245.461 62.0703 245.5 62.3398 245.578H64.5605ZM59.4395 253.078C59.4395 253.426 59.5859 253.689 59.8789 253.869C60.1719 254.049 60.5918 254.139 61.1387 254.139C61.9551 254.139 62.5586 254.016 62.9492 253.77C63.3438 253.527 63.541 253.197 63.541 252.779C63.541 252.432 63.4336 252.189 63.2188 252.053C63.0039 251.92 62.5996 251.854 62.0059 251.854H60.8398C60.3984 251.854 60.0547 251.959 59.8086 252.17C59.5625 252.381 59.4395 252.684 59.4395 253.078ZM59.9668 247.635C59.9668 248.084 60.0938 248.424 60.3477 248.654C60.6016 248.885 60.9551 249 61.4082 249C62.3574 249 62.832 248.539 62.832 247.617C62.832 246.652 62.3516 246.17 61.3906 246.17C60.9336 246.17 60.582 246.293 60.3359 246.539C60.0898 246.785 59.9668 247.15 59.9668 247.635ZM68.5918 252.117C67.6426 252.117 66.8926 251.828 66.3418 251.25C65.7949 250.672 65.5215 249.869 65.5215 248.842C65.5215 247.807 65.7754 246.984 66.2832 246.375C66.7949 245.766 67.4805 245.461 68.3398 245.461C69.1445 245.461 69.7812 245.727 70.25 246.258C70.7188 246.785 70.9531 247.482 70.9531 248.35V248.965H66.5293C66.5488 249.719 66.7383 250.291 67.0977 250.682C67.4609 251.072 67.9707 251.268 68.627 251.268C69.3184 251.268 70.002 251.123 70.6777 250.834V251.701C70.334 251.85 70.0078 251.955 69.6992 252.018C69.3945 252.084 69.0254 252.117 68.5918 252.117ZM68.3281 246.275C67.8125 246.275 67.4004 246.443 67.0918 246.779C66.7871 247.115 66.6074 247.58 66.5527 248.174H69.9102C69.9102 247.561 69.7734 247.092 69.5 246.768C69.2266 246.439 68.8359 246.275 68.3281 246.275ZM76.4316 244.201C75.4902 244.201 74.7461 244.516 74.1992 245.145C73.6562 245.77 73.3848 246.627 73.3848 247.717C73.3848 248.838 73.6465 249.705 74.1699 250.318C74.6973 250.928 75.4473 251.232 76.4199 251.232C77.0176 251.232 77.6992 251.125 78.4648 250.91V251.783C77.8711 252.006 77.1387 252.117 76.2676 252.117C75.0059 252.117 74.0312 251.734 73.3438 250.969C72.6602 250.203 72.3184 249.115 72.3184 247.705C72.3184 246.822 72.4824 246.049 72.8105 245.385C73.1426 244.721 73.6191 244.209 74.2402 243.85C74.8652 243.49 75.5996 243.311 76.4434 243.311C77.3418 243.311 78.127 243.475 78.7988 243.803L78.377 244.658C77.7285 244.354 77.0801 244.201 76.4316 244.201ZM84.1367 252L83.9434 251.086H83.8965C83.5762 251.488 83.2559 251.762 82.9355 251.906C82.6191 252.047 82.2227 252.117 81.7461 252.117C81.1094 252.117 80.6094 251.953 80.2461 251.625C79.8867 251.297 79.707 250.83 79.707 250.225C79.707 248.928 80.7441 248.248 82.8184 248.186L83.9082 248.15V247.752C83.9082 247.248 83.7988 246.877 83.5801 246.639C83.3652 246.396 83.0195 246.275 82.543 246.275C82.0078 246.275 81.4023 246.439 80.7266 246.768L80.4277 246.023C80.7441 245.852 81.0898 245.717 81.4648 245.619C81.8438 245.521 82.2227 245.473 82.6016 245.473C83.3672 245.473 83.9336 245.643 84.3008 245.982C84.6719 246.322 84.8574 246.867 84.8574 247.617V252H84.1367ZM81.9395 251.314C82.5449 251.314 83.0195 251.148 83.3633 250.816C83.7109 250.484 83.8848 250.02 83.8848 249.422V248.842L82.9121 248.883C82.1387 248.91 81.5801 249.031 81.2363 249.246C80.8965 249.457 80.7266 249.787 80.7266 250.236C80.7266 250.588 80.832 250.855 81.043 251.039C81.2578 251.223 81.5566 251.314 81.9395 251.314ZM89.8555 252.117C89.4375 252.117 89.0547 252.041 88.707 251.889C88.3633 251.732 88.0742 251.494 87.8398 251.174H87.7695C87.8164 251.549 87.8398 251.904 87.8398 252.24V254.883H86.8672V245.578H87.6582L87.793 246.457H87.8398C88.0898 246.105 88.3809 245.852 88.7129 245.695C89.0449 245.539 89.4258 245.461 89.8555 245.461C90.707 245.461 91.3633 245.752 91.8242 246.334C92.2891 246.916 92.5215 247.732 92.5215 248.783C92.5215 249.838 92.2852 250.658 91.8125 251.244C91.3438 251.826 90.6914 252.117 89.8555 252.117ZM89.7148 246.287C89.0586 246.287 88.584 246.469 88.291 246.832C87.998 247.195 87.8477 247.773 87.8398 248.566V248.783C87.8398 249.686 87.9902 250.332 88.291 250.723C88.5918 251.109 89.0742 251.303 89.7383 251.303C90.293 251.303 90.7266 251.078 91.0391 250.629C91.3555 250.18 91.5137 249.561 91.5137 248.771C91.5137 247.971 91.3555 247.357 91.0391 246.932C90.7266 246.502 90.2852 246.287 89.7148 246.287ZM98.3691 250.248C98.3691 250.846 98.1465 251.307 97.7012 251.631C97.2559 251.955 96.6309 252.117 95.8262 252.117C94.9746 252.117 94.3105 251.982 93.834 251.713V250.811C94.1426 250.967 94.4727 251.09 94.8242 251.18C95.1797 251.27 95.5215 251.314 95.8496 251.314C96.3574 251.314 96.748 251.234 97.0215 251.074C97.2949 250.91 97.4316 250.662 97.4316 250.33C97.4316 250.08 97.3223 249.867 97.1035 249.691C96.8887 249.512 96.4668 249.301 95.8379 249.059C95.2402 248.836 94.8145 248.643 94.5605 248.479C94.3105 248.311 94.123 248.121 93.998 247.91C93.877 247.699 93.8164 247.447 93.8164 247.154C93.8164 246.631 94.0293 246.219 94.4551 245.918C94.8809 245.613 95.4648 245.461 96.207 245.461C96.8984 245.461 97.5742 245.602 98.2344 245.883L97.8887 246.674C97.2441 246.408 96.6602 246.275 96.1367 246.275C95.6758 246.275 95.3281 246.348 95.0938 246.492C94.8594 246.637 94.7422 246.836 94.7422 247.09C94.7422 247.262 94.7852 247.408 94.8711 247.529C94.9609 247.65 95.1035 247.766 95.2988 247.875C95.4941 247.984 95.8691 248.143 96.4238 248.35C97.1855 248.627 97.6992 248.906 97.9648 249.188C98.2344 249.469 98.3691 249.822 98.3691 250.248Z" fill="black"/>
<path d="M157.672 252H156.676V243.434H161.451V244.318H157.672V247.453H161.223V248.338H157.672V252ZM166.543 244.201C165.602 244.201 164.857 244.516 164.311 245.145C163.768 245.77 163.496 246.627 163.496 247.717C163.496 248.838 163.758 249.705 164.281 250.318C164.809 250.928 165.559 251.232 166.531 251.232C167.129 251.232 167.811 251.125 168.576 250.91V251.783C167.982 252.006 167.25 252.117 166.379 252.117C165.117 252.117 164.143 251.734 163.455 250.969C162.771 250.203 162.43 249.115 162.43 247.705C162.43 246.822 162.594 246.049 162.922 245.385C163.254 244.721 163.73 244.209 164.352 243.85C164.977 243.49 165.711 243.311 166.555 243.311C167.453 243.311 168.238 243.475 168.91 243.803L168.488 244.658C167.84 244.354 167.191 244.201 166.543 244.201ZM176.211 247.365H178.625V248.174H176.211V250.67H175.396V248.174H172.994V247.365H175.396V244.857H176.211V247.365ZM184.543 248.438V252H183.547V243.434H185.896C186.947 243.434 187.723 243.635 188.223 244.037C188.727 244.439 188.979 245.045 188.979 245.854C188.979 246.986 188.404 247.752 187.256 248.15L189.582 252H188.404L186.33 248.438H184.543ZM184.543 247.582H185.908C186.611 247.582 187.127 247.443 187.455 247.166C187.783 246.885 187.947 246.465 187.947 245.906C187.947 245.34 187.779 244.932 187.443 244.682C187.111 244.432 186.576 244.307 185.838 244.307H184.543V247.582ZM193.531 252.117C192.582 252.117 191.832 251.828 191.281 251.25C190.734 250.672 190.461 249.869 190.461 248.842C190.461 247.807 190.715 246.984 191.223 246.375C191.734 245.766 192.42 245.461 193.279 245.461C194.084 245.461 194.721 245.727 195.189 246.258C195.658 246.785 195.893 247.482 195.893 248.35V248.965H191.469C191.488 249.719 191.678 250.291 192.037 250.682C192.4 251.072 192.91 251.268 193.566 251.268C194.258 251.268 194.941 251.123 195.617 250.834V251.701C195.273 251.85 194.947 251.955 194.639 252.018C194.334 252.084 193.965 252.117 193.531 252.117ZM193.268 246.275C192.752 246.275 192.34 246.443 192.031 246.779C191.727 247.115 191.547 247.58 191.492 248.174H194.85C194.85 247.561 194.713 247.092 194.439 246.768C194.166 246.439 193.775 246.275 193.268 246.275ZM197.703 252V243.434H198.699V251.098H202.479V252H197.703ZM210.406 243.434V248.977C210.406 249.953 210.111 250.721 209.521 251.279C208.932 251.838 208.121 252.117 207.09 252.117C206.059 252.117 205.26 251.836 204.693 251.273C204.131 250.711 203.85 249.938 203.85 248.953V243.434H204.846V249.023C204.846 249.738 205.041 250.287 205.432 250.67C205.822 251.053 206.396 251.244 207.154 251.244C207.877 251.244 208.434 251.053 208.824 250.67C209.215 250.283 209.41 249.73 209.41 249.012V243.434H210.406Z" fill="black"/>
<path d="M245.672 252H244.676V243.434H249.451V244.318H245.672V247.453H249.223V248.338H245.672V252ZM254.543 244.201C253.602 244.201 252.857 244.516 252.311 245.145C251.768 245.77 251.496 246.627 251.496 247.717C251.496 248.838 251.758 249.705 252.281 250.318C252.809 250.928 253.559 251.232 254.531 251.232C255.129 251.232 255.811 251.125 256.576 250.91V251.783C255.982 252.006 255.25 252.117 254.379 252.117C253.117 252.117 252.143 251.734 251.455 250.969C250.771 250.203 250.43 249.115 250.43 247.705C250.43 246.822 250.594 246.049 250.922 245.385C251.254 244.721 251.73 244.209 252.352 243.85C252.977 243.49 253.711 243.311 254.555 243.311C255.453 243.311 256.238 243.475 256.91 243.803L256.488 244.658C255.84 244.354 255.191 244.201 254.543 244.201ZM264.211 247.365H266.625V248.174H264.211V250.67H263.396V248.174H260.994V247.365H263.396V244.857H264.211V247.365ZM272.543 248.438V252H271.547V243.434H273.896C274.947 243.434 275.723 243.635 276.223 244.037C276.727 244.439 276.979 245.045 276.979 245.854C276.979 246.986 276.404 247.752 275.256 248.15L277.582 252H276.404L274.33 248.438H272.543ZM272.543 247.582H273.908C274.611 247.582 275.127 247.443 275.455 247.166C275.783 246.885 275.947 246.465 275.947 245.906C275.947 245.34 275.779 244.932 275.443 244.682C275.111 244.432 274.576 244.307 273.838 244.307H272.543V247.582ZM281.531 252.117C280.582 252.117 279.832 251.828 279.281 251.25C278.734 250.672 278.461 249.869 278.461 248.842C278.461 247.807 278.715 246.984 279.223 246.375C279.734 245.766 280.42 245.461 281.279 245.461C282.084 245.461 282.721 245.727 283.189 246.258C283.658 246.785 283.893 247.482 283.893 248.35V248.965H279.469C279.488 249.719 279.678 250.291 280.037 250.682C280.4 251.072 280.91 251.268 281.566 251.268C282.258 251.268 282.941 251.123 283.617 250.834V251.701C283.273 251.85 282.947 251.955 282.639 252.018C282.334 252.084 281.965 252.117 281.531 252.117ZM281.268 246.275C280.752 246.275 280.34 246.443 280.031 246.779C279.727 247.115 279.547 247.58 279.492 248.174H282.85C282.85 247.561 282.713 247.092 282.439 246.768C282.166 246.439 281.775 246.275 281.268 246.275ZM285.703 252V243.434H286.699V251.098H290.479V252H285.703ZM298.406 243.434V248.977C298.406 249.953 298.111 250.721 297.521 251.279C296.932 251.838 296.121 252.117 295.09 252.117C294.059 252.117 293.26 251.836 292.693 251.273C292.131 250.711 291.85 249.938 291.85 248.953V243.434H292.846V249.023C292.846 249.738 293.041 250.287 293.432 250.67C293.822 251.053 294.396 251.244 295.154 251.244C295.877 251.244 296.434 251.053 296.824 250.67C297.215 250.283 297.41 249.73 297.41 249.012V243.434H298.406Z" fill="black"/>
<path d="M325.232 252H324.236V243.434H329.012V244.318H325.232V247.453H328.783V248.338H325.232V252ZM334.104 244.201C333.162 244.201 332.418 244.516 331.871 245.145C331.328 245.77 331.057 246.627 331.057 247.717C331.057 248.838 331.318 249.705 331.842 250.318C332.369 250.928 333.119 251.232 334.092 251.232C334.689 251.232 335.371 251.125 336.137 250.91V251.783C335.543 252.006 334.811 252.117 333.939 252.117C332.678 252.117 331.703 251.734 331.016 250.969C330.332 250.203 329.99 249.115 329.99 247.705C329.99 246.822 330.154 246.049 330.482 245.385C330.814 244.721 331.291 244.209 331.912 243.85C332.537 243.49 333.271 243.311 334.115 243.311C335.014 243.311 335.799 243.475 336.471 243.803L336.049 244.658C335.4 244.354 334.752 244.201 334.104 244.201ZM343.771 247.365H346.186V248.174H343.771V250.67H342.957V248.174H340.555V247.365H342.957V244.857H343.771V247.365ZM355.941 249.721C355.941 250.475 355.668 251.062 355.121 251.484C354.574 251.906 353.832 252.117 352.895 252.117C351.879 252.117 351.098 251.986 350.551 251.725V250.764C350.902 250.912 351.285 251.029 351.699 251.115C352.113 251.201 352.523 251.244 352.93 251.244C353.594 251.244 354.094 251.119 354.43 250.869C354.766 250.615 354.934 250.264 354.934 249.814C354.934 249.518 354.873 249.275 354.752 249.088C354.635 248.896 354.436 248.721 354.154 248.561C353.877 248.4 353.453 248.219 352.883 248.016C352.086 247.73 351.516 247.393 351.172 247.002C350.832 246.611 350.662 246.102 350.662 245.473C350.662 244.812 350.91 244.287 351.406 243.896C351.902 243.506 352.559 243.311 353.375 243.311C354.227 243.311 355.01 243.467 355.725 243.779L355.414 244.646C354.707 244.35 354.02 244.201 353.352 244.201C352.824 244.201 352.412 244.314 352.115 244.541C351.818 244.768 351.67 245.082 351.67 245.484C351.67 245.781 351.725 246.025 351.834 246.217C351.943 246.404 352.127 246.578 352.385 246.738C352.646 246.895 353.045 247.068 353.58 247.26C354.479 247.58 355.096 247.924 355.432 248.291C355.771 248.658 355.941 249.135 355.941 249.721ZM358.52 252H357.547V245.578H358.52V252ZM357.465 243.838C357.465 243.615 357.52 243.453 357.629 243.352C357.738 243.246 357.875 243.193 358.039 243.193C358.195 243.193 358.33 243.246 358.443 243.352C358.557 243.457 358.613 243.619 358.613 243.838C358.613 244.057 358.557 244.221 358.443 244.33C358.33 244.436 358.195 244.488 358.039 244.488C357.875 244.488 357.738 244.436 357.629 244.33C357.52 244.221 357.465 244.057 357.465 243.838ZM365.838 245.578V246.193L364.648 246.334C364.758 246.471 364.855 246.65 364.941 246.873C365.027 247.092 365.07 247.34 365.07 247.617C365.07 248.246 364.855 248.748 364.426 249.123C363.996 249.498 363.406 249.686 362.656 249.686C362.465 249.686 362.285 249.67 362.117 249.639C361.703 249.857 361.496 250.133 361.496 250.465C361.496 250.641 361.568 250.771 361.713 250.857C361.857 250.939 362.105 250.98 362.457 250.98H363.594C364.289 250.98 364.822 251.127 365.193 251.42C365.568 251.713 365.756 252.139 365.756 252.697C365.756 253.408 365.471 253.949 364.9 254.32C364.33 254.695 363.498 254.883 362.404 254.883C361.564 254.883 360.916 254.727 360.459 254.414C360.006 254.102 359.779 253.66 359.779 253.09C359.779 252.699 359.904 252.361 360.154 252.076C360.404 251.791 360.756 251.598 361.209 251.496C361.045 251.422 360.906 251.307 360.793 251.15C360.684 250.994 360.629 250.812 360.629 250.605C360.629 250.371 360.691 250.166 360.816 249.99C360.941 249.814 361.139 249.645 361.408 249.48C361.076 249.344 360.805 249.111 360.594 248.783C360.387 248.455 360.283 248.08 360.283 247.658C360.283 246.955 360.494 246.414 360.916 246.035C361.338 245.652 361.936 245.461 362.709 245.461C363.045 245.461 363.348 245.5 363.617 245.578H365.838ZM360.717 253.078C360.717 253.426 360.863 253.689 361.156 253.869C361.449 254.049 361.869 254.139 362.416 254.139C363.232 254.139 363.836 254.016 364.227 253.77C364.621 253.527 364.818 253.197 364.818 252.779C364.818 252.432 364.711 252.189 364.496 252.053C364.281 251.92 363.877 251.854 363.283 251.854H362.117C361.676 251.854 361.332 251.959 361.086 252.17C360.84 252.381 360.717 252.684 360.717 253.078ZM361.244 247.635C361.244 248.084 361.371 248.424 361.625 248.654C361.879 248.885 362.232 249 362.686 249C363.635 249 364.109 248.539 364.109 247.617C364.109 246.652 363.629 246.17 362.668 246.17C362.211 246.17 361.859 246.293 361.613 246.539C361.367 246.785 361.244 247.15 361.244 247.635ZM375.342 252V247.822C375.342 247.311 375.232 246.928 375.014 246.674C374.795 246.416 374.455 246.287 373.994 246.287C373.389 246.287 372.941 246.461 372.652 246.809C372.363 247.156 372.219 247.691 372.219 248.414V252H371.246V247.822C371.246 247.311 371.137 246.928 370.918 246.674C370.699 246.416 370.357 246.287 369.893 246.287C369.283 246.287 368.836 246.471 368.551 246.838C368.27 247.201 368.129 247.799 368.129 248.631V252H367.156V245.578H367.947L368.105 246.457H368.152C368.336 246.145 368.594 245.9 368.926 245.725C369.262 245.549 369.637 245.461 370.051 245.461C371.055 245.461 371.711 245.824 372.02 246.551H372.066C372.258 246.215 372.535 245.949 372.898 245.754C373.262 245.559 373.676 245.461 374.141 245.461C374.867 245.461 375.41 245.648 375.77 246.023C376.133 246.395 376.314 246.99 376.314 247.811V252H375.342ZM383.867 248.783C383.867 249.83 383.604 250.648 383.076 251.238C382.549 251.824 381.82 252.117 380.891 252.117C380.316 252.117 379.807 251.982 379.361 251.713C378.916 251.443 378.572 251.057 378.33 250.553C378.088 250.049 377.967 249.459 377.967 248.783C377.967 247.736 378.229 246.922 378.752 246.34C379.275 245.754 380.002 245.461 380.932 245.461C381.83 245.461 382.543 245.76 383.07 246.357C383.602 246.955 383.867 247.764 383.867 248.783ZM378.975 248.783C378.975 249.604 379.139 250.229 379.467 250.658C379.795 251.088 380.277 251.303 380.914 251.303C381.551 251.303 382.033 251.09 382.361 250.664C382.693 250.234 382.859 249.607 382.859 248.783C382.859 247.967 382.693 247.348 382.361 246.926C382.033 246.5 381.547 246.287 380.902 246.287C380.266 246.287 379.785 246.496 379.461 246.914C379.137 247.332 378.975 247.955 378.975 248.783ZM386.551 252H385.578V245.578H386.551V252ZM385.496 243.838C385.496 243.615 385.551 243.453 385.66 243.352C385.77 243.246 385.906 243.193 386.07 243.193C386.227 243.193 386.361 243.246 386.475 243.352C386.588 243.457 386.645 243.619 386.645 243.838C386.645 244.057 386.588 244.221 386.475 244.33C386.361 244.436 386.227 244.488 386.07 244.488C385.906 244.488 385.77 244.436 385.66 244.33C385.551 244.221 385.496 244.057 385.496 243.838ZM392.984 251.139H392.932C392.482 251.791 391.811 252.117 390.916 252.117C390.076 252.117 389.422 251.83 388.953 251.256C388.488 250.682 388.256 249.865 388.256 248.807C388.256 247.748 388.49 246.926 388.959 246.34C389.428 245.754 390.08 245.461 390.916 245.461C391.787 245.461 392.455 245.777 392.92 246.41H392.996L392.955 245.947L392.932 245.496V242.883H393.904V252H393.113L392.984 251.139ZM391.039 251.303C391.703 251.303 392.184 251.123 392.48 250.764C392.781 250.4 392.932 249.816 392.932 249.012V248.807C392.932 247.896 392.779 247.248 392.475 246.861C392.174 246.471 391.691 246.275 391.027 246.275C390.457 246.275 390.02 246.498 389.715 246.943C389.414 247.385 389.264 248.01 389.264 248.818C389.264 249.639 389.414 250.258 389.715 250.676C390.016 251.094 390.457 251.303 391.039 251.303Z" fill="black"/>
<path d="M435.656 248.438V252H434.66V243.434H437.01C438.061 243.434 438.836 243.635 439.336 244.037C439.84 244.439 440.092 245.045 440.092 245.854C440.092 246.986 439.518 247.752 438.369 248.15L440.695 252H439.518L437.443 248.438H435.656ZM435.656 247.582H437.021C437.725 247.582 438.24 247.443 438.568 247.166C438.896 246.885 439.061 246.465 439.061 245.906C439.061 245.34 438.893 244.932 438.557 244.682C438.225 244.432 437.689 244.307 436.951 244.307H435.656V247.582ZM444.645 252.117C443.695 252.117 442.945 251.828 442.395 251.25C441.848 250.672 441.574 249.869 441.574 248.842C441.574 247.807 441.828 246.984 442.336 246.375C442.848 245.766 443.533 245.461 444.393 245.461C445.197 245.461 445.834 245.727 446.303 246.258C446.771 246.785 447.006 247.482 447.006 248.35V248.965H442.582C442.602 249.719 442.791 250.291 443.15 250.682C443.514 251.072 444.023 251.268 444.68 251.268C445.371 251.268 446.055 251.123 446.73 250.834V251.701C446.387 251.85 446.061 251.955 445.752 252.018C445.447 252.084 445.078 252.117 444.645 252.117ZM444.381 246.275C443.865 246.275 443.453 246.443 443.145 246.779C442.84 247.115 442.66 247.58 442.605 248.174H445.963C445.963 247.561 445.826 247.092 445.553 246.768C445.279 246.439 444.889 246.275 444.381 246.275ZM452.812 250.248C452.812 250.846 452.59 251.307 452.145 251.631C451.699 251.955 451.074 252.117 450.27 252.117C449.418 252.117 448.754 251.982 448.277 251.713V250.811C448.586 250.967 448.916 251.09 449.268 251.18C449.623 251.27 449.965 251.314 450.293 251.314C450.801 251.314 451.191 251.234 451.465 251.074C451.738 250.91 451.875 250.662 451.875 250.33C451.875 250.08 451.766 249.867 451.547 249.691C451.332 249.512 450.91 249.301 450.281 249.059C449.684 248.836 449.258 248.643 449.004 248.479C448.754 248.311 448.566 248.121 448.441 247.91C448.32 247.699 448.26 247.447 448.26 247.154C448.26 246.631 448.473 246.219 448.898 245.918C449.324 245.613 449.908 245.461 450.65 245.461C451.342 245.461 452.018 245.602 452.678 245.883L452.332 246.674C451.688 246.408 451.104 246.275 450.58 246.275C450.119 246.275 449.771 246.348 449.537 246.492C449.303 246.637 449.186 246.836 449.186 247.09C449.186 247.262 449.229 247.408 449.314 247.529C449.404 247.65 449.547 247.766 449.742 247.875C449.938 247.984 450.312 248.143 450.867 248.35C451.629 248.627 452.143 248.906 452.408 249.188C452.678 249.469 452.812 249.822 452.812 250.248ZM458.795 252V247.846C458.795 247.322 458.676 246.932 458.438 246.674C458.199 246.416 457.826 246.287 457.318 246.287C456.643 246.287 456.148 246.471 455.836 246.838C455.527 247.205 455.373 247.807 455.373 248.643V252H454.4V242.883H455.373V245.643C455.373 245.975 455.357 246.25 455.326 246.469H455.385C455.576 246.16 455.848 245.918 456.199 245.742C456.555 245.562 456.959 245.473 457.412 245.473C458.197 245.473 458.785 245.66 459.176 246.035C459.57 246.406 459.768 246.998 459.768 247.811V252H458.795ZM465.721 252L465.527 251.086H465.48C465.16 251.488 464.84 251.762 464.52 251.906C464.203 252.047 463.807 252.117 463.33 252.117C462.693 252.117 462.193 251.953 461.83 251.625C461.471 251.297 461.291 250.83 461.291 250.225C461.291 248.928 462.328 248.248 464.402 248.186L465.492 248.15V247.752C465.492 247.248 465.383 246.877 465.164 246.639C464.949 246.396 464.604 246.275 464.127 246.275C463.592 246.275 462.986 246.439 462.311 246.768L462.012 246.023C462.328 245.852 462.674 245.717 463.049 245.619C463.428 245.521 463.807 245.473 464.186 245.473C464.951 245.473 465.518 245.643 465.885 245.982C466.256 246.322 466.441 246.867 466.441 247.617V252H465.721ZM463.523 251.314C464.129 251.314 464.604 251.148 464.947 250.816C465.295 250.484 465.469 250.02 465.469 249.422V248.842L464.496 248.883C463.723 248.91 463.164 249.031 462.82 249.246C462.48 249.457 462.311 249.787 462.311 250.236C462.311 250.588 462.416 250.855 462.627 251.039C462.842 251.223 463.141 251.314 463.523 251.314ZM471.439 252.117C471.021 252.117 470.639 252.041 470.291 251.889C469.947 251.732 469.658 251.494 469.424 251.174H469.354C469.4 251.549 469.424 251.904 469.424 252.24V254.883H468.451V245.578H469.242L469.377 246.457H469.424C469.674 246.105 469.965 245.852 470.297 245.695C470.629 245.539 471.01 245.461 471.439 245.461C472.291 245.461 472.947 245.752 473.408 246.334C473.873 246.916 474.105 247.732 474.105 248.783C474.105 249.838 473.869 250.658 473.396 251.244C472.928 251.826 472.275 252.117 471.439 252.117ZM471.299 246.287C470.643 246.287 470.168 246.469 469.875 246.832C469.582 247.195 469.432 247.773 469.424 248.566V248.783C469.424 249.686 469.574 250.332 469.875 250.723C470.176 251.109 470.658 251.303 471.322 251.303C471.877 251.303 472.311 251.078 472.623 250.629C472.939 250.18 473.098 249.561 473.098 248.771C473.098 247.971 472.939 247.357 472.623 246.932C472.311 246.502 471.869 246.287 471.299 246.287ZM478.523 252.117C477.574 252.117 476.824 251.828 476.273 251.25C475.727 250.672 475.453 249.869 475.453 248.842C475.453 247.807 475.707 246.984 476.215 246.375C476.727 245.766 477.412 245.461 478.271 245.461C479.076 245.461 479.713 245.727 480.182 246.258C480.65 246.785 480.885 247.482 480.885 248.35V248.965H476.461C476.48 249.719 476.67 250.291 477.029 250.682C477.393 251.072 477.902 251.268 478.559 251.268C479.25 251.268 479.934 251.123 480.609 250.834V251.701C480.266 251.85 479.939 251.955 479.631 252.018C479.326 252.084 478.957 252.117 478.523 252.117ZM478.26 246.275C477.744 246.275 477.332 246.443 477.023 246.779C476.719 247.115 476.539 247.58 476.484 248.174H479.842C479.842 247.561 479.705 247.092 479.432 246.768C479.158 246.439 478.768 246.275 478.26 246.275Z" fill="black"/>
<path d="M27.5 145C27.5 146.262 28.3091 147.15 29.4901 147.757C30.6616 148.36 32.293 148.743 34.1839 148.996C37.9742 149.501 43.0123 149.5 48 149.5C53.0123 149.5 57.9742 149.501 61.6839 149.996C63.543 150.243 65.0366 150.61 66.0526 151.132C67.0591 151.65 67.5 152.262 67.5 153L68.5 153C68.5 151.738 67.6909 150.85 66.5099 150.243C65.3384 149.64 63.707 149.257 61.8161 149.004C58.0258 148.499 52.9877 148.5 48 148.5C42.9877 148.5 38.0258 148.499 34.3161 148.004C32.457 147.757 30.9634 147.39 29.9474 146.868C28.9409 146.35 28.5 145.738 28.5 145L27.5 145ZM107.5 145C107.5 145.738 107.059 146.35 106.053 146.868C105.037 147.39 103.543 147.757 101.684 148.004C97.9742 148.499 93.0123 148.5 88 148.5C83.0123 148.5 77.9742 148.499 74.1839 149.004C72.293 149.257 70.6616 149.64 69.4901 150.243C68.3091 150.85 67.5 151.738 67.5 153L68.5 153C68.5 152.262 68.9409 151.65 69.9474 151.132C70.9634 150.61 72.457 150.243 74.3161 149.996C78.0258 149.501 82.9877 149.5 88 149.5C92.9877 149.5 98.0258 149.501 101.816 148.996C103.707 148.743 105.338 148.36 106.51 147.757C107.691 147.15 108.5 146.262 108.5 145L107.5 145Z" fill="black"/>
<path d="M23 89.5C21.8468 89.5 20.9565 89.9604 20.3014 90.7565C19.6651 91.5298 19.2681 92.5969 19.011 93.8019C18.4975 96.2088 18.5 99.3942 18.5 102.5C18.5 105.644 18.4975 108.709 18.011 110.989C17.7681 112.128 17.4151 113.014 16.9264 113.608C16.4565 114.179 15.8468 114.5 15 114.5L15 115.5C16.1531 115.5 17.0435 115.04 17.6986 114.243C18.3349 113.47 18.7319 112.403 18.989 111.198C19.5025 108.791 19.5 105.606 19.5 102.5C19.5 99.3558 19.5025 96.2912 19.989 94.0106C20.2319 92.8718 20.5849 91.9858 21.0736 91.3919C21.5435 90.8209 22.1532 90.5 23 90.5L23 89.5ZM23 139.5C22.1531 139.5 21.5435 139.179 21.0736 138.608C20.5849 138.014 20.2319 137.128 19.989 135.989C19.5024 133.709 19.5 130.644 19.5 127.5C19.5 124.394 19.5024 121.209 18.989 118.802C18.7319 117.597 18.3349 116.53 17.6986 115.757C17.0435 114.96 16.1531 114.5 15 114.5L15 115.5C15.8468 115.5 16.4565 115.821 16.9264 116.392C17.4151 116.986 17.7681 117.872 18.011 119.011C18.4975 121.291 18.5 124.356 18.5 127.5C18.5 130.606 18.4975 133.791 19.011 136.198C19.2681 137.403 19.6651 138.47 20.3014 139.243C20.9565 140.04 21.8468 140.5 23 140.5L23 139.5Z" fill="black"/>
<path d="M65.3223 166H64.373V159.895C64.373 159.387 64.3887 158.906 64.4199 158.453C64.3379 158.535 64.2461 158.621 64.1445 158.711C64.043 158.801 63.5781 159.182 62.75 159.854L62.2344 159.186L64.502 157.434H65.3223V166ZM74.2637 161.705C74.2637 163.186 74.0293 164.291 73.5605 165.021C73.0957 165.752 72.3828 166.117 71.4219 166.117C70.5 166.117 69.7988 165.744 69.3184 164.998C68.8379 164.248 68.5977 163.15 68.5977 161.705C68.5977 160.213 68.8301 159.105 69.2949 158.383C69.7598 157.66 70.4688 157.299 71.4219 157.299C72.3516 157.299 73.0566 157.676 73.5371 158.43C74.0215 159.184 74.2637 160.275 74.2637 161.705ZM69.582 161.705C69.582 162.951 69.7285 163.859 70.0215 164.43C70.3145 164.996 70.7812 165.279 71.4219 165.279C72.0703 165.279 72.5391 164.992 72.8281 164.418C73.1211 163.84 73.2676 162.936 73.2676 161.705C73.2676 160.475 73.1211 159.574 72.8281 159.004C72.5391 158.43 72.0703 158.143 71.4219 158.143C70.7812 158.143 70.3145 158.426 70.0215 158.992C69.7285 159.555 69.582 160.459 69.582 161.705Z" fill="black"/>
<path d="M3.32227 119H2.37305V112.895C2.37305 112.387 2.38867 111.906 2.41992 111.453C2.33789 111.535 2.24609 111.621 2.14453 111.711C2.04297 111.801 1.57812 112.182 0.75 112.854L0.234375 112.186L2.50195 110.434H3.32227V119ZM6.68555 115.338C6.68555 113.654 7.01172 112.396 7.66406 111.564C8.32031 110.729 9.28906 110.311 10.5703 110.311C11.0117 110.311 11.3594 110.348 11.6133 110.422V111.26C11.3125 111.162 10.9688 111.113 10.582 111.113C9.66406 111.113 8.96289 111.4 8.47852 111.975C7.99414 112.545 7.72852 113.443 7.68164 114.67H7.75195C8.18164 113.998 8.86133 113.662 9.79102 113.662C10.5605 113.662 11.166 113.895 11.6074 114.359C12.0527 114.824 12.2754 115.455 12.2754 116.252C12.2754 117.143 12.0312 117.844 11.543 118.355C11.0586 118.863 10.4023 119.117 9.57422 119.117C8.6875 119.117 7.98438 118.785 7.46484 118.121C6.94531 117.453 6.68555 116.525 6.68555 115.338ZM9.5625 118.291C10.1172 118.291 10.5469 118.117 10.8516 117.77C11.1602 117.418 11.3145 116.912 11.3145 116.252C11.3145 115.686 11.1719 115.24 10.8867 114.916C10.6016 114.592 10.1758 114.43 9.60938 114.43C9.25781 114.43 8.93555 114.502 8.64258 114.646C8.34961 114.791 8.11523 114.99 7.93945 115.244C7.76758 115.498 7.68164 115.762 7.68164 116.035C7.68164 116.438 7.75977 116.812 7.91602 117.16C8.07227 117.508 8.29297 117.783 8.57812 117.986C8.86719 118.189 9.19531 118.291 9.5625 118.291Z" fill="black"/>
<path d="M174 67.5C172.694 67.5 171.817 68.4764 171.229 69.819C170.636 71.1749 170.255 73.0717 170.003 75.2874C169.499 79.7281 169.5 85.6355 169.5 91.5C169.5 97.3855 169.499 103.228 169.003 107.6C168.755 109.79 168.386 111.566 167.854 112.78C167.317 114.008 166.694 114.5 166 114.5L166 115.5C167.306 115.5 168.183 114.524 168.771 113.181C169.364 111.825 169.745 109.928 169.997 107.713C170.501 103.272 170.5 97.3645 170.5 91.5C170.5 85.6145 170.501 79.7719 170.997 75.4001C171.245 73.2095 171.614 71.4345 172.146 70.22C172.683 68.9923 173.306 68.5 174 68.5L174 67.5ZM174 161.5C173.306 161.5 172.683 161.008 172.146 159.78C171.614 158.566 171.245 156.79 170.997 154.6C170.501 150.228 170.5 144.385 170.5 138.5C170.5 132.635 170.501 126.728 169.997 122.287C169.745 120.072 169.364 118.175 168.771 116.819C168.183 115.476 167.306 114.5 166 114.5L166 115.5C166.694 115.5 167.317 115.992 167.854 117.22C168.386 118.434 168.755 120.21 169.003 122.4C169.499 126.772 169.5 132.615 169.5 138.5C169.5 144.365 169.499 150.272 170.003 154.713C170.255 156.928 170.636 158.825 171.229 160.181C171.817 161.524 172.694 162.5 174 162.5L174 161.5Z" fill="black"/>
<path d="M146.463 113.768C147.365 113.768 148.074 113.992 148.59 114.441C149.109 114.887 149.369 115.498 149.369 116.275C149.369 117.162 149.086 117.857 148.52 118.361C147.957 118.865 147.18 119.117 146.188 119.117C145.223 119.117 144.486 118.963 143.979 118.654V117.717C144.252 117.893 144.592 118.031 144.998 118.133C145.404 118.23 145.805 118.279 146.199 118.279C146.887 118.279 147.42 118.117 147.799 117.793C148.182 117.469 148.373 117 148.373 116.387C148.373 115.191 147.641 114.594 146.176 114.594C145.805 114.594 145.309 114.65 144.688 114.764L144.184 114.441L144.506 110.434H148.766V111.33H145.338L145.121 113.902C145.57 113.812 146.018 113.768 146.463 113.768ZM154.256 119H153.307V112.895C153.307 112.387 153.322 111.906 153.354 111.453C153.271 111.535 153.18 111.621 153.078 111.711C152.977 111.801 152.512 112.182 151.684 112.854L151.168 112.186L153.436 110.434H154.256V119ZM163.15 119H157.52V118.162L159.775 115.895C160.463 115.199 160.916 114.703 161.135 114.406C161.354 114.109 161.518 113.82 161.627 113.539C161.736 113.258 161.791 112.955 161.791 112.631C161.791 112.174 161.652 111.812 161.375 111.547C161.098 111.277 160.713 111.143 160.221 111.143C159.865 111.143 159.527 111.201 159.207 111.318C158.891 111.436 158.537 111.648 158.146 111.957L157.631 111.295C158.42 110.639 159.279 110.311 160.209 110.311C161.014 110.311 161.645 110.518 162.102 110.932C162.559 111.342 162.787 111.895 162.787 112.59C162.787 113.133 162.635 113.67 162.33 114.201C162.025 114.732 161.455 115.404 160.619 116.217L158.744 118.051V118.098H163.15V119Z" fill="black"/>
<path d="M262 33.5C261.255 33.5 260.685 33.9798 260.26 34.6386C259.833 35.2992 259.489 36.2305 259.203 37.3574C258.629 39.6186 258.251 42.8205 258.001 46.6234C257.5 54.2373 257.5 64.3811 257.5 74.5C257.5 84.6311 257.5 94.7373 257.001 102.311C256.751 106.102 256.379 109.228 255.828 111.396C255.552 112.484 255.24 113.293 254.9 113.819C254.56 114.347 254.255 114.5 254 114.5L254 115.5C254.745 115.5 255.315 115.02 255.74 114.361C256.167 113.701 256.511 112.769 256.797 111.643C257.371 109.381 257.749 106.179 257.999 102.377C258.5 94.7627 258.5 84.6189 258.5 74.5C258.5 64.3689 258.5 54.2627 258.999 46.6891C259.249 42.8982 259.621 39.772 260.172 37.6035C260.448 36.5156 260.76 35.7067 261.1 35.1808C261.44 34.653 261.745 34.5 262 34.5L262 33.5ZM262 195.5C261.745 195.5 261.44 195.347 261.1 194.819C260.76 194.293 260.448 193.484 260.172 192.396C259.621 190.228 259.249 187.102 258.999 183.311C258.5 175.737 258.5 165.631 258.5 155.5C258.5 145.381 258.5 135.237 257.999 127.623C257.749 123.821 257.371 120.619 256.797 118.357C256.511 117.231 256.167 116.299 255.74 115.639C255.315 114.98 254.745 114.5 254 114.5L254 115.5C254.255 115.5 254.56 115.653 254.9 116.181C255.24 116.707 255.552 117.516 255.828 118.604C256.379 120.772 256.751 123.898 257.001 127.689C257.5 135.263 257.5 145.369 257.5 155.5C257.5 165.619 257.5 175.763 258.001 183.377C258.251 187.179 258.629 190.381 259.203 192.643C259.489 193.769 259.833 194.701 260.26 195.361C260.685 196.02 261.255 196.5 262 196.5L262 195.5Z" fill="black"/>
<path d="M228.455 119H227.506V112.895C227.506 112.387 227.521 111.906 227.553 111.453C227.471 111.535 227.379 111.621 227.277 111.711C227.176 111.801 226.711 112.182 225.883 112.854L225.367 112.186L227.635 110.434H228.455V119ZM237.396 114.705C237.396 116.186 237.162 117.291 236.693 118.021C236.229 118.752 235.516 119.117 234.555 119.117C233.633 119.117 232.932 118.744 232.451 117.998C231.971 117.248 231.73 116.15 231.73 114.705C231.73 113.213 231.963 112.105 232.428 111.383C232.893 110.66 233.602 110.299 234.555 110.299C235.484 110.299 236.189 110.676 236.67 111.43C237.154 112.184 237.396 113.275 237.396 114.705ZM232.715 114.705C232.715 115.951 232.861 116.859 233.154 117.43C233.447 117.996 233.914 118.279 234.555 118.279C235.203 118.279 235.672 117.992 235.961 117.418C236.254 116.84 236.4 115.936 236.4 114.705C236.4 113.475 236.254 112.574 235.961 112.004C235.672 111.43 235.203 111.143 234.555 111.143C233.914 111.143 233.447 111.426 233.154 111.992C232.861 112.555 232.715 113.459 232.715 114.705ZM244.217 119H238.586V118.162L240.842 115.895C241.529 115.199 241.982 114.703 242.201 114.406C242.42 114.109 242.584 113.82 242.693 113.539C242.803 113.258 242.857 112.955 242.857 112.631C242.857 112.174 242.719 111.812 242.441 111.547C242.164 111.277 241.779 111.143 241.287 111.143C240.932 111.143 240.594 111.201 240.273 111.318C239.957 111.436 239.604 111.648 239.213 111.957L238.697 111.295C239.486 110.639 240.346 110.311 241.275 110.311C242.08 110.311 242.711 110.518 243.168 110.932C243.625 111.342 243.854 111.895 243.854 112.59C243.854 113.133 243.701 113.67 243.396 114.201C243.092 114.732 242.521 115.404 241.686 116.217L239.811 118.051V118.098H244.217V119ZM251.488 117.031H250.217V119H249.285V117.031H245.119V116.182L249.186 110.387H250.217V116.146H251.488V117.031ZM249.285 116.146V113.299C249.285 112.74 249.305 112.109 249.344 111.406H249.297C249.109 111.781 248.934 112.092 248.77 112.338L246.092 116.146H249.285Z" fill="black"/>
<path d="M350 0.500001C349.586 0.500001 349.232 0.688884 348.946 0.970218C348.665 1.24534 348.43 1.62587 348.225 2.07189C347.816 2.96472 347.479 4.23871 347.195 5.80965C346.627 8.9609 346.251 13.4414 346.001 18.7891C345.5 29.491 345.5 43.7544 345.5 58C345.5 72.2544 345.5 86.491 345.001 97.1641C344.751 102.504 344.377 106.93 343.82 110.013C343.541 111.559 343.222 112.734 342.866 113.511C342.687 113.9 342.513 114.16 342.354 114.316C342.201 114.466 342.086 114.5 342 114.5L342 115.5C342.414 115.5 342.768 115.311 343.054 115.03C343.335 114.755 343.57 114.374 343.775 113.928C344.184 113.035 344.521 111.761 344.805 110.19C345.373 107.039 345.749 102.559 345.999 97.2109C346.5 86.509 346.5 72.2456 346.5 58C346.5 43.7456 346.5 29.509 346.999 18.8359C347.249 13.4961 347.623 9.07035 348.18 5.98723C348.459 4.44098 348.778 3.26576 349.134 2.48866C349.313 2.09972 349.487 1.84012 349.646 1.68384C349.799 1.53377 349.914 1.5 350 1.5L350 0.500001ZM350 228.5C349.914 228.5 349.799 228.466 349.646 228.316C349.487 228.16 349.313 227.9 349.134 227.511C348.778 226.734 348.459 225.559 348.18 224.013C347.623 220.93 347.249 216.504 346.999 211.164C346.5 200.491 346.5 186.254 346.5 172C346.5 157.754 346.5 143.491 345.999 132.789C345.749 127.441 345.373 122.961 344.805 119.81C344.521 118.239 344.184 116.965 343.775 116.072C343.57 115.626 343.335 115.245 343.054 114.97C342.768 114.689 342.414 114.5 342 114.5L342 115.5C342.086 115.5 342.201 115.534 342.354 115.684C342.513 115.84 342.687 116.1 342.866 116.489C343.222 117.266 343.541 118.441 343.82 119.987C344.377 123.07 344.751 127.496 345.001 132.836C345.5 143.509 345.5 157.746 345.5 172C345.5 186.246 345.5 200.509 346.001 211.211C346.251 216.559 346.627 221.039 347.195 224.19C347.479 225.761 347.816 227.035 348.225 227.928C348.43 228.374 348.665 228.755 348.946 229.03C349.232 229.311 349.586 229.5 350 229.5L350 228.5Z" fill="black"/>
<path d="M318.16 112.449C318.16 112.996 318.006 113.443 317.697 113.791C317.393 114.139 316.959 114.371 316.396 114.488V114.535C317.084 114.621 317.594 114.84 317.926 115.191C318.258 115.543 318.424 116.004 318.424 116.574C318.424 117.391 318.141 118.02 317.574 118.461C317.008 118.898 316.203 119.117 315.16 119.117C314.707 119.117 314.291 119.082 313.912 119.012C313.537 118.945 313.172 118.826 312.816 118.654V117.729C313.188 117.912 313.582 118.053 314 118.15C314.422 118.244 314.82 118.291 315.195 118.291C316.676 118.291 317.416 117.711 317.416 116.551C317.416 115.512 316.6 114.992 314.967 114.992H314.123V114.154H314.979C315.646 114.154 316.176 114.008 316.566 113.715C316.957 113.418 317.152 113.008 317.152 112.484C317.152 112.066 317.008 111.738 316.719 111.5C316.434 111.262 316.045 111.143 315.553 111.143C315.178 111.143 314.824 111.193 314.492 111.295C314.16 111.396 313.781 111.584 313.355 111.857L312.863 111.201C313.215 110.924 313.619 110.707 314.076 110.551C314.537 110.391 315.021 110.311 315.529 110.311C316.361 110.311 317.008 110.502 317.469 110.885C317.93 111.264 318.16 111.785 318.16 112.449ZM325.396 114.705C325.396 116.186 325.162 117.291 324.693 118.021C324.229 118.752 323.516 119.117 322.555 119.117C321.633 119.117 320.932 118.744 320.451 117.998C319.971 117.248 319.73 116.15 319.73 114.705C319.73 113.213 319.963 112.105 320.428 111.383C320.893 110.66 321.602 110.299 322.555 110.299C323.484 110.299 324.189 110.676 324.67 111.43C325.154 112.184 325.396 113.275 325.396 114.705ZM320.715 114.705C320.715 115.951 320.861 116.859 321.154 117.43C321.447 117.996 321.914 118.279 322.555 118.279C323.203 118.279 323.672 117.992 323.961 117.418C324.254 116.84 324.4 115.936 324.4 114.705C324.4 113.475 324.254 112.574 323.961 112.004C323.672 111.43 323.203 111.143 322.555 111.143C321.914 111.143 321.447 111.426 321.154 111.992C320.861 112.555 320.715 113.459 320.715 114.705ZM327.67 119L331.221 111.33H326.551V110.434H332.252V111.213L328.748 119H327.67ZM339.084 119H333.453V118.162L335.709 115.895C336.396 115.199 336.85 114.703 337.068 114.406C337.287 114.109 337.451 113.82 337.561 113.539C337.67 113.258 337.725 112.955 337.725 112.631C337.725 112.174 337.586 111.812 337.309 111.547C337.031 111.277 336.646 111.143 336.154 111.143C335.799 111.143 335.461 111.201 335.141 111.318C334.824 111.436 334.471 111.648 334.08 111.957L333.564 111.295C334.354 110.639 335.213 110.311 336.143 110.311C336.947 110.311 337.578 110.518 338.035 110.932C338.492 111.342 338.721 111.895 338.721 112.59C338.721 113.133 338.568 113.67 338.264 114.201C337.959 114.732 337.389 115.404 336.553 116.217L334.678 118.051V118.098H339.084V119Z" fill="black"/>
<path d="M401.961 43.4492C401.961 43.9961 401.807 44.4434 401.498 44.791C401.193 45.1387 400.76 45.3711 400.197 45.4883V45.5352C400.885 45.6211 401.395 45.8398 401.727 46.1914C402.059 46.543 402.225 47.0039 402.225 47.5742C402.225 48.3906 401.941 49.0195 401.375 49.4609C400.809 49.8984 400.004 50.1172 398.961 50.1172C398.508 50.1172 398.092 50.082 397.713 50.0117C397.338 49.9453 396.973 49.8262 396.617 49.6543V48.7285C396.988 48.9121 397.383 49.0527 397.801 49.1504C398.223 49.2441 398.621 49.291 398.996 49.291C400.477 49.291 401.217 48.7109 401.217 47.5508C401.217 46.5117 400.4 45.9922 398.768 45.9922H397.924V45.1543H398.779C399.447 45.1543 399.977 45.0078 400.367 44.7148C400.758 44.418 400.953 44.0078 400.953 43.4844C400.953 43.0664 400.809 42.7383 400.52 42.5C400.234 42.2617 399.846 42.1426 399.354 42.1426C398.979 42.1426 398.625 42.1934 398.293 42.2949C397.961 42.3965 397.582 42.584 397.156 42.8574L396.664 42.2012C397.016 41.9238 397.42 41.707 397.877 41.5508C398.338 41.3906 398.822 41.3105 399.33 41.3105C400.162 41.3105 400.809 41.502 401.27 41.8848C401.73 42.2637 401.961 42.7852 401.961 43.4492Z" fill="black"/>
<path d="M408.33 52.0963C408.075 51.7571 407.802 51.5067 407.501 51.3561C407.191 51.2007 406.879 51.1658 406.581 51.2153C406.035 51.3058 405.548 51.6869 405.196 51.9518C404.782 52.2633 404.503 52.4586 404.249 52.5007C404.148 52.5175 404.051 52.5079 403.94 52.4523C403.82 52.3919 403.658 52.2649 403.463 52.0049L402.664 52.6062C402.919 52.9454 403.192 53.1958 403.492 53.3464C403.803 53.5018 404.114 53.5367 404.413 53.4872C404.959 53.3967 405.446 53.0156 405.798 52.7507C406.212 52.4392 406.49 52.2439 406.744 52.2018C406.846 52.185 406.942 52.1946 407.053 52.2502C407.174 52.3105 407.335 52.4376 407.531 52.6976L408.33 52.0963ZM402.204 56.7074C402.008 56.4473 401.93 56.2571 401.906 56.1246C401.883 56.0025 401.901 55.9071 401.945 55.8143C402.056 55.5818 402.32 55.3679 402.734 55.0563C403.086 54.7915 403.587 54.429 403.825 53.9296C403.955 53.6565 404.008 53.3471 403.945 53.006C403.883 52.6753 403.718 52.3441 403.463 52.0049L402.664 52.6062C402.859 52.8663 402.937 53.0565 402.962 53.1889C402.984 53.3111 402.967 53.4065 402.923 53.4993C402.812 53.7318 402.547 53.9457 402.133 54.2573C401.781 54.5221 401.28 54.8846 401.042 55.384C400.912 55.6571 400.859 55.9665 400.923 56.3076C400.984 56.6383 401.149 56.9695 401.405 57.3087L402.204 56.7074Z" fill="black"/>
<path d="M405 60.4366L410.889 56L511 56V156.563L505.111 161H405V60.4366Z" fill="white"/>
<path d="M405 60.4366L410.889 56L511 56M405 60.4366H505.111M405 60.4366V161H505.111M511 56L505.111 60.4366M511 56V156.563L505.111 161M505.111 60.4366V161" stroke="black" stroke-width="2"/>
<line x1="178.735" y1="161.265" x2="107.735" y2="90.2652" stroke="black" stroke-width="0.75" stroke-dasharray="2 3"/>
<line x1="107.735" y1="139.735" x2="178.735" y2="68.7348" stroke="black" stroke-width="0.75" stroke-dasharray="2 3"/>
<line x1="266.68" y1="195.196" x2="188.68" y2="68.1963" stroke="black" stroke-width="0.75" stroke-dasharray="2 3"/>
<line x1="188.68" y1="161.804" x2="266.68" y2="34.8037" stroke="black" stroke-width="0.75" stroke-dasharray="2 3"/>
<line x1="354.652" y1="228.141" x2="276.652" y2="35.1405" stroke="black" stroke-width="0.75" stroke-dasharray="2 3"/>
<line x1="276.652" y1="195.86" x2="354.652" y2="1.86012" stroke="black" stroke-width="0.75" stroke-dasharray="2 3"/>
<rect x="28" y="90" width="80" height="50" fill="white" stroke="#32ACF1" stroke-width="2"/>
<rect x="189" y="68" width="94" height="10" transform="rotate(90 189 68)" fill="white" stroke="black" stroke-width="2"/>
<rect x="277" y="34" width="162" height="9.99999" transform="rotate(90 277 34)" fill="white" stroke="black" stroke-width="2"/>
<rect x="365" y="1" width="228" height="9.99999" transform="rotate(90 365 1)" fill="white" stroke="black" stroke-width="2"/>
<path d="M395.354 115.354C395.549 115.158 395.549 114.842 395.354 114.646L392.172 111.464C391.976 111.269 391.66 111.269 391.464 111.464C391.269 111.66 391.269 111.976 391.464 112.172L394.293 115L391.464 117.828C391.269 118.024 391.269 118.34 391.464 118.536C391.66 118.731 391.976 118.731 392.172 118.536L395.354 115.354ZM375 115.5H395V114.5H375V115.5Z" fill="black"/>
</svg>
