<svg width="522" height="217" viewBox="0 0 522 217" fill="none" xmlns="http://www.w3.org/2000/svg">
<path d="M414.5 133C414.5 134.512 415.465 135.587 416.92 136.335C418.365 137.078 420.387 137.556 422.746 137.871C427.474 138.501 433.762 138.5 440 138.5C446.262 138.5 452.474 138.501 457.121 139.121C459.449 139.431 461.333 139.891 462.623 140.554C463.903 141.212 464.5 142.012 464.5 143L465.5 143C465.5 141.488 464.535 140.413 463.08 139.665C461.635 138.922 459.613 138.444 457.254 138.129C452.526 137.499 446.238 137.5 440 137.5C433.738 137.5 427.526 137.499 422.879 136.879C420.551 136.569 418.667 136.109 417.377 135.446C416.097 134.788 415.5 133.988 415.5 133L414.5 133ZM514.5 133C514.5 133.988 513.903 134.788 512.623 135.446C511.333 136.109 509.449 136.569 507.121 136.879C502.474 137.499 496.262 137.5 490 137.5C483.762 137.5 477.474 137.499 472.746 138.129C470.387 138.444 468.365 138.922 466.92 139.665C465.465 140.413 464.5 141.488 464.5 143L465.5 143C465.5 142.012 466.097 141.212 467.377 140.554C468.667 139.891 470.551 139.431 472.879 139.121C477.526 138.501 483.738 138.5 490 138.5C496.238 138.5 502.526 138.501 507.254 137.871C509.613 137.556 511.635 137.078 513.08 136.335C514.535 135.587 515.5 134.512 515.5 133L514.5 133Z" fill="black"/>
<path d="M414.5 133C414.5 134.512 415.465 135.587 416.92 136.335C418.365 137.078 420.387 137.556 422.746 137.871C427.474 138.501 433.762 138.5 440 138.5C446.262 138.5 452.474 138.501 457.121 139.121C459.449 139.431 461.333 139.891 462.623 140.554C463.903 141.212 464.5 142.012 464.5 143L465.5 143C465.5 141.488 464.535 140.413 463.08 139.665C461.635 138.922 459.613 138.444 457.254 138.129C452.526 137.499 446.238 137.5 440 137.5C433.738 137.5 427.526 137.499 422.879 136.879C420.551 136.569 418.667 136.109 417.377 135.446C416.097 134.788 415.5 133.988 415.5 133L414.5 133ZM514.5 133C514.5 133.988 513.903 134.788 512.623 135.446C511.333 136.109 509.449 136.569 507.121 136.879C502.474 137.499 496.262 137.5 490 137.5C483.762 137.5 477.474 137.499 472.746 138.129C470.387 138.444 468.365 138.922 466.92 139.665C465.465 140.413 464.5 141.488 464.5 143L465.5 143C465.5 142.012 466.097 141.212 467.377 140.554C468.667 139.891 470.551 139.431 472.879 139.121C477.526 138.501 483.738 138.5 490 138.5C496.238 138.5 502.526 138.501 507.254 137.871C509.613 137.556 511.635 137.078 513.08 136.335C514.535 135.587 515.5 134.512 515.5 133L514.5 133Z" fill="black"/>
<path d="M464.027 149.449C464.027 149.996 463.873 150.443 463.564 150.791C463.26 151.139 462.826 151.371 462.264 151.488V151.535C462.951 151.621 463.461 151.84 463.793 152.191C464.125 152.543 464.291 153.004 464.291 153.574C464.291 154.391 464.008 155.02 463.441 155.461C462.875 155.898 462.07 156.117 461.027 156.117C460.574 156.117 460.158 156.082 459.779 156.012C459.404 155.945 459.039 155.826 458.684 155.654V154.729C459.055 154.912 459.449 155.053 459.867 155.15C460.289 155.244 460.688 155.291 461.062 155.291C462.543 155.291 463.283 154.711 463.283 153.551C463.283 152.512 462.467 151.992 460.834 151.992H459.99V151.154H460.846C461.514 151.154 462.043 151.008 462.434 150.715C462.824 150.418 463.02 150.008 463.02 149.484C463.02 149.066 462.875 148.738 462.586 148.5C462.301 148.262 461.912 148.143 461.42 148.143C461.045 148.143 460.691 148.193 460.359 148.295C460.027 148.396 459.648 148.584 459.223 148.857L458.73 148.201C459.082 147.924 459.486 147.707 459.943 147.551C460.404 147.391 460.889 147.311 461.396 147.311C462.229 147.311 462.875 147.502 463.336 147.885C463.797 148.264 464.027 148.785 464.027 149.449ZM471.217 156H465.586V155.162L467.842 152.895C468.529 152.199 468.982 151.703 469.201 151.406C469.42 151.109 469.584 150.82 469.693 150.539C469.803 150.258 469.857 149.955 469.857 149.631C469.857 149.174 469.719 148.812 469.441 148.547C469.164 148.277 468.779 148.143 468.287 148.143C467.932 148.143 467.594 148.201 467.273 148.318C466.957 148.436 466.604 148.648 466.213 148.957L465.697 148.295C466.486 147.639 467.346 147.311 468.275 147.311C469.08 147.311 469.711 147.518 470.168 147.932C470.625 148.342 470.854 148.895 470.854 149.59C470.854 150.133 470.701 150.67 470.396 151.201C470.092 151.732 469.521 152.404 468.686 153.217L466.811 155.051V155.098H471.217V156Z" fill="black"/>
<path d="M50.0254 209.635C50.0254 211.049 49.6406 212.131 48.8711 212.881C48.1055 213.627 47.002 214 45.5605 214H43.1875V205.434H45.8125C47.1445 205.434 48.1797 205.803 48.918 206.541C49.6562 207.279 50.0254 208.311 50.0254 209.635ZM48.9707 209.67C48.9707 208.553 48.6895 207.711 48.127 207.145C47.5684 206.578 46.7363 206.295 45.6309 206.295H44.1836V213.139H45.3965C46.584 213.139 47.4766 212.848 48.0742 212.266C48.6719 211.68 48.9707 210.814 48.9707 209.67ZM52.7676 214H51.7949V207.578H52.7676V214ZM51.7129 205.838C51.7129 205.615 51.7676 205.453 51.877 205.352C51.9863 205.246 52.123 205.193 52.2871 205.193C52.4434 205.193 52.5781 205.246 52.6914 205.352C52.8047 205.457 52.8613 205.619 52.8613 205.838C52.8613 206.057 52.8047 206.221 52.6914 206.33C52.5781 206.436 52.4434 206.488 52.2871 206.488C52.123 206.488 51.9863 206.436 51.877 206.33C51.7676 206.221 51.7129 206.057 51.7129 205.838ZM60.0859 207.578V208.193L58.8965 208.334C59.0059 208.471 59.1035 208.65 59.1895 208.873C59.2754 209.092 59.3184 209.34 59.3184 209.617C59.3184 210.246 59.1035 210.748 58.6738 211.123C58.2441 211.498 57.6543 211.686 56.9043 211.686C56.7129 211.686 56.5332 211.67 56.3652 211.639C55.9512 211.857 55.7441 212.133 55.7441 212.465C55.7441 212.641 55.8164 212.771 55.9609 212.857C56.1055 212.939 56.3535 212.98 56.7051 212.98H57.8418C58.5371 212.98 59.0703 213.127 59.4414 213.42C59.8164 213.713 60.0039 214.139 60.0039 214.697C60.0039 215.408 59.7188 215.949 59.1484 216.32C58.5781 216.695 57.7461 216.883 56.6523 216.883C55.8125 216.883 55.1641 216.727 54.707 216.414C54.2539 216.102 54.0273 215.66 54.0273 215.09C54.0273 214.699 54.1523 214.361 54.4023 214.076C54.6523 213.791 55.0039 213.598 55.457 213.496C55.293 213.422 55.1543 213.307 55.041 213.15C54.9316 212.994 54.877 212.812 54.877 212.605C54.877 212.371 54.9395 212.166 55.0645 211.99C55.1895 211.814 55.3867 211.645 55.6562 211.48C55.3242 211.344 55.0527 211.111 54.8418 210.783C54.6348 210.455 54.5312 210.08 54.5312 209.658C54.5312 208.955 54.7422 208.414 55.1641 208.035C55.5859 207.652 56.1836 207.461 56.957 207.461C57.293 207.461 57.5957 207.5 57.8652 207.578H60.0859ZM54.9648 215.078C54.9648 215.426 55.1113 215.689 55.4043 215.869C55.6973 216.049 56.1172 216.139 56.6641 216.139C57.4805 216.139 58.084 216.016 58.4746 215.77C58.8691 215.527 59.0664 215.197 59.0664 214.779C59.0664 214.432 58.959 214.189 58.7441 214.053C58.5293 213.92 58.125 213.854 57.5312 213.854H56.3652C55.9238 213.854 55.5801 213.959 55.334 214.17C55.0879 214.381 54.9648 214.684 54.9648 215.078ZM55.4922 209.635C55.4922 210.084 55.6191 210.424 55.873 210.654C56.127 210.885 56.4805 211 56.9336 211C57.8828 211 58.3574 210.539 58.3574 209.617C58.3574 208.652 57.877 208.17 56.916 208.17C56.459 208.17 56.1074 208.293 55.8613 208.539C55.6152 208.785 55.4922 209.15 55.4922 209.635ZM62.377 214H61.4043V207.578H62.377V214ZM61.3223 205.838C61.3223 205.615 61.377 205.453 61.4863 205.352C61.5957 205.246 61.7324 205.193 61.8965 205.193C62.0527 205.193 62.1875 205.246 62.3008 205.352C62.4141 205.457 62.4707 205.619 62.4707 205.838C62.4707 206.057 62.4141 206.221 62.3008 206.33C62.1875 206.436 62.0527 206.488 61.8965 206.488C61.7324 206.488 61.5957 206.436 61.4863 206.33C61.377 206.221 61.3223 206.057 61.3223 205.838ZM66.5137 213.314C66.6855 213.314 66.8516 213.303 67.0117 213.279C67.1719 213.252 67.2988 213.225 67.3926 213.197V213.941C67.2871 213.992 67.1309 214.033 66.9238 214.064C66.7207 214.1 66.5371 214.117 66.373 214.117C65.1309 214.117 64.5098 213.463 64.5098 212.154V208.334H63.5898V207.865L64.5098 207.461L64.9199 206.09H65.4824V207.578H67.3457V208.334H65.4824V212.113C65.4824 212.5 65.5742 212.797 65.7578 213.004C65.9414 213.211 66.1934 213.314 66.5137 213.314ZM72.4961 206.201C71.5547 206.201 70.8105 206.516 70.2637 207.145C69.7207 207.77 69.4492 208.627 69.4492 209.717C69.4492 210.838 69.7109 211.705 70.2344 212.318C70.7617 212.928 71.5117 213.232 72.4844 213.232C73.082 213.232 73.7637 213.125 74.5293 212.91V213.783C73.9355 214.006 73.2031 214.117 72.332 214.117C71.0703 214.117 70.0957 213.734 69.4082 212.969C68.7246 212.203 68.3828 211.115 68.3828 209.705C68.3828 208.822 68.5469 208.049 68.875 207.385C69.207 206.721 69.6836 206.209 70.3047 205.85C70.9297 205.49 71.6641 205.311 72.5078 205.311C73.4062 205.311 74.1914 205.475 74.8633 205.803L74.4414 206.658C73.793 206.354 73.1445 206.201 72.4961 206.201ZM80.2012 214L80.0078 213.086H79.9609C79.6406 213.488 79.3203 213.762 79 213.906C78.6836 214.047 78.2871 214.117 77.8105 214.117C77.1738 214.117 76.6738 213.953 76.3105 213.625C75.9512 213.297 75.7715 212.83 75.7715 212.225C75.7715 210.928 76.8086 210.248 78.8828 210.186L79.9727 210.15V209.752C79.9727 209.248 79.8633 208.877 79.6445 208.639C79.4297 208.396 79.084 208.275 78.6074 208.275C78.0723 208.275 77.4668 208.439 76.791 208.768L76.4922 208.023C76.8086 207.852 77.1543 207.717 77.5293 207.619C77.9082 207.521 78.2871 207.473 78.666 207.473C79.4316 207.473 79.998 207.643 80.3652 207.982C80.7363 208.322 80.9219 208.867 80.9219 209.617V214H80.2012ZM78.0039 213.314C78.6094 213.314 79.084 213.148 79.4277 212.816C79.7754 212.484 79.9492 212.02 79.9492 211.422V210.842L78.9766 210.883C78.2031 210.91 77.6445 211.031 77.3008 211.246C76.9609 211.457 76.791 211.787 76.791 212.236C76.791 212.588 76.8965 212.855 77.1074 213.039C77.3223 213.223 77.6211 213.314 78.0039 213.314ZM85.9199 214.117C85.502 214.117 85.1191 214.041 84.7715 213.889C84.4277 213.732 84.1387 213.494 83.9043 213.174H83.834C83.8809 213.549 83.9043 213.904 83.9043 214.24V216.883H82.9316V207.578H83.7227L83.8574 208.457H83.9043C84.1543 208.105 84.4453 207.852 84.7773 207.695C85.1094 207.539 85.4902 207.461 85.9199 207.461C86.7715 207.461 87.4277 207.752 87.8887 208.334C88.3535 208.916 88.5859 209.732 88.5859 210.783C88.5859 211.838 88.3496 212.658 87.877 213.244C87.4082 213.826 86.7559 214.117 85.9199 214.117ZM85.7793 208.287C85.123 208.287 84.6484 208.469 84.3555 208.832C84.0625 209.195 83.9121 209.773 83.9043 210.566V210.783C83.9043 211.686 84.0547 212.332 84.3555 212.723C84.6562 213.109 85.1387 213.303 85.8027 213.303C86.3574 213.303 86.791 213.078 87.1035 212.629C87.4199 212.18 87.5781 211.561 87.5781 210.771C87.5781 209.971 87.4199 209.357 87.1035 208.932C86.791 208.502 86.3496 208.287 85.7793 208.287ZM94.4336 212.248C94.4336 212.846 94.2109 213.307 93.7656 213.631C93.3203 213.955 92.6953 214.117 91.8906 214.117C91.0391 214.117 90.375 213.982 89.8984 213.713V212.811C90.207 212.967 90.5371 213.09 90.8887 213.18C91.2441 213.27 91.5859 213.314 91.9141 213.314C92.4219 213.314 92.8125 213.234 93.0859 213.074C93.3594 212.91 93.4961 212.662 93.4961 212.33C93.4961 212.08 93.3867 211.867 93.168 211.691C92.9531 211.512 92.5312 211.301 91.9023 211.059C91.3047 210.836 90.8789 210.643 90.625 210.479C90.375 210.311 90.1875 210.121 90.0625 209.91C89.9414 209.699 89.8809 209.447 89.8809 209.154C89.8809 208.631 90.0938 208.219 90.5195 207.918C90.9453 207.613 91.5293 207.461 92.2715 207.461C92.9629 207.461 93.6387 207.602 94.2988 207.883L93.9531 208.674C93.3086 208.408 92.7246 208.275 92.2012 208.275C91.7402 208.275 91.3926 208.348 91.1582 208.492C90.9238 208.637 90.8066 208.836 90.8066 209.09C90.8066 209.262 90.8496 209.408 90.9355 209.529C91.0254 209.65 91.168 209.766 91.3633 209.875C91.5586 209.984 91.9336 210.143 92.4883 210.35C93.25 210.627 93.7637 210.906 94.0293 211.188C94.2988 211.469 94.4336 211.822 94.4336 212.248Z" fill="black"/>
<path d="M157.672 214H156.676V205.434H161.451V206.318H157.672V209.453H161.223V210.338H157.672V214ZM166.543 206.201C165.602 206.201 164.857 206.516 164.311 207.145C163.768 207.77 163.496 208.627 163.496 209.717C163.496 210.838 163.758 211.705 164.281 212.318C164.809 212.928 165.559 213.232 166.531 213.232C167.129 213.232 167.811 213.125 168.576 212.91V213.783C167.982 214.006 167.25 214.117 166.379 214.117C165.117 214.117 164.143 213.734 163.455 212.969C162.771 212.203 162.43 211.115 162.43 209.705C162.43 208.822 162.594 208.049 162.922 207.385C163.254 206.721 163.73 206.209 164.352 205.85C164.977 205.49 165.711 205.311 166.555 205.311C167.453 205.311 168.238 205.475 168.91 205.803L168.488 206.658C167.84 206.354 167.191 206.201 166.543 206.201ZM176.211 209.365H178.625V210.174H176.211V212.67H175.396V210.174H172.994V209.365H175.396V206.857H176.211V209.365ZM184.543 210.438V214H183.547V205.434H185.896C186.947 205.434 187.723 205.635 188.223 206.037C188.727 206.439 188.979 207.045 188.979 207.854C188.979 208.986 188.404 209.752 187.256 210.15L189.582 214H188.404L186.33 210.438H184.543ZM184.543 209.582H185.908C186.611 209.582 187.127 209.443 187.455 209.166C187.783 208.885 187.947 208.465 187.947 207.906C187.947 207.34 187.779 206.932 187.443 206.682C187.111 206.432 186.576 206.307 185.838 206.307H184.543V209.582ZM193.531 214.117C192.582 214.117 191.832 213.828 191.281 213.25C190.734 212.672 190.461 211.869 190.461 210.842C190.461 209.807 190.715 208.984 191.223 208.375C191.734 207.766 192.42 207.461 193.279 207.461C194.084 207.461 194.721 207.727 195.189 208.258C195.658 208.785 195.893 209.482 195.893 210.35V210.965H191.469C191.488 211.719 191.678 212.291 192.037 212.682C192.4 213.072 192.91 213.268 193.566 213.268C194.258 213.268 194.941 213.123 195.617 212.834V213.701C195.273 213.85 194.947 213.955 194.639 214.018C194.334 214.084 193.965 214.117 193.531 214.117ZM193.268 208.275C192.752 208.275 192.34 208.443 192.031 208.779C191.727 209.115 191.547 209.58 191.492 210.174H194.85C194.85 209.561 194.713 209.092 194.439 208.768C194.166 208.439 193.775 208.275 193.268 208.275ZM197.703 214V205.434H198.699V213.098H202.479V214H197.703ZM210.406 205.434V210.977C210.406 211.953 210.111 212.721 209.521 213.279C208.932 213.838 208.121 214.117 207.09 214.117C206.059 214.117 205.26 213.836 204.693 213.273C204.131 212.711 203.85 211.938 203.85 210.953V205.434H204.846V211.023C204.846 211.738 205.041 212.287 205.432 212.67C205.822 213.053 206.396 213.244 207.154 213.244C207.877 213.244 208.434 213.053 208.824 212.67C209.215 212.283 209.41 211.73 209.41 211.012V205.434H210.406Z" fill="black"/>
<path d="M245.672 214H244.676V205.434H249.451V206.318H245.672V209.453H249.223V210.338H245.672V214ZM254.543 206.201C253.602 206.201 252.857 206.516 252.311 207.145C251.768 207.77 251.496 208.627 251.496 209.717C251.496 210.838 251.758 211.705 252.281 212.318C252.809 212.928 253.559 213.232 254.531 213.232C255.129 213.232 255.811 213.125 256.576 212.91V213.783C255.982 214.006 255.25 214.117 254.379 214.117C253.117 214.117 252.143 213.734 251.455 212.969C250.771 212.203 250.43 211.115 250.43 209.705C250.43 208.822 250.594 208.049 250.922 207.385C251.254 206.721 251.73 206.209 252.352 205.85C252.977 205.49 253.711 205.311 254.555 205.311C255.453 205.311 256.238 205.475 256.91 205.803L256.488 206.658C255.84 206.354 255.191 206.201 254.543 206.201ZM264.211 209.365H266.625V210.174H264.211V212.67H263.396V210.174H260.994V209.365H263.396V206.857H264.211V209.365ZM272.543 210.438V214H271.547V205.434H273.896C274.947 205.434 275.723 205.635 276.223 206.037C276.727 206.439 276.979 207.045 276.979 207.854C276.979 208.986 276.404 209.752 275.256 210.15L277.582 214H276.404L274.33 210.438H272.543ZM272.543 209.582H273.908C274.611 209.582 275.127 209.443 275.455 209.166C275.783 208.885 275.947 208.465 275.947 207.906C275.947 207.34 275.779 206.932 275.443 206.682C275.111 206.432 274.576 206.307 273.838 206.307H272.543V209.582ZM281.531 214.117C280.582 214.117 279.832 213.828 279.281 213.25C278.734 212.672 278.461 211.869 278.461 210.842C278.461 209.807 278.715 208.984 279.223 208.375C279.734 207.766 280.42 207.461 281.279 207.461C282.084 207.461 282.721 207.727 283.189 208.258C283.658 208.785 283.893 209.482 283.893 210.35V210.965H279.469C279.488 211.719 279.678 212.291 280.037 212.682C280.4 213.072 280.91 213.268 281.566 213.268C282.258 213.268 282.941 213.123 283.617 212.834V213.701C283.273 213.85 282.947 213.955 282.639 214.018C282.334 214.084 281.965 214.117 281.531 214.117ZM281.268 208.275C280.752 208.275 280.34 208.443 280.031 208.779C279.727 209.115 279.547 209.58 279.492 210.174H282.85C282.85 209.561 282.713 209.092 282.439 208.768C282.166 208.439 281.775 208.275 281.268 208.275ZM285.703 214V205.434H286.699V213.098H290.479V214H285.703ZM298.406 205.434V210.977C298.406 211.953 298.111 212.721 297.521 213.279C296.932 213.838 296.121 214.117 295.09 214.117C294.059 214.117 293.26 213.836 292.693 213.273C292.131 212.711 291.85 211.938 291.85 210.953V205.434H292.846V211.023C292.846 211.738 293.041 212.287 293.432 212.67C293.822 213.053 294.396 213.244 295.154 213.244C295.877 213.244 296.434 213.053 296.824 212.67C297.215 212.283 297.41 211.73 297.41 211.012V205.434H298.406Z" fill="black"/>
<path d="M338.672 214H337.676V205.434H342.451V206.318H338.672V209.453H342.223V210.338H338.672V214ZM347.543 206.201C346.602 206.201 345.857 206.516 345.311 207.145C344.768 207.77 344.496 208.627 344.496 209.717C344.496 210.838 344.758 211.705 345.281 212.318C345.809 212.928 346.559 213.232 347.531 213.232C348.129 213.232 348.811 213.125 349.576 212.91V213.783C348.982 214.006 348.25 214.117 347.379 214.117C346.117 214.117 345.143 213.734 344.455 212.969C343.771 212.203 343.43 211.115 343.43 209.705C343.43 208.822 343.594 208.049 343.922 207.385C344.254 206.721 344.73 206.209 345.352 205.85C345.977 205.49 346.711 205.311 347.555 205.311C348.453 205.311 349.238 205.475 349.91 205.803L349.488 206.658C348.84 206.354 348.191 206.201 347.543 206.201ZM357.211 209.365H359.625V210.174H357.211V212.67H356.396V210.174H353.994V209.365H356.396V206.857H357.211V209.365ZM365.543 210.438V214H364.547V205.434H366.896C367.947 205.434 368.723 205.635 369.223 206.037C369.727 206.439 369.979 207.045 369.979 207.854C369.979 208.986 369.404 209.752 368.256 210.15L370.582 214H369.404L367.33 210.438H365.543ZM365.543 209.582H366.908C367.611 209.582 368.127 209.443 368.455 209.166C368.783 208.885 368.947 208.465 368.947 207.906C368.947 207.34 368.779 206.932 368.443 206.682C368.111 206.432 367.576 206.307 366.838 206.307H365.543V209.582ZM374.531 214.117C373.582 214.117 372.832 213.828 372.281 213.25C371.734 212.672 371.461 211.869 371.461 210.842C371.461 209.807 371.715 208.984 372.223 208.375C372.734 207.766 373.42 207.461 374.279 207.461C375.084 207.461 375.721 207.727 376.189 208.258C376.658 208.785 376.893 209.482 376.893 210.35V210.965H372.469C372.488 211.719 372.678 212.291 373.037 212.682C373.4 213.072 373.91 213.268 374.566 213.268C375.258 213.268 375.941 213.123 376.617 212.834V213.701C376.273 213.85 375.947 213.955 375.639 214.018C375.334 214.084 374.965 214.117 374.531 214.117ZM374.268 208.275C373.752 208.275 373.34 208.443 373.031 208.779C372.727 209.115 372.547 209.58 372.492 210.174H375.85C375.85 209.561 375.713 209.092 375.439 208.768C375.166 208.439 374.775 208.275 374.268 208.275ZM378.703 214V205.434H379.699V213.098H383.479V214H378.703ZM391.406 205.434V210.977C391.406 211.953 391.111 212.721 390.521 213.279C389.932 213.838 389.121 214.117 388.09 214.117C387.059 214.117 386.26 213.836 385.693 213.273C385.131 212.711 384.85 211.938 384.85 210.953V205.434H385.846V211.023C385.846 211.738 386.041 212.287 386.432 212.67C386.822 213.053 387.396 213.244 388.154 213.244C388.877 213.244 389.434 213.053 389.824 212.67C390.215 212.283 390.41 211.73 390.41 211.012V205.434H391.406Z" fill="black"/>
<path d="M445.656 210.438V214H444.66V205.434H447.01C448.061 205.434 448.836 205.635 449.336 206.037C449.84 206.439 450.092 207.045 450.092 207.854C450.092 208.986 449.518 209.752 448.369 210.15L450.695 214H449.518L447.443 210.438H445.656ZM445.656 209.582H447.021C447.725 209.582 448.24 209.443 448.568 209.166C448.896 208.885 449.061 208.465 449.061 207.906C449.061 207.34 448.893 206.932 448.557 206.682C448.225 206.432 447.689 206.307 446.951 206.307H445.656V209.582ZM454.645 214.117C453.695 214.117 452.945 213.828 452.395 213.25C451.848 212.672 451.574 211.869 451.574 210.842C451.574 209.807 451.828 208.984 452.336 208.375C452.848 207.766 453.533 207.461 454.393 207.461C455.197 207.461 455.834 207.727 456.303 208.258C456.771 208.785 457.006 209.482 457.006 210.35V210.965H452.582C452.602 211.719 452.791 212.291 453.15 212.682C453.514 213.072 454.023 213.268 454.68 213.268C455.371 213.268 456.055 213.123 456.73 212.834V213.701C456.387 213.85 456.061 213.955 455.752 214.018C455.447 214.084 455.078 214.117 454.645 214.117ZM454.381 208.275C453.865 208.275 453.453 208.443 453.145 208.779C452.84 209.115 452.66 209.58 452.605 210.174H455.963C455.963 209.561 455.826 209.092 455.553 208.768C455.279 208.439 454.889 208.275 454.381 208.275ZM462.812 212.248C462.812 212.846 462.59 213.307 462.145 213.631C461.699 213.955 461.074 214.117 460.27 214.117C459.418 214.117 458.754 213.982 458.277 213.713V212.811C458.586 212.967 458.916 213.09 459.268 213.18C459.623 213.27 459.965 213.314 460.293 213.314C460.801 213.314 461.191 213.234 461.465 213.074C461.738 212.91 461.875 212.662 461.875 212.33C461.875 212.08 461.766 211.867 461.547 211.691C461.332 211.512 460.91 211.301 460.281 211.059C459.684 210.836 459.258 210.643 459.004 210.479C458.754 210.311 458.566 210.121 458.441 209.91C458.32 209.699 458.26 209.447 458.26 209.154C458.26 208.631 458.473 208.219 458.898 207.918C459.324 207.613 459.908 207.461 460.65 207.461C461.342 207.461 462.018 207.602 462.678 207.883L462.332 208.674C461.688 208.408 461.104 208.275 460.58 208.275C460.119 208.275 459.771 208.348 459.537 208.492C459.303 208.637 459.186 208.836 459.186 209.09C459.186 209.262 459.229 209.408 459.314 209.529C459.404 209.65 459.547 209.766 459.742 209.875C459.938 209.984 460.312 210.143 460.867 210.35C461.629 210.627 462.143 210.906 462.408 211.188C462.678 211.469 462.812 211.822 462.812 212.248ZM468.795 214V209.846C468.795 209.322 468.676 208.932 468.438 208.674C468.199 208.416 467.826 208.287 467.318 208.287C466.643 208.287 466.148 208.471 465.836 208.838C465.527 209.205 465.373 209.807 465.373 210.643V214H464.4V204.883H465.373V207.643C465.373 207.975 465.357 208.25 465.326 208.469H465.385C465.576 208.16 465.848 207.918 466.199 207.742C466.555 207.562 466.959 207.473 467.412 207.473C468.197 207.473 468.785 207.66 469.176 208.035C469.57 208.406 469.768 208.998 469.768 209.811V214H468.795ZM475.721 214L475.527 213.086H475.48C475.16 213.488 474.84 213.762 474.52 213.906C474.203 214.047 473.807 214.117 473.33 214.117C472.693 214.117 472.193 213.953 471.83 213.625C471.471 213.297 471.291 212.83 471.291 212.225C471.291 210.928 472.328 210.248 474.402 210.186L475.492 210.15V209.752C475.492 209.248 475.383 208.877 475.164 208.639C474.949 208.396 474.604 208.275 474.127 208.275C473.592 208.275 472.986 208.439 472.311 208.768L472.012 208.023C472.328 207.852 472.674 207.717 473.049 207.619C473.428 207.521 473.807 207.473 474.186 207.473C474.951 207.473 475.518 207.643 475.885 207.982C476.256 208.322 476.441 208.867 476.441 209.617V214H475.721ZM473.523 213.314C474.129 213.314 474.604 213.148 474.947 212.816C475.295 212.484 475.469 212.02 475.469 211.422V210.842L474.496 210.883C473.723 210.91 473.164 211.031 472.82 211.246C472.48 211.457 472.311 211.787 472.311 212.236C472.311 212.588 472.416 212.855 472.627 213.039C472.842 213.223 473.141 213.314 473.523 213.314ZM481.439 214.117C481.021 214.117 480.639 214.041 480.291 213.889C479.947 213.732 479.658 213.494 479.424 213.174H479.354C479.4 213.549 479.424 213.904 479.424 214.24V216.883H478.451V207.578H479.242L479.377 208.457H479.424C479.674 208.105 479.965 207.852 480.297 207.695C480.629 207.539 481.01 207.461 481.439 207.461C482.291 207.461 482.947 207.752 483.408 208.334C483.873 208.916 484.105 209.732 484.105 210.783C484.105 211.838 483.869 212.658 483.396 213.244C482.928 213.826 482.275 214.117 481.439 214.117ZM481.299 208.287C480.643 208.287 480.168 208.469 479.875 208.832C479.582 209.195 479.432 209.773 479.424 210.566V210.783C479.424 211.686 479.574 212.332 479.875 212.723C480.176 213.109 480.658 213.303 481.322 213.303C481.877 213.303 482.311 213.078 482.623 212.629C482.939 212.18 483.098 211.561 483.098 210.771C483.098 209.971 482.939 209.357 482.623 208.932C482.311 208.502 481.869 208.287 481.299 208.287ZM488.523 214.117C487.574 214.117 486.824 213.828 486.273 213.25C485.727 212.672 485.453 211.869 485.453 210.842C485.453 209.807 485.707 208.984 486.215 208.375C486.727 207.766 487.412 207.461 488.271 207.461C489.076 207.461 489.713 207.727 490.182 208.258C490.65 208.785 490.885 209.482 490.885 210.35V210.965H486.461C486.48 211.719 486.67 212.291 487.029 212.682C487.393 213.072 487.902 213.268 488.559 213.268C489.25 213.268 489.934 213.123 490.609 212.834V213.701C490.266 213.85 489.939 213.955 489.631 214.018C489.326 214.084 488.957 214.117 488.523 214.117ZM488.26 208.275C487.744 208.275 487.332 208.443 487.023 208.779C486.719 209.115 486.539 209.58 486.484 210.174H489.842C489.842 209.561 489.705 209.092 489.432 208.768C489.158 208.439 488.768 208.275 488.26 208.275Z" fill="black"/>
<path d="M27.5 112C27.5 113.262 28.3091 114.15 29.4901 114.757C30.6616 115.36 32.293 115.743 34.1839 115.996C37.9742 116.501 43.0123 116.5 48 116.5C53.0123 116.5 57.9742 116.501 61.6839 116.996C63.543 117.243 65.0366 117.61 66.0526 118.132C67.0591 118.65 67.5 119.262 67.5 120L68.5 120C68.5 118.738 67.6909 117.85 66.5099 117.243C65.3384 116.64 63.707 116.257 61.8161 116.004C58.0258 115.499 52.9877 115.5 48 115.5C42.9877 115.5 38.0258 115.499 34.3161 115.004C32.457 114.757 30.9634 114.39 29.9474 113.868C28.9409 113.35 28.5 112.738 28.5 112L27.5 112ZM107.5 112C107.5 112.738 107.059 113.35 106.053 113.868C105.037 114.39 103.543 114.757 101.684 115.004C97.9742 115.499 93.0123 115.5 88 115.5C83.0123 115.5 77.9742 115.499 74.1839 116.004C72.293 116.257 70.6616 116.64 69.4901 117.243C68.3091 117.85 67.5 118.738 67.5 120L68.5 120C68.5 119.262 68.9409 118.65 69.9474 118.132C70.9634 117.61 72.457 117.243 74.3161 116.996C78.0258 116.501 82.9877 116.5 88 116.5C92.9877 116.5 98.0258 116.501 101.816 115.996C103.707 115.743 105.338 115.36 106.51 114.757C107.691 114.15 108.5 113.262 108.5 112L107.5 112Z" fill="black"/>
<path d="M23 56.5C21.8468 56.5 20.9565 56.9604 20.3014 57.7565C19.6651 58.5298 19.2681 59.5969 19.011 60.8019C18.4975 63.2088 18.5 66.3942 18.5 69.5C18.5 72.6442 18.4975 75.7088 18.011 77.9894C17.7681 79.1282 17.4151 80.0142 16.9264 80.6081C16.4565 81.1791 15.8468 81.5 15 81.5L15 82.5C16.1531 82.5 17.0435 82.0396 17.6986 81.2435C18.3349 80.4702 18.7319 79.4031 18.989 78.1981C19.5025 75.7912 19.5 72.6058 19.5 69.5C19.5 66.3558 19.5025 63.2912 19.989 61.0106C20.2319 59.8718 20.5849 58.9858 21.0736 58.3919C21.5435 57.8209 22.1532 57.5 23 57.5L23 56.5ZM23 106.5C22.1531 106.5 21.5435 106.179 21.0736 105.608C20.5849 105.014 20.2319 104.128 19.989 102.989C19.5024 100.709 19.5 97.6442 19.5 94.5C19.5 91.3942 19.5024 88.2088 18.989 85.8019C18.7319 84.5969 18.3349 83.5298 17.6986 82.7565C17.0435 81.9604 16.1531 81.5 15 81.5L15 82.5C15.8468 82.5 16.4565 82.8209 16.9264 83.3919C17.4151 83.9858 17.7681 84.8718 18.011 86.0106C18.4975 88.2912 18.5 91.3558 18.5 94.5C18.5 97.6058 18.4975 100.791 19.011 103.198C19.2681 104.403 19.6651 105.47 20.3014 106.243C20.9565 107.04 21.8468 107.5 23 107.5L23 106.5Z" fill="black"/>
<path d="M65.3223 133H64.373V126.895C64.373 126.387 64.3887 125.906 64.4199 125.453C64.3379 125.535 64.2461 125.621 64.1445 125.711C64.043 125.801 63.5781 126.182 62.75 126.854L62.2344 126.186L64.502 124.434H65.3223V133ZM74.2637 128.705C74.2637 130.186 74.0293 131.291 73.5605 132.021C73.0957 132.752 72.3828 133.117 71.4219 133.117C70.5 133.117 69.7988 132.744 69.3184 131.998C68.8379 131.248 68.5977 130.15 68.5977 128.705C68.5977 127.213 68.8301 126.105 69.2949 125.383C69.7598 124.66 70.4688 124.299 71.4219 124.299C72.3516 124.299 73.0566 124.676 73.5371 125.43C74.0215 126.184 74.2637 127.275 74.2637 128.705ZM69.582 128.705C69.582 129.951 69.7285 130.859 70.0215 131.43C70.3145 131.996 70.7812 132.279 71.4219 132.279C72.0703 132.279 72.5391 131.992 72.8281 131.418C73.1211 130.84 73.2676 129.936 73.2676 128.705C73.2676 127.475 73.1211 126.574 72.8281 126.004C72.5391 125.43 72.0703 125.143 71.4219 125.143C70.7812 125.143 70.3145 125.426 70.0215 125.992C69.7285 126.555 69.582 127.459 69.582 128.705Z" fill="black"/>
<path d="M354.5 168C354.5 168.819 354.671 169.483 355.01 170.006C355.351 170.533 355.834 170.872 356.377 171.089C357.423 171.508 358.783 171.5 360 171.5C361.283 171.5 362.423 171.508 363.252 171.839C363.647 171.997 363.945 172.22 364.151 172.538C364.358 172.858 364.5 173.319 364.5 174L365.5 174C365.5 173.181 365.329 172.517 364.99 171.994C364.649 171.467 364.166 171.128 363.623 170.911C362.577 170.492 361.217 170.5 360 170.5C358.717 170.5 357.577 170.492 356.748 170.161C356.353 170.003 356.055 169.78 355.849 169.462C355.642 169.142 355.5 168.681 355.5 168L354.5 168ZM374.5 168C374.5 168.681 374.358 169.142 374.151 169.462C373.945 169.78 373.647 170.003 373.252 170.161C372.423 170.492 371.283 170.5 370 170.5C368.783 170.5 367.423 170.492 366.377 170.911C365.834 171.128 365.351 171.467 365.01 171.994C364.671 172.517 364.5 173.181 364.5 174L365.5 174C365.5 173.319 365.642 172.858 365.849 172.538C366.055 172.22 366.353 171.997 366.748 171.839C367.577 171.508 368.717 171.5 370 171.5C371.217 171.5 372.577 171.508 373.623 171.089C374.166 170.872 374.649 170.533 374.99 170.006C375.329 169.483 375.5 168.819 375.5 168L374.5 168Z" fill="black"/>
<path d="M366.961 180.449C366.961 180.996 366.807 181.443 366.498 181.791C366.193 182.139 365.76 182.371 365.197 182.488V182.535C365.885 182.621 366.395 182.84 366.727 183.191C367.059 183.543 367.225 184.004 367.225 184.574C367.225 185.391 366.941 186.02 366.375 186.461C365.809 186.898 365.004 187.117 363.961 187.117C363.508 187.117 363.092 187.082 362.713 187.012C362.338 186.945 361.973 186.826 361.617 186.654V185.729C361.988 185.912 362.383 186.053 362.801 186.15C363.223 186.244 363.621 186.291 363.996 186.291C365.477 186.291 366.217 185.711 366.217 184.551C366.217 183.512 365.4 182.992 363.768 182.992H362.924V182.154H363.779C364.447 182.154 364.977 182.008 365.367 181.715C365.758 181.418 365.953 181.008 365.953 180.484C365.953 180.066 365.809 179.738 365.52 179.5C365.234 179.262 364.846 179.143 364.354 179.143C363.979 179.143 363.625 179.193 363.293 179.295C362.961 179.396 362.582 179.584 362.156 179.857L361.664 179.201C362.016 178.924 362.42 178.707 362.877 178.551C363.338 178.391 363.822 178.311 364.33 178.311C365.162 178.311 365.809 178.502 366.27 178.885C366.73 179.264 366.961 179.785 366.961 180.449Z" fill="black"/>
<path d="M3.32227 86H2.37305V79.8945C2.37305 79.3867 2.38867 78.9062 2.41992 78.4531C2.33789 78.5352 2.24609 78.6211 2.14453 78.7109C2.04297 78.8008 1.57812 79.1816 0.75 79.8535L0.234375 79.1855L2.50195 77.4336H3.32227V86ZM6.68555 82.3379C6.68555 80.6543 7.01172 79.3965 7.66406 78.5645C8.32031 77.7285 9.28906 77.3105 10.5703 77.3105C11.0117 77.3105 11.3594 77.3477 11.6133 77.4219V78.2598C11.3125 78.1621 10.9688 78.1133 10.582 78.1133C9.66406 78.1133 8.96289 78.4004 8.47852 78.9746C7.99414 79.5449 7.72852 80.4434 7.68164 81.6699H7.75195C8.18164 80.998 8.86133 80.6621 9.79102 80.6621C10.5605 80.6621 11.166 80.8945 11.6074 81.3594C12.0527 81.8242 12.2754 82.4551 12.2754 83.252C12.2754 84.1426 12.0312 84.8438 11.543 85.3555C11.0586 85.8633 10.4023 86.1172 9.57422 86.1172C8.6875 86.1172 7.98438 85.7852 7.46484 85.1211C6.94531 84.4531 6.68555 83.5254 6.68555 82.3379ZM9.5625 85.291C10.1172 85.291 10.5469 85.1172 10.8516 84.7695C11.1602 84.418 11.3145 83.9121 11.3145 83.252C11.3145 82.6855 11.1719 82.2402 10.8867 81.916C10.6016 81.5918 10.1758 81.4297 9.60938 81.4297C9.25781 81.4297 8.93555 81.502 8.64258 81.6465C8.34961 81.791 8.11523 81.9902 7.93945 82.2441C7.76758 82.498 7.68164 82.7617 7.68164 83.0352C7.68164 83.4375 7.75977 83.8125 7.91602 84.1602C8.07227 84.5078 8.29297 84.7832 8.57812 84.9863C8.86719 85.1895 9.19531 85.291 9.5625 85.291Z" fill="black"/>
<path d="M174 34.5C172.694 34.5 171.817 35.4764 171.229 36.819C170.636 38.1749 170.255 40.0717 170.003 42.2874C169.499 46.7281 169.5 52.6355 169.5 58.5C169.5 64.3855 169.499 70.2281 169.003 74.5999C168.755 76.7905 168.386 78.5655 167.854 79.78C167.317 81.0077 166.694 81.5 166 81.5L166 82.5C167.306 82.5 168.183 81.5236 168.771 80.181C169.364 78.8251 169.745 76.9283 169.997 74.7126C170.501 70.2719 170.5 64.3645 170.5 58.5C170.5 52.6145 170.501 46.7719 170.997 42.4001C171.245 40.2095 171.614 38.4345 172.146 37.22C172.683 35.9923 173.306 35.5 174 35.5L174 34.5ZM174 128.5C173.306 128.5 172.683 128.008 172.146 126.78C171.614 125.566 171.245 123.79 170.997 121.6C170.501 117.228 170.5 111.385 170.5 105.5C170.5 99.6355 170.501 93.7281 169.997 89.2874C169.745 87.0717 169.364 85.1749 168.771 83.819C168.183 82.4764 167.306 81.5 166 81.5L166 82.5C166.694 82.5 167.317 82.9923 167.854 84.22C168.386 85.4345 168.755 87.2095 169.003 89.4001C169.499 93.7719 169.5 99.6145 169.5 105.5C169.5 111.365 169.499 117.272 170.003 121.713C170.255 123.928 170.636 125.825 171.229 127.181C171.817 128.524 172.694 129.5 174 129.5L174 128.5Z" fill="black"/>
<path d="M146.463 80.7676C147.365 80.7676 148.074 80.9922 148.59 81.4414C149.109 81.8867 149.369 82.498 149.369 83.2754C149.369 84.1621 149.086 84.8574 148.52 85.3613C147.957 85.8652 147.18 86.1172 146.188 86.1172C145.223 86.1172 144.486 85.9629 143.979 85.6543V84.7168C144.252 84.8926 144.592 85.0312 144.998 85.1328C145.404 85.2305 145.805 85.2793 146.199 85.2793C146.887 85.2793 147.42 85.1172 147.799 84.793C148.182 84.4688 148.373 84 148.373 83.3867C148.373 82.1914 147.641 81.5938 146.176 81.5938C145.805 81.5938 145.309 81.6504 144.688 81.7637L144.184 81.4414L144.506 77.4336H148.766V78.3301H145.338L145.121 80.9023C145.57 80.8125 146.018 80.7676 146.463 80.7676ZM154.256 86H153.307V79.8945C153.307 79.3867 153.322 78.9062 153.354 78.4531C153.271 78.5352 153.18 78.6211 153.078 78.7109C152.977 78.8008 152.512 79.1816 151.684 79.8535L151.168 79.1855L153.436 77.4336H154.256V86ZM163.15 86H157.52V85.1621L159.775 82.8945C160.463 82.1992 160.916 81.7031 161.135 81.4062C161.354 81.1094 161.518 80.8203 161.627 80.5391C161.736 80.2578 161.791 79.9551 161.791 79.6309C161.791 79.1738 161.652 78.8125 161.375 78.5469C161.098 78.2773 160.713 78.1426 160.221 78.1426C159.865 78.1426 159.527 78.2012 159.207 78.3184C158.891 78.4355 158.537 78.6484 158.146 78.957L157.631 78.2949C158.42 77.6387 159.279 77.3105 160.209 77.3105C161.014 77.3105 161.645 77.5176 162.102 77.9316C162.559 78.3418 162.787 78.8945 162.787 79.5898C162.787 80.1328 162.635 80.6699 162.33 81.2012C162.025 81.7324 161.455 82.4043 160.619 83.2168L158.744 85.0508V85.0977H163.15V86Z" fill="black"/>
<path d="M262 0.500001C261.255 0.500001 260.685 0.979846 260.26 1.63857C259.833 2.29917 259.489 3.23054 259.203 4.35739C258.629 6.61864 258.251 9.82053 258.001 13.6234C257.5 21.2373 257.5 31.3811 257.5 41.5C257.5 51.6311 257.5 61.7373 257.001 69.3109C256.751 73.1018 256.379 76.228 255.828 78.3965C255.552 79.4844 255.24 80.2933 254.9 80.8192C254.56 81.347 254.255 81.5 254 81.5L254 82.5C254.745 82.5 255.315 82.0202 255.74 81.3614C256.167 80.7008 256.511 79.7695 256.797 78.6426C257.371 76.3814 257.749 73.1795 257.999 69.3766C258.5 61.7627 258.5 51.6189 258.5 41.5C258.5 31.3689 258.5 21.2627 258.999 13.6891C259.249 9.89822 259.621 6.77198 260.172 4.60355C260.448 3.51555 260.76 2.70669 261.1 2.18076C261.44 1.65297 261.745 1.5 262 1.5L262 0.500001ZM262 162.5C261.745 162.5 261.44 162.347 261.1 161.819C260.76 161.293 260.448 160.484 260.172 159.396C259.621 157.228 259.249 154.102 258.999 150.311C258.5 142.737 258.5 132.631 258.5 122.5C258.5 112.381 258.5 102.237 257.999 94.6234C257.749 90.8205 257.371 87.6186 256.797 85.3574C256.511 84.2305 256.167 83.2992 255.74 82.6386C255.315 81.9798 254.745 81.5 254 81.5L254 82.5C254.255 82.5 254.56 82.653 254.9 83.1808C255.24 83.7067 255.552 84.5155 255.828 85.6035C256.379 87.772 256.751 90.8982 257.001 94.6891C257.5 102.263 257.5 112.369 257.5 122.5C257.5 132.619 257.5 142.763 258.001 150.377C258.251 154.179 258.629 157.381 259.203 159.643C259.489 160.769 259.833 161.701 260.26 162.361C260.685 163.02 261.255 163.5 262 163.5L262 162.5Z" fill="black"/>
<path d="M228.455 86H227.506V79.8945C227.506 79.3867 227.521 78.9062 227.553 78.4531C227.471 78.5352 227.379 78.6211 227.277 78.7109C227.176 78.8008 226.711 79.1816 225.883 79.8535L225.367 79.1855L227.635 77.4336H228.455V86ZM237.396 81.7051C237.396 83.1855 237.162 84.291 236.693 85.0215C236.229 85.752 235.516 86.1172 234.555 86.1172C233.633 86.1172 232.932 85.7441 232.451 84.998C231.971 84.248 231.73 83.1504 231.73 81.7051C231.73 80.2129 231.963 79.1055 232.428 78.3828C232.893 77.6602 233.602 77.2988 234.555 77.2988C235.484 77.2988 236.189 77.6758 236.67 78.4297C237.154 79.1836 237.396 80.2754 237.396 81.7051ZM232.715 81.7051C232.715 82.9512 232.861 83.8594 233.154 84.4297C233.447 84.9961 233.914 85.2793 234.555 85.2793C235.203 85.2793 235.672 84.9922 235.961 84.418C236.254 83.8398 236.4 82.9355 236.4 81.7051C236.4 80.4746 236.254 79.5742 235.961 79.0039C235.672 78.4297 235.203 78.1426 234.555 78.1426C233.914 78.1426 233.447 78.4258 233.154 78.9922C232.861 79.5547 232.715 80.459 232.715 81.7051ZM244.217 86H238.586V85.1621L240.842 82.8945C241.529 82.1992 241.982 81.7031 242.201 81.4062C242.42 81.1094 242.584 80.8203 242.693 80.5391C242.803 80.2578 242.857 79.9551 242.857 79.6309C242.857 79.1738 242.719 78.8125 242.441 78.5469C242.164 78.2773 241.779 78.1426 241.287 78.1426C240.932 78.1426 240.594 78.2012 240.273 78.3184C239.957 78.4355 239.604 78.6484 239.213 78.957L238.697 78.2949C239.486 77.6387 240.346 77.3105 241.275 77.3105C242.08 77.3105 242.711 77.5176 243.168 77.9316C243.625 78.3418 243.854 78.8945 243.854 79.5898C243.854 80.1328 243.701 80.6699 243.396 81.2012C243.092 81.7324 242.521 82.4043 241.686 83.2168L239.811 85.0508V85.0977H244.217V86ZM251.488 84.0312H250.217V86H249.285V84.0312H245.119V83.1816L249.186 77.3867H250.217V83.1465H251.488V84.0312ZM249.285 83.1465V80.2988C249.285 79.7402 249.305 79.1094 249.344 78.4062H249.297C249.109 78.7812 248.934 79.0918 248.77 79.3379L246.092 83.1465H249.285Z" fill="black"/>
<path d="M350 0.500001C349.255 0.500001 348.685 0.979846 348.26 1.63857C347.833 2.29917 347.489 3.23054 347.203 4.35739C346.629 6.61864 346.251 9.82053 346.001 13.6234C345.5 21.2373 345.5 31.3811 345.5 41.5C345.5 51.6311 345.5 61.7373 345.001 69.3109C344.751 73.1018 344.379 76.228 343.828 78.3965C343.552 79.4844 343.24 80.2933 342.9 80.8192C342.56 81.347 342.255 81.5 342 81.5L342 82.5C342.745 82.5 343.315 82.0202 343.74 81.3614C344.167 80.7008 344.511 79.7695 344.797 78.6426C345.371 76.3814 345.749 73.1795 345.999 69.3766C346.5 61.7627 346.5 51.6189 346.5 41.5C346.5 31.3689 346.5 21.2627 346.999 13.6891C347.249 9.89822 347.621 6.77198 348.172 4.60355C348.448 3.51555 348.76 2.70669 349.1 2.18076C349.44 1.65297 349.745 1.5 350 1.5L350 0.500001ZM350 162.5C349.745 162.5 349.44 162.347 349.1 161.819C348.76 161.293 348.448 160.484 348.172 159.396C347.621 157.228 347.249 154.102 346.999 150.311C346.5 142.737 346.5 132.631 346.5 122.5C346.5 112.381 346.5 102.237 345.999 94.6234C345.749 90.8205 345.371 87.6186 344.797 85.3574C344.511 84.2305 344.167 83.2992 343.74 82.6386C343.315 81.9798 342.745 81.5 342 81.5L342 82.5C342.255 82.5 342.56 82.653 342.9 83.1808C343.24 83.7067 343.552 84.5155 343.828 85.6035C344.379 87.772 344.751 90.8982 345.001 94.6891C345.5 102.263 345.5 112.369 345.5 122.5C345.5 132.619 345.5 142.763 346.001 150.377C346.251 154.179 346.629 157.381 347.203 159.643C347.489 160.769 347.833 161.701 348.26 162.361C348.685 163.02 349.255 163.5 350 163.5L350 162.5Z" fill="black"/>
<path d="M316.455 86H315.506V79.8945C315.506 79.3867 315.521 78.9062 315.553 78.4531C315.471 78.5352 315.379 78.6211 315.277 78.7109C315.176 78.8008 314.711 79.1816 313.883 79.8535L313.367 79.1855L315.635 77.4336H316.455V86ZM325.396 81.7051C325.396 83.1855 325.162 84.291 324.693 85.0215C324.229 85.752 323.516 86.1172 322.555 86.1172C321.633 86.1172 320.932 85.7441 320.451 84.998C319.971 84.248 319.73 83.1504 319.73 81.7051C319.73 80.2129 319.963 79.1055 320.428 78.3828C320.893 77.6602 321.602 77.2988 322.555 77.2988C323.484 77.2988 324.189 77.6758 324.67 78.4297C325.154 79.1836 325.396 80.2754 325.396 81.7051ZM320.715 81.7051C320.715 82.9512 320.861 83.8594 321.154 84.4297C321.447 84.9961 321.914 85.2793 322.555 85.2793C323.203 85.2793 323.672 84.9922 323.961 84.418C324.254 83.8398 324.4 82.9355 324.4 81.7051C324.4 80.4746 324.254 79.5742 323.961 79.0039C323.672 78.4297 323.203 78.1426 322.555 78.1426C321.914 78.1426 321.447 78.4258 321.154 78.9922C320.861 79.5547 320.715 80.459 320.715 81.7051ZM332.217 86H326.586V85.1621L328.842 82.8945C329.529 82.1992 329.982 81.7031 330.201 81.4062C330.42 81.1094 330.584 80.8203 330.693 80.5391C330.803 80.2578 330.857 79.9551 330.857 79.6309C330.857 79.1738 330.719 78.8125 330.441 78.5469C330.164 78.2773 329.779 78.1426 329.287 78.1426C328.932 78.1426 328.594 78.2012 328.273 78.3184C327.957 78.4355 327.604 78.6484 327.213 78.957L326.697 78.2949C327.486 77.6387 328.346 77.3105 329.275 77.3105C330.08 77.3105 330.711 77.5176 331.168 77.9316C331.625 78.3418 331.854 78.8945 331.854 79.5898C331.854 80.1328 331.701 80.6699 331.396 81.2012C331.092 81.7324 330.521 82.4043 329.686 83.2168L327.811 85.0508V85.0977H332.217V86ZM339.488 84.0312H338.217V86H337.285V84.0312H333.119V83.1816L337.186 77.3867H338.217V83.1465H339.488V84.0312ZM337.285 83.1465V80.2988C337.285 79.7402 337.305 79.1094 337.344 78.4062H337.297C337.109 78.7812 336.934 79.0918 336.77 79.3379L334.092 83.1465H337.285Z" fill="black"/>
<path d="M411.961 10.4492C411.961 10.9961 411.807 11.4434 411.498 11.791C411.193 12.1387 410.76 12.3711 410.197 12.4883V12.5352C410.885 12.6211 411.395 12.8398 411.727 13.1914C412.059 13.543 412.225 14.0039 412.225 14.5742C412.225 15.3906 411.941 16.0195 411.375 16.4609C410.809 16.8984 410.004 17.1172 408.961 17.1172C408.508 17.1172 408.092 17.082 407.713 17.0117C407.338 16.9453 406.973 16.8262 406.617 16.6543V15.7285C406.988 15.9121 407.383 16.0527 407.801 16.1504C408.223 16.2441 408.621 16.291 408.996 16.291C410.477 16.291 411.217 15.7109 411.217 14.5508C411.217 13.5117 410.4 12.9922 408.768 12.9922H407.924V12.1543H408.779C409.447 12.1543 409.977 12.0078 410.367 11.7148C410.758 11.418 410.953 11.0078 410.953 10.4844C410.953 10.0664 410.809 9.73828 410.52 9.5C410.234 9.26172 409.846 9.14258 409.354 9.14258C408.979 9.14258 408.625 9.19336 408.293 9.29492C407.961 9.39648 407.582 9.58398 407.156 9.85742L406.664 9.20117C407.016 8.92383 407.42 8.70703 407.877 8.55078C408.338 8.39062 408.822 8.31055 409.33 8.31055C410.162 8.31055 410.809 8.50195 411.27 8.88477C411.73 9.26367 411.961 9.78516 411.961 10.4492Z" fill="black"/>
<path d="M418.33 19.0963C418.075 18.7571 417.802 18.5067 417.501 18.3561C417.191 18.2007 416.879 18.1658 416.581 18.2153C416.035 18.3058 415.548 18.6869 415.196 18.9518C414.782 19.2633 414.503 19.4586 414.249 19.5007C414.148 19.5175 414.051 19.5079 413.94 19.4523C413.82 19.3919 413.658 19.2649 413.463 19.0049L412.664 19.6062C412.919 19.9454 413.192 20.1958 413.492 20.3464C413.803 20.5018 414.114 20.5367 414.413 20.4872C414.959 20.3967 415.446 20.0156 415.798 19.7507C416.212 19.4392 416.49 19.2439 416.744 19.2018C416.846 19.185 416.942 19.1946 417.053 19.2502C417.174 19.3105 417.335 19.4376 417.531 19.6976L418.33 19.0963ZM412.204 23.7074C412.008 23.4473 411.93 23.2571 411.906 23.1246C411.883 23.0025 411.901 22.9071 411.945 22.8143C412.056 22.5818 412.32 22.3679 412.734 22.0563C413.086 21.7915 413.587 21.429 413.825 20.9296C413.955 20.6565 414.008 20.3471 413.945 20.006C413.883 19.6753 413.718 19.3441 413.463 19.0049L412.664 19.6062C412.859 19.8663 412.937 20.0565 412.962 20.1889C412.984 20.3111 412.967 20.4065 412.923 20.4993C412.812 20.7318 412.547 20.9457 412.133 21.2573C411.781 21.5221 411.28 21.8846 411.042 22.384C410.912 22.6571 410.859 22.9665 410.923 23.3076C410.984 23.6383 411.149 23.9695 411.405 24.3087L412.204 23.7074Z" fill="black"/>
<path d="M415 27.4366L420.889 23L521 23V123.563L515.111 128H415V27.4366Z" fill="white"/>
<path d="M415 27.4366L420.889 23L521 23M415 27.4366H515.111M415 27.4366V128H515.111M521 23L515.111 27.4366M521 23V123.563L515.111 128M515.111 27.4366V128" stroke="black" stroke-width="2"/>
<line x1="178.735" y1="128.265" x2="107.735" y2="57.2652" stroke="black" stroke-width="0.75" stroke-dasharray="2 3"/>
<line x1="107.735" y1="106.735" x2="178.735" y2="35.7348" stroke="black" stroke-width="0.75" stroke-dasharray="2 3"/>
<line x1="266.68" y1="162.196" x2="188.68" y2="35.1963" stroke="black" stroke-width="0.75" stroke-dasharray="2 3"/>
<line x1="188.68" y1="128.804" x2="266.68" y2="1.80374" stroke="black" stroke-width="0.75" stroke-dasharray="2 3"/>
<line x1="354.663" y1="162.164" x2="276.663" y2="2.16432" stroke="black" stroke-width="0.75" stroke-dasharray="2 3"/>
<line x1="276.663" y1="162.837" x2="354.663" y2="1.8365" stroke="black" stroke-width="0.75" stroke-dasharray="2 3"/>
<rect x="28" y="57" width="80" height="50" fill="white" stroke="#32ACF1" stroke-width="2"/>
<rect x="189" y="35" width="94" height="10" transform="rotate(90 189 35)" fill="white" stroke="black" stroke-width="2"/>
<rect x="277" y="1" width="162" height="9.99999" transform="rotate(90 277 1)" fill="white" stroke="black" stroke-width="2"/>
<rect x="375" y="1" width="162" height="20" transform="rotate(90 375 1)" fill="white" stroke="black" stroke-width="2"/>
<path d="M405.354 82.3536C405.549 82.1583 405.549 81.8417 405.354 81.6464L402.172 78.4645C401.976 78.2692 401.66 78.2692 401.464 78.4645C401.269 78.6597 401.269 78.9763 401.464 79.1716L404.293 82L401.464 84.8284C401.269 85.0237 401.269 85.3403 401.464 85.5355C401.66 85.7308 401.976 85.7308 402.172 85.5355L405.354 82.3536ZM385 82.5H405V81.5H385V82.5Z" fill="black"/>
</svg>
