<svg width="512" height="250" viewBox="0 0 512 250" fill="none" xmlns="http://www.w3.org/2000/svg">
<path d="M404.5 166C404.5 167.512 405.465 168.587 406.92 169.335C408.365 170.078 410.387 170.556 412.746 170.871C417.474 171.501 423.762 171.5 430 171.5C436.262 171.5 442.474 171.501 447.121 172.121C449.449 172.431 451.333 172.891 452.623 173.554C453.903 174.212 454.5 175.012 454.5 176L455.5 176C455.5 174.488 454.535 173.413 453.08 172.665C451.635 171.922 449.613 171.444 447.254 171.129C442.526 170.499 436.238 170.5 430 170.5C423.738 170.5 417.526 170.499 412.879 169.879C410.551 169.569 408.667 169.109 407.377 168.446C406.097 167.788 405.5 166.988 405.5 166L404.5 166ZM504.5 166C504.5 166.988 503.903 167.788 502.623 168.446C501.333 169.109 499.449 169.569 497.121 169.879C492.474 170.499 486.262 170.5 480 170.5C473.762 170.5 467.474 170.499 462.746 171.129C460.387 171.444 458.365 171.922 456.92 172.665C455.465 173.413 454.5 174.488 454.5 176L455.5 176C455.5 175.012 456.097 174.212 457.377 173.554C458.667 172.891 460.551 172.431 462.879 172.121C467.526 171.501 473.738 171.5 480 171.5C486.238 171.5 492.526 171.501 497.254 170.871C499.613 170.556 501.635 170.078 503.08 169.335C504.535 168.587 505.5 167.512 505.5 166L504.5 166Z" fill="black"/>
<path d="M404.5 166C404.5 167.512 405.465 168.587 406.92 169.335C408.365 170.078 410.387 170.556 412.746 170.871C417.474 171.501 423.762 171.5 430 171.5C436.262 171.5 442.474 171.501 447.121 172.121C449.449 172.431 451.333 172.891 452.623 173.554C453.903 174.212 454.5 175.012 454.5 176L455.5 176C455.5 174.488 454.535 173.413 453.08 172.665C451.635 171.922 449.613 171.444 447.254 171.129C442.526 170.499 436.238 170.5 430 170.5C423.738 170.5 417.526 170.499 412.879 169.879C410.551 169.569 408.667 169.109 407.377 168.446C406.097 167.788 405.5 166.988 405.5 166L404.5 166ZM504.5 166C504.5 166.988 503.903 167.788 502.623 168.446C501.333 169.109 499.449 169.569 497.121 169.879C492.474 170.499 486.262 170.5 480 170.5C473.762 170.5 467.474 170.499 462.746 171.129C460.387 171.444 458.365 171.922 456.92 172.665C455.465 173.413 454.5 174.488 454.5 176L455.5 176C455.5 175.012 456.097 174.212 457.377 173.554C458.667 172.891 460.551 172.431 462.879 172.121C467.526 171.501 473.738 171.5 480 171.5C486.238 171.5 492.526 171.501 497.254 170.871C499.613 170.556 501.635 170.078 503.08 169.335C504.535 168.587 505.5 167.512 505.5 166L504.5 166Z" fill="black"/>
<path d="M454.027 182.449C454.027 182.996 453.873 183.443 453.564 183.791C453.26 184.139 452.826 184.371 452.264 184.488V184.535C452.951 184.621 453.461 184.84 453.793 185.191C454.125 185.543 454.291 186.004 454.291 186.574C454.291 187.391 454.008 188.02 453.441 188.461C452.875 188.898 452.07 189.117 451.027 189.117C450.574 189.117 450.158 189.082 449.779 189.012C449.404 188.945 449.039 188.826 448.684 188.654V187.729C449.055 187.912 449.449 188.053 449.867 188.15C450.289 188.244 450.688 188.291 451.062 188.291C452.543 188.291 453.283 187.711 453.283 186.551C453.283 185.512 452.467 184.992 450.834 184.992H449.99V184.154H450.846C451.514 184.154 452.043 184.008 452.434 183.715C452.824 183.418 453.02 183.008 453.02 182.484C453.02 182.066 452.875 181.738 452.586 181.5C452.301 181.262 451.912 181.143 451.42 181.143C451.045 181.143 450.691 181.193 450.359 181.295C450.027 181.396 449.648 181.584 449.223 181.857L448.73 181.201C449.082 180.924 449.486 180.707 449.943 180.551C450.404 180.391 450.889 180.311 451.396 180.311C452.229 180.311 452.875 180.502 453.336 180.885C453.797 181.264 454.027 181.785 454.027 182.449ZM461.217 189H455.586V188.162L457.842 185.895C458.529 185.199 458.982 184.703 459.201 184.406C459.42 184.109 459.584 183.82 459.693 183.539C459.803 183.258 459.857 182.955 459.857 182.631C459.857 182.174 459.719 181.812 459.441 181.547C459.164 181.277 458.779 181.143 458.287 181.143C457.932 181.143 457.594 181.201 457.273 181.318C456.957 181.436 456.604 181.648 456.213 181.957L455.697 181.295C456.486 180.639 457.346 180.311 458.275 180.311C459.08 180.311 459.711 180.518 460.168 180.932C460.625 181.342 460.854 181.895 460.854 182.59C460.854 183.133 460.701 183.67 460.396 184.201C460.092 184.732 459.521 185.404 458.686 186.217L456.811 188.051V188.098H461.217V189Z" fill="black"/>
<path d="M50.0254 242.635C50.0254 244.049 49.6406 245.131 48.8711 245.881C48.1055 246.627 47.002 247 45.5605 247H43.1875V238.434H45.8125C47.1445 238.434 48.1797 238.803 48.918 239.541C49.6562 240.279 50.0254 241.311 50.0254 242.635ZM48.9707 242.67C48.9707 241.553 48.6895 240.711 48.127 240.145C47.5684 239.578 46.7363 239.295 45.6309 239.295H44.1836V246.139H45.3965C46.584 246.139 47.4766 245.848 48.0742 245.266C48.6719 244.68 48.9707 243.814 48.9707 242.67ZM52.7676 247H51.7949V240.578H52.7676V247ZM51.7129 238.838C51.7129 238.615 51.7676 238.453 51.877 238.352C51.9863 238.246 52.123 238.193 52.2871 238.193C52.4434 238.193 52.5781 238.246 52.6914 238.352C52.8047 238.457 52.8613 238.619 52.8613 238.838C52.8613 239.057 52.8047 239.221 52.6914 239.33C52.5781 239.436 52.4434 239.488 52.2871 239.488C52.123 239.488 51.9863 239.436 51.877 239.33C51.7676 239.221 51.7129 239.057 51.7129 238.838ZM60.0859 240.578V241.193L58.8965 241.334C59.0059 241.471 59.1035 241.65 59.1895 241.873C59.2754 242.092 59.3184 242.34 59.3184 242.617C59.3184 243.246 59.1035 243.748 58.6738 244.123C58.2441 244.498 57.6543 244.686 56.9043 244.686C56.7129 244.686 56.5332 244.67 56.3652 244.639C55.9512 244.857 55.7441 245.133 55.7441 245.465C55.7441 245.641 55.8164 245.771 55.9609 245.857C56.1055 245.939 56.3535 245.98 56.7051 245.98H57.8418C58.5371 245.98 59.0703 246.127 59.4414 246.42C59.8164 246.713 60.0039 247.139 60.0039 247.697C60.0039 248.408 59.7188 248.949 59.1484 249.32C58.5781 249.695 57.7461 249.883 56.6523 249.883C55.8125 249.883 55.1641 249.727 54.707 249.414C54.2539 249.102 54.0273 248.66 54.0273 248.09C54.0273 247.699 54.1523 247.361 54.4023 247.076C54.6523 246.791 55.0039 246.598 55.457 246.496C55.293 246.422 55.1543 246.307 55.041 246.15C54.9316 245.994 54.877 245.812 54.877 245.605C54.877 245.371 54.9395 245.166 55.0645 244.99C55.1895 244.814 55.3867 244.645 55.6562 244.48C55.3242 244.344 55.0527 244.111 54.8418 243.783C54.6348 243.455 54.5312 243.08 54.5312 242.658C54.5312 241.955 54.7422 241.414 55.1641 241.035C55.5859 240.652 56.1836 240.461 56.957 240.461C57.293 240.461 57.5957 240.5 57.8652 240.578H60.0859ZM54.9648 248.078C54.9648 248.426 55.1113 248.689 55.4043 248.869C55.6973 249.049 56.1172 249.139 56.6641 249.139C57.4805 249.139 58.084 249.016 58.4746 248.77C58.8691 248.527 59.0664 248.197 59.0664 247.779C59.0664 247.432 58.959 247.189 58.7441 247.053C58.5293 246.92 58.125 246.854 57.5312 246.854H56.3652C55.9238 246.854 55.5801 246.959 55.334 247.17C55.0879 247.381 54.9648 247.684 54.9648 248.078ZM55.4922 242.635C55.4922 243.084 55.6191 243.424 55.873 243.654C56.127 243.885 56.4805 244 56.9336 244C57.8828 244 58.3574 243.539 58.3574 242.617C58.3574 241.652 57.877 241.17 56.916 241.17C56.459 241.17 56.1074 241.293 55.8613 241.539C55.6152 241.785 55.4922 242.15 55.4922 242.635ZM62.377 247H61.4043V240.578H62.377V247ZM61.3223 238.838C61.3223 238.615 61.377 238.453 61.4863 238.352C61.5957 238.246 61.7324 238.193 61.8965 238.193C62.0527 238.193 62.1875 238.246 62.3008 238.352C62.4141 238.457 62.4707 238.619 62.4707 238.838C62.4707 239.057 62.4141 239.221 62.3008 239.33C62.1875 239.436 62.0527 239.488 61.8965 239.488C61.7324 239.488 61.5957 239.436 61.4863 239.33C61.377 239.221 61.3223 239.057 61.3223 238.838ZM66.5137 246.314C66.6855 246.314 66.8516 246.303 67.0117 246.279C67.1719 246.252 67.2988 246.225 67.3926 246.197V246.941C67.2871 246.992 67.1309 247.033 66.9238 247.064C66.7207 247.1 66.5371 247.117 66.373 247.117C65.1309 247.117 64.5098 246.463 64.5098 245.154V241.334H63.5898V240.865L64.5098 240.461L64.9199 239.09H65.4824V240.578H67.3457V241.334H65.4824V245.113C65.4824 245.5 65.5742 245.797 65.7578 246.004C65.9414 246.211 66.1934 246.314 66.5137 246.314ZM72.4961 239.201C71.5547 239.201 70.8105 239.516 70.2637 240.145C69.7207 240.77 69.4492 241.627 69.4492 242.717C69.4492 243.838 69.7109 244.705 70.2344 245.318C70.7617 245.928 71.5117 246.232 72.4844 246.232C73.082 246.232 73.7637 246.125 74.5293 245.91V246.783C73.9355 247.006 73.2031 247.117 72.332 247.117C71.0703 247.117 70.0957 246.734 69.4082 245.969C68.7246 245.203 68.3828 244.115 68.3828 242.705C68.3828 241.822 68.5469 241.049 68.875 240.385C69.207 239.721 69.6836 239.209 70.3047 238.85C70.9297 238.49 71.6641 238.311 72.5078 238.311C73.4062 238.311 74.1914 238.475 74.8633 238.803L74.4414 239.658C73.793 239.354 73.1445 239.201 72.4961 239.201ZM80.2012 247L80.0078 246.086H79.9609C79.6406 246.488 79.3203 246.762 79 246.906C78.6836 247.047 78.2871 247.117 77.8105 247.117C77.1738 247.117 76.6738 246.953 76.3105 246.625C75.9512 246.297 75.7715 245.83 75.7715 245.225C75.7715 243.928 76.8086 243.248 78.8828 243.186L79.9727 243.15V242.752C79.9727 242.248 79.8633 241.877 79.6445 241.639C79.4297 241.396 79.084 241.275 78.6074 241.275C78.0723 241.275 77.4668 241.439 76.791 241.768L76.4922 241.023C76.8086 240.852 77.1543 240.717 77.5293 240.619C77.9082 240.521 78.2871 240.473 78.666 240.473C79.4316 240.473 79.998 240.643 80.3652 240.982C80.7363 241.322 80.9219 241.867 80.9219 242.617V247H80.2012ZM78.0039 246.314C78.6094 246.314 79.084 246.148 79.4277 245.816C79.7754 245.484 79.9492 245.02 79.9492 244.422V243.842L78.9766 243.883C78.2031 243.91 77.6445 244.031 77.3008 244.246C76.9609 244.457 76.791 244.787 76.791 245.236C76.791 245.588 76.8965 245.855 77.1074 246.039C77.3223 246.223 77.6211 246.314 78.0039 246.314ZM85.9199 247.117C85.502 247.117 85.1191 247.041 84.7715 246.889C84.4277 246.732 84.1387 246.494 83.9043 246.174H83.834C83.8809 246.549 83.9043 246.904 83.9043 247.24V249.883H82.9316V240.578H83.7227L83.8574 241.457H83.9043C84.1543 241.105 84.4453 240.852 84.7773 240.695C85.1094 240.539 85.4902 240.461 85.9199 240.461C86.7715 240.461 87.4277 240.752 87.8887 241.334C88.3535 241.916 88.5859 242.732 88.5859 243.783C88.5859 244.838 88.3496 245.658 87.877 246.244C87.4082 246.826 86.7559 247.117 85.9199 247.117ZM85.7793 241.287C85.123 241.287 84.6484 241.469 84.3555 241.832C84.0625 242.195 83.9121 242.773 83.9043 243.566V243.783C83.9043 244.686 84.0547 245.332 84.3555 245.723C84.6562 246.109 85.1387 246.303 85.8027 246.303C86.3574 246.303 86.791 246.078 87.1035 245.629C87.4199 245.18 87.5781 244.561 87.5781 243.771C87.5781 242.971 87.4199 242.357 87.1035 241.932C86.791 241.502 86.3496 241.287 85.7793 241.287ZM94.4336 245.248C94.4336 245.846 94.2109 246.307 93.7656 246.631C93.3203 246.955 92.6953 247.117 91.8906 247.117C91.0391 247.117 90.375 246.982 89.8984 246.713V245.811C90.207 245.967 90.5371 246.09 90.8887 246.18C91.2441 246.27 91.5859 246.314 91.9141 246.314C92.4219 246.314 92.8125 246.234 93.0859 246.074C93.3594 245.91 93.4961 245.662 93.4961 245.33C93.4961 245.08 93.3867 244.867 93.168 244.691C92.9531 244.512 92.5312 244.301 91.9023 244.059C91.3047 243.836 90.8789 243.643 90.625 243.479C90.375 243.311 90.1875 243.121 90.0625 242.91C89.9414 242.699 89.8809 242.447 89.8809 242.154C89.8809 241.631 90.0938 241.219 90.5195 240.918C90.9453 240.613 91.5293 240.461 92.2715 240.461C92.9629 240.461 93.6387 240.602 94.2988 240.883L93.9531 241.674C93.3086 241.408 92.7246 241.275 92.2012 241.275C91.7402 241.275 91.3926 241.348 91.1582 241.492C90.9238 241.637 90.8066 241.836 90.8066 242.09C90.8066 242.262 90.8496 242.408 90.9355 242.529C91.0254 242.65 91.168 242.766 91.3633 242.875C91.5586 242.984 91.9336 243.143 92.4883 243.35C93.25 243.627 93.7637 243.906 94.0293 244.188C94.2988 244.469 94.4336 244.822 94.4336 245.248Z" fill="black"/>
<path d="M157.672 247H156.676V238.434H161.451V239.318H157.672V242.453H161.223V243.338H157.672V247ZM166.543 239.201C165.602 239.201 164.857 239.516 164.311 240.145C163.768 240.77 163.496 241.627 163.496 242.717C163.496 243.838 163.758 244.705 164.281 245.318C164.809 245.928 165.559 246.232 166.531 246.232C167.129 246.232 167.811 246.125 168.576 245.91V246.783C167.982 247.006 167.25 247.117 166.379 247.117C165.117 247.117 164.143 246.734 163.455 245.969C162.771 245.203 162.43 244.115 162.43 242.705C162.43 241.822 162.594 241.049 162.922 240.385C163.254 239.721 163.73 239.209 164.352 238.85C164.977 238.49 165.711 238.311 166.555 238.311C167.453 238.311 168.238 238.475 168.91 238.803L168.488 239.658C167.84 239.354 167.191 239.201 166.543 239.201ZM176.211 242.365H178.625V243.174H176.211V245.67H175.396V243.174H172.994V242.365H175.396V239.857H176.211V242.365ZM184.543 243.438V247H183.547V238.434H185.896C186.947 238.434 187.723 238.635 188.223 239.037C188.727 239.439 188.979 240.045 188.979 240.854C188.979 241.986 188.404 242.752 187.256 243.15L189.582 247H188.404L186.33 243.438H184.543ZM184.543 242.582H185.908C186.611 242.582 187.127 242.443 187.455 242.166C187.783 241.885 187.947 241.465 187.947 240.906C187.947 240.34 187.779 239.932 187.443 239.682C187.111 239.432 186.576 239.307 185.838 239.307H184.543V242.582ZM193.531 247.117C192.582 247.117 191.832 246.828 191.281 246.25C190.734 245.672 190.461 244.869 190.461 243.842C190.461 242.807 190.715 241.984 191.223 241.375C191.734 240.766 192.42 240.461 193.279 240.461C194.084 240.461 194.721 240.727 195.189 241.258C195.658 241.785 195.893 242.482 195.893 243.35V243.965H191.469C191.488 244.719 191.678 245.291 192.037 245.682C192.4 246.072 192.91 246.268 193.566 246.268C194.258 246.268 194.941 246.123 195.617 245.834V246.701C195.273 246.85 194.947 246.955 194.639 247.018C194.334 247.084 193.965 247.117 193.531 247.117ZM193.268 241.275C192.752 241.275 192.34 241.443 192.031 241.779C191.727 242.115 191.547 242.58 191.492 243.174H194.85C194.85 242.561 194.713 242.092 194.439 241.768C194.166 241.439 193.775 241.275 193.268 241.275ZM197.703 247V238.434H198.699V246.098H202.479V247H197.703ZM210.406 238.434V243.977C210.406 244.953 210.111 245.721 209.521 246.279C208.932 246.838 208.121 247.117 207.09 247.117C206.059 247.117 205.26 246.836 204.693 246.273C204.131 245.711 203.85 244.938 203.85 243.953V238.434H204.846V244.023C204.846 244.738 205.041 245.287 205.432 245.67C205.822 246.053 206.396 246.244 207.154 246.244C207.877 246.244 208.434 246.053 208.824 245.67C209.215 245.283 209.41 244.73 209.41 244.012V238.434H210.406Z" fill="black"/>
<path d="M245.672 247H244.676V238.434H249.451V239.318H245.672V242.453H249.223V243.338H245.672V247ZM254.543 239.201C253.602 239.201 252.857 239.516 252.311 240.145C251.768 240.77 251.496 241.627 251.496 242.717C251.496 243.838 251.758 244.705 252.281 245.318C252.809 245.928 253.559 246.232 254.531 246.232C255.129 246.232 255.811 246.125 256.576 245.91V246.783C255.982 247.006 255.25 247.117 254.379 247.117C253.117 247.117 252.143 246.734 251.455 245.969C250.771 245.203 250.43 244.115 250.43 242.705C250.43 241.822 250.594 241.049 250.922 240.385C251.254 239.721 251.73 239.209 252.352 238.85C252.977 238.49 253.711 238.311 254.555 238.311C255.453 238.311 256.238 238.475 256.91 238.803L256.488 239.658C255.84 239.354 255.191 239.201 254.543 239.201ZM264.211 242.365H266.625V243.174H264.211V245.67H263.396V243.174H260.994V242.365H263.396V239.857H264.211V242.365ZM272.543 243.438V247H271.547V238.434H273.896C274.947 238.434 275.723 238.635 276.223 239.037C276.727 239.439 276.979 240.045 276.979 240.854C276.979 241.986 276.404 242.752 275.256 243.15L277.582 247H276.404L274.33 243.438H272.543ZM272.543 242.582H273.908C274.611 242.582 275.127 242.443 275.455 242.166C275.783 241.885 275.947 241.465 275.947 240.906C275.947 240.34 275.779 239.932 275.443 239.682C275.111 239.432 274.576 239.307 273.838 239.307H272.543V242.582ZM281.531 247.117C280.582 247.117 279.832 246.828 279.281 246.25C278.734 245.672 278.461 244.869 278.461 243.842C278.461 242.807 278.715 241.984 279.223 241.375C279.734 240.766 280.42 240.461 281.279 240.461C282.084 240.461 282.721 240.727 283.189 241.258C283.658 241.785 283.893 242.482 283.893 243.35V243.965H279.469C279.488 244.719 279.678 245.291 280.037 245.682C280.4 246.072 280.91 246.268 281.566 246.268C282.258 246.268 282.941 246.123 283.617 245.834V246.701C283.273 246.85 282.947 246.955 282.639 247.018C282.334 247.084 281.965 247.117 281.531 247.117ZM281.268 241.275C280.752 241.275 280.34 241.443 280.031 241.779C279.727 242.115 279.547 242.58 279.492 243.174H282.85C282.85 242.561 282.713 242.092 282.439 241.768C282.166 241.439 281.775 241.275 281.268 241.275ZM285.703 247V238.434H286.699V246.098H290.479V247H285.703ZM298.406 238.434V243.977C298.406 244.953 298.111 245.721 297.521 246.279C296.932 246.838 296.121 247.117 295.09 247.117C294.059 247.117 293.26 246.836 292.693 246.273C292.131 245.711 291.85 244.938 291.85 243.953V238.434H292.846V244.023C292.846 244.738 293.041 245.287 293.432 245.67C293.822 246.053 294.396 246.244 295.154 246.244C295.877 246.244 296.434 246.053 296.824 245.67C297.215 245.283 297.41 244.73 297.41 244.012V238.434H298.406Z" fill="black"/>
<path d="M333.672 247H332.676V238.434H337.451V239.318H333.672V242.453H337.223V243.338H333.672V247ZM342.543 239.201C341.602 239.201 340.857 239.516 340.311 240.145C339.768 240.77 339.496 241.627 339.496 242.717C339.496 243.838 339.758 244.705 340.281 245.318C340.809 245.928 341.559 246.232 342.531 246.232C343.129 246.232 343.811 246.125 344.576 245.91V246.783C343.982 247.006 343.25 247.117 342.379 247.117C341.117 247.117 340.143 246.734 339.455 245.969C338.771 245.203 338.43 244.115 338.43 242.705C338.43 241.822 338.594 241.049 338.922 240.385C339.254 239.721 339.73 239.209 340.352 238.85C340.977 238.49 341.711 238.311 342.555 238.311C343.453 238.311 344.238 238.475 344.91 238.803L344.488 239.658C343.84 239.354 343.191 239.201 342.543 239.201ZM352.211 242.365H354.625V243.174H352.211V245.67H351.396V243.174H348.994V242.365H351.396V239.857H352.211V242.365ZM360.543 243.438V247H359.547V238.434H361.896C362.947 238.434 363.723 238.635 364.223 239.037C364.727 239.439 364.979 240.045 364.979 240.854C364.979 241.986 364.404 242.752 363.256 243.15L365.582 247H364.404L362.33 243.438H360.543ZM360.543 242.582H361.908C362.611 242.582 363.127 242.443 363.455 242.166C363.783 241.885 363.947 241.465 363.947 240.906C363.947 240.34 363.779 239.932 363.443 239.682C363.111 239.432 362.576 239.307 361.838 239.307H360.543V242.582ZM369.531 247.117C368.582 247.117 367.832 246.828 367.281 246.25C366.734 245.672 366.461 244.869 366.461 243.842C366.461 242.807 366.715 241.984 367.223 241.375C367.734 240.766 368.42 240.461 369.279 240.461C370.084 240.461 370.721 240.727 371.189 241.258C371.658 241.785 371.893 242.482 371.893 243.35V243.965H367.469C367.488 244.719 367.678 245.291 368.037 245.682C368.4 246.072 368.91 246.268 369.566 246.268C370.258 246.268 370.941 246.123 371.617 245.834V246.701C371.273 246.85 370.947 246.955 370.639 247.018C370.334 247.084 369.965 247.117 369.531 247.117ZM369.268 241.275C368.752 241.275 368.34 241.443 368.031 241.779C367.727 242.115 367.547 242.58 367.492 243.174H370.85C370.85 242.561 370.713 242.092 370.439 241.768C370.166 241.439 369.775 241.275 369.268 241.275ZM373.703 247V238.434H374.699V246.098H378.479V247H373.703ZM386.406 238.434V243.977C386.406 244.953 386.111 245.721 385.521 246.279C384.932 246.838 384.121 247.117 383.09 247.117C382.059 247.117 381.26 246.836 380.693 246.273C380.131 245.711 379.85 244.938 379.85 243.953V238.434H380.846V244.023C380.846 244.738 381.041 245.287 381.432 245.67C381.822 246.053 382.396 246.244 383.154 246.244C383.877 246.244 384.434 246.053 384.824 245.67C385.215 245.283 385.41 244.73 385.41 244.012V238.434H386.406Z" fill="black"/>
<path d="M435.656 243.438V247H434.66V238.434H437.01C438.061 238.434 438.836 238.635 439.336 239.037C439.84 239.439 440.092 240.045 440.092 240.854C440.092 241.986 439.518 242.752 438.369 243.15L440.695 247H439.518L437.443 243.438H435.656ZM435.656 242.582H437.021C437.725 242.582 438.24 242.443 438.568 242.166C438.896 241.885 439.061 241.465 439.061 240.906C439.061 240.34 438.893 239.932 438.557 239.682C438.225 239.432 437.689 239.307 436.951 239.307H435.656V242.582ZM444.645 247.117C443.695 247.117 442.945 246.828 442.395 246.25C441.848 245.672 441.574 244.869 441.574 243.842C441.574 242.807 441.828 241.984 442.336 241.375C442.848 240.766 443.533 240.461 444.393 240.461C445.197 240.461 445.834 240.727 446.303 241.258C446.771 241.785 447.006 242.482 447.006 243.35V243.965H442.582C442.602 244.719 442.791 245.291 443.15 245.682C443.514 246.072 444.023 246.268 444.68 246.268C445.371 246.268 446.055 246.123 446.73 245.834V246.701C446.387 246.85 446.061 246.955 445.752 247.018C445.447 247.084 445.078 247.117 444.645 247.117ZM444.381 241.275C443.865 241.275 443.453 241.443 443.145 241.779C442.84 242.115 442.66 242.58 442.605 243.174H445.963C445.963 242.561 445.826 242.092 445.553 241.768C445.279 241.439 444.889 241.275 444.381 241.275ZM452.812 245.248C452.812 245.846 452.59 246.307 452.145 246.631C451.699 246.955 451.074 247.117 450.27 247.117C449.418 247.117 448.754 246.982 448.277 246.713V245.811C448.586 245.967 448.916 246.09 449.268 246.18C449.623 246.27 449.965 246.314 450.293 246.314C450.801 246.314 451.191 246.234 451.465 246.074C451.738 245.91 451.875 245.662 451.875 245.33C451.875 245.08 451.766 244.867 451.547 244.691C451.332 244.512 450.91 244.301 450.281 244.059C449.684 243.836 449.258 243.643 449.004 243.479C448.754 243.311 448.566 243.121 448.441 242.91C448.32 242.699 448.26 242.447 448.26 242.154C448.26 241.631 448.473 241.219 448.898 240.918C449.324 240.613 449.908 240.461 450.65 240.461C451.342 240.461 452.018 240.602 452.678 240.883L452.332 241.674C451.688 241.408 451.104 241.275 450.58 241.275C450.119 241.275 449.771 241.348 449.537 241.492C449.303 241.637 449.186 241.836 449.186 242.09C449.186 242.262 449.229 242.408 449.314 242.529C449.404 242.65 449.547 242.766 449.742 242.875C449.938 242.984 450.312 243.143 450.867 243.35C451.629 243.627 452.143 243.906 452.408 244.188C452.678 244.469 452.812 244.822 452.812 245.248ZM458.795 247V242.846C458.795 242.322 458.676 241.932 458.438 241.674C458.199 241.416 457.826 241.287 457.318 241.287C456.643 241.287 456.148 241.471 455.836 241.838C455.527 242.205 455.373 242.807 455.373 243.643V247H454.4V237.883H455.373V240.643C455.373 240.975 455.357 241.25 455.326 241.469H455.385C455.576 241.16 455.848 240.918 456.199 240.742C456.555 240.562 456.959 240.473 457.412 240.473C458.197 240.473 458.785 240.66 459.176 241.035C459.57 241.406 459.768 241.998 459.768 242.811V247H458.795ZM465.721 247L465.527 246.086H465.48C465.16 246.488 464.84 246.762 464.52 246.906C464.203 247.047 463.807 247.117 463.33 247.117C462.693 247.117 462.193 246.953 461.83 246.625C461.471 246.297 461.291 245.83 461.291 245.225C461.291 243.928 462.328 243.248 464.402 243.186L465.492 243.15V242.752C465.492 242.248 465.383 241.877 465.164 241.639C464.949 241.396 464.604 241.275 464.127 241.275C463.592 241.275 462.986 241.439 462.311 241.768L462.012 241.023C462.328 240.852 462.674 240.717 463.049 240.619C463.428 240.521 463.807 240.473 464.186 240.473C464.951 240.473 465.518 240.643 465.885 240.982C466.256 241.322 466.441 241.867 466.441 242.617V247H465.721ZM463.523 246.314C464.129 246.314 464.604 246.148 464.947 245.816C465.295 245.484 465.469 245.02 465.469 244.422V243.842L464.496 243.883C463.723 243.91 463.164 244.031 462.82 244.246C462.48 244.457 462.311 244.787 462.311 245.236C462.311 245.588 462.416 245.855 462.627 246.039C462.842 246.223 463.141 246.314 463.523 246.314ZM471.439 247.117C471.021 247.117 470.639 247.041 470.291 246.889C469.947 246.732 469.658 246.494 469.424 246.174H469.354C469.4 246.549 469.424 246.904 469.424 247.24V249.883H468.451V240.578H469.242L469.377 241.457H469.424C469.674 241.105 469.965 240.852 470.297 240.695C470.629 240.539 471.01 240.461 471.439 240.461C472.291 240.461 472.947 240.752 473.408 241.334C473.873 241.916 474.105 242.732 474.105 243.783C474.105 244.838 473.869 245.658 473.396 246.244C472.928 246.826 472.275 247.117 471.439 247.117ZM471.299 241.287C470.643 241.287 470.168 241.469 469.875 241.832C469.582 242.195 469.432 242.773 469.424 243.566V243.783C469.424 244.686 469.574 245.332 469.875 245.723C470.176 246.109 470.658 246.303 471.322 246.303C471.877 246.303 472.311 246.078 472.623 245.629C472.939 245.18 473.098 244.561 473.098 243.771C473.098 242.971 472.939 242.357 472.623 241.932C472.311 241.502 471.869 241.287 471.299 241.287ZM478.523 247.117C477.574 247.117 476.824 246.828 476.273 246.25C475.727 245.672 475.453 244.869 475.453 243.842C475.453 242.807 475.707 241.984 476.215 241.375C476.727 240.766 477.412 240.461 478.271 240.461C479.076 240.461 479.713 240.727 480.182 241.258C480.65 241.785 480.885 242.482 480.885 243.35V243.965H476.461C476.48 244.719 476.67 245.291 477.029 245.682C477.393 246.072 477.902 246.268 478.559 246.268C479.25 246.268 479.934 246.123 480.609 245.834V246.701C480.266 246.85 479.939 246.955 479.631 247.018C479.326 247.084 478.957 247.117 478.523 247.117ZM478.26 241.275C477.744 241.275 477.332 241.443 477.023 241.779C476.719 242.115 476.539 242.58 476.484 243.174H479.842C479.842 242.561 479.705 242.092 479.432 241.768C479.158 241.439 478.768 241.275 478.26 241.275Z" fill="black"/>
<path d="M27.5 145C27.5 146.262 28.3091 147.15 29.4901 147.757C30.6616 148.36 32.293 148.743 34.1839 148.996C37.9742 149.501 43.0123 149.5 48 149.5C53.0123 149.5 57.9742 149.501 61.6839 149.996C63.543 150.243 65.0366 150.61 66.0526 151.132C67.0591 151.65 67.5 152.262 67.5 153L68.5 153C68.5 151.738 67.6909 150.85 66.5099 150.243C65.3384 149.64 63.707 149.257 61.8161 149.004C58.0258 148.499 52.9877 148.5 48 148.5C42.9877 148.5 38.0258 148.499 34.3161 148.004C32.457 147.757 30.9634 147.39 29.9474 146.868C28.9409 146.35 28.5 145.738 28.5 145L27.5 145ZM107.5 145C107.5 145.738 107.059 146.35 106.053 146.868C105.037 147.39 103.543 147.757 101.684 148.004C97.9742 148.499 93.0123 148.5 88 148.5C83.0123 148.5 77.9742 148.499 74.1839 149.004C72.293 149.257 70.6616 149.64 69.4901 150.243C68.3091 150.85 67.5 151.738 67.5 153L68.5 153C68.5 152.262 68.9409 151.65 69.9474 151.132C70.9634 150.61 72.457 150.243 74.3161 149.996C78.0258 149.501 82.9877 149.5 88 149.5C92.9877 149.5 98.0258 149.501 101.816 148.996C103.707 148.743 105.338 148.36 106.51 147.757C107.691 147.15 108.5 146.262 108.5 145L107.5 145Z" fill="black"/>
<path d="M23 89.5C21.8468 89.5 20.9565 89.9604 20.3014 90.7565C19.6651 91.5298 19.2681 92.5969 19.011 93.8019C18.4975 96.2088 18.5 99.3942 18.5 102.5C18.5 105.644 18.4975 108.709 18.011 110.989C17.7681 112.128 17.4151 113.014 16.9264 113.608C16.4565 114.179 15.8468 114.5 15 114.5L15 115.5C16.1531 115.5 17.0435 115.04 17.6986 114.243C18.3349 113.47 18.7319 112.403 18.989 111.198C19.5025 108.791 19.5 105.606 19.5 102.5C19.5 99.3558 19.5025 96.2912 19.989 94.0106C20.2319 92.8718 20.5849 91.9858 21.0736 91.3919C21.5435 90.8209 22.1532 90.5 23 90.5L23 89.5ZM23 139.5C22.1531 139.5 21.5435 139.179 21.0736 138.608C20.5849 138.014 20.2319 137.128 19.989 135.989C19.5024 133.709 19.5 130.644 19.5 127.5C19.5 124.394 19.5024 121.209 18.989 118.802C18.7319 117.597 18.3349 116.53 17.6986 115.757C17.0435 114.96 16.1531 114.5 15 114.5L15 115.5C15.8468 115.5 16.4565 115.821 16.9264 116.392C17.4151 116.986 17.7681 117.872 18.011 119.011C18.4975 121.291 18.5 124.356 18.5 127.5C18.5 130.606 18.4975 133.791 19.011 136.198C19.2681 137.403 19.6651 138.47 20.3014 139.243C20.9565 140.04 21.8468 140.5 23 140.5L23 139.5Z" fill="black"/>
<path d="M65.3223 166H64.373V159.895C64.373 159.387 64.3887 158.906 64.4199 158.453C64.3379 158.535 64.2461 158.621 64.1445 158.711C64.043 158.801 63.5781 159.182 62.75 159.854L62.2344 159.186L64.502 157.434H65.3223V166ZM74.2637 161.705C74.2637 163.186 74.0293 164.291 73.5605 165.021C73.0957 165.752 72.3828 166.117 71.4219 166.117C70.5 166.117 69.7988 165.744 69.3184 164.998C68.8379 164.248 68.5977 163.15 68.5977 161.705C68.5977 160.213 68.8301 159.105 69.2949 158.383C69.7598 157.66 70.4688 157.299 71.4219 157.299C72.3516 157.299 73.0566 157.676 73.5371 158.43C74.0215 159.184 74.2637 160.275 74.2637 161.705ZM69.582 161.705C69.582 162.951 69.7285 163.859 70.0215 164.43C70.3145 164.996 70.7812 165.279 71.4219 165.279C72.0703 165.279 72.5391 164.992 72.8281 164.418C73.1211 163.84 73.2676 162.936 73.2676 161.705C73.2676 160.475 73.1211 159.574 72.8281 159.004C72.5391 158.43 72.0703 158.143 71.4219 158.143C70.7812 158.143 70.3145 158.426 70.0215 158.992C69.7285 159.555 69.582 160.459 69.582 161.705Z" fill="black"/>
<path d="M3.32227 119H2.37305V112.895C2.37305 112.387 2.38867 111.906 2.41992 111.453C2.33789 111.535 2.24609 111.621 2.14453 111.711C2.04297 111.801 1.57812 112.182 0.75 112.854L0.234375 112.186L2.50195 110.434H3.32227V119ZM6.68555 115.338C6.68555 113.654 7.01172 112.396 7.66406 111.564C8.32031 110.729 9.28906 110.311 10.5703 110.311C11.0117 110.311 11.3594 110.348 11.6133 110.422V111.26C11.3125 111.162 10.9688 111.113 10.582 111.113C9.66406 111.113 8.96289 111.4 8.47852 111.975C7.99414 112.545 7.72852 113.443 7.68164 114.67H7.75195C8.18164 113.998 8.86133 113.662 9.79102 113.662C10.5605 113.662 11.166 113.895 11.6074 114.359C12.0527 114.824 12.2754 115.455 12.2754 116.252C12.2754 117.143 12.0312 117.844 11.543 118.355C11.0586 118.863 10.4023 119.117 9.57422 119.117C8.6875 119.117 7.98438 118.785 7.46484 118.121C6.94531 117.453 6.68555 116.525 6.68555 115.338ZM9.5625 118.291C10.1172 118.291 10.5469 118.117 10.8516 117.77C11.1602 117.418 11.3145 116.912 11.3145 116.252C11.3145 115.686 11.1719 115.24 10.8867 114.916C10.6016 114.592 10.1758 114.43 9.60938 114.43C9.25781 114.43 8.93555 114.502 8.64258 114.646C8.34961 114.791 8.11523 114.99 7.93945 115.244C7.76758 115.498 7.68164 115.762 7.68164 116.035C7.68164 116.438 7.75977 116.812 7.91602 117.16C8.07227 117.508 8.29297 117.783 8.57812 117.986C8.86719 118.189 9.19531 118.291 9.5625 118.291Z" fill="black"/>
<path d="M174 67.5C172.694 67.5 171.817 68.4764 171.229 69.819C170.636 71.1749 170.255 73.0717 170.003 75.2874C169.499 79.7281 169.5 85.6355 169.5 91.5C169.5 97.3855 169.499 103.228 169.003 107.6C168.755 109.79 168.386 111.566 167.854 112.78C167.317 114.008 166.694 114.5 166 114.5L166 115.5C167.306 115.5 168.183 114.524 168.771 113.181C169.364 111.825 169.745 109.928 169.997 107.713C170.501 103.272 170.5 97.3645 170.5 91.5C170.5 85.6145 170.501 79.7719 170.997 75.4001C171.245 73.2095 171.614 71.4345 172.146 70.22C172.683 68.9923 173.306 68.5 174 68.5L174 67.5ZM174 161.5C173.306 161.5 172.683 161.008 172.146 159.78C171.614 158.566 171.245 156.79 170.997 154.6C170.501 150.228 170.5 144.385 170.5 138.5C170.5 132.635 170.501 126.728 169.997 122.287C169.745 120.072 169.364 118.175 168.771 116.819C168.183 115.476 167.306 114.5 166 114.5L166 115.5C166.694 115.5 167.317 115.992 167.854 117.22C168.386 118.434 168.755 120.21 169.003 122.4C169.499 126.772 169.5 132.615 169.5 138.5C169.5 144.365 169.499 150.272 170.003 154.713C170.255 156.928 170.636 158.825 171.229 160.181C171.817 161.524 172.694 162.5 174 162.5L174 161.5Z" fill="black"/>
<path d="M146.463 113.768C147.365 113.768 148.074 113.992 148.59 114.441C149.109 114.887 149.369 115.498 149.369 116.275C149.369 117.162 149.086 117.857 148.52 118.361C147.957 118.865 147.18 119.117 146.188 119.117C145.223 119.117 144.486 118.963 143.979 118.654V117.717C144.252 117.893 144.592 118.031 144.998 118.133C145.404 118.23 145.805 118.279 146.199 118.279C146.887 118.279 147.42 118.117 147.799 117.793C148.182 117.469 148.373 117 148.373 116.387C148.373 115.191 147.641 114.594 146.176 114.594C145.805 114.594 145.309 114.65 144.688 114.764L144.184 114.441L144.506 110.434H148.766V111.33H145.338L145.121 113.902C145.57 113.812 146.018 113.768 146.463 113.768ZM154.256 119H153.307V112.895C153.307 112.387 153.322 111.906 153.354 111.453C153.271 111.535 153.18 111.621 153.078 111.711C152.977 111.801 152.512 112.182 151.684 112.854L151.168 112.186L153.436 110.434H154.256V119ZM163.15 119H157.52V118.162L159.775 115.895C160.463 115.199 160.916 114.703 161.135 114.406C161.354 114.109 161.518 113.82 161.627 113.539C161.736 113.258 161.791 112.955 161.791 112.631C161.791 112.174 161.652 111.812 161.375 111.547C161.098 111.277 160.713 111.143 160.221 111.143C159.865 111.143 159.527 111.201 159.207 111.318C158.891 111.436 158.537 111.648 158.146 111.957L157.631 111.295C158.42 110.639 159.279 110.311 160.209 110.311C161.014 110.311 161.645 110.518 162.102 110.932C162.559 111.342 162.787 111.895 162.787 112.59C162.787 113.133 162.635 113.67 162.33 114.201C162.025 114.732 161.455 115.404 160.619 116.217L158.744 118.051V118.098H163.15V119Z" fill="black"/>
<path d="M262 33.5C261.255 33.5 260.685 33.9798 260.26 34.6386C259.833 35.2992 259.489 36.2305 259.203 37.3574C258.629 39.6186 258.251 42.8205 258.001 46.6234C257.5 54.2373 257.5 64.3811 257.5 74.5C257.5 84.6311 257.5 94.7373 257.001 102.311C256.751 106.102 256.379 109.228 255.828 111.396C255.552 112.484 255.24 113.293 254.9 113.819C254.56 114.347 254.255 114.5 254 114.5L254 115.5C254.745 115.5 255.315 115.02 255.74 114.361C256.167 113.701 256.511 112.769 256.797 111.643C257.371 109.381 257.749 106.179 257.999 102.377C258.5 94.7627 258.5 84.6189 258.5 74.5C258.5 64.3689 258.5 54.2627 258.999 46.6891C259.249 42.8982 259.621 39.772 260.172 37.6035C260.448 36.5156 260.76 35.7067 261.1 35.1808C261.44 34.653 261.745 34.5 262 34.5L262 33.5ZM262 195.5C261.745 195.5 261.44 195.347 261.1 194.819C260.76 194.293 260.448 193.484 260.172 192.396C259.621 190.228 259.249 187.102 258.999 183.311C258.5 175.737 258.5 165.631 258.5 155.5C258.5 145.381 258.5 135.237 257.999 127.623C257.749 123.821 257.371 120.619 256.797 118.357C256.511 117.231 256.167 116.299 255.74 115.639C255.315 114.98 254.745 114.5 254 114.5L254 115.5C254.255 115.5 254.56 115.653 254.9 116.181C255.24 116.707 255.552 117.516 255.828 118.604C256.379 120.772 256.751 123.898 257.001 127.689C257.5 135.263 257.5 145.369 257.5 155.5C257.5 165.619 257.5 175.763 258.001 183.377C258.251 187.179 258.629 190.381 259.203 192.643C259.489 193.769 259.833 194.701 260.26 195.361C260.685 196.02 261.255 196.5 262 196.5L262 195.5Z" fill="black"/>
<path d="M228.455 119H227.506V112.895C227.506 112.387 227.521 111.906 227.553 111.453C227.471 111.535 227.379 111.621 227.277 111.711C227.176 111.801 226.711 112.182 225.883 112.854L225.367 112.186L227.635 110.434H228.455V119ZM237.396 114.705C237.396 116.186 237.162 117.291 236.693 118.021C236.229 118.752 235.516 119.117 234.555 119.117C233.633 119.117 232.932 118.744 232.451 117.998C231.971 117.248 231.73 116.15 231.73 114.705C231.73 113.213 231.963 112.105 232.428 111.383C232.893 110.66 233.602 110.299 234.555 110.299C235.484 110.299 236.189 110.676 236.67 111.43C237.154 112.184 237.396 113.275 237.396 114.705ZM232.715 114.705C232.715 115.951 232.861 116.859 233.154 117.43C233.447 117.996 233.914 118.279 234.555 118.279C235.203 118.279 235.672 117.992 235.961 117.418C236.254 116.84 236.4 115.936 236.4 114.705C236.4 113.475 236.254 112.574 235.961 112.004C235.672 111.43 235.203 111.143 234.555 111.143C233.914 111.143 233.447 111.426 233.154 111.992C232.861 112.555 232.715 113.459 232.715 114.705ZM244.217 119H238.586V118.162L240.842 115.895C241.529 115.199 241.982 114.703 242.201 114.406C242.42 114.109 242.584 113.82 242.693 113.539C242.803 113.258 242.857 112.955 242.857 112.631C242.857 112.174 242.719 111.812 242.441 111.547C242.164 111.277 241.779 111.143 241.287 111.143C240.932 111.143 240.594 111.201 240.273 111.318C239.957 111.436 239.604 111.648 239.213 111.957L238.697 111.295C239.486 110.639 240.346 110.311 241.275 110.311C242.08 110.311 242.711 110.518 243.168 110.932C243.625 111.342 243.854 111.895 243.854 112.59C243.854 113.133 243.701 113.67 243.396 114.201C243.092 114.732 242.521 115.404 241.686 116.217L239.811 118.051V118.098H244.217V119ZM251.488 117.031H250.217V119H249.285V117.031H245.119V116.182L249.186 110.387H250.217V116.146H251.488V117.031ZM249.285 116.146V113.299C249.285 112.74 249.305 112.109 249.344 111.406H249.297C249.109 111.781 248.934 112.092 248.77 112.338L246.092 116.146H249.285Z" fill="black"/>
<path d="M350 0.500001C349.586 0.500001 349.232 0.688884 348.946 0.970218C348.665 1.24534 348.43 1.62587 348.225 2.07189C347.816 2.96472 347.479 4.23871 347.195 5.80965C346.627 8.9609 346.251 13.4414 346.001 18.7891C345.5 29.491 345.5 43.7544 345.5 58C345.5 72.2544 345.5 86.491 345.001 97.1641C344.751 102.504 344.377 106.93 343.82 110.013C343.541 111.559 343.222 112.734 342.866 113.511C342.687 113.9 342.513 114.16 342.354 114.316C342.201 114.466 342.086 114.5 342 114.5L342 115.5C342.414 115.5 342.768 115.311 343.054 115.03C343.335 114.755 343.57 114.374 343.775 113.928C344.184 113.035 344.521 111.761 344.805 110.19C345.373 107.039 345.749 102.559 345.999 97.2109C346.5 86.509 346.5 72.2456 346.5 58C346.5 43.7456 346.5 29.509 346.999 18.8359C347.249 13.4961 347.623 9.07035 348.18 5.98723C348.459 4.44098 348.778 3.26576 349.134 2.48866C349.313 2.09972 349.487 1.84012 349.646 1.68384C349.799 1.53377 349.914 1.5 350 1.5L350 0.500001ZM350 228.5C349.914 228.5 349.799 228.466 349.646 228.316C349.487 228.16 349.313 227.9 349.134 227.511C348.778 226.734 348.459 225.559 348.18 224.013C347.623 220.93 347.249 216.504 346.999 211.164C346.5 200.491 346.5 186.254 346.5 172C346.5 157.754 346.5 143.491 345.999 132.789C345.749 127.441 345.373 122.961 344.805 119.81C344.521 118.239 344.184 116.965 343.775 116.072C343.57 115.626 343.335 115.245 343.054 114.97C342.768 114.689 342.414 114.5 342 114.5L342 115.5C342.086 115.5 342.201 115.534 342.354 115.684C342.513 115.84 342.687 116.1 342.866 116.489C343.222 117.266 343.541 118.441 343.82 119.987C344.377 123.07 344.751 127.496 345.001 132.836C345.5 143.509 345.5 157.746 345.5 172C345.5 186.246 345.5 200.509 346.001 211.211C346.251 216.559 346.627 221.039 347.195 224.19C347.479 225.761 347.816 227.035 348.225 227.928C348.43 228.374 348.665 228.755 348.946 229.03C349.232 229.311 349.586 229.5 350 229.5L350 228.5Z" fill="black"/>
<path d="M318.16 112.449C318.16 112.996 318.006 113.443 317.697 113.791C317.393 114.139 316.959 114.371 316.396 114.488V114.535C317.084 114.621 317.594 114.84 317.926 115.191C318.258 115.543 318.424 116.004 318.424 116.574C318.424 117.391 318.141 118.02 317.574 118.461C317.008 118.898 316.203 119.117 315.16 119.117C314.707 119.117 314.291 119.082 313.912 119.012C313.537 118.945 313.172 118.826 312.816 118.654V117.729C313.188 117.912 313.582 118.053 314 118.15C314.422 118.244 314.82 118.291 315.195 118.291C316.676 118.291 317.416 117.711 317.416 116.551C317.416 115.512 316.6 114.992 314.967 114.992H314.123V114.154H314.979C315.646 114.154 316.176 114.008 316.566 113.715C316.957 113.418 317.152 113.008 317.152 112.484C317.152 112.066 317.008 111.738 316.719 111.5C316.434 111.262 316.045 111.143 315.553 111.143C315.178 111.143 314.824 111.193 314.492 111.295C314.16 111.396 313.781 111.584 313.355 111.857L312.863 111.201C313.215 110.924 313.619 110.707 314.076 110.551C314.537 110.391 315.021 110.311 315.529 110.311C316.361 110.311 317.008 110.502 317.469 110.885C317.93 111.264 318.16 111.785 318.16 112.449ZM325.396 114.705C325.396 116.186 325.162 117.291 324.693 118.021C324.229 118.752 323.516 119.117 322.555 119.117C321.633 119.117 320.932 118.744 320.451 117.998C319.971 117.248 319.73 116.15 319.73 114.705C319.73 113.213 319.963 112.105 320.428 111.383C320.893 110.66 321.602 110.299 322.555 110.299C323.484 110.299 324.189 110.676 324.67 111.43C325.154 112.184 325.396 113.275 325.396 114.705ZM320.715 114.705C320.715 115.951 320.861 116.859 321.154 117.43C321.447 117.996 321.914 118.279 322.555 118.279C323.203 118.279 323.672 117.992 323.961 117.418C324.254 116.84 324.4 115.936 324.4 114.705C324.4 113.475 324.254 112.574 323.961 112.004C323.672 111.43 323.203 111.143 322.555 111.143C321.914 111.143 321.447 111.426 321.154 111.992C320.861 112.555 320.715 113.459 320.715 114.705ZM327.67 119L331.221 111.33H326.551V110.434H332.252V111.213L328.748 119H327.67ZM339.084 119H333.453V118.162L335.709 115.895C336.396 115.199 336.85 114.703 337.068 114.406C337.287 114.109 337.451 113.82 337.561 113.539C337.67 113.258 337.725 112.955 337.725 112.631C337.725 112.174 337.586 111.812 337.309 111.547C337.031 111.277 336.646 111.143 336.154 111.143C335.799 111.143 335.461 111.201 335.141 111.318C334.824 111.436 334.471 111.648 334.08 111.957L333.564 111.295C334.354 110.639 335.213 110.311 336.143 110.311C336.947 110.311 337.578 110.518 338.035 110.932C338.492 111.342 338.721 111.895 338.721 112.59C338.721 113.133 338.568 113.67 338.264 114.201C337.959 114.732 337.389 115.404 336.553 116.217L334.678 118.051V118.098H339.084V119Z" fill="black"/>
<path d="M401.961 43.4492C401.961 43.9961 401.807 44.4434 401.498 44.791C401.193 45.1387 400.76 45.3711 400.197 45.4883V45.5352C400.885 45.6211 401.395 45.8398 401.727 46.1914C402.059 46.543 402.225 47.0039 402.225 47.5742C402.225 48.3906 401.941 49.0195 401.375 49.4609C400.809 49.8984 400.004 50.1172 398.961 50.1172C398.508 50.1172 398.092 50.082 397.713 50.0117C397.338 49.9453 396.973 49.8262 396.617 49.6543V48.7285C396.988 48.9121 397.383 49.0527 397.801 49.1504C398.223 49.2441 398.621 49.291 398.996 49.291C400.477 49.291 401.217 48.7109 401.217 47.5508C401.217 46.5117 400.4 45.9922 398.768 45.9922H397.924V45.1543H398.779C399.447 45.1543 399.977 45.0078 400.367 44.7148C400.758 44.418 400.953 44.0078 400.953 43.4844C400.953 43.0664 400.809 42.7383 400.52 42.5C400.234 42.2617 399.846 42.1426 399.354 42.1426C398.979 42.1426 398.625 42.1934 398.293 42.2949C397.961 42.3965 397.582 42.584 397.156 42.8574L396.664 42.2012C397.016 41.9238 397.42 41.707 397.877 41.5508C398.338 41.3906 398.822 41.3105 399.33 41.3105C400.162 41.3105 400.809 41.502 401.27 41.8848C401.73 42.2637 401.961 42.7852 401.961 43.4492Z" fill="black"/>
<path d="M408.33 52.0963C408.075 51.7571 407.802 51.5067 407.501 51.3561C407.191 51.2007 406.879 51.1658 406.581 51.2153C406.035 51.3058 405.548 51.6869 405.196 51.9518C404.782 52.2633 404.503 52.4586 404.249 52.5007C404.148 52.5175 404.051 52.5079 403.94 52.4523C403.82 52.3919 403.658 52.2649 403.463 52.0049L402.664 52.6062C402.919 52.9454 403.192 53.1958 403.492 53.3464C403.803 53.5018 404.114 53.5367 404.413 53.4872C404.959 53.3967 405.446 53.0156 405.798 52.7507C406.212 52.4392 406.49 52.2439 406.744 52.2018C406.846 52.185 406.942 52.1946 407.053 52.2502C407.174 52.3105 407.335 52.4376 407.531 52.6976L408.33 52.0963ZM402.204 56.7074C402.008 56.4473 401.93 56.2571 401.906 56.1246C401.883 56.0025 401.901 55.9071 401.945 55.8143C402.056 55.5818 402.32 55.3679 402.734 55.0563C403.086 54.7915 403.587 54.429 403.825 53.9296C403.955 53.6565 404.008 53.3471 403.945 53.006C403.883 52.6753 403.718 52.3441 403.463 52.0049L402.664 52.6062C402.859 52.8663 402.937 53.0565 402.962 53.1889C402.984 53.3111 402.967 53.4065 402.923 53.4993C402.812 53.7318 402.547 53.9457 402.133 54.2573C401.781 54.5221 401.28 54.8846 401.042 55.384C400.912 55.6571 400.859 55.9665 400.923 56.3076C400.984 56.6383 401.149 56.9695 401.405 57.3087L402.204 56.7074Z" fill="black"/>
<path d="M405 60.4366L410.889 56L511 56V156.563L505.111 161H405V60.4366Z" fill="white"/>
<path d="M405 60.4366L410.889 56L511 56M405 60.4366H505.111M405 60.4366V161H505.111M511 56L505.111 60.4366M511 56V156.563L505.111 161M505.111 60.4366V161" stroke="black" stroke-width="2"/>
<line x1="178.735" y1="161.265" x2="107.735" y2="90.2652" stroke="black" stroke-width="0.75" stroke-dasharray="2 3"/>
<line x1="107.735" y1="139.735" x2="178.735" y2="68.7348" stroke="black" stroke-width="0.75" stroke-dasharray="2 3"/>
<line x1="266.68" y1="195.196" x2="188.68" y2="68.1963" stroke="black" stroke-width="0.75" stroke-dasharray="2 3"/>
<line x1="188.68" y1="161.804" x2="266.68" y2="34.8037" stroke="black" stroke-width="0.75" stroke-dasharray="2 3"/>
<line x1="354.652" y1="228.141" x2="276.652" y2="35.1405" stroke="black" stroke-width="0.75" stroke-dasharray="2 3"/>
<line x1="276.652" y1="195.86" x2="354.652" y2="1.86012" stroke="black" stroke-width="0.75" stroke-dasharray="2 3"/>
<rect x="28" y="90" width="80" height="50" fill="white" stroke="#32ACF1" stroke-width="2"/>
<rect x="189" y="68" width="94" height="10" transform="rotate(90 189 68)" fill="white" stroke="black" stroke-width="2"/>
<rect x="277" y="34" width="162" height="9.99999" transform="rotate(90 277 34)" fill="white" stroke="black" stroke-width="2"/>
<rect x="365" y="1" width="228" height="9.99999" transform="rotate(90 365 1)" fill="white" stroke="black" stroke-width="2"/>
<path d="M395.354 115.354C395.549 115.158 395.549 114.842 395.354 114.646L392.172 111.464C391.976 111.269 391.66 111.269 391.464 111.464C391.269 111.66 391.269 111.976 391.464 112.172L394.293 115L391.464 117.828C391.269 118.024 391.269 118.34 391.464 118.536C391.66 118.731 391.976 118.731 392.172 118.536L395.354 115.354ZM375 115.5H395V114.5H375V115.5Z" fill="black"/>
</svg>
