<svg width="700" height="105" viewBox="0 0 700 105" fill="none" xmlns="http://www.w3.org/2000/svg">
<path d="M224.5 56C224.5 57.2624 225.309 58.1498 226.49 58.7571C227.662 59.3596 229.293 59.7435 231.184 59.9956C234.974 60.501 240.012 60.5 245 60.5C250.012 60.5 254.974 60.501 258.684 60.9956C260.543 61.2435 262.037 61.6096 263.053 62.1321C264.059 62.6498 264.5 63.2624 264.5 64L265.5 64C265.5 62.7376 264.691 61.8502 263.51 61.2429C262.338 60.6404 260.707 60.2565 258.816 60.0044C255.026 59.499 249.988 59.5 245 59.5C239.988 59.5 235.026 59.499 231.316 59.0044C229.457 58.7565 227.963 58.3904 226.947 57.8679C225.941 57.3502 225.5 56.7376 225.5 56L224.5 56ZM304.5 56C304.5 56.7376 304.059 57.3502 303.053 57.8679C302.037 58.3904 300.543 58.7565 298.684 59.0044C294.974 59.499 290.012 59.5 285 59.5C280.012 59.5 274.974 59.499 271.184 60.0044C269.293 60.2565 267.662 60.6404 266.49 61.2429C265.309 61.8502 264.5 62.7376 264.5 64L265.5 64C265.5 63.2624 265.941 62.6498 266.947 62.1321C267.963 61.6096 269.457 61.2435 271.316 60.9956C275.026 60.501 279.988 60.5 285 60.5C289.988 60.5 295.026 60.501 298.816 59.9956C300.707 59.7435 302.338 59.3596 303.51 58.7571C304.691 58.1498 305.5 57.2624 305.5 56L304.5 56Z" fill="black"/>
<path d="M220 0.500001C218.847 0.500001 217.957 0.960373 217.301 1.75652C216.665 2.52985 216.268 3.59694 216.011 4.80193C215.498 7.20877 215.5 10.3942 215.5 13.5C215.5 16.6442 215.498 19.7088 215.011 21.9894C214.768 23.1282 214.415 24.0142 213.926 24.6081C213.457 25.1791 212.847 25.5 212 25.5L212 26.5C213.153 26.5 214.043 26.0396 214.699 25.2435C215.335 24.4702 215.732 23.4031 215.989 22.1981C216.502 19.7912 216.5 16.6058 216.5 13.5C216.5 10.3558 216.502 7.29123 216.989 5.01057C217.232 3.87181 217.585 2.98578 218.074 2.39192C218.543 1.82088 219.153 1.5 220 1.5L220 0.500001ZM220 50.5C219.153 50.5 218.543 50.1791 218.074 49.6081C217.585 49.0142 217.232 48.1282 216.989 46.9894C216.502 44.7088 216.5 41.6442 216.5 38.5C216.5 35.3942 216.502 32.2088 215.989 29.8019C215.732 28.5969 215.335 27.5298 214.699 26.7565C214.043 25.9604 213.153 25.5 212 25.5L212 26.5C212.847 26.5 213.457 26.8209 213.926 27.3919C214.415 27.9858 214.768 28.8718 215.011 30.0106C215.498 32.2912 215.5 35.3558 215.5 38.5C215.5 41.6058 215.498 44.7912 216.011 47.1981C216.268 48.4031 216.665 49.4702 217.301 50.2435C217.957 51.0396 218.847 51.5 220 51.5L220 50.5Z" fill="black"/>
<path d="M262.322 77H261.373V70.8945C261.373 70.3867 261.389 69.9062 261.42 69.4531C261.338 69.5352 261.246 69.6211 261.145 69.7109C261.043 69.8008 260.578 70.1816 259.75 70.8535L259.234 70.1855L261.502 68.4336H262.322V77ZM271.264 72.7051C271.264 74.1855 271.029 75.291 270.561 76.0215C270.096 76.752 269.383 77.1172 268.422 77.1172C267.5 77.1172 266.799 76.7441 266.318 75.998C265.838 75.248 265.598 74.1504 265.598 72.7051C265.598 71.2129 265.83 70.1055 266.295 69.3828C266.76 68.6602 267.469 68.2988 268.422 68.2988C269.352 68.2988 270.057 68.6758 270.537 69.4297C271.021 70.1836 271.264 71.2754 271.264 72.7051ZM266.582 72.7051C266.582 73.9512 266.729 74.8594 267.021 75.4297C267.314 75.9961 267.781 76.2793 268.422 76.2793C269.07 76.2793 269.539 75.9922 269.828 75.418C270.121 74.8398 270.268 73.9355 270.268 72.7051C270.268 71.4746 270.121 70.5742 269.828 70.0039C269.539 69.4297 269.07 69.1426 268.422 69.1426C267.781 69.1426 267.314 69.4258 267.021 69.9922C266.729 70.5547 266.582 71.459 266.582 72.7051Z" fill="black"/>
<path d="M200.322 30H199.373V23.8945C199.373 23.3867 199.389 22.9062 199.42 22.4531C199.338 22.5352 199.246 22.6211 199.145 22.7109C199.043 22.8008 198.578 23.1816 197.75 23.8535L197.234 23.1855L199.502 21.4336H200.322V30ZM203.686 26.3379C203.686 24.6543 204.012 23.3965 204.664 22.5645C205.32 21.7285 206.289 21.3105 207.57 21.3105C208.012 21.3105 208.359 21.3477 208.613 21.4219V22.2598C208.312 22.1621 207.969 22.1133 207.582 22.1133C206.664 22.1133 205.963 22.4004 205.479 22.9746C204.994 23.5449 204.729 24.4434 204.682 25.6699H204.752C205.182 24.998 205.861 24.6621 206.791 24.6621C207.561 24.6621 208.166 24.8945 208.607 25.3594C209.053 25.8242 209.275 26.4551 209.275 27.252C209.275 28.1426 209.031 28.8438 208.543 29.3555C208.059 29.8633 207.402 30.1172 206.574 30.1172C205.688 30.1172 204.984 29.7852 204.465 29.1211C203.945 28.4531 203.686 27.5254 203.686 26.3379ZM206.562 29.291C207.117 29.291 207.547 29.1172 207.852 28.7695C208.16 28.418 208.314 27.9121 208.314 27.252C208.314 26.6855 208.172 26.2402 207.887 25.916C207.602 25.5918 207.176 25.4297 206.609 25.4297C206.258 25.4297 205.936 25.502 205.643 25.6465C205.35 25.791 205.115 25.9902 204.939 26.2441C204.768 26.498 204.682 26.7617 204.682 27.0352C204.682 27.4375 204.76 27.8125 204.916 28.1602C205.072 28.5078 205.293 28.7832 205.578 28.9863C205.867 29.1895 206.195 29.291 206.562 29.291Z" fill="black"/>
<rect x="225" y="1" width="80" height="50" fill="white" stroke="#32ACF1" stroke-width="2"/>
<rect x="415" y="1" width="80" height="50" fill="white" stroke="#AAAAAA" stroke-width="2"/>
<rect x="415" y="30" width="80" height="10" fill="white" stroke="#32ACF1" stroke-width="2"/>
<path d="M246.025 94.6348C246.025 96.0488 245.641 97.1309 244.871 97.8809C244.105 98.627 243.002 99 241.561 99H239.188V90.4336H241.812C243.145 90.4336 244.18 90.8027 244.918 91.541C245.656 92.2793 246.025 93.3105 246.025 94.6348ZM244.971 94.6699C244.971 93.5527 244.689 92.7109 244.127 92.1445C243.568 91.5781 242.736 91.2949 241.631 91.2949H240.184V98.1387H241.396C242.584 98.1387 243.477 97.8477 244.074 97.2656C244.672 96.6797 244.971 95.8145 244.971 94.6699ZM248.768 99H247.795V92.5781H248.768V99ZM247.713 90.8379C247.713 90.6152 247.768 90.4531 247.877 90.3516C247.986 90.2461 248.123 90.1934 248.287 90.1934C248.443 90.1934 248.578 90.2461 248.691 90.3516C248.805 90.457 248.861 90.6191 248.861 90.8379C248.861 91.0566 248.805 91.2207 248.691 91.3301C248.578 91.4355 248.443 91.4883 248.287 91.4883C248.123 91.4883 247.986 91.4355 247.877 91.3301C247.768 91.2207 247.713 91.0566 247.713 90.8379ZM256.086 92.5781V93.1934L254.896 93.334C255.006 93.4707 255.104 93.6504 255.189 93.873C255.275 94.0918 255.318 94.3398 255.318 94.6172C255.318 95.2461 255.104 95.748 254.674 96.123C254.244 96.498 253.654 96.6855 252.904 96.6855C252.713 96.6855 252.533 96.6699 252.365 96.6387C251.951 96.8574 251.744 97.1328 251.744 97.4648C251.744 97.6406 251.816 97.7715 251.961 97.8574C252.105 97.9395 252.354 97.9805 252.705 97.9805H253.842C254.537 97.9805 255.07 98.127 255.441 98.4199C255.816 98.7129 256.004 99.1387 256.004 99.6973C256.004 100.408 255.719 100.949 255.148 101.32C254.578 101.695 253.746 101.883 252.652 101.883C251.812 101.883 251.164 101.727 250.707 101.414C250.254 101.102 250.027 100.66 250.027 100.09C250.027 99.6992 250.152 99.3613 250.402 99.0762C250.652 98.791 251.004 98.5977 251.457 98.4961C251.293 98.4219 251.154 98.3066 251.041 98.1504C250.932 97.9941 250.877 97.8125 250.877 97.6055C250.877 97.3711 250.939 97.166 251.064 96.9902C251.189 96.8145 251.387 96.6445 251.656 96.4805C251.324 96.3438 251.053 96.1113 250.842 95.7832C250.635 95.4551 250.531 95.0801 250.531 94.6582C250.531 93.9551 250.742 93.4141 251.164 93.0352C251.586 92.6523 252.184 92.4609 252.957 92.4609C253.293 92.4609 253.596 92.5 253.865 92.5781H256.086ZM250.965 100.078C250.965 100.426 251.111 100.689 251.404 100.869C251.697 101.049 252.117 101.139 252.664 101.139C253.48 101.139 254.084 101.016 254.475 100.77C254.869 100.527 255.066 100.197 255.066 99.7793C255.066 99.4316 254.959 99.1895 254.744 99.0527C254.529 98.9199 254.125 98.8535 253.531 98.8535H252.365C251.924 98.8535 251.58 98.959 251.334 99.1699C251.088 99.3809 250.965 99.6836 250.965 100.078ZM251.492 94.6348C251.492 95.084 251.619 95.4238 251.873 95.6543C252.127 95.8848 252.48 96 252.934 96C253.883 96 254.357 95.5391 254.357 94.6172C254.357 93.6523 253.877 93.1699 252.916 93.1699C252.459 93.1699 252.107 93.293 251.861 93.5391C251.615 93.7852 251.492 94.1504 251.492 94.6348ZM258.377 99H257.404V92.5781H258.377V99ZM257.322 90.8379C257.322 90.6152 257.377 90.4531 257.486 90.3516C257.596 90.2461 257.732 90.1934 257.896 90.1934C258.053 90.1934 258.188 90.2461 258.301 90.3516C258.414 90.457 258.471 90.6191 258.471 90.8379C258.471 91.0566 258.414 91.2207 258.301 91.3301C258.188 91.4355 258.053 91.4883 257.896 91.4883C257.732 91.4883 257.596 91.4355 257.486 91.3301C257.377 91.2207 257.322 91.0566 257.322 90.8379ZM262.514 98.3145C262.686 98.3145 262.852 98.3027 263.012 98.2793C263.172 98.252 263.299 98.2246 263.393 98.1973V98.9414C263.287 98.9922 263.131 99.0332 262.924 99.0645C262.721 99.0996 262.537 99.1172 262.373 99.1172C261.131 99.1172 260.51 98.4629 260.51 97.1543V93.334H259.59V92.8652L260.51 92.4609L260.92 91.0898H261.482V92.5781H263.346V93.334H261.482V97.1133C261.482 97.5 261.574 97.7969 261.758 98.0039C261.941 98.2109 262.193 98.3145 262.514 98.3145ZM268.496 91.2012C267.555 91.2012 266.811 91.5156 266.264 92.1445C265.721 92.7695 265.449 93.627 265.449 94.7168C265.449 95.8379 265.711 96.7051 266.234 97.3184C266.762 97.9277 267.512 98.2324 268.484 98.2324C269.082 98.2324 269.764 98.125 270.529 97.9102V98.7832C269.936 99.0059 269.203 99.1172 268.332 99.1172C267.07 99.1172 266.096 98.7344 265.408 97.9688C264.725 97.2031 264.383 96.1152 264.383 94.7051C264.383 93.8223 264.547 93.0488 264.875 92.3848C265.207 91.7207 265.684 91.209 266.305 90.8496C266.93 90.4902 267.664 90.3105 268.508 90.3105C269.406 90.3105 270.191 90.4746 270.863 90.8027L270.441 91.6582C269.793 91.3535 269.145 91.2012 268.496 91.2012ZM276.201 99L276.008 98.0859H275.961C275.641 98.4883 275.32 98.7617 275 98.9062C274.684 99.0469 274.287 99.1172 273.811 99.1172C273.174 99.1172 272.674 98.9531 272.311 98.625C271.951 98.2969 271.771 97.8301 271.771 97.2246C271.771 95.9277 272.809 95.248 274.883 95.1855L275.973 95.1504V94.752C275.973 94.248 275.863 93.877 275.645 93.6387C275.43 93.3965 275.084 93.2754 274.607 93.2754C274.072 93.2754 273.467 93.4395 272.791 93.7676L272.492 93.0234C272.809 92.8516 273.154 92.7168 273.529 92.6191C273.908 92.5215 274.287 92.4727 274.666 92.4727C275.432 92.4727 275.998 92.6426 276.365 92.9824C276.736 93.3223 276.922 93.8672 276.922 94.6172V99H276.201ZM274.004 98.3145C274.609 98.3145 275.084 98.1484 275.428 97.8164C275.775 97.4844 275.949 97.0195 275.949 96.4219V95.8418L274.977 95.8828C274.203 95.9102 273.645 96.0312 273.301 96.2461C272.961 96.457 272.791 96.7871 272.791 97.2363C272.791 97.5879 272.896 97.8555 273.107 98.0391C273.322 98.2227 273.621 98.3145 274.004 98.3145ZM281.92 99.1172C281.502 99.1172 281.119 99.041 280.771 98.8887C280.428 98.7324 280.139 98.4941 279.904 98.1738H279.834C279.881 98.5488 279.904 98.9043 279.904 99.2402V101.883H278.932V92.5781H279.723L279.857 93.457H279.904C280.154 93.1055 280.445 92.8516 280.777 92.6953C281.109 92.5391 281.49 92.4609 281.92 92.4609C282.771 92.4609 283.428 92.752 283.889 93.334C284.354 93.916 284.586 94.7324 284.586 95.7832C284.586 96.8379 284.35 97.6582 283.877 98.2441C283.408 98.8262 282.756 99.1172 281.92 99.1172ZM281.779 93.2871C281.123 93.2871 280.648 93.4688 280.355 93.832C280.062 94.1953 279.912 94.7734 279.904 95.5664V95.7832C279.904 96.6855 280.055 97.332 280.355 97.7227C280.656 98.1094 281.139 98.3027 281.803 98.3027C282.357 98.3027 282.791 98.0781 283.104 97.6289C283.42 97.1797 283.578 96.5605 283.578 95.7715C283.578 94.9707 283.42 94.3574 283.104 93.9316C282.791 93.502 282.35 93.2871 281.779 93.2871ZM290.434 97.248C290.434 97.8457 290.211 98.3066 289.766 98.6309C289.32 98.9551 288.695 99.1172 287.891 99.1172C287.039 99.1172 286.375 98.9824 285.898 98.7129V97.8105C286.207 97.9668 286.537 98.0898 286.889 98.1797C287.244 98.2695 287.586 98.3145 287.914 98.3145C288.422 98.3145 288.812 98.2344 289.086 98.0742C289.359 97.9102 289.496 97.6621 289.496 97.3301C289.496 97.0801 289.387 96.8672 289.168 96.6914C288.953 96.5117 288.531 96.3008 287.902 96.0586C287.305 95.8359 286.879 95.6426 286.625 95.4785C286.375 95.3105 286.188 95.1211 286.062 94.9102C285.941 94.6992 285.881 94.4473 285.881 94.1543C285.881 93.6309 286.094 93.2188 286.52 92.918C286.945 92.6133 287.529 92.4609 288.271 92.4609C288.963 92.4609 289.639 92.6016 290.299 92.8828L289.953 93.6738C289.309 93.4082 288.725 93.2754 288.201 93.2754C287.74 93.2754 287.393 93.3477 287.158 93.4922C286.924 93.6367 286.807 93.8359 286.807 94.0898C286.807 94.2617 286.85 94.4082 286.936 94.5293C287.025 94.6504 287.168 94.7656 287.363 94.875C287.559 94.9844 287.934 95.1426 288.488 95.3496C289.25 95.627 289.764 95.9062 290.029 96.1875C290.299 96.4688 290.434 96.8223 290.434 97.248Z" fill="black"/>
<path d="M410.094 99L407.188 91.4062H407.141C407.195 92.0078 407.223 92.7227 407.223 93.5508V99H406.303V90.4336H407.803L410.516 97.5H410.562L413.299 90.4336H414.787V99H413.791V93.4805C413.791 92.8477 413.818 92.1602 413.873 91.418H413.826L410.896 99H410.094ZM420.945 99L420.752 98.0859H420.705C420.385 98.4883 420.064 98.7617 419.744 98.9062C419.428 99.0469 419.031 99.1172 418.555 99.1172C417.918 99.1172 417.418 98.9531 417.055 98.625C416.695 98.2969 416.516 97.8301 416.516 97.2246C416.516 95.9277 417.553 95.248 419.627 95.1855L420.717 95.1504V94.752C420.717 94.248 420.607 93.877 420.389 93.6387C420.174 93.3965 419.828 93.2754 419.352 93.2754C418.816 93.2754 418.211 93.4395 417.535 93.7676L417.236 93.0234C417.553 92.8516 417.898 92.7168 418.273 92.6191C418.652 92.5215 419.031 92.4727 419.41 92.4727C420.176 92.4727 420.742 92.6426 421.109 92.9824C421.48 93.3223 421.666 93.8672 421.666 94.6172V99H420.945ZM418.748 98.3145C419.354 98.3145 419.828 98.1484 420.172 97.8164C420.52 97.4844 420.693 97.0195 420.693 96.4219V95.8418L419.721 95.8828C418.947 95.9102 418.389 96.0312 418.045 96.2461C417.705 96.457 417.535 96.7871 417.535 97.2363C417.535 97.5879 417.641 97.8555 417.852 98.0391C418.066 98.2227 418.365 98.3145 418.748 98.3145ZM427.818 97.248C427.818 97.8457 427.596 98.3066 427.15 98.6309C426.705 98.9551 426.08 99.1172 425.275 99.1172C424.424 99.1172 423.76 98.9824 423.283 98.7129V97.8105C423.592 97.9668 423.922 98.0898 424.273 98.1797C424.629 98.2695 424.971 98.3145 425.299 98.3145C425.807 98.3145 426.197 98.2344 426.471 98.0742C426.744 97.9102 426.881 97.6621 426.881 97.3301C426.881 97.0801 426.771 96.8672 426.553 96.6914C426.338 96.5117 425.916 96.3008 425.287 96.0586C424.689 95.8359 424.264 95.6426 424.01 95.4785C423.76 95.3105 423.572 95.1211 423.447 94.9102C423.326 94.6992 423.266 94.4473 423.266 94.1543C423.266 93.6309 423.479 93.2188 423.904 92.918C424.33 92.6133 424.914 92.4609 425.656 92.4609C426.348 92.4609 427.023 92.6016 427.684 92.8828L427.338 93.6738C426.693 93.4082 426.109 93.2754 425.586 93.2754C425.125 93.2754 424.777 93.3477 424.543 93.4922C424.309 93.6367 424.191 93.8359 424.191 94.0898C424.191 94.2617 424.234 94.4082 424.32 94.5293C424.41 94.6504 424.553 94.7656 424.748 94.875C424.943 94.9844 425.318 95.1426 425.873 95.3496C426.635 95.627 427.148 95.9062 427.414 96.1875C427.684 96.4688 427.818 96.8223 427.818 97.248ZM430.367 95.7129C430.535 95.4746 430.791 95.1621 431.135 94.7754L433.209 92.5781H434.363L431.762 95.3145L434.545 99H433.367L431.1 95.9648L430.367 96.5977V99H429.406V89.8828H430.367V94.7168C430.367 94.9316 430.352 95.2637 430.32 95.7129H430.367ZM438.424 99.1172C437.475 99.1172 436.725 98.8281 436.174 98.25C435.627 97.6719 435.354 96.8691 435.354 95.8418C435.354 94.8066 435.607 93.9844 436.115 93.375C436.627 92.7656 437.312 92.4609 438.172 92.4609C438.977 92.4609 439.613 92.7266 440.082 93.2578C440.551 93.7852 440.785 94.4824 440.785 95.3496V95.9648H436.361C436.381 96.7188 436.57 97.291 436.93 97.6816C437.293 98.0723 437.803 98.2676 438.459 98.2676C439.15 98.2676 439.834 98.123 440.51 97.834V98.7012C440.166 98.8496 439.84 98.9551 439.531 99.0176C439.227 99.084 438.857 99.1172 438.424 99.1172ZM438.16 93.2754C437.645 93.2754 437.232 93.4434 436.924 93.7793C436.619 94.1152 436.439 94.5801 436.385 95.1738H439.742C439.742 94.5605 439.605 94.0918 439.332 93.7676C439.059 93.4395 438.668 93.2754 438.16 93.2754ZM446.82 98.1387H446.768C446.318 98.791 445.646 99.1172 444.752 99.1172C443.912 99.1172 443.258 98.8301 442.789 98.2559C442.324 97.6816 442.092 96.8652 442.092 95.8066C442.092 94.748 442.326 93.9258 442.795 93.3398C443.264 92.7539 443.916 92.4609 444.752 92.4609C445.623 92.4609 446.291 92.7773 446.756 93.4102H446.832L446.791 92.9473L446.768 92.4961V89.8828H447.74V99H446.949L446.82 98.1387ZM444.875 98.3027C445.539 98.3027 446.02 98.123 446.316 97.7637C446.617 97.4004 446.768 96.8164 446.768 96.0117V95.8066C446.768 94.8965 446.615 94.248 446.311 93.8613C446.01 93.4707 445.527 93.2754 444.863 93.2754C444.293 93.2754 443.855 93.498 443.551 93.9434C443.25 94.3848 443.1 95.0098 443.1 95.8184C443.1 96.6387 443.25 97.2578 443.551 97.6758C443.852 98.0938 444.293 98.3027 444.875 98.3027ZM459.91 94.6348C459.91 96.0488 459.525 97.1309 458.756 97.8809C457.99 98.627 456.887 99 455.445 99H453.072V90.4336H455.697C457.029 90.4336 458.064 90.8027 458.803 91.541C459.541 92.2793 459.91 93.3105 459.91 94.6348ZM458.855 94.6699C458.855 93.5527 458.574 92.7109 458.012 92.1445C457.453 91.5781 456.621 91.2949 455.516 91.2949H454.068V98.1387H455.281C456.469 98.1387 457.361 97.8477 457.959 97.2656C458.557 96.6797 458.855 95.8145 458.855 94.6699ZM462.652 99H461.68V92.5781H462.652V99ZM461.598 90.8379C461.598 90.6152 461.652 90.4531 461.762 90.3516C461.871 90.2461 462.008 90.1934 462.172 90.1934C462.328 90.1934 462.463 90.2461 462.576 90.3516C462.689 90.457 462.746 90.6191 462.746 90.8379C462.746 91.0566 462.689 91.2207 462.576 91.3301C462.463 91.4355 462.328 91.4883 462.172 91.4883C462.008 91.4883 461.871 91.4355 461.762 91.3301C461.652 91.2207 461.598 91.0566 461.598 90.8379ZM469.971 92.5781V93.1934L468.781 93.334C468.891 93.4707 468.988 93.6504 469.074 93.873C469.16 94.0918 469.203 94.3398 469.203 94.6172C469.203 95.2461 468.988 95.748 468.559 96.123C468.129 96.498 467.539 96.6855 466.789 96.6855C466.598 96.6855 466.418 96.6699 466.25 96.6387C465.836 96.8574 465.629 97.1328 465.629 97.4648C465.629 97.6406 465.701 97.7715 465.846 97.8574C465.99 97.9395 466.238 97.9805 466.59 97.9805H467.727C468.422 97.9805 468.955 98.127 469.326 98.4199C469.701 98.7129 469.889 99.1387 469.889 99.6973C469.889 100.408 469.604 100.949 469.033 101.32C468.463 101.695 467.631 101.883 466.537 101.883C465.697 101.883 465.049 101.727 464.592 101.414C464.139 101.102 463.912 100.66 463.912 100.09C463.912 99.6992 464.037 99.3613 464.287 99.0762C464.537 98.791 464.889 98.5977 465.342 98.4961C465.178 98.4219 465.039 98.3066 464.926 98.1504C464.816 97.9941 464.762 97.8125 464.762 97.6055C464.762 97.3711 464.824 97.166 464.949 96.9902C465.074 96.8145 465.271 96.6445 465.541 96.4805C465.209 96.3438 464.938 96.1113 464.727 95.7832C464.52 95.4551 464.416 95.0801 464.416 94.6582C464.416 93.9551 464.627 93.4141 465.049 93.0352C465.471 92.6523 466.068 92.4609 466.842 92.4609C467.178 92.4609 467.48 92.5 467.75 92.5781H469.971ZM464.85 100.078C464.85 100.426 464.996 100.689 465.289 100.869C465.582 101.049 466.002 101.139 466.549 101.139C467.365 101.139 467.969 101.016 468.359 100.77C468.754 100.527 468.951 100.197 468.951 99.7793C468.951 99.4316 468.844 99.1895 468.629 99.0527C468.414 98.9199 468.01 98.8535 467.416 98.8535H466.25C465.809 98.8535 465.465 98.959 465.219 99.1699C464.973 99.3809 464.85 99.6836 464.85 100.078ZM465.377 94.6348C465.377 95.084 465.504 95.4238 465.758 95.6543C466.012 95.8848 466.365 96 466.818 96C467.768 96 468.242 95.5391 468.242 94.6172C468.242 93.6523 467.762 93.1699 466.801 93.1699C466.344 93.1699 465.992 93.293 465.746 93.5391C465.5 93.7852 465.377 94.1504 465.377 94.6348ZM472.262 99H471.289V92.5781H472.262V99ZM471.207 90.8379C471.207 90.6152 471.262 90.4531 471.371 90.3516C471.48 90.2461 471.617 90.1934 471.781 90.1934C471.938 90.1934 472.072 90.2461 472.186 90.3516C472.299 90.457 472.355 90.6191 472.355 90.8379C472.355 91.0566 472.299 91.2207 472.186 91.3301C472.072 91.4355 471.938 91.4883 471.781 91.4883C471.617 91.4883 471.48 91.4355 471.371 91.3301C471.262 91.2207 471.207 91.0566 471.207 90.8379ZM476.398 98.3145C476.57 98.3145 476.736 98.3027 476.896 98.2793C477.057 98.252 477.184 98.2246 477.277 98.1973V98.9414C477.172 98.9922 477.016 99.0332 476.809 99.0645C476.605 99.0996 476.422 99.1172 476.258 99.1172C475.016 99.1172 474.395 98.4629 474.395 97.1543V93.334H473.475V92.8652L474.395 92.4609L474.805 91.0898H475.367V92.5781H477.23V93.334H475.367V97.1133C475.367 97.5 475.459 97.7969 475.643 98.0039C475.826 98.2109 476.078 98.3145 476.398 98.3145ZM482.381 91.2012C481.439 91.2012 480.695 91.5156 480.148 92.1445C479.605 92.7695 479.334 93.627 479.334 94.7168C479.334 95.8379 479.596 96.7051 480.119 97.3184C480.646 97.9277 481.396 98.2324 482.369 98.2324C482.967 98.2324 483.648 98.125 484.414 97.9102V98.7832C483.82 99.0059 483.088 99.1172 482.217 99.1172C480.955 99.1172 479.98 98.7344 479.293 97.9688C478.609 97.2031 478.268 96.1152 478.268 94.7051C478.268 93.8223 478.432 93.0488 478.76 92.3848C479.092 91.7207 479.568 91.209 480.189 90.8496C480.814 90.4902 481.549 90.3105 482.393 90.3105C483.291 90.3105 484.076 90.4746 484.748 90.8027L484.326 91.6582C483.678 91.3535 483.029 91.2012 482.381 91.2012ZM490.086 99L489.893 98.0859H489.846C489.525 98.4883 489.205 98.7617 488.885 98.9062C488.568 99.0469 488.172 99.1172 487.695 99.1172C487.059 99.1172 486.559 98.9531 486.195 98.625C485.836 98.2969 485.656 97.8301 485.656 97.2246C485.656 95.9277 486.693 95.248 488.768 95.1855L489.857 95.1504V94.752C489.857 94.248 489.748 93.877 489.529 93.6387C489.314 93.3965 488.969 93.2754 488.492 93.2754C487.957 93.2754 487.352 93.4395 486.676 93.7676L486.377 93.0234C486.693 92.8516 487.039 92.7168 487.414 92.6191C487.793 92.5215 488.172 92.4727 488.551 92.4727C489.316 92.4727 489.883 92.6426 490.25 92.9824C490.621 93.3223 490.807 93.8672 490.807 94.6172V99H490.086ZM487.889 98.3145C488.494 98.3145 488.969 98.1484 489.312 97.8164C489.66 97.4844 489.834 97.0195 489.834 96.4219V95.8418L488.861 95.8828C488.088 95.9102 487.529 96.0312 487.186 96.2461C486.846 96.457 486.676 96.7871 486.676 97.2363C486.676 97.5879 486.781 97.8555 486.992 98.0391C487.207 98.2227 487.506 98.3145 487.889 98.3145ZM495.805 99.1172C495.387 99.1172 495.004 99.041 494.656 98.8887C494.312 98.7324 494.023 98.4941 493.789 98.1738H493.719C493.766 98.5488 493.789 98.9043 493.789 99.2402V101.883H492.816V92.5781H493.607L493.742 93.457H493.789C494.039 93.1055 494.33 92.8516 494.662 92.6953C494.994 92.5391 495.375 92.4609 495.805 92.4609C496.656 92.4609 497.312 92.752 497.773 93.334C498.238 93.916 498.471 94.7324 498.471 95.7832C498.471 96.8379 498.234 97.6582 497.762 98.2441C497.293 98.8262 496.641 99.1172 495.805 99.1172ZM495.664 93.2871C495.008 93.2871 494.533 93.4688 494.24 93.832C493.947 94.1953 493.797 94.7734 493.789 95.5664V95.7832C493.789 96.6855 493.939 97.332 494.24 97.7227C494.541 98.1094 495.023 98.3027 495.688 98.3027C496.242 98.3027 496.676 98.0781 496.988 97.6289C497.305 97.1797 497.463 96.5605 497.463 95.7715C497.463 94.9707 497.305 94.3574 496.988 93.9316C496.676 93.502 496.234 93.2871 495.664 93.2871ZM504.318 97.248C504.318 97.8457 504.096 98.3066 503.65 98.6309C503.205 98.9551 502.58 99.1172 501.775 99.1172C500.924 99.1172 500.26 98.9824 499.783 98.7129V97.8105C500.092 97.9668 500.422 98.0898 500.773 98.1797C501.129 98.2695 501.471 98.3145 501.799 98.3145C502.307 98.3145 502.697 98.2344 502.971 98.0742C503.244 97.9102 503.381 97.6621 503.381 97.3301C503.381 97.0801 503.271 96.8672 503.053 96.6914C502.838 96.5117 502.416 96.3008 501.787 96.0586C501.189 95.8359 500.764 95.6426 500.51 95.4785C500.26 95.3105 500.072 95.1211 499.947 94.9102C499.826 94.6992 499.766 94.4473 499.766 94.1543C499.766 93.6309 499.979 93.2188 500.404 92.918C500.83 92.6133 501.414 92.4609 502.156 92.4609C502.848 92.4609 503.523 92.6016 504.184 92.8828L503.838 93.6738C503.193 93.4082 502.609 93.2754 502.086 93.2754C501.625 93.2754 501.277 93.3477 501.043 93.4922C500.809 93.6367 500.691 93.8359 500.691 94.0898C500.691 94.2617 500.734 94.4082 500.82 94.5293C500.91 94.6504 501.053 94.7656 501.248 94.875C501.443 94.9844 501.818 95.1426 502.373 95.3496C503.135 95.627 503.648 95.9062 503.914 96.1875C504.184 96.4688 504.318 96.8223 504.318 97.248Z" fill="black"/>
<path d="M345.654 99V90.4336H346.65V98.0977H350.43V99H345.654ZM355.691 99L355.498 98.0859H355.451C355.131 98.4883 354.811 98.7617 354.49 98.9062C354.174 99.0469 353.777 99.1172 353.301 99.1172C352.664 99.1172 352.164 98.9531 351.801 98.625C351.441 98.2969 351.262 97.8301 351.262 97.2246C351.262 95.9277 352.299 95.248 354.373 95.1855L355.463 95.1504V94.752C355.463 94.248 355.354 93.877 355.135 93.6387C354.92 93.3965 354.574 93.2754 354.098 93.2754C353.562 93.2754 352.957 93.4395 352.281 93.7676L351.982 93.0234C352.299 92.8516 352.645 92.7168 353.02 92.6191C353.398 92.5215 353.777 92.4727 354.156 92.4727C354.922 92.4727 355.488 92.6426 355.855 92.9824C356.227 93.3223 356.412 93.8672 356.412 94.6172V99H355.691ZM353.494 98.3145C354.1 98.3145 354.574 98.1484 354.918 97.8164C355.266 97.4844 355.439 97.0195 355.439 96.4219V95.8418L354.467 95.8828C353.693 95.9102 353.135 96.0312 352.791 96.2461C352.451 96.457 352.281 96.7871 352.281 97.2363C352.281 97.5879 352.387 97.8555 352.598 98.0391C352.812 98.2227 353.111 98.3145 353.494 98.3145ZM361.41 92.4727C362.254 92.4727 362.908 92.7617 363.373 93.3398C363.842 93.9141 364.076 94.7285 364.076 95.7832C364.076 96.8379 363.84 97.6582 363.367 98.2441C362.898 98.8262 362.246 99.1172 361.41 99.1172C360.992 99.1172 360.609 99.041 360.262 98.8887C359.918 98.7324 359.629 98.4941 359.395 98.1738H359.324L359.119 99H358.422V89.8828H359.395V92.0977C359.395 92.5938 359.379 93.0391 359.348 93.4336H359.395C359.848 92.793 360.52 92.4727 361.41 92.4727ZM361.27 93.2871C360.605 93.2871 360.127 93.4785 359.834 93.8613C359.541 94.2402 359.395 94.8809 359.395 95.7832C359.395 96.6855 359.545 97.332 359.846 97.7227C360.146 98.1094 360.629 98.3027 361.293 98.3027C361.891 98.3027 362.336 98.0859 362.629 97.6523C362.922 97.2148 363.068 96.5879 363.068 95.7715C363.068 94.9355 362.922 94.3125 362.629 93.9023C362.336 93.4922 361.883 93.2871 361.27 93.2871ZM368.494 99.1172C367.545 99.1172 366.795 98.8281 366.244 98.25C365.697 97.6719 365.424 96.8691 365.424 95.8418C365.424 94.8066 365.678 93.9844 366.186 93.375C366.697 92.7656 367.383 92.4609 368.242 92.4609C369.047 92.4609 369.684 92.7266 370.152 93.2578C370.621 93.7852 370.855 94.4824 370.855 95.3496V95.9648H366.432C366.451 96.7188 366.641 97.291 367 97.6816C367.363 98.0723 367.873 98.2676 368.529 98.2676C369.221 98.2676 369.904 98.123 370.58 97.834V98.7012C370.236 98.8496 369.91 98.9551 369.602 99.0176C369.297 99.084 368.928 99.1172 368.494 99.1172ZM368.23 93.2754C367.715 93.2754 367.303 93.4434 366.994 93.7793C366.689 94.1152 366.51 94.5801 366.455 95.1738H369.812C369.812 94.5605 369.676 94.0918 369.402 93.7676C369.129 93.4395 368.738 93.2754 368.23 93.2754ZM373.492 99H372.52V89.8828H373.492V99Z" fill="black"/>
<rect x="355" y="1" width="10" height="50" fill="white" stroke="#AAAAAA" stroke-width="2"/>
<rect x="355" y="30" width="10" height="10" fill="#9BE880" stroke="#45AB21" stroke-width="2"/>
<line x1="350" y1="35.375" x2="310" y2="35.375" stroke="black" stroke-width="0.75" stroke-dasharray="2 3"/>
<line x1="410" y1="35.375" x2="370" y2="35.375" stroke="black" stroke-width="0.75" stroke-dasharray="2 3"/>
</svg>
