<svg width="270" height="132" viewBox="0 0 270 132" fill="none" xmlns="http://www.w3.org/2000/svg">
<path d="M24.252 129V120.434H25.248V129H24.252ZM35.6426 129V124.822C35.6426 124.311 35.5332 123.928 35.3145 123.674C35.0957 123.416 34.7559 123.287 34.2949 123.287C33.6895 123.287 33.2422 123.461 32.9531 123.809C32.6641 124.156 32.5195 124.691 32.5195 125.414V129H31.5469V124.822C31.5469 124.311 31.4375 123.928 31.2188 123.674C31 123.416 30.6582 123.287 30.1934 123.287C29.584 123.287 29.1367 123.471 28.8516 123.838C28.5703 124.201 28.4297 124.799 28.4297 125.631V129H27.457V122.578H28.248L28.4062 123.457H28.4531C28.6367 123.145 28.8945 122.9 29.2266 122.725C29.5625 122.549 29.9375 122.461 30.3516 122.461C31.3555 122.461 32.0117 122.824 32.3203 123.551H32.3672C32.5586 123.215 32.8359 122.949 33.1992 122.754C33.5625 122.559 33.9766 122.461 34.4414 122.461C35.168 122.461 35.7109 122.648 36.0703 123.023C36.4336 123.395 36.6152 123.99 36.6152 124.811V129H35.6426ZM42.5742 129L42.3809 128.086H42.334C42.0137 128.488 41.6934 128.762 41.373 128.906C41.0566 129.047 40.6602 129.117 40.1836 129.117C39.5469 129.117 39.0469 128.953 38.6836 128.625C38.3242 128.297 38.1445 127.83 38.1445 127.225C38.1445 125.928 39.1816 125.248 41.2559 125.186L42.3457 125.15V124.752C42.3457 124.248 42.2363 123.877 42.0176 123.639C41.8027 123.396 41.457 123.275 40.9805 123.275C40.4453 123.275 39.8398 123.439 39.1641 123.768L38.8652 123.023C39.1816 122.852 39.5273 122.717 39.9023 122.619C40.2812 122.521 40.6602 122.473 41.0391 122.473C41.8047 122.473 42.3711 122.643 42.7383 122.982C43.1094 123.322 43.2949 123.867 43.2949 124.617V129H42.5742ZM40.377 128.314C40.9824 128.314 41.457 128.148 41.8008 127.816C42.1484 127.484 42.3223 127.02 42.3223 126.422V125.842L41.3496 125.883C40.5762 125.91 40.0176 126.031 39.6738 126.246C39.334 126.457 39.1641 126.787 39.1641 127.236C39.1641 127.588 39.2695 127.855 39.4805 128.039C39.6953 128.223 39.9941 128.314 40.377 128.314ZM50.5605 122.578V123.193L49.3711 123.334C49.4805 123.471 49.5781 123.65 49.6641 123.873C49.75 124.092 49.793 124.34 49.793 124.617C49.793 125.246 49.5781 125.748 49.1484 126.123C48.7188 126.498 48.1289 126.686 47.3789 126.686C47.1875 126.686 47.0078 126.67 46.8398 126.639C46.4258 126.857 46.2188 127.133 46.2188 127.465C46.2188 127.641 46.291 127.771 46.4355 127.857C46.5801 127.939 46.8281 127.98 47.1797 127.98H48.3164C49.0117 127.98 49.5449 128.127 49.916 128.42C50.291 128.713 50.4785 129.139 50.4785 129.697C50.4785 130.408 50.1934 130.949 49.623 131.32C49.0527 131.695 48.2207 131.883 47.127 131.883C46.2871 131.883 45.6387 131.727 45.1816 131.414C44.7285 131.102 44.502 130.66 44.502 130.09C44.502 129.699 44.627 129.361 44.877 129.076C45.127 128.791 45.4785 128.598 45.9316 128.496C45.7676 128.422 45.6289 128.307 45.5156 128.15C45.4062 127.994 45.3516 127.812 45.3516 127.605C45.3516 127.371 45.4141 127.166 45.5391 126.99C45.6641 126.814 45.8613 126.645 46.1309 126.48C45.7988 126.344 45.5273 126.111 45.3164 125.783C45.1094 125.455 45.0059 125.08 45.0059 124.658C45.0059 123.955 45.2168 123.414 45.6387 123.035C46.0605 122.652 46.6582 122.461 47.4316 122.461C47.7676 122.461 48.0703 122.5 48.3398 122.578H50.5605ZM45.4395 130.078C45.4395 130.426 45.5859 130.689 45.8789 130.869C46.1719 131.049 46.5918 131.139 47.1387 131.139C47.9551 131.139 48.5586 131.016 48.9492 130.77C49.3438 130.527 49.541 130.197 49.541 129.779C49.541 129.432 49.4336 129.189 49.2188 129.053C49.0039 128.92 48.5996 128.854 48.0059 128.854H46.8398C46.3984 128.854 46.0547 128.959 45.8086 129.17C45.5625 129.381 45.4395 129.684 45.4395 130.078ZM45.9668 124.635C45.9668 125.084 46.0938 125.424 46.3477 125.654C46.6016 125.885 46.9551 126 47.4082 126C48.3574 126 48.832 125.539 48.832 124.617C48.832 123.652 48.3516 123.17 47.3906 123.17C46.9336 123.17 46.582 123.293 46.3359 123.539C46.0898 123.785 45.9668 124.15 45.9668 124.635ZM54.5918 129.117C53.6426 129.117 52.8926 128.828 52.3418 128.25C51.7949 127.672 51.5215 126.869 51.5215 125.842C51.5215 124.807 51.7754 123.984 52.2832 123.375C52.7949 122.766 53.4805 122.461 54.3398 122.461C55.1445 122.461 55.7812 122.727 56.25 123.258C56.7188 123.785 56.9531 124.482 56.9531 125.35V125.965H52.5293C52.5488 126.719 52.7383 127.291 53.0977 127.682C53.4609 128.072 53.9707 128.268 54.627 128.268C55.3184 128.268 56.002 128.123 56.6777 127.834V128.701C56.334 128.85 56.0078 128.955 55.6992 129.018C55.3945 129.084 55.0254 129.117 54.5918 129.117ZM54.3281 123.275C53.8125 123.275 53.4004 123.443 53.0918 123.779C52.7871 124.115 52.6074 124.58 52.5527 125.174H55.9102C55.9102 124.561 55.7734 124.092 55.5 123.768C55.2266 123.439 54.8359 123.275 54.3281 123.275ZM62.4316 121.201C61.4902 121.201 60.7461 121.516 60.1992 122.145C59.6562 122.77 59.3848 123.627 59.3848 124.717C59.3848 125.838 59.6465 126.705 60.1699 127.318C60.6973 127.928 61.4473 128.232 62.4199 128.232C63.0176 128.232 63.6992 128.125 64.4648 127.91V128.783C63.8711 129.006 63.1387 129.117 62.2676 129.117C61.0059 129.117 60.0312 128.734 59.3438 127.969C58.6602 127.203 58.3184 126.115 58.3184 124.705C58.3184 123.822 58.4824 123.049 58.8105 122.385C59.1426 121.721 59.6191 121.209 60.2402 120.85C60.8652 120.49 61.5996 120.311 62.4434 120.311C63.3418 120.311 64.127 120.475 64.7988 120.803L64.377 121.658C63.7285 121.354 63.0801 121.201 62.4316 121.201ZM70.1367 129L69.9434 128.086H69.8965C69.5762 128.488 69.2559 128.762 68.9355 128.906C68.6191 129.047 68.2227 129.117 67.7461 129.117C67.1094 129.117 66.6094 128.953 66.2461 128.625C65.8867 128.297 65.707 127.83 65.707 127.225C65.707 125.928 66.7441 125.248 68.8184 125.186L69.9082 125.15V124.752C69.9082 124.248 69.7988 123.877 69.5801 123.639C69.3652 123.396 69.0195 123.275 68.543 123.275C68.0078 123.275 67.4023 123.439 66.7266 123.768L66.4277 123.023C66.7441 122.852 67.0898 122.717 67.4648 122.619C67.8438 122.521 68.2227 122.473 68.6016 122.473C69.3672 122.473 69.9336 122.643 70.3008 122.982C70.6719 123.322 70.8574 123.867 70.8574 124.617V129H70.1367ZM67.9395 128.314C68.5449 128.314 69.0195 128.148 69.3633 127.816C69.7109 127.484 69.8848 127.02 69.8848 126.422V125.842L68.9121 125.883C68.1387 125.91 67.5801 126.031 67.2363 126.246C66.8965 126.457 66.7266 126.787 66.7266 127.236C66.7266 127.588 66.832 127.855 67.043 128.039C67.2578 128.223 67.5566 128.314 67.9395 128.314ZM75.8555 129.117C75.4375 129.117 75.0547 129.041 74.707 128.889C74.3633 128.732 74.0742 128.494 73.8398 128.174H73.7695C73.8164 128.549 73.8398 128.904 73.8398 129.24V131.883H72.8672V122.578H73.6582L73.793 123.457H73.8398C74.0898 123.105 74.3809 122.852 74.7129 122.695C75.0449 122.539 75.4258 122.461 75.8555 122.461C76.707 122.461 77.3633 122.752 77.8242 123.334C78.2891 123.916 78.5215 124.732 78.5215 125.783C78.5215 126.838 78.2852 127.658 77.8125 128.244C77.3438 128.826 76.6914 129.117 75.8555 129.117ZM75.7148 123.287C75.0586 123.287 74.584 123.469 74.291 123.832C73.998 124.195 73.8477 124.773 73.8398 125.566V125.783C73.8398 126.686 73.9902 127.332 74.291 127.723C74.5918 128.109 75.0742 128.303 75.7383 128.303C76.293 128.303 76.7266 128.078 77.0391 127.629C77.3555 127.18 77.5137 126.561 77.5137 125.771C77.5137 124.971 77.3555 124.357 77.0391 123.932C76.7266 123.502 76.2852 123.287 75.7148 123.287ZM84.3691 127.248C84.3691 127.846 84.1465 128.307 83.7012 128.631C83.2559 128.955 82.6309 129.117 81.8262 129.117C80.9746 129.117 80.3105 128.982 79.834 128.713V127.811C80.1426 127.967 80.4727 128.09 80.8242 128.18C81.1797 128.27 81.5215 128.314 81.8496 128.314C82.3574 128.314 82.748 128.234 83.0215 128.074C83.2949 127.91 83.4316 127.662 83.4316 127.33C83.4316 127.08 83.3223 126.867 83.1035 126.691C82.8887 126.512 82.4668 126.301 81.8379 126.059C81.2402 125.836 80.8145 125.643 80.5605 125.479C80.3105 125.311 80.123 125.121 79.998 124.91C79.877 124.699 79.8164 124.447 79.8164 124.154C79.8164 123.631 80.0293 123.219 80.4551 122.918C80.8809 122.613 81.4648 122.461 82.207 122.461C82.8984 122.461 83.5742 122.602 84.2344 122.883L83.8887 123.674C83.2441 123.408 82.6602 123.275 82.1367 123.275C81.6758 123.275 81.3281 123.348 81.0938 123.492C80.8594 123.637 80.7422 123.836 80.7422 124.09C80.7422 124.262 80.7852 124.408 80.8711 124.529C80.9609 124.65 81.1035 124.766 81.2988 124.875C81.4941 124.984 81.8691 125.143 82.4238 125.35C83.1855 125.627 83.6992 125.906 83.9648 126.188C84.2344 126.469 84.3691 126.822 84.3691 127.248Z" fill="black"/>
<path d="M166.158 129L163.252 121.406H163.205C163.26 122.008 163.287 122.723 163.287 123.551V129H162.367V120.434H163.867L166.58 127.5H166.627L169.363 120.434H170.852V129H169.855V123.48C169.855 122.848 169.883 122.16 169.938 121.418H169.891L166.961 129H166.158ZM177.01 129L176.816 128.086H176.77C176.449 128.488 176.129 128.762 175.809 128.906C175.492 129.047 175.096 129.117 174.619 129.117C173.982 129.117 173.482 128.953 173.119 128.625C172.76 128.297 172.58 127.83 172.58 127.225C172.58 125.928 173.617 125.248 175.691 125.186L176.781 125.15V124.752C176.781 124.248 176.672 123.877 176.453 123.639C176.238 123.396 175.893 123.275 175.416 123.275C174.881 123.275 174.275 123.439 173.6 123.768L173.301 123.023C173.617 122.852 173.963 122.717 174.338 122.619C174.717 122.521 175.096 122.473 175.475 122.473C176.24 122.473 176.807 122.643 177.174 122.982C177.545 123.322 177.73 123.867 177.73 124.617V129H177.01ZM174.812 128.314C175.418 128.314 175.893 128.148 176.236 127.816C176.584 127.484 176.758 127.02 176.758 126.422V125.842L175.785 125.883C175.012 125.91 174.453 126.031 174.109 126.246C173.77 126.457 173.6 126.787 173.6 127.236C173.6 127.588 173.705 127.855 173.916 128.039C174.131 128.223 174.43 128.314 174.812 128.314ZM183.883 127.248C183.883 127.846 183.66 128.307 183.215 128.631C182.77 128.955 182.145 129.117 181.34 129.117C180.488 129.117 179.824 128.982 179.348 128.713V127.811C179.656 127.967 179.986 128.09 180.338 128.18C180.693 128.27 181.035 128.314 181.363 128.314C181.871 128.314 182.262 128.234 182.535 128.074C182.809 127.91 182.945 127.662 182.945 127.33C182.945 127.08 182.836 126.867 182.617 126.691C182.402 126.512 181.98 126.301 181.352 126.059C180.754 125.836 180.328 125.643 180.074 125.479C179.824 125.311 179.637 125.121 179.512 124.91C179.391 124.699 179.33 124.447 179.33 124.154C179.33 123.631 179.543 123.219 179.969 122.918C180.395 122.613 180.979 122.461 181.721 122.461C182.412 122.461 183.088 122.602 183.748 122.883L183.402 123.674C182.758 123.408 182.174 123.275 181.65 123.275C181.189 123.275 180.842 123.348 180.607 123.492C180.373 123.637 180.256 123.836 180.256 124.09C180.256 124.262 180.299 124.408 180.385 124.529C180.475 124.65 180.617 124.766 180.812 124.875C181.008 124.984 181.383 125.143 181.938 125.35C182.699 125.627 183.213 125.906 183.479 126.188C183.748 126.469 183.883 126.822 183.883 127.248ZM186.432 125.713C186.6 125.475 186.855 125.162 187.199 124.775L189.273 122.578H190.428L187.826 125.314L190.609 129H189.432L187.164 125.965L186.432 126.598V129H185.471V119.883H186.432V124.717C186.432 124.932 186.416 125.264 186.385 125.713H186.432ZM194.488 129.117C193.539 129.117 192.789 128.828 192.238 128.25C191.691 127.672 191.418 126.869 191.418 125.842C191.418 124.807 191.672 123.984 192.18 123.375C192.691 122.766 193.377 122.461 194.236 122.461C195.041 122.461 195.678 122.727 196.146 123.258C196.615 123.785 196.85 124.482 196.85 125.35V125.965H192.426C192.445 126.719 192.635 127.291 192.994 127.682C193.357 128.072 193.867 128.268 194.523 128.268C195.215 128.268 195.898 128.123 196.574 127.834V128.701C196.23 128.85 195.904 128.955 195.596 129.018C195.291 129.084 194.922 129.117 194.488 129.117ZM194.225 123.275C193.709 123.275 193.297 123.443 192.988 123.779C192.684 124.115 192.504 124.58 192.449 125.174H195.807C195.807 124.561 195.67 124.092 195.396 123.768C195.123 123.439 194.732 123.275 194.225 123.275ZM202.885 128.139H202.832C202.383 128.791 201.711 129.117 200.816 129.117C199.977 129.117 199.322 128.83 198.854 128.256C198.389 127.682 198.156 126.865 198.156 125.807C198.156 124.748 198.391 123.926 198.859 123.34C199.328 122.754 199.98 122.461 200.816 122.461C201.688 122.461 202.355 122.777 202.82 123.41H202.896L202.855 122.947L202.832 122.496V119.883H203.805V129H203.014L202.885 128.139ZM200.939 128.303C201.604 128.303 202.084 128.123 202.381 127.764C202.682 127.4 202.832 126.816 202.832 126.012V125.807C202.832 124.896 202.68 124.248 202.375 123.861C202.074 123.471 201.592 123.275 200.928 123.275C200.357 123.275 199.92 123.498 199.615 123.943C199.314 124.385 199.164 125.01 199.164 125.818C199.164 126.639 199.314 127.258 199.615 127.676C199.916 128.094 200.357 128.303 200.939 128.303ZM209.137 129V120.434H210.133V129H209.137ZM220.527 129V124.822C220.527 124.311 220.418 123.928 220.199 123.674C219.98 123.416 219.641 123.287 219.18 123.287C218.574 123.287 218.127 123.461 217.838 123.809C217.549 124.156 217.404 124.691 217.404 125.414V129H216.432V124.822C216.432 124.311 216.322 123.928 216.104 123.674C215.885 123.416 215.543 123.287 215.078 123.287C214.469 123.287 214.021 123.471 213.736 123.838C213.455 124.201 213.314 124.799 213.314 125.631V129H212.342V122.578H213.133L213.291 123.457H213.338C213.521 123.145 213.779 122.9 214.111 122.725C214.447 122.549 214.822 122.461 215.236 122.461C216.24 122.461 216.896 122.824 217.205 123.551H217.252C217.443 123.215 217.721 122.949 218.084 122.754C218.447 122.559 218.861 122.461 219.326 122.461C220.053 122.461 220.596 122.648 220.955 123.023C221.318 123.395 221.5 123.99 221.5 124.811V129H220.527ZM227.459 129L227.266 128.086H227.219C226.898 128.488 226.578 128.762 226.258 128.906C225.941 129.047 225.545 129.117 225.068 129.117C224.432 129.117 223.932 128.953 223.568 128.625C223.209 128.297 223.029 127.83 223.029 127.225C223.029 125.928 224.066 125.248 226.141 125.186L227.23 125.15V124.752C227.23 124.248 227.121 123.877 226.902 123.639C226.688 123.396 226.342 123.275 225.865 123.275C225.33 123.275 224.725 123.439 224.049 123.768L223.75 123.023C224.066 122.852 224.412 122.717 224.787 122.619C225.166 122.521 225.545 122.473 225.924 122.473C226.689 122.473 227.256 122.643 227.623 122.982C227.994 123.322 228.18 123.867 228.18 124.617V129H227.459ZM225.262 128.314C225.867 128.314 226.342 128.148 226.686 127.816C227.033 127.484 227.207 127.02 227.207 126.422V125.842L226.234 125.883C225.461 125.91 224.902 126.031 224.559 126.246C224.219 126.457 224.049 126.787 224.049 127.236C224.049 127.588 224.154 127.855 224.365 128.039C224.58 128.223 224.879 128.314 225.262 128.314ZM235.445 122.578V123.193L234.256 123.334C234.365 123.471 234.463 123.65 234.549 123.873C234.635 124.092 234.678 124.34 234.678 124.617C234.678 125.246 234.463 125.748 234.033 126.123C233.604 126.498 233.014 126.686 232.264 126.686C232.072 126.686 231.893 126.67 231.725 126.639C231.311 126.857 231.104 127.133 231.104 127.465C231.104 127.641 231.176 127.771 231.32 127.857C231.465 127.939 231.713 127.98 232.064 127.98H233.201C233.896 127.98 234.43 128.127 234.801 128.42C235.176 128.713 235.363 129.139 235.363 129.697C235.363 130.408 235.078 130.949 234.508 131.32C233.938 131.695 233.105 131.883 232.012 131.883C231.172 131.883 230.523 131.727 230.066 131.414C229.613 131.102 229.387 130.66 229.387 130.09C229.387 129.699 229.512 129.361 229.762 129.076C230.012 128.791 230.363 128.598 230.816 128.496C230.652 128.422 230.514 128.307 230.4 128.15C230.291 127.994 230.236 127.812 230.236 127.605C230.236 127.371 230.299 127.166 230.424 126.99C230.549 126.814 230.746 126.645 231.016 126.48C230.684 126.344 230.412 126.111 230.201 125.783C229.994 125.455 229.891 125.08 229.891 124.658C229.891 123.955 230.102 123.414 230.523 123.035C230.945 122.652 231.543 122.461 232.316 122.461C232.652 122.461 232.955 122.5 233.225 122.578H235.445ZM230.324 130.078C230.324 130.426 230.471 130.689 230.764 130.869C231.057 131.049 231.477 131.139 232.023 131.139C232.84 131.139 233.443 131.016 233.834 130.77C234.229 130.527 234.426 130.197 234.426 129.779C234.426 129.432 234.318 129.189 234.104 129.053C233.889 128.92 233.484 128.854 232.891 128.854H231.725C231.283 128.854 230.939 128.959 230.693 129.17C230.447 129.381 230.324 129.684 230.324 130.078ZM230.852 124.635C230.852 125.084 230.979 125.424 231.232 125.654C231.486 125.885 231.84 126 232.293 126C233.242 126 233.717 125.539 233.717 124.617C233.717 123.652 233.236 123.17 232.275 123.17C231.818 123.17 231.467 123.293 231.221 123.539C230.975 123.785 230.852 124.15 230.852 124.635ZM239.477 129.117C238.527 129.117 237.777 128.828 237.227 128.25C236.68 127.672 236.406 126.869 236.406 125.842C236.406 124.807 236.66 123.984 237.168 123.375C237.68 122.766 238.365 122.461 239.225 122.461C240.029 122.461 240.666 122.727 241.135 123.258C241.604 123.785 241.838 124.482 241.838 125.35V125.965H237.414C237.434 126.719 237.623 127.291 237.982 127.682C238.346 128.072 238.855 128.268 239.512 128.268C240.203 128.268 240.887 128.123 241.562 127.834V128.701C241.219 128.85 240.893 128.955 240.584 129.018C240.279 129.084 239.91 129.117 239.477 129.117ZM239.213 123.275C238.697 123.275 238.285 123.443 237.977 123.779C237.672 124.115 237.492 124.58 237.438 125.174H240.795C240.795 124.561 240.658 124.092 240.385 123.768C240.111 123.439 239.721 123.275 239.213 123.275ZM247.316 121.201C246.375 121.201 245.631 121.516 245.084 122.145C244.541 122.77 244.27 123.627 244.27 124.717C244.27 125.838 244.531 126.705 245.055 127.318C245.582 127.928 246.332 128.232 247.305 128.232C247.902 128.232 248.584 128.125 249.35 127.91V128.783C248.756 129.006 248.023 129.117 247.152 129.117C245.891 129.117 244.916 128.734 244.229 127.969C243.545 127.203 243.203 126.115 243.203 124.705C243.203 123.822 243.367 123.049 243.695 122.385C244.027 121.721 244.504 121.209 245.125 120.85C245.75 120.49 246.484 120.311 247.328 120.311C248.227 120.311 249.012 120.475 249.684 120.803L249.262 121.658C248.613 121.354 247.965 121.201 247.316 121.201ZM255.021 129L254.828 128.086H254.781C254.461 128.488 254.141 128.762 253.82 128.906C253.504 129.047 253.107 129.117 252.631 129.117C251.994 129.117 251.494 128.953 251.131 128.625C250.771 128.297 250.592 127.83 250.592 127.225C250.592 125.928 251.629 125.248 253.703 125.186L254.793 125.15V124.752C254.793 124.248 254.684 123.877 254.465 123.639C254.25 123.396 253.904 123.275 253.428 123.275C252.893 123.275 252.287 123.439 251.611 123.768L251.312 123.023C251.629 122.852 251.975 122.717 252.35 122.619C252.729 122.521 253.107 122.473 253.486 122.473C254.252 122.473 254.818 122.643 255.186 122.982C255.557 123.322 255.742 123.867 255.742 124.617V129H255.021ZM252.824 128.314C253.43 128.314 253.904 128.148 254.248 127.816C254.596 127.484 254.77 127.02 254.77 126.422V125.842L253.797 125.883C253.023 125.91 252.465 126.031 252.121 126.246C251.781 126.457 251.611 126.787 251.611 127.236C251.611 127.588 251.717 127.855 251.928 128.039C252.143 128.223 252.441 128.314 252.824 128.314ZM260.74 129.117C260.322 129.117 259.939 129.041 259.592 128.889C259.248 128.732 258.959 128.494 258.725 128.174H258.654C258.701 128.549 258.725 128.904 258.725 129.24V131.883H257.752V122.578H258.543L258.678 123.457H258.725C258.975 123.105 259.266 122.852 259.598 122.695C259.93 122.539 260.311 122.461 260.74 122.461C261.592 122.461 262.248 122.752 262.709 123.334C263.174 123.916 263.406 124.732 263.406 125.783C263.406 126.838 263.17 127.658 262.697 128.244C262.229 128.826 261.576 129.117 260.74 129.117ZM260.6 123.287C259.943 123.287 259.469 123.469 259.176 123.832C258.883 124.195 258.732 124.773 258.725 125.566V125.783C258.725 126.686 258.875 127.332 259.176 127.723C259.477 128.109 259.959 128.303 260.623 128.303C261.178 128.303 261.611 128.078 261.924 127.629C262.24 127.18 262.398 126.561 262.398 125.771C262.398 124.971 262.24 124.357 261.924 123.932C261.611 123.502 261.17 123.287 260.6 123.287ZM269.254 127.248C269.254 127.846 269.031 128.307 268.586 128.631C268.141 128.955 267.516 129.117 266.711 129.117C265.859 129.117 265.195 128.982 264.719 128.713V127.811C265.027 127.967 265.357 128.09 265.709 128.18C266.064 128.27 266.406 128.314 266.734 128.314C267.242 128.314 267.633 128.234 267.906 128.074C268.18 127.91 268.316 127.662 268.316 127.33C268.316 127.08 268.207 126.867 267.988 126.691C267.773 126.512 267.352 126.301 266.723 126.059C266.125 125.836 265.699 125.643 265.445 125.479C265.195 125.311 265.008 125.121 264.883 124.91C264.762 124.699 264.701 124.447 264.701 124.154C264.701 123.631 264.914 123.219 265.34 122.918C265.766 122.613 266.35 122.461 267.092 122.461C267.783 122.461 268.459 122.602 269.119 122.883L268.773 123.674C268.129 123.408 267.545 123.275 267.021 123.275C266.561 123.275 266.213 123.348 265.979 123.492C265.744 123.637 265.627 123.836 265.627 124.09C265.627 124.262 265.67 124.408 265.756 124.529C265.846 124.65 265.988 124.766 266.184 124.875C266.379 124.984 266.754 125.143 267.309 125.35C268.07 125.627 268.584 125.906 268.85 126.188C269.119 126.469 269.254 126.822 269.254 127.248Z" fill="black"/>
<path d="M120.654 129V120.434H121.65V128.098H125.43V129H120.654ZM130.691 129L130.498 128.086H130.451C130.131 128.488 129.811 128.762 129.49 128.906C129.174 129.047 128.777 129.117 128.301 129.117C127.664 129.117 127.164 128.953 126.801 128.625C126.441 128.297 126.262 127.83 126.262 127.225C126.262 125.928 127.299 125.248 129.373 125.186L130.463 125.15V124.752C130.463 124.248 130.354 123.877 130.135 123.639C129.92 123.396 129.574 123.275 129.098 123.275C128.562 123.275 127.957 123.439 127.281 123.768L126.982 123.023C127.299 122.852 127.645 122.717 128.02 122.619C128.398 122.521 128.777 122.473 129.156 122.473C129.922 122.473 130.488 122.643 130.855 122.982C131.227 123.322 131.412 123.867 131.412 124.617V129H130.691ZM128.494 128.314C129.1 128.314 129.574 128.148 129.918 127.816C130.266 127.484 130.439 127.02 130.439 126.422V125.842L129.467 125.883C128.693 125.91 128.135 126.031 127.791 126.246C127.451 126.457 127.281 126.787 127.281 127.236C127.281 127.588 127.387 127.855 127.598 128.039C127.812 128.223 128.111 128.314 128.494 128.314ZM136.41 122.473C137.254 122.473 137.908 122.762 138.373 123.34C138.842 123.914 139.076 124.729 139.076 125.783C139.076 126.838 138.84 127.658 138.367 128.244C137.898 128.826 137.246 129.117 136.41 129.117C135.992 129.117 135.609 129.041 135.262 128.889C134.918 128.732 134.629 128.494 134.395 128.174H134.324L134.119 129H133.422V119.883H134.395V122.098C134.395 122.594 134.379 123.039 134.348 123.434H134.395C134.848 122.793 135.52 122.473 136.41 122.473ZM136.27 123.287C135.605 123.287 135.127 123.479 134.834 123.861C134.541 124.24 134.395 124.881 134.395 125.783C134.395 126.686 134.545 127.332 134.846 127.723C135.146 128.109 135.629 128.303 136.293 128.303C136.891 128.303 137.336 128.086 137.629 127.652C137.922 127.215 138.068 126.588 138.068 125.771C138.068 124.936 137.922 124.312 137.629 123.902C137.336 123.492 136.883 123.287 136.27 123.287ZM143.494 129.117C142.545 129.117 141.795 128.828 141.244 128.25C140.697 127.672 140.424 126.869 140.424 125.842C140.424 124.807 140.678 123.984 141.186 123.375C141.697 122.766 142.383 122.461 143.242 122.461C144.047 122.461 144.684 122.727 145.152 123.258C145.621 123.785 145.855 124.482 145.855 125.35V125.965H141.432C141.451 126.719 141.641 127.291 142 127.682C142.363 128.072 142.873 128.268 143.529 128.268C144.221 128.268 144.904 128.123 145.58 127.834V128.701C145.236 128.85 144.91 128.955 144.602 129.018C144.297 129.084 143.928 129.117 143.494 129.117ZM143.23 123.275C142.715 123.275 142.303 123.443 141.994 123.779C141.689 124.115 141.51 124.58 141.455 125.174H144.812C144.812 124.561 144.676 124.092 144.402 123.768C144.129 123.439 143.738 123.275 143.23 123.275ZM148.492 129H147.52V119.883H148.492V129Z" fill="black"/>
<rect x="130" y="1" width="10" height="80" fill="white" stroke="#AAAAAA" stroke-width="2"/>
<rect x="130" y="53" width="10" height="10" fill="#F495DF" stroke="#E108B1" stroke-width="2"/>
<line x1="125" y1="58.375" x2="85" y2="58.375" stroke="black" stroke-width="0.75" stroke-dasharray="2 3"/>
<line x1="185" y1="58.375" x2="145" y2="58.375" stroke="black" stroke-width="0.75" stroke-dasharray="2 3"/>
<path d="M27.5 86C27.5 87.1608 27.9825 88.0523 28.8069 88.7046C29.6074 89.3379 30.7121 89.7334 31.962 89.9898C34.4604 90.5023 37.7685 90.5 41 90.5C44.2685 90.5 47.4604 90.5023 49.837 90.9898C51.0246 91.2334 51.9512 91.5879 52.5726 92.0796C53.17 92.5523 53.5 93.1608 53.5 94L54.5 94C54.5 92.8392 54.0175 91.9477 53.1931 91.2954C52.3926 90.6621 51.2879 90.2666 50.038 90.0102C47.5396 89.4977 44.2315 89.5 41 89.5C37.7315 89.5 34.5396 89.4977 32.163 89.0102C30.9754 88.7666 30.0488 88.4121 29.4274 87.9204C28.83 87.4477 28.5 86.8392 28.5 86L27.5 86ZM79.5 86C79.5 86.8392 79.17 87.4477 78.5726 87.9204C77.9512 88.4121 77.0246 88.7666 75.837 89.0102C73.4604 89.4977 70.2685 89.5 67 89.5C63.7685 89.5 60.4604 89.4977 57.962 90.0102C56.7121 90.2666 55.6074 90.6621 54.8069 91.2954C53.9825 91.9477 53.5 92.8392 53.5 94L54.5 94C54.5 93.1608 54.83 92.5523 55.4274 92.0796C56.0488 91.5879 56.9754 91.2334 58.163 90.9898C60.5396 90.5023 63.7315 90.5 67 90.5C70.2315 90.5 73.5396 90.5023 76.038 89.9898C77.2879 89.7334 78.3926 89.3379 79.1931 88.7046C80.0175 88.0523 80.5 87.1608 80.5 86L79.5 86Z" fill="black"/>
<path d="M23 0.500001C21.7377 0.500001 20.8503 1.30905 20.2429 2.49008C19.6404 3.6616 19.2565 5.29298 19.0044 7.18392C18.499 10.9742 18.5 16.0123 18.5 21C18.5 26.0123 18.499 30.9742 18.0044 34.6839C17.7565 36.543 17.3904 38.0366 16.8679 39.0526C16.3502 40.0591 15.7376 40.5 15 40.5L15 41.5C16.2624 41.5 17.1498 40.6909 17.7571 39.5099C18.3596 38.3384 18.7435 36.707 18.9956 34.8161C19.501 31.0258 19.5 25.9877 19.5 21C19.5 15.9877 19.501 11.0258 19.9956 7.31608C20.2435 5.45702 20.6097 3.9634 21.1322 2.94743C21.6498 1.94095 22.2624 1.5 23 1.5L23 0.500001ZM23 80.5C22.2624 80.5 21.6498 80.0591 21.1321 79.0526C20.6096 78.0366 20.2435 76.543 19.9956 74.6839C19.501 70.9742 19.5 66.0123 19.5 61C19.5 56.0123 19.501 50.9742 18.9956 47.1839C18.7435 45.293 18.3596 43.6616 17.7571 42.4901C17.1498 41.3091 16.2624 40.5 15 40.5L15 41.5C15.7376 41.5 16.3502 41.9409 16.8679 42.9474C17.3904 43.9634 17.7565 45.457 18.0044 47.3161C18.499 51.0258 18.5 55.9877 18.5 61C18.5 65.9877 18.499 71.0258 19.0044 74.8161C19.2565 76.707 19.6404 78.3384 20.2429 79.5099C20.8502 80.6909 21.7376 81.5 23 81.5L23 80.5Z" fill="black"/>
<path d="M51.3223 107H50.373V100.895C50.373 100.387 50.3887 99.9062 50.4199 99.4531C50.3379 99.5352 50.2461 99.6211 50.1445 99.7109C50.043 99.8008 49.5781 100.182 48.75 100.854L48.2344 100.186L50.502 98.4336H51.3223V107ZM54.6855 103.338C54.6855 101.654 55.0117 100.396 55.6641 99.5645C56.3203 98.7285 57.2891 98.3105 58.5703 98.3105C59.0117 98.3105 59.3594 98.3477 59.6133 98.4219V99.2598C59.3125 99.1621 58.9688 99.1133 58.582 99.1133C57.6641 99.1133 56.9629 99.4004 56.4785 99.9746C55.9941 100.545 55.7285 101.443 55.6816 102.67H55.752C56.1816 101.998 56.8613 101.662 57.791 101.662C58.5605 101.662 59.166 101.895 59.6074 102.359C60.0527 102.824 60.2754 103.455 60.2754 104.252C60.2754 105.143 60.0312 105.844 59.543 106.355C59.0586 106.863 58.4023 107.117 57.5742 107.117C56.6875 107.117 55.9844 106.785 55.4648 106.121C54.9453 105.453 54.6855 104.525 54.6855 103.338ZM57.5625 106.291C58.1172 106.291 58.5469 106.117 58.8516 105.77C59.1602 105.418 59.3145 104.912 59.3145 104.252C59.3145 103.686 59.1719 103.24 58.8867 102.916C58.6016 102.592 58.1758 102.43 57.6094 102.43C57.2578 102.43 56.9355 102.502 56.6426 102.646C56.3496 102.791 56.1152 102.99 55.9395 103.244C55.7676 103.498 55.6816 103.762 55.6816 104.035C55.6816 104.438 55.7598 104.812 55.916 105.16C56.0723 105.508 56.293 105.783 56.5781 105.986C56.8672 106.189 57.1953 106.291 57.5625 106.291Z" fill="black"/>
<path d="M3.32227 45H2.37305V38.8945C2.37305 38.3867 2.38867 37.9062 2.41992 37.4531C2.33789 37.5352 2.24609 37.6211 2.14453 37.7109C2.04297 37.8008 1.57812 38.1816 0.75 38.8535L0.234375 38.1855L2.50195 36.4336H3.32227V45ZM12.2637 40.7051C12.2637 42.1855 12.0293 43.291 11.5605 44.0215C11.0957 44.752 10.3828 45.1172 9.42188 45.1172C8.5 45.1172 7.79883 44.7441 7.31836 43.998C6.83789 43.248 6.59766 42.1504 6.59766 40.7051C6.59766 39.2129 6.83008 38.1055 7.29492 37.3828C7.75977 36.6602 8.46875 36.2988 9.42188 36.2988C10.3516 36.2988 11.0566 36.6758 11.5371 37.4297C12.0215 38.1836 12.2637 39.2754 12.2637 40.7051ZM7.58203 40.7051C7.58203 41.9512 7.72852 42.8594 8.02148 43.4297C8.31445 43.9961 8.78125 44.2793 9.42188 44.2793C10.0703 44.2793 10.5391 43.9922 10.8281 43.418C11.1211 42.8398 11.2676 41.9355 11.2676 40.7051C11.2676 39.4746 11.1211 38.5742 10.8281 38.0039C10.5391 37.4297 10.0703 37.1426 9.42188 37.1426C8.78125 37.1426 8.31445 37.4258 8.02148 37.9922C7.72852 38.5547 7.58203 39.459 7.58203 40.7051Z" fill="black"/>
<rect x="28" y="1" width="52" height="80" fill="white" stroke="#32ACF1" stroke-width="2"/>
<rect x="190" y="1" width="52" height="80" fill="white" stroke="#AAAAAA" stroke-width="2"/>
<rect x="190" y="53" width="52" height="10" fill="white" stroke="#32ACF1" stroke-width="2"/>
</svg>
