<svg width="308" height="102" viewBox="0 0 308 102" fill="none" xmlns="http://www.w3.org/2000/svg">
<path d="M27.5 56C27.5 57.2624 28.3091 58.1498 29.4901 58.7571C30.6616 59.3596 32.293 59.7435 34.1839 59.9956C37.9742 60.501 43.0123 60.5 48 60.5C53.0123 60.5 57.9742 60.501 61.6839 60.9956C63.543 61.2435 65.0366 61.6096 66.0526 62.1321C67.0591 62.6498 67.5 63.2624 67.5 64L68.5 64C68.5 62.7376 67.6909 61.8502 66.5099 61.2429C65.3384 60.6404 63.707 60.2565 61.8161 60.0044C58.0258 59.499 52.9877 59.5 48 59.5C42.9877 59.5 38.0258 59.499 34.3161 59.0044C32.457 58.7565 30.9634 58.3904 29.9474 57.8679C28.9409 57.3502 28.5 56.7376 28.5 56L27.5 56ZM107.5 56C107.5 56.7376 107.059 57.3502 106.053 57.8679C105.037 58.3904 103.543 58.7565 101.684 59.0044C97.9742 59.499 93.0123 59.5 88 59.5C83.0123 59.5 77.9742 59.499 74.1839 60.0044C72.293 60.2565 70.6616 60.6404 69.4901 61.2429C68.3091 61.8502 67.5 62.7376 67.5 64L68.5 64C68.5 63.2624 68.9409 62.6498 69.9474 62.1321C70.9634 61.6096 72.457 61.2435 74.3161 60.9956C78.0258 60.501 82.9877 60.5 88 60.5C92.9877 60.5 98.0258 60.501 101.816 59.9956C103.707 59.7435 105.338 59.3596 106.51 58.7571C107.691 58.1498 108.5 57.2624 108.5 56L107.5 56Z" fill="black"/>
<path d="M23 0.500001C21.8468 0.500001 20.9565 0.960373 20.3014 1.75652C19.6651 2.52985 19.2681 3.59694 19.011 4.80193C18.4975 7.20877 18.5 10.3942 18.5 13.5C18.5 16.6442 18.4975 19.7088 18.011 21.9894C17.7681 23.1282 17.4151 24.0142 16.9264 24.6081C16.4565 25.1791 15.8468 25.5 15 25.5L15 26.5C16.1531 26.5 17.0435 26.0396 17.6986 25.2435C18.3349 24.4702 18.7319 23.4031 18.989 22.1981C19.5025 19.7912 19.5 16.6058 19.5 13.5C19.5 10.3558 19.5025 7.29123 19.989 5.01057C20.2319 3.87181 20.5849 2.98578 21.0736 2.39192C21.5435 1.82088 22.1532 1.5 23 1.5L23 0.500001ZM23 50.5C22.1531 50.5 21.5435 50.1791 21.0736 49.6081C20.5849 49.0142 20.2319 48.1282 19.989 46.9894C19.5024 44.7088 19.5 41.6442 19.5 38.5C19.5 35.3942 19.5024 32.2088 18.989 29.8019C18.7319 28.5969 18.3349 27.5298 17.6986 26.7565C17.0435 25.9604 16.1531 25.5 15 25.5L15 26.5C15.8468 26.5 16.4565 26.8209 16.9264 27.3919C17.4151 27.9858 17.7681 28.8718 18.011 30.0106C18.4975 32.2912 18.5 35.3558 18.5 38.5C18.5 41.6058 18.4975 44.7912 19.011 47.1981C19.2681 48.4031 19.6651 49.4702 20.3014 50.2435C20.9565 51.0396 21.8468 51.5 23 51.5L23 50.5Z" fill="black"/>
<path d="M65.3223 77H64.373V70.8945C64.373 70.3867 64.3887 69.9062 64.4199 69.4531C64.3379 69.5352 64.2461 69.6211 64.1445 69.7109C64.043 69.8008 63.5781 70.1816 62.75 70.8535L62.2344 70.1855L64.502 68.4336H65.3223V77ZM74.2637 72.7051C74.2637 74.1855 74.0293 75.291 73.5605 76.0215C73.0957 76.752 72.3828 77.1172 71.4219 77.1172C70.5 77.1172 69.7988 76.7441 69.3184 75.998C68.8379 75.248 68.5977 74.1504 68.5977 72.7051C68.5977 71.2129 68.8301 70.1055 69.2949 69.3828C69.7598 68.6602 70.4688 68.2988 71.4219 68.2988C72.3516 68.2988 73.0566 68.6758 73.5371 69.4297C74.0215 70.1836 74.2637 71.2754 74.2637 72.7051ZM69.582 72.7051C69.582 73.9512 69.7285 74.8594 70.0215 75.4297C70.3145 75.9961 70.7812 76.2793 71.4219 76.2793C72.0703 76.2793 72.5391 75.9922 72.8281 75.418C73.1211 74.8398 73.2676 73.9355 73.2676 72.7051C73.2676 71.4746 73.1211 70.5742 72.8281 70.0039C72.5391 69.4297 72.0703 69.1426 71.4219 69.1426C70.7812 69.1426 70.3145 69.4258 70.0215 69.9922C69.7285 70.5547 69.582 71.459 69.582 72.7051Z" fill="black"/>
<path d="M3.32227 30H2.37305V23.8945C2.37305 23.3867 2.38867 22.9062 2.41992 22.4531C2.33789 22.5352 2.24609 22.6211 2.14453 22.7109C2.04297 22.8008 1.57812 23.1816 0.75 23.8535L0.234375 23.1855L2.50195 21.4336H3.32227V30ZM6.68555 26.3379C6.68555 24.6543 7.01172 23.3965 7.66406 22.5645C8.32031 21.7285 9.28906 21.3105 10.5703 21.3105C11.0117 21.3105 11.3594 21.3477 11.6133 21.4219V22.2598C11.3125 22.1621 10.9688 22.1133 10.582 22.1133C9.66406 22.1133 8.96289 22.4004 8.47852 22.9746C7.99414 23.5449 7.72852 24.4434 7.68164 25.6699H7.75195C8.18164 24.998 8.86133 24.6621 9.79102 24.6621C10.5605 24.6621 11.166 24.8945 11.6074 25.3594C12.0527 25.8242 12.2754 26.4551 12.2754 27.252C12.2754 28.1426 12.0312 28.8438 11.543 29.3555C11.0586 29.8633 10.4023 30.1172 9.57422 30.1172C8.6875 30.1172 7.98438 29.7852 7.46484 29.1211C6.94531 28.4531 6.68555 27.5254 6.68555 26.3379ZM9.5625 29.291C10.1172 29.291 10.5469 29.1172 10.8516 28.7695C11.1602 28.418 11.3145 27.9121 11.3145 27.252C11.3145 26.6855 11.1719 26.2402 10.8867 25.916C10.6016 25.5918 10.1758 25.4297 9.60938 25.4297C9.25781 25.4297 8.93555 25.502 8.64258 25.6465C8.34961 25.791 8.11523 25.9902 7.93945 26.2441C7.76758 26.498 7.68164 26.7617 7.68164 27.0352C7.68164 27.4375 7.75977 27.8125 7.91602 28.1602C8.07227 28.5078 8.29297 28.7832 8.57812 28.9863C8.86719 29.1895 9.19531 29.291 9.5625 29.291Z" fill="black"/>
<rect x="28" y="1" width="80" height="50" fill="white" stroke="#32ACF1" stroke-width="2"/>
<rect x="218" y="1" width="80" height="50" fill="white" stroke="#AAAAAA" stroke-width="2"/>
<rect x="218" y="30" width="80" height="10" fill="white" stroke="#32ACF1" stroke-width="2"/>
<path d="M49.0254 94.6348C49.0254 96.0488 48.6406 97.1309 47.8711 97.8809C47.1055 98.627 46.002 99 44.5605 99H42.1875V90.4336H44.8125C46.1445 90.4336 47.1797 90.8027 47.918 91.541C48.6562 92.2793 49.0254 93.3105 49.0254 94.6348ZM47.9707 94.6699C47.9707 93.5527 47.6895 92.7109 47.127 92.1445C46.5684 91.5781 45.7363 91.2949 44.6309 91.2949H43.1836V98.1387H44.3965C45.584 98.1387 46.4766 97.8477 47.0742 97.2656C47.6719 96.6797 47.9707 95.8145 47.9707 94.6699ZM51.7676 99H50.7949V92.5781H51.7676V99ZM50.7129 90.8379C50.7129 90.6152 50.7676 90.4531 50.877 90.3516C50.9863 90.2461 51.123 90.1934 51.2871 90.1934C51.4434 90.1934 51.5781 90.2461 51.6914 90.3516C51.8047 90.457 51.8613 90.6191 51.8613 90.8379C51.8613 91.0566 51.8047 91.2207 51.6914 91.3301C51.5781 91.4355 51.4434 91.4883 51.2871 91.4883C51.123 91.4883 50.9863 91.4355 50.877 91.3301C50.7676 91.2207 50.7129 91.0566 50.7129 90.8379ZM59.0859 92.5781V93.1934L57.8965 93.334C58.0059 93.4707 58.1035 93.6504 58.1895 93.873C58.2754 94.0918 58.3184 94.3398 58.3184 94.6172C58.3184 95.2461 58.1035 95.748 57.6738 96.123C57.2441 96.498 56.6543 96.6855 55.9043 96.6855C55.7129 96.6855 55.5332 96.6699 55.3652 96.6387C54.9512 96.8574 54.7441 97.1328 54.7441 97.4648C54.7441 97.6406 54.8164 97.7715 54.9609 97.8574C55.1055 97.9395 55.3535 97.9805 55.7051 97.9805H56.8418C57.5371 97.9805 58.0703 98.127 58.4414 98.4199C58.8164 98.7129 59.0039 99.1387 59.0039 99.6973C59.0039 100.408 58.7188 100.949 58.1484 101.32C57.5781 101.695 56.7461 101.883 55.6523 101.883C54.8125 101.883 54.1641 101.727 53.707 101.414C53.2539 101.102 53.0273 100.66 53.0273 100.09C53.0273 99.6992 53.1523 99.3613 53.4023 99.0762C53.6523 98.791 54.0039 98.5977 54.457 98.4961C54.293 98.4219 54.1543 98.3066 54.041 98.1504C53.9316 97.9941 53.877 97.8125 53.877 97.6055C53.877 97.3711 53.9395 97.166 54.0645 96.9902C54.1895 96.8145 54.3867 96.6445 54.6562 96.4805C54.3242 96.3438 54.0527 96.1113 53.8418 95.7832C53.6348 95.4551 53.5312 95.0801 53.5312 94.6582C53.5312 93.9551 53.7422 93.4141 54.1641 93.0352C54.5859 92.6523 55.1836 92.4609 55.957 92.4609C56.293 92.4609 56.5957 92.5 56.8652 92.5781H59.0859ZM53.9648 100.078C53.9648 100.426 54.1113 100.689 54.4043 100.869C54.6973 101.049 55.1172 101.139 55.6641 101.139C56.4805 101.139 57.084 101.016 57.4746 100.77C57.8691 100.527 58.0664 100.197 58.0664 99.7793C58.0664 99.4316 57.959 99.1895 57.7441 99.0527C57.5293 98.9199 57.125 98.8535 56.5312 98.8535H55.3652C54.9238 98.8535 54.5801 98.959 54.334 99.1699C54.0879 99.3809 53.9648 99.6836 53.9648 100.078ZM54.4922 94.6348C54.4922 95.084 54.6191 95.4238 54.873 95.6543C55.127 95.8848 55.4805 96 55.9336 96C56.8828 96 57.3574 95.5391 57.3574 94.6172C57.3574 93.6523 56.877 93.1699 55.916 93.1699C55.459 93.1699 55.1074 93.293 54.8613 93.5391C54.6152 93.7852 54.4922 94.1504 54.4922 94.6348ZM61.377 99H60.4043V92.5781H61.377V99ZM60.3223 90.8379C60.3223 90.6152 60.377 90.4531 60.4863 90.3516C60.5957 90.2461 60.7324 90.1934 60.8965 90.1934C61.0527 90.1934 61.1875 90.2461 61.3008 90.3516C61.4141 90.457 61.4707 90.6191 61.4707 90.8379C61.4707 91.0566 61.4141 91.2207 61.3008 91.3301C61.1875 91.4355 61.0527 91.4883 60.8965 91.4883C60.7324 91.4883 60.5957 91.4355 60.4863 91.3301C60.377 91.2207 60.3223 91.0566 60.3223 90.8379ZM65.5137 98.3145C65.6855 98.3145 65.8516 98.3027 66.0117 98.2793C66.1719 98.252 66.2988 98.2246 66.3926 98.1973V98.9414C66.2871 98.9922 66.1309 99.0332 65.9238 99.0645C65.7207 99.0996 65.5371 99.1172 65.373 99.1172C64.1309 99.1172 63.5098 98.4629 63.5098 97.1543V93.334H62.5898V92.8652L63.5098 92.4609L63.9199 91.0898H64.4824V92.5781H66.3457V93.334H64.4824V97.1133C64.4824 97.5 64.5742 97.7969 64.7578 98.0039C64.9414 98.2109 65.1934 98.3145 65.5137 98.3145ZM71.4961 91.2012C70.5547 91.2012 69.8105 91.5156 69.2637 92.1445C68.7207 92.7695 68.4492 93.627 68.4492 94.7168C68.4492 95.8379 68.7109 96.7051 69.2344 97.3184C69.7617 97.9277 70.5117 98.2324 71.4844 98.2324C72.082 98.2324 72.7637 98.125 73.5293 97.9102V98.7832C72.9355 99.0059 72.2031 99.1172 71.332 99.1172C70.0703 99.1172 69.0957 98.7344 68.4082 97.9688C67.7246 97.2031 67.3828 96.1152 67.3828 94.7051C67.3828 93.8223 67.5469 93.0488 67.875 92.3848C68.207 91.7207 68.6836 91.209 69.3047 90.8496C69.9297 90.4902 70.6641 90.3105 71.5078 90.3105C72.4062 90.3105 73.1914 90.4746 73.8633 90.8027L73.4414 91.6582C72.793 91.3535 72.1445 91.2012 71.4961 91.2012ZM79.2012 99L79.0078 98.0859H78.9609C78.6406 98.4883 78.3203 98.7617 78 98.9062C77.6836 99.0469 77.2871 99.1172 76.8105 99.1172C76.1738 99.1172 75.6738 98.9531 75.3105 98.625C74.9512 98.2969 74.7715 97.8301 74.7715 97.2246C74.7715 95.9277 75.8086 95.248 77.8828 95.1855L78.9727 95.1504V94.752C78.9727 94.248 78.8633 93.877 78.6445 93.6387C78.4297 93.3965 78.084 93.2754 77.6074 93.2754C77.0723 93.2754 76.4668 93.4395 75.791 93.7676L75.4922 93.0234C75.8086 92.8516 76.1543 92.7168 76.5293 92.6191C76.9082 92.5215 77.2871 92.4727 77.666 92.4727C78.4316 92.4727 78.998 92.6426 79.3652 92.9824C79.7363 93.3223 79.9219 93.8672 79.9219 94.6172V99H79.2012ZM77.0039 98.3145C77.6094 98.3145 78.084 98.1484 78.4277 97.8164C78.7754 97.4844 78.9492 97.0195 78.9492 96.4219V95.8418L77.9766 95.8828C77.2031 95.9102 76.6445 96.0312 76.3008 96.2461C75.9609 96.457 75.791 96.7871 75.791 97.2363C75.791 97.5879 75.8965 97.8555 76.1074 98.0391C76.3223 98.2227 76.6211 98.3145 77.0039 98.3145ZM84.9199 99.1172C84.502 99.1172 84.1191 99.041 83.7715 98.8887C83.4277 98.7324 83.1387 98.4941 82.9043 98.1738H82.834C82.8809 98.5488 82.9043 98.9043 82.9043 99.2402V101.883H81.9316V92.5781H82.7227L82.8574 93.457H82.9043C83.1543 93.1055 83.4453 92.8516 83.7773 92.6953C84.1094 92.5391 84.4902 92.4609 84.9199 92.4609C85.7715 92.4609 86.4277 92.752 86.8887 93.334C87.3535 93.916 87.5859 94.7324 87.5859 95.7832C87.5859 96.8379 87.3496 97.6582 86.877 98.2441C86.4082 98.8262 85.7559 99.1172 84.9199 99.1172ZM84.7793 93.2871C84.123 93.2871 83.6484 93.4688 83.3555 93.832C83.0625 94.1953 82.9121 94.7734 82.9043 95.5664V95.7832C82.9043 96.6855 83.0547 97.332 83.3555 97.7227C83.6562 98.1094 84.1387 98.3027 84.8027 98.3027C85.3574 98.3027 85.791 98.0781 86.1035 97.6289C86.4199 97.1797 86.5781 96.5605 86.5781 95.7715C86.5781 94.9707 86.4199 94.3574 86.1035 93.9316C85.791 93.502 85.3496 93.2871 84.7793 93.2871ZM93.4336 97.248C93.4336 97.8457 93.2109 98.3066 92.7656 98.6309C92.3203 98.9551 91.6953 99.1172 90.8906 99.1172C90.0391 99.1172 89.375 98.9824 88.8984 98.7129V97.8105C89.207 97.9668 89.5371 98.0898 89.8887 98.1797C90.2441 98.2695 90.5859 98.3145 90.9141 98.3145C91.4219 98.3145 91.8125 98.2344 92.0859 98.0742C92.3594 97.9102 92.4961 97.6621 92.4961 97.3301C92.4961 97.0801 92.3867 96.8672 92.168 96.6914C91.9531 96.5117 91.5312 96.3008 90.9023 96.0586C90.3047 95.8359 89.8789 95.6426 89.625 95.4785C89.375 95.3105 89.1875 95.1211 89.0625 94.9102C88.9414 94.6992 88.8809 94.4473 88.8809 94.1543C88.8809 93.6309 89.0938 93.2188 89.5195 92.918C89.9453 92.6133 90.5293 92.4609 91.2715 92.4609C91.9629 92.4609 92.6387 92.6016 93.2988 92.8828L92.9531 93.6738C92.3086 93.4082 91.7246 93.2754 91.2012 93.2754C90.7402 93.2754 90.3926 93.3477 90.1582 93.4922C89.9238 93.6367 89.8066 93.8359 89.8066 94.0898C89.8066 94.2617 89.8496 94.4082 89.9355 94.5293C90.0254 94.6504 90.168 94.7656 90.3633 94.875C90.5586 94.9844 90.9336 95.1426 91.4883 95.3496C92.25 95.627 92.7637 95.9062 93.0293 96.1875C93.2988 96.4688 93.4336 96.8223 93.4336 97.248Z" fill="black"/>
<path d="M213.094 99L210.188 91.4062H210.141C210.195 92.0078 210.223 92.7227 210.223 93.5508V99H209.303V90.4336H210.803L213.516 97.5H213.562L216.299 90.4336H217.787V99H216.791V93.4805C216.791 92.8477 216.818 92.1602 216.873 91.418H216.826L213.896 99H213.094ZM223.945 99L223.752 98.0859H223.705C223.385 98.4883 223.064 98.7617 222.744 98.9062C222.428 99.0469 222.031 99.1172 221.555 99.1172C220.918 99.1172 220.418 98.9531 220.055 98.625C219.695 98.2969 219.516 97.8301 219.516 97.2246C219.516 95.9277 220.553 95.248 222.627 95.1855L223.717 95.1504V94.752C223.717 94.248 223.607 93.877 223.389 93.6387C223.174 93.3965 222.828 93.2754 222.352 93.2754C221.816 93.2754 221.211 93.4395 220.535 93.7676L220.236 93.0234C220.553 92.8516 220.898 92.7168 221.273 92.6191C221.652 92.5215 222.031 92.4727 222.41 92.4727C223.176 92.4727 223.742 92.6426 224.109 92.9824C224.48 93.3223 224.666 93.8672 224.666 94.6172V99H223.945ZM221.748 98.3145C222.354 98.3145 222.828 98.1484 223.172 97.8164C223.52 97.4844 223.693 97.0195 223.693 96.4219V95.8418L222.721 95.8828C221.947 95.9102 221.389 96.0312 221.045 96.2461C220.705 96.457 220.535 96.7871 220.535 97.2363C220.535 97.5879 220.641 97.8555 220.852 98.0391C221.066 98.2227 221.365 98.3145 221.748 98.3145ZM230.818 97.248C230.818 97.8457 230.596 98.3066 230.15 98.6309C229.705 98.9551 229.08 99.1172 228.275 99.1172C227.424 99.1172 226.76 98.9824 226.283 98.7129V97.8105C226.592 97.9668 226.922 98.0898 227.273 98.1797C227.629 98.2695 227.971 98.3145 228.299 98.3145C228.807 98.3145 229.197 98.2344 229.471 98.0742C229.744 97.9102 229.881 97.6621 229.881 97.3301C229.881 97.0801 229.771 96.8672 229.553 96.6914C229.338 96.5117 228.916 96.3008 228.287 96.0586C227.689 95.8359 227.264 95.6426 227.01 95.4785C226.76 95.3105 226.572 95.1211 226.447 94.9102C226.326 94.6992 226.266 94.4473 226.266 94.1543C226.266 93.6309 226.479 93.2188 226.904 92.918C227.33 92.6133 227.914 92.4609 228.656 92.4609C229.348 92.4609 230.023 92.6016 230.684 92.8828L230.338 93.6738C229.693 93.4082 229.109 93.2754 228.586 93.2754C228.125 93.2754 227.777 93.3477 227.543 93.4922C227.309 93.6367 227.191 93.8359 227.191 94.0898C227.191 94.2617 227.234 94.4082 227.32 94.5293C227.41 94.6504 227.553 94.7656 227.748 94.875C227.943 94.9844 228.318 95.1426 228.873 95.3496C229.635 95.627 230.148 95.9062 230.414 96.1875C230.684 96.4688 230.818 96.8223 230.818 97.248ZM233.367 95.7129C233.535 95.4746 233.791 95.1621 234.135 94.7754L236.209 92.5781H237.363L234.762 95.3145L237.545 99H236.367L234.1 95.9648L233.367 96.5977V99H232.406V89.8828H233.367V94.7168C233.367 94.9316 233.352 95.2637 233.32 95.7129H233.367ZM241.424 99.1172C240.475 99.1172 239.725 98.8281 239.174 98.25C238.627 97.6719 238.354 96.8691 238.354 95.8418C238.354 94.8066 238.607 93.9844 239.115 93.375C239.627 92.7656 240.312 92.4609 241.172 92.4609C241.977 92.4609 242.613 92.7266 243.082 93.2578C243.551 93.7852 243.785 94.4824 243.785 95.3496V95.9648H239.361C239.381 96.7188 239.57 97.291 239.93 97.6816C240.293 98.0723 240.803 98.2676 241.459 98.2676C242.15 98.2676 242.834 98.123 243.51 97.834V98.7012C243.166 98.8496 242.84 98.9551 242.531 99.0176C242.227 99.084 241.857 99.1172 241.424 99.1172ZM241.16 93.2754C240.645 93.2754 240.232 93.4434 239.924 93.7793C239.619 94.1152 239.439 94.5801 239.385 95.1738H242.742C242.742 94.5605 242.605 94.0918 242.332 93.7676C242.059 93.4395 241.668 93.2754 241.16 93.2754ZM249.82 98.1387H249.768C249.318 98.791 248.646 99.1172 247.752 99.1172C246.912 99.1172 246.258 98.8301 245.789 98.2559C245.324 97.6816 245.092 96.8652 245.092 95.8066C245.092 94.748 245.326 93.9258 245.795 93.3398C246.264 92.7539 246.916 92.4609 247.752 92.4609C248.623 92.4609 249.291 92.7773 249.756 93.4102H249.832L249.791 92.9473L249.768 92.4961V89.8828H250.74V99H249.949L249.82 98.1387ZM247.875 98.3027C248.539 98.3027 249.02 98.123 249.316 97.7637C249.617 97.4004 249.768 96.8164 249.768 96.0117V95.8066C249.768 94.8965 249.615 94.248 249.311 93.8613C249.01 93.4707 248.527 93.2754 247.863 93.2754C247.293 93.2754 246.855 93.498 246.551 93.9434C246.25 94.3848 246.1 95.0098 246.1 95.8184C246.1 96.6387 246.25 97.2578 246.551 97.6758C246.852 98.0938 247.293 98.3027 247.875 98.3027ZM262.91 94.6348C262.91 96.0488 262.525 97.1309 261.756 97.8809C260.99 98.627 259.887 99 258.445 99H256.072V90.4336H258.697C260.029 90.4336 261.064 90.8027 261.803 91.541C262.541 92.2793 262.91 93.3105 262.91 94.6348ZM261.855 94.6699C261.855 93.5527 261.574 92.7109 261.012 92.1445C260.453 91.5781 259.621 91.2949 258.516 91.2949H257.068V98.1387H258.281C259.469 98.1387 260.361 97.8477 260.959 97.2656C261.557 96.6797 261.855 95.8145 261.855 94.6699ZM265.652 99H264.68V92.5781H265.652V99ZM264.598 90.8379C264.598 90.6152 264.652 90.4531 264.762 90.3516C264.871 90.2461 265.008 90.1934 265.172 90.1934C265.328 90.1934 265.463 90.2461 265.576 90.3516C265.689 90.457 265.746 90.6191 265.746 90.8379C265.746 91.0566 265.689 91.2207 265.576 91.3301C265.463 91.4355 265.328 91.4883 265.172 91.4883C265.008 91.4883 264.871 91.4355 264.762 91.3301C264.652 91.2207 264.598 91.0566 264.598 90.8379ZM272.971 92.5781V93.1934L271.781 93.334C271.891 93.4707 271.988 93.6504 272.074 93.873C272.16 94.0918 272.203 94.3398 272.203 94.6172C272.203 95.2461 271.988 95.748 271.559 96.123C271.129 96.498 270.539 96.6855 269.789 96.6855C269.598 96.6855 269.418 96.6699 269.25 96.6387C268.836 96.8574 268.629 97.1328 268.629 97.4648C268.629 97.6406 268.701 97.7715 268.846 97.8574C268.99 97.9395 269.238 97.9805 269.59 97.9805H270.727C271.422 97.9805 271.955 98.127 272.326 98.4199C272.701 98.7129 272.889 99.1387 272.889 99.6973C272.889 100.408 272.604 100.949 272.033 101.32C271.463 101.695 270.631 101.883 269.537 101.883C268.697 101.883 268.049 101.727 267.592 101.414C267.139 101.102 266.912 100.66 266.912 100.09C266.912 99.6992 267.037 99.3613 267.287 99.0762C267.537 98.791 267.889 98.5977 268.342 98.4961C268.178 98.4219 268.039 98.3066 267.926 98.1504C267.816 97.9941 267.762 97.8125 267.762 97.6055C267.762 97.3711 267.824 97.166 267.949 96.9902C268.074 96.8145 268.271 96.6445 268.541 96.4805C268.209 96.3438 267.938 96.1113 267.727 95.7832C267.52 95.4551 267.416 95.0801 267.416 94.6582C267.416 93.9551 267.627 93.4141 268.049 93.0352C268.471 92.6523 269.068 92.4609 269.842 92.4609C270.178 92.4609 270.48 92.5 270.75 92.5781H272.971ZM267.85 100.078C267.85 100.426 267.996 100.689 268.289 100.869C268.582 101.049 269.002 101.139 269.549 101.139C270.365 101.139 270.969 101.016 271.359 100.77C271.754 100.527 271.951 100.197 271.951 99.7793C271.951 99.4316 271.844 99.1895 271.629 99.0527C271.414 98.9199 271.01 98.8535 270.416 98.8535H269.25C268.809 98.8535 268.465 98.959 268.219 99.1699C267.973 99.3809 267.85 99.6836 267.85 100.078ZM268.377 94.6348C268.377 95.084 268.504 95.4238 268.758 95.6543C269.012 95.8848 269.365 96 269.818 96C270.768 96 271.242 95.5391 271.242 94.6172C271.242 93.6523 270.762 93.1699 269.801 93.1699C269.344 93.1699 268.992 93.293 268.746 93.5391C268.5 93.7852 268.377 94.1504 268.377 94.6348ZM275.262 99H274.289V92.5781H275.262V99ZM274.207 90.8379C274.207 90.6152 274.262 90.4531 274.371 90.3516C274.48 90.2461 274.617 90.1934 274.781 90.1934C274.938 90.1934 275.072 90.2461 275.186 90.3516C275.299 90.457 275.355 90.6191 275.355 90.8379C275.355 91.0566 275.299 91.2207 275.186 91.3301C275.072 91.4355 274.938 91.4883 274.781 91.4883C274.617 91.4883 274.48 91.4355 274.371 91.3301C274.262 91.2207 274.207 91.0566 274.207 90.8379ZM279.398 98.3145C279.57 98.3145 279.736 98.3027 279.896 98.2793C280.057 98.252 280.184 98.2246 280.277 98.1973V98.9414C280.172 98.9922 280.016 99.0332 279.809 99.0645C279.605 99.0996 279.422 99.1172 279.258 99.1172C278.016 99.1172 277.395 98.4629 277.395 97.1543V93.334H276.475V92.8652L277.395 92.4609L277.805 91.0898H278.367V92.5781H280.23V93.334H278.367V97.1133C278.367 97.5 278.459 97.7969 278.643 98.0039C278.826 98.2109 279.078 98.3145 279.398 98.3145ZM285.381 91.2012C284.439 91.2012 283.695 91.5156 283.148 92.1445C282.605 92.7695 282.334 93.627 282.334 94.7168C282.334 95.8379 282.596 96.7051 283.119 97.3184C283.646 97.9277 284.396 98.2324 285.369 98.2324C285.967 98.2324 286.648 98.125 287.414 97.9102V98.7832C286.82 99.0059 286.088 99.1172 285.217 99.1172C283.955 99.1172 282.98 98.7344 282.293 97.9688C281.609 97.2031 281.268 96.1152 281.268 94.7051C281.268 93.8223 281.432 93.0488 281.76 92.3848C282.092 91.7207 282.568 91.209 283.189 90.8496C283.814 90.4902 284.549 90.3105 285.393 90.3105C286.291 90.3105 287.076 90.4746 287.748 90.8027L287.326 91.6582C286.678 91.3535 286.029 91.2012 285.381 91.2012ZM293.086 99L292.893 98.0859H292.846C292.525 98.4883 292.205 98.7617 291.885 98.9062C291.568 99.0469 291.172 99.1172 290.695 99.1172C290.059 99.1172 289.559 98.9531 289.195 98.625C288.836 98.2969 288.656 97.8301 288.656 97.2246C288.656 95.9277 289.693 95.248 291.768 95.1855L292.857 95.1504V94.752C292.857 94.248 292.748 93.877 292.529 93.6387C292.314 93.3965 291.969 93.2754 291.492 93.2754C290.957 93.2754 290.352 93.4395 289.676 93.7676L289.377 93.0234C289.693 92.8516 290.039 92.7168 290.414 92.6191C290.793 92.5215 291.172 92.4727 291.551 92.4727C292.316 92.4727 292.883 92.6426 293.25 92.9824C293.621 93.3223 293.807 93.8672 293.807 94.6172V99H293.086ZM290.889 98.3145C291.494 98.3145 291.969 98.1484 292.312 97.8164C292.66 97.4844 292.834 97.0195 292.834 96.4219V95.8418L291.861 95.8828C291.088 95.9102 290.529 96.0312 290.186 96.2461C289.846 96.457 289.676 96.7871 289.676 97.2363C289.676 97.5879 289.781 97.8555 289.992 98.0391C290.207 98.2227 290.506 98.3145 290.889 98.3145ZM298.805 99.1172C298.387 99.1172 298.004 99.041 297.656 98.8887C297.312 98.7324 297.023 98.4941 296.789 98.1738H296.719C296.766 98.5488 296.789 98.9043 296.789 99.2402V101.883H295.816V92.5781H296.607L296.742 93.457H296.789C297.039 93.1055 297.33 92.8516 297.662 92.6953C297.994 92.5391 298.375 92.4609 298.805 92.4609C299.656 92.4609 300.312 92.752 300.773 93.334C301.238 93.916 301.471 94.7324 301.471 95.7832C301.471 96.8379 301.234 97.6582 300.762 98.2441C300.293 98.8262 299.641 99.1172 298.805 99.1172ZM298.664 93.2871C298.008 93.2871 297.533 93.4688 297.24 93.832C296.947 94.1953 296.797 94.7734 296.789 95.5664V95.7832C296.789 96.6855 296.939 97.332 297.24 97.7227C297.541 98.1094 298.023 98.3027 298.688 98.3027C299.242 98.3027 299.676 98.0781 299.988 97.6289C300.305 97.1797 300.463 96.5605 300.463 95.7715C300.463 94.9707 300.305 94.3574 299.988 93.9316C299.676 93.502 299.234 93.2871 298.664 93.2871ZM307.318 97.248C307.318 97.8457 307.096 98.3066 306.65 98.6309C306.205 98.9551 305.58 99.1172 304.775 99.1172C303.924 99.1172 303.26 98.9824 302.783 98.7129V97.8105C303.092 97.9668 303.422 98.0898 303.773 98.1797C304.129 98.2695 304.471 98.3145 304.799 98.3145C305.307 98.3145 305.697 98.2344 305.971 98.0742C306.244 97.9102 306.381 97.6621 306.381 97.3301C306.381 97.0801 306.271 96.8672 306.053 96.6914C305.838 96.5117 305.416 96.3008 304.787 96.0586C304.189 95.8359 303.764 95.6426 303.51 95.4785C303.26 95.3105 303.072 95.1211 302.947 94.9102C302.826 94.6992 302.766 94.4473 302.766 94.1543C302.766 93.6309 302.979 93.2188 303.404 92.918C303.83 92.6133 304.414 92.4609 305.156 92.4609C305.848 92.4609 306.523 92.6016 307.184 92.8828L306.838 93.6738C306.193 93.4082 305.609 93.2754 305.086 93.2754C304.625 93.2754 304.277 93.3477 304.043 93.4922C303.809 93.6367 303.691 93.8359 303.691 94.0898C303.691 94.2617 303.734 94.4082 303.82 94.5293C303.91 94.6504 304.053 94.7656 304.248 94.875C304.443 94.9844 304.818 95.1426 305.373 95.3496C306.135 95.627 306.648 95.9062 306.914 96.1875C307.184 96.4688 307.318 96.8223 307.318 97.248Z" fill="black"/>
<path d="M148.654 99V90.4336H149.65V98.0977H153.43V99H148.654ZM158.691 99L158.498 98.0859H158.451C158.131 98.4883 157.811 98.7617 157.49 98.9062C157.174 99.0469 156.777 99.1172 156.301 99.1172C155.664 99.1172 155.164 98.9531 154.801 98.625C154.441 98.2969 154.262 97.8301 154.262 97.2246C154.262 95.9277 155.299 95.248 157.373 95.1855L158.463 95.1504V94.752C158.463 94.248 158.354 93.877 158.135 93.6387C157.92 93.3965 157.574 93.2754 157.098 93.2754C156.562 93.2754 155.957 93.4395 155.281 93.7676L154.982 93.0234C155.299 92.8516 155.645 92.7168 156.02 92.6191C156.398 92.5215 156.777 92.4727 157.156 92.4727C157.922 92.4727 158.488 92.6426 158.855 92.9824C159.227 93.3223 159.412 93.8672 159.412 94.6172V99H158.691ZM156.494 98.3145C157.1 98.3145 157.574 98.1484 157.918 97.8164C158.266 97.4844 158.439 97.0195 158.439 96.4219V95.8418L157.467 95.8828C156.693 95.9102 156.135 96.0312 155.791 96.2461C155.451 96.457 155.281 96.7871 155.281 97.2363C155.281 97.5879 155.387 97.8555 155.598 98.0391C155.812 98.2227 156.111 98.3145 156.494 98.3145ZM164.41 92.4727C165.254 92.4727 165.908 92.7617 166.373 93.3398C166.842 93.9141 167.076 94.7285 167.076 95.7832C167.076 96.8379 166.84 97.6582 166.367 98.2441C165.898 98.8262 165.246 99.1172 164.41 99.1172C163.992 99.1172 163.609 99.041 163.262 98.8887C162.918 98.7324 162.629 98.4941 162.395 98.1738H162.324L162.119 99H161.422V89.8828H162.395V92.0977C162.395 92.5938 162.379 93.0391 162.348 93.4336H162.395C162.848 92.793 163.52 92.4727 164.41 92.4727ZM164.27 93.2871C163.605 93.2871 163.127 93.4785 162.834 93.8613C162.541 94.2402 162.395 94.8809 162.395 95.7832C162.395 96.6855 162.545 97.332 162.846 97.7227C163.146 98.1094 163.629 98.3027 164.293 98.3027C164.891 98.3027 165.336 98.0859 165.629 97.6523C165.922 97.2148 166.068 96.5879 166.068 95.7715C166.068 94.9355 165.922 94.3125 165.629 93.9023C165.336 93.4922 164.883 93.2871 164.27 93.2871ZM171.494 99.1172C170.545 99.1172 169.795 98.8281 169.244 98.25C168.697 97.6719 168.424 96.8691 168.424 95.8418C168.424 94.8066 168.678 93.9844 169.186 93.375C169.697 92.7656 170.383 92.4609 171.242 92.4609C172.047 92.4609 172.684 92.7266 173.152 93.2578C173.621 93.7852 173.855 94.4824 173.855 95.3496V95.9648H169.432C169.451 96.7188 169.641 97.291 170 97.6816C170.363 98.0723 170.873 98.2676 171.529 98.2676C172.221 98.2676 172.904 98.123 173.58 97.834V98.7012C173.236 98.8496 172.91 98.9551 172.602 99.0176C172.297 99.084 171.928 99.1172 171.494 99.1172ZM171.23 93.2754C170.715 93.2754 170.303 93.4434 169.994 93.7793C169.689 94.1152 169.51 94.5801 169.455 95.1738H172.812C172.812 94.5605 172.676 94.0918 172.402 93.7676C172.129 93.4395 171.738 93.2754 171.23 93.2754ZM176.492 99H175.52V89.8828H176.492V99Z" fill="black"/>
<rect x="158" y="1" width="10" height="50" fill="white" stroke="#AAAAAA" stroke-width="2"/>
<rect x="158" y="30" width="10" height="10" fill="#9BE880" stroke="#45AB21" stroke-width="2"/>
<line x1="153" y1="35.375" x2="113" y2="35.375" stroke="black" stroke-width="0.75" stroke-dasharray="2 3"/>
<line x1="213" y1="35.375" x2="173" y2="35.375" stroke="black" stroke-width="0.75" stroke-dasharray="2 3"/>
</svg>
